<svg width="31" height="54" viewBox="0 0 31 54" fill="none" xmlns="http://www.w3.org/2000/svg">
  <g clip-path="url(#clip0_166_414)">
    <path
      d="M26.4162 0C25.0581 0.37125 24.1753 1.38375 23.2246 2.32875C15.9245 9.585 8.6583 16.8075 1.35819 24.0637C0.169802 25.245 -0.373461 26.595 0.237711 28.215C0.441435 28.7887 0.848883 29.3962 1.29029 29.835C8.96389 37.4962 16.6375 45.1237 24.3111 52.7175C26.3483 54.7425 29.3702 54.3037 30.5926 51.84C31.2377 50.49 31.0679 49.1737 30.2191 47.9587C30.0154 47.6887 29.7437 47.4187 29.5061 47.1825C22.919 40.635 16.2979 34.0537 9.71087 27.5062C9.57506 27.3712 9.37133 27.2362 9.16761 27.0675C9.37133 26.865 9.50715 26.6962 9.64297 26.5612C16.2979 19.9462 22.9529 13.3312 29.6079 6.71625C30.7963 5.535 31.3056 4.185 30.7624 2.565C30.3889 1.4175 29.574 0.64125 28.4195 0.2025C28.2498 0.135 28.08 0.0675 27.9102 0C27.4009 0 26.9256 0 26.4162 0Z"
      fill="white" />
  </g>
  <defs>
    <clipPath id="clip0_166_414">
      <rect width="31" height="54" fill="white" transform="matrix(-1 0 0 1 31 0)" />
    </clipPath>
  </defs>
</svg>