<svg width="31" height="54" viewBox="0 0 31 54" fill="none" xmlns="http://www.w3.org/2000/svg">
  <g clip-path="url(#clip0_166_408)">
    <path
      d="M4.58388 0C5.94204 0.37125 6.82484 1.38375 7.77556 2.32875C15.0757 9.585 22.3418 16.8075 29.6419 24.0637C30.8303 25.245 31.3736 26.595 30.7624 28.215C30.5587 28.7887 30.1512 29.3962 29.7098 29.835C22.0362 37.4962 14.3626 45.1237 6.68903 52.7175C4.65179 54.7425 1.62988 54.3037 0.407539 51.84C-0.237587 50.49 -0.0678174 49.1737 0.781033 47.9587C0.984757 47.6887 1.25639 47.4187 1.49407 47.1825C8.08114 40.635 14.7022 34.0537 21.2892 27.5062C21.4251 27.3712 21.6288 27.2362 21.8325 27.0675C21.6288 26.865 21.493 26.6962 21.3572 26.5612C14.7022 19.9462 8.04719 13.3312 1.3922 6.71625C0.203814 5.535 -0.305495 4.185 0.237769 2.565C0.611263 1.4175 1.42616 0.64125 2.58059 0.2025C2.75036 0.135 2.92013 0.0675 3.0899 0C3.59921 0 4.07457 0 4.58388 0Z"
      fill="white" />
  </g>
  <defs>
    <clipPath id="clip0_166_408">
      <rect width="31" height="54" fill="white" />
    </clipPath>
  </defs>
</svg>