<svg width="330" height="393" viewBox="0 0 330 393" fill="none" xmlns="http://www.w3.org/2000/svg">
  <path d="M165 102V200.456L259.784 253.926L329 293V238.759C329 210.482 313.762 184.518 288.969 170.894L165 102Z"
    fill="#166866" />
  <path d="M165 100V0L111.497 42.268C100.18 51.0309 101.98 68.5567 114.841 75L165 100Z" fill="#E94E1B" />
  <path
    d="M329.153 44.9509V107.112L234.303 160.539L165.04 199.582V99.9196L297.364 26.4568C311.579 18.4941 329.153 28.7686 329.153 44.9509Z"
    fill="#239493" />
  <path
    d="M165.04 202.151V300.529L70.1896 353.957L0.925781 393V346.508C0.925781 313.886 18.7586 283.833 47.4463 267.908L165.04 202.151Z"
    fill="#166866" />
  <path
    d="M96.0857 261.729L165 301V201.015L36.9429 128.932C21.7714 120.406 3 131.516 3 148.826V208.765L96.0857 261.729Z"
    fill="#239493" />
  <path d="M261.119 311.325L329 350V235L261.119 273.675C246.294 281.871 246.294 302.873 261.119 311.325Z"
    fill="#239493" />
  <path d="M165 102V200.456L259.784 253.926L329 293V238.759C329 210.482 313.762 184.518 288.969 170.894L165 102Z"
    fill="#166866" />
  <path d="M165 100V0L111.497 42.268C100.18 51.0309 101.98 68.5567 114.841 75L165 100Z" fill="#E94E1B" />
  <path
    d="M329.153 44.9509V107.112L234.303 160.539L165.04 199.582V99.9196L297.364 26.4568C311.579 18.4941 329.153 28.7686 329.153 44.9509Z"
    fill="#239493" />
  <path
    d="M165.04 202.151V300.529L70.1896 353.957L0.925781 393V346.508C0.925781 313.886 18.7586 283.833 47.4463 267.908L165.04 202.151Z"
    fill="#166866" />
  <path
    d="M96.0857 261.729L165 301V201.015L36.9429 128.932C21.7714 120.406 3 131.516 3 148.826V208.765L96.0857 261.729Z"
    fill="#239493" />
  <path d="M261.119 311.325L329 350V235L261.119 273.675C246.294 281.871 246.294 302.873 261.119 311.325Z"
    fill="#239493" />
</svg>