<svg width="175" height="70" viewBox="0 0 175 70" fill="none" xmlns="http://www.w3.org/2000/svg">
  <path d="M28.3963 17.9912V0.632812L19.0948 7.96985C17.1272 9.49094 17.4402 12.5331 19.6762 13.6516L28.3963 17.9912Z"
    fill="#E94E1B" />
  <path
    d="M78.0339 12.6674V20.4966H74.9931V12.6674L69.4927 4.56982H72.936L76.4688 9.80417L80.0463 4.56982H83.4896L78.0339 12.6674Z"
    fill="white" />
  <path
    d="M80.8065 14.5466C80.8065 11.1912 83.5344 8.41748 86.933 8.41748C90.3316 8.41748 93.0594 11.1465 93.0594 14.5466C93.0594 17.9019 90.3316 20.6757 86.933 20.6757C83.5344 20.6757 80.8065 17.9019 80.8065 14.5466ZM90.108 14.5466C90.108 12.6676 88.8111 11.2807 87.0224 11.2807C85.2337 11.2807 83.9368 12.6676 83.9368 14.5466C83.9368 16.4256 85.2337 17.8125 87.0224 17.8125C88.8111 17.8125 90.108 16.4703 90.108 14.5466Z"
    fill="white" />
  <path
    d="M105.894 8.64111V20.4967H102.853V19.3335C102.003 20.1835 100.84 20.7204 99.6777 20.7204C96.771 20.7204 94.8033 18.394 94.8033 15.3071V8.64111H97.8889V15.1729C97.8889 16.7834 98.9175 17.8571 100.348 17.8571C101.779 17.8571 102.853 16.7387 102.853 15.1281V8.64111H105.894Z"
    fill="white" />
  <path
    d="M115.776 19.2439C115.776 19.2439 114.48 20.6755 112.422 20.6755C110.365 20.6755 108.8 19.6913 108.8 17.2307V11.37H107.369V8.64098H108.8V4.6593L111.841 4.56982V8.59624H114.658V11.37H111.841V16.2912C111.841 17.2754 112.422 17.857 113.093 17.857C113.898 17.857 114.48 17.2307 114.48 16.828L115.776 19.2439Z"
    fill="white" />
  <path
    d="M128.432 13.8755V20.4967H125.346V13.965C125.346 12.3544 124.318 11.2359 122.842 11.2359C121.366 11.2359 120.338 12.3544 120.338 13.965V20.4967H117.297V2.8252H120.338V9.84906C121.187 8.9543 122.35 8.46218 123.557 8.46218C126.464 8.46218 128.432 10.8333 128.432 13.8755Z"
    fill="white" />
  <path
    d="M73.0701 27.3415V30.6968H77.7209V33.739H73.0701V37.1839H81.5219V40.226H70.074V24.2993H81.5219V27.3415H73.0701Z"
    fill="white" />
  <path
    d="M82.5505 34.2761C82.5505 30.9207 85.2784 28.147 88.677 28.147C90.9576 28.147 92.9252 29.3996 93.9985 31.2339L91.2707 32.576C90.6446 31.5918 89.6608 30.9655 88.677 30.9655C86.8882 30.9655 85.5914 32.3523 85.5914 34.2313C85.5914 36.1103 86.8882 37.4972 88.677 37.4972C89.6608 37.4972 90.5999 36.8709 91.2707 35.8866L93.9985 37.2288C92.97 39.1078 90.9576 40.3157 88.677 40.3157C85.2784 40.4052 82.5505 37.6314 82.5505 34.2761Z"
    fill="white" />
  <path
    d="M95.1165 34.2761C95.1165 30.9207 97.8443 28.147 101.243 28.147C104.642 28.147 107.369 30.876 107.369 34.2761C107.369 37.6314 104.642 40.4052 101.243 40.4052C97.8443 40.4052 95.1165 37.6314 95.1165 34.2761ZM104.418 34.2761C104.418 32.3971 103.121 31.0102 101.332 31.0102C99.5436 31.0102 98.2468 32.3971 98.2468 34.2761C98.2468 36.1551 99.5436 37.542 101.332 37.542C103.121 37.542 104.418 36.1998 104.418 34.2761Z"
    fill="white" />
  <path
    d="M120.114 33.605V40.2262H117.029V33.6497C117.029 32.0392 116 30.9655 114.569 30.9655C113.138 30.9655 112.065 32.0839 112.065 33.6945V40.2262H109.024V28.3707H112.065V29.5339C112.914 28.6838 114.077 28.147 115.24 28.147C118.147 28.147 120.114 30.5181 120.114 33.605Z"
    fill="white" />
  <path
    d="M121.858 34.2761C121.858 30.9207 124.586 28.147 127.985 28.147C131.383 28.147 134.111 30.876 134.111 34.2761C134.111 37.6314 131.383 40.4052 127.985 40.4052C124.586 40.4052 121.858 37.6314 121.858 34.2761ZM131.16 34.2761C131.16 32.3971 129.863 31.0102 128.074 31.0102C126.285 31.0102 124.988 32.3971 124.988 34.2761C124.988 36.1551 126.285 37.542 128.074 37.542C129.863 37.542 131.16 36.1998 131.16 34.2761Z"
    fill="white" />
  <path
    d="M154.905 33.605V40.2262H151.82V33.6497C151.82 32.0392 150.791 30.9655 149.36 30.9655C147.929 30.9655 146.856 32.0839 146.856 33.6945V40.2262H143.77V33.6497C143.77 32.0392 142.742 30.9655 141.266 30.9655C139.79 30.9655 138.762 32.0839 138.762 33.6945V40.2262H135.721V28.3707H138.762V29.5339C139.611 28.6838 140.774 28.147 141.982 28.147C143.636 28.147 144.933 28.8628 145.783 30.0707C146.632 28.9075 148.063 28.147 150.031 28.147C152.938 28.147 154.905 30.5181 154.905 33.605Z"
    fill="white" />
  <path
    d="M157.365 24.5679C157.365 23.6731 158.125 22.9126 159.019 22.9126C159.914 22.9126 160.674 23.6284 160.674 24.5679C160.674 25.5074 159.914 26.2232 159.019 26.2232C158.125 26.2232 157.365 25.5074 157.365 24.5679ZM157.499 28.3706H160.54V40.2262H157.499V28.3706Z"
    fill="white" />
  <path
    d="M162.597 34.2761C162.597 30.9207 165.325 28.147 168.723 28.147C171.004 28.147 172.972 29.3996 174.045 31.2339L171.317 32.576C170.691 31.5918 169.707 30.9655 168.723 30.9655C166.934 30.9655 165.638 32.3523 165.638 34.2313C165.638 36.1103 166.934 37.4972 168.723 37.4972C169.707 37.4972 170.646 36.8709 171.317 35.8866L174.045 37.2288C173.016 39.1078 171.004 40.3157 168.723 40.3157C165.325 40.4052 162.597 37.6314 162.597 34.2761Z"
    fill="white" />
  <path
    d="M69.761 57.3161L71.818 55.2581C71.9522 55.4371 73.6068 57.2713 75.485 57.2713C76.916 57.2713 77.8103 56.645 77.8103 55.6607C77.8103 53.2449 70.074 52.8423 70.074 48.3237C70.074 45.6842 72.4888 43.8499 75.3955 43.8052C78.347 43.8052 80.8512 46.3552 81.1195 46.6237L79.0625 48.6816C78.8836 48.5027 77.229 46.6684 75.3955 46.6684C73.9645 46.6684 73.0702 47.2947 73.0702 48.279C73.0702 50.6948 80.8512 51.0975 80.8512 55.616C80.8512 58.2108 78.3917 60.0898 75.485 60.0898C72.5335 60.1345 69.9846 57.5845 69.761 57.3161Z"
    fill="white" />
  <path
    d="M93.5066 48.1001V59.9557H90.4657V58.7925C89.6161 59.6425 88.4534 60.1794 87.2907 60.1794C84.384 60.1794 82.4164 57.853 82.4164 54.7661V48.1448H85.502V54.6766C85.502 56.2872 86.5305 57.3609 87.9615 57.3609C89.3925 57.3609 90.4657 56.2424 90.4657 54.6318V48.1001H93.5066Z"
    fill="white" />
  <path
    d="M115.106 53.3344V59.9556H112.02V53.4239C112.02 51.8133 110.992 50.7396 109.561 50.7396C108.13 50.7396 107.056 51.858 107.056 53.4686V60.0004H103.971V53.4686C103.971 51.858 102.942 50.7843 101.466 50.7843C99.9908 50.7843 98.9623 51.9028 98.9623 53.5133V60.0451H95.9214V48.1895H98.9623V49.3527C99.8119 48.5027 100.975 47.9658 102.182 47.9658C103.837 47.9658 105.133 48.6816 105.983 49.8896C106.833 48.7264 108.264 47.9658 110.231 47.9658C113.138 47.8764 115.106 50.2475 115.106 53.3344Z"
    fill="white" />
  <path
    d="M136.615 53.3344V59.9556H133.53V53.4239C133.53 51.8133 132.501 50.7396 131.07 50.7396C129.639 50.7396 128.566 51.858 128.566 53.4686V60.0004H125.48V53.4686C125.48 51.858 124.452 50.7843 122.976 50.7843C121.5 50.7843 120.472 51.9028 120.472 53.5133V60.0451H117.431V48.1895H120.472V49.3527C121.322 48.5027 122.484 47.9658 123.692 47.9658C125.346 47.9658 126.643 48.6816 127.493 49.8896C128.342 48.7264 129.773 47.9658 131.741 47.9658C134.648 47.8764 136.615 50.2475 136.615 53.3344Z"
    fill="white" />
  <path
    d="M139.03 44.2974C139.03 43.4026 139.79 42.6421 140.685 42.6421C141.579 42.6421 142.339 43.3579 142.339 44.2974C142.339 45.2369 141.579 45.9527 140.685 45.9527C139.79 45.9527 139.03 45.1922 139.03 44.2974ZM139.209 48.1001H142.25V59.9557H139.209V48.1001Z"
    fill="white" />
  <path
    d="M152.133 58.7031C152.133 58.7031 150.836 60.1347 148.779 60.1347C146.722 60.1347 145.157 59.1504 145.157 56.6899V50.8292H143.726V48.1002H145.157V44.1632L148.197 44.0737V48.1002H151.015V50.8292H148.197V55.7504C148.197 56.7346 148.779 57.3162 149.45 57.3162C150.255 57.3162 150.836 56.6899 150.836 56.2872L152.133 58.7031Z"
    fill="white" />
  <path
    d="M28.3962 18.4834V35.6181L44.808 44.9236L56.7925 51.7237V42.284C56.7925 37.3628 54.1541 32.8443 49.8612 30.4732L28.3962 18.4834Z"
    fill="#CFCFCF" />
  <path
    d="M56.7925 8.46227V19.2889L40.3808 28.5944L28.3962 35.3945V18.0362L51.2922 5.24113C53.7517 3.85425 56.7925 5.64377 56.7925 8.46227Z"
    fill="white" />
  <path
    d="M28.3963 35.8418V52.9765L11.9846 62.282L0 69.0821V60.9846C0 55.3028 3.08558 50.0685 8.04935 47.2947L28.3963 35.8418Z"
    fill="#CFCFCF" />
  <path
    d="M16.4118 46.1764L28.3963 52.9766V35.663L6.12649 23.1811C3.48809 21.7047 0.223633 23.6284 0.223633 26.6259V37.0051L16.4118 46.1764Z"
    fill="white" />
  <path d="M45.1211 54.9447L56.7926 61.7002V41.6128L45.1211 48.3682C42.5721 49.7998 42.5721 53.4684 45.1211 54.9447Z"
    fill="#FEFEFE" />
</svg>