<svg width="174" height="68" viewBox="0 0 174 68" fill="none" xmlns="http://www.w3.org/2000/svg">
  <g clip-path="url(#clip0_166_250)">
    <path d="M28.3963 17.2444V0L19.0948 7.28889C17.1272 8.8 17.4402 11.8222 19.6762 12.9333L28.3963 17.2444Z"
      fill="#E94E1B" />
    <path
      d="M78.0339 11.9555V19.7333H74.9931V11.9555L69.4927 3.9111H72.936L76.4688 9.1111L80.0463 3.9111H83.4896L78.0339 11.9555Z"
      fill="#3C3C3B" />
    <path
      d="M80.8065 13.8222C80.8065 10.4889 83.5344 7.73331 86.933 7.73331C90.3316 7.73331 93.0594 10.4444 93.0594 13.8222C93.0594 17.1555 90.3316 19.9111 86.933 19.9111C83.5344 19.9111 80.8065 17.1555 80.8065 13.8222ZM90.108 13.8222C90.108 11.9555 88.8111 10.5778 87.0224 10.5778C85.2337 10.5778 83.9368 11.9555 83.9368 13.8222C83.9368 15.6889 85.2337 17.0666 87.0224 17.0666C88.8111 17.0666 90.108 15.7333 90.108 13.8222Z"
      fill="#3C3C3B" />
    <path
      d="M105.894 7.95554V19.7333H102.853V18.5778C102.003 19.4222 100.84 19.9555 99.6777 19.9555C96.771 19.9555 94.8033 17.6444 94.8033 14.5778V7.95554H97.8889V14.4444C97.8889 16.0444 98.9175 17.1111 100.348 17.1111C101.779 17.1111 102.853 16 102.853 14.4V7.95554H105.894Z"
      fill="#3C3C3B" />
    <path
      d="M115.776 18.4889C115.776 18.4889 114.48 19.9111 112.422 19.9111C110.365 19.9111 108.8 18.9333 108.8 16.4889V10.6667H107.369V7.95555H108.8V3.99999L111.841 3.9111V7.9111H114.658V10.6667H111.841V15.5555C111.841 16.5333 112.422 17.1111 113.093 17.1111C113.898 17.1111 114.48 16.4889 114.48 16.0889L115.776 18.4889Z"
      fill="#3C3C3B" />
    <path
      d="M128.432 13.1555V19.7333H125.346V13.2444C125.346 11.6444 124.318 10.5333 122.842 10.5333C121.366 10.5333 120.338 11.6444 120.338 13.2444V19.7333H117.297V2.17776H120.338V9.15554C121.187 8.26665 122.35 7.77777 123.557 7.77777C126.464 7.77777 128.432 10.1333 128.432 13.1555Z"
      fill="#3C3C3B" />
    <path
      d="M73.0701 26.5333V29.8667H77.7209V32.8889H73.0701V36.3111H81.5219V39.3333H70.074V23.5111H81.5219V26.5333H73.0701Z"
      fill="#3C3C3B" />
    <path
      d="M82.5505 33.4222C82.5505 30.0889 85.2784 27.3333 88.677 27.3333C90.9576 27.3333 92.9252 28.5778 93.9985 30.4L91.2707 31.7333C90.6446 30.7555 89.6608 30.1333 88.677 30.1333C86.8882 30.1333 85.5914 31.5111 85.5914 33.3778C85.5914 35.2444 86.8882 36.6222 88.677 36.6222C89.6608 36.6222 90.5999 36 91.2707 35.0222L93.9985 36.3555C92.97 38.2222 90.9576 39.4222 88.677 39.4222C85.2784 39.5111 82.5505 36.7555 82.5505 33.4222Z"
      fill="#3C3C3B" />
    <path
      d="M95.1165 33.4222C95.1165 30.0889 97.8443 27.3333 101.243 27.3333C104.642 27.3333 107.369 30.0444 107.369 33.4222C107.369 36.7555 104.642 39.5111 101.243 39.5111C97.8443 39.5111 95.1165 36.7555 95.1165 33.4222ZM104.418 33.4222C104.418 31.5555 103.121 30.1778 101.332 30.1778C99.5436 30.1778 98.2468 31.5555 98.2468 33.4222C98.2468 35.2889 99.5436 36.6666 101.332 36.6666C103.121 36.6666 104.418 35.3333 104.418 33.4222Z"
      fill="#3C3C3B" />
    <path
      d="M120.114 32.7555V39.3333H117.029V32.8C117.029 31.2 116 30.1333 114.569 30.1333C113.138 30.1333 112.065 31.2444 112.065 32.8444V39.3333H109.024V27.5555H112.065V28.7111C112.914 27.8666 114.077 27.3333 115.24 27.3333C118.147 27.3333 120.114 29.6889 120.114 32.7555Z"
      fill="#3C3C3B" />
    <path
      d="M121.858 33.4222C121.858 30.0889 124.586 27.3333 127.985 27.3333C131.383 27.3333 134.111 30.0444 134.111 33.4222C134.111 36.7555 131.383 39.5111 127.985 39.5111C124.586 39.5111 121.858 36.7555 121.858 33.4222ZM131.16 33.4222C131.16 31.5555 129.863 30.1778 128.074 30.1778C126.285 30.1778 124.988 31.5555 124.988 33.4222C124.988 35.2889 126.285 36.6666 128.074 36.6666C129.863 36.6666 131.16 35.3333 131.16 33.4222Z"
      fill="#3C3C3B" />
    <path
      d="M154.905 32.7555V39.3333H151.82V32.8C151.82 31.2 150.791 30.1333 149.36 30.1333C147.929 30.1333 146.856 31.2444 146.856 32.8444V39.3333H143.77V32.8C143.77 31.2 142.742 30.1333 141.266 30.1333C139.79 30.1333 138.762 31.2444 138.762 32.8444V39.3333H135.721V27.5555H138.762V28.7111C139.611 27.8666 140.774 27.3333 141.982 27.3333C143.636 27.3333 144.933 28.0444 145.783 29.2444C146.632 28.0889 148.063 27.3333 150.031 27.3333C152.938 27.3333 154.905 29.6889 154.905 32.7555Z"
      fill="#3C3C3B" />
    <path
      d="M157.365 23.7778C157.365 22.8889 158.125 22.1333 159.019 22.1333C159.914 22.1333 160.674 22.8444 160.674 23.7778C160.674 24.7111 159.914 25.4222 159.019 25.4222C158.125 25.4222 157.365 24.7111 157.365 23.7778ZM157.499 27.5556H160.54V39.3333H157.499V27.5556Z"
      fill="#3C3C3B" />
    <path
      d="M162.597 33.4222C162.597 30.0889 165.325 27.3333 168.723 27.3333C171.004 27.3333 172.972 28.5778 174.045 30.4L171.317 31.7333C170.691 30.7555 169.707 30.1333 168.723 30.1333C166.934 30.1333 165.638 31.5111 165.638 33.3778C165.638 35.2444 166.934 36.6222 168.723 36.6222C169.707 36.6222 170.646 36 171.317 35.0222L174.045 36.3555C173.016 38.2222 171.004 39.4222 168.723 39.4222C165.325 39.5111 162.597 36.7555 162.597 33.4222Z"
      fill="#3C3C3B" />
    <path
      d="M69.761 56.3111L71.818 54.2667C71.9522 54.4444 73.6068 56.2667 75.485 56.2667C76.916 56.2667 77.8103 55.6444 77.8103 54.6667C77.8103 52.2667 70.074 51.8667 70.074 47.3778C70.074 44.7556 72.4888 42.9333 75.3955 42.8889C78.347 42.8889 80.8512 45.4222 81.1195 45.6889L79.0625 47.7333C78.8836 47.5556 77.229 45.7333 75.3955 45.7333C73.9645 45.7333 73.0702 46.3556 73.0702 47.3333C73.0702 49.7333 80.8512 50.1333 80.8512 54.6222C80.8512 57.2 78.3917 59.0667 75.485 59.0667C72.5335 59.1111 69.9846 56.5778 69.761 56.3111Z"
      fill="#3C3C3B" />
    <path
      d="M93.5066 47.1555V58.9333H90.4657V57.7778C89.6161 58.6222 88.4534 59.1556 87.2907 59.1556C84.384 59.1556 82.4164 56.8444 82.4164 53.7778V47.2H85.502V53.6889C85.502 55.2889 86.5305 56.3555 87.9615 56.3555C89.3925 56.3555 90.4657 55.2444 90.4657 53.6444V47.1555H93.5066Z"
      fill="#3C3C3B" />
    <path
      d="M115.106 52.3555V58.9333H112.02V52.4444C112.02 50.8444 110.992 49.7778 109.561 49.7778C108.13 49.7778 107.056 50.8889 107.056 52.4889V58.9778H103.971V52.4889C103.971 50.8889 102.942 49.8222 101.466 49.8222C99.9908 49.8222 98.9623 50.9333 98.9623 52.5333V59.0222H95.9214V47.2444H98.9623V48.4C99.8119 47.5555 100.975 47.0222 102.182 47.0222C103.837 47.0222 105.133 47.7333 105.983 48.9333C106.833 47.7778 108.264 47.0222 110.231 47.0222C113.138 46.9333 115.106 49.2889 115.106 52.3555Z"
      fill="#3C3C3B" />
    <path
      d="M136.615 52.3555V58.9333H133.53V52.4444C133.53 50.8444 132.501 49.7778 131.07 49.7778C129.639 49.7778 128.566 50.8889 128.566 52.4889V58.9778H125.48V52.4889C125.48 50.8889 124.452 49.8222 122.976 49.8222C121.5 49.8222 120.472 50.9333 120.472 52.5333V59.0222H117.431V47.2444H120.472V48.4C121.322 47.5555 122.484 47.0222 123.692 47.0222C125.346 47.0222 126.643 47.7333 127.493 48.9333C128.342 47.7778 129.773 47.0222 131.741 47.0222C134.648 46.9333 136.615 49.2889 136.615 52.3555Z"
      fill="#3C3C3B" />
    <path
      d="M139.03 43.3778C139.03 42.4889 139.79 41.7333 140.685 41.7333C141.579 41.7333 142.339 42.4444 142.339 43.3778C142.339 44.3111 141.579 45.0222 140.685 45.0222C139.79 45.0222 139.03 44.2667 139.03 43.3778ZM139.209 47.1556H142.25V58.9333H139.209V47.1556Z"
      fill="#3C3C3B" />
    <path
      d="M152.133 57.6889C152.133 57.6889 150.836 59.1111 148.779 59.1111C146.722 59.1111 145.156 58.1333 145.156 55.6889V49.8667H143.725V47.1555H145.156V43.2444L148.197 43.1555V47.1555H151.015V49.8667H148.197V54.7555C148.197 55.7333 148.779 56.3111 149.449 56.3111C150.254 56.3111 150.836 55.6889 150.836 55.2889L152.133 57.6889Z"
      fill="#3C3C3B" />
    <path
      d="M28.3962 17.7333V34.7556L44.808 44L56.7925 50.7556V41.3778C56.7925 36.4889 54.1541 32 49.8612 29.6444L28.3962 17.7333Z"
      fill="#166866" />
    <path
      d="M56.7925 7.77777V18.5333L40.3808 27.7778L28.3962 34.5333V17.2889L51.2922 4.57777C53.7517 3.19999 56.7925 4.97777 56.7925 7.77777Z"
      fill="#239493" />
    <path
      d="M28.3963 34.9778V52L11.9846 61.2445L0 68V59.9556C0 54.3111 3.08558 49.1111 8.04935 46.3556L28.3963 34.9778Z"
      fill="#166866" />
    <path
      d="M16.4118 45.2444L28.3963 52V34.8L6.12649 22.4C3.48809 20.9333 0.223633 22.8444 0.223633 25.8222V36.1333L16.4118 45.2444Z"
      fill="#239493" />
    <path d="M45.1211 53.9556L56.7926 60.6667V40.7111L45.1211 47.4222C42.5721 48.8445 42.5721 52.4889 45.1211 53.9556Z"
      fill="#239493" />
  </g>
  <defs>
    <clipPath id="clip0_166_250">
      <rect width="174" height="68" fill="white" />
    </clipPath>
  </defs>
</svg>