<svg width="10" height="18" viewBox="0 0 10 18" fill="none" xmlns="http://www.w3.org/2000/svg">
  <path
    d="M9.08282 7.59184L8.86484 9.34229C8.82796 9.63469 8.58034 9.85465 8.28662 9.85465H5.45153V17.1732C5.15255 17.2002 4.84961 17.214 4.54338 17.214C3.85849 17.214 3.19005 17.1455 2.54401 17.0151V9.85465H0.363523C0.163322 9.85465 0 9.69067 0 9.48981V7.29945C0 7.09859 0.163322 6.93461 0.363523 6.93461H2.54401V3.64972C2.54401 1.63388 4.1713 0 6.17924 0H8.72325C8.92345 0 9.08677 0.163981 9.08677 0.364841V2.5552C9.08677 2.75606 8.92345 2.92004 8.72325 2.92004H6.90563C6.10285 2.92004 5.45219 3.57333 5.45219 4.38006V6.93526H8.50526C8.85562 6.93526 9.12628 7.24347 9.08348 7.5925L9.08282 7.59184Z"
    fill="#6B6B6B" />
</svg>