<svg width="15" height="15" viewBox="0 0 15 15" fill="none" xmlns="http://www.w3.org/2000/svg">
  <path
    d="M10.71 0.743866H3.61007C1.7806 0.743866 0.296875 2.22759 0.296875 4.05707V11.157C0.296875 12.9864 1.7806 14.4702 3.61007 14.4702H10.71C12.5394 14.4702 14.0232 12.9864 14.0232 11.157V4.05707C14.0232 2.22759 12.5394 0.743866 10.71 0.743866ZM12.8398 10.9199C12.8398 12.2265 11.7795 13.2867 10.4729 13.2867H3.84649C2.53992 13.2867 1.47964 12.2265 1.47964 10.9199V4.29349C1.47964 2.98691 2.53992 1.92663 3.84649 1.92663H10.4729C11.7795 1.92663 12.8398 2.98691 12.8398 4.29349V10.9199Z"
    fill="#F6F6F6" />
  <path
    d="M7.16706 4.05707C5.20785 4.05707 3.61743 5.64748 3.61743 7.60669C3.61743 9.5659 5.20785 11.1563 7.16706 11.1563C9.12626 11.1563 10.7167 9.5659 10.7167 7.60669C10.7167 5.64748 9.12626 4.05707 7.16706 4.05707ZM7.16706 9.97354C5.86311 9.97354 4.8002 8.91063 4.8002 7.60669C4.8002 6.30275 5.86311 5.23984 7.16706 5.23984C8.471 5.23984 9.53391 6.30275 9.53391 7.60669C9.53391 8.91063 8.471 9.97354 7.16706 9.97354Z"
    fill="#F6F6F6" />
  <path
    d="M10.9536 4.5299C11.3457 4.5299 11.6635 4.21205 11.6635 3.81997C11.6635 3.42789 11.3457 3.11005 10.9536 3.11005C10.5615 3.11005 10.2437 3.42789 10.2437 3.81997C10.2437 4.21205 10.5615 4.5299 10.9536 4.5299Z"
    fill="#F6F6F6" />
</svg>