<svg width="13" height="16" viewBox="0 0 13 16" fill="none" xmlns="http://www.w3.org/2000/svg">
  <path
    d="M9.37005 11.4793V4.99647C9.37005 4.99647 10.101 6.2148 12.7432 6.28922C12.8841 6.29317 13.0007 6.17726 13.0007 6.03633V4.20423C13.0007 4.06791 12.892 3.9599 12.7557 3.952C10.7063 3.83609 9.73291 2.26412 9.63742 0.822538C9.62886 0.688851 9.51164 0.587433 9.37796 0.587433H7.28835C7.14939 0.587433 7.03612 0.700046 7.03612 0.83966V11.1454C7.03612 12.265 6.18065 13.239 5.06242 13.2917C3.78416 13.3522 2.74497 12.2551 2.90302 10.9584C3.01497 10.0423 3.74992 9.29224 4.664 9.16514C4.84576 9.14011 5.02291 9.13814 5.19479 9.15724C5.34692 9.17436 5.48061 9.06109 5.48061 8.9083V7.07158C5.48061 6.94119 5.38116 6.82792 5.25077 6.82002C4.98866 6.80289 4.71997 6.80882 4.44733 6.83977C2.43149 7.06829 0.804857 8.69954 0.581606 10.716C0.287231 13.376 2.36169 15.6276 4.96233 15.6276C7.39701 15.6276 9.3707 13.6539 9.3707 11.2192"
    fill="#6B6B6B" />
</svg>