<svg width="38" height="38" viewBox="0 0 38 38" fill="none" xmlns="http://www.w3.org/2000/svg">
  <g clip-path="url(#clip0_166_246)">
    <path
      d="M-0.000243306 18.9602C0.0527923 8.51218 8.59152 -0.0265477 19.013 -2.99542e-05C29.4875 0.0264878 38.0528 8.61825 37.9998 19.0397C37.9467 29.5143 29.408 38.0265 18.9865 38C8.51197 37.9734 -0.0532789 29.4082 -0.000243306 18.9602ZM18.9865 2.2805C9.7583 2.2805 2.28029 9.732 2.25377 18.9867C2.22725 28.2414 9.70527 35.746 18.96 35.746C28.2147 35.746 35.6927 28.2945 35.7192 19.0397C35.7192 9.75852 28.2412 2.2805 18.9865 2.2805Z"
      fill="#3C3C3B" />
    <path
      d="M19.1723 34.2875C13.8952 34.1549 9.83801 32.0865 6.70891 28.0824C6.49676 27.7907 6.47025 27.5785 6.65587 27.2868C7.18623 26.3852 7.95524 25.7223 8.83033 25.1919C10.501 24.1312 12.1981 23.15 14.0543 22.4606C14.346 22.3545 14.6377 22.2219 14.9029 22.0363C15.6719 21.559 15.9371 20.7104 15.5393 19.8884C15.3537 19.5171 15.115 19.1989 14.8499 18.8542C13.524 17.157 12.5693 15.2743 12.2776 13.0998C11.9594 10.7928 12.1185 8.53874 13.6035 6.60294C14.7173 5.11795 16.2553 4.37545 18.085 4.13679C19.3844 3.97768 20.6573 4.08375 21.8771 4.58759C24.0781 5.4892 25.3244 7.21285 25.7222 9.49338C26.3056 12.6755 25.4835 15.566 23.6007 18.1647C23.2825 18.589 22.9908 19.0133 22.7257 19.4641C22.5665 19.7293 22.434 20.074 22.3809 20.3922C22.2483 21.1082 22.434 21.7446 23.1234 22.1159C23.7598 22.4606 24.4228 22.7523 25.0857 23.0175C26.7564 23.7069 28.4005 24.4229 29.8324 25.5366C30.4688 26.0405 31.0257 26.6239 31.397 27.3664C31.503 27.5785 31.503 27.7376 31.3439 27.9233C28.8247 31.3175 25.4835 33.3859 21.2937 34.0489C20.5512 34.208 19.7557 34.2345 19.1723 34.2875Z"
      fill="#3C3C3B" />
  </g>
  <defs>
    <clipPath id="clip0_166_246">
      <rect width="38" height="38" fill="white" />
    </clipPath>
  </defs>
</svg>