<svg width="180" height="192" viewBox="0 0 180 192" fill="none" xmlns="http://www.w3.org/2000/svg">
  <circle cx="90" cy="102" r="90" fill="#EA5569" />
  <g clip-path="url(#clip0_0_1)">
    <path
      d="M82.7833 164C72.9814 164 65.2799 159.802 59.9481 151.459C56.986 146.83 55.6396 141.609 56.0166 135.904L53.3238 135.42C50.1463 134.882 46.9688 134.397 43.7374 133.859C36.5206 132.675 29.0346 131.491 21.7101 130.199C16.1091 129.176 11.6928 125.57 9.86171 120.618C8.08445 115.774 9.10772 110.338 12.5545 106.194C14.6011 103.718 17.24 102.103 20.256 101.457L19.9329 101.134L22.0333 101.188C22.8411 101.134 23.6489 101.08 24.4568 101.134C24.9415 101.188 25.4801 101.188 25.9648 101.242L26.611 101.296L28.873 101.35C31.889 100.865 33.9355 98.9813 35.8205 94.8907C37.113 92.1457 38.0825 89.0239 38.9442 84.7719C40.2367 78.5822 41.3677 72.231 42.4448 66.0952V65.9875C43.9528 57.3758 45.9455 47.4184 49.9847 37.9993C54.1855 28.3111 59.8943 21.4217 67.3265 16.9544C73.3584 13.3482 80.1982 11.4644 88.2766 11.2491C88.3305 11.2491 88.4382 11.2491 88.492 11.2491V11.1953C90.0539 5.16705 94.4162 1.34559 101.148 0.107647L101.633 0L108.742 1.18412L109.173 1.45323C113.158 3.76764 115.636 6.67411 116.82 10.3341C117.413 12.1103 117.628 14.0479 117.521 16.0932C125.653 19.1073 131.9 23.467 136.586 29.4414C140.733 34.6623 143.318 40.852 144.557 48.3334C145.634 54.9537 145.741 62.0046 144.88 70.6702C144.287 76.6984 143.318 82.7266 142.456 88.5934C142.025 91.446 141.541 94.3525 141.164 97.2051C140.463 102.211 139.763 108.024 140.41 113.729C140.625 114.267 140.787 114.805 140.948 115.29C141.217 116.151 141.487 117.012 141.864 117.658C142.672 119.004 143.695 119.972 145.149 120.672L145.472 120.834L145.58 120.941L146.765 121.157C151.073 121.802 154.735 124.009 157.159 127.346C159.421 130.468 160.336 134.343 159.69 138.219C159.044 142.094 156.943 145.539 153.712 147.799C150.481 150.06 146.549 150.975 142.618 150.329C133.947 148.929 125.33 147.476 116.659 146.023C113.805 145.539 110.896 145.054 108.042 144.57C107.611 146.238 106.965 148.014 105.942 149.737C103.033 155.711 98.1323 160.017 91.4003 162.547C88.7613 163.569 86.4994 164 84.2912 164C83.8065 163.946 83.3218 164 82.7833 164ZM23.5412 106.463C20.7407 106.463 18.4787 107.485 16.7015 109.638C14.4395 112.383 13.7932 115.72 14.9242 118.788C16.1091 121.964 18.9634 124.224 22.5718 124.87C29.8963 126.162 37.3285 127.346 44.5452 128.53C47.7766 129.069 50.9541 129.553 54.1855 130.091L61.9408 131.491L61.5638 134.074C60.756 139.457 61.7254 144.354 64.4182 148.553C68.996 155.711 75.4588 158.994 84.1297 158.564H84.1835H84.2374C85.7992 158.564 87.4149 158.241 89.4614 157.487C94.9548 155.388 98.7786 152.051 101.148 147.261L101.256 147.099C102.441 145.108 102.979 142.901 103.356 140.964L103.841 138.38L106.426 138.811C110.142 139.403 113.858 140.049 117.574 140.641C126.192 142.094 134.862 143.493 143.533 144.946C146.065 145.377 148.596 144.785 150.642 143.332C152.689 141.879 154.035 139.726 154.412 137.25C154.789 134.828 154.251 132.406 152.797 130.414C151.235 128.261 148.757 126.808 145.903 126.377H145.849L143.695 126.001H143.21L142.402 125.247C140.248 124.117 138.525 122.448 137.286 120.349C136.586 119.165 136.209 117.927 135.886 116.851C135.724 116.312 135.563 115.774 135.401 115.344L135.293 115.021L135.239 114.698C134.432 108.239 135.186 101.888 135.94 96.3978C136.37 93.4913 136.801 90.531 137.232 87.6784C138.148 81.9193 139.063 75.9449 139.656 70.0243C140.463 61.8969 140.41 55.2228 139.386 49.087C138.309 42.5205 136.047 37.1382 132.493 32.6708C128.023 27.127 121.937 23.0903 113.805 20.4529L111.596 19.6994L111.973 17.385C112.35 15.2859 112.297 13.5635 111.758 11.9488C111.004 9.68822 109.496 7.91204 106.911 6.29734L101.741 5.43617C97.3245 6.35116 94.7932 8.61175 93.77 12.487C92.8544 16.0394 90.4309 16.5238 88.4382 16.5776C81.3291 16.7391 75.2972 18.3538 70.127 21.4755C63.6104 25.4047 58.7633 31.3252 54.9395 40.0446C51.1157 48.8717 49.2307 58.5061 47.7227 66.7949V66.9025C46.6456 73.0922 45.5146 79.4972 44.2221 85.7407C43.2527 90.3695 42.1755 93.8681 40.6676 97.0436C38.9442 100.704 35.9282 105.655 29.3577 106.57L29.1423 106.624L27.4189 106.57L27.365 106.947C27.0958 106.947 26.6649 106.893 26.2341 106.732L26.3418 106.301L26.3956 104.256V104.31L26.2341 106.57L25.5339 106.517C25.0492 106.463 24.5645 106.463 24.0798 106.409C23.9721 106.463 23.7567 106.463 23.5412 106.463ZM27.8497 102.372V102.641L28.4422 102.103C28.3883 102.049 28.2806 101.995 28.2267 101.942L27.8497 102.372Z"
      fill="#B28A18" />
    <path
      d="M36.0897 40.3676C38.2978 29.6029 42.7141 19.9147 50.7387 12.2179C53.8085 9.31145 57.2553 6.8894 61.0791 5.00558C61.3484 4.84411 61.6715 4.79029 61.9408 4.68264C63.4488 4.25205 64.6875 4.79029 65.226 6.02822C65.7646 7.26616 65.2799 8.55793 63.7719 9.20381C61.7254 10.1188 59.7865 11.2491 58.0093 12.5947C53.1083 16.147 49.3384 20.6144 46.3763 25.8891C43.6296 30.8408 41.7985 36.0617 40.9368 41.6593C40.8291 42.359 40.5598 42.9511 40.2905 43.597C39.752 44.8887 38.621 45.2655 37.49 44.9426C36.359 44.6196 35.4973 43.7584 35.7127 42.359C35.8743 41.7132 35.982 41.0135 36.0897 40.3676Z"
      fill="white" />
    <path
      d="M157.805 61.1973C157.59 62.2737 157.536 63.3502 156.351 63.9961C154.789 64.8573 153.12 64.1576 152.743 62.4352C152.581 61.7355 152.635 61.0896 152.743 60.4437C154.52 49.5176 153.066 39.1297 147.519 29.4415C146.011 26.7503 143.91 24.4897 141.756 22.2829C140.194 20.7221 140.356 19.1074 142.025 18.1385C143.156 17.4927 144.18 17.8694 145.041 18.6768C148.273 21.7447 150.965 25.2432 153.012 29.2262C156.89 36.7614 158.505 44.7811 158.398 53.1776C158.344 55.8149 157.967 58.5061 157.805 61.1973Z"
      fill="white" />
    <path
      d="M170.623 48.6563C170.515 49.1946 170.354 49.679 170.408 50.2172C170.408 51.6704 169.169 52.4778 167.715 52.3701C166.476 52.2625 165.614 50.8631 165.776 49.4637C166.314 44.8349 166.476 40.2599 165.13 35.7387C164.106 32.4017 162.706 29.2261 160.229 26.6425C159.475 25.8352 158.667 24.974 159.044 23.7361C159.582 21.7446 161.844 21.2064 163.352 22.7673C165.722 25.1893 167.445 27.9881 168.738 31.1099C170.946 36.7075 171.485 42.6281 170.623 48.6563Z"
      fill="white" />
    <path
      d="M46.6994 5.22086C46.5379 6.18968 46.0532 6.78174 45.353 7.15851C39.6443 10.2264 36.1436 15.1244 33.9355 21.045C33.1815 23.0364 32.5891 25.0817 32.2659 27.1808C32.0505 28.6879 30.7041 29.6029 29.3577 29.3876C28.119 29.1723 27.0419 27.6114 27.365 26.2658C28.2806 22.8749 28.9807 19.4302 30.5964 16.2547C33.4508 10.5494 37.4361 5.86674 43.1988 2.85263C44.0605 2.36822 45.0299 2.26057 45.8377 2.90646C46.5379 3.49851 47.0764 4.30586 46.6994 5.22086Z"
      fill="white" />
    <path
      d="M29.0345 103.987C33.8278 103.341 36.359 100.004 38.244 96.021C39.8597 92.6301 40.8291 88.9701 41.5831 85.3101C42.8756 79.0128 44.0066 72.7155 45.1376 66.4181C46.8072 57.1067 48.6921 47.7952 52.5159 39.0758C56.0705 30.9485 60.9714 23.9514 68.7806 19.2688C74.8125 15.6088 81.4907 14.1556 88.4381 13.9403C90.0538 13.8864 90.754 13.6173 91.1848 11.8412C92.5851 6.45881 96.4089 3.71382 101.741 2.745C103.787 3.06794 105.834 3.4447 107.934 3.76764C110.896 5.48999 113.32 7.75057 114.397 11.1414C115.097 13.3482 115.097 15.6088 114.72 17.8694C108.957 16.9006 103.195 15.9856 97.4322 14.9629C96.6782 14.8553 95.978 14.8553 95.2779 15.0167C92.1004 15.7703 89.3537 17.2235 86.9302 19.3764C82.2985 23.5208 79.498 28.8494 77.236 34.447C73.6276 43.3279 71.5272 52.6931 69.75 62.1122C68.619 68.0866 67.7034 74.1687 66.6802 80.1431C66.5724 80.7351 66.357 81.3272 66.2493 81.9731C65.5492 85.5793 64.5259 89.1854 64.7413 92.9531C65.0645 98.6583 69.6423 103.18 75.0818 104.041C95.7087 107.378 116.282 110.822 136.855 114.267C137.232 114.321 137.555 114.375 137.932 114.375C138.525 115.882 138.794 117.55 139.656 119.004C140.733 120.78 142.187 122.125 144.018 123.094C144.018 123.202 144.018 123.256 144.018 123.363C133.677 121.641 123.337 119.919 112.997 118.25C94.5778 115.344 76.2666 111.791 57.74 109.315C57.3091 108.723 56.609 108.831 56.0166 108.723C47.615 107.324 39.2134 105.925 30.8657 104.525C30.1655 104.471 29.4654 104.579 29.0345 103.987Z"
      fill="#DBB22D" />
    <path
      d="M137.824 114.375C137.447 114.321 137.07 114.321 136.747 114.267C116.174 110.876 95.5472 107.378 74.9741 104.041C69.5346 103.18 64.9568 98.6584 64.6337 92.9531C64.4182 89.2393 65.4415 85.6331 66.1416 81.9731C66.2493 81.3811 66.4648 80.789 66.5725 80.1431C67.5958 74.1149 68.5113 68.0867 69.6423 62.1123C71.4196 52.6932 73.52 43.3817 77.1283 34.447C79.3903 28.8494 82.1908 23.4671 86.8225 19.3765C89.246 17.2235 92.0466 15.7703 95.1702 15.0168C95.8704 14.8553 96.6243 14.8553 97.3245 14.963C103.087 15.9318 108.85 16.9006 114.612 17.8694C122.422 20.453 129.315 24.4897 134.485 31.0562C138.578 36.2232 140.84 42.2514 141.918 48.7103C143.102 55.9226 142.941 63.0811 142.241 70.3473C141.325 79.2281 139.763 88.0014 138.525 96.8284C137.717 102.641 137.07 108.454 137.824 114.375Z"
      fill="#F6CE3F" />
    <path
      d="M57.6862 109.315C76.2128 111.791 94.5239 115.29 112.943 118.25C123.283 119.919 133.624 121.641 143.964 123.363C144.072 123.363 144.18 123.363 144.341 123.417C144.449 123.417 144.503 123.471 144.61 123.525C145.149 124.063 145.741 124.117 146.441 123.848C153.604 124.924 158.29 131.006 157.159 137.788C156.082 144.354 149.888 148.768 143.156 147.692C130.769 145.646 118.436 143.601 106.103 141.556C90.377 138.972 74.7048 136.335 58.9787 133.751C57.2553 133.428 55.5319 133.105 53.8085 132.836C53.1084 132.406 52.3544 132.029 51.6542 131.598C47.1303 128.907 45.1376 124.278 45.9993 119.434C46.9149 113.998 51.0618 110.069 56.7168 109.585C57.0399 109.531 57.363 109.638 57.6862 109.315Z"
      fill="#F6CE3F" />
    <path
      d="M56.6629 109.477C50.9541 109.961 46.861 113.89 45.9455 119.327C45.1376 124.171 47.1303 128.853 51.6004 131.491C52.3005 131.921 53.0545 132.298 53.7546 132.729C43.1988 131.006 32.6429 129.338 22.0871 127.454C12.4468 125.785 8.46142 115.29 14.6549 107.916C17.1323 104.956 20.4175 103.61 24.3491 103.825C25.103 103.879 25.8032 103.933 26.5033 103.987C26.9342 104.471 27.5804 104.364 28.119 104.471C37.0592 105.978 45.9993 107.432 54.9933 108.939C55.5319 108.992 56.232 108.831 56.6629 109.477Z"
      fill="#DBB22D" />
    <path
      d="M58.9248 133.644C74.6509 136.227 90.3231 138.864 106.049 141.448C105.564 143.87 104.918 146.238 103.626 148.391C95.6549 147.046 87.6842 145.7 79.7134 144.408C77.5592 144.085 75.6742 144.677 74.3816 146.615C73.3045 148.284 73.5738 150.06 74.5432 151.621C76.7513 155.173 79.5518 158.133 83.2679 160.179C83.6988 160.394 84.2912 160.555 84.2912 161.201C74.8125 161.632 67.3803 157.918 62.2101 149.952C58.9787 145 58.0631 139.51 58.9248 133.644Z"
      fill="#DBB22D" />
    <path
      d="M84.2912 161.255C84.2912 160.555 83.6988 160.448 83.268 160.232C79.5519 158.187 76.7513 155.281 74.5432 151.674C73.5738 150.113 73.3045 148.337 74.3817 146.669C75.6204 144.731 77.5592 144.139 79.7134 144.462C87.6842 145.754 95.6549 147.099 103.626 148.445C100.879 154.096 96.3012 157.81 90.4847 159.963C88.492 160.717 86.4455 161.309 84.2912 161.255Z"
      fill="#F6CE3F" />
    <path
      d="M56.6629 109.477C56.232 108.831 55.5319 108.993 54.9395 108.885C45.9993 107.378 37.0592 105.925 28.0652 104.418C27.5266 104.31 26.8803 104.418 26.4495 103.933C27.3112 103.933 28.119 103.987 28.9807 103.987C29.4116 104.579 30.1117 104.471 30.7041 104.525C39.1057 105.925 47.5073 107.324 55.855 108.723C56.4475 108.831 57.1476 108.723 57.5785 109.315C57.363 109.638 57.0399 109.531 56.6629 109.477Z"
      fill="#EDB039" />
    <path
      d="M146.334 123.794C145.688 124.063 145.041 124.009 144.503 123.471C145.149 123.579 145.741 123.686 146.334 123.794Z"
      fill="#EDB039" />
    <path
      d="M144.287 123.363C144.179 123.363 144.072 123.363 143.91 123.31C143.91 123.202 143.91 123.148 143.91 123.04C144.072 123.148 144.179 123.256 144.287 123.363Z"
      fill="#EDB039" />
  </g>
  <defs>
    <clipPath id="clip0_0_1">
      <rect width="162" height="164" fill="white" transform="translate(9)" />
    </clipPath>
  </defs>
</svg>