<svg width="223" height="193" viewBox="0 0 223 193" fill="none" xmlns="http://www.w3.org/2000/svg">
  <circle cx="115" cy="102" r="90" fill="#EA5569" />
  <mask id="mask0_0_1" style="mask-type:luminance" maskUnits="userSpaceOnUse" x="22" y="0" width="198" height="193">
    <path
      d="M214.572 96.7495C214.572 149.92 171.492 193 118.32 193C65.1479 193 22.0671 149.92 22.0671 96.7495C22.0671 43.5789 65.1479 0.499005 118.32 0.499005C132.625 0.499005 198.438 -1.82964 210.636 3.77019C231.871 13.4729 205.59 35.9276 215.182 57.2735C220.505 69.2494 214.572 82.7777 214.572 96.7495Z"
      fill="white" />
  </mask>
  <g mask="url(#mask0_0_1)">
    <path
      d="M209.471 35.595L198.161 73.2968C197.994 73.7958 197.828 74.2948 197.662 74.7383C197.662 74.7938 197.606 74.9047 197.551 74.9601C197.384 75.4037 197.218 75.7918 196.996 76.2353L149.923 173.927C148.482 176.921 145.211 178.64 141.884 178.03L23.1206 156.906C20.2929 156.407 17.9642 154.3 17.2434 151.473L16.1345 147.425C15.7464 146.039 15.8018 144.598 16.2454 143.267C16.4117 142.712 16.689 142.158 16.9662 141.659L72.5221 50.7312L72.7439 50.3985L85.9398 13.0294C87.2151 9.42551 90.819 7.15231 94.6447 7.59586L198.382 20.0707C202.485 20.5697 206.256 22.8984 208.307 26.4468C209.139 27.8883 209.749 29.5516 209.915 31.4367C210.081 32.8228 209.86 34.2643 209.471 35.595Z"
      fill="#5698D2" />
    <path
      d="M209.471 35.595L198.161 73.2968C197.994 73.8513 197.772 74.4057 197.551 74.9602L189.899 67.3089L72.4667 50.6758L72.6885 50.3431L85.8844 12.9739C87.1596 9.37009 90.7635 7.09689 94.5893 7.54044L198.327 20.0153C202.43 20.5143 206.2 22.8429 208.252 26.3913C208.363 26.5577 208.418 26.724 208.529 26.8903C208.584 27.0012 208.64 27.1676 208.751 27.2785C208.806 27.3893 208.861 27.5557 208.917 27.6666C208.972 27.8329 209.028 27.9438 209.083 28.1101C209.471 29.1081 209.749 30.1615 209.804 31.3813C210.081 32.8228 209.86 34.2644 209.471 35.595Z"
      fill="#B4C9E0" />
    <g opacity="0.6">
      <path
        d="M189.955 67.3089L189.622 68.9722L78.8983 54.1133C75.9597 53.7252 73.0211 55.1113 71.4687 57.6617L18.5187 144.376C17.4652 146.095 16.5226 143.544 17.0216 145.54L18.7404 154.245C18.7404 154.3 18.7959 154.356 18.7959 154.467C18.0751 153.635 17.5206 152.637 17.2434 151.528L16.1345 147.481C15.6355 145.485 15.9127 143.433 16.9662 141.659L72.5221 50.7312L189.955 67.3089Z"
        fill="#E3EDF9" />
    </g>
    <path
      d="M209.194 28.1655C207.032 25.1716 203.65 23.231 199.935 22.7875L96.1972 10.3126C92.3714 9.86908 89.6546 10.3681 88.324 13.9719L74.9617 51.0084L189.899 67.3089L72.4667 50.6758L72.6885 50.3431L85.8844 12.9739C87.1596 9.37009 90.7635 7.09689 94.5893 7.54044L198.327 20.0153C202.43 20.5143 206.2 22.8429 208.252 26.3913C208.362 26.5577 208.418 26.724 208.529 26.8903C208.584 27.0012 208.64 27.1676 208.751 27.2784C208.806 27.3893 208.861 27.5557 208.917 27.6666C209.083 27.8883 209.139 28.0547 209.194 28.1655Z"
      fill="white" />
    <g opacity="0.3">
      <path
        d="M188.957 70.1365C187.238 73.1859 185.353 76.4016 183.357 79.5619L185.02 78.3976L143.159 163.67C143.159 163.67 142.327 167.829 136.838 166.831L42.1382 149.31C36.9819 149.089 32.3799 148.7 28.4988 148.201C24.4513 147.702 21.2355 147.148 19.0177 146.76L20.0711 150.696C20.5147 152.415 21.9008 153.69 23.675 153.968L142.438 175.147C142.494 175.147 142.605 175.203 142.716 175.203C144.656 175.424 146.486 174.426 147.318 172.652L193.06 77.7323C193.725 76.3462 193.448 74.6829 192.394 73.574L188.957 70.1365ZM178.145 87.2686C173.82 93.1457 169.218 98.0802 164.672 100.187L158.684 111.719C158.185 112.717 157.076 113.272 155.911 113.105L152.252 112.496C150.256 114.27 148.205 115.989 146.153 117.596L149.535 118.151C150.145 118.262 150.644 118.539 151.088 118.983C151.42 119.26 151.753 119.592 151.919 120.036L152.141 120.479C152.474 121.256 152.474 122.143 152.03 122.919L144.989 135.727C144.434 136.78 143.215 137.334 142.05 137.113L126.581 134.119C125.583 133.897 124.751 133.176 124.474 132.178L124.363 131.79C118.652 134.784 112.942 137.334 107.286 139.441C107.175 139.497 107.12 139.497 107.009 139.552C107.064 139.608 107.064 139.718 107.12 139.774L107.342 140.217C107.508 140.606 107.563 140.994 107.563 141.382C107.563 141.77 107.453 142.158 107.231 142.546L100.633 154.744C100.078 155.742 99.0249 156.241 97.916 156.074C97.8051 156.074 97.6942 156.074 97.6387 156.019L82.4468 153.191C81.4488 153.025 80.6725 152.249 80.3399 151.306L80.0627 150.419C79.8409 149.698 79.9518 148.867 80.3953 148.201L81.3933 146.649C78.8429 147.148 76.2924 147.536 73.7974 147.869L72.5776 150.087C72.0231 151.084 70.9142 151.639 69.8053 151.417L58.6609 149.31C57.1638 149.366 55.7223 149.421 54.3362 149.477L136.062 163.837C138.058 164.169 140.054 163.171 140.941 161.397L178.145 87.2686ZM136.949 146.871L130.13 159.512C129.575 160.565 128.411 161.12 127.246 160.898L111.999 158.015C111.001 157.849 110.169 157.072 109.892 156.13L109.615 155.243C109.393 154.522 109.504 153.69 109.948 153.025L117.377 141.382C117.932 140.495 119.041 139.996 120.094 140.162L134.842 142.491C135.729 142.657 136.506 143.211 136.894 144.043L137.116 144.487C137.393 145.263 137.393 146.15 136.949 146.871Z"
        fill="#242B5B" />
    </g>
    <path
      d="M107.619 141.271C107.619 140.883 107.563 140.495 107.397 140.107L107.175 139.663C107.12 139.608 107.12 139.497 107.064 139.441C107.175 139.386 107.231 139.386 107.342 139.33L107.453 139.552C107.674 140.107 107.73 140.717 107.619 141.271Z"
      fill="white" />
    <g opacity="0.3">
      <path
        d="M200.489 20.6807C200.489 20.6807 191.008 58.8815 111.278 54.0024L186.018 64.315C187.404 64.4813 188.68 63.7051 189.123 62.3744L198.604 33.211C198.604 33.211 201.986 23.2311 200.489 20.6807Z"
        fill="#242B5B" />
    </g>
    <g opacity="0.3">
      <path
        d="M189.955 67.3089L202.485 27.8329C202.485 27.8329 207.697 28.9418 206.477 34.7634L195 72.3543L189.955 67.3089Z"
        fill="#242B5B" />
    </g>
    <g opacity="0.3">
      <path
        d="M88.7121 77.0115L95.0883 64.703C95.4764 63.9822 95.4764 63.1506 95.1437 62.3744L94.9219 61.9308C94.5338 61.1546 93.813 60.6002 92.9259 60.4893L78.6765 58.4933C77.6231 58.327 76.6251 58.826 76.0706 59.7131L69.0845 71.079C68.6964 71.7444 68.5855 72.5206 68.8073 73.1859L69.0845 74.073C69.3618 75.0156 70.1934 75.6809 71.136 75.8472L85.8844 78.3422C87.1042 78.564 88.2131 78.0095 88.7121 77.0115Z"
        fill="#242B5B" />
      <path
        d="M116.878 81.1699L123.254 68.8613C123.642 68.1406 123.642 67.3089 123.31 66.5327L123.088 66.0891C122.7 65.3129 121.979 64.7585 121.092 64.6476L106.843 62.6516C105.789 62.4853 104.791 62.9843 104.237 63.8714L97.2506 75.2374C96.8625 75.9027 96.7516 76.6789 96.9734 77.3442L97.2506 78.2313C97.5278 79.1739 98.3595 79.8392 99.3021 80.0055L114.05 82.5005C115.215 82.7223 116.324 82.1679 116.878 81.1699Z"
        fill="#242B5B" />
      <path
        d="M144.989 85.3281L151.365 73.0195C151.753 72.2988 151.753 71.4671 151.42 70.6909L151.199 70.2473C150.811 69.4711 150.09 68.9167 149.203 68.8058L134.953 66.8098C133.9 66.6435 132.902 67.1425 132.347 68.0296L125.361 79.3956C124.973 80.0609 124.862 80.8371 125.084 81.5024L125.361 82.3895C125.638 83.3321 126.47 83.9974 127.413 84.1637L142.161 86.6587C143.325 86.8805 144.434 86.3261 144.989 85.3281Z"
        fill="#242B5B" />
      <path
        d="M74.9617 99.0228L81.3379 86.7142C81.726 85.9935 81.726 85.1618 81.3933 84.3856L81.1716 83.942C80.7834 83.1658 80.0627 82.6114 79.1755 82.5005L64.9262 80.5045C63.8727 80.3382 62.8747 80.8372 62.3202 81.7243L55.3342 93.0903C54.946 93.7556 54.8352 94.5318 55.0569 95.1971L55.3342 96.0843C55.6114 97.0268 56.4431 97.6921 57.3856 97.8585L72.134 100.353C73.3538 100.575 74.4627 100.021 74.9617 99.0228Z"
        fill="#242B5B" />
      <path
        d="M103.128 103.181L109.504 90.8724C109.892 90.1517 109.892 89.32 109.559 88.5438L109.338 88.1002C108.95 87.324 108.229 86.7696 107.342 86.6587L93.0922 84.6627C92.0388 84.4964 91.0408 84.9954 90.4863 85.8825L83.5002 97.2485C83.1121 97.9138 83.0012 98.69 83.223 99.3553L83.5002 100.242C83.7775 101.185 84.6091 101.85 85.5517 102.017L100.3 104.512C101.464 104.733 102.573 104.179 103.128 103.181Z"
        fill="#242B5B" />
      <path
        d="M131.238 107.339L137.615 95.0308C138.003 94.31 138.003 93.4783 137.67 92.7021L137.448 92.2586C137.06 91.4824 136.339 90.9279 135.452 90.817L121.203 88.8211C120.149 88.6547 119.151 89.1537 118.597 90.0408L111.611 101.407C111.223 102.072 111.112 102.848 111.334 103.514L111.611 104.401C111.888 105.343 112.72 106.009 113.662 106.175L128.411 108.67C129.575 108.892 130.739 108.337 131.238 107.339Z"
        fill="#242B5B" />
      <path
        d="M60.4905 122.531L67.1994 110.389C67.5875 109.668 67.643 108.836 67.3103 108.06L67.144 107.617C66.8113 106.84 66.0351 106.23 65.2034 106.12L51.0094 103.736C50.0114 103.569 48.958 104.013 48.4035 104.9L41.1402 116.099C40.7521 116.709 40.6412 117.486 40.8076 118.206L41.0293 119.093C41.3066 120.036 42.0828 120.757 43.0254 120.923L57.7183 123.806C58.8272 124.083 59.9361 123.529 60.4905 122.531Z"
        fill="#242B5B" />
      <path
        d="M88.6012 126.856L95.31 114.713C95.6982 113.993 95.7536 113.161 95.4209 112.385L95.2546 111.941C94.9219 111.165 94.1457 110.555 93.314 110.444L79.1201 108.06C78.1221 107.894 77.0686 108.337 76.5142 109.224L69.2509 120.424C68.8628 121.034 68.7519 121.81 68.9182 122.531L69.14 123.418C69.4172 124.361 70.1934 125.081 71.136 125.248L85.8289 128.131C86.8824 128.353 88.0467 127.854 88.6012 126.856Z"
        fill="#242B5B" />
      <path
        d="M116.601 131.679L123.31 119.537C123.698 118.816 123.753 117.985 123.421 117.208L123.254 116.765C122.922 115.989 122.145 115.379 121.314 115.268L107.12 112.884C106.122 112.717 105.068 113.161 104.514 114.048L97.2506 125.248C96.8625 125.858 96.7516 126.634 96.918 127.355L97.1397 128.242C97.417 129.184 98.1932 129.905 99.1358 130.071L113.829 132.954C114.938 133.176 116.047 132.622 116.601 131.679Z"
        fill="#242B5B" />
      <path
        d="M46.3521 145.984L52.95 133.786C53.3381 133.065 53.3936 132.234 53.0055 131.457L52.8391 131.014C52.451 130.238 51.7302 129.628 50.8986 129.517L36.6492 127.244C35.5957 127.077 34.5977 127.521 34.0433 128.408L26.8908 139.719C26.5027 140.328 26.3918 141.105 26.6136 141.825L26.8908 142.713C27.1681 143.655 27.9443 144.376 28.8869 144.542L43.6353 147.314C44.6887 147.481 45.7976 146.982 46.3521 145.984Z"
        fill="#242B5B" />
      <path
        d="M174.264 89.8745L180.64 77.5659C181.028 76.8452 181.028 76.0135 180.695 75.2373L180.474 74.7937C180.086 74.0175 179.365 73.4631 178.478 73.3522L164.228 71.3562C163.175 71.1899 162.177 71.6889 161.622 72.576L154.692 83.942C154.304 84.6073 154.193 85.3835 154.414 86.0488L154.692 86.9359C154.969 87.8785 155.801 88.5438 156.743 88.7101L171.492 91.2051C172.656 91.4269 173.765 90.8724 174.264 89.8745Z"
        fill="#242B5B" />
    </g>
    <path
      d="M138.225 168.05C137.836 168.05 137.504 167.995 137.116 167.939L15.691 145.762C15.0811 145.651 14.6929 145.097 14.8038 144.487C14.9147 143.877 15.4692 143.489 16.0791 143.6L137.504 165.777C139.278 166.11 141.108 165.167 141.939 163.504L189.844 66.0337L201.266 27.7775C201.598 26.5577 201.709 25.3379 201.432 24.2291C200.988 22.344 199.99 21.2905 198.272 21.0688C197.662 21.0133 197.218 20.4589 197.329 19.849C197.384 19.2391 197.939 18.7956 198.549 18.9064C201.21 19.2391 202.984 20.9579 203.594 23.7301C203.927 25.227 203.871 26.8349 203.372 28.3873L191.895 66.7545C191.895 66.8099 191.84 66.8654 191.84 66.9208L143.935 164.502C142.882 166.72 140.609 168.05 138.225 168.05Z"
      fill="#5698D2" />
    <path
      d="M197.495 75.6809C197.218 75.6809 196.941 75.57 196.719 75.3483L189.899 68.4178L72.7439 51.7846C72.134 51.6737 71.7459 51.1193 71.8013 50.5649C71.9122 49.955 72.4667 49.5669 73.0211 49.6223L190.565 66.3109C190.786 66.3664 191.008 66.4772 191.175 66.6436L198.271 73.8513C198.715 74.2948 198.715 74.9602 198.271 75.4037C198.05 75.57 197.772 75.6809 197.495 75.6809Z"
      fill="#5698D2" />
    <path
      d="M146.43 178.529C146.042 178.529 145.654 178.307 145.432 177.919L139.666 166.886C139.389 166.332 139.611 165.666 140.11 165.389C140.664 165.112 141.329 165.334 141.607 165.833L147.428 176.866C147.706 177.42 147.484 178.086 146.985 178.363C146.818 178.474 146.597 178.529 146.43 178.529Z"
      fill="#5698D2" />
    <path
      d="M143.215 179.25C142.716 179.25 142.217 179.195 141.718 179.139L22.9543 157.96C19.683 157.405 17.0216 154.91 16.19 151.75L15.1365 147.702C14.5266 145.429 14.9147 143.045 16.0791 141.049L71.7459 49.8995L84.9418 12.6413C86.3834 8.48297 90.4863 5.988 94.811 6.48699L198.549 18.9619C203.095 19.5163 207.087 22.1222 209.305 25.8923C210.303 27.6111 210.913 29.4407 211.024 31.3813C211.135 32.8228 210.968 34.3752 210.469 35.9277L199.159 73.6295C198.826 74.6829 198.438 75.7363 197.939 76.7343L150.866 174.426C149.48 177.42 146.43 179.25 143.215 179.25ZM93.7021 8.59386C90.7081 8.59386 88.0467 10.479 86.9933 13.362L73.7419 50.8421L73.6865 50.953L17.9087 142.158C17.0216 143.655 16.7444 145.429 17.188 147.093L18.2414 151.14C18.8513 153.524 20.8473 155.354 23.2869 155.797L142.05 176.977C144.822 177.476 147.65 176.034 148.925 173.484L195.998 75.7918C196.442 74.9047 196.774 73.9621 197.107 73.0196L208.418 35.3178C208.806 33.9871 208.972 32.7674 208.862 31.5476C208.751 29.9952 208.252 28.4428 207.42 27.0012C205.535 23.7855 202.153 21.6232 198.272 21.1242L94.5338 8.6493C94.2566 8.6493 93.9794 8.59386 93.7021 8.59386Z"
      fill="#5698D2" />
    <path
      d="M194.501 29.4962L185.963 57.6063C185.519 59.1033 184.022 60.1012 182.525 59.8795L144.656 54.6123L132.902 53.0044L121.536 51.3966L97.3615 48.0145L84.8309 46.2957C82.8904 46.0185 81.6706 43.9671 82.3359 42.0266L91.2626 15.8571C91.7616 14.4155 93.1477 13.5284 94.5893 13.6948L191.84 25.3934C193.836 25.5597 195.111 27.6112 194.501 29.4962Z"
      fill="#242B5B" />
    <g opacity="0.4">
      <path
        d="M84.1656 45.1868L93.0922 19.0173C93.5912 17.5757 94.9774 16.6886 96.4189 16.855L193.67 28.5536C194.002 28.609 194.279 28.6645 194.557 28.8308C194.668 27.1675 193.503 25.6151 191.784 25.3933L94.6447 13.6392C93.2031 13.4729 91.7616 14.36 91.318 15.8015L82.3914 41.971C81.8369 43.6343 82.6131 45.3531 84.0547 45.963C83.9993 45.7412 84.0547 45.464 84.1656 45.1868Z"
        fill="#E3EDF9" />
    </g>
    <path
      d="M182.969 61.0437C182.802 61.0437 182.581 61.0437 182.359 60.9882L84.72 47.4045C83.4448 47.2382 82.3914 46.5174 81.6706 45.4085C80.9498 44.2996 80.8389 42.9135 81.2825 41.6383L90.2091 15.4688C90.8744 13.5283 92.815 12.3085 94.7556 12.5303L192.006 24.229C193.226 24.3953 194.335 25.0606 195.056 26.1141C195.776 27.2229 195.943 28.5536 195.555 29.8288L187.016 57.9388C186.462 59.8239 184.798 61.0437 182.969 61.0437ZM94.2566 14.8035C93.4249 14.8035 92.6487 15.358 92.3715 16.1896L83.4448 42.3591C83.223 42.969 83.2785 43.6343 83.6666 44.1887C83.9993 44.6877 84.4983 45.0204 85.0527 45.1313L182.691 58.7705C183.634 58.8814 184.577 58.2715 184.854 57.3289L193.392 29.2189C193.559 28.609 193.503 27.9437 193.115 27.3893C192.782 26.8903 192.283 26.5576 191.729 26.5022L94.4784 14.8035C94.4229 14.8035 94.312 14.8035 94.2566 14.8035Z"
      fill="#242B5B" />
    <path
      d="M100.965 152.471L107.563 140.273C107.952 139.552 108.007 138.721 107.619 137.944L107.452 137.501C107.064 136.725 106.344 136.115 105.512 136.004L91.2625 133.731C90.2091 133.564 89.2111 134.008 88.6566 134.895L81.5042 146.15C81.1161 146.76 81.0052 147.536 81.227 148.257L81.5042 149.144C81.7814 150.087 82.5577 150.807 83.5002 150.974L98.2486 153.746C99.3021 153.968 100.411 153.469 100.965 152.471Z"
      fill="white" />
    <g opacity="0.25">
      <path
        d="M96.9179 148.978L88.9339 147.536C94.9219 147.813 97.1397 147.647 101.631 141.77L97.8605 148.534C97.6942 148.867 97.3061 149.089 96.9179 148.978Z"
        fill="#242B5B" />
    </g>
    <g opacity="0.25">
      <path
        d="M107.563 140.217L100.965 152.415C100.411 153.413 99.3021 153.968 98.1932 153.746L83.4448 150.974C82.5022 150.807 81.6706 150.086 81.4488 149.144L81.1715 148.257C81.0607 147.813 81.0607 147.314 81.1715 146.871C81.3379 146.926 81.5597 147.037 81.726 147.037L82.8349 147.259C83.3339 147.37 83.7775 147.425 84.2765 147.481C85.2745 147.592 86.2171 147.647 87.2151 147.647L97.916 149.643L102.961 140.495C104.07 139.22 105.068 137.833 105.9 136.281C105.955 136.226 105.955 136.115 106.011 136.059C106.676 136.281 107.231 136.78 107.508 137.445L107.73 137.889C107.952 138.665 107.952 139.497 107.563 140.217Z"
        fill="#242B5B" />
    </g>
    <path
      d="M97.6942 151.14C97.5833 151.14 97.4724 151.14 97.417 151.14L80.9498 148.146C80.5062 148.091 80.229 147.647 80.3399 147.259C80.3953 146.815 80.8389 146.594 81.227 146.649L97.6942 149.643C97.7496 149.643 97.8051 149.643 97.8605 149.588L105.401 136.004C105.623 135.616 106.066 135.505 106.455 135.727C106.843 135.948 106.954 136.392 106.732 136.78L99.1912 150.364C98.8585 150.807 98.3041 151.14 97.6942 151.14Z"
      fill="#242B5B" />
    <path
      d="M99.7456 154.356C99.4684 154.356 99.1912 154.189 99.0803 153.912L97.6942 150.974C97.5278 150.585 97.6942 150.142 98.0823 149.976C98.4704 149.809 98.914 149.976 99.0803 150.364L100.466 153.302C100.633 153.69 100.466 154.134 100.078 154.3C99.9674 154.356 99.8565 154.356 99.7456 154.356Z"
      fill="#242B5B" />
    <path
      d="M98.6922 154.966C98.4704 154.966 98.2486 154.966 97.9714 154.91L83.223 152.138C81.8369 151.861 80.728 150.863 80.2844 149.477L80.0072 148.59C79.73 147.536 79.8409 146.427 80.4508 145.54L87.6032 134.285C88.4349 133.01 89.8764 132.345 91.3735 132.566L105.623 134.84C106.898 135.061 107.952 135.837 108.451 137.002L108.672 137.445C109.171 138.499 109.116 139.774 108.561 140.772L101.963 152.97C101.298 154.245 100.023 154.966 98.6922 154.966ZM90.819 134.84C90.32 134.84 89.8764 135.117 89.5992 135.505L82.4468 146.76C82.225 147.093 82.1696 147.536 82.2805 147.924L82.5577 148.811C82.724 149.366 83.1676 149.754 83.6666 149.865L98.415 152.637C99.0249 152.748 99.6902 152.471 99.9674 151.916L106.565 139.719C106.787 139.33 106.787 138.831 106.621 138.443L106.399 138C106.177 137.556 105.789 137.224 105.29 137.168L91.0408 134.895C90.9853 134.84 90.9299 134.84 90.819 134.84Z"
      fill="#242B5B" />
    <path
      d="M72.9102 147.592L79.5082 135.394C79.8963 134.673 79.9518 133.842 79.5636 133.065L79.3973 132.622C79.0092 131.846 78.2884 131.236 77.4567 131.125L63.2074 128.852C62.1539 128.685 61.1559 129.129 60.6014 130.016L53.449 141.271C53.0609 141.881 52.95 142.657 53.1718 143.378L53.449 144.265C53.7263 145.208 54.5025 145.928 55.445 146.095L70.1934 148.867C71.2469 149.089 72.4112 148.59 72.9102 147.592Z"
      fill="white" />
    <g opacity="0.25">
      <path
        d="M68.9182 144.099L60.9341 142.657C66.9222 142.934 69.14 142.768 73.631 136.891L69.8608 143.655C69.6944 143.988 69.3063 144.209 68.9182 144.099Z"
        fill="#242B5B" />
    </g>
    <g opacity="0.25">
      <path
        d="M79.5637 135.338L72.9657 147.536C72.4112 148.534 71.3023 149.089 70.1934 148.867L55.4451 146.095C54.5025 145.928 53.6708 145.207 53.449 144.265L53.1718 143.378C53.0609 142.934 53.0609 142.435 53.1718 141.992C53.3381 142.047 53.5599 142.158 53.7263 142.158L54.8352 142.38C55.3342 142.491 55.7777 142.546 56.2767 142.602C57.2747 142.712 58.2173 142.768 59.2153 142.768L69.9162 144.764L74.9617 135.616C76.0706 134.34 77.0686 132.954 77.9003 131.402C77.9557 131.347 77.9557 131.236 78.0112 131.18C78.6765 131.402 79.231 131.901 79.5082 132.566L79.73 133.01C79.9518 133.786 79.9518 134.618 79.5637 135.338Z"
        fill="#242B5B" />
    </g>
    <path
      d="M69.6944 146.261C69.5835 146.261 69.4726 146.261 69.4172 146.261L52.95 143.267C52.5065 143.212 52.2292 142.768 52.3401 142.38C52.3956 141.936 52.8391 141.715 53.2272 141.77L69.6944 144.764C69.7499 144.764 69.8053 144.764 69.8608 144.708L77.4013 131.125C77.6231 130.737 78.0666 130.626 78.4547 130.848C78.8429 131.069 78.9538 131.513 78.732 131.901L71.1914 145.485C70.8588 145.928 70.3043 146.261 69.6944 146.261Z"
      fill="#242B5B" />
    <path
      d="M71.6905 149.477C71.4132 149.477 71.136 149.31 71.0251 149.033L69.639 146.095C69.4727 145.706 69.639 145.263 70.0271 145.097C70.4152 144.93 70.8588 145.097 71.0251 145.485L72.4113 148.423C72.5776 148.811 72.4112 149.255 72.0231 149.421C71.9122 149.477 71.8014 149.477 71.6905 149.477Z"
      fill="#242B5B" />
    <path
      d="M70.637 150.086C70.4152 150.086 70.1934 150.086 69.9162 150.031L55.1678 147.259C53.7817 146.982 52.6728 145.984 52.2292 144.598L51.952 143.71C51.6748 142.657 51.7857 141.548 52.3956 140.661L59.548 129.406C60.3797 128.131 61.8212 127.465 63.3182 127.687L77.5676 129.96C78.8429 130.182 79.8963 130.958 80.3953 132.123L80.5617 132.566C81.0607 133.62 81.0052 134.895 80.4508 135.893L73.8528 148.09C73.2984 149.366 72.0231 150.086 70.637 150.086ZM62.8192 129.96C62.3202 129.96 61.8767 130.238 61.5995 130.626L54.447 141.936C54.2253 142.269 54.1698 142.712 54.2807 143.101L54.5579 143.988C54.7243 144.542 55.1678 144.93 55.6668 145.041L70.4152 147.813C71.0251 147.924 71.6905 147.647 71.9677 147.092L78.5656 134.895C78.7874 134.507 78.7874 134.008 78.6211 133.62L78.3993 133.176C78.1775 132.733 77.7894 132.4 77.2904 132.344L63.041 130.071C62.9856 129.96 62.8747 129.96 62.8192 129.96Z"
      fill="#242B5B" />
    <path
      d="M44.855 143.211L51.453 131.014C51.8411 130.293 51.8966 129.461 51.5639 128.685L51.3421 128.242C50.954 127.465 50.2332 126.856 49.4015 126.745L35.1522 124.471C34.0987 124.305 33.1007 124.749 32.5462 125.636L25.3938 136.946C25.0057 137.556 24.8948 138.332 25.1166 139.053L25.3938 139.94C25.6711 140.883 26.4473 141.604 27.3899 141.77L42.1382 144.542C43.1917 144.764 44.3006 144.209 44.855 143.211Z"
      fill="white" />
    <g opacity="0.25">
      <path
        d="M40.8076 139.774L32.8235 138.332C38.8115 138.61 41.0293 138.443 45.5204 132.566L41.7501 139.33C41.5838 139.663 41.1957 139.829 40.8076 139.774Z"
        fill="#242B5B" />
    </g>
    <g opacity="0.25">
      <path
        d="M51.453 131.014L44.855 143.212C44.3006 144.21 43.1917 144.764 42.0828 144.542L27.3344 141.77C26.3918 141.604 25.5602 140.883 25.3384 139.94L25.0612 139.053C24.9503 138.61 24.9503 138.111 25.0612 137.667C25.2275 137.723 25.4493 137.833 25.6156 137.833L26.7245 138.055C27.2235 138.166 27.6671 138.222 28.1661 138.277C29.1641 138.388 30.1067 138.443 31.1047 138.443L41.8056 140.439L46.8511 131.291C47.96 130.016 48.958 128.63 49.7897 127.077C49.8451 127.022 49.8451 126.911 49.9005 126.856C50.5659 127.077 51.1203 127.576 51.3976 128.242L51.6193 128.685C51.8966 129.406 51.8411 130.293 51.453 131.014Z"
        fill="#242B5B" />
    </g>
    <path
      d="M41.5838 141.881C41.4729 141.881 41.362 141.881 41.3066 141.881L24.8394 138.887C24.3958 138.831 24.1186 138.388 24.2295 138C24.2849 137.556 24.7285 137.335 25.1166 137.39L41.5838 140.384C41.6392 140.384 41.6947 140.384 41.7501 140.328L49.2906 126.745C49.5124 126.357 49.956 126.246 50.3441 126.468C50.7322 126.689 50.8431 127.133 50.6213 127.521L43.0808 141.105C42.7481 141.604 42.1937 141.881 41.5838 141.881Z"
      fill="#242B5B" />
    <path
      d="M43.6353 145.097C43.358 145.097 43.0808 144.93 42.9699 144.653L41.5838 141.715C41.4175 141.326 41.5838 140.883 41.9719 140.717C42.36 140.55 42.8036 140.717 42.9699 141.105L44.356 144.043C44.5224 144.431 44.356 144.875 43.9679 145.041C43.857 145.097 43.7461 145.097 43.6353 145.097Z"
      fill="#242B5B" />
    <path
      d="M42.5818 145.706C42.36 145.706 42.1382 145.706 41.861 145.651L27.1126 142.879C25.7265 142.602 24.6176 141.604 24.174 140.218L23.8968 139.33C23.6196 138.277 23.7305 137.168 24.3404 136.281L31.4928 125.026C32.3245 123.751 33.766 123.085 35.2631 123.307L49.5124 125.58C50.7877 125.802 51.8411 126.578 52.3401 127.743L52.5065 128.186C53.0055 129.24 52.95 130.515 52.3956 131.513L45.7976 143.71C45.1877 144.986 43.9125 145.706 42.5818 145.706ZM34.764 125.636C34.265 125.636 33.8215 125.913 33.5443 126.301L26.3918 137.556C26.1701 137.889 26.1146 138.332 26.2255 138.721L26.5027 139.608C26.6691 140.162 27.1126 140.55 27.6116 140.661L42.36 143.433C42.9699 143.544 43.6353 143.267 43.9125 142.712L50.5104 130.515C50.7322 130.127 50.7322 129.628 50.5659 129.24L50.3996 128.796C50.1778 128.353 49.7897 128.02 49.2907 127.964L35.0413 125.691C34.8749 125.636 34.8195 125.636 34.764 125.636Z"
      fill="#242B5B" />
    <path
      d="M115.159 128.851L121.757 116.654C122.145 115.933 122.201 115.101 121.813 114.325L121.646 113.882C121.258 113.105 120.538 112.496 119.706 112.385L105.456 110.111C104.403 109.945 103.405 110.389 102.851 111.276L95.6982 122.531C95.31 123.141 95.1991 123.917 95.4209 124.638L95.6982 125.525C95.9754 126.467 96.7516 127.188 97.6942 127.355L112.443 130.127C113.496 130.404 114.605 129.849 115.159 128.851Z"
      fill="white" />
    <g opacity="0.25">
      <path
        d="M111.112 125.414L103.128 123.972C109.116 124.25 111.334 124.083 115.825 118.206L112.054 124.97C111.888 125.303 111.5 125.469 111.112 125.414Z"
        fill="#242B5B" />
    </g>
    <g opacity="0.25">
      <path
        d="M121.757 116.654L115.159 128.852C114.605 129.85 113.496 130.404 112.387 130.182L97.6387 127.41C96.6962 127.244 95.8645 126.523 95.6427 125.58L95.3655 124.693C95.2546 124.25 95.2546 123.751 95.3655 123.307C95.5318 123.363 95.7536 123.473 95.9199 123.473L97.0288 123.695C97.5278 123.806 97.9714 123.862 98.4704 123.917C99.4684 124.028 100.411 124.083 101.409 124.083L112.11 126.079L117.155 116.931C118.264 115.656 119.262 114.27 120.094 112.717C120.149 112.662 120.149 112.551 120.205 112.496C120.87 112.717 121.425 113.216 121.702 113.882L121.924 114.325C122.201 115.046 122.145 115.933 121.757 116.654Z"
        fill="#242B5B" />
    </g>
    <path
      d="M111.888 127.521C111.777 127.521 111.666 127.521 111.611 127.521L95.1437 124.527C94.7002 124.472 94.4229 124.028 94.5338 123.64C94.5893 123.196 95.0328 122.975 95.4209 123.03L111.888 126.024C111.944 126.024 111.999 126.024 112.054 125.968L119.595 112.385C119.817 111.997 120.26 111.886 120.648 112.108C121.037 112.329 121.147 112.773 120.926 113.161L113.385 126.745C113.052 127.244 112.498 127.521 111.888 127.521Z"
      fill="#242B5B" />
    <path
      d="M113.94 130.737C113.662 130.737 113.385 130.57 113.274 130.293L111.888 127.355C111.722 126.966 111.888 126.523 112.276 126.357C112.664 126.19 113.108 126.357 113.274 126.745L114.66 129.683C114.827 130.071 114.66 130.515 114.272 130.681C114.161 130.737 114.05 130.737 113.94 130.737Z"
      fill="#242B5B" />
    <path
      d="M112.886 131.346C112.664 131.346 112.443 131.346 112.165 131.291L97.4169 128.519C96.0308 128.242 94.9219 127.244 94.4784 125.858L94.2011 124.97C93.9239 123.917 94.0348 122.808 94.6447 121.921L101.797 110.666C102.629 109.391 104.07 108.725 105.567 108.947L119.817 111.22C121.092 111.442 122.145 112.218 122.644 113.383L122.866 113.826C123.365 114.88 123.31 116.155 122.755 117.153L116.157 129.351C115.492 130.626 114.217 131.346 112.886 131.346ZM105.013 111.276C104.514 111.276 104.07 111.553 103.793 111.941L96.6407 123.196C96.4189 123.529 96.3635 123.972 96.4744 124.361L96.7516 125.248C96.9179 125.802 97.3615 126.19 97.8605 126.301L112.609 129.073C113.219 129.184 113.884 128.907 114.161 128.353L120.759 116.155C120.981 115.767 120.981 115.268 120.815 114.88L120.593 114.436C120.371 113.993 119.983 113.66 119.484 113.604L105.235 111.331C105.179 111.276 105.124 111.276 105.013 111.276Z"
      fill="#242B5B" />
    <path
      d="M87.0487 124.194L93.6467 111.997C94.0348 111.276 94.0903 110.444 93.7021 109.668L93.5358 109.224C93.1477 108.448 92.4269 107.838 91.5952 107.727L77.3459 105.454C76.2924 105.288 75.2944 105.731 74.7399 106.619L67.5875 117.874C67.1994 118.484 67.0885 119.26 67.3103 119.981L67.5875 120.868C67.8648 121.81 68.641 122.531 69.5835 122.697L84.3319 125.469C85.3854 125.747 86.5497 125.192 87.0487 124.194Z"
      fill="white" />
    <g opacity="0.25">
      <path
        d="M83.0567 120.757L75.0726 119.315C81.0607 119.592 83.2785 119.426 87.7695 113.549L83.9993 120.313C83.8329 120.646 83.4448 120.812 83.0567 120.757Z"
        fill="#242B5B" />
    </g>
    <g opacity="0.25">
      <path
        d="M93.7021 111.997L87.0487 124.194C86.4943 125.192 85.3854 125.747 84.2765 125.525L69.5281 122.753C68.5855 122.586 67.7539 121.866 67.5321 120.923L67.2549 120.036C67.144 119.592 67.144 119.093 67.2549 118.65C67.4212 118.705 67.643 118.816 67.8093 118.816L68.9182 119.038C69.4172 119.149 69.8608 119.204 70.3598 119.26C71.3578 119.371 72.3004 119.426 73.2984 119.426L83.9993 121.422L89.0448 112.274C90.1537 110.999 91.1517 109.613 91.9833 108.06C92.0388 108.005 92.0388 107.894 92.0942 107.838C92.7596 108.06 93.314 108.559 93.5913 109.224L93.813 109.668C94.0903 110.444 94.0903 111.276 93.7021 111.997Z"
        fill="#242B5B" />
    </g>
    <path
      d="M83.8329 122.919C83.722 122.919 83.6111 122.919 83.5557 122.919L67.0885 119.925C66.645 119.87 66.3677 119.426 66.4786 119.038C66.5341 118.594 66.9776 118.373 67.3657 118.428L83.8329 121.422C83.8884 121.422 83.9438 121.422 83.9993 121.367L91.5398 107.783C91.7616 107.395 92.2051 107.284 92.5932 107.506C92.9814 107.727 93.0922 108.171 92.8705 108.559L85.3299 122.143C84.9973 122.586 84.4428 122.919 83.8329 122.919Z"
      fill="#242B5B" />
    <path
      d="M85.8289 126.135C85.5517 126.135 85.2745 125.969 85.1636 125.691L83.7775 122.753C83.6111 122.365 83.7775 121.921 84.1656 121.755C84.5537 121.588 84.9973 121.755 85.1636 122.143L86.5497 125.081C86.7161 125.47 86.5497 125.913 86.1616 126.079C86.0507 126.079 85.9398 126.135 85.8289 126.135Z"
      fill="#242B5B" />
    <path
      d="M84.7755 126.745C84.5537 126.745 84.3319 126.745 84.0547 126.689L69.3063 123.917C67.9202 123.64 66.8113 122.642 66.3677 121.256L66.0905 120.369C65.8133 119.315 65.9242 118.206 66.5341 117.319L73.6865 106.064C74.5181 104.789 75.9597 104.124 77.4567 104.345L91.7061 106.619C92.9813 106.84 94.0348 107.617 94.5338 108.781L94.7002 109.224C95.1992 110.278 95.1437 111.553 94.5893 112.551L87.9913 124.749C87.4368 126.024 86.1616 126.745 84.7755 126.745ZM76.9577 106.619C76.4587 106.619 76.0152 106.896 75.7379 107.284L68.5855 118.539C68.3637 118.872 68.3083 119.315 68.4192 119.703L68.6964 120.59C68.8628 121.145 69.3063 121.533 69.8053 121.644L84.5537 124.416C85.1636 124.527 85.8289 124.25 86.1062 123.695L92.7041 111.498C92.9259 111.11 92.9259 110.611 92.7596 110.222L92.5378 109.779C92.316 109.335 91.9279 109.003 91.4289 108.947L77.1795 106.674C77.1241 106.619 77.0132 106.619 76.9577 106.619Z"
      fill="#242B5B" />
    <path
      d="M59.049 119.759L65.6469 107.561C66.0351 106.84 66.0905 106.009 65.7024 105.232L65.5361 104.789C65.1479 104.013 64.4272 103.403 63.5955 103.292L49.3461 101.019C48.2926 100.852 47.2946 101.296 46.7402 102.183L39.5878 113.438C39.1997 114.048 39.0888 114.824 39.3105 115.545L39.5878 116.432C39.865 117.375 40.6412 118.095 41.5838 118.262L56.3322 121.034C57.3856 121.256 58.55 120.757 59.049 119.759Z"
      fill="white" />
    <g opacity="0.25">
      <path
        d="M55.0569 116.321L47.0728 114.88C53.0609 115.157 55.2787 114.991 59.7698 109.114L55.9995 115.878C55.8332 116.21 55.445 116.377 55.0569 116.321Z"
        fill="#242B5B" />
    </g>
    <g opacity="0.25">
      <path
        d="M65.6469 107.561L59.049 119.759C58.4945 120.757 57.3856 121.311 56.2767 121.089L41.5283 118.317C40.5858 118.151 39.7541 117.43 39.5323 116.488L39.2551 115.6C39.1442 115.157 39.1442 114.658 39.2551 114.214C39.4214 114.27 39.6432 114.381 39.8095 114.381L40.9184 114.602C41.4175 114.713 41.861 114.769 42.36 114.824C43.358 114.935 44.3006 114.991 45.2986 114.991L55.9995 116.987L61.045 107.838C62.1539 106.563 63.1519 105.177 63.9836 103.625C64.039 103.569 64.039 103.458 64.0945 103.403C64.7598 103.625 65.3143 104.124 65.5915 104.789L65.8133 105.232C66.0905 105.953 66.0351 106.84 65.6469 107.561Z"
        fill="#242B5B" />
    </g>
    <path
      d="M55.8332 118.428C55.7223 118.428 55.6114 118.428 55.5559 118.428L39.0888 115.434C38.6452 115.379 38.368 114.935 38.4789 114.547C38.5343 114.104 38.9779 113.882 39.366 113.937L55.8332 116.931C55.8886 116.931 55.9441 116.931 55.9995 116.876L63.54 103.292C63.7618 102.904 64.2054 102.793 64.5935 103.015C64.9816 103.237 65.0925 103.68 64.8707 104.068L57.3302 117.652C56.9975 118.151 56.4431 118.428 55.8332 118.428Z"
      fill="#242B5B" />
    <path
      d="M57.8292 121.644C57.552 121.644 57.2747 121.478 57.1639 121.2L55.7777 118.262C55.6114 117.874 55.7777 117.43 56.1658 117.264C56.554 117.097 56.9975 117.264 57.1639 117.652L58.55 120.59C58.7163 120.979 58.55 121.422 58.1619 121.588C58.051 121.644 57.9401 121.644 57.8292 121.644Z"
      fill="#242B5B" />
    <path
      d="M56.7757 122.254C56.554 122.254 56.3322 122.254 56.0549 122.198L41.3066 119.426C39.9204 119.149 38.8115 118.151 38.368 116.765L38.0908 115.878C37.8135 114.824 37.9244 113.715 38.5343 112.828L45.6867 101.573C46.5184 100.298 47.96 99.6326 49.457 99.8544L63.7064 102.128C64.9816 102.349 66.0351 103.126 66.5341 104.29L66.7558 104.733C67.2549 105.787 67.1994 107.062 66.645 108.06L60.047 120.258C59.4371 121.533 58.1619 122.254 56.7757 122.254ZM48.958 102.128C48.459 102.128 48.0154 102.405 47.7382 102.793L40.5858 114.048C40.364 114.381 40.3086 114.824 40.4194 115.212L40.6967 116.099C40.863 116.654 41.3066 117.042 41.8056 117.153L56.554 119.925C57.1639 120.036 57.8292 119.759 58.1064 119.204L64.7044 107.007C64.9262 106.619 64.9262 106.12 64.7598 105.731L64.538 105.288C64.3163 104.844 63.9281 104.512 63.4291 104.456L49.1798 102.183C49.1243 102.183 49.0134 102.128 48.958 102.128Z"
      fill="#242B5B" />
    <path
      d="M129.631 104.623L136.118 92.3695C136.506 91.6487 136.506 90.817 136.173 90.0408L135.951 89.5973C135.563 88.8211 134.842 88.2666 133.955 88.1003L119.706 85.9934C118.652 85.8271 117.654 86.3261 117.1 87.2132L110.058 98.5237C109.67 99.1336 109.559 99.9098 109.781 100.631L110.058 101.518C110.336 102.46 111.112 103.181 112.11 103.347L126.858 106.009C128.023 106.175 129.132 105.676 129.631 104.623Z"
      fill="white" />
    <g opacity="0.25">
      <path
        d="M125.583 101.241L117.599 99.9099C123.587 100.132 125.805 99.9654 130.24 93.9774L126.526 100.797C126.359 101.13 125.971 101.296 125.583 101.241Z"
        fill="#242B5B" />
    </g>
    <g opacity="0.25">
      <path
        d="M136.173 92.3695L129.686 104.623C129.132 105.621 128.023 106.175 126.914 105.953L112.165 103.347C111.223 103.181 110.391 102.46 110.114 101.518L109.837 100.631C109.726 100.187 109.67 99.6881 109.781 99.2445C109.948 99.3 110.169 99.3554 110.336 99.4109L111.445 99.5772C111.944 99.6881 112.387 99.7435 112.886 99.799C113.884 99.9099 114.882 99.9653 115.825 99.9099L126.526 101.795L131.46 92.5913C132.569 91.3161 133.567 89.93 134.399 88.3775C134.454 88.3221 134.454 88.2112 134.51 88.1558C135.175 88.3775 135.729 88.8765 136.062 89.5419L136.284 89.9854C136.561 90.8171 136.506 91.6487 136.173 92.3695Z"
        fill="#242B5B" />
    </g>
    <path
      d="M126.359 103.347C126.248 103.347 126.193 103.347 126.082 103.347L109.615 100.52C109.171 100.464 108.894 100.076 109.005 99.6327C109.06 99.1891 109.449 98.9119 109.892 99.0228L126.359 101.85C126.415 101.85 126.47 101.85 126.526 101.795L133.955 88.1558C134.177 87.7677 134.621 87.6568 135.009 87.8231C135.397 88.0449 135.508 88.4885 135.341 88.8766L127.912 102.516C127.524 103.07 126.969 103.347 126.359 103.347Z"
      fill="#242B5B" />
    <path
      d="M128.411 106.563C128.134 106.563 127.856 106.397 127.745 106.12L126.304 103.181C126.137 102.793 126.304 102.349 126.636 102.183C127.025 102.017 127.468 102.183 127.635 102.516L129.076 105.454C129.242 105.842 129.076 106.286 128.743 106.452C128.688 106.563 128.522 106.563 128.411 106.563Z"
      fill="#242B5B" />
    <path
      d="M127.357 107.173C127.136 107.173 126.914 107.173 126.692 107.118L111.944 104.512C110.557 104.234 109.393 103.236 109.005 101.906L108.728 101.019C108.395 99.9652 108.561 98.8564 109.116 97.9693L116.157 86.6587C116.934 85.3835 118.431 84.7182 119.928 84.94L134.177 87.0468C135.452 87.2132 136.506 88.0448 137.005 89.2091L137.227 89.6527C137.726 90.7061 137.67 91.9813 137.116 92.9793L130.629 105.232C130.019 106.452 128.743 107.173 127.357 107.173ZM119.373 87.1577C118.874 87.1577 118.431 87.4349 118.153 87.823L111.112 99.1336C110.89 99.4663 110.835 99.9098 110.946 100.298L111.223 101.185C111.389 101.739 111.833 102.128 112.387 102.183L127.136 104.789C127.745 104.9 128.355 104.623 128.688 104.013L135.175 91.7596C135.397 91.3715 135.397 90.8725 135.23 90.4844L135.009 90.0408C134.787 89.5972 134.399 89.2646 133.9 89.2091L119.65 87.1023C119.54 87.1577 119.484 87.1577 119.373 87.1577Z"
      fill="#242B5B" />
    <path
      d="M101.52 100.464L108.007 88.2113C108.395 87.4905 108.395 86.6588 108.062 85.8826L107.841 85.4391C107.453 84.6629 106.732 84.1084 105.845 83.9421L91.5952 81.8352C90.5418 81.6689 89.5438 82.1679 88.9893 83.055L81.9478 94.3655C81.5597 94.9754 81.4488 95.7516 81.6706 96.4724L81.9478 97.3595C82.225 98.302 83.0012 99.0228 83.9992 99.1891L98.7476 101.85C99.8565 102.017 101.021 101.462 101.52 100.464Z"
      fill="white" />
    <g opacity="0.25">
      <path
        d="M97.4724 97.0822L89.4883 95.7516C95.4764 95.9734 97.6942 95.807 102.13 89.8191L98.415 96.6387C98.2486 96.9713 97.8605 97.1377 97.4724 97.0822Z"
        fill="#242B5B" />
    </g>
    <g opacity="0.25">
      <path
        d="M108.007 88.2112L101.52 100.464C100.965 101.462 99.8565 102.017 98.7476 101.795L83.9993 99.189C83.0567 99.0227 82.225 98.3019 81.9478 97.3594L81.6706 96.4723C81.5597 96.0287 81.5042 95.5298 81.6151 95.0862C81.7815 95.1416 82.0032 95.1971 82.1696 95.2525L83.2785 95.4189C83.7775 95.5298 84.221 95.5852 84.72 95.6406C85.7181 95.7515 86.7161 95.807 87.6586 95.7515L98.3595 97.6366L103.294 88.4329C104.403 87.1577 105.401 85.7716 106.233 84.2192C106.288 84.1638 106.288 84.0529 106.344 83.9974C107.009 84.2192 107.563 84.7182 107.896 85.3835L108.118 85.8271C108.451 86.6587 108.395 87.4904 108.007 88.2112Z"
        fill="#242B5B" />
    </g>
    <path
      d="M98.2486 99.1891C98.1377 99.1891 98.0823 99.1891 97.9714 99.1891L81.5042 96.3615C81.0607 96.306 80.7834 95.9179 80.8943 95.4744C80.9498 95.0308 81.3379 94.7536 81.7814 94.8645L98.2486 97.6921C98.3041 97.6921 98.3595 97.6921 98.415 97.6367L105.845 83.9975C106.066 83.6094 106.51 83.4985 106.898 83.6648C107.286 83.8866 107.397 84.3301 107.231 84.7183L99.8011 98.3574C99.413 98.8564 98.8585 99.1891 98.2486 99.1891Z"
      fill="#242B5B" />
    <path
      d="M100.3 102.405C100.023 102.405 99.7456 102.238 99.6348 101.961L98.1932 99.0227C98.0268 98.6346 98.1932 98.1911 98.5258 98.0247C98.914 97.8584 99.3575 98.0247 99.5239 98.3574L100.965 101.296C101.132 101.684 100.965 102.128 100.633 102.294C100.522 102.349 100.411 102.405 100.3 102.405Z"
      fill="#242B5B" />
    <path
      d="M99.2466 103.015C99.0249 103.015 98.8031 103.015 98.5813 102.959L83.8329 100.298C82.4468 100.021 81.2824 99.0228 80.8943 97.6922L80.6171 96.8051C80.2844 95.7516 80.4508 94.6427 81.0052 93.7556L88.0467 82.4451C88.823 81.1699 90.32 80.5046 91.817 80.7263L106.066 82.8332C107.342 82.9995 108.395 83.8312 108.894 84.9955L109.116 85.4391C109.615 86.4925 109.559 87.7677 109.005 88.7657L102.573 101.019C101.908 102.239 100.633 103.015 99.2466 103.015ZM91.2626 82.9441C90.7635 82.9441 90.32 83.2213 90.0428 83.6094L83.0012 94.92C82.7795 95.2526 82.724 95.6962 82.8349 96.0843L83.1121 96.9714C83.2785 97.5258 83.722 97.9139 84.2765 97.9694L99.0249 100.631C99.6348 100.742 100.245 100.464 100.577 99.8545L107.064 87.6014C107.286 87.2133 107.286 86.7143 107.12 86.3262L106.898 85.8826C106.676 85.4391 106.288 85.1064 105.789 85.051L91.5398 82.9441C91.4289 82.9995 91.3734 82.9441 91.2626 82.9441Z"
      fill="#242B5B" />
    <path
      d="M73.4092 96.306L79.8963 84.0529C80.2844 83.3322 80.2844 82.5005 79.9518 81.7243L79.73 81.2807C79.3419 80.5045 78.6211 79.9501 77.734 79.7838L63.4846 77.6769C62.4311 77.5106 61.4331 78.0096 60.8787 78.8967L53.8371 90.2072C53.449 90.8171 53.3381 91.5933 53.5599 92.3141L53.8371 93.2012C54.1144 94.1437 54.8906 94.8645 55.8886 95.0308L70.637 97.6921C71.7459 97.8584 72.8548 97.304 73.4092 96.306Z"
      fill="white" />
    <g opacity="0.25">
      <path
        d="M69.3618 92.9239L61.3777 91.5933C67.3657 91.815 69.5835 91.6487 74.0191 85.6608L70.3043 92.4804C70.138 92.813 69.7499 92.9794 69.3618 92.9239Z"
        fill="#242B5B" />
    </g>
    <g opacity="0.25">
      <path
        d="M79.8963 84.053L73.4092 96.3061C72.8548 97.304 71.7459 97.8585 70.637 97.6367L55.8886 95.0308C54.946 94.8645 54.1144 94.1437 53.8371 93.2012L53.5599 92.3141C53.449 91.8705 53.3936 91.3716 53.5045 90.928C53.6708 90.9834 53.8926 91.0389 54.0589 91.0943L55.1678 91.2607C55.6668 91.3716 56.1104 91.427 56.6094 91.4824C57.6074 91.5933 58.55 91.6488 59.548 91.5933L70.2489 93.4784L75.1835 84.2747C76.2924 82.9995 77.2904 81.6134 78.1221 80.061C78.1775 80.0056 78.1775 79.8947 78.233 79.8392C78.8983 80.061 79.4528 80.56 79.7854 81.2253L80.0072 81.6689C80.2844 82.5005 80.2844 83.3322 79.8963 84.053Z"
        fill="#242B5B" />
    </g>
    <path
      d="M70.138 95.0308C70.0271 95.0308 69.9717 95.0308 69.8608 95.0308L53.3936 92.2031C52.95 92.1477 52.6728 91.7596 52.7837 91.316C52.8391 90.8725 53.2273 90.5953 53.6708 90.7062L70.138 93.5338C70.1934 93.5338 70.2489 93.5338 70.3043 93.4783L77.734 79.8392C77.9557 79.451 78.3993 79.3402 78.7874 79.5065C79.1755 79.7283 79.2864 80.1718 79.1201 80.5599L71.6905 94.1991C71.3023 94.6981 70.7479 95.0308 70.138 95.0308Z"
      fill="#242B5B" />
    <path
      d="M72.1895 98.2466C71.9122 98.2466 71.635 98.0802 71.5241 97.803L70.0825 94.8645C69.9162 94.4764 70.0825 94.0329 70.4152 93.8665C70.8033 93.7002 71.2469 93.8665 71.4132 94.1992L72.8548 97.1377C73.0211 97.5258 72.8548 97.9694 72.5221 98.1357C72.4112 98.1911 72.3003 98.2466 72.1895 98.2466Z"
      fill="#242B5B" />
    <path
      d="M71.136 98.8564C70.9142 98.8564 70.6924 98.8564 70.4707 98.801L55.7223 96.1397C54.3361 95.8625 53.1718 94.8645 52.7837 93.5338L52.5065 92.6467C52.1738 91.5933 52.3401 90.4844 52.8946 89.5973L59.9361 78.2868C60.7123 77.0116 62.2093 76.3462 63.7064 76.568L77.9557 78.6749C79.231 78.8412 80.2844 79.6729 80.7834 80.8372L81.0052 81.2807C81.5042 82.3342 81.4488 83.6094 80.8943 84.6074L74.4073 96.8605C73.7419 98.1357 72.4667 98.8564 71.136 98.8564ZM63.1519 78.8412C62.6529 78.8412 62.2093 79.1184 61.9321 79.5065L54.8906 90.8171C54.6688 91.1497 54.6134 91.5933 54.7243 91.9814L55.0015 92.8685C55.1678 93.4229 55.6114 93.8111 56.1658 93.8665L70.9142 96.5278C71.5241 96.6387 72.134 96.3615 72.4667 95.7516L78.9537 83.4985C79.1755 83.1104 79.1755 82.6114 79.0092 82.2233L78.7874 81.7797C78.5656 81.3362 78.1775 81.0035 77.6785 80.9481L63.4291 78.8412C63.3182 78.8412 63.2074 78.8412 63.1519 78.8412Z"
      fill="#242B5B" />
    <path
      d="M143.436 82.2787L149.923 70.0256C150.312 69.3048 150.312 68.4732 149.979 67.6969L149.757 67.2534C149.369 66.4772 148.648 65.9227 147.761 65.7564L133.512 63.6495C132.458 63.4832 131.46 63.9822 130.906 64.8693L123.864 76.1799C123.476 76.7897 123.365 77.5659 123.587 78.2867L123.864 79.1738C124.141 80.1164 124.918 80.8371 125.916 81.0035L140.664 83.6093C141.773 83.8311 142.882 83.2767 143.436 82.2787Z"
      fill="white" />
    <g opacity="0.25">
      <path
        d="M139.389 78.8967L131.405 77.566C137.393 77.7878 139.611 77.6215 144.046 71.6335L140.331 78.4531C140.165 78.7858 139.777 78.9521 139.389 78.8967Z"
        fill="#242B5B" />
    </g>
    <g opacity="0.25">
      <path
        d="M149.923 70.0256L143.436 82.2787C142.882 83.2767 141.773 83.8311 140.664 83.6094L125.916 81.0035C124.973 80.8372 124.141 80.1164 123.864 79.1739L123.587 78.2868C123.476 77.8432 123.421 77.3442 123.532 76.9007C123.698 76.9561 123.92 77.0115 124.086 77.067L125.195 77.2333C125.694 77.3442 126.137 77.3997 126.636 77.4551C127.635 77.566 128.633 77.6214 129.575 77.566L140.276 79.4511L145.211 70.2474C146.319 68.9722 147.318 67.5861 148.149 66.0337C148.205 65.9782 148.205 65.8673 148.26 65.8119C148.925 66.0337 149.48 66.5327 149.813 67.198L150.034 67.6415C150.312 68.4178 150.312 69.3049 149.923 70.0256Z"
        fill="#242B5B" />
    </g>
    <path
      d="M140.165 81.0035C140.054 81.0035 139.999 81.0035 139.888 81.0035L123.421 78.1759C122.977 78.1205 122.7 77.7324 122.811 77.2888C122.866 76.8453 123.254 76.568 123.698 76.6789L140.165 79.5066C140.221 79.5066 140.276 79.5066 140.331 79.4511L147.761 65.8119C147.983 65.4238 148.426 65.3129 148.815 65.4793C149.203 65.701 149.314 66.1446 149.147 66.5327L141.718 80.1719C141.329 80.6709 140.775 81.0035 140.165 81.0035Z"
      fill="#242B5B" />
    <path
      d="M142.217 84.2192C141.939 84.2192 141.662 84.0529 141.551 83.7757L140.11 80.8372C139.943 80.4491 140.11 80.0055 140.442 79.8392C140.83 79.6728 141.274 79.8392 141.44 80.1718L142.882 83.1104C143.048 83.4985 142.882 83.942 142.549 84.1084C142.438 84.1638 142.327 84.2192 142.217 84.2192Z"
      fill="#242B5B" />
    <path
      d="M141.163 84.8292C140.941 84.8292 140.72 84.8292 140.498 84.7737L125.749 82.1679C124.363 81.8907 123.199 80.8927 122.811 79.562L122.534 78.6749C122.201 77.6215 122.367 76.5126 122.922 75.6255L129.963 64.315C130.739 63.0398 132.236 62.3744 133.733 62.5962L147.983 64.7031C149.258 64.8694 150.312 65.7011 150.811 66.8654L151.032 67.3089C151.531 68.3624 151.476 69.6376 150.921 70.6356L144.434 82.8887C143.769 84.053 142.494 84.8292 141.163 84.8292ZM133.179 64.7585C132.68 64.7585 132.236 65.0357 131.959 65.4239L124.918 76.7344C124.696 77.0671 124.64 77.5106 124.751 77.8987L125.029 78.7858C125.195 79.3403 125.639 79.7284 126.193 79.7838L140.941 82.3897C141.551 82.5006 142.161 82.2233 142.494 81.6135L148.981 69.3604C149.203 68.9723 149.203 68.4733 149.036 68.0852L148.815 67.6416C148.593 67.1981 148.205 66.8654 147.706 66.8099L133.456 64.7031C133.345 64.814 133.234 64.7585 133.179 64.7585Z"
      fill="#242B5B" />
    <path
      d="M115.27 78.2313L121.757 65.9782C122.145 65.2575 122.145 64.4258 121.813 63.6496L121.591 63.206C121.203 62.4298 120.482 61.8754 119.595 61.7091L105.346 59.6022C104.292 59.4359 103.294 59.9348 102.74 60.8219L95.6982 72.1325C95.31 72.7424 95.1991 73.5186 95.4209 74.2394L95.6982 75.1265C95.9754 76.069 96.7516 76.7898 97.7496 76.9561L112.498 79.562C113.607 79.7837 114.716 79.2293 115.27 78.2313Z"
      fill="white" />
    <g opacity="0.25">
      <path
        d="M111.223 74.7938L103.239 73.4631C109.227 73.6849 111.445 73.5186 115.88 67.5306L112.165 74.3502C111.999 74.6829 111.611 74.9047 111.223 74.7938Z"
        fill="#242B5B" />
    </g>
    <g opacity="0.25">
      <path
        d="M121.757 65.9783L115.27 78.2313C114.716 79.2293 113.607 79.7838 112.498 79.562L97.7496 76.9561C96.8071 76.7898 95.9754 76.069 95.6982 75.1265L95.4209 74.2394C95.3101 73.7958 95.2546 73.2968 95.3655 72.8533C95.5318 72.9087 95.7536 72.9642 95.9199 73.0196L97.0288 73.186C97.5279 73.2968 97.9714 73.3523 98.4704 73.4077C99.4684 73.5186 100.411 73.5741 101.409 73.5186L112.11 75.4037L117.045 66.2C118.153 64.9248 119.151 63.5387 119.983 61.9863C120.039 61.9309 120.039 61.82 120.094 61.7645C120.759 61.9863 121.314 62.4853 121.646 63.1506L121.868 63.5942C122.145 64.3704 122.145 65.2575 121.757 65.9783Z"
        fill="#242B5B" />
    </g>
    <path
      d="M111.999 76.9561C111.888 76.9561 111.833 76.9561 111.722 76.9561L95.2546 74.1284C94.811 74.073 94.5338 73.6849 94.6447 73.2413C94.7001 72.7978 95.0883 72.5205 95.5318 72.6314L111.999 75.4591C112.054 75.4591 112.11 75.4591 112.165 75.4036L119.595 61.7644C119.817 61.3763 120.26 61.2655 120.648 61.4318C121.037 61.6536 121.147 62.0971 120.981 62.4852L113.551 76.1244C113.163 76.6234 112.609 76.9561 111.999 76.9561Z"
      fill="#242B5B" />
    <path
      d="M114.05 80.1165C113.773 80.1165 113.496 79.9501 113.385 79.6729L111.944 76.7344C111.777 76.3463 111.944 75.9027 112.276 75.7364C112.664 75.5701 113.108 75.7364 113.274 76.0691L114.716 79.0076C114.882 79.3957 114.716 79.8392 114.383 80.0056C114.272 80.1165 114.161 80.1165 114.05 80.1165Z"
      fill="#242B5B" />
    <path
      d="M112.942 80.7817C112.72 80.7817 112.498 80.7817 112.276 80.7263L97.5279 78.1204C96.1417 77.8432 94.9774 76.8452 94.5893 75.5145L94.312 74.6274C93.9794 73.574 94.1457 72.4651 94.7002 71.578L101.742 60.2675C102.518 58.9923 104.015 58.327 105.512 58.5487L119.761 60.6556C121.037 60.8219 122.09 61.6536 122.589 62.8179L122.811 63.2615C123.31 64.3149 123.254 65.5901 122.7 66.5881L116.213 78.8412C115.603 80.0055 114.328 80.7817 112.942 80.7817ZM105.013 60.711C104.514 60.711 104.07 60.9883 103.793 61.3764L96.7516 72.6869C96.5298 73.0196 96.4744 73.4631 96.5853 73.8512L96.8625 74.7383C97.0288 75.2928 97.4724 75.6809 98.0269 75.7363L112.775 78.3422C113.385 78.4531 113.995 78.1758 114.328 77.566L120.815 65.3129C121.037 64.9248 121.037 64.4258 120.87 64.0377L120.648 63.5941C120.427 63.1506 120.039 62.8179 119.54 62.7625L105.29 60.6556C105.124 60.711 105.068 60.711 105.013 60.711Z"
      fill="#242B5B" />
    <path
      d="M87.2705 74.2393L93.6467 61.8753C94.0348 61.1546 94.0348 60.2675 93.7022 59.5467L93.4804 59.1032C93.0923 58.3269 92.3715 57.7725 91.4843 57.6616L77.235 55.7211C76.1815 55.5548 75.1835 56.0537 74.6291 56.9408L67.643 68.3623C67.2549 69.0276 67.144 69.8038 67.3658 70.4691L67.643 71.3562C67.9202 72.2988 68.7519 72.9641 69.6944 73.1304L84.4983 75.57C85.6072 75.7918 86.7161 75.2373 87.2705 74.2393Z"
      fill="white" />
    <g opacity="0.25">
      <path
        d="M83.1676 70.8573L75.1835 69.5821C81.1716 69.693 83.3894 69.5266 87.7695 63.5387L84.1656 70.4137C83.9438 70.7464 83.5557 70.9127 83.1676 70.8573Z"
        fill="#242B5B" />
    </g>
    <g opacity="0.25">
      <path
        d="M93.5912 61.8754L87.2151 74.2394C86.7161 75.2374 85.6071 75.7918 84.4982 75.6255L69.6944 73.186C68.7519 73.0196 67.9202 72.3543 67.643 71.4118L67.3657 70.5247C67.1994 70.0811 67.1994 69.5821 67.3103 69.1386C67.4766 69.194 67.6984 69.2495 67.8647 69.3049L68.9736 69.4712C69.4726 69.5267 69.9162 69.6376 70.4152 69.6376C71.4132 69.7485 72.4112 69.7485 73.3538 69.7485L84.0547 71.5227L88.8784 62.2635C89.9873 60.9883 90.9299 59.5468 91.7616 57.9944C91.817 57.9389 91.817 57.828 91.8724 57.7726C92.5378 57.9944 93.0922 58.4934 93.4249 59.1032L93.6467 59.5468C93.9794 60.323 93.9794 61.1547 93.5912 61.8754Z"
        fill="#242B5B" />
    </g>
    <path
      d="M83.9438 72.9641C83.8329 72.9641 83.7775 72.9641 83.6666 72.9641L67.144 70.3028C66.7004 70.2474 66.4232 69.8593 66.5341 69.4157C66.5895 68.9722 66.9776 68.695 67.4212 68.8058L83.9438 71.4672C83.9992 71.4672 84.0547 71.4672 84.1101 71.4117L91.3734 57.7171C91.5952 57.329 92.0388 57.2181 92.4269 57.3844C92.815 57.6062 92.9259 58.0497 92.7596 58.4379L85.4408 72.077C85.1082 72.6315 84.5537 72.9641 83.9438 72.9641Z"
      fill="#242B5B" />
    <path
      d="M86.0507 76.1799C85.7735 76.1799 85.4963 76.0136 85.3854 75.7363L83.9438 72.8533C83.7775 72.4651 83.8884 72.0216 84.2765 71.7998C84.6646 71.6335 85.1082 71.7444 85.3299 72.1325L86.7715 75.0156C86.9378 75.4037 86.827 75.8472 86.4388 76.069C86.2725 76.1244 86.1616 76.1799 86.0507 76.1799Z"
      fill="#242B5B" />
    <path
      d="M84.9418 76.7897C84.72 76.7897 84.5537 76.7897 84.3319 76.7343L69.5281 74.2948C68.142 74.073 66.9776 73.075 66.5341 71.6889L66.2568 70.8018C65.9242 69.7484 66.0905 68.6395 66.6449 67.7524L73.5756 56.331C74.3518 55.0558 75.7934 54.335 77.2904 54.5568L91.5398 56.4973C92.815 56.6636 93.8685 57.4398 94.4229 58.6042L94.6447 59.0477C95.1437 60.1011 95.1437 61.3209 94.5893 62.3743L88.2131 74.7383C87.6032 76.0135 86.3279 76.7897 84.9418 76.7897ZM76.7914 56.83C76.2924 56.83 75.7934 57.1072 75.5716 57.5507L68.641 68.9722C68.4192 69.3048 68.3637 69.7484 68.4746 70.1919L68.7519 71.079C68.9182 71.578 69.3618 71.9661 69.9162 72.077L84.72 74.5165C85.3299 74.6274 85.9398 74.2948 86.2725 73.7403L92.6487 61.3763C92.8705 60.9882 92.8705 60.4893 92.6487 60.1011L92.4269 59.6576C92.2051 59.214 91.817 58.8814 91.318 58.8259L77.0686 56.8854C76.9577 56.83 76.8468 56.83 76.7914 56.83Z"
      fill="#242B5B" />
    <path
      d="M172.767 87.1024L179.143 74.7938C179.531 74.0731 179.531 73.2414 179.198 72.4652L178.977 72.0216C178.589 71.2454 177.868 70.691 176.981 70.5801L162.731 68.5841C161.678 68.4178 160.68 68.9168 160.125 69.8039L153.139 81.1699C152.751 81.8352 152.64 82.6114 152.862 83.2767L153.139 84.1638C153.416 85.1064 154.248 85.7717 155.191 85.938L169.939 88.433C171.159 88.6548 172.268 88.1558 172.767 87.1024Z"
      fill="#EA5569" />
    <g opacity="0.3">
      <path
        d="M179.198 72.4651L178.977 72.0216C178.699 71.4117 178.145 70.9127 177.535 70.6909C177.48 70.8572 177.424 71.0236 177.313 71.2454L170.937 83.5539C170.438 84.5519 169.329 85.1063 168.165 84.94L153.416 82.445C153.195 82.3896 152.973 82.3341 152.807 82.2232C152.751 82.5559 152.807 82.944 152.917 83.2767L153.195 84.1638C153.472 85.1063 154.304 85.7716 155.246 85.938L169.995 88.4329C171.103 88.5993 172.212 88.0448 172.767 87.0469L179.143 74.7383C179.531 74.073 179.587 73.2413 179.198 72.4651Z"
        fill="#242B5B" />
    </g>
    <g opacity="0.6">
      <path
        d="M154.359 83.8866L161.345 72.5207C161.9 71.6336 162.898 71.1346 163.951 71.3009L178.2 73.2969C178.699 73.3523 179.143 73.5741 179.476 73.8513C179.531 73.4078 179.476 72.9088 179.254 72.4652L179.032 72.0217C178.644 71.2454 177.923 70.691 177.036 70.5247L162.787 68.5287C161.733 68.3624 160.735 68.8614 160.181 69.7485L153.195 81.1145C152.807 81.7798 152.696 82.556 152.917 83.2213L153.195 84.1084C153.361 84.552 153.583 84.9955 153.971 85.2727C153.915 84.8292 154.082 84.3302 154.359 83.8866Z"
        fill="#E3EDF9" />
    </g>
    <path
      d="M169.496 85.8826C169.385 85.8826 169.329 85.8826 169.218 85.8826L152.696 83.1658C152.252 83.1104 151.975 82.7223 152.086 82.2787C152.197 81.8352 152.529 81.558 152.973 81.6689L169.496 84.3856C169.551 84.3856 169.606 84.3856 169.662 84.3302L176.981 70.6355C177.202 70.2474 177.646 70.1365 178.034 70.3029C178.422 70.5247 178.533 70.9682 178.367 71.3563L171.048 85.0509C170.66 85.5499 170.105 85.8826 169.496 85.8826Z"
      fill="#242B5B" />
    <path
      d="M171.547 89.0428C171.27 89.0428 170.993 88.8765 170.882 88.5993L169.44 85.7162C169.274 85.3281 169.385 84.8845 169.773 84.6627C170.161 84.4964 170.604 84.6073 170.826 84.9954L172.268 87.8785C172.434 88.2666 172.323 88.7101 171.935 88.9319C171.769 89.0428 171.658 89.0428 171.547 89.0428Z"
      fill="#242B5B" />
    <path
      d="M170.438 89.6528C170.216 89.6528 169.995 89.6528 169.773 89.5974L155.024 87.1024C153.638 86.8806 152.474 85.8826 152.086 84.4965L151.809 83.6094C151.476 82.556 151.642 81.4471 152.197 80.56L159.183 69.194C159.959 67.9188 161.456 67.2535 162.898 67.4198L177.147 69.4158C178.422 69.5821 179.476 70.3584 180.03 71.5227L180.252 71.9662C180.751 73.0197 180.751 74.2949 180.196 75.2929L173.82 87.6014C173.155 88.932 171.824 89.6528 170.438 89.6528ZM162.399 69.693C161.9 69.693 161.401 69.9702 161.179 70.4138L154.193 81.7798C153.971 82.1124 153.915 82.556 154.026 82.9441L154.304 83.8312C154.47 84.3856 154.913 84.7183 155.468 84.8292L170.216 87.3242C170.826 87.4351 171.436 87.1024 171.769 86.548L178.145 74.2394C178.367 73.8513 178.367 73.3523 178.145 72.9642L177.923 72.5207C177.701 72.0771 177.313 71.7445 176.814 71.689L162.565 69.693C162.509 69.693 162.454 69.693 162.399 69.693Z"
      fill="#242B5B" />
    <path
      d="M159.016 109.113L165.393 96.8049C165.781 96.0842 165.781 95.2525 165.448 94.4763L165.226 94.0328C164.838 93.2565 164.117 92.7021 163.23 92.5912L148.981 90.5952C147.927 90.4289 146.929 90.9279 146.375 91.815L139.389 103.181C139.001 103.846 138.89 104.623 139.112 105.288L139.389 106.175C139.666 107.117 140.498 107.783 141.44 107.949L156.189 110.444C157.409 110.721 158.517 110.167 159.016 109.113Z"
      fill="#EA5569" />
    <g opacity="0.3">
      <path
        d="M165.448 94.5318L165.226 94.0882C164.949 93.4783 164.395 92.9793 163.785 92.7576C163.729 92.9239 163.674 93.0902 163.563 93.312L157.187 105.621C156.688 106.619 155.579 107.173 154.414 107.007L139.666 104.512C139.444 104.456 139.223 104.401 139.056 104.29C139.001 104.623 139.056 105.011 139.167 105.343L139.444 106.23C139.722 107.173 140.553 107.838 141.496 108.005L156.244 110.5C157.353 110.666 158.462 110.111 159.016 109.114L165.393 96.805C165.781 96.0842 165.836 95.2525 165.448 94.5318Z"
        fill="#242B5B" />
    </g>
    <g opacity="0.6">
      <path
        d="M140.941 105.953L147.927 94.5873C148.482 93.7002 149.48 93.2012 150.533 93.3675L164.783 95.3635C165.115 95.4189 165.448 95.5298 165.725 95.6962C165.725 95.3081 165.67 94.8645 165.503 94.5318L165.282 94.0883C164.894 93.3121 164.173 92.7576 163.286 92.6468L149.036 90.6508C147.983 90.4844 146.985 90.9834 146.43 91.8705L139.444 103.237C139.056 103.902 138.945 104.678 139.167 105.343L139.444 106.23C139.611 106.84 140.054 107.339 140.609 107.672C140.498 107.062 140.664 106.452 140.941 105.953Z"
        fill="#E3EDF9" />
    </g>
    <path
      d="M155.745 107.894C155.634 107.894 155.579 107.894 155.468 107.894L138.945 105.177C138.502 105.122 138.225 104.734 138.335 104.29C138.391 103.846 138.779 103.569 139.223 103.68L155.745 106.397C155.801 106.397 155.856 106.397 155.911 106.341L163.23 92.6468C163.452 92.2587 163.896 92.1478 164.284 92.3141C164.672 92.5359 164.783 92.9794 164.616 93.3675L157.187 107.007C156.909 107.561 156.355 107.894 155.745 107.894Z"
      fill="#242B5B" />
    <path
      d="M157.797 111.054C157.519 111.054 157.242 110.888 157.131 110.61L155.69 107.727C155.523 107.339 155.634 106.896 156.022 106.674C156.41 106.508 156.854 106.619 157.076 107.007L158.517 109.89C158.684 110.278 158.573 110.721 158.185 110.943C158.074 111.054 157.908 111.054 157.797 111.054Z"
      fill="#242B5B" />
    <path
      d="M156.743 111.719C156.521 111.719 156.3 111.719 156.078 111.664L141.329 109.169C139.943 108.947 138.779 107.949 138.391 106.563L138.114 105.676C137.781 104.623 137.947 103.514 138.502 102.627L145.488 91.2606C146.264 89.9854 147.761 89.32 149.203 89.4864L163.452 91.4823C164.727 91.6487 165.781 92.4249 166.335 93.5892L166.557 94.0328C167.056 95.0862 167.056 96.3614 166.501 97.3594L160.125 109.668C159.405 110.943 158.129 111.719 156.743 111.719ZM148.648 91.7041C148.149 91.7041 147.65 91.9813 147.428 92.4249L140.442 103.791C140.221 104.124 140.165 104.567 140.276 104.955L140.553 105.842C140.72 106.397 141.163 106.729 141.718 106.84L156.466 109.335C157.076 109.446 157.686 109.113 158.018 108.559L164.395 96.2505C164.616 95.8624 164.616 95.3634 164.395 94.9753L164.173 94.5318C163.951 94.0882 163.563 93.7555 163.064 93.7001L148.815 91.7041C148.759 91.7041 148.704 91.7041 148.648 91.7041Z"
      fill="#242B5B" />
    <path
      d="M145.155 133.564L151.864 121.422C152.252 120.701 152.308 119.87 151.975 119.093L151.809 118.65C151.476 117.874 150.7 117.264 149.868 117.153L135.674 114.769C134.676 114.602 133.623 115.046 133.068 115.933L125.805 127.133C125.417 127.743 125.306 128.519 125.472 129.24L125.694 130.127C125.971 131.069 126.747 131.79 127.69 131.956L142.383 134.84C143.492 135.061 144.601 134.562 145.155 133.564Z"
      fill="#EA5569" />
    <g opacity="0.3">
      <path
        d="M151.919 119.093L151.753 118.65C151.476 117.985 150.921 117.541 150.312 117.264C150.256 117.486 150.201 117.652 150.09 117.874L143.381 130.016C142.826 131.014 141.718 131.513 140.609 131.291L125.916 128.408C125.749 128.353 125.528 128.297 125.361 128.242C125.306 128.574 125.361 128.907 125.417 129.24L125.638 130.127C125.916 131.069 126.692 131.79 127.634 131.956L142.327 134.839C143.436 135.061 144.545 134.507 145.1 133.509L151.809 121.367C152.252 120.646 152.252 119.814 151.919 119.093Z"
        fill="#242B5B" />
    </g>
    <g opacity="0.6">
      <path
        d="M127.246 129.628L134.399 118.594C134.953 117.707 135.951 117.264 136.949 117.43L150.977 119.759C151.254 119.814 151.587 119.925 151.809 120.036C151.809 119.648 151.753 119.26 151.587 118.927L151.42 118.483C151.088 117.707 150.367 117.153 149.48 116.987L135.452 114.658C134.454 114.492 133.456 114.935 132.846 115.822L125.694 126.856C125.306 127.465 125.195 128.242 125.361 128.962L125.583 129.849C125.749 130.515 126.193 131.014 126.747 131.346C126.747 130.792 126.914 130.182 127.246 129.628Z"
        fill="#E3EDF9" />
    </g>
    <path
      d="M141.939 132.234C141.828 132.234 141.718 132.234 141.607 132.178L125.139 129.073C124.696 129.018 124.474 128.574 124.53 128.186C124.585 127.743 125.029 127.521 125.417 127.576L141.884 130.681C141.939 130.681 141.995 130.681 142.05 130.626L149.702 117.097C149.923 116.709 150.367 116.598 150.755 116.82C151.143 117.042 151.254 117.486 151.032 117.874L143.381 131.402C143.048 131.901 142.494 132.234 141.939 132.234Z"
      fill="#242B5B" />
    <path
      d="M143.935 135.449C143.658 135.449 143.381 135.283 143.215 135.006L141.828 132.067C141.662 131.679 141.828 131.236 142.217 131.069C142.605 130.903 143.048 131.069 143.215 131.457L144.601 134.396C144.767 134.784 144.601 135.228 144.213 135.394C144.157 135.394 144.046 135.449 143.935 135.449Z"
      fill="#242B5B" />
    <path
      d="M142.882 136.059C142.66 136.059 142.383 136.059 142.161 136.004L127.468 133.121C126.082 132.843 124.973 131.845 124.585 130.459L124.363 129.572C124.086 128.519 124.252 127.41 124.807 126.523L132.07 115.323C132.902 114.048 134.343 113.383 135.84 113.66L150.034 116.044C151.31 116.266 152.363 117.042 152.862 118.206L153.028 118.65C153.527 119.703 153.472 120.978 152.862 121.976L146.153 134.119C145.488 135.338 144.213 136.059 142.882 136.059ZM135.175 115.878C134.676 115.878 134.232 116.099 133.955 116.543L126.692 127.743C126.47 128.075 126.415 128.519 126.526 128.907L126.747 129.794C126.914 130.349 127.302 130.737 127.856 130.847L142.549 133.731C143.159 133.841 143.824 133.564 144.102 133.01L150.811 120.868C151.032 120.48 151.032 119.981 150.866 119.592L150.7 119.149C150.478 118.705 150.09 118.373 149.591 118.317L135.397 115.933C135.286 115.878 135.23 115.878 135.175 115.878Z"
      fill="#242B5B" />
    <path
      d="M131.017 157.128L137.615 144.93C138.003 144.209 138.058 143.378 137.67 142.602L137.504 142.158C137.116 141.382 136.395 140.772 135.563 140.661L121.314 138.388C120.26 138.222 119.262 138.665 118.708 139.552L111.555 150.807C111.167 151.417 111.056 152.193 111.278 152.914L111.555 153.801C111.833 154.744 112.609 155.465 113.551 155.631L128.3 158.403C129.353 158.625 130.462 158.126 131.017 157.128Z"
      fill="#EA5569" />
    <g opacity="0.3">
      <path
        d="M137.725 142.602L137.559 142.158C137.282 141.548 136.727 141.049 136.118 140.772C136.062 140.994 136.007 141.16 135.896 141.326L129.298 153.524C128.743 154.522 127.635 155.076 126.526 154.855L111.777 152.083C111.555 152.027 111.389 151.972 111.223 151.916C111.167 152.249 111.223 152.582 111.334 152.914L111.611 153.801C111.888 154.744 112.664 155.465 113.607 155.631L128.355 158.403C129.464 158.625 130.573 158.07 131.128 157.072L137.725 144.875C138.003 144.154 138.058 143.322 137.725 142.602Z"
        fill="#242B5B" />
    </g>
    <g opacity="0.6">
      <path
        d="M112.72 153.191L119.872 141.936C120.427 141.049 121.48 140.606 122.478 140.772L136.727 143.045C137.171 143.101 137.559 143.322 137.947 143.544C137.947 143.211 137.836 142.879 137.726 142.602L137.559 142.158C137.171 141.382 136.45 140.772 135.619 140.661L121.369 138.388C120.316 138.222 119.318 138.665 118.763 139.552L111.555 150.807C111.167 151.417 111.056 152.193 111.278 152.914L111.555 153.801C111.722 154.356 112.054 154.799 112.443 155.132C112.221 154.467 112.332 153.746 112.72 153.191Z"
        fill="#E3EDF9" />
    </g>
    <path
      d="M127.745 155.797C127.635 155.797 127.524 155.797 127.468 155.797L111.001 152.803C110.557 152.748 110.28 152.304 110.391 151.916C110.447 151.473 110.89 151.251 111.278 151.306L127.745 154.3C127.801 154.3 127.856 154.3 127.912 154.245L135.452 140.661C135.674 140.273 136.118 140.162 136.506 140.384C136.894 140.606 137.005 141.049 136.783 141.437L129.242 155.021C128.91 155.465 128.355 155.797 127.745 155.797Z"
      fill="#242B5B" />
    <path
      d="M129.797 159.013C129.52 159.013 129.242 158.847 129.132 158.569L127.745 155.631C127.579 155.243 127.745 154.799 128.134 154.633C128.522 154.467 128.965 154.633 129.132 155.021L130.518 157.96C130.684 158.348 130.518 158.791 130.13 158.958C130.019 158.958 129.908 159.013 129.797 159.013Z"
      fill="#242B5B" />
    <path
      d="M128.743 159.623C128.522 159.623 128.3 159.623 128.023 159.567L113.274 156.795C111.888 156.518 110.779 155.52 110.336 154.134L110.058 153.247C109.781 152.193 109.892 151.084 110.502 150.197L117.654 138.942C118.486 137.667 119.928 137.002 121.425 137.224L135.674 139.497C136.949 139.719 138.003 140.495 138.502 141.659L138.668 142.103C139.167 143.156 139.112 144.431 138.557 145.429L131.959 157.627C131.349 158.902 130.074 159.623 128.743 159.623ZM120.926 139.497C120.427 139.497 119.983 139.774 119.706 140.162L112.553 151.417C112.332 151.75 112.276 152.193 112.387 152.581L112.664 153.469C112.831 154.023 113.274 154.411 113.773 154.522L128.522 157.294C129.132 157.405 129.797 157.128 130.074 156.573L136.672 144.376C136.894 143.988 136.894 143.489 136.727 143.101L136.506 142.657C136.284 142.213 135.896 141.881 135.397 141.825L121.147 139.552C121.037 139.497 120.981 139.497 120.926 139.497Z"
      fill="#242B5B" />
    <path
      d="M133.179 74.2393C133.013 74.9046 133.179 75.4036 134.232 75.5145C136.007 75.7363 137.448 74.073 138.502 72.6314C137.67 73.1859 136.617 73.5185 135.397 73.3522C133.401 73.1304 133.013 71.7998 134.011 70.3028C135.12 68.6395 137.282 67.5306 139.389 67.8078C141.718 68.0851 142.05 69.6375 140.331 72.2433C138.668 74.6829 136.339 76.9006 133.456 76.568C131.294 76.2907 131.238 75.0155 131.627 74.0175L133.179 74.2393ZM135.674 70.4691C135.009 71.4671 135.286 72.1879 136.506 72.3542C137.67 72.5206 138.834 71.9661 139.444 71.079C139.943 70.3028 140.276 69.1385 138.724 68.9722C137.448 68.8058 136.284 69.5266 135.674 70.4691Z"
      fill="#242B5B" />
    <path
      d="M41.5838 133.287C39.9204 135.727 37.5363 137.667 34.9304 137.334C32.4908 137.057 32.6017 134.95 34.2096 132.511C35.873 130.071 38.368 128.242 40.863 128.519C43.2471 128.796 43.1363 130.903 41.5838 133.287ZM35.7621 132.677C34.764 134.23 34.0987 136.004 35.7066 136.17C37.37 136.392 38.867 134.839 40.0313 133.121C41.0293 131.624 41.6947 129.905 40.0868 129.683C38.5343 129.461 37.0373 130.792 35.7621 132.677Z"
      fill="#242B5B" />
    <path
      d="M48.958 112.662L53.0609 106.563C52.6728 106.674 52.1738 106.84 51.6748 106.896C51.2312 106.951 50.954 106.508 51.1758 106.12C51.2312 106.009 51.3976 105.953 51.5085 105.898C52.6174 105.731 53.6708 105.343 54.3916 104.955C54.5025 104.9 54.5579 104.9 54.6688 104.9H54.8352C55.2233 104.955 55.3896 105.343 55.1678 105.676L50.1223 113.216C50.0114 113.383 49.8451 113.438 49.6233 113.438L49.2907 113.383C48.958 113.383 48.7916 112.995 48.958 112.662Z"
      fill="#242B5B" />
    <path
      d="M83.5557 109.502C81.9478 109.224 80.2844 109.779 79.0647 110.777C78.6765 111.11 78.8429 111.719 79.3419 111.775C79.5082 111.83 79.73 111.719 79.8409 111.609C80.728 110.777 81.6706 110.389 82.6686 110.555C83.9438 110.777 83.8884 111.553 83.3894 112.163C82.7795 112.995 82.1141 113.216 79.8409 113.826C77.1795 114.547 75.4053 115.49 74.2964 116.709C74.0746 116.931 74.2409 117.264 74.5182 117.319L80.3399 118.317C80.5062 118.373 80.728 118.262 80.8389 118.151L80.8943 118.095C81.227 117.763 81.0607 117.208 80.5617 117.097L76.4033 116.377C77.1795 115.767 78.5102 115.212 80.2844 114.769C82.6686 114.159 83.8329 113.771 84.8309 112.385C85.8844 111.11 85.6072 109.834 83.5557 109.502Z"
      fill="#242B5B" />
    <path
      d="M106.953 116.044C106.565 115.989 106.399 115.49 106.732 115.268C107.674 114.492 109.116 113.771 110.946 113.993C113.163 114.27 113.385 115.49 112.609 116.654C111.833 117.763 110.724 118.151 110.114 118.206C110.668 118.428 111.389 119.149 110.447 120.535C109.393 122.087 107.397 123.03 105.124 122.753C102.961 122.476 102.629 121.367 103.072 120.147C103.128 119.981 103.35 119.814 103.516 119.87L104.181 119.925C104.403 119.981 104.569 120.147 104.569 120.424C104.514 121.034 104.902 121.478 105.9 121.644C107.009 121.755 108.173 121.422 108.894 120.313C109.504 119.426 109.227 118.761 107.841 118.65C107.508 118.594 107.342 118.262 107.508 117.985L107.73 117.652C107.841 117.541 108.007 117.43 108.173 117.486L108.451 117.541C109.837 117.707 110.502 117.319 111.001 116.598C111.445 115.933 111.334 115.268 110.169 115.157C109.06 115.046 108.284 115.434 107.674 115.989C107.563 116.099 107.453 116.099 107.342 116.099L106.953 116.044Z"
      fill="#242B5B" />
    <path
      d="M63.8173 89.5973L64.538 88.5993C64.7044 88.3775 64.538 88.0448 64.2608 87.9894L60.8232 87.5458C60.546 87.4904 60.3797 87.1577 60.546 86.936L60.9341 86.3261C60.9896 86.2706 60.9896 86.2152 61.045 86.2152L68.8073 81.7797C68.8628 81.7242 68.9736 81.7242 69.0291 81.7242L69.9162 81.8351C70.1934 81.8906 70.3598 82.2232 70.1934 82.445L67.3657 86.5479C67.1994 86.7696 67.3657 87.1023 67.643 87.1577C67.9756 87.2132 68.0865 87.5458 67.8647 87.8231L67.4766 88.2666C67.3657 88.3775 67.2548 88.4329 67.144 88.3775L66.4232 88.2666C66.2568 88.2666 66.1459 88.3221 66.0351 88.433L64.8707 90.0963C64.7598 90.2072 64.6489 90.2626 64.4826 90.2626L63.9281 90.2072C63.8173 90.2072 63.6509 89.8745 63.8173 89.5973ZM67.0331 84.9954C67.0885 84.8845 67.1994 84.7737 67.3103 84.6073C67.5321 84.2747 67.144 83.8311 66.8113 84.0529C65.9242 84.6073 64.7598 85.2727 63.5955 85.938C63.2628 86.1043 63.3737 86.6033 63.7618 86.6587L65.536 86.8805C65.7024 86.8805 65.8133 86.8251 65.9242 86.7142L67.0331 84.9954Z"
      fill="#242B5B" />
    <path
      d="M99.5793 87.6567L95.809 87.1023C95.6427 87.1023 95.4209 87.1577 95.31 87.2686C95.1437 87.435 94.9774 87.6567 94.811 87.8785C94.4784 88.2666 94.7556 88.8211 95.2546 88.8211C95.5318 88.8211 95.8645 88.8211 96.1972 88.8765C98.0268 89.1537 98.5259 90.3735 97.3615 92.0922C96.0863 93.9219 93.9239 94.9753 91.7061 94.6427C89.7655 94.3654 89.322 93.312 89.7101 92.1477C89.821 91.9259 90.0428 91.7596 90.32 91.815L90.7635 91.8705C91.0408 91.9259 91.2625 92.1477 91.2071 92.4804C91.2071 93.0348 91.5952 93.4229 92.4823 93.5338C93.7576 93.7001 95.0328 93.0902 95.809 91.9814C96.4189 91.1497 96.5298 90.1517 95.0883 89.9299C93.9239 89.7636 93.1477 90.0963 92.4823 90.5398C92.316 90.6507 92.1497 90.6507 91.9833 90.5953H91.9279C91.5398 90.4844 91.3734 89.9854 91.6507 89.6527C92.7041 88.4884 94.1457 86.8805 94.9219 85.938C95.0328 85.7716 95.2546 85.7162 95.4209 85.7716L99.8011 86.3815C100.245 86.437 100.466 86.9914 100.134 87.3241L100.023 87.435C99.9674 87.6013 99.7456 87.7122 99.5793 87.6567Z"
      fill="#242B5B" />
    <path
      d="M126.636 92.3695C126.304 92.3141 125.971 92.0923 125.916 91.7596C125.86 91.427 125.583 91.1498 124.862 91.0943C123.31 90.928 121.868 92.1477 120.704 93.7556C121.591 93.2012 122.7 92.7576 124.031 92.924C125.86 93.1457 126.359 94.4209 125.25 96.0843C123.92 98.0802 121.646 99.0228 119.65 98.801C117.377 98.5238 116.989 96.8605 118.874 94.0883C120.316 91.926 122.811 89.7082 125.694 90.0409C127.191 90.2072 127.635 90.928 127.579 91.6487C127.524 92.0923 127.136 92.425 126.636 92.3695ZM123.698 95.9734C124.363 94.9754 124.252 94.1437 122.922 93.9774C121.591 93.8111 120.316 94.5318 119.761 95.4189C119.373 96.0288 118.819 97.4704 120.427 97.6367C121.646 97.803 122.922 97.1377 123.698 95.9734Z"
      fill="#242B5B" />
    <path
      d="M85.1082 61.1546L84.9973 61.321C84.9418 61.3764 84.8864 61.4319 84.8309 61.4873C82.0032 63.2061 78.8429 65.701 76.5696 68.0851C76.4587 68.2515 76.2369 68.3069 76.0152 68.2515H75.9597C75.4607 68.196 75.2389 67.5307 75.5716 67.198C77.3458 65.4238 79.73 63.5942 81.7814 62.2081C82.2805 61.8754 82.1141 61.1546 81.5042 61.0438L79.231 60.7665C78.7874 60.7111 78.5102 60.1567 78.7874 59.7686C78.8983 59.5468 79.1755 59.4913 79.3973 59.4913L84.72 60.1012C85.1636 60.2675 85.3854 60.7665 85.1082 61.1546Z"
      fill="#242B5B" />
    <path
      d="M103.405 69.6376C104.126 68.5287 105.346 67.9188 106.51 67.697C106.011 67.3089 105.9 66.5882 106.454 65.7565C107.342 64.4258 109.227 63.5942 111.223 63.816C112.942 64.0377 113.773 65.0357 112.775 66.5327C112.165 67.4753 111.167 67.9743 110.28 68.1406C111.167 68.5841 111.223 69.4712 110.557 70.4692C109.393 72.2434 107.064 72.8533 105.179 72.6315C103.239 72.4098 102.296 71.2454 103.405 69.6376ZM109.116 70.3029C109.67 69.4712 109.615 68.695 108.062 68.5287C106.454 68.3624 105.512 68.9722 104.957 69.7485C104.292 70.8019 104.902 71.4118 106.011 71.5781C107.064 71.689 108.395 71.4118 109.116 70.3029ZM107.952 65.9228C107.508 66.5882 107.563 67.2535 108.839 67.4198C110.058 67.5861 110.835 67.1426 111.334 66.3664C111.833 65.5902 111.555 64.9803 110.502 64.8694C109.559 64.7585 108.506 65.0912 107.952 65.9228Z"
      fill="#242B5B" />
    <path
      d="M65.5915 140.273C65.4806 141.105 64.7598 141.659 63.9281 141.604C63.0965 141.493 62.542 140.772 62.5975 139.94C62.7084 139.109 63.4291 138.554 64.2608 138.61C65.1479 138.665 65.7024 139.441 65.5915 140.273Z"
      fill="#242B5B" />
    <path
      d="M100.078 140.772C99.7457 141.215 99.0803 141.493 98.5813 141.437L90.8744 140.162C90.3754 140.107 90.2645 139.663 90.5972 139.219C90.9299 138.776 91.5952 138.499 92.0942 138.554L99.8011 139.829C100.3 139.885 100.411 140.328 100.078 140.772ZM97.1397 144.819C96.8071 145.263 96.1417 145.54 95.6427 145.485L87.9359 144.209C87.4369 144.154 87.326 143.71 87.6586 143.267C87.9913 142.823 88.6566 142.546 89.1556 142.602L96.8625 143.877C97.3061 143.932 97.417 144.376 97.1397 144.819Z"
      fill="#242B5B" />
    <path
      d="M127.302 143.101L125.916 144.93C125.583 145.374 125.694 145.817 126.193 145.873L128.244 146.205C128.743 146.261 128.854 146.704 128.522 147.148C128.189 147.592 127.524 147.869 127.025 147.813L124.973 147.481C124.474 147.425 123.809 147.702 123.476 148.146L121.979 150.197C121.646 150.641 120.981 150.918 120.482 150.863H120.427C119.928 150.807 119.817 150.364 120.149 149.92L121.646 147.869C121.979 147.425 121.868 146.982 121.369 146.926L119.318 146.594C118.819 146.538 118.708 146.095 119.041 145.651C119.373 145.207 120.039 144.93 120.538 144.986L122.589 145.318C123.088 145.374 123.753 145.097 124.086 144.653L125.472 142.823C125.805 142.38 126.47 142.103 126.969 142.158H127.025C127.524 142.269 127.635 142.657 127.302 143.101Z"
      fill="#242B5B" />
    <path
      d="M154.248 99.0782C153.86 99.5772 153.139 99.9098 152.585 99.8544L149.036 99.2445C148.482 99.1336 148.316 98.6901 148.704 98.1356C149.092 97.6366 149.813 97.304 150.367 97.3594L153.915 97.9693C154.47 98.0802 154.636 98.5792 154.248 99.0782Z"
      fill="#242B5B" />
    <path
      d="M169.385 77.8432L161.068 76.6789C160.624 76.6235 160.513 76.2354 160.791 75.8473L160.957 75.6255C161.234 75.2374 161.789 74.9602 162.232 75.0156L170.549 76.1799C170.993 76.2354 171.103 76.6235 170.826 77.0116L170.66 77.2334C170.383 77.6215 169.773 77.8987 169.385 77.8432Z"
      fill="#242B5B" />
    <path
      d="M169.717 73.075C169.218 73.7958 168.109 74.3502 167.333 74.2393C166.557 74.1284 166.28 73.4077 166.834 72.6869C167.333 71.9661 168.442 71.4117 169.218 71.5226C170.05 71.6335 170.272 72.2988 169.717 73.075Z"
      fill="#242B5B" />
    <path
      d="M164.727 80.2272C164.228 80.948 163.119 81.5024 162.343 81.3916C161.567 81.2807 161.29 80.5599 161.844 79.8391C162.343 79.1184 163.452 78.5639 164.228 78.6748C165.004 78.7857 165.226 79.451 164.727 80.2272Z"
      fill="#242B5B" />
    <path
      d="M143.215 120.258C143.104 119.925 142.716 119.87 142.217 120.091L138.502 121.866L137.781 119.315C137.67 118.982 137.227 118.927 136.783 119.149C136.339 119.371 136.007 119.814 136.118 120.147L136.838 122.697L133.124 124.471C132.68 124.693 132.347 125.137 132.458 125.414C132.514 125.58 132.68 125.691 132.902 125.691C133.068 125.691 133.234 125.636 133.456 125.58L137.171 123.806L137.892 126.357C137.947 126.523 138.114 126.634 138.335 126.634C138.502 126.634 138.668 126.578 138.89 126.523C139.333 126.301 139.666 125.858 139.555 125.525L138.834 122.974L142.549 121.2C142.993 121.034 143.325 120.59 143.215 120.258Z"
      fill="#242B5B" />
    <path
      d="M67.2549 13.6393L70.6924 14.1937C71.3578 14.3046 71.9122 14.859 72.0231 15.5243L72.5776 18.9619L73.132 15.5243C73.2429 14.859 73.7974 14.3046 74.4627 14.1937L77.9003 13.6393L74.4627 13.0848C73.7974 12.9739 73.2429 12.4195 73.132 11.7542L72.5776 8.31665L72.0231 11.7542C71.9122 12.4195 71.3578 12.9739 70.6924 13.0848L67.2549 13.6393Z"
      fill="#242B5B" />
    <path
      d="M208.862 63.0951L213.463 63.8159C214.406 63.9822 215.127 64.703 215.238 65.5901L215.958 70.1919L216.679 65.5901C216.846 64.6475 217.566 63.9268 218.453 63.8159L223.055 63.0951L218.453 62.3743C217.511 62.208 216.79 61.4872 216.679 60.6001L215.958 55.9983L215.238 60.6001C215.071 61.5427 214.351 62.2634 213.463 62.3743L208.862 63.0951Z"
      fill="#242B5B" />
    <path
      d="M48.3481 73.1859C48.3481 73.9066 47.7382 74.5165 47.0174 74.5165C46.2966 74.5165 45.6867 73.9066 45.6867 73.1859C45.6867 72.4651 46.2966 71.8552 47.0174 71.8552C47.7936 71.9107 48.3481 72.4651 48.3481 73.1859Z"
      fill="#242B5B" />
    <path
      d="M61.045 173.207C61.045 173.927 60.4351 174.537 59.7143 174.537C58.9935 174.537 58.3836 173.927 58.3836 173.207C58.3836 172.486 58.9935 171.876 59.7143 171.876C60.4905 171.931 61.045 172.486 61.045 173.207Z"
      fill="#242B5B" />
    <path
      d="M179.753 156.795C179.753 158.237 178.589 159.401 177.147 159.401C175.705 159.401 174.541 158.237 174.541 156.795C174.541 155.354 175.705 154.189 177.147 154.189C178.589 154.134 179.753 155.298 179.753 156.795Z"
      fill="#242B5B" />
    <path
      d="M113.718 26.724L98.0269 24.5062L97.3061 26.724L107.785 28.221L107.064 30.4942L104.458 30.1061L103.738 32.3793L101.132 31.9911L100.411 34.2643L97.8051 33.8762L97.0843 36.1494L94.4784 35.7613L93.0368 40.2523L108.728 42.5255L109.393 40.2523L98.9694 38.7553L99.6902 36.4821L102.296 36.8702L103.017 34.6524L105.623 34.9851L106.344 32.7674L108.95 33.1L109.67 30.8823L112.276 31.2149L113.718 26.724Z"
      fill="#EA5569" />
    <path
      d="M129.353 28.9417L118.93 27.4447L118.209 29.7179L115.603 29.3298L111.334 42.8581L116.546 43.6343L118.708 36.8702L126.526 37.979L124.363 44.7432L126.969 45.1313L131.294 31.603L128.688 31.2149L127.246 35.7058L119.373 34.597L120.815 30.106L128.688 31.2149L129.353 28.9417Z"
      fill="#EA5569" />
    <path
      d="M145.987 45.4639L143.381 45.0758L142.66 47.349L145.266 47.7371L145.987 45.4639ZM144.102 42.8581L141.496 42.47L140.775 44.7432L143.381 45.1313L144.102 42.8581ZM142.217 40.1968L139.611 39.8087L138.89 42.0819L141.496 42.47L142.217 40.1968ZM150.256 31.9356L147.65 31.5475L146.929 33.8207L144.323 33.4326L143.603 35.7058L140.997 35.3177L140.276 37.5909L137.67 37.2028L139.832 30.4387L134.621 29.7179L129.631 45.5194L134.842 46.2402L137.005 39.476L139.611 39.8641L140.331 37.5909L142.937 37.979L143.658 35.7058L146.264 36.0939L146.929 33.8207L149.535 34.2088L150.256 31.9356Z"
      fill="#EA5569" />
    <path
      d="M165.947 34.2089L155.523 32.7119L154.803 34.9297L152.197 34.597L147.872 48.1253L153.084 48.8461L155.246 42.0819L163.064 43.1908L160.957 49.9549L163.563 50.3431L167.832 36.8148L165.226 36.4266L163.785 40.973L155.967 39.8087L157.409 35.3178L165.226 36.4266L165.947 34.2089Z"
      fill="#EA5569" />
    <path
      d="M186.85 37.1474L171.159 34.9297L170.438 37.2029L175.705 37.9237L171.381 51.452L176.592 52.2282L180.917 38.6999L186.129 39.4206L186.85 37.1474Z"
      fill="#EA5569" />
  </g>
</svg>