<svg width="406" height="88" viewBox="0 0 406 88" fill="none" xmlns="http://www.w3.org/2000/svg">
  <path
    d="M33.832 72.92C35.816 71 37.48 70.04 38.824 70.04C39.656 70.04 40.264 70.36 40.648 71C41.032 71.64 41.224 72.472 41.224 73.496C41.224 74.584 40.968 75.8 40.456 77.144C40.008 78.424 39.336 79.608 38.44 80.696C37.544 81.72 36.552 82.552 35.464 83.192C34.44 83.896 33.32 84.504 32.104 85.016C30.248 85.848 28.264 86.424 26.152 86.744C24.04 87.064 21.96 87.096 19.912 86.84C16.904 86.52 14.216 85.592 11.848 84.056C9.544 82.584 7.528 80.632 5.8 78.2C4.136 75.96 2.952 73.464 2.248 70.712C1.544 67.96 1.128 65.208 1 62.456C0.872 59.128 1.32 55.608 2.344 51.896C3.432 48.184 4.968 44.696 6.952 41.432C9 38.104 11.432 35.192 14.248 32.696C17.128 30.136 20.328 28.344 23.848 27.32C25.768 26.744 27.496 26.456 29.032 26.456C30.824 26.456 32.392 26.808 33.736 27.512C35.144 28.152 36.264 29.016 37.096 30.104C37.992 31.192 38.664 32.44 39.112 33.848C39.56 35.256 39.784 36.728 39.784 38.264C39.784 40.12 39.464 41.976 38.824 43.832C38.184 45.624 37.224 47.224 35.944 48.632C34.664 50.04 33.064 51.16 31.144 51.992C29.224 52.76 26.984 53.048 24.424 52.856C23.656 52.792 22.984 52.536 22.408 52.088C21.832 51.64 21.384 51.128 21.064 50.552C20.808 49.912 20.712 49.272 20.776 48.632C20.904 47.992 21.288 47.48 21.928 47.096C22.888 46.584 23.848 46.36 24.808 46.424C25.768 46.424 26.696 46.232 27.592 45.848C29.128 45.144 30.216 44.184 30.856 42.968C31.56 41.752 31.912 40.536 31.912 39.32C31.912 38.04 31.592 36.984 30.952 36.152C30.376 35.256 29.608 34.872 28.648 35C25.64 35.32 23.048 36.248 20.872 37.784C18.696 39.32 16.872 41.24 15.4 43.544C13.928 45.848 12.84 48.376 12.136 51.128C11.432 53.88 11.08 56.632 11.08 59.384C11.08 61.752 11.336 64.024 11.848 66.2C12.36 68.312 13.096 70.2 14.056 71.864C15.08 73.464 16.328 74.776 17.8 75.8C19.336 76.76 21.096 77.24 23.08 77.24C24.552 77.24 26.152 76.92 27.88 76.28C29.608 75.64 31.464 74.616 33.448 73.208L33.832 72.92ZM61.0255 47.288C62.6895 47.416 64.2255 47.896 65.6335 48.728C67.1055 49.56 68.4175 50.616 69.5695 51.896C70.7215 53.112 71.6495 54.52 72.3535 56.12C73.1215 57.72 73.6655 59.32 73.9855 60.92C74.2415 62.136 74.3695 63.448 74.3695 64.856C74.3695 67.544 73.8575 70.104 72.8335 72.536C71.8735 74.968 70.4015 77.112 68.4175 78.968C65.5375 81.592 62.4015 83.032 59.0095 83.288C57.2815 83.48 55.6175 83.256 54.0175 82.616C52.4175 81.976 50.9775 81.08 49.6975 79.928C47.4575 77.88 45.8575 75.256 44.8975 72.056C44.0015 68.792 43.7455 65.656 44.1295 62.648C44.3855 60.152 44.9615 57.912 45.8575 55.928C46.8175 53.944 48.0335 52.28 49.5055 50.936C50.9775 49.528 52.6735 48.504 54.5935 47.864C56.5775 47.224 58.7215 47.032 61.0255 47.288ZM58.5295 56.696C57.7615 56.696 56.9935 56.92 56.2255 57.368C55.5215 57.752 54.9135 58.36 54.4015 59.192C53.8895 60.024 53.5055 61.048 53.2495 62.264C53.0575 63.48 53.0895 64.856 53.3455 66.392C53.6655 68.184 54.0815 69.528 54.5935 70.424C55.1055 71.32 55.7135 71.928 56.4175 72.248C57.5695 72.76 58.7215 72.44 59.8735 71.288C61.0895 70.136 62.0495 68.632 62.7535 66.776C63.0735 65.88 63.2335 64.824 63.2335 63.608C63.2335 61.752 62.7535 60.152 61.7935 58.808C60.8975 57.464 59.8095 56.76 58.5295 56.696ZM120.12 60.92C120.184 62.456 120.216 63.928 120.216 65.336C120.28 66.68 120.344 68.024 120.408 69.368C120.536 70.648 120.696 71.992 120.888 73.4C121.144 74.744 121.528 76.184 122.04 77.72C122.488 79.192 122.36 80.632 121.656 82.04C121.016 83.384 120.088 84.376 118.872 85.016C117.592 85.592 116.312 85.624 115.032 85.112C113.752 84.664 112.76 83.768 112.056 82.424C111.16 80.632 110.52 78.744 110.136 76.76C109.752 74.712 109.56 72.664 109.56 70.616C109.56 69.912 109.56 69.24 109.56 68.6C109.624 67.96 109.688 67.32 109.752 66.68C110.008 63.224 110.168 60.824 110.232 59.48C110.36 58.072 110.104 57.304 109.464 57.176C108.568 56.984 107.8 57.528 107.16 58.808C106.584 60.088 106.04 61.688 105.528 63.608C105.016 65.464 104.504 67.448 103.992 69.56C103.544 71.608 103.032 73.336 102.456 74.744C102.008 75.896 101.24 76.696 100.152 77.144C99.0635 77.528 98.0075 77.592 96.9835 77.336C95.8955 77.016 95.0315 76.344 94.3915 75.32C93.7515 74.296 93.4315 73.208 93.4315 72.056C93.4955 69.816 93.6555 67.672 93.9115 65.624C94.2315 63.576 94.3915 61.848 94.3915 60.44C94.3915 59.864 94.3595 59.352 94.2955 58.904C94.2315 58.456 94.0715 58.072 93.8155 57.752C92.7275 56.344 91.8315 56.184 91.1275 57.272C90.4235 58.36 89.8155 60.12 89.3035 62.552C88.8555 64.984 88.5035 67.768 88.2475 70.904C87.9915 74.04 87.7995 76.952 87.6715 79.64C87.5435 80.92 86.9355 81.88 85.8475 82.52C84.7595 83.096 83.6715 83.32 82.5835 83.192C81.6235 83.128 80.8235 82.712 80.1835 81.944C79.5435 81.176 79.0315 80.152 78.6475 78.872C78.2635 77.592 77.9755 76.152 77.7835 74.552C77.6555 72.888 77.5915 71.16 77.5915 69.368C77.5915 67.448 77.6555 65.496 77.7835 63.512C77.9755 61.464 78.1675 59.544 78.3595 57.752C78.6155 55.96 78.8715 54.36 79.1275 52.952C79.4475 51.48 79.7355 50.328 79.9915 49.496C80.2475 48.664 80.6315 48.056 81.1435 47.672C81.6555 47.288 82.2315 47.096 82.8715 47.096C83.8955 47.096 84.8555 47.576 85.7515 48.536C86.6475 49.496 87.0955 51 87.0955 53.048C87.0955 53.496 87.0635 53.944 86.9995 54.392C86.9355 54.84 86.8395 55.32 86.7115 55.832C86.9675 55.064 87.3835 54.264 87.9595 53.432C88.5995 52.536 89.3355 51.736 90.1675 51.032C90.9995 50.264 91.8955 49.656 92.8555 49.208C93.8795 48.76 94.9035 48.536 95.9275 48.536C97.3355 48.536 98.6795 49.112 99.9595 50.264C101.24 51.416 102.232 53.464 102.936 56.408C103.768 54.04 105.08 51.992 106.872 50.264C108.664 48.536 110.904 47.832 113.592 48.152C115.064 48.408 116.248 49.112 117.144 50.264C118.104 51.416 118.808 52.728 119.256 54.2C119.576 55.288 119.768 56.408 119.832 57.56C119.96 58.648 120.056 59.768 120.12 60.92ZM168.682 60.92C168.746 62.456 168.778 63.928 168.778 65.336C168.842 66.68 168.906 68.024 168.97 69.368C169.098 70.648 169.258 71.992 169.45 73.4C169.706 74.744 170.09 76.184 170.602 77.72C171.05 79.192 170.922 80.632 170.218 82.04C169.578 83.384 168.65 84.376 167.434 85.016C166.154 85.592 164.874 85.624 163.594 85.112C162.314 84.664 161.322 83.768 160.618 82.424C159.722 80.632 159.082 78.744 158.698 76.76C158.314 74.712 158.122 72.664 158.122 70.616C158.122 69.912 158.122 69.24 158.122 68.6C158.186 67.96 158.25 67.32 158.314 66.68C158.57 63.224 158.73 60.824 158.794 59.48C158.922 58.072 158.666 57.304 158.026 57.176C157.13 56.984 156.362 57.528 155.722 58.808C155.146 60.088 154.602 61.688 154.09 63.608C153.578 65.464 153.066 67.448 152.554 69.56C152.106 71.608 151.594 73.336 151.018 74.744C150.57 75.896 149.802 76.696 148.714 77.144C147.626 77.528 146.57 77.592 145.546 77.336C144.458 77.016 143.594 76.344 142.954 75.32C142.314 74.296 141.994 73.208 141.994 72.056C142.058 69.816 142.218 67.672 142.474 65.624C142.794 63.576 142.954 61.848 142.954 60.44C142.954 59.864 142.922 59.352 142.858 58.904C142.794 58.456 142.634 58.072 142.378 57.752C141.29 56.344 140.394 56.184 139.69 57.272C138.986 58.36 138.378 60.12 137.866 62.552C137.418 64.984 137.066 67.768 136.81 70.904C136.554 74.04 136.362 76.952 136.234 79.64C136.106 80.92 135.498 81.88 134.41 82.52C133.322 83.096 132.234 83.32 131.146 83.192C130.186 83.128 129.386 82.712 128.746 81.944C128.106 81.176 127.594 80.152 127.21 78.872C126.826 77.592 126.538 76.152 126.346 74.552C126.218 72.888 126.154 71.16 126.154 69.368C126.154 67.448 126.218 65.496 126.346 63.512C126.538 61.464 126.73 59.544 126.922 57.752C127.178 55.96 127.434 54.36 127.69 52.952C128.01 51.48 128.298 50.328 128.554 49.496C128.81 48.664 129.194 48.056 129.706 47.672C130.218 47.288 130.794 47.096 131.434 47.096C132.458 47.096 133.418 47.576 134.314 48.536C135.21 49.496 135.658 51 135.658 53.048C135.658 53.496 135.626 53.944 135.562 54.392C135.498 54.84 135.402 55.32 135.274 55.832C135.53 55.064 135.946 54.264 136.522 53.432C137.162 52.536 137.898 51.736 138.73 51.032C139.562 50.264 140.458 49.656 141.418 49.208C142.442 48.76 143.466 48.536 144.49 48.536C145.898 48.536 147.242 49.112 148.522 50.264C149.802 51.416 150.794 53.464 151.498 56.408C152.33 54.04 153.642 51.992 155.434 50.264C157.226 48.536 159.466 47.832 162.154 48.152C163.626 48.408 164.81 49.112 165.706 50.264C166.666 51.416 167.37 52.728 167.818 54.2C168.138 55.288 168.33 56.408 168.394 57.56C168.522 58.648 168.618 59.768 168.682 60.92ZM202.365 59.48C202.429 61.976 202.493 64.632 202.557 67.448C202.621 70.264 202.909 73.016 203.421 75.704C203.549 76.472 203.741 77.176 203.997 77.816C204.253 78.456 204.477 79.096 204.669 79.736C204.861 80.376 204.989 81.016 205.053 81.656C205.117 82.296 205.021 83 204.765 83.768C204.573 84.344 204.221 84.856 203.709 85.304C203.261 85.752 202.717 86.072 202.077 86.264C201.437 86.456 200.765 86.52 200.061 86.456C199.357 86.456 198.749 86.264 198.237 85.88C197.405 85.304 196.765 84.44 196.317 83.288C195.869 82.136 195.549 80.856 195.357 79.448C195.165 78.04 195.037 76.6 194.973 75.128C194.973 73.592 194.973 72.184 194.973 70.904C194.077 74.936 192.733 77.848 190.941 79.64C189.149 81.368 187.325 82.232 185.469 82.232C183.229 82.232 181.181 81.112 179.325 78.872C177.725 76.888 176.669 74.68 176.157 72.248C175.645 69.752 175.389 67.256 175.389 64.76C175.517 62.328 175.837 59.928 176.349 57.56C176.925 55.192 177.469 52.824 177.98 50.456C178.173 49.56 178.685 48.92 179.517 48.536C180.349 48.088 181.149 47.992 181.917 48.248C182.877 48.44 183.517 48.92 183.837 49.688C184.221 50.456 184.349 51.288 184.221 52.184C184.029 53.592 183.901 54.904 183.837 56.12C183.773 57.336 183.741 58.488 183.741 59.576C183.741 63.224 184.125 65.912 184.893 67.64C185.661 69.304 186.589 70.136 187.677 70.136C189.085 70.136 190.429 68.76 191.709 66.008C192.989 63.256 193.629 59.32 193.629 54.2C193.629 53.688 193.629 53.176 193.629 52.664C193.629 52.088 193.597 51.512 193.533 50.936C193.469 49.72 193.853 48.728 194.685 47.96C195.581 47.192 196.637 46.776 197.853 46.712C199.005 46.648 199.965 47.064 200.733 47.96C201.565 48.856 202.013 49.848 202.077 50.936C202.077 52.408 202.109 53.848 202.173 55.256C202.237 56.664 202.301 58.072 202.365 59.48ZM237.47 77.816C237.854 78.904 238.046 79.896 238.046 80.792C238.046 82.776 237.438 84.44 236.222 85.784C235.006 87.128 233.726 87.8 232.382 87.8C231.422 87.8 230.558 87.384 229.79 86.552C229.022 85.656 228.542 84.888 228.35 84.248C228.222 83.608 228.062 82.712 227.87 81.56C227.486 78.936 227.262 76.184 227.198 73.304C227.198 70.36 227.166 67.576 227.102 64.952C226.974 62.712 226.782 61.24 226.526 60.536C226.27 59.832 225.886 59.64 225.374 59.96C224.478 60.6 223.71 61.848 223.07 63.704C222.494 65.496 221.982 67.512 221.534 69.752C221.15 71.928 220.83 74.104 220.574 76.28C220.318 78.392 220.062 80.056 219.806 81.272C219.614 81.912 219.262 82.488 218.75 83C218.302 83.448 217.79 83.8 217.214 84.056C216.51 84.376 215.87 84.504 215.294 84.44C214.718 84.376 214.078 84.184 213.374 83.864C212.606 83.48 211.966 82.968 211.454 82.328C210.942 81.624 210.494 80.856 210.11 80.024C209.79 79.192 209.534 78.328 209.342 77.432C209.15 76.536 208.99 75.704 208.862 74.936C208.542 73.464 208.286 71.96 208.094 70.424C207.966 68.888 207.902 67.384 207.902 65.912C207.838 62.84 207.934 59.928 208.19 57.176C208.51 54.36 209.086 51.48 209.918 48.536C210.11 47.96 210.526 47.512 211.166 47.192C211.87 46.808 212.606 46.616 213.374 46.616C214.078 46.616 214.718 46.776 215.294 47.096C215.87 47.416 216.222 47.96 216.35 48.728C216.67 50.392 216.798 52.216 216.734 54.2C216.734 56.184 216.798 58.04 216.926 59.768C217.438 57.464 218.046 55.608 218.75 54.2C219.454 52.728 220.222 51.608 221.054 50.84C221.95 50.008 222.942 49.464 224.03 49.208C225.182 48.888 226.43 48.696 227.774 48.632C229.63 48.632 231.134 49.144 232.286 50.168C233.502 51.192 234.43 52.472 235.07 54.008C235.774 55.48 236.286 57.112 236.606 58.904C236.926 60.632 237.182 62.232 237.374 63.704C237.502 64.408 237.566 65.08 237.566 65.72C237.566 66.36 237.566 67 237.566 67.64C237.566 68.92 237.534 70.136 237.47 71.288C237.406 72.376 237.374 73.56 237.374 74.84C237.374 75.352 237.374 75.864 237.374 76.376C237.374 76.824 237.406 77.304 237.47 77.816ZM248.352 84.344C246.56 83.832 245.248 82.296 244.416 79.736C243.648 77.112 243.264 74.072 243.264 70.616C243.264 68.056 243.456 65.464 243.84 62.84C244.288 60.216 244.864 57.848 245.568 55.736C246.336 53.624 247.232 51.928 248.256 50.648C249.28 49.368 250.432 48.824 251.712 49.016C252.8 49.144 253.536 49.592 253.92 50.36C254.304 51.128 254.496 52.024 254.496 53.048C254.496 54.136 254.4 55.192 254.208 56.216C254.016 57.24 253.856 58.104 253.728 58.808C253.664 59.256 253.6 59.8 253.536 60.44C253.536 61.08 253.536 61.816 253.536 62.648C253.536 64.504 253.568 66.648 253.632 69.08C253.696 71.448 253.728 73.688 253.728 75.8C253.728 77.528 253.696 79.032 253.632 80.312C253.568 81.592 253.408 82.392 253.152 82.712C252.576 83.48 251.84 84.024 250.944 84.344C250.048 84.664 249.184 84.664 248.352 84.344ZM256.896 35.96C257.216 37.624 257.248 39.064 256.992 40.28C256.8 41.432 256.416 42.424 255.84 43.256C255.264 44.024 254.592 44.6 253.824 44.984C253.056 45.368 252.288 45.56 251.52 45.56C250.432 45.56 249.44 45.208 248.544 44.504C247.712 43.736 247.296 42.648 247.296 41.24C247.296 40.024 247.776 38.488 248.736 36.632C249.248 35.736 249.856 35.064 250.56 34.616C251.328 34.104 252.16 33.848 253.056 33.848C253.76 33.848 254.432 34.04 255.072 34.424C255.776 34.744 256.384 35.256 256.896 35.96ZM278.714 77.624C279.354 78.392 279.578 79.288 279.386 80.312C279.258 81.4 278.746 82.328 277.85 83.096C276.954 83.928 275.898 84.408 274.682 84.536C273.722 84.664 272.73 84.536 271.706 84.152C270.746 83.832 269.914 83.384 269.21 82.808C267.93 81.848 266.97 80.728 266.33 79.448C265.754 78.168 265.21 76.824 264.698 75.416C263.098 69.912 262.362 64.312 262.49 58.616C261.914 58.616 261.37 58.616 260.858 58.616C260.346 58.616 259.834 58.552 259.322 58.424C258.874 58.296 258.49 58.072 258.17 57.752C257.85 57.368 257.594 56.792 257.402 56.024C257.21 55.256 257.242 54.552 257.498 53.912C257.69 53.272 258.202 52.856 259.034 52.664C259.61 52.536 260.058 52.44 260.378 52.376C260.698 52.248 260.986 52.152 261.242 52.088C261.498 51.96 261.754 51.864 262.01 51.8C262.33 51.736 262.746 51.64 263.258 51.512C263.258 51.256 263.354 51.064 263.546 50.936C263.93 48.76 264.346 46.712 264.794 44.792C265.242 42.872 265.754 40.984 266.33 39.128C266.906 37.272 267.514 35.416 268.154 33.56C268.794 31.704 269.498 29.752 270.266 27.704C270.65 26.616 271.386 25.912 272.474 25.592C273.626 25.208 274.682 25.176 275.642 25.496C276.73 25.88 277.466 26.584 277.85 27.608C278.298 28.632 278.362 29.592 278.042 30.488C277.466 32.344 276.954 34.072 276.506 35.672C276.122 37.208 275.738 38.744 275.354 40.28C275.034 41.816 274.714 43.384 274.394 44.984C274.074 46.584 273.786 48.312 273.53 50.168C274.042 50.168 274.522 50.168 274.97 50.168C275.482 50.104 275.994 50.072 276.506 50.072C277.402 50.072 278.202 50.168 278.906 50.36C279.674 50.488 280.314 50.808 280.826 51.32C281.21 51.704 281.466 52.152 281.594 52.664C281.722 53.112 281.754 53.592 281.69 54.104C281.69 54.552 281.626 54.968 281.498 55.352C281.37 55.672 281.21 55.864 281.018 55.928C279.994 56.888 278.746 57.496 277.274 57.752C275.802 58.008 274.33 58.168 272.858 58.232C272.858 58.552 272.858 58.872 272.858 59.192C272.858 59.448 272.826 59.736 272.762 60.056C272.762 60.248 272.762 60.472 272.762 60.728C272.826 60.92 272.826 61.144 272.762 61.4C272.762 61.464 272.762 61.592 272.762 61.784C272.762 61.976 272.794 62.136 272.858 62.264C272.922 63.544 273.018 64.92 273.146 66.392C273.338 67.864 273.626 69.304 274.01 70.712C274.458 72.056 275.034 73.336 275.738 74.552C276.506 75.768 277.498 76.792 278.714 77.624ZM287.914 84.344C286.122 83.832 284.81 82.296 283.978 79.736C283.21 77.112 282.826 74.072 282.826 70.616C282.826 68.056 283.018 65.464 283.402 62.84C283.85 60.216 284.426 57.848 285.13 55.736C285.898 53.624 286.794 51.928 287.818 50.648C288.842 49.368 289.994 48.824 291.274 49.016C292.362 49.144 293.098 49.592 293.482 50.36C293.866 51.128 294.058 52.024 294.058 53.048C294.058 54.136 293.962 55.192 293.77 56.216C293.578 57.24 293.418 58.104 293.29 58.808C293.226 59.256 293.162 59.8 293.098 60.44C293.098 61.08 293.098 61.816 293.098 62.648C293.098 64.504 293.13 66.648 293.194 69.08C293.258 71.448 293.29 73.688 293.29 75.8C293.29 77.528 293.258 79.032 293.194 80.312C293.13 81.592 292.97 82.392 292.714 82.712C292.138 83.48 291.402 84.024 290.506 84.344C289.61 84.664 288.746 84.664 287.914 84.344ZM296.458 35.96C296.778 37.624 296.81 39.064 296.554 40.28C296.362 41.432 295.978 42.424 295.402 43.256C294.826 44.024 294.154 44.6 293.386 44.984C292.618 45.368 291.85 45.56 291.082 45.56C289.994 45.56 289.002 45.208 288.106 44.504C287.274 43.736 286.858 42.648 286.858 41.24C286.858 40.024 287.338 38.488 288.298 36.632C288.81 35.736 289.418 35.064 290.122 34.616C290.89 34.104 291.722 33.848 292.618 33.848C293.322 33.848 293.994 34.04 294.634 34.424C295.338 34.744 295.946 35.256 296.458 35.96ZM339.588 60.92C339.652 62.456 339.684 63.928 339.684 65.336C339.748 66.68 339.812 68.024 339.876 69.368C340.004 70.648 340.164 71.992 340.356 73.4C340.612 74.744 340.996 76.184 341.508 77.72C341.956 79.192 341.828 80.632 341.124 82.04C340.484 83.384 339.556 84.376 338.34 85.016C337.06 85.592 335.78 85.624 334.5 85.112C333.22 84.664 332.228 83.768 331.524 82.424C330.628 80.632 329.988 78.744 329.604 76.76C329.22 74.712 329.028 72.664 329.028 70.616C329.028 69.912 329.028 69.24 329.028 68.6C329.092 67.96 329.156 67.32 329.22 66.68C329.476 63.224 329.636 60.824 329.7 59.48C329.828 58.072 329.572 57.304 328.932 57.176C328.036 56.984 327.268 57.528 326.628 58.808C326.052 60.088 325.508 61.688 324.996 63.608C324.484 65.464 323.972 67.448 323.46 69.56C323.012 71.608 322.5 73.336 321.924 74.744C321.476 75.896 320.708 76.696 319.62 77.144C318.532 77.528 317.476 77.592 316.452 77.336C315.364 77.016 314.5 76.344 313.86 75.32C313.22 74.296 312.9 73.208 312.9 72.056C312.964 69.816 313.124 67.672 313.38 65.624C313.7 63.576 313.86 61.848 313.86 60.44C313.86 59.864 313.828 59.352 313.764 58.904C313.7 58.456 313.54 58.072 313.284 57.752C312.196 56.344 311.3 56.184 310.596 57.272C309.892 58.36 309.284 60.12 308.772 62.552C308.324 64.984 307.972 67.768 307.716 70.904C307.46 74.04 307.268 76.952 307.14 79.64C307.012 80.92 306.404 81.88 305.316 82.52C304.228 83.096 303.14 83.32 302.052 83.192C301.092 83.128 300.292 82.712 299.652 81.944C299.012 81.176 298.5 80.152 298.116 78.872C297.732 77.592 297.444 76.152 297.252 74.552C297.124 72.888 297.06 71.16 297.06 69.368C297.06 67.448 297.124 65.496 297.252 63.512C297.444 61.464 297.636 59.544 297.828 57.752C298.084 55.96 298.34 54.36 298.596 52.952C298.916 51.48 299.204 50.328 299.46 49.496C299.716 48.664 300.1 48.056 300.612 47.672C301.124 47.288 301.7 47.096 302.34 47.096C303.364 47.096 304.324 47.576 305.22 48.536C306.116 49.496 306.564 51 306.564 53.048C306.564 53.496 306.532 53.944 306.468 54.392C306.404 54.84 306.308 55.32 306.18 55.832C306.436 55.064 306.852 54.264 307.428 53.432C308.068 52.536 308.804 51.736 309.636 51.032C310.468 50.264 311.364 49.656 312.324 49.208C313.348 48.76 314.372 48.536 315.396 48.536C316.804 48.536 318.148 49.112 319.428 50.264C320.708 51.416 321.7 53.464 322.404 56.408C323.236 54.04 324.548 51.992 326.34 50.264C328.132 48.536 330.372 47.832 333.06 48.152C334.532 48.408 335.716 49.112 336.612 50.264C337.572 51.416 338.276 52.728 338.724 54.2C339.044 55.288 339.236 56.408 339.3 57.56C339.428 58.648 339.524 59.768 339.588 60.92ZM372.887 68.216C373.783 68.088 374.647 68.152 375.479 68.408C376.311 68.6 376.759 69.176 376.823 70.136C376.823 71.48 376.503 72.792 375.863 74.072C375.223 75.288 374.423 76.44 373.463 77.528C372.503 78.552 371.447 79.48 370.295 80.312C369.143 81.08 368.023 81.656 366.935 82.04C364.823 82.872 362.775 83.288 360.791 83.288C358.615 83.288 356.631 82.84 354.839 81.944C353.047 80.984 351.479 79.736 350.135 78.2C348.855 76.664 347.863 74.904 347.159 72.92C346.455 70.936 346.103 68.856 346.103 66.68C346.103 64.312 346.583 61.912 347.543 59.48C348.311 57.624 349.367 55.96 350.711 54.488C352.119 52.952 353.655 51.64 355.319 50.552C356.407 49.848 357.591 49.304 358.871 48.92C360.215 48.472 361.559 48.248 362.903 48.248C363.799 48.248 364.663 48.344 365.495 48.536C366.391 48.728 367.223 49.08 367.991 49.592C369.399 50.488 370.391 51.48 370.967 52.568C371.607 53.592 371.927 54.68 371.927 55.832C371.927 56.92 371.671 58.04 371.159 59.192C370.711 60.28 370.135 61.336 369.431 62.36C368.727 63.384 367.895 64.376 366.935 65.336C366.039 66.232 365.175 67 364.343 67.64C363.255 68.472 362.167 69.24 361.079 69.944C360.055 70.584 358.903 71.16 357.623 71.672C358.711 72.76 359.735 73.528 360.695 73.976C361.655 74.36 362.583 74.552 363.479 74.552C364.695 74.552 365.783 74.264 366.743 73.688C367.767 73.048 368.663 72.344 369.431 71.576C370.199 70.808 370.871 70.104 371.447 69.464C372.023 68.76 372.503 68.344 372.887 68.216ZM364.727 57.08C363.639 57.016 362.551 57.272 361.463 57.848C360.439 58.36 359.511 59.064 358.679 59.96C357.847 60.856 357.143 61.912 356.567 63.128C356.055 64.28 355.799 65.464 355.799 66.68V66.776C355.799 66.776 355.831 66.744 355.895 66.68C356.663 66.104 357.495 65.464 358.391 64.76C359.351 64.056 360.247 63.32 361.079 62.552C361.911 61.72 362.647 60.856 363.287 59.96C363.991 59.064 364.471 58.104 364.727 57.08ZM400.216 52.856C399.256 53.24 398.584 53.72 398.2 54.296C397.816 54.872 397.624 55.512 397.624 56.216C397.624 57.304 397.976 58.488 398.68 59.768C399.384 61.048 400.152 62.36 400.984 63.704C401.88 65.048 402.68 66.424 403.384 67.832C404.152 69.24 404.6 70.552 404.728 71.768C404.92 73.944 404.568 75.928 403.672 77.72C402.84 79.512 401.688 81.08 400.216 82.424C398.808 83.704 397.176 84.696 395.32 85.4C393.528 86.104 391.704 86.456 389.848 86.456C387.928 86.456 386.104 86.04 384.376 85.208C382.712 84.376 381.368 83.064 380.344 81.272C379.64 79.992 379.192 78.648 379 77.24C378.872 75.768 378.936 74.296 379.192 72.824C379.512 71.352 380.216 70.04 381.304 68.888C382.456 67.672 383.576 67.064 384.664 67.064C385.368 67.064 385.976 67.384 386.488 68.024C387.064 68.664 387.416 69.816 387.544 71.48C387.864 72.952 388.472 74.232 389.368 75.32C390.264 76.344 391.224 76.856 392.248 76.856C392.952 76.856 393.592 76.6 394.168 76.088C394.808 75.512 395.32 74.584 395.704 73.304V73.208C395.704 71.736 395.256 70.264 394.36 68.792C393.464 67.32 392.472 65.816 391.384 64.28C390.296 62.744 389.304 61.208 388.408 59.672C387.512 58.072 387.064 56.408 387.064 54.68C387.064 53.464 387.352 52.216 387.928 50.936C388.568 49.656 389.624 48.344 391.096 47C392.376 45.912 393.848 45.112 395.512 44.6C397.176 44.088 398.808 44.12 400.408 44.696C402.072 45.336 403.256 46.296 403.96 47.576C404.664 48.792 404.824 50.328 404.44 52.184C404.312 52.76 404.056 53.176 403.672 53.432C403.352 53.688 402.968 53.848 402.52 53.912C402.136 53.976 401.72 53.912 401.272 53.72C400.824 53.528 400.472 53.24 400.216 52.856Z"
    fill="#1D55A0" />
  <path
    d="M96.576 7.696H98.656V9.44H96.368L96.048 12H94.24L94.56 9.44H92.208L91.888 12H90.096L90.416 9.44H88.32V7.696H90.624L90.96 5.104H88.864V3.36H91.168L91.488 0.799999H93.28L92.96 3.36H95.312L95.632 0.799999H97.424L97.104 3.36H99.184L99.2 5.104H96.896L96.576 7.696ZM94.768 7.696L95.104 5.104H92.752L92.416 7.696H94.768ZM109.068 6.176C109.708 6.37867 110.209 6.72 110.572 7.2C110.934 7.66933 111.116 8.25067 111.116 8.944C111.116 9.92533 110.732 10.6827 109.964 11.216C109.206 11.7387 108.097 12 106.636 12H100.844V0.799999H106.316C107.681 0.799999 108.726 1.06133 109.452 1.584C110.188 2.10667 110.556 2.816 110.556 3.712C110.556 4.256 110.422 4.74133 110.156 5.168C109.9 5.59467 109.537 5.93067 109.068 6.176ZM103.42 2.752V5.392H105.996C106.636 5.392 107.121 5.28 107.452 5.056C107.782 4.832 107.948 4.50133 107.948 4.064C107.948 3.62667 107.782 3.30133 107.452 3.088C107.121 2.864 106.636 2.752 105.996 2.752H103.42ZM106.444 10.048C107.126 10.048 107.638 9.936 107.98 9.712C108.332 9.488 108.508 9.14133 108.508 8.672C108.508 7.744 107.82 7.28 106.444 7.28H103.42V10.048H106.444ZM121.334 7.728C121.334 7.76 121.318 7.984 121.286 8.4H114.774C114.891 8.93333 115.169 9.35467 115.606 9.664C116.043 9.97333 116.587 10.128 117.238 10.128C117.686 10.128 118.081 10.064 118.422 9.936C118.774 9.79733 119.099 9.584 119.398 9.296L120.726 10.736C119.915 11.664 118.731 12.128 117.174 12.128C116.203 12.128 115.345 11.9413 114.598 11.568C113.851 11.184 113.275 10.656 112.87 9.984C112.465 9.312 112.262 8.54933 112.262 7.696C112.262 6.85333 112.459 6.096 112.854 5.424C113.259 4.74133 113.809 4.21333 114.502 3.84C115.206 3.456 115.99 3.264 116.854 3.264C117.697 3.264 118.459 3.44533 119.142 3.808C119.825 4.17067 120.358 4.69333 120.742 5.376C121.137 6.048 121.334 6.832 121.334 7.728ZM116.87 5.152C116.305 5.152 115.83 5.312 115.446 5.632C115.062 5.952 114.827 6.38933 114.742 6.944H118.982C118.897 6.4 118.662 5.968 118.278 5.648C117.894 5.31733 117.425 5.152 116.87 5.152ZM125.38 4.528C125.678 4.112 126.078 3.79733 126.58 3.584C127.092 3.37067 127.678 3.264 128.34 3.264V5.568C128.062 5.54667 127.876 5.536 127.78 5.536C127.065 5.536 126.505 5.73867 126.1 6.144C125.694 6.53867 125.492 7.136 125.492 7.936V12H122.996V3.392H125.38V4.528ZM132.751 12.128C132.036 12.128 131.338 12.0427 130.655 11.872C129.972 11.6907 129.428 11.4667 129.023 11.2L129.855 9.408C130.239 9.65333 130.703 9.856 131.247 10.016C131.791 10.1653 132.324 10.24 132.847 10.24C133.903 10.24 134.431 9.97867 134.431 9.456C134.431 9.21067 134.287 9.03467 133.999 8.928C133.711 8.82133 133.268 8.73067 132.671 8.656C131.967 8.54933 131.386 8.42667 130.927 8.288C130.468 8.14933 130.068 7.904 129.727 7.552C129.396 7.2 129.231 6.69867 129.231 6.048C129.231 5.504 129.386 5.024 129.695 4.608C130.015 4.18133 130.474 3.85067 131.071 3.616C131.679 3.38133 132.394 3.264 133.215 3.264C133.823 3.264 134.426 3.33333 135.023 3.472C135.631 3.6 136.132 3.78133 136.527 4.016L135.695 5.792C134.938 5.36533 134.111 5.152 133.215 5.152C132.682 5.152 132.282 5.22667 132.015 5.376C131.748 5.52533 131.615 5.71733 131.615 5.952C131.615 6.21867 131.759 6.40533 132.047 6.512C132.335 6.61867 132.794 6.72 133.423 6.816C134.127 6.93333 134.703 7.06133 135.151 7.2C135.599 7.328 135.988 7.568 136.319 7.92C136.65 8.272 136.815 8.76267 136.815 9.392C136.815 9.92533 136.655 10.4 136.335 10.816C136.015 11.232 135.546 11.5573 134.927 11.792C134.319 12.016 133.594 12.128 132.751 12.128ZM147.027 3.392V12H144.659V10.976C144.328 11.3493 143.934 11.6373 143.475 11.84C143.016 12.032 142.52 12.128 141.987 12.128C140.856 12.128 139.96 11.8027 139.299 11.152C138.638 10.5013 138.307 9.536 138.307 8.256V3.392H140.803V7.888C140.803 9.27467 141.384 9.968 142.547 9.968C143.144 9.968 143.624 9.776 143.987 9.392C144.35 8.99733 144.531 8.416 144.531 7.648V3.392H147.027ZM152.812 3.264C154.145 3.264 155.169 3.584 155.884 4.224C156.598 4.85333 156.956 5.808 156.956 7.088V12H154.62V10.928C154.15 11.728 153.276 12.128 151.996 12.128C151.334 12.128 150.758 12.016 150.268 11.792C149.788 11.568 149.42 11.2587 149.164 10.864C148.908 10.4693 148.78 10.0213 148.78 9.52C148.78 8.72 149.078 8.09067 149.676 7.632C150.284 7.17333 151.217 6.944 152.476 6.944H154.46C154.46 6.4 154.294 5.984 153.964 5.696C153.633 5.39733 153.137 5.248 152.476 5.248C152.017 5.248 151.564 5.32267 151.116 5.472C150.678 5.61067 150.305 5.80267 149.996 6.048L149.1 4.304C149.569 3.97333 150.129 3.71733 150.78 3.536C151.441 3.35467 152.118 3.264 152.812 3.264ZM152.62 10.448C153.046 10.448 153.425 10.352 153.756 10.16C154.086 9.95733 154.321 9.664 154.46 9.28V8.4H152.748C151.724 8.4 151.212 8.736 151.212 9.408C151.212 9.728 151.334 9.984 151.58 10.176C151.836 10.3573 152.182 10.448 152.62 10.448ZM166.527 12L164.367 8.88H164.239H161.983V12H159.391V0.799999H164.239C165.231 0.799999 166.089 0.965333 166.815 1.296C167.551 1.62667 168.116 2.096 168.511 2.704C168.905 3.312 169.103 4.032 169.103 4.864C169.103 5.696 168.9 6.416 168.495 7.024C168.1 7.62133 167.535 8.08 166.799 8.4L169.311 12H166.527ZM166.479 4.864C166.479 4.23467 166.276 3.75467 165.871 3.424C165.465 3.08267 164.873 2.912 164.095 2.912H161.983V6.816H164.095C164.873 6.816 165.465 6.64533 165.871 6.304C166.276 5.96267 166.479 5.48267 166.479 4.864ZM174.374 3.264C175.707 3.264 176.731 3.584 177.446 4.224C178.161 4.85333 178.518 5.808 178.518 7.088V12H176.182V10.928C175.713 11.728 174.838 12.128 173.558 12.128C172.897 12.128 172.321 12.016 171.83 11.792C171.35 11.568 170.982 11.2587 170.726 10.864C170.47 10.4693 170.342 10.0213 170.342 9.52C170.342 8.72 170.641 8.09067 171.238 7.632C171.846 7.17333 172.779 6.944 174.038 6.944H176.022C176.022 6.4 175.857 5.984 175.526 5.696C175.195 5.39733 174.699 5.248 174.038 5.248C173.579 5.248 173.126 5.32267 172.678 5.472C172.241 5.61067 171.867 5.80267 171.558 6.048L170.662 4.304C171.131 3.97333 171.691 3.71733 172.342 3.536C173.003 3.35467 173.681 3.264 174.374 3.264ZM174.182 10.448C174.609 10.448 174.987 10.352 175.318 10.16C175.649 9.95733 175.883 9.664 176.022 9.28V8.4H174.31C173.286 8.4 172.774 8.736 172.774 9.408C172.774 9.728 172.897 9.984 173.142 10.176C173.398 10.3573 173.745 10.448 174.182 10.448ZM191.801 3.264C192.878 3.264 193.732 3.584 194.361 4.224C195.001 4.85333 195.321 5.80267 195.321 7.072V12H192.825V7.456C192.825 6.77333 192.681 6.26667 192.393 5.936C192.116 5.59467 191.716 5.424 191.193 5.424C190.606 5.424 190.142 5.616 189.801 6C189.46 6.37333 189.289 6.93333 189.289 7.68V12H186.793V7.456C186.793 6.10133 186.249 5.424 185.161 5.424C184.585 5.424 184.126 5.616 183.785 6C183.444 6.37333 183.273 6.93333 183.273 7.68V12H180.777V3.392H183.161V4.384C183.481 4.02133 183.87 3.744 184.329 3.552C184.798 3.36 185.31 3.264 185.865 3.264C186.473 3.264 187.022 3.38667 187.513 3.632C188.004 3.86667 188.398 4.21333 188.697 4.672C189.049 4.224 189.492 3.87733 190.025 3.632C190.569 3.38667 191.161 3.264 191.801 3.264ZM201.03 3.264C202.364 3.264 203.388 3.584 204.102 4.224C204.817 4.85333 205.174 5.808 205.174 7.088V12H202.838V10.928C202.369 11.728 201.494 12.128 200.214 12.128C199.553 12.128 198.977 12.016 198.486 11.792C198.006 11.568 197.638 11.2587 197.382 10.864C197.126 10.4693 196.998 10.0213 196.998 9.52C196.998 8.72 197.297 8.09067 197.894 7.632C198.502 7.17333 199.436 6.944 200.694 6.944H202.678C202.678 6.4 202.513 5.984 202.182 5.696C201.852 5.39733 201.356 5.248 200.694 5.248C200.236 5.248 199.782 5.32267 199.334 5.472C198.897 5.61067 198.524 5.80267 198.214 6.048L197.318 4.304C197.788 3.97333 198.348 3.71733 198.998 3.536C199.66 3.35467 200.337 3.264 201.03 3.264ZM200.838 10.448C201.265 10.448 201.644 10.352 201.974 10.16C202.305 9.95733 202.54 9.664 202.678 9.28V8.4H200.966C199.942 8.4 199.43 8.736 199.43 9.408C199.43 9.728 199.553 9.984 199.798 10.176C200.054 10.3573 200.401 10.448 200.838 10.448ZM216.295 0.127999V12H213.911V11.008C213.292 11.7547 212.396 12.128 211.223 12.128C210.412 12.128 209.676 11.9467 209.015 11.584C208.364 11.2213 207.852 10.704 207.479 10.032C207.106 9.36 206.919 8.58133 206.919 7.696C206.919 6.81067 207.106 6.032 207.479 5.36C207.852 4.688 208.364 4.17067 209.015 3.808C209.676 3.44533 210.412 3.264 211.223 3.264C212.322 3.264 213.18 3.61067 213.799 4.304V0.127999H216.295ZM211.655 10.08C212.284 10.08 212.807 9.86667 213.223 9.44C213.639 9.00267 213.847 8.42133 213.847 7.696C213.847 6.97067 213.639 6.39467 213.223 5.968C212.807 5.53067 212.284 5.312 211.655 5.312C211.015 5.312 210.487 5.53067 210.071 5.968C209.655 6.39467 209.447 6.97067 209.447 7.696C209.447 8.42133 209.655 9.00267 210.071 9.44C210.487 9.86667 211.015 10.08 211.655 10.08ZM223.837 3.264C224.904 3.264 225.762 3.584 226.413 4.224C227.074 4.864 227.405 5.81333 227.405 7.072V12H224.909V7.456C224.909 6.77333 224.76 6.26667 224.461 5.936C224.162 5.59467 223.73 5.424 223.165 5.424C222.536 5.424 222.034 5.62133 221.661 6.016C221.288 6.4 221.101 6.976 221.101 7.744V12H218.605V0.127999H221.101V4.288C221.432 3.95733 221.832 3.70667 222.301 3.536C222.77 3.35467 223.282 3.264 223.837 3.264ZM233.14 3.264C234.473 3.264 235.497 3.584 236.212 4.224C236.926 4.85333 237.284 5.808 237.284 7.088V12H234.948V10.928C234.478 11.728 233.604 12.128 232.324 12.128C231.662 12.128 231.086 12.016 230.596 11.792C230.116 11.568 229.748 11.2587 229.492 10.864C229.236 10.4693 229.108 10.0213 229.108 9.52C229.108 8.72 229.406 8.09067 230.004 7.632C230.612 7.17333 231.545 6.944 232.804 6.944H234.788C234.788 6.4 234.622 5.984 234.292 5.696C233.961 5.39733 233.465 5.248 232.804 5.248C232.345 5.248 231.892 5.32267 231.444 5.472C231.006 5.61067 230.633 5.80267 230.324 6.048L229.428 4.304C229.897 3.97333 230.457 3.71733 231.108 3.536C231.769 3.35467 232.446 3.264 233.14 3.264ZM232.948 10.448C233.374 10.448 233.753 10.352 234.084 10.16C234.414 9.95733 234.649 9.664 234.788 9.28V8.4H233.076C232.052 8.4 231.54 8.736 231.54 9.408C231.54 9.728 231.662 9.984 231.908 10.176C232.164 10.3573 232.51 10.448 232.948 10.448ZM244.775 3.264C245.841 3.264 246.7 3.584 247.351 4.224C248.012 4.864 248.343 5.81333 248.343 7.072V12H245.847V7.456C245.847 6.77333 245.697 6.26667 245.399 5.936C245.1 5.59467 244.668 5.424 244.103 5.424C243.473 5.424 242.972 5.62133 242.599 6.016C242.225 6.4 242.039 6.976 242.039 7.744V12H239.543V3.392H241.927V4.4C242.257 4.03733 242.668 3.76 243.159 3.568C243.649 3.36533 244.188 3.264 244.775 3.264ZM259.005 6.176C259.645 6.37867 260.146 6.72 260.509 7.2C260.872 7.66933 261.053 8.25067 261.053 8.944C261.053 9.92533 260.669 10.6827 259.901 11.216C259.144 11.7387 258.034 12 256.573 12H250.781V0.799999H256.253C257.618 0.799999 258.664 1.06133 259.389 1.584C260.125 2.10667 260.493 2.816 260.493 3.712C260.493 4.256 260.36 4.74133 260.093 5.168C259.837 5.59467 259.474 5.93067 259.005 6.176ZM253.357 2.752V5.392H255.933C256.573 5.392 257.058 5.28 257.389 5.056C257.72 4.832 257.885 4.50133 257.885 4.064C257.885 3.62667 257.72 3.30133 257.389 3.088C257.058 2.864 256.573 2.752 255.933 2.752H253.357ZM256.381 10.048C257.064 10.048 257.576 9.936 257.917 9.712C258.269 9.488 258.445 9.14133 258.445 8.672C258.445 7.744 257.757 7.28 256.381 7.28H253.357V10.048H256.381ZM271.272 7.728C271.272 7.76 271.256 7.984 271.224 8.4H264.712C264.829 8.93333 265.106 9.35467 265.544 9.664C265.981 9.97333 266.525 10.128 267.176 10.128C267.624 10.128 268.018 10.064 268.36 9.936C268.712 9.79733 269.037 9.584 269.336 9.296L270.664 10.736C269.853 11.664 268.669 12.128 267.112 12.128C266.141 12.128 265.282 11.9413 264.536 11.568C263.789 11.184 263.213 10.656 262.808 9.984C262.402 9.312 262.2 8.54933 262.2 7.696C262.2 6.85333 262.397 6.096 262.792 5.424C263.197 4.74133 263.746 4.21333 264.44 3.84C265.144 3.456 265.928 3.264 266.792 3.264C267.634 3.264 268.397 3.44533 269.08 3.808C269.762 4.17067 270.296 4.69333 270.68 5.376C271.074 6.048 271.272 6.832 271.272 7.728ZM266.808 5.152C266.242 5.152 265.768 5.312 265.384 5.632C265 5.952 264.765 6.38933 264.68 6.944H268.92C268.834 6.4 268.6 5.968 268.216 5.648C267.832 5.31733 267.362 5.152 266.808 5.152ZM275.317 4.528C275.616 4.112 276.016 3.79733 276.517 3.584C277.029 3.37067 277.616 3.264 278.277 3.264V5.568C278 5.54667 277.813 5.536 277.717 5.536C277.003 5.536 276.443 5.73867 276.037 6.144C275.632 6.53867 275.429 7.136 275.429 7.936V12H272.933V3.392H275.317V4.528ZM282.689 12.128C281.974 12.128 281.275 12.0427 280.593 11.872C279.91 11.6907 279.366 11.4667 278.961 11.2L279.793 9.408C280.177 9.65333 280.641 9.856 281.185 10.016C281.729 10.1653 282.262 10.24 282.785 10.24C283.841 10.24 284.369 9.97867 284.369 9.456C284.369 9.21067 284.225 9.03467 283.937 8.928C283.649 8.82133 283.206 8.73067 282.609 8.656C281.905 8.54933 281.323 8.42667 280.865 8.288C280.406 8.14933 280.006 7.904 279.665 7.552C279.334 7.2 279.169 6.69867 279.169 6.048C279.169 5.504 279.323 5.024 279.633 4.608C279.953 4.18133 280.411 3.85067 281.009 3.616C281.617 3.38133 282.331 3.264 283.153 3.264C283.761 3.264 284.363 3.33333 284.961 3.472C285.569 3.6 286.07 3.78133 286.465 4.016L285.633 5.792C284.875 5.36533 284.049 5.152 283.153 5.152C282.619 5.152 282.219 5.22667 281.953 5.376C281.686 5.52533 281.553 5.71733 281.553 5.952C281.553 6.21867 281.697 6.40533 281.985 6.512C282.273 6.61867 282.731 6.72 283.361 6.816C284.065 6.93333 284.641 7.06133 285.089 7.2C285.537 7.328 285.926 7.568 286.257 7.92C286.587 8.272 286.753 8.76267 286.753 9.392C286.753 9.92533 286.593 10.4 286.273 10.816C285.953 11.232 285.483 11.5573 284.865 11.792C284.257 12.016 283.531 12.128 282.689 12.128ZM291.765 3.264C293.098 3.264 294.122 3.584 294.837 4.224C295.551 4.85333 295.909 5.808 295.909 7.088V12H293.573V10.928C293.103 11.728 292.229 12.128 290.949 12.128C290.287 12.128 289.711 12.016 289.221 11.792C288.741 11.568 288.373 11.2587 288.117 10.864C287.861 10.4693 287.733 10.0213 287.733 9.52C287.733 8.72 288.031 8.09067 288.629 7.632C289.237 7.17333 290.17 6.944 291.429 6.944H293.413C293.413 6.4 293.247 5.984 292.917 5.696C292.586 5.39733 292.09 5.248 291.429 5.248C290.97 5.248 290.517 5.32267 290.069 5.472C289.631 5.61067 289.258 5.80267 288.949 6.048L288.053 4.304C288.522 3.97333 289.082 3.71733 289.733 3.536C290.394 3.35467 291.071 3.264 291.765 3.264ZM291.573 10.448C291.999 10.448 292.378 10.352 292.709 10.16C293.039 9.95733 293.274 9.664 293.413 9.28V8.4H291.701C290.677 8.4 290.165 8.736 290.165 9.408C290.165 9.728 290.287 9.984 290.533 10.176C290.789 10.3573 291.135 10.448 291.573 10.448ZM309.192 3.264C310.269 3.264 311.122 3.584 311.752 4.224C312.392 4.85333 312.712 5.80267 312.712 7.072V12H310.216V7.456C310.216 6.77333 310.072 6.26667 309.784 5.936C309.506 5.59467 309.106 5.424 308.584 5.424C307.997 5.424 307.533 5.616 307.192 6C306.85 6.37333 306.68 6.93333 306.68 7.68V12H304.184V7.456C304.184 6.10133 303.64 5.424 302.552 5.424C301.976 5.424 301.517 5.616 301.176 6C300.834 6.37333 300.664 6.93333 300.664 7.68V12H298.168V3.392H300.552V4.384C300.872 4.02133 301.261 3.744 301.72 3.552C302.189 3.36 302.701 3.264 303.256 3.264C303.864 3.264 304.413 3.38667 304.904 3.632C305.394 3.86667 305.789 4.21333 306.088 4.672C306.44 4.224 306.882 3.87733 307.416 3.632C307.96 3.38667 308.552 3.264 309.192 3.264ZM318.421 3.264C319.754 3.264 320.778 3.584 321.493 4.224C322.208 4.85333 322.565 5.808 322.565 7.088V12H320.229V10.928C319.76 11.728 318.885 12.128 317.605 12.128C316.944 12.128 316.368 12.016 315.877 11.792C315.397 11.568 315.029 11.2587 314.773 10.864C314.517 10.4693 314.389 10.0213 314.389 9.52C314.389 8.72 314.688 8.09067 315.285 7.632C315.893 7.17333 316.826 6.944 318.085 6.944H320.069C320.069 6.4 319.904 5.984 319.573 5.696C319.242 5.39733 318.746 5.248 318.085 5.248C317.626 5.248 317.173 5.32267 316.725 5.472C316.288 5.61067 315.914 5.80267 315.605 6.048L314.709 4.304C315.178 3.97333 315.738 3.71733 316.389 3.536C317.05 3.35467 317.728 3.264 318.421 3.264ZM318.229 10.448C318.656 10.448 319.034 10.352 319.365 10.16C319.696 9.95733 319.93 9.664 320.069 9.28V8.4H318.357C317.333 8.4 316.821 8.736 316.821 9.408C316.821 9.728 316.944 9.984 317.189 10.176C317.445 10.3573 317.792 10.448 318.229 10.448Z"
    fill="#1E1E1E" />
</svg>