<svg width="1440" height="708" viewBox="0 0 1440 708" fill="none" xmlns="http://www.w3.org/2000/svg">
  <path
    d="M1424.14 8.59093C1412.29 8.59093 1412.29 0 1400.55 0C1388.81 0 1388.71 8.59093 1376.97 8.59093C1365.12 8.59093 1365.12 0 1353.38 0C1341.54 0 1341.54 8.59093 1329.79 8.59093C1318.05 8.59093 1317.95 0 1306.21 0C1294.36 0 1294.36 8.59093 1282.62 8.59093C1270.78 8.59093 1270.78 0 1259.03 0C1247.19 0 1247.19 8.59093 1235.45 8.59093C1223.6 8.59093 1223.6 0 1211.86 0C1200.02 0 1200.02 8.59093 1188.28 8.59093C1176.43 8.59093 1176.43 0 1164.69 0C1152.84 0 1152.84 8.59093 1141.1 8.59093C1129.26 8.59093 1129.26 0 1117.52 0C1105.67 0 1105.67 8.59093 1093.93 8.59093C1082.09 8.59093 1082.09 0 1070.34 0C1058.5 0 1058.5 8.59093 1046.76 8.59093C1034.91 8.59093 1034.91 0 1023.17 0C1011.33 0 1011.33 8.59093 999.585 8.59093C987.741 8.59093 987.741 0 975.999 0C964.154 0 964.154 8.59093 952.413 8.59093C940.362 8.59093 940.362 0 928.62 0C916.776 0 916.776 8.59093 905.034 8.59093C893.189 8.59093 893.189 0 881.448 0C869.603 0 869.603 8.59093 857.862 8.59093C846.017 8.59093 846.017 0 834.275 0C822.431 0 822.43 8.59093 810.689 8.59093C798.844 8.59093 798.844 0 787.103 0C775.258 0 775.258 8.59093 763.516 8.59093C751.672 8.59093 751.672 0 739.93 0C728.188 0 728.085 8.59093 716.344 8.59093C704.499 8.59093 704.499 0 692.757 0C680.81 0 680.81 8.59093 669.068 8.59093C657.223 8.59093 657.223 0 645.482 0C633.637 0 633.637 8.59093 621.895 8.59093C610.051 8.59093 610.051 0 598.309 0C586.465 0 586.465 8.59093 574.723 8.59093C562.878 8.59093 562.878 0 551.137 0C539.292 0 539.292 8.59093 527.55 8.59093C515.706 8.59093 515.706 0 503.964 0C492.119 0 492.119 8.59093 480.378 8.59093C468.533 8.59093 468.533 0 456.791 0C444.947 0 444.947 8.59093 433.205 8.59093C421.257 8.59093 421.257 0 409.516 0C397.671 0 397.671 8.59093 385.93 8.59093C374.085 8.59093 374.085 0 362.343 0C350.499 0 350.499 8.59093 338.757 8.59093C326.912 8.59093 326.912 0 315.171 0C303.326 0 303.326 8.59093 291.584 8.59093C279.74 8.59093 279.74 0 267.998 0C256.153 0 256.153 8.59093 244.412 8.59093C232.567 8.59093 232.567 0 220.825 0C208.981 0 208.981 8.59093 197.239 8.59093C185.497 8.59093 185.394 0 173.55 0C161.705 0 161.705 8.59093 149.964 8.59093C138.119 8.59093 138.119 0 126.377 0C114.636 0 114.533 8.59093 102.791 8.59093C90.9463 8.59093 90.9463 0 79.2046 0C67.36 0 67.36 8.59093 55.6183 8.59093C43.7737 8.59093 43.7737 0 32.032 0C20.1874 0 20.1874 8.59093 8.44575 8.59093C4.94385 8.59093 2.26593 7.51706 0 6.01365V18.6853V689.422V707.678C4.73786 705.208 8.65174 699.409 16.3765 699.409C28.2212 699.409 28.2212 708 39.9628 708C51.8075 708 51.8075 699.409 63.5491 699.409C75.3938 699.409 75.3938 708 87.1354 708C98.98 708 98.9801 699.409 110.722 699.409C122.463 699.409 122.566 708 134.308 708C146.153 708 146.153 699.409 157.894 699.409C169.739 699.409 169.739 708 181.481 708C193.325 708 193.325 699.409 205.067 699.409C216.912 699.409 216.912 708 228.653 708C240.498 708 240.498 699.409 252.239 699.409C264.084 699.409 264.084 708 275.826 708C287.67 708 287.67 699.409 299.412 699.409C311.257 699.409 311.257 708 322.998 708C334.843 708 334.843 699.409 346.585 699.409C358.429 699.409 358.429 708 370.171 708C382.016 708 382.016 699.409 393.757 699.409C405.602 699.409 405.602 708 417.344 708C429.188 708 429.188 699.409 440.93 699.409C452.672 699.409 452.775 708 464.516 708C476.361 708 476.361 699.409 488.102 699.409C499.947 699.409 499.947 708 511.689 708C523.533 708 523.533 699.409 535.275 699.409C547.12 699.409 547.12 708 558.861 708C570.706 708 570.706 699.409 582.448 699.409C594.292 699.409 594.292 708 606.034 708C617.879 708 617.879 699.409 629.62 699.409C641.465 699.409 641.465 708 653.207 708C665.051 708 665.051 699.409 676.793 699.409C688.637 699.409 688.638 708 700.379 708C712.224 708 712.224 699.409 723.965 699.409C735.81 699.409 735.81 708 747.552 708C759.396 708 759.396 699.409 771.138 699.409C782.88 699.409 782.983 708 794.724 708C806.569 708 806.569 699.409 818.311 699.409C830.155 699.409 830.155 708 841.897 708C853.742 708 853.742 699.409 865.483 699.409C877.328 699.409 877.328 708 889.07 708C900.914 708 900.914 699.409 912.656 699.409C924.5 699.409 924.5 708 936.242 708C947.984 708 948.087 699.409 959.828 699.409C971.673 699.409 971.673 708 983.415 708C995.259 708 995.259 699.409 1007 699.409C1018.85 699.409 1018.85 708 1030.59 708C1042.43 708 1042.43 699.409 1054.17 699.409C1066.02 699.409 1066.02 708 1077.76 708C1089.6 708 1089.6 699.409 1101.35 699.409C1113.19 699.409 1113.19 708 1124.93 708C1136.78 708 1136.78 699.409 1148.52 699.409C1160.36 699.409 1160.36 708 1172.11 708C1183.95 708 1183.95 699.409 1195.69 699.409C1207.54 699.409 1207.54 708 1219.28 708C1231.12 708 1231.12 699.409 1242.86 699.409C1254.71 699.409 1254.71 708 1266.45 708C1278.29 708 1278.29 699.409 1290.04 699.409C1301.88 699.409 1301.88 708 1313.62 708C1325.47 708 1325.47 699.409 1337.21 699.409C1349.05 699.409 1349.05 708 1360.8 708C1372.64 708 1372.64 699.409 1384.38 699.409C1396.23 699.409 1396.23 708 1407.97 708C1419.81 708 1419.81 699.409 1431.55 699.409C1434.95 699.409 1437.63 700.483 1440 701.986V689.422V18.6853V0.429547C1435.78 2.89944 1431.86 8.59093 1424.14 8.59093Z"
    fill="#F1F1F1" />
</svg>