<svg width="91" height="459" viewBox="0 0 91 459" fill="none" xmlns="http://www.w3.org/2000/svg">
  <g clip-path="url(#clip0_227_8329)">
    <path d="M92 367.2C92 417.936 50.8466 459 0 459L-4.01271e-06 367.2L92 367.2Z" fill="#E61C68" />
    <path d="M52.2921 367.2C52.2921 396.047 28.9094 419.378 0 419.378L-2.28079e-06 367.2L52.2921 367.2Z"
      fill="#66C3CA" />
    <path d="M-4.01271e-06 275.4L0 367.2L92 367.2L92 275.4L-4.01271e-06 275.4Z" fill="#1D71B8" />
    <path d="M26.2737 301.701L26.2737 340.984L65.6415 340.984L65.6415 301.701L26.2737 301.701Z" fill="white" />
    <path d="M-4.01271e-06 183.6L0 275.4L92 275.4L92 183.6L-4.01271e-06 183.6Z" fill="#EB6517" />
    <path
      d="M92 183.6L92 275.4L70.8281 275.4C31.7154 275.4 -1.38331e-06 243.753 -3.08926e-06 204.726L-4.01271e-06 183.6L92 183.6Z"
      fill="#E61C68" />
    <path
      d="M92 3.41255e-05L92 91.8L70.8281 91.8C31.7154 91.8 -1.38331e-06 60.1537 -3.08926e-06 21.1259L-4.01271e-06 3.8147e-05L92 3.41255e-05Z"
      fill="#E61C68" />
    <path
      d="M92 91.8001L92 183.6L0 183.6L-9.23441e-07 162.474C-2.6294e-06 123.446 31.7153 91.8001 70.8281 91.8001L92 91.8001Z"
      fill="#66C3CA" />
  </g>
  <defs>
    <clipPath id="clip0_227_8329">
      <rect width="459" height="92" fill="white" transform="translate(0 459) rotate(-90)" />
    </clipPath>
  </defs>
</svg>