<svg width="92" height="459" viewBox="0 0 92 459" fill="none" xmlns="http://www.w3.org/2000/svg">
  <g clip-path="url(#clip0_227_8338)">
    <path d="M-6.53469e-06 91.8C-7.13971e-06 41.064 41.1534 6.06339e-07 92 0L92 91.8L-6.53469e-06 91.8Z"
      fill="#E61C68" />
    <path d="M39.7079 91.8C39.7079 62.9534 63.0906 39.6216 92 39.6216L92 91.8L39.7079 91.8Z" fill="#66C3CA" />
    <path d="M92 183.6L92 91.8L-7.62939e-06 91.8L-6.53469e-06 183.6L92 183.6Z" fill="#1D71B8" />
    <path d="M65.7264 157.299L65.7264 118.016L26.3586 118.016L26.3586 157.299L65.7264 157.299Z" fill="white" />
    <path d="M92 275.4L92 183.6L-7.62939e-06 183.6L-6.53469e-06 275.4L92 275.4Z" fill="#EB6517" />
    <path
      d="M-6.53469e-06 275.4L-7.62939e-06 183.6L21.1719 183.6C60.2847 183.6 92 215.247 92 254.274L92 275.4L-6.53469e-06 275.4Z"
      fill="#E61C68" />
    <path
      d="M-6.53469e-06 459L-7.62939e-06 367.2L21.1719 367.2C60.2847 367.2 92 398.846 92 437.874L92 459L-6.53469e-06 459Z"
      fill="#E61C68" />
    <path
      d="M-6.53469e-06 367.2L-7.62939e-06 275.4L92 275.4L92 296.526C92 335.554 60.2847 367.2 21.1719 367.2L-6.53469e-06 367.2Z"
      fill="#66C3CA" />
  </g>
  <defs>
    <clipPath id="clip0_227_8338">
      <rect width="459" height="92" fill="white" transform="translate(92) rotate(90)" />
    </clipPath>
  </defs>
</svg>