<svg width="51" height="42" viewBox="0 0 51 42" fill="none" xmlns="http://www.w3.org/2000/svg">
  <path
    d="M51.0001 13.4954C51.0001 13.7916 51.0001 14.1043 51.0001 14.4006C50.9512 14.812 50.9022 15.2235 50.837 15.6349C50.4291 18.4985 49.2055 21.0166 47.623 23.3865C45.4531 26.6122 42.7612 29.3606 39.8571 31.9115C35.5337 35.7133 30.8351 38.9554 25.8754 41.8684C25.598 42.033 25.3859 42.0495 25.1086 41.8684C24.5375 41.4899 23.9339 41.1608 23.3629 40.7987C17.4896 37.1615 11.9589 33.0636 7.16231 28.0111C4.73141 25.4766 2.6268 22.7117 1.20741 19.4695C-0.163027 16.3261 -0.391434 13.1004 0.620082 9.82534C2.38208 4.13098 7.55386 0.164681 13.4109 0.0330194C18.3706 -0.0821844 22.2861 1.90919 25.2065 5.94133C25.288 6.05653 25.3859 6.15528 25.5001 6.3034C25.6306 6.12236 25.7285 5.9907 25.8264 5.85904C29.122 1.18506 34.979 -1.03673 40.4608 0.477377C46.0731 2.0244 49.4828 5.77675 50.7064 11.5369C50.8533 12.1788 50.9022 12.8371 51.0001 13.4954Z"
    fill="#66C3CA" />
</svg>