<svg width="208" height="69" viewBox="0 0 208 69" fill="none" xmlns="http://www.w3.org/2000/svg">
<g clip-path="url(#clip0_147_10)">
<path d="M76.3674 66.4145C74.8563 66.4145 74.1547 65.0141 73.615 63.8829C73.1292 62.8595 72.7515 62.1593 72.2118 62.1593C71.6721 62.1593 71.3482 62.8595 70.8625 63.8829C70.3228 65.0141 69.6212 66.4145 68.164 66.4145C66.6529 66.4145 65.9513 65.0141 65.4116 63.8829C64.9258 62.8595 64.548 62.1593 64.0083 62.1593C63.4686 62.1593 63.1448 62.8595 62.6591 63.8829C62.1194 65.0141 61.4178 66.4145 59.9606 66.4145C58.4494 66.4145 57.7478 65.0141 57.2081 63.8829C56.7224 62.8595 56.3446 62.1593 55.8049 62.1593C55.2652 62.1593 54.9414 62.8595 54.4557 63.8829C53.916 65.0141 53.2144 66.4145 51.7572 66.4145C50.246 66.4145 49.5444 65.0141 49.0047 63.8829C48.519 62.8595 48.1412 62.1593 47.6015 62.1593C47.0618 62.1593 46.738 62.8595 46.2522 63.8829C45.7125 65.0141 45.0109 66.4145 43.5537 66.4145C42.0426 66.4145 41.3949 65.0141 40.8013 63.8829C40.3155 62.8595 39.9378 62.1593 39.3981 62.1593C38.8584 62.1593 38.5345 62.8595 38.0488 63.8829C37.5091 65.0141 36.8075 66.4145 35.3503 66.4145C33.8392 66.4145 33.1915 65.0141 32.5979 63.8829C32.1121 62.8595 31.7343 62.1593 31.1946 62.1593C30.6549 62.1593 30.3311 62.8595 29.8454 63.8829C29.3057 65.0141 28.6041 66.4145 27.1469 66.4145C25.6357 66.4145 24.9341 65.0141 24.3944 63.8829C23.9087 62.8595 23.5309 62.1593 22.9912 62.1593V60.6511C24.5024 60.6511 25.204 62.0515 25.7437 63.1827C26.2294 64.2061 26.6072 64.9063 27.1469 64.9063C27.6866 64.9063 28.0104 64.2061 28.4961 63.1827C29.0358 62.0515 29.7374 60.6511 31.1946 60.6511C32.7058 60.6511 33.3534 62.0515 33.9471 63.1827C34.4328 64.2061 34.8106 64.9063 35.3503 64.9063C35.89 64.9063 36.2138 64.2061 36.6996 63.1827C37.2393 62.0515 37.9409 60.6511 39.3981 60.6511C40.9092 60.6511 41.5569 62.0515 42.1505 63.1827C42.6363 64.2061 43.014 64.9063 43.5537 64.9063C44.0934 64.9063 44.4173 64.2061 44.903 63.1827C45.4427 62.0515 46.1443 60.6511 47.6015 60.6511C49.1126 60.6511 49.8143 62.0515 50.354 63.1827C50.8397 64.2061 51.2175 64.9063 51.7572 64.9063C52.2969 64.9063 52.6207 64.2061 53.1064 63.1827C53.6461 62.0515 54.3477 60.6511 55.8049 60.6511C57.3161 60.6511 58.0177 62.0515 58.5574 63.1827C59.0431 64.2061 59.4209 64.9063 59.9606 64.9063C60.5003 64.9063 60.8241 64.2061 61.3098 63.1827C61.8495 62.0515 62.5511 60.6511 64.0083 60.6511C65.5195 60.6511 66.2211 62.0515 66.7608 63.1827C67.2465 64.2061 67.6243 64.9063 68.164 64.9063C68.7037 64.9063 69.0275 64.2061 69.5133 63.1827C70.053 62.0515 70.7546 60.6511 72.2118 60.6511C73.7229 60.6511 74.4245 62.0515 74.9642 63.1827C75.45 64.2061 75.8277 64.9063 76.3674 64.9063C76.9071 64.9063 77.231 64.2061 77.7167 63.1827C78.2564 62.0515 78.958 60.6511 80.4152 60.6511V62.1593C79.8755 62.1593 79.5517 62.8595 79.0659 63.8829C78.5262 65.0141 77.8786 66.4145 76.3674 66.4145Z" fill="#E37187"/>
<path d="M128.988 6.14051C127.477 6.14051 126.775 4.68618 126.236 3.55504C125.75 2.53162 125.372 1.83138 124.886 1.83138C124.347 1.77752 124.023 2.47775 123.483 3.50117C122.943 4.63232 122.242 6.03279 120.785 6.03279C120.785 6.03279 120.785 6.03279 120.731 6.03279C119.22 6.03279 118.572 4.57845 118.032 3.44731C117.546 2.42389 117.169 1.72365 116.683 1.72365C116.197 1.72365 115.819 2.37002 115.28 3.39344C114.74 4.52459 113.984 5.92506 112.527 5.92506C111.016 5.92506 110.368 4.47073 109.829 3.33958C109.397 2.31616 109.019 1.61593 108.48 1.61593C107.94 1.61593 107.616 2.2623 107.076 3.28571C106.537 4.41686 105.835 5.81733 104.324 5.81733C102.813 5.81733 102.165 4.363 101.625 3.23185C101.14 2.20843 100.762 1.5082 100.276 1.5082V0C101.787 0 102.435 1.45433 102.975 2.58548C103.46 3.6089 103.838 4.30913 104.324 4.30913C104.81 4.30913 105.187 3.66276 105.727 2.63934C106.267 1.5082 106.968 0.107728 108.426 0.107728C108.426 0.107728 108.426 0.107728 108.48 0.107728C109.991 0.107728 110.638 1.56206 111.178 2.69321C111.664 3.71663 112.042 4.41686 112.527 4.41686C113.013 4.41686 113.391 3.77049 113.931 2.74707C114.47 1.61593 115.172 0.215457 116.683 0.215457C118.194 0.215457 118.842 1.66979 119.381 2.80094C119.867 3.82436 120.245 4.52459 120.731 4.52459C121.216 4.52459 121.594 3.87822 122.134 2.8548C122.674 1.72365 123.375 0.323185 124.886 0.323185C126.398 0.323185 127.045 1.77752 127.585 2.90867C128.071 3.93208 128.448 4.63232 128.934 4.63232C129.42 4.63232 129.798 3.98595 130.337 2.96253C130.877 1.83138 131.579 0.430913 133.036 0.430913C133.036 0.430913 133.036 0.430913 133.09 0.430913V1.93911C132.55 1.88525 132.226 2.58548 131.687 3.6089C131.201 4.74005 130.499 6.14051 128.988 6.14051Z" fill="#EB6517"/>
<path d="M12.3052 10.8267C16.6228 10.1265 20.0768 10.7728 22.5594 12.7658C25.0421 14.7588 26.6072 17.9368 27.3088 22.3536L28.4422 29.4637C29.1438 33.9344 28.6041 37.4895 26.8231 40.1288C25.0421 42.7682 22.0197 44.438 17.6482 45.0843L16.5688 45.2459C14.9497 45.5152 13.8163 47.0234 14.0862 48.6394L16.6767 65.0679C16.9466 66.6839 15.8132 68.2459 14.1941 68.4614L11.4416 68.8923C9.82255 69.1616 8.25742 68.0305 8.04154 66.4145L0.0539985 15.7822C-0.215851 14.1663 0.917517 12.6042 2.53661 12.3888L12.3052 10.8267ZM18.7816 26.5012C18.4577 24.5082 17.8641 23.2155 17.0545 22.623C16.191 22.0305 15.1116 21.815 13.7624 22.0305L12.629 22.1921C11.0099 22.4614 9.87652 23.9696 10.1464 25.5855L11.9274 34.9579C12.1972 36.5738 13.7084 37.7049 15.3275 37.4356L16.4608 37.274C17.8101 37.0586 18.7816 36.8431 19.4292 35.6581C20.0768 34.4731 18.7816 26.5012 18.7816 26.5012Z" fill="#1D71B8"/>
<path d="M42.5823 29.5176H46.3602C47.9253 29.5176 49.1666 30.7564 49.1666 32.3185V32.9649C49.1666 34.5269 47.9253 35.7658 46.3602 35.7658H42.5823C41.0172 35.7658 39.7759 37.0047 39.7759 38.5667V45.6768C39.7759 47.2389 41.0172 48.4777 42.5823 48.4777H48.7888C50.354 48.4777 51.5953 49.7166 51.5953 51.2787V51.925C51.5953 53.4871 50.354 54.726 48.7888 54.726H35.7281C34.163 54.726 32.9217 53.4871 32.9217 51.925V14.0585C32.9217 12.4965 34.163 11.2576 35.7281 11.2576H48.7349C50.3 11.2576 51.5413 12.4965 51.5413 14.0585V14.7049C51.5413 16.267 50.3 17.5058 48.7349 17.5058H42.5823C41.0172 17.5058 39.7759 18.7447 39.7759 20.3068V26.8243C39.7759 28.2787 41.0172 29.5176 42.5823 29.5176Z" fill="#EB6517"/>
<path d="M79.4977 22.6768L82.466 3.23184C82.6819 1.88524 83.8692 0.861817 85.2185 0.861817H92.1806C93.7457 0.861817 94.987 2.10069 94.987 3.66275V53.541C94.987 55.103 93.7457 56.3419 92.1806 56.3419H89.4821C87.917 56.3419 86.6757 55.103 86.6757 53.541V45.8923C86.6757 42.445 81.6565 42.0679 81.1168 45.4613L81.0088 53.8642C80.793 55.2108 79.6056 56.2342 78.2564 56.2342H74.7483C73.3991 56.2342 72.2117 55.2646 71.9959 53.918L71.4022 42.822C70.8625 39.4286 65.8433 39.8595 65.8433 43.2529V53.4332C65.8433 54.9953 64.602 56.2342 63.0369 56.2342H60.986C59.4209 56.2342 58.1796 54.9953 58.1796 53.4332V3.60889C58.1796 2.04683 59.4209 0.807953 60.986 0.807953H67.9481C69.2974 0.807953 70.4847 1.77751 70.7006 3.12411L73.8848 22.6768C74.4785 25.8009 79.0119 25.8009 79.4977 22.6768Z" fill="#66C3CA"/>
<path d="M104.432 9.31851L106.375 9.21078C107.94 9.10305 109.235 10.2881 109.343 11.8501L111.772 51.4942C111.88 53.0562 110.692 54.349 109.127 54.4567L107.184 54.5644C105.619 54.6721 104.324 53.4871 104.216 51.9251L101.787 12.281C101.733 10.719 102.921 9.37237 104.432 9.31851Z" fill="#614495"/>
<path d="M122.674 11.2576H125.264C126.829 11.2576 128.071 12.4965 128.071 14.0585V52.8946C128.071 54.4567 129.312 55.6955 130.877 55.6955H138.703C140.268 55.6955 141.509 56.9344 141.509 58.4965V60.3279C141.509 61.8899 140.268 63.1288 138.703 63.1288H122.728C121.162 63.1288 119.921 61.8899 119.921 60.3279V14.0585C119.921 12.4965 121.162 11.2576 122.674 11.2576Z" fill="#E37187"/>
<path d="M140.646 3.98596C142.265 3.98596 143.56 5.2787 143.56 6.89463V31.4567C143.56 33.0187 143.884 34.1499 144.531 34.7424C145.179 35.3888 146.043 35.6581 147.122 35.6581C148.201 35.6581 149.065 35.3349 149.713 34.7424C150.36 34.096 150.684 33.0187 150.684 31.4567V6.89463C150.684 5.2787 151.979 3.98596 153.598 3.98596H154.246C155.865 3.98596 157.16 5.2787 157.16 6.89463V37.0586C157.16 40.5597 156.297 43.2529 154.57 45.1382C152.843 47.0234 150.306 47.9391 146.96 47.9391C143.614 47.9391 141.077 47.0234 139.35 45.1382C137.623 43.2529 136.76 40.5597 136.76 37.0586V6.89463C136.76 5.2787 138.055 3.98596 139.674 3.98596H140.646Z" fill="#A3195B"/>
<path d="M176.967 30.541L181.015 12.5504C181.339 11.2038 182.58 10.2881 183.929 10.3958L185.225 10.5035C186.952 10.6113 188.139 12.2272 187.761 13.897L177.993 55.9649C177.669 57.3115 176.428 58.2272 175.078 58.1194L168.548 57.6347C167.199 57.5269 166.065 56.4497 165.957 55.1031L162.557 12.0656C162.449 10.3419 163.853 8.94146 165.526 9.04919L167.523 9.21078C168.926 9.31851 170.005 10.3958 170.113 11.7963L171.462 30.2178C171.678 33.3419 176.266 33.6651 176.967 30.541Z" fill="#E61C68"/>
<path d="M175.942 63.3443H175.888L167.361 62.4286C166.767 62.3747 166.335 61.8899 166.389 61.2974C166.443 60.7049 166.929 60.274 167.523 60.3279L176.05 61.2436C176.643 61.2974 177.075 61.7822 177.021 62.3747C176.913 62.9134 176.482 63.3443 175.942 63.3443Z" fill="#E61C68"/>
<path d="M48.465 7.11007C48.411 7.11007 48.411 7.11007 48.357 7.11007L35.3503 8.67213C34.7027 8.726 34.163 8.29508 34.109 7.70258C34.055 7.05621 34.4868 6.51757 35.0804 6.4637L48.0872 4.90164C48.7348 4.84778 49.2745 5.27869 49.3285 5.8712C49.4364 6.4637 49.0587 7.00234 48.465 7.11007Z" fill="#EB6517"/>
<path d="M200.012 5.2787C200.12 5.22483 200.228 5.17097 200.282 5.1171C200.876 4.74005 201.524 4.47073 202.225 4.25528C202.927 4.09368 203.682 4.03982 204.438 4.20141C205.248 4.36301 205.949 4.79392 206.543 5.38642C207.73 6.6253 208.216 8.07963 207.946 9.74942C207.838 10.4497 207.514 11.1499 207.137 11.7424C206.759 12.281 206.327 12.712 205.841 13.1429C204.924 13.897 203.898 14.4895 202.873 14.9742C201.578 15.6206 200.228 16.1054 198.879 16.4824C197.584 16.8595 196.289 17.2365 194.993 17.5597C194.939 17.5597 194.939 17.5597 194.885 17.5059C194.13 16.267 193.374 14.9742 192.727 13.6815C192.187 12.6042 191.647 11.5269 191.269 10.3419C190.946 9.37237 190.622 8.40282 190.46 7.43326C190.352 6.84076 190.298 6.19439 190.298 5.60188C190.298 5.22483 190.352 4.90165 190.46 4.5246C190.568 4.14755 190.73 3.71664 190.892 3.39345C191.269 2.69322 191.809 2.04685 192.457 1.61593C193.212 1.07729 194.076 0.80797 195.047 0.754106C195.911 0.700242 196.72 0.915699 197.476 1.34661C198.231 1.77753 198.825 2.4239 199.257 3.17799C199.581 3.7705 199.851 4.47073 199.959 5.17097C200.012 5.17097 200.012 5.22483 200.012 5.2787Z" fill="#E61C68"/>
</g>
<defs>
<clipPath id="clip0_147_10">
<rect width="208" height="69" fill="white"/>
</clipPath>
</defs>
</svg>
