<svg width="322" height="322" viewBox="0 0 322 322" fill="none" xmlns="http://www.w3.org/2000/svg">
  <rect width="322" height="322" rx="10" fill="#E61C68" />
  <g clip-path="url(#clip0_0_1)">
    <path
      d="M199.524 35C189.823 35 182.016 27.1959 182.016 17.5C182.016 7.80405 189.823 0 199.524 0C209.224 0 217.032 7.80405 217.032 17.5C217.032 27.1171 209.145 35 199.524 35Z"
      fill="#66C3CA" />
    <path
      d="M199.524 25.304C195.186 25.304 191.716 21.8356 191.716 17.5C191.716 13.1644 195.186 9.69592 199.524 9.69592C203.861 9.69592 207.331 13.1644 207.331 17.5C207.331 21.8356 203.782 25.304 199.524 25.304Z"
      fill="#FAFCFD" />
    <path d="M252.047 0H217.031V35H252.047V0Z" fill="#1D71B8" />
    <path d="M182.016 35H147C147 15.6869 162.694 0 182.016 0V35Z" fill="#EB6517" />
    <path d="M251.969 35V0H286.984C286.984 19.3131 271.369 35 251.969 35Z" fill="#FAFCFD" />
    <path d="M322 35C302.678 35 286.984 19.3131 286.984 0H312C317.523 0 322 4.47715 322 10V35Z" fill="#EB6517" />
    <path d="M182.016 70C162.694 70 147 54.3131 147 35H182.016V70Z" fill="#FAFCFD" />
    <path d="M182.016 54.8649C171.054 54.8649 162.142 45.9572 162.142 35H182.016V54.8649Z" fill="#66C3CA" />
    <path d="M217.032 35H182.016V70H217.032V35Z" fill="#1D71B8" />
    <path d="M207.016 45.0112H192.031V59.9887H207.016V45.0112Z" fill="white" />
    <path d="M252.047 35H217.031V70H252.047V35Z" fill="#EB6517" />
    <path d="M251.968 70H217.031C217.031 50.6869 232.725 35 252.047 35V70H251.968Z" fill="#E61C68" />
    <path d="M322 70H286.984C286.984 50.6869 302.678 35 322 35V70Z" fill="#FAFCFD" />
    <path d="M286.984 70H251.969V35C271.369 35 286.984 50.6869 286.984 70Z" fill="#66C3CA" />
    <path d="M251.968 70.0001H234.618C234.618 60.4618 242.347 52.6577 251.968 52.6577V70.0001Z" fill="#FAFCFD" />
    <path d="M269.319 70.0001H251.969V52.6577C261.59 52.6577 269.319 60.3829 269.319 70.0001Z" fill="#EA5457" />
  </g>
  <g clip-path="url(#clip1_0_1)">
    <path
      d="M122.476 287C132.177 287 139.984 294.804 139.984 304.5C139.984 314.196 132.177 322 122.476 322C112.776 322 104.968 314.196 104.968 304.5C104.968 294.883 112.855 287 122.476 287Z"
      fill="#66C3CA" />
    <path
      d="M122.476 296.696C126.814 296.696 130.284 300.164 130.284 304.5C130.284 308.836 126.814 312.304 122.476 312.304C118.139 312.304 114.669 308.836 114.669 304.5C114.669 300.164 118.218 296.696 122.476 296.696Z"
      fill="#FAFCFD" />
    <path d="M69.9527 322L104.969 322L104.969 287L69.9527 287L69.9527 322Z" fill="#1D71B8" />
    <path d="M139.984 287L175 287C175 306.313 159.306 322 139.984 322L139.984 287Z" fill="#EB6517" />
    <path d="M70.0315 287L70.0315 322L35.0157 322C35.0157 302.687 50.6309 287 70.0315 287Z" fill="#FAFCFD" />
    <path
      d="M-1.98284e-05 287C19.3217 287 35.0157 302.687 35.0157 322L9.99998 322C4.47713 322 -2.24968e-05 317.523 -2.2014e-05 312L-1.98284e-05 287Z"
      fill="#EB6517" />
    <path d="M139.984 252C159.306 252 175 267.687 175 287L139.984 287L139.984 252Z" fill="#FAFCFD" />
    <path d="M139.984 267.135C150.946 267.135 159.858 276.043 159.858 287L139.984 287L139.984 267.135Z"
      fill="#66C3CA" />
    <path d="M104.968 287L139.984 287L139.984 252L104.968 252L104.968 287Z" fill="#1D71B8" />
    <path d="M114.984 276.989L129.969 276.989L129.969 262.011L114.984 262.011L114.984 276.989Z" fill="white" />
    <path d="M69.9527 287L104.969 287L104.969 252L69.9527 252L69.9527 287Z" fill="#EB6517" />
    <path d="M70.0316 252L104.969 252C104.969 271.313 89.2745 287 69.9527 287L69.9527 252L70.0316 252Z"
      fill="#E61C68" />
    <path d="M-1.98284e-05 252L35.0158 252C35.0157 271.313 19.3217 287 -2.28882e-05 287L-1.98284e-05 252Z"
      fill="#FAFCFD" />
    <path d="M35.0157 252L70.0315 252L70.0315 287C50.6309 287 35.0157 271.313 35.0157 252Z" fill="#66C3CA" />
    <path d="M70.0316 252L87.3817 252C87.3817 261.538 79.653 269.342 70.0316 269.342L70.0316 252Z" fill="#FAFCFD" />
    <path d="M52.6813 252L70.0315 252L70.0315 269.342C60.41 269.342 52.6813 261.617 52.6813 252Z" fill="#EA5457" />
  </g>
  <path
    d="M62.5 183.096H59.056V182.2H66.98V183.096H63.536V192H62.5V183.096ZM70.5909 184.58C71.5522 184.58 72.2896 184.823 72.8029 185.308C73.3162 185.784 73.5729 186.493 73.5729 187.436V192H72.6209V190.852C72.3969 191.235 72.0656 191.533 71.6269 191.748C71.1976 191.963 70.6842 192.07 70.0869 192.07C69.2656 192.07 68.6122 191.874 68.1269 191.482C67.6416 191.09 67.3989 190.572 67.3989 189.928C67.3989 189.303 67.6229 188.799 68.0709 188.416C68.5282 188.033 69.2516 187.842 70.2409 187.842H72.5789V187.394C72.5789 186.759 72.4016 186.279 72.0469 185.952C71.6922 185.616 71.1742 185.448 70.4929 185.448C70.0262 185.448 69.5782 185.527 69.1489 185.686C68.7196 185.835 68.3509 186.045 68.0429 186.316L67.5949 185.574C67.9682 185.257 68.4162 185.014 68.9389 184.846C69.4616 184.669 70.0122 184.58 70.5909 184.58ZM70.2409 191.286C70.8009 191.286 71.2816 191.16 71.6829 190.908C72.0842 190.647 72.3829 190.273 72.5789 189.788V188.584H70.2689C69.0089 188.584 68.3789 189.023 68.3789 189.9C68.3789 190.329 68.5422 190.67 68.8689 190.922C69.1956 191.165 69.6529 191.286 70.2409 191.286ZM80.0247 184.58C80.9487 184.58 81.6814 184.851 82.2227 185.392C82.7734 185.924 83.0487 186.703 83.0487 187.73V192H82.0547V187.828C82.0547 187.063 81.8634 186.479 81.4807 186.078C81.0981 185.677 80.5521 185.476 79.8427 185.476C79.0494 185.476 78.4194 185.714 77.9527 186.19C77.4954 186.657 77.2667 187.305 77.2667 188.136V192H76.2727V181.612H77.2667V185.924C77.5374 185.495 77.9107 185.163 78.3867 184.93C78.8627 184.697 79.4087 184.58 80.0247 184.58ZM88.3233 184.58C89.2847 184.58 90.022 184.823 90.5353 185.308C91.0487 185.784 91.3053 186.493 91.3053 187.436V192H90.3533V190.852C90.1293 191.235 89.798 191.533 89.3593 191.748C88.93 191.963 88.4167 192.07 87.8193 192.07C86.998 192.07 86.3447 191.874 85.8593 191.482C85.374 191.09 85.1313 190.572 85.1313 189.928C85.1313 189.303 85.3553 188.799 85.8033 188.416C86.2607 188.033 86.984 187.842 87.9733 187.842H90.3113V187.394C90.3113 186.759 90.134 186.279 89.7793 185.952C89.4247 185.616 88.9067 185.448 88.2253 185.448C87.7587 185.448 87.3107 185.527 86.8813 185.686C86.452 185.835 86.0833 186.045 85.7753 186.316L85.3273 185.574C85.7007 185.257 86.1487 185.014 86.6713 184.846C87.194 184.669 87.7447 184.58 88.3233 184.58ZM87.9733 191.286C88.5333 191.286 89.014 191.16 89.4153 190.908C89.8167 190.647 90.1153 190.273 90.3113 189.788V188.584H88.0013C86.7413 188.584 86.1113 189.023 86.1113 189.9C86.1113 190.329 86.2747 190.67 86.6013 190.922C86.928 191.165 87.3853 191.286 87.9733 191.286ZM97.7991 184.58C98.4898 184.58 99.1151 184.739 99.6751 185.056C100.235 185.364 100.674 185.803 100.991 186.372C101.308 186.941 101.467 187.59 101.467 188.318C101.467 189.055 101.308 189.709 100.991 190.278C100.674 190.847 100.235 191.291 99.6751 191.608C99.1245 191.916 98.4991 192.07 97.7991 192.07C97.2018 192.07 96.6605 191.949 96.1751 191.706C95.6991 191.454 95.3071 191.09 94.9991 190.614V194.716H94.0051V184.636H94.9571V186.092C95.2558 185.607 95.6478 185.233 96.1331 184.972C96.6278 184.711 97.1831 184.58 97.7991 184.58ZM97.7291 191.188C98.2425 191.188 98.7091 191.071 99.1291 190.838C99.5491 190.595 99.8758 190.255 100.109 189.816C100.352 189.377 100.473 188.878 100.473 188.318C100.473 187.758 100.352 187.263 100.109 186.834C99.8758 186.395 99.5491 186.055 99.1291 185.812C98.7091 185.569 98.2425 185.448 97.7291 185.448C97.2065 185.448 96.7351 185.569 96.3151 185.812C95.9045 186.055 95.5778 186.395 95.3351 186.834C95.1018 187.263 94.9851 187.758 94.9851 188.318C94.9851 188.878 95.1018 189.377 95.3351 189.816C95.5778 190.255 95.9045 190.595 96.3151 190.838C96.7351 191.071 97.2065 191.188 97.7291 191.188ZM106.028 184.58C106.99 184.58 107.727 184.823 108.24 185.308C108.754 185.784 109.01 186.493 109.01 187.436V192H108.058V190.852C107.834 191.235 107.503 191.533 107.064 191.748C106.635 191.963 106.122 192.07 105.524 192.07C104.703 192.07 104.05 191.874 103.564 191.482C103.079 191.09 102.836 190.572 102.836 189.928C102.836 189.303 103.06 188.799 103.508 188.416C103.966 188.033 104.689 187.842 105.678 187.842H108.016V187.394C108.016 186.759 107.839 186.279 107.484 185.952C107.13 185.616 106.612 185.448 105.93 185.448C105.464 185.448 105.016 185.527 104.586 185.686C104.157 185.835 103.788 186.045 103.48 186.316L103.032 185.574C103.406 185.257 103.854 185.014 104.376 184.846C104.899 184.669 105.45 184.58 106.028 184.58ZM105.678 191.286C106.238 191.286 106.719 191.16 107.12 190.908C107.522 190.647 107.82 190.273 108.016 189.788V188.584H105.706C104.446 188.584 103.816 189.023 103.816 189.9C103.816 190.329 103.98 190.67 104.306 190.922C104.633 191.165 105.09 191.286 105.678 191.286ZM115.462 184.58C116.386 184.58 117.119 184.851 117.66 185.392C118.211 185.924 118.486 186.703 118.486 187.73V192H117.492V187.828C117.492 187.063 117.301 186.479 116.918 186.078C116.536 185.677 115.99 185.476 115.28 185.476C114.487 185.476 113.857 185.714 113.39 186.19C112.933 186.657 112.704 187.305 112.704 188.136V192H111.71V184.636H112.662V185.994C112.933 185.546 113.306 185.201 113.782 184.958C114.268 184.706 114.828 184.58 115.462 184.58ZM131.569 181.612V192H130.617V190.544C130.318 191.039 129.922 191.417 129.427 191.678C128.942 191.939 128.391 192.07 127.775 192.07C127.084 192.07 126.459 191.911 125.899 191.594C125.339 191.277 124.9 190.833 124.583 190.264C124.266 189.695 124.107 189.046 124.107 188.318C124.107 187.59 124.266 186.941 124.583 186.372C124.9 185.803 125.339 185.364 125.899 185.056C126.459 184.739 127.084 184.58 127.775 184.58C128.372 184.58 128.909 184.706 129.385 184.958C129.87 185.201 130.267 185.56 130.575 186.036V181.612H131.569ZM127.859 191.188C128.372 191.188 128.834 191.071 129.245 190.838C129.665 190.595 129.992 190.255 130.225 189.816C130.468 189.377 130.589 188.878 130.589 188.318C130.589 187.758 130.468 187.259 130.225 186.82C129.992 186.381 129.665 186.045 129.245 185.812C128.834 185.569 128.372 185.448 127.859 185.448C127.336 185.448 126.865 185.569 126.445 185.812C126.034 186.045 125.708 186.381 125.465 186.82C125.232 187.259 125.115 187.758 125.115 188.318C125.115 188.878 125.232 189.377 125.465 189.816C125.708 190.255 126.034 190.595 126.445 190.838C126.865 191.071 127.336 191.188 127.859 191.188ZM136.913 184.58C137.875 184.58 138.612 184.823 139.125 185.308C139.639 185.784 139.895 186.493 139.895 187.436V192H138.943V190.852C138.719 191.235 138.388 191.533 137.949 191.748C137.52 191.963 137.007 192.07 136.409 192.07C135.588 192.07 134.935 191.874 134.449 191.482C133.964 191.09 133.721 190.572 133.721 189.928C133.721 189.303 133.945 188.799 134.393 188.416C134.851 188.033 135.574 187.842 136.563 187.842H138.901V187.394C138.901 186.759 138.724 186.279 138.369 185.952C138.015 185.616 137.497 185.448 136.815 185.448C136.349 185.448 135.901 185.527 135.471 185.686C135.042 185.835 134.673 186.045 134.365 186.316L133.917 185.574C134.291 185.257 134.739 185.014 135.261 184.846C135.784 184.669 136.335 184.58 136.913 184.58ZM136.563 191.286C137.123 191.286 137.604 191.16 138.005 190.908C138.407 190.647 138.705 190.273 138.901 189.788V188.584H136.591C135.331 188.584 134.701 189.023 134.701 189.9C134.701 190.329 134.865 190.67 135.191 190.922C135.518 191.165 135.975 191.286 136.563 191.286ZM146.347 184.58C147.271 184.58 148.004 184.851 148.545 185.392C149.096 185.924 149.371 186.703 149.371 187.73V192H148.377V187.828C148.377 187.063 148.186 186.479 147.803 186.078C147.42 185.677 146.874 185.476 146.165 185.476C145.372 185.476 144.742 185.714 144.275 186.19C143.818 186.657 143.589 187.305 143.589 188.136V192H142.595V184.636H143.547V185.994C143.818 185.546 144.191 185.201 144.667 184.958C145.152 184.706 145.712 184.58 146.347 184.58ZM154.642 194.786C154.334 194.786 154.044 194.744 153.774 194.66C153.494 194.585 153.265 194.469 153.088 194.31L153.438 193.554C153.727 193.806 154.11 193.932 154.586 193.932C154.978 193.932 155.276 193.815 155.482 193.582C155.696 193.349 155.804 193.003 155.804 192.546V184.636H156.798V192.546C156.798 193.237 156.611 193.783 156.238 194.184C155.864 194.585 155.332 194.786 154.642 194.786ZM156.308 183.012C156.102 183.012 155.93 182.942 155.79 182.802C155.65 182.662 155.58 182.494 155.58 182.298C155.58 182.111 155.65 181.948 155.79 181.808C155.93 181.668 156.102 181.598 156.308 181.598C156.513 181.598 156.686 181.668 156.826 181.808C156.966 181.939 157.036 182.097 157.036 182.284C157.036 182.489 156.966 182.662 156.826 182.802C156.686 182.942 156.513 183.012 156.308 183.012ZM162.151 184.58C163.113 184.58 163.85 184.823 164.363 185.308C164.877 185.784 165.133 186.493 165.133 187.436V192H164.181V190.852C163.957 191.235 163.626 191.533 163.187 191.748C162.758 191.963 162.245 192.07 161.647 192.07C160.826 192.07 160.173 191.874 159.687 191.482C159.202 191.09 158.959 190.572 158.959 189.928C158.959 189.303 159.183 188.799 159.631 188.416C160.089 188.033 160.812 187.842 161.801 187.842H164.139V187.394C164.139 186.759 163.962 186.279 163.607 185.952C163.253 185.616 162.735 185.448 162.053 185.448C161.587 185.448 161.139 185.527 160.709 185.686C160.28 185.835 159.911 186.045 159.603 186.316L159.155 185.574C159.529 185.257 159.977 185.014 160.499 184.846C161.022 184.669 161.573 184.58 162.151 184.58ZM161.801 191.286C162.361 191.286 162.842 191.16 163.243 190.908C163.645 190.647 163.943 190.273 164.139 189.788V188.584H161.829C160.569 188.584 159.939 189.023 159.939 189.9C159.939 190.329 160.103 190.67 160.429 190.922C160.756 191.165 161.213 191.286 161.801 191.286ZM174.581 181.612V192H173.629V190.544C173.33 191.039 172.933 191.417 172.439 191.678C171.953 191.939 171.403 192.07 170.787 192.07C170.096 192.07 169.471 191.911 168.911 191.594C168.351 191.277 167.912 190.833 167.595 190.264C167.277 189.695 167.119 189.046 167.119 188.318C167.119 187.59 167.277 186.941 167.595 186.372C167.912 185.803 168.351 185.364 168.911 185.056C169.471 184.739 170.096 184.58 170.787 184.58C171.384 184.58 171.921 184.706 172.397 184.958C172.882 185.201 173.279 185.56 173.587 186.036V181.612H174.581ZM170.871 191.188C171.384 191.188 171.846 191.071 172.257 190.838C172.677 190.595 173.003 190.255 173.237 189.816C173.479 189.377 173.601 188.878 173.601 188.318C173.601 187.758 173.479 187.259 173.237 186.82C173.003 186.381 172.677 186.045 172.257 185.812C171.846 185.569 171.384 185.448 170.871 185.448C170.348 185.448 169.877 185.569 169.457 185.812C169.046 186.045 168.719 186.381 168.477 186.82C168.243 187.259 168.127 187.758 168.127 188.318C168.127 188.878 168.243 189.377 168.477 189.816C168.719 190.255 169.046 190.595 169.457 190.838C169.877 191.071 170.348 191.188 170.871 191.188ZM188.157 184.636L185.371 192H184.433L182.109 185.966L179.785 192H178.847L176.075 184.636H177.027L179.337 190.894L181.703 184.636H182.557L184.909 190.894L187.247 184.636H188.157ZM192.011 184.58C192.972 184.58 193.709 184.823 194.223 185.308C194.736 185.784 194.993 186.493 194.993 187.436V192H194.041V190.852C193.817 191.235 193.485 191.533 193.047 191.748C192.617 191.963 192.104 192.07 191.507 192.07C190.685 192.07 190.032 191.874 189.547 191.482C189.061 191.09 188.819 190.572 188.819 189.928C188.819 189.303 189.043 188.799 189.491 188.416C189.948 188.033 190.671 187.842 191.661 187.842H193.999V187.394C193.999 186.759 193.821 186.279 193.467 185.952C193.112 185.616 192.594 185.448 191.913 185.448C191.446 185.448 190.998 185.527 190.569 185.686C190.139 185.835 189.771 186.045 189.463 186.316L189.015 185.574C189.388 185.257 189.836 185.014 190.359 184.846C190.881 184.669 191.432 184.58 192.011 184.58ZM191.661 191.286C192.221 191.286 192.701 191.16 193.103 190.908C193.504 190.647 193.803 190.273 193.999 189.788V188.584H191.689C190.429 188.584 189.799 189.023 189.799 189.9C189.799 190.329 189.962 190.67 190.289 190.922C190.615 191.165 191.073 191.286 191.661 191.286ZM197.693 181.612H198.687V192H197.693V181.612ZM64.18 201.58C64.8707 201.58 65.496 201.739 66.056 202.056C66.616 202.364 67.0547 202.803 67.372 203.372C67.6893 203.941 67.848 204.59 67.848 205.318C67.848 206.055 67.6893 206.709 67.372 207.278C67.0547 207.847 66.616 208.291 66.056 208.608C65.5053 208.916 64.88 209.07 64.18 209.07C63.5827 209.07 63.0413 208.949 62.556 208.706C62.08 208.454 61.688 208.09 61.38 207.614V211.716H60.386V201.636H61.338V203.092C61.6367 202.607 62.0287 202.233 62.514 201.972C63.0087 201.711 63.564 201.58 64.18 201.58ZM64.11 208.188C64.6233 208.188 65.09 208.071 65.51 207.838C65.93 207.595 66.2567 207.255 66.49 206.816C66.7327 206.377 66.854 205.878 66.854 205.318C66.854 204.758 66.7327 204.263 66.49 203.834C66.2567 203.395 65.93 203.055 65.51 202.812C65.09 202.569 64.6233 202.448 64.11 202.448C63.5873 202.448 63.116 202.569 62.696 202.812C62.2853 203.055 61.9587 203.395 61.716 203.834C61.4827 204.263 61.366 204.758 61.366 205.318C61.366 205.878 61.4827 206.377 61.716 206.816C61.9587 207.255 62.2853 207.595 62.696 207.838C63.116 208.071 63.5873 208.188 64.11 208.188ZM76.2863 205.626H70.1263C70.1823 206.391 70.4763 207.012 71.0083 207.488C71.5403 207.955 72.2123 208.188 73.0243 208.188C73.4816 208.188 73.9016 208.109 74.2843 207.95C74.6669 207.782 74.9983 207.539 75.2783 207.222L75.8383 207.866C75.5116 208.258 75.1009 208.557 74.6063 208.762C74.1209 208.967 73.5843 209.07 72.9963 209.07C72.2403 209.07 71.5683 208.911 70.9803 208.594C70.4016 208.267 69.9489 207.819 69.6223 207.25C69.2956 206.681 69.1323 206.037 69.1323 205.318C69.1323 204.599 69.2863 203.955 69.5943 203.386C69.9116 202.817 70.3409 202.373 70.8823 202.056C71.4329 201.739 72.0489 201.58 72.7303 201.58C73.4116 201.58 74.0229 201.739 74.5643 202.056C75.1056 202.373 75.5303 202.817 75.8383 203.386C76.1463 203.946 76.3003 204.59 76.3003 205.318L76.2863 205.626ZM72.7303 202.434C72.0209 202.434 71.4236 202.663 70.9383 203.12C70.4623 203.568 70.1916 204.156 70.1263 204.884H75.3483C75.2829 204.156 75.0076 203.568 74.5223 203.12C74.0463 202.663 73.4489 202.434 72.7303 202.434ZM82.0755 201.58C82.9995 201.58 83.7322 201.851 84.2735 202.392C84.8242 202.924 85.0995 203.703 85.0995 204.73V209H84.1055V204.828C84.1055 204.063 83.9142 203.479 83.5315 203.078C83.1488 202.677 82.6028 202.476 81.8935 202.476C81.1002 202.476 80.4702 202.714 80.0035 203.19C79.5462 203.657 79.3175 204.305 79.3175 205.136V209H78.3235V201.636H79.2755V202.994C79.5462 202.546 79.9195 202.201 80.3955 201.958C80.8808 201.706 81.4408 201.58 82.0755 201.58ZM93.8494 201.636L90.1674 209.882C89.8687 210.573 89.5234 211.063 89.1314 211.352C88.7394 211.641 88.2681 211.786 87.7174 211.786C87.3627 211.786 87.0314 211.73 86.7234 211.618C86.4154 211.506 86.1494 211.338 85.9254 211.114L86.3874 210.372C86.7607 210.745 87.2087 210.932 87.7314 210.932C88.0674 210.932 88.3521 210.839 88.5854 210.652C88.8281 210.465 89.0521 210.148 89.2574 209.7L89.5794 208.986L86.2894 201.636H87.3254L90.0974 207.894L92.8694 201.636H93.8494ZM101.456 205.626H95.2962C95.3522 206.391 95.6462 207.012 96.1782 207.488C96.7102 207.955 97.3822 208.188 98.1942 208.188C98.6515 208.188 99.0715 208.109 99.4542 207.95C99.8369 207.782 100.168 207.539 100.448 207.222L101.008 207.866C100.682 208.258 100.271 208.557 99.7762 208.762C99.2909 208.967 98.7542 209.07 98.1662 209.07C97.4102 209.07 96.7382 208.911 96.1502 208.594C95.5715 208.267 95.1189 207.819 94.7922 207.25C94.4655 206.681 94.3022 206.037 94.3022 205.318C94.3022 204.599 94.4562 203.955 94.7642 203.386C95.0815 202.817 95.5109 202.373 96.0522 202.056C96.6029 201.739 97.2189 201.58 97.9002 201.58C98.5815 201.58 99.1929 201.739 99.7342 202.056C100.276 202.373 100.7 202.817 101.008 203.386C101.316 203.946 101.47 204.59 101.47 205.318L101.456 205.626ZM97.9002 202.434C97.1909 202.434 96.5935 202.663 96.1082 203.12C95.6322 203.568 95.3615 204.156 95.2962 204.884H100.518C100.453 204.156 100.178 203.568 99.6922 203.12C99.2162 202.663 98.6189 202.434 97.9002 202.434ZM103.493 198.612H104.487V209H103.493V198.612ZM113.665 205.626H107.505C107.561 206.391 107.855 207.012 108.387 207.488C108.919 207.955 109.591 208.188 110.403 208.188C110.861 208.188 111.281 208.109 111.663 207.95C112.046 207.782 112.377 207.539 112.657 207.222L113.217 207.866C112.891 208.258 112.48 208.557 111.985 208.762C111.5 208.967 110.963 209.07 110.375 209.07C109.619 209.07 108.947 208.911 108.359 208.594C107.781 208.267 107.328 207.819 107.001 207.25C106.675 206.681 106.511 206.037 106.511 205.318C106.511 204.599 106.665 203.955 106.973 203.386C107.291 202.817 107.72 202.373 108.261 202.056C108.812 201.739 109.428 201.58 110.109 201.58C110.791 201.58 111.402 201.739 111.943 202.056C112.485 202.373 112.909 202.817 113.217 203.386C113.525 203.946 113.679 204.59 113.679 205.318L113.665 205.626ZM110.109 202.434C109.4 202.434 108.803 202.663 108.317 203.12C107.841 203.568 107.571 204.156 107.505 204.884H112.727C112.662 204.156 112.387 203.568 111.901 203.12C111.425 202.663 110.828 202.434 110.109 202.434ZM119.454 201.58C120.378 201.58 121.111 201.851 121.652 202.392C122.203 202.924 122.478 203.703 122.478 204.73V209H121.484V204.828C121.484 204.063 121.293 203.479 120.91 203.078C120.528 202.677 119.982 202.476 119.272 202.476C118.479 202.476 117.849 202.714 117.382 203.19C116.925 203.657 116.696 204.305 116.696 205.136V209H115.702V201.636H116.654V202.994C116.925 202.546 117.298 202.201 117.774 201.958C118.26 201.706 118.82 201.58 119.454 201.58ZM132.022 201.636V208.104C132.022 209.355 131.714 210.279 131.098 210.876C130.492 211.483 129.572 211.786 128.34 211.786C127.659 211.786 127.01 211.683 126.394 211.478C125.788 211.282 125.293 211.007 124.91 210.652L125.414 209.896C125.769 210.213 126.198 210.461 126.702 210.638C127.216 210.815 127.752 210.904 128.312 210.904C129.246 210.904 129.932 210.685 130.37 210.246C130.809 209.817 131.028 209.145 131.028 208.23V207.292C130.72 207.759 130.314 208.113 129.81 208.356C129.316 208.599 128.765 208.72 128.158 208.72C127.468 208.72 126.838 208.571 126.268 208.272C125.708 207.964 125.265 207.539 124.938 206.998C124.621 206.447 124.462 205.827 124.462 205.136C124.462 204.445 124.621 203.829 124.938 203.288C125.265 202.747 125.708 202.327 126.268 202.028C126.828 201.729 127.458 201.58 128.158 201.58C128.784 201.58 129.348 201.706 129.852 201.958C130.356 202.21 130.762 202.574 131.07 203.05V201.636H132.022ZM128.256 207.838C128.788 207.838 129.269 207.726 129.698 207.502C130.128 207.269 130.459 206.947 130.692 206.536C130.935 206.125 131.056 205.659 131.056 205.136C131.056 204.613 130.935 204.151 130.692 203.75C130.459 203.339 130.128 203.022 129.698 202.798C129.278 202.565 128.798 202.448 128.256 202.448C127.724 202.448 127.244 202.56 126.814 202.784C126.394 203.008 126.063 203.325 125.82 203.736C125.587 204.147 125.47 204.613 125.47 205.136C125.47 205.659 125.587 206.125 125.82 206.536C126.063 206.947 126.394 207.269 126.814 207.502C127.244 207.726 127.724 207.838 128.256 207.838ZM141.62 201.636V208.104C141.62 209.355 141.312 210.279 140.696 210.876C140.089 211.483 139.17 211.786 137.938 211.786C137.257 211.786 136.608 211.683 135.992 211.478C135.385 211.282 134.891 211.007 134.508 210.652L135.012 209.896C135.367 210.213 135.796 210.461 136.3 210.638C136.813 210.815 137.35 210.904 137.91 210.904C138.843 210.904 139.529 210.685 139.968 210.246C140.407 209.817 140.626 209.145 140.626 208.23V207.292C140.318 207.759 139.912 208.113 139.408 208.356C138.913 208.599 138.363 208.72 137.756 208.72C137.065 208.72 136.435 208.571 135.866 208.272C135.306 207.964 134.863 207.539 134.536 206.998C134.219 206.447 134.06 205.827 134.06 205.136C134.06 204.445 134.219 203.829 134.536 203.288C134.863 202.747 135.306 202.327 135.866 202.028C136.426 201.729 137.056 201.58 137.756 201.58C138.381 201.58 138.946 201.706 139.45 201.958C139.954 202.21 140.36 202.574 140.668 203.05V201.636H141.62ZM137.854 207.838C138.386 207.838 138.867 207.726 139.296 207.502C139.725 207.269 140.057 206.947 140.29 206.536C140.533 206.125 140.654 205.659 140.654 205.136C140.654 204.613 140.533 204.151 140.29 203.75C140.057 203.339 139.725 203.022 139.296 202.798C138.876 202.565 138.395 202.448 137.854 202.448C137.322 202.448 136.841 202.56 136.412 202.784C135.992 203.008 135.661 203.325 135.418 203.736C135.185 204.147 135.068 204.613 135.068 205.136C135.068 205.659 135.185 206.125 135.418 206.536C135.661 206.947 135.992 207.269 136.412 207.502C136.841 207.726 137.322 207.838 137.854 207.838ZM146.976 201.58C147.937 201.58 148.674 201.823 149.188 202.308C149.701 202.784 149.958 203.493 149.958 204.436V209H149.006V207.852C148.782 208.235 148.45 208.533 148.012 208.748C147.582 208.963 147.069 209.07 146.472 209.07C145.65 209.07 144.997 208.874 144.512 208.482C144.026 208.09 143.784 207.572 143.784 206.928C143.784 206.303 144.008 205.799 144.456 205.416C144.913 205.033 145.636 204.842 146.626 204.842H148.964V204.394C148.964 203.759 148.786 203.279 148.432 202.952C148.077 202.616 147.559 202.448 146.878 202.448C146.411 202.448 145.963 202.527 145.534 202.686C145.104 202.835 144.736 203.045 144.428 203.316L143.98 202.574C144.353 202.257 144.801 202.014 145.324 201.846C145.846 201.669 146.397 201.58 146.976 201.58ZM146.626 208.286C147.186 208.286 147.666 208.16 148.068 207.908C148.469 207.647 148.768 207.273 148.964 206.788V205.584H146.654C145.394 205.584 144.764 206.023 144.764 206.9C144.764 207.329 144.927 207.67 145.254 207.922C145.58 208.165 146.038 208.286 146.626 208.286ZM153.609 203.078C153.843 202.583 154.188 202.21 154.645 201.958C155.112 201.706 155.686 201.58 156.367 201.58V202.546L156.129 202.532C155.355 202.532 154.748 202.77 154.309 203.246C153.871 203.722 153.651 204.389 153.651 205.248V209H152.657V201.636H153.609V203.078ZM160.73 201.58C161.691 201.58 162.428 201.823 162.942 202.308C163.455 202.784 163.712 203.493 163.712 204.436V209H162.76V207.852C162.536 208.235 162.204 208.533 161.766 208.748C161.336 208.963 160.823 209.07 160.226 209.07C159.404 209.07 158.751 208.874 158.266 208.482C157.78 208.09 157.538 207.572 157.538 206.928C157.538 206.303 157.762 205.799 158.21 205.416C158.667 205.033 159.39 204.842 160.38 204.842H162.718V204.394C162.718 203.759 162.54 203.279 162.186 202.952C161.831 202.616 161.313 202.448 160.632 202.448C160.165 202.448 159.717 202.527 159.288 202.686C158.858 202.835 158.49 203.045 158.182 203.316L157.734 202.574C158.107 202.257 158.555 202.014 159.078 201.846C159.6 201.669 160.151 201.58 160.73 201.58ZM160.38 208.286C160.94 208.286 161.42 208.16 161.822 207.908C162.223 207.647 162.522 207.273 162.718 206.788V205.584H160.408C159.148 205.584 158.518 206.023 158.518 206.9C158.518 207.329 158.681 207.67 159.008 207.922C159.334 208.165 159.792 208.286 160.38 208.286ZM168.987 201.58C169.949 201.58 170.686 201.823 171.199 202.308C171.713 202.784 171.969 203.493 171.969 204.436V209H171.017V207.852C170.793 208.235 170.462 208.533 170.023 208.748C169.594 208.963 169.081 209.07 168.483 209.07C167.662 209.07 167.009 208.874 166.523 208.482C166.038 208.09 165.795 207.572 165.795 206.928C165.795 206.303 166.019 205.799 166.467 205.416C166.925 205.033 167.648 204.842 168.637 204.842H170.975V204.394C170.975 203.759 170.798 203.279 170.443 202.952C170.089 202.616 169.571 202.448 168.889 202.448C168.423 202.448 167.975 202.527 167.545 202.686C167.116 202.835 166.747 203.045 166.439 203.316L165.991 202.574C166.365 202.257 166.813 202.014 167.335 201.846C167.858 201.669 168.409 201.58 168.987 201.58ZM168.637 208.286C169.197 208.286 169.678 208.16 170.079 207.908C170.481 207.647 170.779 207.273 170.975 206.788V205.584H168.665C167.405 205.584 166.775 206.023 166.775 206.9C166.775 207.329 166.939 207.67 167.265 207.922C167.592 208.165 168.049 208.286 168.637 208.286ZM178.421 201.58C179.345 201.58 180.078 201.851 180.619 202.392C181.17 202.924 181.445 203.703 181.445 204.73V209H180.451V204.828C180.451 204.063 180.26 203.479 179.877 203.078C179.495 202.677 178.949 202.476 178.239 202.476C177.446 202.476 176.816 202.714 176.349 203.19C175.892 203.657 175.663 204.305 175.663 205.136V209H174.669V201.636H175.621V202.994C175.892 202.546 176.265 202.201 176.741 201.958C177.227 201.706 177.787 201.58 178.421 201.58ZM191.686 199.2C192.937 199.2 193.917 199.499 194.626 200.096C195.335 200.693 195.69 201.515 195.69 202.56C195.69 203.605 195.335 204.427 194.626 205.024C193.917 205.612 192.937 205.906 191.686 205.906H189.054V209H188.018V199.2H191.686ZM191.658 204.996C192.629 204.996 193.371 204.786 193.884 204.366C194.397 203.937 194.654 203.335 194.654 202.56C194.654 201.767 194.397 201.16 193.884 200.74C193.371 200.311 192.629 200.096 191.658 200.096H189.054V204.996H191.658ZM204.091 205.626H197.931C197.987 206.391 198.281 207.012 198.813 207.488C199.345 207.955 200.017 208.188 200.829 208.188C201.286 208.188 201.706 208.109 202.089 207.95C202.472 207.782 202.803 207.539 203.083 207.222L203.643 207.866C203.316 208.258 202.906 208.557 202.411 208.762C201.926 208.967 201.389 209.07 200.801 209.07C200.045 209.07 199.373 208.911 198.785 208.594C198.206 208.267 197.754 207.819 197.427 207.25C197.1 206.681 196.937 206.037 196.937 205.318C196.937 204.599 197.091 203.955 197.399 203.386C197.716 202.817 198.146 202.373 198.687 202.056C199.238 201.739 199.854 201.58 200.535 201.58C201.216 201.58 201.828 201.739 202.369 202.056C202.91 202.373 203.335 202.817 203.643 203.386C203.951 203.946 204.105 204.59 204.105 205.318L204.091 205.626ZM200.535 202.434C199.826 202.434 199.228 202.663 198.743 203.12C198.267 203.568 197.996 204.156 197.931 204.884H203.153C203.088 204.156 202.812 203.568 202.327 203.12C201.851 202.663 201.254 202.434 200.535 202.434ZM215.312 201.58C216.236 201.58 216.96 201.846 217.482 202.378C218.014 202.91 218.28 203.694 218.28 204.73V209H217.286V204.828C217.286 204.063 217.1 203.479 216.726 203.078C216.362 202.677 215.844 202.476 215.172 202.476C214.407 202.476 213.805 202.714 213.366 203.19C212.928 203.657 212.708 204.305 212.708 205.136V209H211.714V204.828C211.714 204.063 211.528 203.479 211.154 203.078C210.79 202.677 210.268 202.476 209.586 202.476C208.83 202.476 208.228 202.714 207.78 203.19C207.342 203.657 207.122 204.305 207.122 205.136V209H206.128V201.636H207.08V202.98C207.342 202.532 207.706 202.187 208.172 201.944C208.639 201.701 209.176 201.58 209.782 201.58C210.398 201.58 210.93 201.711 211.378 201.972C211.836 202.233 212.176 202.621 212.4 203.134C212.671 202.649 213.058 202.271 213.562 202C214.076 201.72 214.659 201.58 215.312 201.58ZM220.976 201.636H221.97V209H220.976V201.636ZM221.48 200.026C221.275 200.026 221.102 199.956 220.962 199.816C220.822 199.676 220.752 199.508 220.752 199.312C220.752 199.125 220.822 198.962 220.962 198.822C221.102 198.682 221.275 198.612 221.48 198.612C221.685 198.612 221.858 198.682 221.998 198.822C222.138 198.953 222.208 199.111 222.208 199.298C222.208 199.503 222.138 199.676 221.998 199.816C221.858 199.956 221.685 200.026 221.48 200.026ZM224.736 198.612H225.73V209H224.736V198.612ZM235.131 201.636V209H234.179V207.656C233.918 208.104 233.559 208.454 233.101 208.706C232.644 208.949 232.121 209.07 231.533 209.07C230.572 209.07 229.811 208.804 229.251 208.272C228.701 207.731 228.425 206.942 228.425 205.906V201.636H229.419V205.808C229.419 206.583 229.611 207.171 229.993 207.572C230.376 207.973 230.922 208.174 231.631 208.174C232.406 208.174 233.017 207.941 233.465 207.474C233.913 206.998 234.137 206.34 234.137 205.5V201.636H235.131ZM247.613 208.104V209H240.739V208.286L244.813 204.296C245.327 203.792 245.672 203.358 245.849 202.994C246.036 202.621 246.129 202.247 246.129 201.874C246.129 201.295 245.929 200.847 245.527 200.53C245.135 200.203 244.571 200.04 243.833 200.04C242.685 200.04 241.794 200.404 241.159 201.132L240.445 200.516C240.828 200.068 241.313 199.723 241.901 199.48C242.499 199.237 243.171 199.116 243.917 199.116C244.916 199.116 245.705 199.354 246.283 199.83C246.871 200.297 247.165 200.941 247.165 201.762C247.165 202.266 247.053 202.751 246.829 203.218C246.605 203.685 246.181 204.221 245.555 204.828L242.223 208.104H247.613ZM252.73 209.084C251.974 209.084 251.297 208.883 250.7 208.482C250.112 208.081 249.65 207.507 249.314 206.76C248.987 206.004 248.824 205.117 248.824 204.1C248.824 203.083 248.987 202.201 249.314 201.454C249.65 200.698 250.112 200.119 250.7 199.718C251.297 199.317 251.974 199.116 252.73 199.116C253.486 199.116 254.158 199.317 254.746 199.718C255.343 200.119 255.81 200.698 256.146 201.454C256.482 202.201 256.65 203.083 256.65 204.1C256.65 205.117 256.482 206.004 256.146 206.76C255.81 207.507 255.343 208.081 254.746 208.482C254.158 208.883 253.486 209.084 252.73 209.084ZM252.73 208.16C253.299 208.16 253.798 208.001 254.228 207.684C254.666 207.367 255.007 206.905 255.25 206.298C255.492 205.691 255.614 204.959 255.614 204.1C255.614 203.241 255.492 202.509 255.25 201.902C255.007 201.295 254.666 200.833 254.228 200.516C253.798 200.199 253.299 200.04 252.73 200.04C252.16 200.04 251.656 200.199 251.218 200.516C250.788 200.833 250.452 201.295 250.21 201.902C249.967 202.509 249.846 203.241 249.846 204.1C249.846 204.959 249.967 205.691 250.21 206.298C250.452 206.905 250.788 207.367 251.218 207.684C251.656 208.001 252.16 208.16 252.73 208.16ZM264.758 208.104V209H257.884V208.286L261.958 204.296C262.471 203.792 262.817 203.358 262.994 202.994C263.181 202.621 263.274 202.247 263.274 201.874C263.274 201.295 263.073 200.847 262.672 200.53C262.28 200.203 261.715 200.04 260.978 200.04C259.83 200.04 258.939 200.404 258.304 201.132L257.59 200.516C257.973 200.068 258.458 199.723 259.046 199.48C259.643 199.237 260.315 199.116 261.062 199.116C262.061 199.116 262.849 199.354 263.428 199.83C264.016 200.297 264.31 200.941 264.31 201.762C264.31 202.266 264.198 202.751 263.974 203.218C263.75 203.685 263.325 204.221 262.7 204.828L259.368 208.104H264.758ZM274.025 206.424H272.065V209H271.057V206.424H265.527V205.696L270.721 199.2H271.841L266.829 205.528H271.085V203.26H272.065V205.528H274.025V206.424ZM275.98 209.07C275.775 209.07 275.597 208.995 275.448 208.846C275.308 208.697 275.238 208.515 275.238 208.3C275.238 208.085 275.308 207.908 275.448 207.768C275.597 207.619 275.775 207.544 275.98 207.544C276.185 207.544 276.363 207.619 276.512 207.768C276.661 207.908 276.736 208.085 276.736 208.3C276.736 208.515 276.661 208.697 276.512 208.846C276.363 208.995 276.185 209.07 275.98 209.07Z"
    fill="white" />
  <path
    d="M65.784 130.384C64.2693 130.384 62.872 130.107 61.592 129.552C60.3333 128.976 59.2987 128.165 58.488 127.12L61.368 123.664C62.584 125.307 63.9707 126.128 65.528 126.128C67.64 126.128 68.696 124.891 68.696 122.416V111.76H60.824V107.6H73.848V122.128C73.848 124.88 73.1653 126.949 71.8 128.336C70.4347 129.701 68.4293 130.384 65.784 130.384ZM93.2518 125.2H82.8518L80.8678 130H75.5557L85.5398 107.6H90.6598L100.676 130H95.2358L93.2518 125.2ZM91.6198 121.264L88.0678 112.688L84.5158 121.264H91.6198ZM103 107.6H113.176C115.608 107.6 117.752 108.069 119.608 109.008C121.485 109.925 122.936 111.227 123.96 112.912C125.005 114.597 125.528 116.56 125.528 118.8C125.528 121.04 125.005 123.003 123.96 124.688C122.936 126.373 121.485 127.685 119.608 128.624C117.752 129.541 115.608 130 113.176 130H103V107.6ZM112.92 125.744C115.16 125.744 116.941 125.125 118.264 123.888C119.608 122.629 120.28 120.933 120.28 118.8C120.28 116.667 119.608 114.981 118.264 113.744C116.941 112.485 115.16 111.856 112.92 111.856H108.184V125.744H112.92ZM162.543 107.6L155.215 130H149.647L144.719 114.832L139.631 130H134.095L126.735 107.6H132.111L137.167 123.344L142.447 107.6H147.247L152.367 123.472L157.583 107.6H162.543ZM179.439 125.2H169.039L167.055 130H161.743L171.727 107.6H176.847L186.863 130H181.423L179.439 125.2ZM177.807 121.264L174.255 112.688L170.703 121.264H177.807ZM189.187 107.6H194.371V125.776H205.603V130H189.187V107.6ZM71.352 142.6C73.336 142.6 75.0533 142.931 76.504 143.592C77.976 144.253 79.1067 145.192 79.896 146.408C80.6853 147.624 81.08 149.064 81.08 150.728C81.08 152.371 80.6853 153.811 79.896 155.048C79.1067 156.264 77.976 157.203 76.504 157.864C75.0533 158.504 73.336 158.824 71.352 158.824H66.84V165H61.656V142.6H71.352ZM71.064 154.6C72.6213 154.6 73.8053 154.269 74.616 153.608C75.4267 152.925 75.832 151.965 75.832 150.728C75.832 149.469 75.4267 148.509 74.616 147.848C73.8053 147.165 72.6213 146.824 71.064 146.824H66.84V154.6H71.064ZM102.125 160.84V165H84.781V142.6H101.709V146.76H89.933V151.624H100.333V155.656H89.933V160.84H102.125ZM126.634 165L126.602 151.56L120.01 162.632H117.674L111.114 151.848V165H106.25V142.6H110.538L118.922 156.52L127.178 142.6H131.434L131.498 165H126.634ZM136.812 142.6H141.996V165H136.812V142.6ZM147.312 142.6H152.496V160.776H163.728V165H147.312V142.6ZM176.296 165.384C173.096 165.384 170.6 164.499 168.808 162.728C167.037 160.957 166.152 158.429 166.152 155.144V142.6H171.336V154.952C171.336 158.963 173 160.968 176.328 160.968C177.949 160.968 179.186 160.488 180.04 159.528C180.893 158.547 181.319 157.021 181.319 154.952V142.6H186.44V155.144C186.44 158.429 185.544 160.957 183.752 162.728C181.981 164.499 179.496 165.384 176.296 165.384Z"
    fill="white" />
  <defs>
    <clipPath id="clip0_0_1">
      <rect width="175" height="70" fill="white" transform="translate(147)" />
    </clipPath>
    <clipPath id="clip1_0_1">
      <rect width="175" height="70" fill="white" transform="translate(175 322) rotate(-180)" />
    </clipPath>
  </defs>
</svg>