<svg width="20" height="22" viewBox="0 0 20 22" fill="none" xmlns="http://www.w3.org/2000/svg">
  <path
    d="M14.6702 0.129883C15.0197 0.259549 15.1507 0.518881 15.1726 0.886268C15.2163 2.78804 16.5924 4.36564 18.3618 4.77625C18.6676 4.84108 18.9734 4.86269 19.2793 4.8843C19.738 4.90591 20.0001 5.16525 20.0001 5.61908C20.0001 6.69963 20.0001 7.78018 20.0001 8.86073C20.0001 9.31456 19.738 9.5955 19.2574 9.57389C17.8812 9.55228 16.5924 9.24973 15.3692 8.64462C15.3255 8.62301 15.26 8.6014 15.1726 8.55817C15.1726 8.66623 15.1726 8.73106 15.1726 8.81751C15.1726 10.8706 15.1944 12.9452 15.1507 14.9983C15.107 17.0081 14.277 18.6721 12.7916 20.012C11.3062 21.3519 9.51498 21.9354 7.52717 21.8273C4.27241 21.6544 1.49821 19.2124 0.908418 16.0356C0.187565 12.1456 2.76516 8.42851 6.69709 7.71534C7.11213 7.65051 7.52717 7.6289 7.96405 7.60729C8.35724 7.58568 8.64121 7.86662 8.64121 8.27723C8.64121 9.401 8.64121 10.5032 8.64121 11.6269C8.64121 12.0159 8.37909 12.2753 7.98589 12.2969C6.71894 12.3833 5.77964 13.1613 5.5612 14.3283C5.34276 15.5817 6.19468 16.8136 7.46163 17.0945C8.75043 17.3755 10.0392 16.5975 10.345 15.344C10.4106 15.0847 10.4324 14.8254 10.4324 14.566C10.4324 10.0277 10.4324 5.4678 10.4324 0.92949C10.4324 0.540492 10.5416 0.28116 10.913 0.129883C12.1581 0.129883 13.4251 0.129883 14.6702 0.129883ZM7.30873 8.94717C7.17766 8.96878 7.09029 8.96878 6.98107 8.99039C3.59524 9.53067 1.36714 12.9452 2.24091 16.2085C3.09282 19.3205 6.17283 21.1358 9.36207 20.401C11.9178 19.8175 13.8401 17.4403 13.8401 14.847C13.8401 12.4049 13.8401 9.96289 13.8401 7.52085C13.8401 7.21829 13.9056 6.98057 14.1896 6.82929C14.4736 6.67802 14.7139 6.76446 14.976 6.93735C15.5658 7.34796 16.2211 7.67212 16.9201 7.90984C17.4881 8.10434 18.056 8.2124 18.6676 8.25562C18.6676 7.56407 18.6676 6.89413 18.6676 6.22418C18.6676 6.18096 18.5584 6.09452 18.4929 6.09452C16.2211 5.6623 14.7357 4.36564 14.0367 2.18293C13.9493 1.9236 13.9056 1.64265 13.8619 1.40493C13.1411 1.40493 12.4202 1.40493 11.6994 1.40493C11.6994 1.51299 11.6994 1.59943 11.6994 1.70749C11.6994 6.02969 11.6994 10.3303 11.6994 14.6525C11.6994 14.9118 11.6994 15.1711 11.6338 15.4089C11.2407 17.4619 9.29653 18.7586 7.19951 18.3696C5.2117 18.0022 3.83552 16.014 4.25056 14.0474C4.57822 12.4914 5.5612 11.5189 7.11213 11.1083C7.17766 11.0867 7.26504 11.0218 7.26504 10.957C7.30872 10.3087 7.30873 9.66034 7.30873 8.94717Z"
    fill="white" />
</svg>