<svg width="24" height="22" viewBox="0 0 24 22" fill="none" xmlns="http://www.w3.org/2000/svg">
  <path
    d="M0.836458 0.252783C0.82772 0.267912 1.59663 1.30524 2.54029 2.55436C3.48614 3.80347 5.49361 6.46162 7.00303 8.45847L9.74664 12.0891L9.57189 12.2858C9.47141 12.3938 7.4552 14.5506 5.08949 17.0769C2.72597 19.6098 0.784033 21.6952 0.77748 21.719C0.768742 21.7428 1.18159 21.7622 1.77357 21.7557L2.78495 21.7514L3.11698 21.3905C3.30265 21.1938 5.02178 19.3569 6.93968 17.3039C8.85759 15.2508 10.4828 13.5133 10.5483 13.4377L10.6663 13.3015L11.6165 14.5614C12.1386 15.253 13.5781 17.1591 14.8123 18.7929L17.0622 21.7622H20.5048C23.3686 21.7622 23.9431 21.7536 23.9234 21.7017C23.9081 21.665 23.0366 20.5001 21.9815 19.1041C20.9264 17.7145 19.7206 16.1174 19.3034 15.562C18.8818 15.0088 17.6411 13.3598 16.5401 11.9076C15.4392 10.451 14.537 9.23864 14.537 9.22135C14.537 9.18893 20.3585 2.93687 22.3375 0.844923L22.9033 0.248457H21.8635L20.8281 0.252783L19.618 1.54944C18.9539 2.26261 17.3243 4.01093 15.9962 5.42429L13.589 7.99816L10.6685 4.13627L7.74354 0.270067L4.30092 0.246294C2.40704 0.235489 0.845195 0.239817 0.836458 0.252783ZM8.99302 4.41505C10.118 5.90837 11.8568 8.20562 12.8529 9.52606C13.849 10.8422 16.0618 13.7726 17.7721 16.031C19.4825 18.2958 20.8958 20.1695 20.9199 20.2019C20.9483 20.2451 20.6119 20.2581 19.382 20.2581H17.8093L14.6943 16.1347C7.50544 6.63235 3.87933 1.83038 3.83565 1.76123C3.80725 1.718 4.13054 1.70504 5.3691 1.70504H6.93968L8.99302 4.41505Z"
    fill="white" />
</svg>