<svg width="14" height="25" viewBox="0 0 14 25" fill="none" xmlns="http://www.w3.org/2000/svg">
  <path
    d="M13.1915 11.0261L12.8749 13.5684C12.8214 13.993 12.4617 14.3125 12.0352 14.3125H7.91759V24.9417C7.48336 24.9809 7.04338 25.001 6.59863 25.001C5.60391 25.001 4.6331 24.9015 3.69481 24.7121V14.3125H0.527967C0.237203 14.3125 0 14.0743 0 13.7826V10.6014C0 10.3097 0.237203 10.0715 0.527967 10.0715H3.69481V5.30071C3.69481 2.37298 6.05823 0 8.97448 0H12.6693C12.9601 0 13.1973 0.238159 13.1973 0.52988V3.71107C13.1973 4.00279 12.9601 4.24095 12.6693 4.24095H10.0295C8.86353 4.24095 7.91855 5.18976 7.91855 6.36143V10.0725H12.3527C12.8615 10.0725 13.2546 10.5201 13.1925 11.027L13.1915 11.0261Z"
    fill="#Fff" />
</svg>