<svg width="27" height="27" viewBox="0 0 27 27" fill="none" xmlns="http://www.w3.org/2000/svg">
  <path
    d="M13.5081 27C11.568 27 9.63596 27 7.69589 27C5.06351 27.0081 2.90608 24.8526 2.90608 22.2306C2.90608 20.2922 2.90608 18.3619 2.90608 16.4236C2.90608 15.925 3.25224 15.5148 3.71109 15.4504C4.20215 15.3861 4.6449 15.6515 4.7898 16.118C4.83005 16.2386 4.83005 16.3754 4.83005 16.504C4.83005 18.3861 4.83005 20.2762 4.83005 22.1582C4.83005 23.7909 6.11002 25.0697 7.75224 25.0778C11.5841 25.0778 15.424 25.0778 19.2558 25.0778C20.898 25.0778 22.178 23.7989 22.178 22.1662C22.178 20.252 22.178 18.3378 22.178 16.4156C22.178 15.933 22.5161 15.5228 22.9669 15.4504C23.4499 15.37 23.9007 15.6354 24.0537 16.1019C24.0939 16.2225 24.102 16.3593 24.102 16.488C24.102 18.4424 24.11 20.3968 24.102 22.3593C24.0939 24.563 22.2987 26.6381 20.1172 26.9437C19.771 26.992 19.4168 27.0081 19.0707 27.0081C17.2272 27 15.3676 26.992 13.5081 27C13.5081 26.992 13.5081 26.992 13.5081 27Z"
    fill="#1D55A0" />
  <path
    d="M13.4839 2.3406C13.3873 2.45321 13.3229 2.54168 13.2424 2.62211C9.42667 6.43444 5.61093 10.2468 1.79519 14.0671C1.56173 14.3004 1.31218 14.4854 0.957978 14.4693C0.571574 14.4532 0.281771 14.2763 0.112719 13.9385C-0.0643831 13.5926 -0.0321827 13.2387 0.20127 12.917C0.265671 12.8285 0.346172 12.7562 0.426672 12.6757C4.51612 8.59798 8.60556 4.51219 12.695 0.426396C13.2666 -0.14465 13.7657 -0.14465 14.3292 0.418353C18.4267 4.51219 22.5161 8.60602 26.6217 12.6918C27.1449 13.2066 27.0725 13.8339 26.7666 14.1637C26.3882 14.5658 25.7845 14.598 25.3658 14.2039C25.0197 13.8822 24.6977 13.5363 24.3596 13.2066C20.8256 9.66768 17.2997 6.13685 13.7657 2.60602C13.6852 2.52559 13.6047 2.45321 13.4839 2.3406Z"
    fill="#1D55A0" />
</svg>