<svg width="23" height="22" viewBox="0 0 23 22" fill="none" xmlns="http://www.w3.org/2000/svg">
  <path
    d="M11.1186 0C12.7569 0.043222 14.3952 0.043222 16.0117 0.129666C17.934 0.21611 19.616 0.86444 20.8174 2.44204C21.5601 3.41454 21.9533 4.5167 22.0406 5.7053C22.2591 8.49312 22.1936 11.3026 22.1499 14.0904C22.128 15.0629 22.0843 16.057 21.9314 17.0079C21.5382 19.4931 19.616 21.3517 17.1257 21.7839C15.8369 22 14.5263 22 13.2375 22C11.2278 22.0216 9.21819 22 7.20853 21.9784C6.09449 21.9568 5.00229 21.8919 3.93193 21.4813C1.96596 20.725 0.764542 19.2986 0.283973 17.2672C0 16.1434 0 15.0196 0 13.8743C0 11.6267 0 9.37917 0.021844 7.13163C0.0436881 6.05108 0.131064 4.99214 0.502413 3.97642C1.26695 1.98821 2.70866 0.799607 4.78385 0.324165C5.98527 0.043222 7.20853 0.064833 8.45365 0.043222C9.34925 0.021611 10.223 0.043222 11.1186 0.043222C11.1186 0.021611 11.1186 0.021611 11.1186 0ZM11.0968 2.07466C11.0968 2.05305 11.0968 2.03143 11.0968 2.03143C10.4196 2.03143 9.7206 2.00982 9.04344 2.03143C7.82017 2.07466 6.5969 2.07466 5.39548 2.24754C3.84455 2.46365 2.75235 3.39293 2.31547 4.9057C2.14072 5.53242 2.05334 6.18075 2.0315 6.82908C1.98781 8.88212 1.96596 10.9568 1.98781 13.0098C2.00965 14.22 2.0315 15.4519 2.20625 16.6405C2.42469 18.11 3.29845 19.1473 4.762 19.6444C5.43917 19.8821 6.16002 19.947 6.85903 19.947C8.93421 19.9686 11.0312 20.0118 13.1064 19.9902C14.3297 19.9686 15.5748 19.947 16.7762 19.7741C18.3053 19.558 19.3757 18.6719 19.8125 17.1807C20.0091 16.5324 20.0965 15.8409 20.1184 15.1709C20.1621 13.1179 20.1839 11.0864 20.1621 9.0334C20.1402 7.82318 20.1184 6.59135 19.9436 5.38114C19.7252 3.82515 18.8077 2.7446 17.2568 2.31238C16.6452 2.13949 15.968 2.05305 15.3345 2.05305C13.9365 2.05305 12.5166 2.07466 11.0968 2.07466Z"
    fill="white" />
  <path
    d="M5.39551 11.0216C5.39551 7.88798 7.95126 5.3811 11.1186 5.3811C14.286 5.40271 16.7981 7.90959 16.7981 11.0216C16.7981 14.1552 14.2423 16.662 11.075 16.662C7.90757 16.6404 5.39551 14.1336 5.39551 11.0216ZM7.38332 11C7.36147 13.0098 9.04346 14.6522 11.075 14.6738C13.1065 14.6954 14.7666 13.053 14.7884 11.0216C14.8103 9.01175 13.1283 7.36932 11.0968 7.3477C9.08715 7.3477 7.40516 8.99014 7.38332 11Z"
    fill="white" />
  <path
    d="M17.0384 3.84675C17.781 3.84675 18.3708 4.45186 18.3708 5.18664C18.3708 5.8998 17.7374 6.50491 17.0165 6.50491C16.2957 6.50491 15.684 5.87819 15.684 5.16502C15.684 4.43025 16.2957 3.82514 17.0384 3.84675Z"
    fill="white" />
</svg>