<svg width="28" height="30" viewBox="0 0 28 30" fill="none" xmlns="http://www.w3.org/2000/svg">
  <path
    d="M22.1606 30C21.7592 29.8973 21.3504 29.824 20.9563 29.6773C18.4015 28.7457 16.9928 26.0611 17.657 23.4132C17.6789 23.3398 17.6862 23.2592 17.7081 23.1565C14.9855 21.7628 12.2628 20.3618 9.52561 18.9535C8.35773 20.4572 6.84678 21.2274 4.94897 21.1394C3.6132 21.0807 2.46722 20.5452 1.52561 19.5917C-0.481686 17.5672 -0.518183 14.3765 1.44532 12.2494C3.27744 10.2616 6.83948 9.81417 9.21174 12.3887C12.0731 10.6577 14.9417 8.92664 17.803 7.20292C17.7154 6.79217 17.5913 6.38874 17.5475 5.97799C17.2993 3.78483 18.0877 2.02444 19.9271 0.843512C23.0658 -1.18094 27.1314 0.601458 27.8906 4.26894C28.4891 7.18092 26.4161 10.1076 23.4891 10.489C21.6862 10.7237 20.1606 10.1736 18.9052 8.86063C18.7811 8.7286 18.6935 8.72126 18.5402 8.81662C15.803 10.4743 13.0731 12.1247 10.3285 13.7751C10.1606 13.8777 10.1242 13.9584 10.1971 14.1418C10.5475 15.11 10.584 16.1002 10.3431 17.1051C10.2993 17.2738 10.3066 17.3839 10.4964 17.4792C13.1242 18.8215 15.7519 20.1711 18.3723 21.5134C18.4161 21.5354 18.4599 21.5501 18.4672 21.5574C18.876 21.1834 19.2409 20.7799 19.6716 20.4719C21.2555 19.3423 22.9855 19.1222 24.7738 19.8777C26.5621 20.6332 27.6205 22.0269 27.9271 23.9633C28.365 26.7213 26.5037 29.3619 23.7446 29.9046C23.6059 29.934 23.4672 29.9707 23.3285 30C22.9344 30 22.5475 30 22.1606 30ZM26.2409 5.2885C26.2482 3.37407 24.6789 1.78239 22.7665 1.76772C20.8541 1.74571 19.2555 3.34473 19.2482 5.27383C19.2409 7.18826 20.8103 8.77994 22.7227 8.79461C24.6278 8.81662 26.2336 7.2176 26.2409 5.2885ZM5.24824 12.3667C3.34313 12.3741 1.76649 13.9511 1.75919 15.8729C1.75189 17.7946 3.35043 19.401 5.26284 19.3936C7.16795 19.3863 8.74459 17.8093 8.75189 15.8875C8.75919 13.9731 7.16065 12.3667 5.24824 12.3667ZM22.73 21.2127C20.8176 21.22 19.2482 22.8117 19.2409 24.7262C19.2409 26.6479 20.8395 28.2543 22.7519 28.2396C24.6643 28.2323 26.2336 26.6406 26.2409 24.7262C26.2409 22.8044 24.6424 21.2054 22.73 21.2127Z"
    fill="white" />
</svg>