<svg width="20" height="22" viewBox="0 0 20 22" fill="none" xmlns="http://www.w3.org/2000/svg">
  <path
    d="M14.67 0.129639C15.0195 0.259305 15.1506 0.518637 15.1725 0.886024C15.2161 2.78779 16.5923 4.3654 18.3617 4.776C18.6675 4.84084 18.9733 4.86245 19.2791 4.88406C19.7379 4.90567 20 5.165 20 5.61883C20 6.69938 20 7.77993 20 8.86048C20 9.31431 19.7379 9.59526 19.2573 9.57365C17.8811 9.55204 16.5923 9.24948 15.3691 8.64437C15.3254 8.62276 15.2598 8.60115 15.1725 8.55793C15.1725 8.66598 15.1725 8.73082 15.1725 8.81726C15.1725 10.8703 15.1943 12.945 15.1506 14.998C15.1069 17.0078 14.2769 18.6719 12.7915 20.0118C11.3061 21.3516 9.51485 21.9351 7.52705 21.8271C4.27228 21.6542 1.49809 19.2122 0.908296 16.0353C0.187443 12.1454 2.76504 8.42826 6.69697 7.7151C7.112 7.65027 7.52704 7.62866 7.96393 7.60705C8.35712 7.58543 8.64109 7.86638 8.64109 8.27699C8.64109 9.40076 8.64109 10.5029 8.64109 11.6267C8.64109 12.0157 8.37896 12.275 7.98577 12.2966C6.71882 12.3831 5.77952 13.1611 5.56108 14.3281C5.34264 15.5815 6.19455 16.8133 7.46151 17.0943C8.75031 17.3752 10.0391 16.5972 10.3449 15.3438C10.4105 15.0845 10.4323 14.8251 10.4323 14.5658C10.4323 10.0275 10.4323 5.46756 10.4323 0.929246C10.4323 0.540248 10.5415 0.280916 10.9129 0.129639C12.158 0.129639 13.4249 0.129639 14.67 0.129639ZM7.3086 8.94693C7.17754 8.96854 7.09016 8.96854 6.98094 8.99015C3.59512 9.53042 1.36702 12.945 2.24078 16.2082C3.0927 19.3202 6.17271 21.1355 9.36194 20.4008C11.9177 19.8173 13.84 17.4401 13.84 14.8467C13.84 12.4047 13.84 9.96264 13.84 7.5206C13.84 7.21805 13.9055 6.98033 14.1895 6.82905C14.4735 6.67777 14.7137 6.76422 14.9759 6.9371C15.5657 7.34771 16.221 7.67188 16.92 7.9096C17.4879 8.1041 18.0559 8.21215 18.6675 8.25538C18.6675 7.56382 18.6675 6.89388 18.6675 6.22394C18.6675 6.18072 18.5583 6.09428 18.4928 6.09428C16.221 5.66206 14.7356 4.3654 14.0366 2.18268C13.9492 1.92335 13.9055 1.64241 13.8618 1.40469C13.141 1.40469 12.4201 1.40469 11.6993 1.40469C11.6993 1.51274 11.6993 1.59919 11.6993 1.70724C11.6993 6.02944 11.6993 10.33 11.6993 14.6522C11.6993 14.9116 11.6993 15.1709 11.6337 15.4086C11.2405 17.4617 9.29641 18.7583 7.19938 18.3693C5.21158 18.0019 3.8354 16.0137 4.25044 14.0471C4.5781 12.4911 5.56108 11.5186 7.11201 11.108C7.17754 11.0864 7.26491 11.0216 7.26491 10.9568C7.3086 10.3084 7.3086 9.66009 7.3086 8.94693Z"
    fill="white" />
</svg>