<svg width="24" height="22" viewBox="0 0 24 22" fill="none" xmlns="http://www.w3.org/2000/svg">
  <path
    d="M0.836397 0.252783C0.827659 0.267912 1.59657 1.30524 2.54023 2.55436C3.48608 3.80347 5.49355 6.46162 7.00297 8.45847L9.74658 12.0891L9.57183 12.2858C9.47135 12.3938 7.45514 14.5506 5.08943 17.0769C2.72591 19.6098 0.783972 21.6952 0.777419 21.719C0.768681 21.7428 1.18153 21.7622 1.77351 21.7557L2.78488 21.7514L3.11692 21.3905C3.30259 21.1938 5.02172 19.3569 6.93962 17.3039C8.85753 15.2508 10.4827 13.5133 10.5483 13.4377L10.6662 13.3015L11.6164 14.5614C12.1385 15.253 13.578 17.1591 14.8122 18.7929L17.0622 21.7622H20.5048C23.3685 21.7622 23.943 21.7536 23.9234 21.7017C23.9081 21.665 23.0365 20.5001 21.9814 19.1041C20.9264 17.7145 19.7206 16.1174 19.3033 15.562C18.8818 15.0088 17.641 13.3598 16.5401 11.9076C15.4391 10.451 14.537 9.23864 14.537 9.22135C14.537 9.18893 20.3584 2.93687 22.3375 0.844923L22.9032 0.248457H21.8635L20.8281 0.252783L19.6179 1.54944C18.9538 2.26261 17.3243 4.01093 15.9962 5.42429L13.5889 7.99816L10.6684 4.13627L7.74348 0.270067L4.30086 0.246294C2.40698 0.235489 0.845134 0.239817 0.836397 0.252783ZM8.99296 4.41505C10.1179 5.90837 11.8567 8.20562 12.8528 9.52606C13.8489 10.8422 16.0617 13.7726 17.7721 16.031C19.4825 18.2958 20.8958 20.1695 20.9198 20.2019C20.9482 20.2451 20.6118 20.2581 19.382 20.2581H17.8092L14.6943 16.1347C7.50538 6.63235 3.87927 1.83038 3.83558 1.76123C3.80719 1.718 4.13048 1.70504 5.36904 1.70504H6.93962L8.99296 4.41505Z"
    fill="white" />
</svg>