<svg width="281" height="116" viewBox="0 0 281 116" fill="none" xmlns="http://www.w3.org/2000/svg">
  <g clip-path="url(#clip0_870_2082)">
    <path
      d="M280.999 57.6914C280.999 57.6914 272.788 64.9347 274.158 76.7516C275.528 88.5685 272.107 101.294 255.005 102.203C237.906 103.111 255.005 115.383 223.539 115.383H57.4587C25.9932 115.383 43.0919 103.111 25.9932 102.203C8.89079 101.294 5.47405 88.5722 6.83999 76.7516C8.20594 64.9347 -0.000976562 57.6914 -0.000976562 57.6914C-0.000976562 57.6914 8.20594 50.448 6.83999 38.6311C5.4703 26.8142 8.89079 14.0886 25.9932 13.1799C43.0919 12.2712 25.9932 0 57.4587 0H223.543C255.009 0 237.906 12.2712 255.009 13.1799C272.111 14.0886 275.528 26.8142 274.162 38.6311C272.792 50.448 281.003 57.6914 281.003 57.6914H280.999Z"
      fill="#1C4278" />
  </g>
  <defs>
    <clipPath id="clip0_870_2082">
      <rect width="281" height="115.386" fill="white" />
    </clipPath>
  </defs>
</svg>