<svg width="1398" height="644" viewBox="0 0 1398 644" fill="none" xmlns="http://www.w3.org/2000/svg">
  <circle cx="7" cy="7" r="7" fill="#E4BC27" />
  <circle cx="583" cy="7" r="7" fill="#E4BC27" />
  <circle cx="43" cy="7" r="7" fill="#E4BC27" />
  <circle cx="619" cy="7" r="7" fill="#E4BC27" />
  <circle cx="79" cy="7" r="7" fill="#E4BC27" />
  <circle cx="655" cy="7" r="7" fill="#E4BC27" />
  <circle cx="115" cy="7" r="7" fill="#E4BC27" />
  <circle cx="691" cy="7" r="7" fill="#E4BC27" />
  <circle cx="151" cy="7" r="7" fill="#E4BC27" />
  <circle cx="727" cy="7" r="7" fill="#E4BC27" />
  <circle cx="187" cy="7" r="7" fill="#E4BC27" />
  <circle cx="763" cy="7" r="7" fill="#E4BC27" />
  <circle cx="223" cy="7" r="7" fill="#E4BC27" />
  <circle cx="799" cy="7" r="7" fill="#E4BC27" />
  <circle cx="259" cy="7" r="7" fill="#E4BC27" />
  <circle cx="835" cy="7" r="7" fill="#E4BC27" />
  <circle cx="295" cy="7" r="7" fill="#E4BC27" />
  <circle cx="871" cy="7" r="7" fill="#E4BC27" />
  <circle cx="331" cy="7" r="7" fill="#E4BC27" />
  <circle cx="907" cy="7" r="7" fill="#E4BC27" />
  <circle cx="1159" cy="7" r="7" fill="#E4BC27" />
  <circle cx="367" cy="7" r="7" fill="#E4BC27" />
  <circle cx="943" cy="7" r="7" fill="#E4BC27" />
  <circle cx="1195" cy="7" r="7" fill="#E4BC27" />
  <circle cx="403" cy="7" r="7" fill="#E4BC27" />
  <circle cx="979" cy="7" r="7" fill="#E4BC27" />
  <circle cx="1231" cy="7" r="7" fill="#E4BC27" />
  <circle cx="439" cy="7" r="7" fill="#E4BC27" />
  <circle cx="1015" cy="7" r="7" fill="#E4BC27" />
  <circle cx="1267" cy="7" r="7" fill="#E4BC27" />
  <circle cx="475" cy="7" r="7" fill="#E4BC27" />
  <circle cx="1051" cy="7" r="7" fill="#E4BC27" />
  <circle cx="1303" cy="7" r="7" fill="#E4BC27" />
  <circle cx="511" cy="7" r="7" fill="#E4BC27" />
  <circle cx="1087" cy="7" r="7" fill="#E4BC27" />
  <circle cx="1339" cy="7" r="7" fill="#E4BC27" />
  <circle cx="547" cy="7" r="7" fill="#E4BC27" />
  <circle cx="1123" cy="7" r="7" fill="#E4BC27" />
  <circle cx="1375" cy="7" r="7" fill="#E4BC27" />
  <circle cx="7" cy="487" r="7" fill="#E4BC27" />
  <circle cx="583" cy="487" r="7" fill="#E4BC27" />
  <circle cx="43" cy="487" r="7" fill="#E4BC27" />
  <circle cx="619" cy="487" r="7" fill="#E4BC27" />
  <circle cx="79" cy="487" r="7" fill="#E4BC27" />
  <circle cx="655" cy="487" r="7" fill="#E4BC27" />
  <circle cx="115" cy="487" r="7" fill="#E4BC27" />
  <circle cx="691" cy="487" r="7" fill="#E4BC27" />
  <circle cx="151" cy="487" r="7" fill="#E4BC27" />
  <circle cx="727" cy="487" r="7" fill="#E4BC27" />
  <circle cx="187" cy="487" r="7" fill="#E4BC27" />
  <circle cx="763" cy="487" r="7" fill="#E4BC27" />
  <circle cx="223" cy="487" r="7" fill="#E4BC27" />
  <circle cx="799" cy="487" r="7" fill="#E4BC27" />
  <circle cx="259" cy="487" r="7" fill="#E4BC27" />
  <circle cx="835" cy="487" r="7" fill="#E4BC27" />
  <circle cx="295" cy="487" r="7" fill="#E4BC27" />
  <circle cx="871" cy="487" r="7" fill="#E4BC27" />
  <circle cx="331" cy="487" r="7" fill="#E4BC27" />
  <circle cx="907" cy="487" r="7" fill="#E4BC27" />
  <circle cx="1159" cy="487" r="7" fill="#E4BC27" />
  <circle cx="367" cy="487" r="7" fill="#E4BC27" />
  <circle cx="943" cy="487" r="7" fill="#E4BC27" />
  <circle cx="1195" cy="487" r="7" fill="#E4BC27" />
  <circle cx="403" cy="487" r="7" fill="#E4BC27" />
  <circle cx="979" cy="487" r="7" fill="#E4BC27" />
  <circle cx="1231" cy="487" r="7" fill="#E4BC27" />
  <circle cx="439" cy="487" r="7" fill="#E4BC27" />
  <circle cx="1015" cy="487" r="7" fill="#E4BC27" />
  <circle cx="1267" cy="487" r="7" fill="#E4BC27" />
  <circle cx="475" cy="487" r="7" fill="#E4BC27" />
  <circle cx="1051" cy="487" r="7" fill="#E4BC27" />
  <circle cx="1303" cy="487" r="7" fill="#E4BC27" />
  <circle cx="511" cy="487" r="7" fill="#E4BC27" />
  <circle cx="1087" cy="487" r="7" fill="#E4BC27" />
  <circle cx="1339" cy="487" r="7" fill="#E4BC27" />
  <circle cx="547" cy="487" r="7" fill="#E4BC27" />
  <circle cx="1123" cy="487" r="7" fill="#E4BC27" />
  <circle cx="1375" cy="487" r="7" fill="#E4BC27" />
  <circle cx="7" cy="247" r="7" fill="#E4BC27" />
  <circle cx="583" cy="247" r="7" fill="#E4BC27" />
  <circle cx="43" cy="247" r="7" fill="#E4BC27" />
  <circle cx="619" cy="247" r="7" fill="#E4BC27" />
  <circle cx="79" cy="247" r="7" fill="#E4BC27" />
  <circle cx="655" cy="247" r="7" fill="#E4BC27" />
  <circle cx="115" cy="247" r="7" fill="#E4BC27" />
  <circle cx="691" cy="247" r="7" fill="#E4BC27" />
  <circle cx="151" cy="247" r="7" fill="#E4BC27" />
  <circle cx="727" cy="247" r="7" fill="#E4BC27" />
  <circle cx="187" cy="247" r="7" fill="#E4BC27" />
  <circle cx="763" cy="247" r="7" fill="#E4BC27" />
  <circle cx="223" cy="247" r="7" fill="#E4BC27" />
  <circle cx="799" cy="247" r="7" fill="#E4BC27" />
  <circle cx="259" cy="247" r="7" fill="#E4BC27" />
  <circle cx="835" cy="247" r="7" fill="#E4BC27" />
  <circle cx="295" cy="247" r="7" fill="#E4BC27" />
  <circle cx="871" cy="247" r="7" fill="#E4BC27" />
  <circle cx="331" cy="247" r="7" fill="#E4BC27" />
  <circle cx="907" cy="247" r="7" fill="#E4BC27" />
  <circle cx="1159" cy="247" r="7" fill="#E4BC27" />
  <circle cx="367" cy="247" r="7" fill="#E4BC27" />
  <circle cx="943" cy="247" r="7" fill="#E4BC27" />
  <circle cx="1195" cy="247" r="7" fill="#E4BC27" />
  <circle cx="403" cy="247" r="7" fill="#E4BC27" />
  <circle cx="979" cy="247" r="7" fill="#E4BC27" />
  <circle cx="1231" cy="247" r="7" fill="#E4BC27" />
  <circle cx="439" cy="247" r="7" fill="#E4BC27" />
  <circle cx="1015" cy="247" r="7" fill="#E4BC27" />
  <circle cx="1267" cy="247" r="7" fill="#E4BC27" />
  <circle cx="475" cy="247" r="7" fill="#E4BC27" />
  <circle cx="1051" cy="247" r="7" fill="#E4BC27" />
  <circle cx="1303" cy="247" r="7" fill="#E4BC27" />
  <circle cx="511" cy="247" r="7" fill="#E4BC27" />
  <circle cx="1087" cy="247" r="7" fill="#E4BC27" />
  <circle cx="1339" cy="247" r="7" fill="#E4BC27" />
  <circle cx="547" cy="247" r="7" fill="#E4BC27" />
  <circle cx="1123" cy="247" r="7" fill="#E4BC27" />
  <circle cx="1375" cy="247" r="7" fill="#E4BC27" />
  <circle cx="7" cy="127" r="7" fill="#E4BC27" />
  <circle cx="583" cy="127" r="7" fill="#E4BC27" />
  <circle cx="43" cy="127" r="7" fill="#E4BC27" />
  <circle cx="619" cy="127" r="7" fill="#E4BC27" />
  <circle cx="79" cy="127" r="7" fill="#E4BC27" />
  <circle cx="655" cy="127" r="7" fill="#E4BC27" />
  <circle cx="115" cy="127" r="7" fill="#E4BC27" />
  <circle cx="691" cy="127" r="7" fill="#E4BC27" />
  <circle cx="151" cy="127" r="7" fill="#E4BC27" />
  <circle cx="727" cy="127" r="7" fill="#E4BC27" />
  <circle cx="187" cy="127" r="7" fill="#E4BC27" />
  <circle cx="763" cy="127" r="7" fill="#E4BC27" />
  <circle cx="223" cy="127" r="7" fill="#E4BC27" />
  <circle cx="799" cy="127" r="7" fill="#E4BC27" />
  <circle cx="259" cy="127" r="7" fill="#E4BC27" />
  <circle cx="835" cy="127" r="7" fill="#E4BC27" />
  <circle cx="295" cy="127" r="7" fill="#E4BC27" />
  <circle cx="871" cy="127" r="7" fill="#E4BC27" />
  <circle cx="331" cy="127" r="7" fill="#E4BC27" />
  <circle cx="907" cy="127" r="7" fill="#E4BC27" />
  <circle cx="1159" cy="127" r="7" fill="#E4BC27" />
  <circle cx="367" cy="127" r="7" fill="#E4BC27" />
  <circle cx="943" cy="127" r="7" fill="#E4BC27" />
  <circle cx="1195" cy="127" r="7" fill="#E4BC27" />
  <circle cx="403" cy="127" r="7" fill="#E4BC27" />
  <circle cx="979" cy="127" r="7" fill="#E4BC27" />
  <circle cx="1231" cy="127" r="7" fill="#E4BC27" />
  <circle cx="439" cy="127" r="7" fill="#E4BC27" />
  <circle cx="1015" cy="127" r="7" fill="#E4BC27" />
  <circle cx="1267" cy="127" r="7" fill="#E4BC27" />
  <circle cx="475" cy="127" r="7" fill="#E4BC27" />
  <circle cx="1051" cy="127" r="7" fill="#E4BC27" />
  <circle cx="1303" cy="127" r="7" fill="#E4BC27" />
  <circle cx="511" cy="127" r="7" fill="#E4BC27" />
  <circle cx="1087" cy="127" r="7" fill="#E4BC27" />
  <circle cx="1339" cy="127" r="7" fill="#E4BC27" />
  <circle cx="547" cy="127" r="7" fill="#E4BC27" />
  <circle cx="1123" cy="127" r="7" fill="#E4BC27" />
  <circle cx="1375" cy="127" r="7" fill="#E4BC27" />
  <circle cx="7" cy="607" r="7" fill="#E4BC27" />
  <circle cx="583" cy="607" r="7" fill="#E4BC27" />
  <circle cx="43" cy="607" r="7" fill="#E4BC27" />
  <circle cx="619" cy="607" r="7" fill="#E4BC27" />
  <circle cx="79" cy="607" r="7" fill="#E4BC27" />
  <circle cx="655" cy="607" r="7" fill="#E4BC27" />
  <circle cx="115" cy="607" r="7" fill="#E4BC27" />
  <circle cx="691" cy="607" r="7" fill="#E4BC27" />
  <circle cx="151" cy="607" r="7" fill="#E4BC27" />
  <circle cx="727" cy="607" r="7" fill="#E4BC27" />
  <circle cx="187" cy="607" r="7" fill="#E4BC27" />
  <circle cx="763" cy="607" r="7" fill="#E4BC27" />
  <circle cx="223" cy="607" r="7" fill="#E4BC27" />
  <circle cx="799" cy="607" r="7" fill="#E4BC27" />
  <circle cx="259" cy="607" r="7" fill="#E4BC27" />
  <circle cx="835" cy="607" r="7" fill="#E4BC27" />
  <circle cx="295" cy="607" r="7" fill="#E4BC27" />
  <circle cx="871" cy="607" r="7" fill="#E4BC27" />
  <circle cx="331" cy="607" r="7" fill="#E4BC27" />
  <circle cx="907" cy="607" r="7" fill="#E4BC27" />
  <circle cx="1159" cy="607" r="7" fill="#E4BC27" />
  <circle cx="367" cy="607" r="7" fill="#E4BC27" />
  <circle cx="943" cy="607" r="7" fill="#E4BC27" />
  <circle cx="1195" cy="607" r="7" fill="#E4BC27" />
  <circle cx="403" cy="607" r="7" fill="#E4BC27" />
  <circle cx="979" cy="607" r="7" fill="#E4BC27" />
  <circle cx="1231" cy="607" r="7" fill="#E4BC27" />
  <circle cx="439" cy="607" r="7" fill="#E4BC27" />
  <circle cx="1015" cy="607" r="7" fill="#E4BC27" />
  <circle cx="1267" cy="607" r="7" fill="#E4BC27" />
  <circle cx="475" cy="607" r="7" fill="#E4BC27" />
  <circle cx="1051" cy="607" r="7" fill="#E4BC27" />
  <circle cx="1303" cy="607" r="7" fill="#E4BC27" />
  <circle cx="511" cy="607" r="7" fill="#E4BC27" />
  <circle cx="1087" cy="607" r="7" fill="#E4BC27" />
  <circle cx="1339" cy="607" r="7" fill="#E4BC27" />
  <circle cx="547" cy="607" r="7" fill="#E4BC27" />
  <circle cx="1123" cy="607" r="7" fill="#E4BC27" />
  <circle cx="1375" cy="607" r="7" fill="#E4BC27" />
  <circle cx="7" cy="367" r="7" fill="#E4BC27" />
  <circle cx="583" cy="367" r="7" fill="#E4BC27" />
  <circle cx="43" cy="367" r="7" fill="#E4BC27" />
  <circle cx="619" cy="367" r="7" fill="#E4BC27" />
  <circle cx="79" cy="367" r="7" fill="#E4BC27" />
  <circle cx="655" cy="367" r="7" fill="#E4BC27" />
  <circle cx="115" cy="367" r="7" fill="#E4BC27" />
  <circle cx="691" cy="367" r="7" fill="#E4BC27" />
  <circle cx="151" cy="367" r="7" fill="#E4BC27" />
  <circle cx="727" cy="367" r="7" fill="#E4BC27" />
  <circle cx="187" cy="367" r="7" fill="#E4BC27" />
  <circle cx="763" cy="367" r="7" fill="#E4BC27" />
  <circle cx="223" cy="367" r="7" fill="#E4BC27" />
  <circle cx="799" cy="367" r="7" fill="#E4BC27" />
  <circle cx="259" cy="367" r="7" fill="#E4BC27" />
  <circle cx="835" cy="367" r="7" fill="#E4BC27" />
  <circle cx="295" cy="367" r="7" fill="#E4BC27" />
  <circle cx="871" cy="367" r="7" fill="#E4BC27" />
  <circle cx="331" cy="367" r="7" fill="#E4BC27" />
  <circle cx="907" cy="367" r="7" fill="#E4BC27" />
  <circle cx="1159" cy="367" r="7" fill="#E4BC27" />
  <circle cx="367" cy="367" r="7" fill="#E4BC27" />
  <circle cx="943" cy="367" r="7" fill="#E4BC27" />
  <circle cx="1195" cy="367" r="7" fill="#E4BC27" />
  <circle cx="403" cy="367" r="7" fill="#E4BC27" />
  <circle cx="979" cy="367" r="7" fill="#E4BC27" />
  <circle cx="1231" cy="367" r="7" fill="#E4BC27" />
  <circle cx="439" cy="367" r="7" fill="#E4BC27" />
  <circle cx="1015" cy="367" r="7" fill="#E4BC27" />
  <circle cx="1267" cy="367" r="7" fill="#E4BC27" />
  <circle cx="475" cy="367" r="7" fill="#E4BC27" />
  <circle cx="1051" cy="367" r="7" fill="#E4BC27" />
  <circle cx="1303" cy="367" r="7" fill="#E4BC27" />
  <circle cx="511" cy="367" r="7" fill="#E4BC27" />
  <circle cx="1087" cy="367" r="7" fill="#E4BC27" />
  <circle cx="1339" cy="367" r="7" fill="#E4BC27" />
  <circle cx="547" cy="367" r="7" fill="#E4BC27" />
  <circle cx="1123" cy="367" r="7" fill="#E4BC27" />
  <circle cx="1375" cy="367" r="7" fill="#E4BC27" />
  <circle cx="7" cy="67" r="7" fill="#E4BC27" />
  <circle cx="583" cy="67" r="7" fill="#E4BC27" />
  <circle cx="43" cy="67" r="7" fill="#E4BC27" />
  <circle cx="619" cy="67" r="7" fill="#E4BC27" />
  <circle cx="79" cy="67" r="7" fill="#E4BC27" />
  <circle cx="655" cy="67" r="7" fill="#E4BC27" />
  <circle cx="115" cy="67" r="7" fill="#E4BC27" />
  <circle cx="691" cy="67" r="7" fill="#E4BC27" />
  <circle cx="151" cy="67" r="7" fill="#E4BC27" />
  <circle cx="727" cy="67" r="7" fill="#E4BC27" />
  <circle cx="187" cy="67" r="7" fill="#E4BC27" />
  <circle cx="763" cy="67" r="7" fill="#E4BC27" />
  <circle cx="223" cy="67" r="7" fill="#E4BC27" />
  <circle cx="799" cy="67" r="7" fill="#E4BC27" />
  <circle cx="259" cy="67" r="7" fill="#E4BC27" />
  <circle cx="835" cy="67" r="7" fill="#E4BC27" />
  <circle cx="295" cy="67" r="7" fill="#E4BC27" />
  <circle cx="871" cy="67" r="7" fill="#E4BC27" />
  <circle cx="331" cy="67" r="7" fill="#E4BC27" />
  <circle cx="907" cy="67" r="7" fill="#E4BC27" />
  <circle cx="1159" cy="67" r="7" fill="#E4BC27" />
  <circle cx="367" cy="67" r="7" fill="#E4BC27" />
  <circle cx="943" cy="67" r="7" fill="#E4BC27" />
  <circle cx="1195" cy="67" r="7" fill="#E4BC27" />
  <circle cx="403" cy="67" r="7" fill="#E4BC27" />
  <circle cx="979" cy="67" r="7" fill="#E4BC27" />
  <circle cx="1231" cy="67" r="7" fill="#E4BC27" />
  <circle cx="439" cy="67" r="7" fill="#E4BC27" />
  <circle cx="1015" cy="67" r="7" fill="#E4BC27" />
  <circle cx="1267" cy="67" r="7" fill="#E4BC27" />
  <circle cx="475" cy="67" r="7" fill="#E4BC27" />
  <circle cx="1051" cy="67" r="7" fill="#E4BC27" />
  <circle cx="1303" cy="67" r="7" fill="#E4BC27" />
  <circle cx="511" cy="67" r="7" fill="#E4BC27" />
  <circle cx="1087" cy="67" r="7" fill="#E4BC27" />
  <circle cx="1339" cy="67" r="7" fill="#E4BC27" />
  <circle cx="547" cy="67" r="7" fill="#E4BC27" />
  <circle cx="1123" cy="67" r="7" fill="#E4BC27" />
  <circle cx="1375" cy="67" r="7" fill="#E4BC27" />
  <circle cx="7" cy="547" r="7" fill="#E4BC27" />
  <circle cx="583" cy="547" r="7" fill="#E4BC27" />
  <circle cx="43" cy="547" r="7" fill="#E4BC27" />
  <circle cx="619" cy="547" r="7" fill="#E4BC27" />
  <circle cx="79" cy="547" r="7" fill="#E4BC27" />
  <circle cx="655" cy="547" r="7" fill="#E4BC27" />
  <circle cx="115" cy="547" r="7" fill="#E4BC27" />
  <circle cx="691" cy="547" r="7" fill="#E4BC27" />
  <circle cx="151" cy="547" r="7" fill="#E4BC27" />
  <circle cx="727" cy="547" r="7" fill="#E4BC27" />
  <circle cx="187" cy="547" r="7" fill="#E4BC27" />
  <circle cx="763" cy="547" r="7" fill="#E4BC27" />
  <circle cx="223" cy="547" r="7" fill="#E4BC27" />
  <circle cx="799" cy="547" r="7" fill="#E4BC27" />
  <circle cx="259" cy="547" r="7" fill="#E4BC27" />
  <circle cx="835" cy="547" r="7" fill="#E4BC27" />
  <circle cx="295" cy="547" r="7" fill="#E4BC27" />
  <circle cx="871" cy="547" r="7" fill="#E4BC27" />
  <circle cx="331" cy="547" r="7" fill="#E4BC27" />
  <circle cx="907" cy="547" r="7" fill="#E4BC27" />
  <circle cx="1159" cy="547" r="7" fill="#E4BC27" />
  <circle cx="367" cy="547" r="7" fill="#E4BC27" />
  <circle cx="943" cy="547" r="7" fill="#E4BC27" />
  <circle cx="1195" cy="547" r="7" fill="#E4BC27" />
  <circle cx="403" cy="547" r="7" fill="#E4BC27" />
  <circle cx="979" cy="547" r="7" fill="#E4BC27" />
  <circle cx="1231" cy="547" r="7" fill="#E4BC27" />
  <circle cx="439" cy="547" r="7" fill="#E4BC27" />
  <circle cx="1015" cy="547" r="7" fill="#E4BC27" />
  <circle cx="1267" cy="547" r="7" fill="#E4BC27" />
  <circle cx="475" cy="547" r="7" fill="#E4BC27" />
  <circle cx="1051" cy="547" r="7" fill="#E4BC27" />
  <circle cx="1303" cy="547" r="7" fill="#E4BC27" />
  <circle cx="511" cy="547" r="7" fill="#E4BC27" />
  <circle cx="1087" cy="547" r="7" fill="#E4BC27" />
  <circle cx="1339" cy="547" r="7" fill="#E4BC27" />
  <circle cx="547" cy="547" r="7" fill="#E4BC27" />
  <circle cx="1123" cy="547" r="7" fill="#E4BC27" />
  <circle cx="1375" cy="547" r="7" fill="#E4BC27" />
  <circle cx="7" cy="307" r="7" fill="#E4BC27" />
  <circle cx="583" cy="307" r="7" fill="#E4BC27" />
  <circle cx="43" cy="307" r="7" fill="#E4BC27" />
  <circle cx="619" cy="307" r="7" fill="#E4BC27" />
  <circle cx="79" cy="307" r="7" fill="#E4BC27" />
  <circle cx="655" cy="307" r="7" fill="#E4BC27" />
  <circle cx="115" cy="307" r="7" fill="#E4BC27" />
  <circle cx="691" cy="307" r="7" fill="#E4BC27" />
  <circle cx="151" cy="307" r="7" fill="#E4BC27" />
  <circle cx="727" cy="307" r="7" fill="#E4BC27" />
  <circle cx="187" cy="307" r="7" fill="#E4BC27" />
  <circle cx="763" cy="307" r="7" fill="#E4BC27" />
  <circle cx="223" cy="307" r="7" fill="#E4BC27" />
  <circle cx="799" cy="307" r="7" fill="#E4BC27" />
  <circle cx="259" cy="307" r="7" fill="#E4BC27" />
  <circle cx="835" cy="307" r="7" fill="#E4BC27" />
  <circle cx="295" cy="307" r="7" fill="#E4BC27" />
  <circle cx="871" cy="307" r="7" fill="#E4BC27" />
  <circle cx="331" cy="307" r="7" fill="#E4BC27" />
  <circle cx="907" cy="307" r="7" fill="#E4BC27" />
  <circle cx="1159" cy="307" r="7" fill="#E4BC27" />
  <circle cx="367" cy="307" r="7" fill="#E4BC27" />
  <circle cx="943" cy="307" r="7" fill="#E4BC27" />
  <circle cx="1195" cy="307" r="7" fill="#E4BC27" />
  <circle cx="403" cy="307" r="7" fill="#E4BC27" />
  <circle cx="979" cy="307" r="7" fill="#E4BC27" />
  <circle cx="1231" cy="307" r="7" fill="#E4BC27" />
  <circle cx="439" cy="307" r="7" fill="#E4BC27" />
  <circle cx="1015" cy="307" r="7" fill="#E4BC27" />
  <circle cx="1267" cy="307" r="7" fill="#E4BC27" />
  <circle cx="475" cy="307" r="7" fill="#E4BC27" />
  <circle cx="1051" cy="307" r="7" fill="#E4BC27" />
  <circle cx="1303" cy="307" r="7" fill="#E4BC27" />
  <circle cx="511" cy="307" r="7" fill="#E4BC27" />
  <circle cx="1087" cy="307" r="7" fill="#E4BC27" />
  <circle cx="1339" cy="307" r="7" fill="#E4BC27" />
  <circle cx="547" cy="307" r="7" fill="#E4BC27" />
  <circle cx="1123" cy="307" r="7" fill="#E4BC27" />
  <circle cx="1375" cy="307" r="7" fill="#E4BC27" />
  <circle cx="7" cy="187" r="7" fill="#E4BC27" />
  <circle cx="583" cy="187" r="7" fill="#E4BC27" />
  <circle cx="43" cy="187" r="7" fill="#E4BC27" />
  <circle cx="619" cy="187" r="7" fill="#E4BC27" />
  <circle cx="79" cy="187" r="7" fill="#E4BC27" />
  <circle cx="655" cy="187" r="7" fill="#E4BC27" />
  <circle cx="115" cy="187" r="7" fill="#E4BC27" />
  <circle cx="691" cy="187" r="7" fill="#E4BC27" />
  <circle cx="151" cy="187" r="7" fill="#E4BC27" />
  <circle cx="727" cy="187" r="7" fill="#E4BC27" />
  <circle cx="187" cy="187" r="7" fill="#E4BC27" />
  <circle cx="763" cy="187" r="7" fill="#E4BC27" />
  <circle cx="223" cy="187" r="7" fill="#E4BC27" />
  <circle cx="799" cy="187" r="7" fill="#E4BC27" />
  <circle cx="259" cy="187" r="7" fill="#E4BC27" />
  <circle cx="835" cy="187" r="7" fill="#E4BC27" />
  <circle cx="295" cy="187" r="7" fill="#E4BC27" />
  <circle cx="871" cy="187" r="7" fill="#E4BC27" />
  <circle cx="331" cy="187" r="7" fill="#E4BC27" />
  <circle cx="907" cy="187" r="7" fill="#E4BC27" />
  <circle cx="1159" cy="187" r="7" fill="#E4BC27" />
  <circle cx="367" cy="187" r="7" fill="#E4BC27" />
  <circle cx="943" cy="187" r="7" fill="#E4BC27" />
  <circle cx="1195" cy="187" r="7" fill="#E4BC27" />
  <circle cx="403" cy="187" r="7" fill="#E4BC27" />
  <circle cx="979" cy="187" r="7" fill="#E4BC27" />
  <circle cx="1231" cy="187" r="7" fill="#E4BC27" />
  <circle cx="439" cy="187" r="7" fill="#E4BC27" />
  <circle cx="1015" cy="187" r="7" fill="#E4BC27" />
  <circle cx="1267" cy="187" r="7" fill="#E4BC27" />
  <circle cx="475" cy="187" r="7" fill="#E4BC27" />
  <circle cx="1051" cy="187" r="7" fill="#E4BC27" />
  <circle cx="1303" cy="187" r="7" fill="#E4BC27" />
  <circle cx="511" cy="187" r="7" fill="#E4BC27" />
  <circle cx="1087" cy="187" r="7" fill="#E4BC27" />
  <circle cx="1339" cy="187" r="7" fill="#E4BC27" />
  <circle cx="547" cy="187" r="7" fill="#E4BC27" />
  <circle cx="1123" cy="187" r="7" fill="#E4BC27" />
  <circle cx="1375" cy="187" r="7" fill="#E4BC27" />
  <circle cx="7" cy="427" r="7" fill="#E4BC27" />
  <circle cx="583" cy="427" r="7" fill="#E4BC27" />
  <circle cx="43" cy="427" r="7" fill="#E4BC27" />
  <circle cx="619" cy="427" r="7" fill="#E4BC27" />
  <circle cx="79" cy="427" r="7" fill="#E4BC27" />
  <circle cx="655" cy="427" r="7" fill="#E4BC27" />
  <circle cx="115" cy="427" r="7" fill="#E4BC27" />
  <circle cx="691" cy="427" r="7" fill="#E4BC27" />
  <circle cx="151" cy="427" r="7" fill="#E4BC27" />
  <circle cx="727" cy="427" r="7" fill="#E4BC27" />
  <circle cx="187" cy="427" r="7" fill="#E4BC27" />
  <circle cx="763" cy="427" r="7" fill="#E4BC27" />
  <circle cx="223" cy="427" r="7" fill="#E4BC27" />
  <circle cx="799" cy="427" r="7" fill="#E4BC27" />
  <circle cx="259" cy="427" r="7" fill="#E4BC27" />
  <circle cx="835" cy="427" r="7" fill="#E4BC27" />
  <circle cx="295" cy="427" r="7" fill="#E4BC27" />
  <circle cx="871" cy="427" r="7" fill="#E4BC27" />
  <circle cx="331" cy="427" r="7" fill="#E4BC27" />
  <circle cx="907" cy="427" r="7" fill="#E4BC27" />
  <circle cx="1159" cy="427" r="7" fill="#E4BC27" />
  <circle cx="367" cy="427" r="7" fill="#E4BC27" />
  <circle cx="943" cy="427" r="7" fill="#E4BC27" />
  <circle cx="1195" cy="427" r="7" fill="#E4BC27" />
  <circle cx="403" cy="427" r="7" fill="#E4BC27" />
  <circle cx="979" cy="427" r="7" fill="#E4BC27" />
  <circle cx="1231" cy="427" r="7" fill="#E4BC27" />
  <circle cx="439" cy="427" r="7" fill="#E4BC27" />
  <circle cx="1015" cy="427" r="7" fill="#E4BC27" />
  <circle cx="1267" cy="427" r="7" fill="#E4BC27" />
  <circle cx="475" cy="427" r="7" fill="#E4BC27" />
  <circle cx="1051" cy="427" r="7" fill="#E4BC27" />
  <circle cx="1303" cy="427" r="7" fill="#E4BC27" />
  <circle cx="511" cy="427" r="7" fill="#E4BC27" />
  <circle cx="1087" cy="427" r="7" fill="#E4BC27" />
  <circle cx="1339" cy="427" r="7" fill="#E4BC27" />
  <circle cx="547" cy="427" r="7" fill="#E4BC27" />
  <circle cx="1123" cy="427" r="7" fill="#E4BC27" />
  <circle cx="1375" cy="427" r="7" fill="#E4BC27" />
  <circle cx="23" cy="37" r="7" fill="#E4BC27" />
  <circle cx="599" cy="37" r="7" fill="#E4BC27" />
  <circle cx="59" cy="37" r="7" fill="#E4BC27" />
  <circle cx="635" cy="37" r="7" fill="#E4BC27" />
  <circle cx="95" cy="37" r="7" fill="#E4BC27" />
  <circle cx="671" cy="37" r="7" fill="#E4BC27" />
  <circle cx="131" cy="37" r="7" fill="#E4BC27" />
  <circle cx="707" cy="37" r="7" fill="#E4BC27" />
  <circle cx="167" cy="37" r="7" fill="#E4BC27" />
  <circle cx="743" cy="37" r="7" fill="#E4BC27" />
  <circle cx="203" cy="37" r="7" fill="#E4BC27" />
  <circle cx="779" cy="37" r="7" fill="#E4BC27" />
  <circle cx="239" cy="37" r="7" fill="#E4BC27" />
  <circle cx="815" cy="37" r="7" fill="#E4BC27" />
  <circle cx="275" cy="37" r="7" fill="#E4BC27" />
  <circle cx="851" cy="37" r="7" fill="#E4BC27" />
  <circle cx="311" cy="37" r="7" fill="#E4BC27" />
  <circle cx="887" cy="37" r="7" fill="#E4BC27" />
  <circle cx="347" cy="37" r="7" fill="#E4BC27" />
  <circle cx="923" cy="37" r="7" fill="#E4BC27" />
  <circle cx="1175" cy="37" r="7" fill="#E4BC27" />
  <circle cx="383" cy="37" r="7" fill="#E4BC27" />
  <circle cx="959" cy="37" r="7" fill="#E4BC27" />
  <circle cx="1211" cy="37" r="7" fill="#E4BC27" />
  <circle cx="419" cy="37" r="7" fill="#E4BC27" />
  <circle cx="995" cy="37" r="7" fill="#E4BC27" />
  <circle cx="1247" cy="37" r="7" fill="#E4BC27" />
  <circle cx="455" cy="37" r="7" fill="#E4BC27" />
  <circle cx="1031" cy="37" r="7" fill="#E4BC27" />
  <circle cx="1283" cy="37" r="7" fill="#E4BC27" />
  <circle cx="491" cy="37" r="7" fill="#E4BC27" />
  <circle cx="1067" cy="37" r="7" fill="#E4BC27" />
  <circle cx="1319" cy="37" r="7" fill="#E4BC27" />
  <circle cx="527" cy="37" r="7" fill="#E4BC27" />
  <circle cx="1103" cy="37" r="7" fill="#E4BC27" />
  <circle cx="1355" cy="37" r="7" fill="#E4BC27" />
  <circle cx="563" cy="37" r="7" fill="#E4BC27" />
  <circle cx="1139" cy="37" r="7" fill="#E4BC27" />
  <circle cx="1391" cy="37" r="7" fill="#E4BC27" />
  <circle cx="23" cy="517" r="7" fill="#E4BC27" />
  <circle cx="599" cy="517" r="7" fill="#E4BC27" />
  <circle cx="59" cy="517" r="7" fill="#E4BC27" />
  <circle cx="635" cy="517" r="7" fill="#E4BC27" />
  <circle cx="95" cy="517" r="7" fill="#E4BC27" />
  <circle cx="671" cy="517" r="7" fill="#E4BC27" />
  <circle cx="131" cy="517" r="7" fill="#E4BC27" />
  <circle cx="707" cy="517" r="7" fill="#E4BC27" />
  <circle cx="167" cy="517" r="7" fill="#E4BC27" />
  <circle cx="743" cy="517" r="7" fill="#E4BC27" />
  <circle cx="203" cy="517" r="7" fill="#E4BC27" />
  <circle cx="779" cy="517" r="7" fill="#E4BC27" />
  <circle cx="239" cy="517" r="7" fill="#E4BC27" />
  <circle cx="815" cy="517" r="7" fill="#E4BC27" />
  <circle cx="275" cy="517" r="7" fill="#E4BC27" />
  <circle cx="851" cy="517" r="7" fill="#E4BC27" />
  <circle cx="311" cy="517" r="7" fill="#E4BC27" />
  <circle cx="887" cy="517" r="7" fill="#E4BC27" />
  <circle cx="347" cy="517" r="7" fill="#E4BC27" />
  <circle cx="923" cy="517" r="7" fill="#E4BC27" />
  <circle cx="1175" cy="517" r="7" fill="#E4BC27" />
  <circle cx="383" cy="517" r="7" fill="#E4BC27" />
  <circle cx="959" cy="517" r="7" fill="#E4BC27" />
  <circle cx="1211" cy="517" r="7" fill="#E4BC27" />
  <circle cx="419" cy="517" r="7" fill="#E4BC27" />
  <circle cx="995" cy="517" r="7" fill="#E4BC27" />
  <circle cx="1247" cy="517" r="7" fill="#E4BC27" />
  <circle cx="455" cy="517" r="7" fill="#E4BC27" />
  <circle cx="1031" cy="517" r="7" fill="#E4BC27" />
  <circle cx="1283" cy="517" r="7" fill="#E4BC27" />
  <circle cx="491" cy="517" r="7" fill="#E4BC27" />
  <circle cx="1067" cy="517" r="7" fill="#E4BC27" />
  <circle cx="1319" cy="517" r="7" fill="#E4BC27" />
  <circle cx="527" cy="517" r="7" fill="#E4BC27" />
  <circle cx="1103" cy="517" r="7" fill="#E4BC27" />
  <circle cx="1355" cy="517" r="7" fill="#E4BC27" />
  <circle cx="563" cy="517" r="7" fill="#E4BC27" />
  <circle cx="1139" cy="517" r="7" fill="#E4BC27" />
  <circle cx="1391" cy="517" r="7" fill="#E4BC27" />
  <circle cx="23" cy="277" r="7" fill="#E4BC27" />
  <circle cx="599" cy="277" r="7" fill="#E4BC27" />
  <circle cx="59" cy="277" r="7" fill="#E4BC27" />
  <circle cx="635" cy="277" r="7" fill="#E4BC27" />
  <circle cx="95" cy="277" r="7" fill="#E4BC27" />
  <circle cx="671" cy="277" r="7" fill="#E4BC27" />
  <circle cx="131" cy="277" r="7" fill="#E4BC27" />
  <circle cx="707" cy="277" r="7" fill="#E4BC27" />
  <circle cx="167" cy="277" r="7" fill="#E4BC27" />
  <circle cx="743" cy="277" r="7" fill="#E4BC27" />
  <circle cx="203" cy="277" r="7" fill="#E4BC27" />
  <circle cx="779" cy="277" r="7" fill="#E4BC27" />
  <circle cx="239" cy="277" r="7" fill="#E4BC27" />
  <circle cx="815" cy="277" r="7" fill="#E4BC27" />
  <circle cx="275" cy="277" r="7" fill="#E4BC27" />
  <circle cx="851" cy="277" r="7" fill="#E4BC27" />
  <circle cx="311" cy="277" r="7" fill="#E4BC27" />
  <circle cx="887" cy="277" r="7" fill="#E4BC27" />
  <circle cx="347" cy="277" r="7" fill="#E4BC27" />
  <circle cx="923" cy="277" r="7" fill="#E4BC27" />
  <circle cx="1175" cy="277" r="7" fill="#E4BC27" />
  <circle cx="383" cy="277" r="7" fill="#E4BC27" />
  <circle cx="959" cy="277" r="7" fill="#E4BC27" />
  <circle cx="1211" cy="277" r="7" fill="#E4BC27" />
  <circle cx="419" cy="277" r="7" fill="#E4BC27" />
  <circle cx="995" cy="277" r="7" fill="#E4BC27" />
  <circle cx="1247" cy="277" r="7" fill="#E4BC27" />
  <circle cx="455" cy="277" r="7" fill="#E4BC27" />
  <circle cx="1031" cy="277" r="7" fill="#E4BC27" />
  <circle cx="1283" cy="277" r="7" fill="#E4BC27" />
  <circle cx="491" cy="277" r="7" fill="#E4BC27" />
  <circle cx="1067" cy="277" r="7" fill="#E4BC27" />
  <circle cx="1319" cy="277" r="7" fill="#E4BC27" />
  <circle cx="527" cy="277" r="7" fill="#E4BC27" />
  <circle cx="1103" cy="277" r="7" fill="#E4BC27" />
  <circle cx="1355" cy="277" r="7" fill="#E4BC27" />
  <circle cx="563" cy="277" r="7" fill="#E4BC27" />
  <circle cx="1139" cy="277" r="7" fill="#E4BC27" />
  <circle cx="1391" cy="277" r="7" fill="#E4BC27" />
  <circle cx="23" cy="157" r="7" fill="#E4BC27" />
  <circle cx="599" cy="157" r="7" fill="#E4BC27" />
  <circle cx="59" cy="157" r="7" fill="#E4BC27" />
  <circle cx="635" cy="157" r="7" fill="#E4BC27" />
  <circle cx="95" cy="157" r="7" fill="#E4BC27" />
  <circle cx="671" cy="157" r="7" fill="#E4BC27" />
  <circle cx="131" cy="157" r="7" fill="#E4BC27" />
  <circle cx="707" cy="157" r="7" fill="#E4BC27" />
  <circle cx="167" cy="157" r="7" fill="#E4BC27" />
  <circle cx="743" cy="157" r="7" fill="#E4BC27" />
  <circle cx="203" cy="157" r="7" fill="#E4BC27" />
  <circle cx="779" cy="157" r="7" fill="#E4BC27" />
  <circle cx="239" cy="157" r="7" fill="#E4BC27" />
  <circle cx="815" cy="157" r="7" fill="#E4BC27" />
  <circle cx="275" cy="157" r="7" fill="#E4BC27" />
  <circle cx="851" cy="157" r="7" fill="#E4BC27" />
  <circle cx="311" cy="157" r="7" fill="#E4BC27" />
  <circle cx="887" cy="157" r="7" fill="#E4BC27" />
  <circle cx="347" cy="157" r="7" fill="#E4BC27" />
  <circle cx="923" cy="157" r="7" fill="#E4BC27" />
  <circle cx="1175" cy="157" r="7" fill="#E4BC27" />
  <circle cx="383" cy="157" r="7" fill="#E4BC27" />
  <circle cx="959" cy="157" r="7" fill="#E4BC27" />
  <circle cx="1211" cy="157" r="7" fill="#E4BC27" />
  <circle cx="419" cy="157" r="7" fill="#E4BC27" />
  <circle cx="995" cy="157" r="7" fill="#E4BC27" />
  <circle cx="1247" cy="157" r="7" fill="#E4BC27" />
  <circle cx="455" cy="157" r="7" fill="#E4BC27" />
  <circle cx="1031" cy="157" r="7" fill="#E4BC27" />
  <circle cx="1283" cy="157" r="7" fill="#E4BC27" />
  <circle cx="491" cy="157" r="7" fill="#E4BC27" />
  <circle cx="1067" cy="157" r="7" fill="#E4BC27" />
  <circle cx="1319" cy="157" r="7" fill="#E4BC27" />
  <circle cx="527" cy="157" r="7" fill="#E4BC27" />
  <circle cx="1103" cy="157" r="7" fill="#E4BC27" />
  <circle cx="1355" cy="157" r="7" fill="#E4BC27" />
  <circle cx="563" cy="157" r="7" fill="#E4BC27" />
  <circle cx="1139" cy="157" r="7" fill="#E4BC27" />
  <circle cx="1391" cy="157" r="7" fill="#E4BC27" />
  <circle cx="23" cy="397" r="7" fill="#E4BC27" />
  <circle cx="599" cy="397" r="7" fill="#E4BC27" />
  <circle cx="59" cy="397" r="7" fill="#E4BC27" />
  <circle cx="635" cy="397" r="7" fill="#E4BC27" />
  <circle cx="95" cy="397" r="7" fill="#E4BC27" />
  <circle cx="671" cy="397" r="7" fill="#E4BC27" />
  <circle cx="131" cy="397" r="7" fill="#E4BC27" />
  <circle cx="707" cy="397" r="7" fill="#E4BC27" />
  <circle cx="167" cy="397" r="7" fill="#E4BC27" />
  <circle cx="743" cy="397" r="7" fill="#E4BC27" />
  <circle cx="203" cy="397" r="7" fill="#E4BC27" />
  <circle cx="779" cy="397" r="7" fill="#E4BC27" />
  <circle cx="239" cy="397" r="7" fill="#E4BC27" />
  <circle cx="815" cy="397" r="7" fill="#E4BC27" />
  <circle cx="275" cy="397" r="7" fill="#E4BC27" />
  <circle cx="851" cy="397" r="7" fill="#E4BC27" />
  <circle cx="311" cy="397" r="7" fill="#E4BC27" />
  <circle cx="887" cy="397" r="7" fill="#E4BC27" />
  <circle cx="347" cy="397" r="7" fill="#E4BC27" />
  <circle cx="923" cy="397" r="7" fill="#E4BC27" />
  <circle cx="1175" cy="397" r="7" fill="#E4BC27" />
  <circle cx="383" cy="397" r="7" fill="#E4BC27" />
  <circle cx="959" cy="397" r="7" fill="#E4BC27" />
  <circle cx="1211" cy="397" r="7" fill="#E4BC27" />
  <circle cx="419" cy="397" r="7" fill="#E4BC27" />
  <circle cx="995" cy="397" r="7" fill="#E4BC27" />
  <circle cx="1247" cy="397" r="7" fill="#E4BC27" />
  <circle cx="455" cy="397" r="7" fill="#E4BC27" />
  <circle cx="1031" cy="397" r="7" fill="#E4BC27" />
  <circle cx="1283" cy="397" r="7" fill="#E4BC27" />
  <circle cx="491" cy="397" r="7" fill="#E4BC27" />
  <circle cx="1067" cy="397" r="7" fill="#E4BC27" />
  <circle cx="1319" cy="397" r="7" fill="#E4BC27" />
  <circle cx="527" cy="397" r="7" fill="#E4BC27" />
  <circle cx="1103" cy="397" r="7" fill="#E4BC27" />
  <circle cx="1355" cy="397" r="7" fill="#E4BC27" />
  <circle cx="563" cy="397" r="7" fill="#E4BC27" />
  <circle cx="1139" cy="397" r="7" fill="#E4BC27" />
  <circle cx="1391" cy="397" r="7" fill="#E4BC27" />
  <circle cx="23" cy="97" r="7" fill="#E4BC27" />
  <circle cx="599" cy="97" r="7" fill="#E4BC27" />
  <circle cx="59" cy="97" r="7" fill="#E4BC27" />
  <circle cx="635" cy="97" r="7" fill="#E4BC27" />
  <circle cx="95" cy="97" r="7" fill="#E4BC27" />
  <circle cx="671" cy="97" r="7" fill="#E4BC27" />
  <circle cx="131" cy="97" r="7" fill="#E4BC27" />
  <circle cx="707" cy="97" r="7" fill="#E4BC27" />
  <circle cx="167" cy="97" r="7" fill="#E4BC27" />
  <circle cx="743" cy="97" r="7" fill="#E4BC27" />
  <circle cx="203" cy="97" r="7" fill="#E4BC27" />
  <circle cx="779" cy="97" r="7" fill="#E4BC27" />
  <circle cx="239" cy="97" r="7" fill="#E4BC27" />
  <circle cx="815" cy="97" r="7" fill="#E4BC27" />
  <circle cx="275" cy="97" r="7" fill="#E4BC27" />
  <circle cx="851" cy="97" r="7" fill="#E4BC27" />
  <circle cx="311" cy="97" r="7" fill="#E4BC27" />
  <circle cx="887" cy="97" r="7" fill="#E4BC27" />
  <circle cx="347" cy="97" r="7" fill="#E4BC27" />
  <circle cx="923" cy="97" r="7" fill="#E4BC27" />
  <circle cx="1175" cy="97" r="7" fill="#E4BC27" />
  <circle cx="383" cy="97" r="7" fill="#E4BC27" />
  <circle cx="959" cy="97" r="7" fill="#E4BC27" />
  <circle cx="1211" cy="97" r="7" fill="#E4BC27" />
  <circle cx="419" cy="97" r="7" fill="#E4BC27" />
  <circle cx="995" cy="97" r="7" fill="#E4BC27" />
  <circle cx="1247" cy="97" r="7" fill="#E4BC27" />
  <circle cx="455" cy="97" r="7" fill="#E4BC27" />
  <circle cx="1031" cy="97" r="7" fill="#E4BC27" />
  <circle cx="1283" cy="97" r="7" fill="#E4BC27" />
  <circle cx="491" cy="97" r="7" fill="#E4BC27" />
  <circle cx="1067" cy="97" r="7" fill="#E4BC27" />
  <circle cx="1319" cy="97" r="7" fill="#E4BC27" />
  <circle cx="527" cy="97" r="7" fill="#E4BC27" />
  <circle cx="1103" cy="97" r="7" fill="#E4BC27" />
  <circle cx="1355" cy="97" r="7" fill="#E4BC27" />
  <circle cx="563" cy="97" r="7" fill="#E4BC27" />
  <circle cx="1139" cy="97" r="7" fill="#E4BC27" />
  <circle cx="1391" cy="97" r="7" fill="#E4BC27" />
  <circle cx="23" cy="577" r="7" fill="#E4BC27" />
  <circle cx="599" cy="577" r="7" fill="#E4BC27" />
  <circle cx="59" cy="577" r="7" fill="#E4BC27" />
  <circle cx="635" cy="577" r="7" fill="#E4BC27" />
  <circle cx="95" cy="577" r="7" fill="#E4BC27" />
  <circle cx="671" cy="577" r="7" fill="#E4BC27" />
  <circle cx="131" cy="577" r="7" fill="#E4BC27" />
  <circle cx="707" cy="577" r="7" fill="#E4BC27" />
  <circle cx="167" cy="577" r="7" fill="#E4BC27" />
  <circle cx="743" cy="577" r="7" fill="#E4BC27" />
  <circle cx="203" cy="577" r="7" fill="#E4BC27" />
  <circle cx="779" cy="577" r="7" fill="#E4BC27" />
  <circle cx="239" cy="577" r="7" fill="#E4BC27" />
  <circle cx="815" cy="577" r="7" fill="#E4BC27" />
  <circle cx="275" cy="577" r="7" fill="#E4BC27" />
  <circle cx="851" cy="577" r="7" fill="#E4BC27" />
  <circle cx="311" cy="577" r="7" fill="#E4BC27" />
  <circle cx="887" cy="577" r="7" fill="#E4BC27" />
  <circle cx="347" cy="577" r="7" fill="#E4BC27" />
  <circle cx="923" cy="577" r="7" fill="#E4BC27" />
  <circle cx="1175" cy="577" r="7" fill="#E4BC27" />
  <circle cx="383" cy="577" r="7" fill="#E4BC27" />
  <circle cx="959" cy="577" r="7" fill="#E4BC27" />
  <circle cx="1211" cy="577" r="7" fill="#E4BC27" />
  <circle cx="419" cy="577" r="7" fill="#E4BC27" />
  <circle cx="995" cy="577" r="7" fill="#E4BC27" />
  <circle cx="1247" cy="577" r="7" fill="#E4BC27" />
  <circle cx="455" cy="577" r="7" fill="#E4BC27" />
  <circle cx="1031" cy="577" r="7" fill="#E4BC27" />
  <circle cx="1283" cy="577" r="7" fill="#E4BC27" />
  <circle cx="491" cy="577" r="7" fill="#E4BC27" />
  <circle cx="1067" cy="577" r="7" fill="#E4BC27" />
  <circle cx="1319" cy="577" r="7" fill="#E4BC27" />
  <circle cx="527" cy="577" r="7" fill="#E4BC27" />
  <circle cx="1103" cy="577" r="7" fill="#E4BC27" />
  <circle cx="1355" cy="577" r="7" fill="#E4BC27" />
  <circle cx="563" cy="577" r="7" fill="#E4BC27" />
  <circle cx="1139" cy="577" r="7" fill="#E4BC27" />
  <circle cx="1391" cy="577" r="7" fill="#E4BC27" />
  <circle cx="23" cy="637" r="7" fill="#E4BC27" />
  <circle cx="599" cy="637" r="7" fill="#E4BC27" />
  <circle cx="59" cy="637" r="7" fill="#E4BC27" />
  <circle cx="635" cy="637" r="7" fill="#E4BC27" />
  <circle cx="95" cy="637" r="7" fill="#E4BC27" />
  <circle cx="671" cy="637" r="7" fill="#E4BC27" />
  <circle cx="131" cy="637" r="7" fill="#E4BC27" />
  <circle cx="707" cy="637" r="7" fill="#E4BC27" />
  <circle cx="167" cy="637" r="7" fill="#E4BC27" />
  <circle cx="743" cy="637" r="7" fill="#E4BC27" />
  <circle cx="203" cy="637" r="7" fill="#E4BC27" />
  <circle cx="779" cy="637" r="7" fill="#E4BC27" />
  <circle cx="239" cy="637" r="7" fill="#E4BC27" />
  <circle cx="815" cy="637" r="7" fill="#E4BC27" />
  <circle cx="275" cy="637" r="7" fill="#E4BC27" />
  <circle cx="851" cy="637" r="7" fill="#E4BC27" />
  <circle cx="311" cy="637" r="7" fill="#E4BC27" />
  <circle cx="887" cy="637" r="7" fill="#E4BC27" />
  <circle cx="347" cy="637" r="7" fill="#E4BC27" />
  <circle cx="923" cy="637" r="7" fill="#E4BC27" />
  <circle cx="1175" cy="637" r="7" fill="#E4BC27" />
  <circle cx="383" cy="637" r="7" fill="#E4BC27" />
  <circle cx="959" cy="637" r="7" fill="#E4BC27" />
  <circle cx="1211" cy="637" r="7" fill="#E4BC27" />
  <circle cx="419" cy="637" r="7" fill="#E4BC27" />
  <circle cx="995" cy="637" r="7" fill="#E4BC27" />
  <circle cx="1247" cy="637" r="7" fill="#E4BC27" />
  <circle cx="455" cy="637" r="7" fill="#E4BC27" />
  <circle cx="1031" cy="637" r="7" fill="#E4BC27" />
  <circle cx="1283" cy="637" r="7" fill="#E4BC27" />
  <circle cx="491" cy="637" r="7" fill="#E4BC27" />
  <circle cx="1067" cy="637" r="7" fill="#E4BC27" />
  <circle cx="1319" cy="637" r="7" fill="#E4BC27" />
  <circle cx="527" cy="637" r="7" fill="#E4BC27" />
  <circle cx="1103" cy="637" r="7" fill="#E4BC27" />
  <circle cx="1355" cy="637" r="7" fill="#E4BC27" />
  <circle cx="563" cy="637" r="7" fill="#E4BC27" />
  <circle cx="1139" cy="637" r="7" fill="#E4BC27" />
  <circle cx="1391" cy="637" r="7" fill="#E4BC27" />
  <circle cx="23" cy="337" r="7" fill="#E4BC27" />
  <circle cx="599" cy="337" r="7" fill="#E4BC27" />
  <circle cx="59" cy="337" r="7" fill="#E4BC27" />
  <circle cx="635" cy="337" r="7" fill="#E4BC27" />
  <circle cx="95" cy="337" r="7" fill="#E4BC27" />
  <circle cx="671" cy="337" r="7" fill="#E4BC27" />
  <circle cx="131" cy="337" r="7" fill="#E4BC27" />
  <circle cx="707" cy="337" r="7" fill="#E4BC27" />
  <circle cx="167" cy="337" r="7" fill="#E4BC27" />
  <circle cx="743" cy="337" r="7" fill="#E4BC27" />
  <circle cx="203" cy="337" r="7" fill="#E4BC27" />
  <circle cx="779" cy="337" r="7" fill="#E4BC27" />
  <circle cx="239" cy="337" r="7" fill="#E4BC27" />
  <circle cx="815" cy="337" r="7" fill="#E4BC27" />
  <circle cx="275" cy="337" r="7" fill="#E4BC27" />
  <circle cx="851" cy="337" r="7" fill="#E4BC27" />
  <circle cx="311" cy="337" r="7" fill="#E4BC27" />
  <circle cx="887" cy="337" r="7" fill="#E4BC27" />
  <circle cx="347" cy="337" r="7" fill="#E4BC27" />
  <circle cx="923" cy="337" r="7" fill="#E4BC27" />
  <circle cx="1175" cy="337" r="7" fill="#E4BC27" />
  <circle cx="383" cy="337" r="7" fill="#E4BC27" />
  <circle cx="959" cy="337" r="7" fill="#E4BC27" />
  <circle cx="1211" cy="337" r="7" fill="#E4BC27" />
  <circle cx="419" cy="337" r="7" fill="#E4BC27" />
  <circle cx="995" cy="337" r="7" fill="#E4BC27" />
  <circle cx="1247" cy="337" r="7" fill="#E4BC27" />
  <circle cx="455" cy="337" r="7" fill="#E4BC27" />
  <circle cx="1031" cy="337" r="7" fill="#E4BC27" />
  <circle cx="1283" cy="337" r="7" fill="#E4BC27" />
  <circle cx="491" cy="337" r="7" fill="#E4BC27" />
  <circle cx="1067" cy="337" r="7" fill="#E4BC27" />
  <circle cx="1319" cy="337" r="7" fill="#E4BC27" />
  <circle cx="527" cy="337" r="7" fill="#E4BC27" />
  <circle cx="1103" cy="337" r="7" fill="#E4BC27" />
  <circle cx="1355" cy="337" r="7" fill="#E4BC27" />
  <circle cx="563" cy="337" r="7" fill="#E4BC27" />
  <circle cx="1139" cy="337" r="7" fill="#E4BC27" />
  <circle cx="1391" cy="337" r="7" fill="#E4BC27" />
  <circle cx="23" cy="217" r="7" fill="#E4BC27" />
  <circle cx="599" cy="217" r="7" fill="#E4BC27" />
  <circle cx="59" cy="217" r="7" fill="#E4BC27" />
  <circle cx="635" cy="217" r="7" fill="#E4BC27" />
  <circle cx="95" cy="217" r="7" fill="#E4BC27" />
  <circle cx="671" cy="217" r="7" fill="#E4BC27" />
  <circle cx="131" cy="217" r="7" fill="#E4BC27" />
  <circle cx="707" cy="217" r="7" fill="#E4BC27" />
  <circle cx="167" cy="217" r="7" fill="#E4BC27" />
  <circle cx="743" cy="217" r="7" fill="#E4BC27" />
  <circle cx="203" cy="217" r="7" fill="#E4BC27" />
  <circle cx="779" cy="217" r="7" fill="#E4BC27" />
  <circle cx="239" cy="217" r="7" fill="#E4BC27" />
  <circle cx="815" cy="217" r="7" fill="#E4BC27" />
  <circle cx="275" cy="217" r="7" fill="#E4BC27" />
  <circle cx="851" cy="217" r="7" fill="#E4BC27" />
  <circle cx="311" cy="217" r="7" fill="#E4BC27" />
  <circle cx="887" cy="217" r="7" fill="#E4BC27" />
  <circle cx="347" cy="217" r="7" fill="#E4BC27" />
  <circle cx="923" cy="217" r="7" fill="#E4BC27" />
  <circle cx="1175" cy="217" r="7" fill="#E4BC27" />
  <circle cx="383" cy="217" r="7" fill="#E4BC27" />
  <circle cx="959" cy="217" r="7" fill="#E4BC27" />
  <circle cx="1211" cy="217" r="7" fill="#E4BC27" />
  <circle cx="419" cy="217" r="7" fill="#E4BC27" />
  <circle cx="995" cy="217" r="7" fill="#E4BC27" />
  <circle cx="1247" cy="217" r="7" fill="#E4BC27" />
  <circle cx="455" cy="217" r="7" fill="#E4BC27" />
  <circle cx="1031" cy="217" r="7" fill="#E4BC27" />
  <circle cx="1283" cy="217" r="7" fill="#E4BC27" />
  <circle cx="491" cy="217" r="7" fill="#E4BC27" />
  <circle cx="1067" cy="217" r="7" fill="#E4BC27" />
  <circle cx="1319" cy="217" r="7" fill="#E4BC27" />
  <circle cx="527" cy="217" r="7" fill="#E4BC27" />
  <circle cx="1103" cy="217" r="7" fill="#E4BC27" />
  <circle cx="1355" cy="217" r="7" fill="#E4BC27" />
  <circle cx="563" cy="217" r="7" fill="#E4BC27" />
  <circle cx="1139" cy="217" r="7" fill="#E4BC27" />
  <circle cx="1391" cy="217" r="7" fill="#E4BC27" />
  <circle cx="23" cy="457" r="7" fill="#E4BC27" />
  <circle cx="599" cy="457" r="7" fill="#E4BC27" />
  <circle cx="59" cy="457" r="7" fill="#E4BC27" />
  <circle cx="635" cy="457" r="7" fill="#E4BC27" />
  <circle cx="95" cy="457" r="7" fill="#E4BC27" />
  <circle cx="671" cy="457" r="7" fill="#E4BC27" />
  <circle cx="131" cy="457" r="7" fill="#E4BC27" />
  <circle cx="707" cy="457" r="7" fill="#E4BC27" />
  <circle cx="167" cy="457" r="7" fill="#E4BC27" />
  <circle cx="743" cy="457" r="7" fill="#E4BC27" />
  <circle cx="203" cy="457" r="7" fill="#E4BC27" />
  <circle cx="779" cy="457" r="7" fill="#E4BC27" />
  <circle cx="239" cy="457" r="7" fill="#E4BC27" />
  <circle cx="815" cy="457" r="7" fill="#E4BC27" />
  <circle cx="275" cy="457" r="7" fill="#E4BC27" />
  <circle cx="851" cy="457" r="7" fill="#E4BC27" />
  <circle cx="311" cy="457" r="7" fill="#E4BC27" />
  <circle cx="887" cy="457" r="7" fill="#E4BC27" />
  <circle cx="347" cy="457" r="7" fill="#E4BC27" />
  <circle cx="923" cy="457" r="7" fill="#E4BC27" />
  <circle cx="1175" cy="457" r="7" fill="#E4BC27" />
  <circle cx="383" cy="457" r="7" fill="#E4BC27" />
  <circle cx="959" cy="457" r="7" fill="#E4BC27" />
  <circle cx="1211" cy="457" r="7" fill="#E4BC27" />
  <circle cx="419" cy="457" r="7" fill="#E4BC27" />
  <circle cx="995" cy="457" r="7" fill="#E4BC27" />
  <circle cx="1247" cy="457" r="7" fill="#E4BC27" />
  <circle cx="455" cy="457" r="7" fill="#E4BC27" />
  <circle cx="1031" cy="457" r="7" fill="#E4BC27" />
  <circle cx="1283" cy="457" r="7" fill="#E4BC27" />
  <circle cx="491" cy="457" r="7" fill="#E4BC27" />
  <circle cx="1067" cy="457" r="7" fill="#E4BC27" />
  <circle cx="1319" cy="457" r="7" fill="#E4BC27" />
  <circle cx="527" cy="457" r="7" fill="#E4BC27" />
  <circle cx="1103" cy="457" r="7" fill="#E4BC27" />
  <circle cx="1355" cy="457" r="7" fill="#E4BC27" />
  <circle cx="563" cy="457" r="7" fill="#E4BC27" />
  <circle cx="1139" cy="457" r="7" fill="#E4BC27" />
  <circle cx="1391" cy="457" r="7" fill="#E4BC27" />
</svg>