<svg width="315" height="315" viewBox="0 0 315 315" fill="none" xmlns="http://www.w3.org/2000/svg">
  <path
    d="M157.3 313.2C86 313.2 23.9 265 6.30002 196C5.70002 193.8 5.20002 191.6 4.80002 189.3L4.70002 189C4.60002 188.6 4.50002 188.1 4.40002 187.7C3.80002 184.8 3.30002 181.8 2.90002 178.9C2.50002 176.3 2.20002 173.7 2.00002 171.2C1.80002 168.5 1.60002 165.8 1.50002 163C1.50002 161.8 1.40002 160.7 1.40002 159.5C1.40002 158.7 1.40002 158 1.40002 157.2C1.40002 155.2 1.40002 153.3 1.50002 151.5C1.60002 148.7 1.80002 145.9 2.00002 143C2.80002 134.1 4.40002 125.4 6.60002 116.9C7.00002 115.3 7.50002 113.6 8.00002 111.9L8.50002 110.3C8.90002 109.2 9.20003 108 9.60003 106.9C10.7 103.7 11.9 100.4 13.3 97.2C13.8 96 14.3 94.9 14.8 93.7C15.1 92.9 15.5 92.2 15.8 91.4C16.6 89.7 17.4 88.1 18.1 86.6C19.2 84.4 20.4 82.2 21.6 80.1C23.5 76.8 25.6 73.4 27.9 70C28.7 68.7 29.6 67.5 30.5 66.3C33.7 61.9 37.1 57.7 40.6 53.7C46.5 47 53 40.8 60 35.3C61.2 34.4 62.4 33.4 63.7 32.4C68.6 28.8 73.6 25.4 78.8 22.4C87.6 17.3 96.9 13 106.6 9.69999C110.2 8.49999 113.8 7.39999 117.5 6.39999C122.1 5.19999 126.9 4.19999 131.8 3.39999C140.1 1.99999 148.6 1.39999 157.1 1.39999C165.6 1.39999 174.1 2.09999 182.4 3.39999L183.6 3.59999C188.6 4.49999 193.4 5.49999 198 6.79999C201.6 7.79999 205.3 8.89999 208.9 10.2C218.3 13.5 227.4 17.8 236.1 22.8C241.1 25.7 245.9 29 250.6 32.4C251.9 33.4 253.1 34.3 254.4 35.3C260.9 40.5 267 46.2 272.6 52.4C279.9 60.4 286.3 69.2 291.8 78.5L291.9 78.7C293.2 80.9 294.3 83 295.4 85L295.6 85.3C296.4 86.9 297.2 88.5 298.1 90.3C298.4 91 298.8 91.7 299.1 92.4C299.6 93.5 300.1 94.6 300.6 95.7L300.7 96C301.8 98.6 302.9 101.2 303.8 103.9L303.9 104.2C304.5 105.9 305.1 107.7 305.7 109.4C306.3 111.3 306.9 113.2 307.5 115.3C309.6 122.9 311.1 130.6 312.1 138.5V138.6C312.4 141.4 312.7 144.2 312.9 147V147.1C313.1 150.3 313.2 153.5 313.2 156.6V157.1C313.2 158.3 313.2 159.6 313.2 160.8C313.1 163.6 313 166.4 312.8 169V169.1C312.6 171.9 312.3 174.6 312 177.2C311.3 182.7 310.3 188.1 309 193.5C301 227 281.7 257.4 254.7 279C226.7 301.4 193.1 313.2 157.3 313.2Z"
    fill="#F6F6F6" />
  <path
    d="M208.7 11.8C218.1 15.1 227.1 19.3 235.6 24.3C234.4 24.6 233.1 25 231.9 25.4C229.2 26.2 226.6 27.2 224 28.1C223 28.4 222 28.8 221 29.1C218.7 29.9 216.3 30.5 213.8 30.9C209.2 31.6 204.5 32.2 199.9 32.8C196 33.3 192.3 34.7 188.7 36.1C186.9 36.8 185.7 36 184.5 35.2C183.6 34.6 183.6 33.5 184.5 32.7C186 31.3 187.4 30 188.9 28.6C189.6 27.9 190.4 27 189.5 26.1C188.7 25.2 187.9 26.2 187.3 26.8C183.7 30.7 178.7 32.1 174.2 34.6C173.4 35.1 172.4 35.2 171.6 35.8C169.4 37.4 168.2 35.9 167 34.5C166.6 34.1 166.5 33.3 166.3 32.7C166.1 32.3 165.9 32 165.4 32C165 32 164.5 32.1 164.1 32.2C163.2 32.4 162.4 32.8 161.6 33.1C160.5 33.6 159.5 34.3 158.5 35C157.4 35.7 156.3 36.4 155.1 36.9C152.3 38 149.5 38.9 146.4 37.9C143.7 37 139.8 39.3 138 41.8C136.1 44.3 133.6 46.2 130.6 47.4C124.4 49.8 117.9 50.3 111.6 51.6C105.3 52.9 99.1 53.1 92.8 53.5C89.9 53.7 87.1 54.4 84.2 54.6C81 54.6 78.1 53 74.8 53.4C72.3 52.1 69.6 51.9 66.9 52.4C66.3 52.4 65.6 52.4 65 52.3C63.7 51.1 62.2 50.6 60.5 50.6C57.7 50.6 55 50.5 52.2 50.4C52.4 49 53.9 49.2 54.6 48.9C57.1 47.8 59.2 45.7 62.1 45.5C62.8 45.8 63.6 46.2 64.3 46.3C69.7 47.4 75.1 47.5 80.5 47.5C85.2 47.6 89.9 47.8 94.4 46.1C98.1 44.8 101.8 43.5 105.6 42.3C106.1 42.1 107.7 42 107.7 40.5C108.4 40.6 108.7 40.3 108.7 39.6C113.3 39.6 117.9 38.2 122.5 38.3C122.7 38.3 123 38.3 123.2 38.3C129.4 36.7 135.8 36.2 142 34.6C142.2 34.5 142.4 34.5 142.6 34.4C142.9 34.3 143.3 34.2 143.6 34.1C144.6 33.9 145.6 33.6 146.5 33.4C147.8 33.1 149.2 32.8 150.5 32.5C151.2 32.3 151.9 32.2 152.7 32C152.7 32 152.7 32 152.8 32C153.7 31.8 154.6 31.5 155.5 31.3C156.5 31 157.5 30.7 158.5 30.5C160 30.1 161.5 29.6 163.1 29.2C164.4 28.8 165.6 28.5 166.9 28.1C168.2 27.7 169.4 27.3 170.7 26.9C171.7 26.6 172.7 26.3 173.7 26C175.7 25.4 177.6 24.8 179.6 24.2C180.6 23.9 181.5 23.6 182.5 23.3C182.7 23.2 182.9 23.2 183.1 23.1C183.7 22.9 184.3 22.7 184.8 22.5C187.1 21.7 189.5 20.8 191.8 19.9H191.9C192.5 19.7 193.2 19.4 193.8 19.2C194.4 19 194.9 18.8 195.5 18.5C195.9 18.3 196.3 18.2 196.7 18C196.9 17.9 197.1 17.9 197.2 17.8C197.6 17.6 198.1 17.4 198.5 17.3C198.9 17.1 199.4 16.9 199.8 16.7C200.2 16.5 200.7 16.3 201.1 16.1C201.5 15.9 201.9 15.7 202.3 15.5C202.3 15.5 202.4 15.5 202.4 15.4C203.1 15 203.8 14.7 204.5 14.3C204.9 14.1 205.3 13.9 205.7 13.6C206.1 13.4 206.6 13.1 207 12.8C207.5 12.5 208 12.2 208.5 11.9C208.5 11.9 208.6 11.8 208.7 11.8Z"
    fill="#F08C48" />
  <path
    d="M145.2 4.99999C145.2 5.49999 144.9 5.79999 144.3 5.99999C143.8 6.19999 143.4 6.39999 142.9 6.49999C142.7 6.59999 142.4 6.69999 142.2 6.79999C141.8 6.89999 141.5 6.99999 141.1 7.19999C140.7 7.29999 140.4 7.39999 140 7.49999C139.6 7.59999 139.3 7.69999 138.9 7.79999C138.5 7.89999 138.2 7.99999 137.8 8.09999C137.6 8.19999 137.4 8.19999 137.3 8.19999C136.8 8.29999 136.4 8.39999 135.9 8.59999C132.9 9.29999 129.9 9.89999 126.9 10.6C126.6 10.7 126.3 10.7 126 10.8C125.7 10.9 125.3 11 125 11C124.8 11.1 124.6 11.1 124.3 11.2C123.4 11.4 122.6 11.7 121.7 11.9C121.4 12 121 12.1 120.7 12.2C120.4 12.3 120.2 12.4 119.9 12.5C119.5 12.6 119.1 12.8 118.7 12.9C118.4 13 118.1 13.1 117.9 13.3C117.3 13.6 116.7 13.9 116.1 14.2C115.8 14.4 115.5 14.5 115.2 14.7C114.9 14.9 114.6 15.1 114.3 15.2C113.6 15.6 113 16.1 112.4 16.6C112.1 16.8 111.8 17 111.6 17.2C111.2 17.5 110.7 17.9 110.3 18.3C107.9 20.3 106.2 23.1 103.5 24.6C103 23.2 102.3 23.8 101.5 24.2C98.7 25.7 95.7 26.8 92.7 27.8C90.1 28.7 87.6 29.6 85.1 30.7C83.2 31.6 81.3 31 79.6 31.8C77.4 32.9 74.8 33.2 72.5 33.4C69.9 33.6 67.4 33.6 64.8 33.6C69.6 30 74.6 26.7 79.8 23.7C88.5 18.6 97.7 14.4 107.3 11.1C110.9 9.89999 114.5 8.79999 118.1 7.79999C122.7 6.59999 127.5 5.59999 132.3 4.79999H145.2V4.99999Z"
    fill="#E6EBF6" />
  <path
    d="M182.4 5C187.6 5.9 192.8 7 197.8 8.3C197.8 8.3 197.8 8.3 197.7 8.3C197.4 8.4 197.1 8.6 196.8 8.7C196.7 8.7 196.7 8.8 196.6 8.8C196.4 8.9 196.1 9 195.8 9.1C195.7 9.2 195.5 9.2 195.3 9.3C195 9.4 194.7 9.5 194.4 9.6C194.2 9.7 194 9.7 193.8 9.8C193.5 9.9 193.1 10 192.8 10C192.3 10.1 191.8 10.2 191.3 10.3C191.2 10.3 191 10.4 190.9 10.4C190.6 10.5 190.2 10.6 189.9 10.6C189.8 10.6 189.7 10.7 189.5 10.7H189.4C188.8 10.9 188.1 11.1 187.5 11.3C187.1 11.4 186.6 11.6 186.1 11.7C185.4 11.9 184.7 12.2 183.9 12.4C180.2 13.6 176.3 13.9 172.7 15C169.2 16 165.5 16.1 162 16.6C160.7 16.8 159.5 17 158.2 17.2C156.7 17.4 155.1 17.6 153.6 17.8C151.3 18.1 149 18.3 146.7 18.7C141.7 19.4 136.5 19.1 131.4 19.7C129.3 20 127.1 20 125 20C122.2 20 119.4 19.9 116.7 19.9C116.1 19.9 115.3 20.3 115 19.4C114.7 18.5 115.4 18.3 115.9 17.7C116.2 17.3 116.6 17 117 16.7C118.7 15.3 120.8 14.3 121.7 12C122.5 11.7 123.4 11.5 124.3 11.3C124.5 11.2 124.8 11.2 125 11.1C125.3 11 125.6 10.9 126 10.9C126.3 10.8 126.6 10.7 126.9 10.7C129.9 10 132.9 9.4 135.9 8.7C136.4 8.6 136.8 8.5 137.3 8.3C139.7 7.7 142 7 144.2 6C144.7 5.8 145 5.5 145.1 5H182.4Z"
    fill="#F7BA1A" />
  <path
    d="M208.7 11.8C208.6 11.9 208.5 11.9 208.4 12C207.9 12.3 207.4 12.6 206.9 12.9C206.5 13.2 206 13.4 205.6 13.7C205.2 13.9 204.8 14.1 204.4 14.4C203.7 14.8 203 15.2 202.3 15.5C202.3 15.5 202.2 15.5 202.2 15.6C201.8 15.8 201.4 16 201 16.2C200.6 16.4 200.1 16.6 199.7 16.8C199.3 17 198.8 17.2 198.4 17.4C198 17.6 197.6 17.8 197.1 17.9C196.9 18 196.7 18.1 196.6 18.1C196.2 18.3 195.8 18.4 195.4 18.6C194.8 18.8 194.3 19 193.7 19.3C193.1 19.5 192.4 19.8 191.8 20H191.7C189.4 20.9 187 21.7 184.7 22.6C184.1 22.8 183.5 23 183 23.2C182.8 23.3 182.6 23.3 182.4 23.4C181.4 23.7 180.5 24 179.5 24.3C177.5 24.9 175.6 25.5 173.6 26.1C172.6 26.4 171.6 26.7 170.6 27C169.4 27.4 168.1 27.8 166.8 28.2C165.6 28.6 164.3 29 163 29.3C161.5 29.8 159.9 30.2 158.4 30.6C157.4 30.9 156.4 31.2 155.4 31.4C154.5 31.6 153.6 31.9 152.7 32.1C152.7 32.1 152.7 32.1 152.6 32.1C151.9 32.3 151.2 32.5 150.4 32.6C149.1 32.9 147.7 33.2 146.4 33.5C145.4 33.7 144.4 34 143.5 34.2C143.2 34.3 142.8 34.4 142.5 34.5C142.3 34.6 142.1 34.6 141.9 34.7C135.7 36.3 129.3 36.7 123.1 38.4C122.9 38.5 122.6 38.4 122.4 38.4C117.8 38.3 113.2 39.7 108.6 39.7C101.8 39.7 95 39.7 88.2 39.6C87.2 39.6 86.1 39.5 85.1 39.5C83.4 38 81.4 38.8 79.5 38.7C78.9 38.6 78.3 38.8 77.8 38.5C74.8 37 72.5 38.3 70.3 40.3C70.1 40.5 69.7 40.5 69.4 40.7C67 42.5 64.1 43.5 61.9 45.5C59 45.7 57 47.9 54.4 48.9C53.6 49.2 52.2 49 52 50.4C51 50 50.7 51.1 50 51.4C47.3 52.5 44.6 53.6 41.9 54.8C47.8 48.2 54.2 42.1 61.1 36.6C63.5 36.7 65.9 36.5 68.3 36.2C74 35.4 79.6 34.4 85.1 32.8C88.7 31.8 92.1 30.3 95.6 29C95.8 28.9 96.1 28.8 96.3 28.8C98.6 28 100.3 25.8 102.9 25.7C108.3 25.6 113.6 25.7 119 25C123.4 24.5 127.9 24 132.4 23.5C133.1 23.4 133.7 23.4 134.4 23.3C135.2 23.2 136.1 23.1 136.9 23C137.2 23 137.5 22.9 137.8 22.9C137.9 22.9 138 22.8 138.1 22.8C138.5 22.7 138.9 22.7 139.2 22.6C145 21.2 151 20.3 156.8 19.1C157 19.1 157.3 19 157.5 19C157.7 19 157.9 18.9 158.2 18.9C159.7 18.6 161.3 18.2 162.8 17.9C162.9 17.9 163 17.8 163.1 17.8C163.6 17.7 164.2 17.6 164.7 17.5C165.6 17.3 166.6 17.1 167.5 17C168.1 16.9 168.8 16.8 169.4 16.7C170.5 16.5 171.9 16.4 172.7 15.2C176.4 14 180.2 13.8 183.9 12.6C184.6 12.4 185.3 12.1 186.1 11.9C186.5 11.8 187 11.6 187.5 11.5C188.1 11.3 188.8 11.1 189.4 10.9H189.5C189.6 10.9 189.7 10.8 189.9 10.8C190.2 10.7 190.6 10.6 190.9 10.6C191 10.6 191.2 10.5 191.3 10.5C191.8 10.4 192.3 10.3 192.8 10.2C193.1 10.1 193.5 10.1 193.8 9.99998C194 9.99998 194.2 9.89998 194.4 9.79998C194.7 9.69998 195 9.59998 195.3 9.49998C195.5 9.39998 195.6 9.39998 195.8 9.29998C196.1 9.19998 196.3 9.09998 196.6 8.99998C196.7 8.99998 196.7 8.89998 196.8 8.89998C197.1 8.79998 197.4 8.69998 197.7 8.49998C197.7 8.49998 197.7 8.49998 197.8 8.49998C201.5 9.39998 205.1 10.5 208.7 11.8Z"
    fill="#121213" />
  <path
    d="M39.7 131.7C38.2 130.1 37.5 131.7 36.6 132.5C34.3 134.8 31.5 136.3 28.8 138C28.5 142.6 26.3 146.5 24.6 150.6C21.7 157.7 17.6 164.1 12.8 169.9C10.2 173 7.40002 176 4.40002 178.7C4.80002 181.6 5.30002 184.5 5.90002 187.4C5.90002 187.4 5.90002 187.4 6.00002 187.4C6.50002 187.5 6.50002 188 6.50002 188.3C6.40002 188.5 6.40002 188.7 6.30002 188.9C6.80002 191.1 7.30002 193.3 7.80002 195.5C8.70002 193.7 10 191.9 11.6 190.3C14.2 187.8 17.4 185.9 19.7 183.1C21.4 180.9 23.8 178.7 23.9 175.9C24.2 169.6 28.5 164.8 29.3 158.7C29.7 155.8 30.2 155.6 27.4 155.6C24.9 155.6 24.8 155 25.3 152.5C26 148.9 29.1 147.5 31.1 145.2C32.5 143.6 34.3 142.2 35.3 140.2C36.3 138.2 38.5 137.6 39.6 135.8C40.6 134.4 41 133.1 39.7 131.7Z"
    fill="#68A8CB" />
  <path
    d="M15.5 125.2C15.1 122.8 15.2 120.4 14.4 118C13.9 116.6 14.6 115.2 15.3 113.8C12.6 114.3 10.5 116 8.3 117.4C6.1 125.8 4.5 134.4 3.7 143.3C4.3 142.3 4.8 141.3 5.2 140.2C5.6 139.2 6.6 138.5 7.3 137.7C7.9 137.1 8.5 136.5 9.1 137.1C9.7 137.6 9.7 138.7 9.3 139.4C6.9 143.4 5.2 147.7 3.1 151.8C3 153.6 3 155.5 3 157.3C3 158.1 3 158.8 3 159.6C4.1 158.2 5.1 156.7 6 155C8 150.9 10.8 147.2 12.7 143.1C13.6 141.3 13.9 139.2 14.2 137.4C14.6 134.3 15.1 131.2 16.2 128.3C16.5 127.1 15.6 126.2 15.5 125.2Z"
    fill="#F7BA1A" />
  <path
    d="M28.9 138C28.6 142.6 26.4 146.5 24.7 150.6C21.8 157.7 17.7 164.1 12.9 169.9C10.3 173 7.49998 176 4.49998 178.7C4.09998 176.2 3.89998 173.7 3.59998 171.1C6.39998 168.2 8.79998 164.9 11 161.5C13.4 157.8 16.5 154.5 16.3 149.6C16.3 148.9 16.8 148.6 17.2 148.2C18.6 146.7 19.5 145.1 20.4 143.2C23.1 137.2 22.6 130.6 23.9 124.4C24.4 122 23.4 119.9 22.9 117.7C22.1 114.5 21.7 111.1 20.1 108.1C21.9 106.8 23.6 105.6 26 105.9C28 107.8 28.1 110.5 28.9 113C28.9 113.3 28.9 113.6 28.9 114C28.4 116.1 30.3 117.9 29.9 120C29.8 122.6 31.4 125 30.2 127.6C30.2 127.7 30.6 127.9 30.7 128C30.1 130.4 29.5 132.8 27.5 134.6C26.9 135.2 26 135.7 26.2 136.7C26.7 137.9 27.8 138 28.9 138Z"
    fill="#F08C48" />
  <path
    d="M23 117.8C22.2 114.6 21.8 111.2 20.2 108.2C18.5 109.4 16.5 110.2 16.2 112.7C16.6 116.3 18.2 119.6 18.9 123.1C19 123.7 19.2 124.2 19.2 124.8C18.9 128.6 18.7 132.5 16.8 136C16.7 136.2 16.5 136.5 16.5 136.6C18 142.2 14.4 146 12.2 150.4C10.6 153.5 8.80001 156.8 6.60001 159.2C5.50001 160.5 4.40001 161.8 3.20001 163C3.30001 165.7 3.50001 168.4 3.70001 171.1C6.50001 168.2 8.90001 164.9 11.1 161.5C13.5 157.8 16.6 154.5 16.4 149.6C16.4 148.9 16.9 148.6 17.3 148.2C18.7 146.7 19.6 145.1 20.5 143.2C23.2 137.2 22.7 130.6 24 124.4C24.5 122.1 23.5 119.9 23 117.8Z"
    fill="#F7BA1A" />
  <path
    d="M17.3 92.3C17.6 92.3 17.9 92.2 18.2 92.2C19.1 90.6 20 90.7 21 92.1C21.3 92.1 21.7 92.1 22 92.1C22.2 90.9 23.2 91.2 23.9 91.1C24 90.6 24.1 90.2 24.7 90.2C25.5 88.7 26.6 87.7 28.4 87.2C29.8 86.8 31.3 86.6 32 84.8C32.4 83.7 33.7 84.1 34.6 84.2C35.2 80.8 38.2 80 40.5 78.4C41.9 77.4 43.7 77 45.4 76.3C45.8 75.1 47.1 74.8 47.9 74.1C52.7 69.9 58.4 66.9 63.2 62.7C64.2 61.8 65.1 60.6 66.4 60C66.6 59.9 66.9 59.8 67.1 59.7C67.3 59.6 67.6 59.5 67.8 59.5C68.1 59.4 68.3 59.4 68.6 59.5C68.6 59.4 68.6 59.3 68.7 59.2C68.7 59.1 68.8 59 68.8 59C68.8 58.9 68.8 58.9 68.9 58.8C69 58.6 69.1 58.4 69.3 58.3L69.5 58.1C69.7 57.9 69.8 57.8 70 57.7C70.2 57.6 70.3 57.5 70.5 57.4C70.9 57.2 71.3 56.9 71.6 56.6C72.7 55.6 74.1 55.1 74.8 53.6C72.3 52.3 69.6 52.1 66.9 52.6C63.8 55.4 60.7 58.2 57.2 60.6C55.6 61.6 54 62.7 52.6 64C48.6 67.8 43.5 70.2 39.4 73.8C36.3 76.5 32.8 78.6 29.6 81.1C26.5 83.5 23.2 85.8 19.8 87.8L17.3 92.3Z"
    fill="#68A8CB" />
  <path
    d="M53.1 83.4C52 85.7 52.2 88.5 50.2 90.3C48.4 91.2 46.7 92.3 45.4 93.7C40.2 99.3 34.5 104.2 26.6 105.3C26.2 105.4 26.2 105.7 26.1 106C23.8 105.7 22 106.9 20.2 108.2C18.5 109.4 16.5 110.2 16.2 112.7C15.4 112.7 15.3 113.2 15.3 113.8C12.6 114.3 10.5 116 8.29999 117.4C8.69999 115.7 9.19999 114.1 9.69999 112.5C10.3 112 10.8 111.5 11.4 111C13 109.6 14.8 108.3 16.2 106.6C21.9 99.8 28.7 95 37.4 93C39.4 92.5 41.4 91.6 43.3 90.7C46 89.5 46.9 86.7 48.3 84.3C49.4 84.4 50.3 83.5 51.4 83.2C51.6 83.1 51.8 83.1 52 83.1C52.2 83.1 52.4 83.1 52.6 83.2C52.8 83.2 52.9 83.3 53.1 83.4Z"
    fill="#202223" />
  <path
    d="M90 67.4C88.8 67 88 68.4 86.8 68.3C85.9 67 84.6 67.7 83.5 67.6C74.5 66.7 65.9 67.6 58.3 73.3C61.8 72.4 65.2 71 68.8 70.5C72.5 70 76.4 70.4 80.1 70.3C78.8 71.9 76.8 71.9 75.1 72.4C68.9 71.7 63.2 73.4 57.8 76.3C54.1 78.3 50.4 80.3 48.2 84.3C46.9 86.7 45.9 89.5 43.2 90.7C41.3 91.6 39.3 92.5 37.3 93C28.6 95 21.7 99.8 16 106.6C14.6 108.2 12.8 109.5 11.2 111C10.8 111 10.4 111 9.99999 111C9.59999 110.9 9.29999 110.7 9.29999 110C9.79999 109.1 10.4 108.4 11.1 107.7C12.1 106.6 13.3 105.6 14.3 104.5C17.6 101 20.8 97.4 25.2 95.2C30 92.8 35.1 91 40.2 89.2C41.6 88.7 43.2 88.1 43.3 86.1C45.7 80.5 50.8 77.9 55.4 74.7C54.5 74.7 53.8 74.6 52.9 75C50.3 76.1 47.8 77.5 45.2 78.5C40.6 80.2 36.7 83 35.3 88.2C34.8 88.3 34.3 88.5 33.8 88.8C31.1 90.5 28.3 92 25.1 92.3C25 92.2 24.9 92.1 24.8 92.1C24.9 91.5 24.5 91.3 24 91.3L23.9 91.1C24 90.6 24.1 90.2 24.7 90.2C29 90 32.3 88 34.5 84.2C35.1 80.8 38.1 80 40.4 78.4C41.8 77.4 43.6 77 45.3 76.3C50.3 74.9 54.9 72.7 59.4 70.3C62.6 68.7 65.7 66.7 69.1 66.5C75.3 66.1 81.6 66.4 87.9 66.5C88.7 66.6 89.7 66.2 90 67.4Z"
    fill="#E7E8E8" />
  <path
    d="M90 67.4C89.7 66.2 88.7 66.6 88 66.6C81.7 66.5 75.4 66.2 69.2 66.6C65.8 66.8 62.6 68.8 59.5 70.4C54.9 72.7 50.3 75 45.3 76.4C45.7 75.2 47 74.9 47.8 74.2C52.6 70 58.3 67 63.1 62.8C64.1 61.9 65 60.7 66.3 60.1C67.1 59.8 67.7 59.5 68.5 59.6C68.5 60.8 68.1 61.6 70.2 61.1C74.3 60.1 78.5 59.1 82.8 59.7C84.3 59.9 85.9 60.4 87.3 61.1C88.7 61.8 89.8 61.6 91.2 61.2C95.1 60.2 99 59.4 103 59.9C104.2 60 105.6 60.9 105.5 62.1C105.4 63.8 103.8 64.9 102.4 65.4C100.7 66 99.1 66.7 97.1 66.4C94.8 65.8 92.6 67.7 90 67.4Z"
    fill="#F7BA1A" />
  <path
    d="M43.4 86.1C43.3 88.1 41.7 88.7 40.3 89.2C35.2 91 30.1 92.8 25.3 95.2C20.9 97.4 17.7 101 14.4 104.5C13.4 105.6 12.2 106.6 11.2 107.7C12.3 104.4 13.5 101.2 14.9 98C17.6 96.3 20.5 95.1 23.1 93.3C23.8 92.9 24.9 93.8 25.2 92.4C28.4 92.1 31.2 90.6 33.9 88.9C34.4 88.6 34.9 88.4 35.4 88.3C36.3 88.3 37 88.1 37.9 87.8C39.6 87.1 41.4 86 43.4 86.1Z"
    fill="#202223" />
  <path
    d="M18.2 92.2C18.2 92.5 18.2 92.8 18.2 93.2C17.8 94 17.1 94.3 16.3 94.5C16.6 93.7 17 93 17.3 92.3C17.6 92.3 17.9 92.3 18.2 92.2Z"
    fill="#202223" />
  <path
    d="M26 106C26.1 105.7 26.1 105.3 26.5 105.3C34.4 104.2 40.1 99.3 45.3 93.7C46.7 92.2 48.3 91.1 50.1 90.3C50.6 92.2 48.9 93.5 49.1 95.3C47.6 98.1 46 100.7 44.1 103.2C41.4 106.8 38.8 110.3 35.5 113.3C34.8 113.9 34.2 114.7 33.9 115.6C33.1 117.6 31.6 118.8 29.9 120C30.2 117.9 28.4 116.1 28.9 114C30.2 114.2 31 113.2 31.6 112.3C33.1 110 35 108 36.8 106C37.3 105.5 37.9 104.9 37.3 104.4C36.6 103.7 36.2 104.6 35.7 105.2C33.5 107.9 31.2 110.5 28.9 113.1C28.1 110.6 28 107.9 26 106Z"
    fill="#F7BA1A" />
  <path
    d="M16.4 136.6C17.9 142.2 14.3 146 12.1 150.4C10.5 153.5 8.7 156.8 6.5 159.2C5.4 160.5 4.3 161.8 3.1 163C3.1 161.9 3 160.7 3 159.6C4.1 158.2 5.1 156.7 6 155C8 150.9 10.8 147.2 12.7 143.1C13.6 141.3 13.9 139.2 14.2 137.4C14.6 134.3 15.1 131.2 16.2 128.3C16.6 127.2 15.7 126.3 15.5 125.3C15.1 122.9 15.2 120.5 14.4 118.1C13.9 116.7 14.6 115.3 15.3 113.9C15.2 113.2 15.4 112.8 16.2 112.8C16.6 116.4 18.2 119.7 18.9 123.2C19 123.8 19.2 124.3 19.2 124.9C18.9 128.7 18.7 132.6 16.8 136.1C16.6 136.2 16.4 136.4 16.4 136.6Z"
    fill="#F08C48" />
  <path
    d="M29.9 120.1C31.5 118.9 33 117.7 33.9 115.7C34.2 114.8 34.9 114 35.5 113.4C38.8 110.4 41.4 106.9 44.1 103.3C46 100.8 47.6 98.1 49.1 95.4C48.9 99.4 49.7 103.6 47.2 107.2C46.9 107.7 46.6 108.2 46.1 108.5C42.1 110.5 40.3 114.3 38.2 118.1C36.8 120.6 35.8 123.3 33.9 125.5C32.9 126.6 31.7 127.2 30.7 128.2C30.5 128.1 30.1 127.8 30.2 127.8C31.4 125.1 29.8 122.6 29.9 120.1Z"
    fill="#68A8CB" />
  <path
    d="M41.5 142.1C41.5 144.7 34.9 152.3 32.5 152.6C31.7 152.7 30.6 153 30.1 152C29.7 151 29.6 149.9 30.4 149C33 146.2 35.8 143.5 38.4 140.7C39.1 139.9 40 139.8 40.8 140.1C41.8 140.4 41.4 141.4 41.5 142.1Z"
    fill="#68A8CB" />
  <path
    d="M48.3 84.4C50.5 80.5 54.2 78.4 57.9 76.4C63.3 73.5 69 71.7 75.2 72.5C73.9 73.8 72.1 74 70.5 74.3C65.4 75.1 61.1 77.7 56.6 80C55 80.8 55.1 83.2 53.1 83.5C51.2 82.3 50 84.5 48.3 84.4Z"
    fill="#F7BA1A" />
  <path
    d="M80.2 70.3C76.4 70.3 72.6 69.9 68.9 70.5C65.3 71 61.9 72.4 58.4 73.3C66 67.7 74.6 66.7 83.6 67.6C84.7 67.7 86 67 86.9 68.3C84.7 69.3 82.7 70.5 80.2 70.3Z"
    fill="#F7BA1A" />
  <path
    d="M11.3 111C10.7 111.5 10.2 112 9.59998 112.5C9.79998 112 9.89998 111.5 10.1 110.9C10.5 111 10.9 110.9 11.3 111Z"
    fill="#CFCECE" />
  <path
    d="M68.6 59.5C68.9 57.8 70.4 57.5 71.5 56.5C72.6 55.5 74 55 74.7 53.5C77.9 53.1 80.9 54.7 84.1 54.7C82.4 56.5 80.1 56.3 78 56.8C74.7 57.6 71.8 59.2 68.6 59.5Z"
    fill="#F7BA1A" />
  <path d="M18.2 93.2C18.2 92.9 18.2 92.6 18.2 92.2C19.1 90.6 20 90.7 21 92.1C20.3 93.2 19.3 93.3 18.2 93.2Z"
    fill="#787878" />
  <path
    d="M25.2 92.4C24.9 93.8 23.8 92.9 23.1 93.3C23.1 92.6 22.7 92.3 22.1 92.2C22.3 91 23.3 91.3 24 91.1L24.1 91.3C24.1 91.9 24.3 92.2 24.9 92.1C25 92.2 25.1 92.3 25.2 92.4Z"
    fill="#E7E8E8" />
  <path
    d="M60.2 50.8C57.4 50.8 54.7 50.7 51.9 50.6C50.9 50.2 50.6 51.3 49.9 51.6C47.2 52.7 44.5 53.8 41.8 55C38.3 59 34.9 63.1 31.8 67.5C32.1 67.7 32.3 68.1 32.4 68.4C32.8 69.7 31.1 70.1 30.1 70.7C29.8 70.8 29.6 71 29.3 71.1C27.1 74.4 25 77.7 23.1 81.2C27.5 79 31.6 76.2 35.3 72.5C38.6 69.2 41.7 65.4 45.5 62.7C49.3 60 53.2 57.2 57.7 55.6C60.1 54.7 62.4 53.5 64.7 52.5C63.5 51.3 62 50.8 60.2 50.8Z"
    fill="#68A8CB" />
  <path
    d="M66.6 52.5C63.5 55.4 60.4 58.1 56.9 60.5C55.3 61.6 53.7 62.6 52.3 63.9C48.3 67.7 43.2 70.1 39.1 73.7C36 76.4 32.5 78.5 29.4 81C26.3 83.4 23 85.7 19.6 87.7C20.7 85.5 21.9 83.4 23.1 81.3C27.5 79.1 31.6 76.3 35.3 72.6C38.6 69.3 41.7 65.5 45.5 62.8C49.3 60.1 53.2 57.3 57.7 55.7C60.1 54.8 62.4 53.6 64.7 52.6C65.4 52.5 66 52.5 66.6 52.5Z"
    fill="#F7BA1A" />
  <path
    d="M61.8 45.6C64 43.6 66.9 42.5 69.3 40.8C69.6 40.6 70 40.6 70.2 40.4C72.4 38.4 74.7 37.1 77.7 38.6C78.2 38.8 78.8 38.7 79.4 38.8C81.1 40.5 83.1 39.4 85 39.6C86 39.6 87.1 39.7 88.1 39.7C88.4 41 89.5 40.5 90.3 40.5C96 40.6 101.8 40.6 107.5 40.6C107.5 42.1 105.9 42.2 105.4 42.4C101.6 43.6 97.9 44.9 94.2 46.2C89.7 47.8 85 47.6 80.3 47.6C74.9 47.5 69.4 47.4 64.1 46.3C63.2 46.3 62.5 45.9 61.8 45.6Z"
    fill="#68A8CB" />
  <path
    d="M107.5 40.7C101.7 40.7 96 40.6 90.3 40.6C89.5 40.6 88.4 41.1 88.1 39.8C94.9 39.8 101.7 39.8 108.5 39.9C108.5 40.5 108.1 40.8 107.5 40.7Z"
    fill="#0872AF" />
  <path
    d="M172.9 15C172.1 16.2 170.7 16.4 169.6 16.5C165.4 17.1 161.2 18.2 157 19.1C151.1 20.3 145.2 21.2 139.4 22.6C137.2 23.1 134.8 23.3 132.5 23.6C128 24.1 123.6 24.6 119.1 25.1C113.7 25.7 108.4 25.7 103 25.8C103 25.4 103.1 25 103.5 24.8C106.3 23.3 108 20.5 110.3 18.5C113.7 15.6 117.4 13.2 121.8 12.1C120.6 14.8 117.8 15.8 116 17.7C115.5 18.2 114.8 18.5 115.1 19.4C115.4 20.3 116.2 19.9 116.8 19.9C121.7 19.9 126.7 20.3 131.5 19.7C136.6 19.1 141.7 19.4 146.8 18.7C151.9 18 157 17.5 162.1 16.7C165.7 16.1 169.3 16 172.9 15Z"
    fill="#68A8CB" />
  <path
    d="M103.5 24.8C103.1 25 103 25.4 103 25.8C100.4 25.9 98.7 28.1 96.4 28.9C96.2 29 95.9 29.1 95.7 29.1C92.2 30.4 88.8 31.9 85.2 32.9C79.7 34.5 74 35.5 68.4 36.3C66 36.6 63.6 36.8 61.2 36.7C62.4 35.7 63.6 34.8 64.9 33.8C67.5 33.8 70 33.7 72.6 33.6C74.9 33.5 77.4 33.1 79.7 32C81.4 31.2 83.3 31.7 85.2 30.9C87.7 29.8 90.2 28.9 92.8 28C95.8 27 98.8 25.9 101.6 24.4C102.3 23.9 103 23.4 103.5 24.8Z"
    fill="#E7E8E8" />
  <path d="M85 39.6C83.1 39.4 81.1 40.5 79.4 38.8C81.2 39 83.3 38.2 85 39.6Z" fill="#919292" />
  <path
    d="M6.5 188.3C6.4 188.5 6.4 188.7 6.3 188.9C6.2 188.4 6.1 187.8 6 187.3C6 187.3 6 187.3 6.1 187.3C6.5 187.6 6.5 188 6.5 188.3Z"
    fill="#E6EBF6" />
  <path
    d="M9.29998 139.4C6.89998 143.4 5.19998 147.7 3.09998 151.8C3.19998 149 3.39998 146.2 3.59998 143.4C4.19998 142.4 4.69998 141.4 5.09998 140.3C5.49998 139.3 6.49998 138.6 7.19998 137.8C7.79998 137.2 8.39998 136.6 8.99998 137.2C9.79998 137.6 9.79998 138.7 9.29998 139.4Z"
    fill="#E7E8E8" />
  <path
    d="M28.9 113.1C31.2 110.5 33.5 107.9 35.7 105.2C36.2 104.6 36.6 103.8 37.3 104.4C37.8 104.9 37.3 105.5 36.8 106C35 108 33.1 109.9 31.6 112.3C31 113.2 30.3 114.2 28.9 114C28.9 113.7 28.9 113.4 28.9 113.1Z"
    fill="#919292" />
  <path
    d="M34.6 84.3C32.4 88.1 29.1 90 24.8 90.3C25.6 88.8 26.7 87.8 28.5 87.3C29.9 86.9 31.4 86.7 32.1 84.9C32.4 83.8 33.6 84.2 34.6 84.3Z"
    fill="#F7BA1A" />
  <path
    d="M43.4 86.1C41.4 86 39.6 87.1 37.8 87.7C37 88 36.2 88.2 35.4 88.2C36.9 83 40.8 80.2 45.3 78.5C48 77.5 50.4 76.1 53 75C53.9 74.6 54.6 74.7 55.5 74.7C50.9 77.8 45.8 80.5 43.4 86.1Z"
    fill="#F7BA1A" />
  <path d="M24.9 92.1C24.3 92.1 24 91.9 24.1 91.3C24.6 91.3 25 91.5 24.9 92.1Z" fill="white" />
  <path
    d="M30.1 70.7C29.8 70.8 29.6 71 29.3 71.1C30.1 69.9 31 68.6 31.9 67.4C32.2 67.6 32.4 68 32.5 68.3C32.8 69.7 31.2 70.1 30.1 70.7Z"
    fill="#E6EBF6" />
  <path
    d="M264.7 50.6C261.9 50.7 259.1 50.8 256.4 50.8C254.6 50.8 253.1 51.3 251.9 52.5C251.3 52.5 250.6 52.5 250 52.6C247.3 52.1 244.6 52.3 242.1 53.6C238.9 53.2 235.9 54.8 232.7 54.8C229.8 54.6 226.9 53.9 224.1 53.7C217.8 53.3 211.6 53.1 205.3 51.8C198.9 50.5 192.4 50 186.3 47.6C183.3 46.4 180.8 44.6 178.9 42C177.1 39.5 173.1 37.2 170.5 38.1C167.4 39.1 164.7 38.1 161.8 37.1C160.6 36.6 159.5 35.9 158.4 35.2C157.4 34.5 156.4 33.8 155.3 33.3C154.5 32.9 153.6 32.5 152.8 32.4C152.4 32.3 151.9 32.2 151.5 32.2C151 32.2 150.8 32.5 150.6 32.9C150.3 33.4 150.2 34.2 149.9 34.7C148.7 36.1 147.5 37.7 145.3 36C144.6 35.4 143.5 35.3 142.7 34.8C138.2 32.4 133.2 30.9 129.6 27C129 26.4 128.3 25.4 127.4 26.3C126.5 27.2 127.3 28.1 128 28.8C129.4 30.2 130.9 31.5 132.3 32.9C133.2 33.7 133.2 34.8 132.3 35.4C131.1 36.2 129.9 37 128.1 36.3C124.5 34.9 120.8 33.5 116.9 33C112.3 32.4 107.6 31.8 103 31.1C100.5 30.7 98.1 30.1 95.8 29.3C94.8 29 93.8 28.6 92.8 28.3C90.2 27.4 87.6 26.4 84.9 25.6C83.2 25.1 81.5 24.6 79.9 24.2C88.6 19.1 97.8 14.9 107.4 11.6C107.7 11.8 108.1 12 108.4 12.2C110.4 13.5 112.5 14.6 114.6 15.7C115.5 16.1 116.4 16.6 117.3 17C119.9 18.2 122.6 19.3 125.3 20.3C127.6 21.2 130 22 132.3 22.9C133.1 23.2 133.8 23.4 134.6 23.7C138.5 25 142.5 26.1 146.4 27.4C150.4 28.7 154.5 29.9 158.5 31C159.5 31.3 160.5 31.6 161.5 31.8C162.4 32 163.3 32.3 164.2 32.5C164.9 32.7 165.7 32.9 166.4 33C169.1 33.6 171.7 34.2 174.4 34.9C174.6 35 174.8 35 175 35.1C181.2 36.7 187.6 37.1 193.8 38.8C194 38.9 194.3 38.8 194.5 38.8C199.1 38.7 203.7 40.1 208.3 40.1C208.3 40.8 208.6 41.1 209.3 41C209.3 42.4 210.9 42.6 211.4 42.8C215.2 44 218.9 45.3 222.6 46.6C227.1 48.2 231.8 48 236.5 48C241.9 47.9 247.4 47.8 252.7 46.8C253.5 46.6 254.2 46.3 254.9 46C257.8 46.2 259.8 48.4 262.4 49.4C263.1 49.4 264.5 49.2 264.7 50.6Z"
    fill="#F08C48" />
  <path
    d="M249.9 33.8C248 33.8 246.1 33.7 244.1 33.6C241.8 33.5 239.3 33.1 237.1 32C235.4 31.2 233.5 31.7 231.6 30.9C229.1 29.8 226.6 28.9 224 28C221 27 218 25.9 215.2 24.4C214.3 23.9 213.6 23.4 213.2 24.8C210.4 23.3 208.7 20.5 206.4 18.5C206 18.2 205.6 17.8 205.2 17.5C204.7 17.1 204.2 16.7 203.6 16.3C203.3 16.1 203 15.9 202.7 15.7C202.6 15.6 202.5 15.5 202.4 15.5C202.1 15.3 201.8 15.1 201.5 15C201.2 14.8 200.9 14.7 200.7 14.5C200.5 14.4 200.4 14.3 200.2 14.2C200 14.1 199.8 14 199.7 13.9C199.4 13.8 199.2 13.6 198.9 13.5C198.6 13.4 198.3 13.2 198 13.1C197.8 13 197.6 13 197.4 12.9C197.2 12.8 197 12.8 196.8 12.7C196.5 12.6 196.3 12.5 196 12.4C195.7 12.3 195.3 12.2 195 12.1C194.1 11.8 193.3 11.6 192.4 11.4C192.2 11.3 191.9 11.3 191.7 11.2C191.4 11.1 191 11 190.7 11C190.4 10.9 190.1 10.8 189.8 10.8C187.6 10.3 185.4 9.80001 183.2 9.30001C182.5 9.10001 181.7 9.00001 181 8.80001C180.6 8.70001 180.3 8.60001 179.9 8.50001C177.4 7.90001 174.9 7.10001 172.4 6.10001C171.9 5.90001 171.6 5.60001 171.5 5.10001H182.4C187.6 6.00001 192.8 7.10001 197.8 8.40001C201.5 9.40001 205.1 10.5 208.6 11.8C218 15.1 227 19.3 235.5 24.3C240.5 27.2 245.3 30.4 249.9 33.8Z"
    fill="#E6EBF6" />
  <path
    d="M201.5 19.4C201.2 20.3 200.4 19.9 199.8 19.9C197 19.9 194.3 20 191.5 20C189.3 20 187.2 19.9 185.1 19.7C180 19.1 174.9 19.4 169.8 18.7C167.5 18.4 165.2 18.1 162.9 17.8C162.7 17.8 162.4 17.7 162.1 17.7C160.8 17.6 159.5 17.4 158.3 17.2C157 17 155.8 16.8 154.5 16.6C150.9 16 147.3 16 143.8 15C140.1 13.8 136.3 13.6 132.6 12.4C131.9 12.2 131.2 11.9 130.4 11.7C130 11.6 129.5 11.4 129.1 11.3C129 11.3 129 11.2 128.9 11.2C128.3 11 127.7 10.8 127.1 10.7H127C126.9 10.7 126.8 10.6 126.6 10.6C126.3 10.5 125.9 10.4 125.6 10.4C125.5 10.4 125.3 10.3 125.2 10.3C124.7 10.2 124.2 10.1 123.8 10C123.5 9.90001 123.1 9.90001 122.8 9.80001C122.6 9.70001 122.3 9.70001 122.1 9.60001C122.1 9.60001 122.1 9.60001 122 9.60001C121.9 9.60001 121.7 9.50001 121.6 9.50001C121.3 9.40001 121 9.30001 120.7 9.20001C120.4 9.10001 120.2 9.00001 119.9 8.90001C119.6 8.80001 119.4 8.70001 119.1 8.60001C118.8 8.50001 118.5 8.30001 118.2 8.20001C122.9 7.00001 127.6 6.00001 132.4 5.20001C140.5 3.90001 148.9 3.20001 157.4 3.20001C165.9 3.20001 174.3 3.90001 182.4 5.20001C182.8 5.30001 183.2 5.30001 183.6 5.40001C179 5.90001 173.7 6.50001 173.4 6.60001C173.6 6.70001 173.9 6.80001 174.2 6.90001C174.8 7.10001 175.4 7.30001 176.1 7.50001C176.4 7.60001 176.7 7.70001 177 7.80001C177.3 7.90001 177.6 8.00001 177.9 8.10001C178.2 8.20001 178.5 8.30001 178.7 8.30001C179.1 8.40001 179.4 8.50001 179.8 8.60001C180.2 8.70001 180.5 8.80001 180.9 8.90001C181.6 9.10001 182.4 9.20001 183.1 9.40001C185.3 9.90001 187.5 10.3 189.7 10.9C190.3 11.1 191 11.2 191.6 11.4C191.8 11.5 192 11.5 192.2 11.6C193.1 11.8 193.9 12.1 194.8 12.3C195 12.7 195.1 13 195.4 13.3C195.5 13.4 195.6 13.5 195.6 13.6C195.7 13.7 195.8 13.9 195.9 14C196 14.1 196.1 14.2 196.2 14.3C196.4 14.5 196.6 14.7 196.8 14.8C197 14.9 197.2 15.1 197.4 15.2C197.5 15.3 197.7 15.4 197.8 15.5C198.1 15.7 198.4 15.9 198.6 16.1C198.9 16.3 199.2 16.5 199.5 16.8C199.7 16.9 199.8 17.1 200 17.2C200.2 17.4 200.4 17.6 200.6 17.8C201.1 18.2 201.8 18.5 201.5 19.4Z"
    fill="#F7BA1A" />
  <path
    d="M271.6 53.6C270 52.9 268.3 52.2 266.7 51.6C266 51.3 265.7 50.2 264.7 50.6C264.5 49.2 263.1 49.4 262.3 49.1C259.8 48 257.7 45.9 254.8 45.7C252.6 43.7 249.7 42.6 247.3 40.9C247 40.7 246.6 40.7 246.4 40.5C244.2 38.5 241.9 37.2 238.9 38.7C238.4 38.9 237.8 38.8 237.2 38.9C235.3 39.1 233.3 38.3 231.6 39.7C230.6 39.7 229.5 39.8 228.5 39.8C221.7 39.8 214.9 39.8 208.1 39.9C203.5 39.9 198.9 38.5 194.3 38.6C194.1 38.6 193.8 38.6 193.6 38.6C187.4 37 181 36.5 174.8 34.9C174.6 34.8 174.4 34.8 174.2 34.7C171.6 34 168.9 33.4 166.2 32.8C165.5 32.6 164.7 32.4 164 32.3C163.1 32.1 162.2 31.8 161.3 31.6C160.3 31.3 159.3 31 158.3 30.8C154.2 29.7 150.2 28.5 146.2 27.2C142.3 26 138.3 24.8 134.4 23.5C133.6 23.2 132.9 23 132.1 22.7C129.8 21.9 127.4 21 125.1 20.1C122.4 19.1 119.7 18 117.1 16.8C116.2 16.4 115.3 16 114.4 15.5C112.3 14.4 110.3 13.3 108.3 12C108 11.8 107.6 11.6 107.3 11.4C110.9 10.2 114.5 9.10001 118.1 8.10001C118.4 8.20001 118.7 8.40001 119 8.50001C119.3 8.60001 119.6 8.70001 119.8 8.80001C120 8.90001 120.3 9.00001 120.6 9.10001C120.9 9.20001 121.2 9.30001 121.5 9.40001C121.6 9.40001 121.8 9.50001 121.9 9.50001C121.9 9.50001 121.9 9.50001 122 9.50001C122.2 9.60001 122.5 9.60001 122.7 9.70001C123 9.80001 123.4 9.90001 123.7 9.90001C124.2 10 124.7 10.1 125.1 10.2C125.2 10.2 125.4 10.3 125.5 10.3C125.8 10.4 126.2 10.5 126.5 10.5C126.6 10.5 126.7 10.6 126.8 10.6H126.9C127.5 10.7 128.1 10.9 128.7 11.1C128.8 11.1 128.8 11.2 128.9 11.2C129.3 11.3 129.8 11.5 130.2 11.6C130.9 11.8 131.6 12.1 132.4 12.3C136.1 13.5 140 13.8 143.6 14.9C144.4 16.1 145.8 16.3 146.9 16.4C147.4 16.5 147.8 16.5 148.3 16.6C148.5 16.6 148.6 16.6 148.8 16.7C149.7 16.9 150.7 17.1 151.6 17.2C152.1 17.3 152.7 17.4 153.2 17.5C153.3 17.5 153.4 17.6 153.5 17.6C155 17.9 156.6 18.3 158.1 18.6C158.3 18.7 158.5 18.7 158.8 18.7C159 18.7 159.2 18.8 159.5 18.8C165.4 20 171.3 20.9 177.1 22.3C177.5 22.4 177.9 22.5 178.2 22.5C178.3 22.5 178.4 22.6 178.6 22.6C178.9 22.7 179.2 22.7 179.5 22.7C180.3 22.8 181.1 22.9 182 23C182.7 23.1 183.3 23.1 184 23.2C188.5 23.7 192.9 24.2 197.4 24.7C202.8 25.3 208.1 25.3 213.5 25.4C216.1 25.5 217.8 27.7 220.1 28.5C220.3 28.6 220.5 28.7 220.8 28.7C224.3 30 227.7 31.5 231.4 32.5C236.9 34.1 242.6 35.1 248.2 35.9C248.6 36 249.1 36 249.5 36.1C249.9 36.2 250.4 36.2 250.8 36.2C251.2 36.2 251.7 36.3 252.1 36.3C252.5 36.3 253 36.3 253.4 36.4C260.1 41.8 266.1 47.5 271.6 53.6Z"
    fill="#121213" />
  <path
    d="M309.4 176.1C309.1 175.8 308.8 175.5 308.4 175.2C307.8 174.6 307.3 174 306.7 173.4C305.7 172.3 304.7 171.1 303.7 169.9C298.9 164.1 294.8 157.7 291.9 150.6C290.2 146.5 288 142.6 287.7 138C285 136.4 282.2 134.8 279.9 132.5C279.1 131.7 278.3 130.1 276.8 131.7C275.6 133.1 275.9 134.4 276.9 135.9C278.1 137.7 280.3 138.3 281.2 140.3C282.2 142.3 284 143.7 285.4 145.3C287.4 147.6 290.5 149 291.2 152.6C291.7 155.1 291.6 155.7 289.1 155.7C286.3 155.7 286.8 156 287.2 158.8C288 164.9 292.3 169.7 292.6 176C292.7 178.8 295.1 181 296.8 183.2C299.1 186.1 302.3 187.9 304.9 190.4C305.8 191.3 306.7 192.3 307.4 193.3C308.7 188 309.6 182.7 310.3 177.2C310.1 176.8 309.7 176.5 309.4 176.1Z"
    fill="#68A8CB" />
  <path
    d="M311.4 147.4C310.6 145.7 309.8 144 308.9 142.3C308.4 141.3 307.9 140.3 307.3 139.4C306.9 138.7 306.9 137.6 307.5 137.1C308.1 136.6 308.7 137.2 309.3 137.7C309.7 138.1 310.2 138.5 310.6 138.9C309.7 131 308.1 123.4 306.1 116C305.4 115.5 304.6 115.1 303.8 114.7C303.7 114.6 303.5 114.6 303.3 114.5C303.2 114.4 303.1 114.4 302.9 114.3C302.8 114.2 302.6 114.2 302.5 114.2C302.1 114.1 301.8 114 301.4 113.9C302 115.2 302.8 116.7 302.3 118.1C301.5 120.4 301.5 122.9 301.2 125.3C301.1 126.3 300.2 127.2 300.5 128.3C301.6 131.3 302.1 134.3 302.5 137.4C302.7 139.3 303.1 141.3 304 143.1C305.9 147.3 308.7 151 310.7 155C310.9 155.3 311 155.7 311.2 156C311.4 156.3 311.5 156.6 311.7 156.9C311.7 153.7 311.6 150.5 311.4 147.4Z"
    fill="#F7BA1A" />
  <path
    d="M311.2 169.1C311 171.8 310.7 174.4 310.4 177.1C310.1 176.8 309.7 176.4 309.4 176.1C309.1 175.8 308.8 175.5 308.4 175.2C307.8 174.6 307.3 174 306.7 173.4C305.7 172.3 304.6 171.1 303.7 169.9C298.9 164.1 294.8 157.7 291.9 150.6C290.2 146.5 288 142.6 287.7 138C288.8 138.1 289.9 138 290.3 136.7C290.5 135.8 289.7 135.2 289 134.6C287.1 132.9 286.4 130.5 285.8 128C286 127.9 286.3 127.7 286.3 127.6C285.1 125 286.7 122.5 286.6 120C286.3 117.9 288.1 116.1 287.6 114C287.6 113.7 287.6 113.4 287.6 113C288.4 110.5 288.5 107.8 290.5 105.9C292.8 105.6 294.6 106.8 296.4 108.1C294.8 111.1 294.4 114.5 293.6 117.7C293.1 119.9 292.1 122 292.6 124.4C294 130.6 293.4 137.2 296.1 143.2C297 145.1 297.9 146.7 299.3 148.2C299.7 148.6 300.2 148.9 300.2 149.6C300 154.5 303.1 157.8 305.5 161.5C306.3 162.7 307.1 164 308 165.2C308.3 165.6 308.6 166 308.9 166.4C309.1 166.7 309.3 167 309.6 167.3C309.7 167.4 309.8 167.6 309.9 167.7C310.4 168.1 310.8 168.6 311.2 169.1Z"
    fill="#F08C48" />
  <path
    d="M310.1 159.2C307.9 156.7 306.1 153.5 304.5 150.4C302.3 146 298.7 142.2 300.2 136.6C300.3 136.4 300 136.2 299.9 136C298 132.5 297.8 128.7 297.5 124.8C297.5 124.3 297.6 123.7 297.8 123.1C298.5 119.6 300.2 116.3 300.5 112.7C300.2 110.2 298.1 109.4 296.5 108.2C294.9 111.2 294.5 114.6 293.7 117.8C293.2 120 292.2 122.1 292.7 124.5C294.1 130.7 293.5 137.3 296.2 143.3C297.1 145.2 298 146.8 299.4 148.3C299.8 148.7 300.3 149 300.3 149.7C300.1 154.6 303.2 157.9 305.6 161.6C306.4 162.8 307.2 164.1 308.1 165.3C308.4 165.7 308.7 166.1 309 166.5C309.2 166.8 309.4 167.1 309.7 167.4C309.8 167.5 309.9 167.7 310 167.8C310.4 168.3 310.8 168.8 311.3 169.4C311.5 166.7 311.6 164 311.7 161.2C311.1 160.4 310.6 159.8 310.1 159.2Z"
    fill="#F7BA1A" />
  <path
    d="M296.8 91.1C296.4 91.2 296 91.5 295.6 92.1C295.3 92.1 294.9 92.1 294.6 92.1C294.4 90.9 293.4 91.2 292.7 91C292.6 90.5 292.5 90.1 291.9 90.1C291.1 88.6 290 87.6 288.2 87.1C286.8 86.7 285.3 86.5 284.6 84.7C284.2 83.6 282.9 84.1 282 84.1C281.4 80.7 278.4 79.9 276.1 78.3C274.7 77.3 272.9 76.9 271.2 76.2C270.8 75 269.5 74.7 268.7 74C263.9 69.8 258.2 66.8 253.4 62.6C252.3 61.7 251.5 60.5 250.2 59.9C249.6 59.7 249.1 59.4 248.6 59.4C248.4 59.4 248.2 59.4 248 59.4C248 59.3 248 59.2 247.9 59.1C247.8 58.7 247.6 58.4 247.4 58.2L247.2 58C246.6 57.4 245.7 57.1 245.1 56.5C244 55.5 242.6 55 242 53.5C244.5 52.2 247.2 52 249.9 52.5C253 55.4 256.1 58.1 259.6 60.5C261.2 61.6 262.8 62.6 264.2 63.9C268.2 67.7 273.3 70.1 277.4 73.7C280.5 76.4 284 78.5 287.2 81C289.4 82.7 291.8 84.4 294.2 86C295.1 87.6 296 89.4 296.8 91.1Z"
    fill="#68A8CB" />
  <path
    d="M306.1 116C305.4 115.5 304.6 115.1 303.8 114.7C303.7 114.6 303.5 114.6 303.3 114.5C303.2 114.4 303.1 114.4 302.9 114.3C302.8 114.2 302.6 114.2 302.5 114.2C302.1 114.1 301.8 114 301.4 113.9C301.5 113.2 301.3 112.8 300.5 112.8C300.2 110.3 298.1 109.5 296.5 108.3C294.7 107 293 105.8 290.6 106.1C290.5 105.8 290.5 105.5 290.1 105.4C282.2 104.3 276.5 99.4 271.3 93.8C269.9 92.3 268.3 91.2 266.5 90.4C264.5 88.6 264.6 85.8 263.6 83.5C263.8 83.4 264 83.3 264.1 83.3C264.5 83.2 264.9 83.2 265.3 83.4C265.4 83.4 265.6 83.5 265.7 83.6C266.6 84 267.4 84.7 268.4 84.6C269.7 87 270.7 89.8 273.4 91C275.3 91.9 277.3 92.8 279.3 93.3C288 95.3 294.9 100.1 300.6 106.9C301.7 108.2 303.1 109.3 304.4 110.4C304.9 112 305.5 114 306.1 116Z"
    fill="#202223" />
  <path
    d="M307.2 109.9C307.1 111.3 306.1 110.8 305.3 110.9C305 110.6 304.6 110.3 304.3 110C303 108.9 301.6 107.8 300.5 106.5C294.7 99.7 287.9 94.9 279.2 92.9C277.2 92.4 275.2 91.5 273.3 90.6C270.6 89.4 269.7 86.6 268.3 84.2C266.1 80.3 262.4 78.2 258.7 76.2C253.3 73.3 247.6 71.6 241.4 72.3C239.6 71.8 237.7 71.8 236.4 70.2C240.2 70.2 244 69.8 247.8 70.4C251.4 70.9 254.8 72.3 258.3 73.2C250.7 67.6 242.1 66.6 233.1 67.5C232 67.6 230.7 66.9 229.8 68.2C228.6 68.3 227.9 66.9 226.6 67.3C226.9 66.1 227.9 66.5 228.6 66.5C234.9 66.4 241.2 66.1 247.4 66.5C250.8 66.7 254 68.7 257.1 70.3C261.7 72.6 266.3 74.9 271.3 76.3C272.9 77 274.8 77.4 276.2 78.4C278.4 80 281.5 80.8 282.1 84.2C284.3 88 287.7 89.9 291.9 90.2C292.5 90.2 292.6 90.6 292.7 91.1L292.6 91.3C292 91.3 291.7 91.5 291.8 92.1C291.7 92.2 291.6 92.3 291.5 92.3C288.3 92 285.5 90.5 282.8 88.8C282.3 88.5 281.9 88.3 281.3 88.2C279.8 83 275.9 80.2 271.4 78.5C268.7 77.5 266.3 76.1 263.7 75C262.8 74.6 262.1 74.7 261.2 74.7C265.9 77.8 270.9 80.5 273.3 86.1C273.4 88.1 275 88.7 276.4 89.2C281.5 91 286.5 92.8 291.4 95.2C295.8 97.4 299 101 302.3 104.5C302.4 104.6 302.4 104.6 302.5 104.7C304.1 106.4 306 107.9 307.2 109.9Z"
    fill="#E7E8E8" />
  <path
    d="M226.6 67.4C226.9 66.2 227.9 66.6 228.6 66.6C234.9 66.5 241.2 66.2 247.4 66.6C250.8 66.8 254 68.8 257.1 70.4C261.7 72.7 266.3 75 271.3 76.4C270.9 75.2 269.6 74.9 268.8 74.2C264 70 258.3 67 253.5 62.8C252.5 61.9 251.6 60.7 250.3 60.1C249.5 59.8 248.9 59.5 248.1 59.6C248.1 60.8 248.5 61.6 246.4 61.1C242.3 60.1 238.1 59.1 233.8 59.7C232.3 59.9 230.7 60.4 229.3 61.1C227.9 61.8 226.8 61.6 225.4 61.2C221.5 60.2 217.6 59.4 213.6 59.9C212.4 60 211 60.9 211.1 62.1C211.2 63.8 212.8 64.9 214.2 65.4C215.9 66 217.5 66.7 219.5 66.4C221.8 65.8 224.1 67.7 226.6 67.4Z"
    fill="#F7BA1A" />
  <path
    d="M302.5 104.7C302.4 104.6 302.4 104.5 302.3 104.5C299 101 295.8 97.4 291.4 95.2C286.5 92.8 281.5 91 276.4 89.2C275 88.7 273.4 88.1 273.3 86.1C275.3 86 277.1 87.1 278.9 87.7C279.7 88 280.5 88.2 281.3 88.2C281.9 88.3 282.3 88.5 282.8 88.8C285.5 90.5 288.3 92 291.5 92.3C291.7 93.7 292.9 92.8 293.6 93.2C295.4 94.4 297.3 95.4 299.3 96.5C300.4 99.2 301.5 101.9 302.5 104.7Z"
    fill="#202223" />
  <path
    d="M290.6 106C290.5 105.7 290.5 105.3 290.1 105.3C282.2 104.2 276.5 99.3 271.3 93.7C269.9 92.2 268.3 91.1 266.5 90.3C266 92.2 267.7 93.5 267.5 95.3C269 98.1 270.6 100.7 272.5 103.2C275.2 106.8 277.8 110.3 281.1 113.3C281.8 113.9 282.4 114.7 282.7 115.6C283.5 117.6 285 118.8 286.7 120C286.4 117.9 288.2 116.1 287.7 114C286.4 114.2 285.6 113.2 285 112.3C283.5 110 281.6 108 279.8 106C279.3 105.5 278.7 104.9 279.3 104.4C280 103.7 280.4 104.6 280.9 105.2C283.1 107.9 285.4 110.5 287.7 113.1C288.5 110.6 288.7 107.9 290.6 106Z"
    fill="#F7BA1A" />
  <path
    d="M311.2 156C311.4 156.3 311.5 156.6 311.7 156.9V157.4C311.7 158.6 311.7 159.8 311.7 161C311.2 160.4 310.7 159.8 310.2 159.3C308 156.8 306.2 153.6 304.6 150.5C302.4 146.1 298.8 142.3 300.3 136.7C300.4 136.5 300.1 136.3 300 136.1C298.1 132.6 297.9 128.8 297.6 124.9C297.6 124.4 297.7 123.8 297.9 123.2C298.6 119.7 300.3 116.4 300.6 112.8C301.4 112.8 301.5 113.3 301.5 113.9C302.1 115.2 302.9 116.7 302.4 118.1C301.6 120.4 301.6 122.9 301.3 125.3C301.2 126.3 300.3 127.2 300.6 128.3C301.7 131.3 302.2 134.3 302.6 137.4C302.8 139.3 303.2 141.3 304.1 143.1C306 147.3 308.8 151 310.8 155C310.8 155.3 311 155.6 311.2 156Z"
    fill="#F08C48" />
  <path
    d="M286.7 120.1C285.1 118.9 283.6 117.7 282.7 115.7C282.4 114.8 281.7 114 281.1 113.4C277.8 110.4 275.2 106.9 272.5 103.3C270.6 100.8 269 98.1 267.5 95.4C267.7 99.4 266.9 103.6 269.4 107.2C269.7 107.7 270 108.2 270.5 108.5C274.5 110.5 276.3 114.3 278.4 118.1C279.8 120.6 280.8 123.3 282.7 125.5C283.7 126.6 284.9 127.2 285.9 128.2C286.1 128.1 286.5 127.8 286.4 127.8C285.2 125.1 286.8 122.6 286.7 120.1Z"
    fill="#68A8CB" />
  <path
    d="M275.2 142.1C275.2 144.7 281.8 152.3 284.2 152.6C285 152.7 286.1 153 286.6 152C287 151 287.1 149.9 286.3 149C283.7 146.2 280.9 143.5 278.3 140.7C277.6 139.9 276.7 139.8 275.9 140.1C274.9 140.4 275.3 141.4 275.2 142.1Z"
    fill="#68A8CB" />
  <path
    d="M268.3 84.4C266.1 80.5 262.4 78.4 258.7 76.4C253.3 73.5 247.6 71.7 241.4 72.5C242.7 73.8 244.5 74 246.1 74.3C251.2 75.1 255.5 77.7 260 80C261.6 80.8 261.5 83.2 263.5 83.5C265.4 82.3 266.6 84.5 268.3 84.4Z"
    fill="#F7BA1A" />
  <path
    d="M236.4 70.3C240.2 70.3 244 69.9 247.7 70.5C251.3 71 254.7 72.4 258.2 73.3C250.6 67.7 242 66.7 233 67.6C231.9 67.7 230.6 67 229.7 68.3C231.9 69.3 234 70.5 236.4 70.3Z"
    fill="#F7BA1A" />
  <path
    d="M248.1 59.5C247.8 57.8 246.3 57.5 245.2 56.5C244.1 55.5 242.7 55 242 53.5C238.8 53.1 235.8 54.7 232.6 54.7C234.3 56.5 236.6 56.3 238.7 56.8C241.9 57.6 244.8 59.2 248.1 59.5Z"
    fill="#F7BA1A" />
  <path
    d="M298.4 93.2C298.2 93.2 298 93.2 297.7 93.2C296.9 93.2 296.1 93 295.6 92.1C296 91.5 296.4 91.2 296.8 91.1C297.4 90.9 297.9 91.3 298.4 92.2C298.4 92.6 298.4 92.9 298.4 93.2Z"
    fill="#787878" />
  <path
    d="M291.5 92.4C291.8 93.8 292.9 92.9 293.6 93.3C293.6 92.6 294 92.3 294.6 92.2C294.4 91 293.4 91.3 292.7 91.1L292.6 91.3C292.6 91.9 292.4 92.2 291.8 92.1C291.7 92.2 291.6 92.3 291.5 92.4Z"
    fill="#E7E8E8" />
  <path
    d="M271.6 53.6C270 52.9 268.3 52.2 266.7 51.6C266 51.3 265.7 50.2 264.7 50.6C261.9 50.7 259.1 50.8 256.4 50.8C254.6 50.8 253.1 51.3 251.9 52.5C254.2 53.5 256.5 54.7 258.9 55.6C263.4 57.2 267.3 60 271.1 62.7C274.9 65.4 278 69.2 281.3 72.5C281.7 72.9 282.1 73.3 282.6 73.7L282.7 73.8C283 74.1 283.4 74.4 283.7 74.7C283.9 74.9 284 75 284.2 75.1C284.4 75.3 284.7 75.5 284.9 75.7C285.1 75.9 285.3 76 285.5 76.2C285.8 76.4 286.1 76.6 286.4 76.9C286.5 77 286.6 77.1 286.7 77.1C287 77.3 287.3 77.6 287.7 77.8C288.7 78.5 289.6 79.1 290.6 79.6C285.3 70.3 278.9 61.6 271.6 53.6Z"
    fill="#68A8CB" />
  <path
    d="M290.7 79.6C291.9 81.7 293.1 83.7 294.1 85.8C291.7 84.3 289.4 82.6 287.1 80.8C283.9 78.3 280.4 76.2 277.3 73.5C273.2 69.9 268.1 67.5 264.1 63.7C262.7 62.4 261.1 61.4 259.5 60.3C256 58 252.9 55.2 249.8 52.3C250.4 52.3 251.1 52.3 251.7 52.2C254 53.2 256.3 54.4 258.7 55.3C263.2 56.9 267.1 59.7 270.9 62.4C274.7 65.1 277.8 68.9 281.1 72.2C281.5 72.6 281.9 73 282.4 73.4L282.5 73.5C282.8 73.8 283.2 74.1 283.5 74.4C283.7 74.6 283.8 74.7 284 74.8C284.2 75 284.5 75.2 284.7 75.4C284.9 75.6 285.1 75.7 285.3 75.9C285.6 76.1 285.9 76.3 286.2 76.6C286.3 76.7 286.4 76.8 286.5 76.8C286.8 77 287.1 77.3 287.5 77.5C288.7 78.4 289.7 79 290.7 79.6Z"
    fill="#F7BA1A" />
  <path
    d="M254.9 45.6C252.7 43.6 249.8 42.5 247.4 40.8C247.1 40.6 246.7 40.6 246.5 40.4C244.3 38.4 242 37.1 239 38.6C238.5 38.8 237.9 38.7 237.3 38.8C235.6 40.5 233.6 39.4 231.7 39.6C230.7 39.6 229.6 39.7 228.6 39.7C228.3 41 227.2 40.5 226.4 40.5C220.7 40.6 214.9 40.6 209.2 40.6C209.2 42.1 210.8 42.2 211.3 42.4C215.1 43.6 218.8 44.9 222.5 46.2C227 47.8 231.7 47.6 236.4 47.6C241.8 47.5 247.3 47.4 252.6 46.3C253.4 46.3 254.1 45.9 254.9 45.6Z"
    fill="#68A8CB" />
  <path
    d="M209.2 40.7C215 40.7 220.7 40.6 226.4 40.6C227.2 40.6 228.3 41.1 228.6 39.8C221.8 39.8 215 39.8 208.2 39.9C208.2 40.5 208.5 40.8 209.2 40.7Z"
    fill="#0872AF" />
  <path
    d="M143.8 15C144.6 16.2 146 16.4 147.1 16.5C151.3 17.1 155.5 18.2 159.7 19.1C165.6 20.3 171.5 21.2 177.3 22.6C179.5 23.1 181.9 23.3 184.2 23.6C188.7 24.1 193.1 24.6 197.6 25.1C203 25.7 208.3 25.7 213.7 25.8C213.7 25.4 213.6 25 213.2 24.8C210.4 23.3 208.7 20.5 206.4 18.5C203 15.6 199.3 13.2 194.9 12.1C196.1 14.8 198.9 15.8 200.7 17.7C201.2 18.2 201.9 18.5 201.6 19.4C201.3 20.3 200.5 19.9 199.9 19.9C195 19.9 190 20.3 185.2 19.7C180.1 19.1 175 19.4 169.9 18.7C164.8 18 159.7 17.5 154.6 16.7C150.9 16.1 147.3 16 143.8 15Z"
    fill="#68A8CB" />
  <path
    d="M249.9 33.8C251.2 34.7 252.4 35.7 253.6 36.7C253.2 36.7 252.7 36.7 252.3 36.6C251.9 36.6 251.4 36.5 251 36.5C250.6 36.5 250.1 36.4 249.7 36.4C249.3 36.4 248.8 36.3 248.4 36.2C242.7 35.4 237.1 34.4 231.6 32.8C228 31.8 224.6 30.3 221 29C220.8 28.9 220.6 28.8 220.3 28.8C218 28 216.3 25.8 213.7 25.7C213.7 25.3 213.6 24.9 213.2 24.7C213.7 23.3 214.4 23.9 215.2 24.3C218 25.9 221 27 224 28C226.6 28.9 229.1 29.8 231.6 30.9C233.5 31.8 235.4 31.2 237.1 32C239.3 33.1 241.9 33.4 244.1 33.6C246.1 33.7 248 33.8 249.9 33.8Z"
    fill="#E7E8E8" />
  <path d="M231.7 39.6C233.6 39.4 235.6 40.5 237.3 38.8C235.4 39 233.4 38.2 231.7 39.6Z" fill="#919292" />
  <path
    d="M311.4 147.4C310.6 145.7 309.8 144 308.9 142.3C308.4 141.3 307.9 140.3 307.3 139.4C306.9 138.7 306.9 137.6 307.5 137.1C308.1 136.6 308.7 137.2 309.3 137.7C309.7 138.1 310.2 138.5 310.6 138.9C310.9 141.7 311.2 144.5 311.4 147.4Z"
    fill="#E7E8E8" />
  <path
    d="M287.7 113.1C285.4 110.5 283.1 107.9 280.9 105.2C280.4 104.6 280 103.8 279.3 104.4C278.8 104.9 279.3 105.5 279.8 106C281.6 108 283.5 109.9 285 112.3C285.6 113.2 286.3 114.2 287.7 114C287.7 113.7 287.7 113.4 287.7 113.1Z"
    fill="#919292" />
  <path
    d="M282.1 84.3C284.3 88.1 287.6 90 291.9 90.3C291.1 88.8 290 87.8 288.2 87.3C286.8 86.9 285.3 86.7 284.6 84.9C284.2 83.8 283 84.2 282.1 84.3Z"
    fill="#F7BA1A" />
  <path
    d="M273.2 86.1C275.2 86 277 87.1 278.8 87.7C279.6 88 280.4 88.2 281.2 88.2C279.7 83 275.8 80.2 271.3 78.5C268.6 77.5 266.2 76.1 263.6 75C262.7 74.6 262 74.7 261.1 74.7C265.8 77.8 270.8 80.5 273.2 86.1Z"
    fill="#F7BA1A" />
  <path d="M291.7 92.1C292.3 92.1 292.6 91.9 292.5 91.3C292 91.3 291.7 91.5 291.7 92.1Z" fill="white" />
  <path
    d="M210.8 87.2C210.9 87.3 211 87.3 211.1 87.3C212.7 87.4 214.1 88 215.4 88.9C216.6 89.6 217.3 90.7 218.2 91.7C219.1 92.8 220 93.9 220.9 95C221.5 95.8 222.2 96.5 223 96.9C224.5 97.8 226.2 98 227.9 97.8C229.4 97.6 230.7 96.9 232 96.2C234.2 95.1 236.3 93.7 238.5 92.5C239.7 91.8 240.9 91.2 242.3 91C244.4 90.5 246.1 91.2 247.5 92.8C249.3 94.8 251 96.9 252.5 99.1C252.6 99.3 252.6 99.4 252.4 99.5C249.1 101.4 245.9 103.3 242.6 105.1C240.5 106.3 238.5 107.5 236.4 108.6C235.5 109.1 234.5 109.5 233.5 109.6C231.8 109.7 230.3 109.1 229.1 107.9C228.1 106.9 227.2 105.8 226.4 104.7C225.4 103.3 224.3 102 222.9 101C222 100.3 221 99.8 219.9 99.4C218.5 98.9 217.1 98.7 215.6 98.8C214.5 98.9 213.5 99.1 212.4 99.4C211.2 99.7 210 100.2 208.8 100.7C207.3 101.4 205.9 102.3 204.4 103.1C202.4 104.2 200.5 105.4 198.5 106.5C196.6 107.6 194.8 108.7 192.9 109.7C191.6 110.4 190.2 110.7 188.7 110.5C187.7 110.4 186.8 109.9 186.2 109.1C185.2 107.9 184.2 106.6 183.2 105.3C182.3 104.2 181.3 103.1 180.2 102.2C179.2 101.4 178.1 100.6 176.8 100.2C175.5 99.8 174.2 99.7 172.9 99.7C171.9 99.7 170.9 99.8 169.9 100.1C168.6 100.4 167.4 100.8 166.1 101.3C163.5 102.4 161.2 103.9 158.8 105.3C156.4 106.7 154 108.1 151.6 109.4C150.8 109.9 150 110.4 149.1 110.8C147.9 111.3 146.7 111.5 145.5 111.4C143.9 111.2 142.5 110.7 141.2 109.7C140.5 109.2 139.9 108.5 139.3 107.8C138.2 106.4 137 105 135.9 103.6C135.7 103.4 135.9 103.3 136 103.2C137.2 102.5 138.5 101.8 139.7 101.1C141.6 100 143.6 98.9 145.5 97.8C147.5 96.7 149.5 95.5 151.5 94.4C153.5 93.3 155.5 92.1 157.5 91C158.4 90.5 159.4 89.9 160.4 89.5C161.3 89.1 162.2 88.8 163.1 88.6C164.4 88.3 165.7 88.1 167 88.2C169.9 88.3 172.3 89.5 174.1 91.8C175.4 93.5 176.7 95.3 178.2 96.8C179.1 97.7 180.2 98.3 181.5 98.6C182.5 98.8 183.5 98.8 184.6 98.7C185.6 98.6 186.5 98.2 187.4 97.6C189.6 96.3 191.8 95 194 93.8C196.4 92.4 198.8 91.1 201.1 89.7C202.4 88.9 203.8 88.2 205.2 87.7C205.9 87.5 206.5 87.3 207.2 87.2C207.3 87.2 207.5 87.2 207.6 87C208.9 87.2 209.8 87.2 210.8 87.2Z"
    fill="#FAB616" />
  <path
    d="M81.8 122.2C82 121.9 82.2 121.6 82.4 121.4C83.8 119.7 85.5 118.4 87.7 118C91.7 117.2 95.4 118.9 96.9 123.2C97.4 124.6 97.6 126.1 97.6 127.7C97.6 132.5 97.6 137.3 97.6 142C97.6 142.3 97.5 142.3 97.3 142.3C95.6 142.3 93.8 142.3 92.1 142.3C91.8 142.3 91.7 142.2 91.7 141.9C91.7 137.7 91.7 133.5 91.7 129.2C91.7 127.8 91.6 126.5 91.1 125.2C89.9 122.1 86.4 122.1 84.6 123.8C83.4 125 82.9 126.4 82.9 128.1C82.9 132.7 82.9 137.3 82.9 141.9C82.9 142.2 82.8 142.3 82.5 142.3C80.8 142.3 79.1 142.3 77.4 142.3C77.1 142.3 77 142.2 77 141.9C77 137.3 77 132.6 77 128C77 127.1 76.8 126.2 76.5 125.3C75.4 122.3 72.1 122.1 70.2 123.7C68.9 124.8 68.2 126.2 68.2 127.9C68.2 132.6 68.2 137.2 68.2 141.9C68.2 142.3 68.1 142.3 67.8 142.3C66.1 142.3 64.4 142.3 62.7 142.3C62.4 142.3 62.3 142.2 62.3 141.9C62.3 135.9 62.3 129.8 62.3 123.8C62.3 122.1 62.3 120.4 62.1 118.7C62.1 118.4 62.2 118.4 62.4 118.4C63.9 118.4 65.4 118.4 66.9 118.4C67.1 118.4 67.2 118.4 67.3 118.7C67.4 119.7 67.4 120.6 67.5 121.6C67.5 121.7 67.4 121.9 67.6 121.9C67.7 121.9 67.8 121.8 67.8 121.7C68.9 120.1 70.2 118.9 72 118.4C74.4 117.6 76.8 117.7 79 119.1C80.1 119.8 80.9 120.8 81.5 122C81.6 121.9 81.6 122 81.8 122.2Z"
    fill="#2355A0" />
  <path
    d="M167.4 138.4C167.3 138.6 167.1 138.8 167 139C165.6 141.1 163.5 142.3 161 142.6C156.3 143.2 152.2 140.8 150.3 136.3C149.3 134 149.1 131.6 149.3 129.1C149.5 126.4 150.3 123.8 152 121.6C154.4 118.6 157.6 117.3 161.4 117.8C163 118 164.4 118.5 165.6 119.6C166 120 166.4 120.4 166.7 120.9C166.8 120.8 166.8 120.6 166.8 120.5C166.8 116.7 166.8 112.9 166.8 109C166.8 108.7 166.9 108.6 167.2 108.6C168.9 108.6 170.7 108.6 172.4 108.6C172.8 108.6 172.9 108.7 172.9 109C172.9 116.9 172.9 124.9 172.9 132.8C172.9 135.8 172.9 138.8 173.1 141.7C173.1 142 173 142.1 172.7 142.1C171.1 142.1 169.6 142.1 168 142.1C167.7 142.1 167.6 142 167.6 141.7C167.6 140.7 167.5 139.7 167.4 138.8C167.5 138.8 167.5 138.6 167.4 138.4ZM166.8 130.1C166.8 129.3 166.8 128.4 166.8 127.6C166.7 125.6 165.8 124.1 164.1 123.1C161.5 121.6 158.1 122.5 156.6 125.3C155 128.4 154.9 131.6 156.3 134.7C157.4 137.2 160 138.4 162.6 137.7C164.8 137.1 166.1 135.6 166.6 133.5C166.9 132.4 166.8 131.2 166.8 130.1Z"
    fill="#2355A0" />
  <path
    d="M124.9 130.3C124.9 127.3 125 123.8 124.8 120.3C124.8 119.7 124.8 119.1 124.7 118.5C124.7 118.3 124.7 118.2 125 118.2C126.6 118.2 128.2 118.2 129.8 118.2C130.1 118.2 130.1 118.3 130.1 118.5C130.2 119.5 130.3 120.5 130.3 121.5C130.3 121.6 130.3 121.8 130.4 121.8C130.5 121.8 130.5 121.7 130.6 121.6C132.1 119.3 134.3 118.1 137 117.7C139 117.5 140.8 117.8 142.5 118.9C144.4 120.1 145.5 121.9 146.1 124C146.5 125.4 146.6 126.7 146.6 128.1C146.6 132.6 146.6 137.2 146.6 141.7C146.6 142 146.5 142.1 146.2 142.1C144.4 142.1 142.6 142.1 140.9 142.1C140.6 142.1 140.5 142 140.5 141.7C140.5 137.2 140.5 132.7 140.5 128.2C140.5 127.2 140.3 126.2 140 125.3C139.1 123 137.1 122.2 135 122.6C132.6 123.1 130.9 125.2 130.9 127.7C130.9 132.4 130.9 137 130.9 141.7C130.9 142.1 130.8 142.1 130.5 142.1C128.7 142.1 127 142.1 125.2 142.1C124.9 142.1 124.8 142 124.8 141.7C124.9 138.2 124.9 134.5 124.9 130.3Z"
    fill="#2355A0" />
  <path
    d="M120.7 133.5C120.7 135.3 120.7 137.4 120.8 139.6C120.8 140.4 120.9 141.1 121 141.9C121 142.2 121 142.3 120.7 142.3C119.1 142.3 117.5 142.3 115.9 142.3C115.7 142.3 115.6 142.3 115.5 142C115.4 141.3 115.3 140.6 115.2 139.9C115.2 139.8 115.2 139.7 115.1 139.6C115 139.6 114.9 139.7 114.9 139.8C113.1 141.8 110.8 142.7 108.1 142.8C106.3 142.8 104.7 142.5 103.2 141.4C100.9 139.7 100.1 137.4 100.4 134.7C100.7 131.6 102.5 129.6 105.2 128.4C107.2 127.5 109.3 127.1 111.4 126.8C112.4 126.7 113.3 126.7 114.3 126.7C114.6 126.7 114.6 126.6 114.6 126.4C114.6 123.9 113.1 122.3 110.4 122.2C107.9 122.1 105.6 122.6 103.5 123.8C103.3 123.9 103.2 123.9 103.2 123.7C102.9 122.5 102.5 121.4 102.2 120.3C102.1 120 102.3 120 102.4 119.9C103.8 119.1 105.3 118.6 106.9 118.3C108.9 117.9 110.8 117.8 112.8 118.1C116.7 118.6 119.4 120.8 120.3 125C120.5 126 120.6 127.1 120.6 128.1C120.7 129.6 120.7 131.4 120.7 133.5ZM114.8 132.5C114.8 131.8 114.8 131.3 114.8 130.7C114.8 130.5 114.8 130.4 114.6 130.4C112.9 130.4 111.2 130.5 109.6 131C107.9 131.6 106.6 132.6 106.4 134.5C106.3 136.1 106.9 137.5 108.4 138.1C109.1 138.3 109.7 138.3 110.4 138.3C112.4 138.1 114.2 136.6 114.6 134.6C114.8 134 114.8 133.2 114.8 132.5Z"
    fill="#2355A0" />
  <path
    d="M187.6 129.8C187.6 127.6 187.6 124.7 187.5 121.8C187.5 120.7 187.4 119.7 187.4 118.6C187.4 118.3 187.4 118.3 187.7 118.3C189.2 118.3 190.8 118.3 192.3 118.3C192.6 118.3 192.7 118.4 192.7 118.7C192.7 120 192.8 121.3 192.9 122.6C192.9 122.7 192.8 122.8 193 122.9C193.2 122.9 193.2 122.8 193.2 122.7C194.3 119.9 196.5 118.5 199.5 118.4C199.9 118.4 200.4 118.4 200.8 118.3C201 118.3 201.1 118.4 201.1 118.6C201.1 120.2 201.1 121.8 201.1 123.4C201.1 123.6 201 123.7 200.8 123.6C199.6 123.4 198.3 123.4 197.2 123.8C195.4 124.5 194.4 125.9 193.9 127.8C193.7 128.5 193.7 129.3 193.7 130.1C193.7 134 193.7 138 193.7 141.9C193.7 142.2 193.6 142.3 193.3 142.3C191.5 142.3 189.8 142.3 188 142.3C187.7 142.3 187.6 142.2 187.6 141.9C187.6 138.1 187.6 134.3 187.6 129.8Z"
    fill="#2355A0" />
  <path
    d="M177.2 130.2C177.2 126.4 177.2 122.5 177.2 118.7C177.2 118.4 177.3 118.3 177.6 118.3C179.4 118.3 181.2 118.3 183 118.3C183.3 118.3 183.3 118.4 183.3 118.6C183.3 126.4 183.3 134.1 183.3 141.9C183.3 142.2 183.2 142.2 183 142.2C181.2 142.2 179.3 142.2 177.5 142.2C177.2 142.2 177.2 142.1 177.2 141.8C177.2 138 177.2 134.1 177.2 130.2Z"
    fill="#2355A0" />
  <path
    d="M203.9 130.2C203.9 126.3 203.9 122.5 203.9 118.6C203.9 118.3 203.9 118.2 204.3 118.2C206.1 118.2 207.9 118.2 209.7 118.2C210 118.2 210 118.3 210 118.5C210 126.3 210 134 210 141.8C210 142.1 209.9 142.1 209.7 142.1C207.9 142.1 206.1 142.1 204.3 142.1C204 142.1 203.9 142 203.9 141.7C203.9 138 203.9 134.1 203.9 130.2Z"
    fill="#2355A0" />
  <path
    d="M46.2 170.5H45.7C45.4 170.5 45.2 170.3 45.2 170C45.2 169.7 45.4 169.5 45.7 169.5H46.2C46.5 169.5 46.7 169.7 46.7 170C46.7 170.3 46.5 170.5 46.2 170.5Z"
    fill="#2355A0" />
  <path
    d="M264.5 170.5H263.5C263.2 170.5 263 170.3 263 170C263 169.7 263.2 169.5 263.5 169.5H264.5C264.8 169.5 265 169.7 265 170C265 170.3 264.8 170.5 264.5 170.5ZM259.6 170.5H258.6C258.3 170.5 258.1 170.3 258.1 170C258.1 169.7 258.3 169.5 258.6 169.5H259.6C259.9 169.5 260.1 169.7 260.1 170C260.1 170.3 259.8 170.5 259.6 170.5ZM254.6 170.5H253.6C253.3 170.5 253.1 170.3 253.1 170C253.1 169.7 253.3 169.5 253.6 169.5H254.6C254.9 169.5 255.1 169.7 255.1 170C255.1 170.3 254.9 170.5 254.6 170.5ZM249.6 170.5H248.6C248.3 170.5 248.1 170.3 248.1 170C248.1 169.7 248.3 169.5 248.6 169.5H249.6C249.9 169.5 250.1 169.7 250.1 170C250.1 170.3 249.9 170.5 249.6 170.5ZM244.7 170.5H243.7C243.4 170.5 243.2 170.3 243.2 170C243.2 169.7 243.4 169.5 243.7 169.5H244.7C245 169.5 245.2 169.7 245.2 170C245.2 170.3 245 170.5 244.7 170.5ZM239.7 170.5H238.7C238.4 170.5 238.2 170.3 238.2 170C238.2 169.7 238.4 169.5 238.7 169.5H239.7C240 169.5 240.2 169.7 240.2 170C240.2 170.3 240 170.5 239.7 170.5ZM234.8 170.5H233.8C233.5 170.5 233.3 170.3 233.3 170C233.3 169.7 233.5 169.5 233.8 169.5H234.8C235.1 169.5 235.3 169.7 235.3 170C235.3 170.3 235 170.5 234.8 170.5ZM229.8 170.5H228.8C228.5 170.5 228.3 170.3 228.3 170C228.3 169.7 228.5 169.5 228.8 169.5H229.8C230.1 169.5 230.3 169.7 230.3 170C230.3 170.3 230.1 170.5 229.8 170.5ZM224.8 170.5H223.8C223.5 170.5 223.3 170.3 223.3 170C223.3 169.7 223.5 169.5 223.8 169.5H224.8C225.1 169.5 225.3 169.7 225.3 170C225.3 170.3 225.1 170.5 224.8 170.5ZM219.9 170.5H218.9C218.6 170.5 218.4 170.3 218.4 170C218.4 169.7 218.6 169.5 218.9 169.5H219.9C220.2 169.5 220.4 169.7 220.4 170C220.4 170.3 220.1 170.5 219.9 170.5ZM214.9 170.5H213.9C213.6 170.5 213.4 170.3 213.4 170C213.4 169.7 213.6 169.5 213.9 169.5H214.9C215.2 169.5 215.4 169.7 215.4 170C215.4 170.3 215.2 170.5 214.9 170.5ZM209.9 170.5H208.9C208.6 170.5 208.4 170.3 208.4 170C208.4 169.7 208.6 169.5 208.9 169.5H209.9C210.2 169.5 210.4 169.7 210.4 170C210.4 170.3 210.2 170.5 209.9 170.5ZM205 170.5H204C203.7 170.5 203.5 170.3 203.5 170C203.5 169.7 203.7 169.5 204 169.5H205C205.3 169.5 205.5 169.7 205.5 170C205.5 170.3 205.3 170.5 205 170.5ZM200 170.5H199C198.7 170.5 198.5 170.3 198.5 170C198.5 169.7 198.7 169.5 199 169.5H200C200.3 169.5 200.5 169.7 200.5 170C200.5 170.3 200.3 170.5 200 170.5ZM195.1 170.5H194.1C193.8 170.5 193.6 170.3 193.6 170C193.6 169.7 193.8 169.5 194.1 169.5H195.1C195.4 169.5 195.6 169.7 195.6 170C195.6 170.3 195.3 170.5 195.1 170.5ZM190.1 170.5H189.1C188.8 170.5 188.6 170.3 188.6 170C188.6 169.7 188.8 169.5 189.1 169.5H190.1C190.4 169.5 190.6 169.7 190.6 170C190.6 170.3 190.4 170.5 190.1 170.5ZM185.1 170.5H184.1C183.8 170.5 183.6 170.3 183.6 170C183.6 169.7 183.8 169.5 184.1 169.5H185.1C185.4 169.5 185.6 169.7 185.6 170C185.6 170.3 185.4 170.5 185.1 170.5ZM180.2 170.5H179.2C178.9 170.5 178.7 170.3 178.7 170C178.7 169.7 178.9 169.5 179.2 169.5H180.2C180.5 169.5 180.7 169.7 180.7 170C180.7 170.3 180.4 170.5 180.2 170.5ZM175.2 170.5H174.2C173.9 170.5 173.7 170.3 173.7 170C173.7 169.7 173.9 169.5 174.2 169.5H175.2C175.5 169.5 175.7 169.7 175.7 170C175.7 170.3 175.5 170.5 175.2 170.5ZM170.2 170.5H169.2C168.9 170.5 168.7 170.3 168.7 170C168.7 169.7 168.9 169.5 169.2 169.5H170.2C170.5 169.5 170.7 169.7 170.7 170C170.7 170.3 170.5 170.5 170.2 170.5ZM165.3 170.5H164.3C164 170.5 163.8 170.3 163.8 170C163.8 169.7 164 169.5 164.3 169.5H165.3C165.6 169.5 165.8 169.7 165.8 170C165.8 170.3 165.6 170.5 165.3 170.5ZM160.3 170.5H159.3C159 170.5 158.8 170.3 158.8 170C158.8 169.7 159 169.5 159.3 169.5H160.3C160.6 169.5 160.8 169.7 160.8 170C160.8 170.3 160.6 170.5 160.3 170.5ZM155.4 170.5H154.4C154.1 170.5 153.9 170.3 153.9 170C153.9 169.7 154.1 169.5 154.4 169.5H155.4C155.7 169.5 155.9 169.7 155.9 170C155.9 170.3 155.6 170.5 155.4 170.5ZM150.4 170.5H149.4C149.1 170.5 148.9 170.3 148.9 170C148.9 169.7 149.1 169.5 149.4 169.5H150.4C150.7 169.5 150.9 169.7 150.9 170C150.9 170.3 150.7 170.5 150.4 170.5ZM145.4 170.5H144.4C144.1 170.5 143.9 170.3 143.9 170C143.9 169.7 144.1 169.5 144.4 169.5H145.4C145.7 169.5 145.9 169.7 145.9 170C145.9 170.3 145.7 170.5 145.4 170.5ZM140.5 170.5H139.5C139.2 170.5 139 170.3 139 170C139 169.7 139.2 169.5 139.5 169.5H140.5C140.8 169.5 141 169.7 141 170C141 170.3 140.7 170.5 140.5 170.5ZM135.5 170.5H134.5C134.2 170.5 134 170.3 134 170C134 169.7 134.2 169.5 134.5 169.5H135.5C135.8 169.5 136 169.7 136 170C136 170.3 135.8 170.5 135.5 170.5ZM130.5 170.5H129.5C129.2 170.5 129 170.3 129 170C129 169.7 129.2 169.5 129.5 169.5H130.5C130.8 169.5 131 169.7 131 170C131 170.3 130.8 170.5 130.5 170.5ZM125.6 170.5H124.6C124.3 170.5 124.1 170.3 124.1 170C124.1 169.7 124.3 169.5 124.6 169.5H125.6C125.9 169.5 126.1 169.7 126.1 170C126.1 170.3 125.9 170.5 125.6 170.5ZM120.6 170.5H119.6C119.3 170.5 119.1 170.3 119.1 170C119.1 169.7 119.3 169.5 119.6 169.5H120.6C120.9 169.5 121.1 169.7 121.1 170C121.1 170.3 120.9 170.5 120.6 170.5ZM115.7 170.5H114.7C114.4 170.5 114.2 170.3 114.2 170C114.2 169.7 114.4 169.5 114.7 169.5H115.7C116 169.5 116.2 169.7 116.2 170C116.2 170.3 115.9 170.5 115.7 170.5ZM110.7 170.5H109.7C109.4 170.5 109.2 170.3 109.2 170C109.2 169.7 109.4 169.5 109.7 169.5H110.7C111 169.5 111.2 169.7 111.2 170C111.2 170.3 111 170.5 110.7 170.5ZM105.7 170.5H104.7C104.4 170.5 104.2 170.3 104.2 170C104.2 169.7 104.4 169.5 104.7 169.5H105.7C106 169.5 106.2 169.7 106.2 170C106.2 170.3 106 170.5 105.7 170.5ZM100.8 170.5H99.8C99.5 170.5 99.3 170.3 99.3 170C99.3 169.7 99.5 169.5 99.8 169.5H100.8C101.1 169.5 101.3 169.7 101.3 170C101.3 170.3 101 170.5 100.8 170.5ZM95.8 170.5H94.8C94.5 170.5 94.3 170.3 94.3 170C94.3 169.7 94.5 169.5 94.8 169.5H95.8C96.1 169.5 96.3 169.7 96.3 170C96.3 170.3 96.1 170.5 95.8 170.5ZM90.8 170.5H89.8C89.5 170.5 89.3 170.3 89.3 170C89.3 169.7 89.5 169.5 89.8 169.5H90.8C91.1 169.5 91.3 169.7 91.3 170C91.3 170.3 91.1 170.5 90.8 170.5ZM85.9 170.5H84.9C84.6 170.5 84.4 170.3 84.4 170C84.4 169.7 84.6 169.5 84.9 169.5H85.9C86.2 169.5 86.4 169.7 86.4 170C86.4 170.3 86.2 170.5 85.9 170.5ZM80.9 170.5H79.9C79.6 170.5 79.4 170.3 79.4 170C79.4 169.7 79.6 169.5 79.9 169.5H80.9C81.2 169.5 81.4 169.7 81.4 170C81.4 170.3 81.2 170.5 80.9 170.5ZM76 170.5H75C74.7 170.5 74.5 170.3 74.5 170C74.5 169.7 74.7 169.5 75 169.5H76C76.3 169.5 76.5 169.7 76.5 170C76.5 170.3 76.2 170.5 76 170.5ZM71 170.5H70C69.7 170.5 69.5 170.3 69.5 170C69.5 169.7 69.7 169.5 70 169.5H71C71.3 169.5 71.5 169.7 71.5 170C71.5 170.3 71.3 170.5 71 170.5ZM66 170.5H65C64.7 170.5 64.5 170.3 64.5 170C64.5 169.7 64.7 169.5 65 169.5H66C66.3 169.5 66.5 169.7 66.5 170C66.5 170.3 66.3 170.5 66 170.5ZM61.1 170.5H60.1C59.8 170.5 59.6 170.3 59.6 170C59.6 169.7 59.8 169.5 60.1 169.5H61.1C61.4 169.5 61.6 169.7 61.6 170C61.6 170.3 61.3 170.5 61.1 170.5ZM56.1 170.5H55.1C54.8 170.5 54.6 170.3 54.6 170C54.6 169.7 54.8 169.5 55.1 169.5H56.1C56.4 169.5 56.6 169.7 56.6 170C56.6 170.3 56.4 170.5 56.1 170.5ZM51.1 170.5H50.1C49.8 170.5 49.6 170.3 49.6 170C49.6 169.7 49.8 169.5 50.1 169.5H51.1C51.4 169.5 51.6 169.7 51.6 170C51.6 170.3 51.4 170.5 51.1 170.5Z"
    fill="#2355A0" />
  <path
    d="M269 170.5H268.5C268.2 170.5 268 170.3 268 170C268 169.7 268.2 169.5 268.5 169.5H269C269.3 169.5 269.5 169.7 269.5 170C269.5 170.3 269.3 170.5 269 170.5Z"
    fill="#2355A0" />
  <path
    d="M157.3 3C165.8 3 174.2 3.7 182.3 5C182.7 5.1 183.1 5.1 183.5 5.2C188.3 6 193.1 7.1 197.8 8.3C201.5 9.3 205.1 10.4 208.6 11.7C218 15 227 19.2 235.5 24.2C240.5 27.1 245.2 30.3 249.8 33.7C251.1 34.6 252.3 35.6 253.5 36.6C259.9 41.7 266 47.4 271.5 53.5C278.7 61.5 285.1 70.2 290.6 79.5C291.8 81.6 293 83.6 294 85.7C294.9 87.4 295.8 89.2 296.6 90.9C296.9 91.6 297.3 92.3 297.6 93C298.1 94.1 298.6 95.2 299.1 96.3C300.3 99 301.3 101.7 302.3 104.4C303 106.2 303.6 108 304.2 109.8C304.8 111.7 305.4 113.7 306 115.7C308.1 123.1 309.6 130.8 310.5 138.6C310.8 141.4 311.1 144.2 311.3 147.1C311.5 150.2 311.6 153.4 311.6 156.6V157.1C311.6 158.3 311.6 159.5 311.6 160.7C311.5 163.4 311.4 166.2 311.2 168.9C311 171.6 310.7 174.2 310.4 176.9C309.7 182.4 308.7 187.7 307.5 193C291.3 260.9 230.2 311.4 157.4 311.4C85.4 311.4 24.9 262 7.8 195.3C7.2 193.1 6.7 190.9 6.3 188.7C6.2 188.2 6.1 187.6 6 187.1C5.4 184.2 4.9 181.3 4.5 178.4C4.1 175.9 3.9 173.4 3.6 170.8C3.4 168.1 3.2 165.4 3.1 162.7C3.1 161.6 3 160.4 3 159.3C3 158.5 3 157.8 3 157C3 155.1 3 153.2 3.1 151.4C3.2 148.6 3.4 145.8 3.6 143C4.4 134.1 5.9 125.5 8.2 117.1C8.6 115.4 9.1 113.8 9.6 112.2C9.8 111.7 9.9 111.2 10.1 110.6C10.5 109.5 10.8 108.4 11.2 107.3C12.3 104 13.5 100.8 14.8 97.6C15.3 96.5 15.8 95.3 16.3 94.2C16.6 93.4 17 92.7 17.3 92C18 90.4 18.8 88.8 19.6 87.3C20.7 85.1 21.9 83 23.1 80.9C25 77.5 27.1 74.1 29.3 70.8C30.1 69.6 31 68.3 31.9 67.1C35 62.8 38.3 58.6 41.9 54.6C47.8 48 54.2 41.9 61.1 36.4C62.3 35.4 63.5 34.5 64.8 33.5C69.6 29.9 74.6 26.6 79.8 23.6C88.5 18.5 97.7 14.3 107.3 11C110.8 9.8 114.5 8.7 118.1 7.7C122.8 6.5 127.5 5.5 132.3 4.7C140.4 3.7 148.8 3 157.3 3ZM157.3 0C148.7 0 140.1 0.7 131.8 2.1C126.8 2.9 121.9 4 117.3 5.2C113.6 6.2 109.9 7.3 106.3 8.5C96.6 11.8 87.1 16.2 78.2 21.3C73 24.3 67.8 27.7 62.9 31.4C61.5 32.4 60.3 33.4 59.1 34.3C52.1 39.9 45.5 46.1 39.5 52.9C35.9 56.9 32.5 61.2 29.3 65.6C28.5 66.8 27.6 68 26.7 69.4C24.4 72.8 22.2 76.3 20.3 79.7C19.1 81.9 17.9 84.1 16.8 86.3C16 87.8 15.3 89.4 14.5 91.1C14.1 91.9 13.8 92.6 13.5 93.4C13 94.4 12.5 95.6 12 96.9C10.7 100.1 9.4 103.4 8.3 106.7C8 107.7 7.6 108.8 7.2 110.1L7 110.8L6.8 111.6C6.3 113.3 5.8 115 5.4 116.7C3.1 125.2 1.5 134.1 0.7 143C0.4 145.9 0.3 148.8 0.2 151.6C0 153.4 0 155.3 0 157.3C0 158.1 0 158.8 0 159.6C0 160.7 0 161.8 0.1 163.1C0.2 165.9 0.4 168.6 0.6 171.4C0.8 173.9 1.1 176.5 1.5 179.1C1.9 182 2.4 185 3 188C3.1 188.4 3.2 188.9 3.3 189.3L3.4 189.6C3.9 191.9 4.4 194.1 5 196.4C13.5 229.6 33.1 259.7 60.2 281.1C73.8 291.8 88.9 300.1 105.1 305.8C121.9 311.7 139.5 314.7 157.5 314.7C175.7 314.7 193.5 311.6 210.4 305.6C226.8 299.7 242 291.2 255.7 280.3C283 258.5 302.5 227.8 310.6 194C311.9 188.6 312.9 183.1 313.6 177.6C313.9 175 314.2 172.2 314.4 169.5V169.4C314.6 166.8 314.7 164 314.8 161.2C314.8 160.1 314.8 158.9 314.8 157.5V157C314.8 153.9 314.7 150.7 314.5 147.4V147.3C314.3 144.5 314.1 141.7 313.7 138.9V138.7C312.8 130.8 311.2 122.9 309.1 115.3C308.5 113.1 307.9 111.2 307.3 109.3C306.7 107.5 306.1 105.7 305.5 104L305.4 103.7C304.4 101 303.3 98.2 302.2 95.6L302.1 95.4C301.6 94.2 301.1 93.1 300.6 92C300.3 91.3 299.9 90.6 299.6 89.9C298.8 88.1 298 86.5 297.1 85L296.9 84.6C295.8 82.6 294.7 80.4 293.4 78.2L293.2 77.9C287.7 68.6 281.2 59.8 273.9 51.7C268.3 45.5 262.1 39.7 255.6 34.5C254.4 33.5 253.1 32.5 251.8 31.6C247.1 28.1 242.2 24.8 237.2 21.9C228.5 16.8 219.3 12.5 209.8 9.1C206.1 7.8 202.4 6.6 198.7 5.7C194.1 4.4 189.2 3.4 184.2 2.5C184 2.5 183.8 2.4 183.6 2.4C183.4 2.4 183.2 2.3 183 2.3C174.5 0.7 165.9 0 157.3 0Z"
    fill="white" />
</svg>