<svg width="228" height="65" viewBox="0 0 228 65" fill="none" xmlns="http://www.w3.org/2000/svg">
<path d="M51.4 1.456C53.896 1.328 55.624 1.744 56.584 2.704C57.608 3.6 58.12 4.528 58.12 5.488C58.12 6.256 57.896 6.928 57.448 7.504C57 8.08 56.424 8.336 55.72 8.272C54.44 8.208 53.256 8.88 52.168 10.288C51.144 11.632 50.28 13.488 49.576 15.856C48.872 18.224 48.328 20.944 47.944 24.016C47.56 27.024 47.368 30.096 47.368 33.232C47.368 36.048 47.528 38.832 47.848 41.584C48.168 44.272 48.648 46.736 49.288 48.976C49.992 51.152 50.856 53.008 51.88 54.544C52.904 56.016 54.12 56.944 55.528 57.328C56.04 57.712 56.456 58.128 56.776 58.576C57.096 59.088 57.256 59.696 57.256 60.4C57.256 61.872 56.616 62.928 55.336 63.568C54.12 64.272 52.776 64.624 51.304 64.624C50.152 64.624 49.032 64.4 47.944 63.952C46.664 63.44 45.576 62.704 44.68 61.744C43.784 60.784 42.984 59.728 42.28 58.576C40.296 55.312 38.952 51.696 38.248 47.728C37.608 43.696 37.288 39.76 37.288 35.92C36.776 35.728 36.104 35.6 35.272 35.536C34.44 35.472 33.512 35.44 32.488 35.44C31.4 35.44 30.312 35.472 29.224 35.536C28.136 35.536 27.08 35.536 26.056 35.536C25.992 37.2 25.928 39.024 25.864 41.008C25.864 42.928 25.736 44.88 25.48 46.864C25.288 48.848 24.936 50.8 24.424 52.72C23.912 54.576 23.144 56.24 22.12 57.712C21.224 58.928 20.168 59.984 18.952 60.88C17.736 61.776 16.392 62.384 14.92 62.704C11.4 63.28 8.2 62.352 5.32 59.92C4.232 59.024 3.272 57.904 2.44 56.56C1.672 55.216 1.224 53.808 1.096 52.336C0.968 50.352 1.512 48.72 2.728 47.44C3.688 46.48 4.68 46 5.704 46C6.92 46 7.944 46.64 8.776 47.92C9.672 49.136 10.28 50.48 10.6 51.952L10.696 52.048C11.848 52.816 12.776 52.88 13.48 52.24C14.248 51.6 14.824 50.576 15.208 49.168C15.656 47.696 15.944 46.032 16.072 44.176C16.264 42.32 16.36 40.624 16.36 39.088C16.36 38.384 16.36 37.744 16.36 37.168C16.36 36.528 16.328 35.984 16.264 35.536C15.048 35.536 13.832 35.568 12.616 35.632C11.464 35.632 10.28 35.728 9.064 35.92C8.168 35.984 7.432 35.696 6.856 35.056C6.28 34.352 5.928 33.648 5.8 32.944C5.608 31.856 5.896 30.992 6.664 30.352C7.432 29.712 8.392 29.2 9.544 28.816C10.696 28.432 11.88 28.176 13.096 28.048C14.312 27.856 15.272 27.664 15.976 27.472H16.168C16.168 24.976 16.072 22.416 15.88 19.792C15.88 18.704 15.848 17.648 15.784 16.624C15.784 15.6 15.784 14.544 15.784 13.456C15.784 12.112 15.816 10.768 15.88 9.424C15.944 8.08 16.104 6.768 16.36 5.488C16.488 4.784 16.84 4.24 17.416 3.856C17.992 3.472 18.6 3.27999 19.24 3.27999C19.944 3.27999 20.52 3.504 20.968 3.952C21.416 4.336 21.8 4.848 22.12 5.488C23.4 8.816 24.2 12.208 24.52 15.664C24.84 19.12 25.256 22.608 25.768 26.128C26.984 26 28.232 25.904 29.512 25.84C30.792 25.712 32.072 25.648 33.352 25.648C34.888 25.648 36.488 25.744 38.152 25.936C38.28 24.144 38.44 22.384 38.632 20.656C38.888 18.864 39.24 17.104 39.688 15.376C40.072 13.968 40.552 12.464 41.128 10.864C41.704 9.264 42.44 7.792 43.336 6.448C44.296 5.104 45.416 3.984 46.696 3.088C48.04 2.128 49.608 1.584 51.4 1.456ZM58.414 59.344C56.622 58.832 55.31 57.296 54.478 54.736C53.71 52.112 53.326 49.072 53.326 45.616C53.326 43.056 53.518 40.464 53.902 37.84C54.35 35.216 54.926 32.848 55.63 30.736C56.398 28.624 57.294 26.928 58.318 25.648C59.342 24.368 60.494 23.824 61.774 24.016C62.862 24.144 63.598 24.592 63.982 25.36C64.366 26.128 64.558 27.024 64.558 28.048C64.558 29.136 64.462 30.192 64.27 31.216C64.078 32.24 63.918 33.104 63.79 33.808C63.726 34.256 63.662 34.8 63.598 35.44C63.598 36.08 63.598 36.816 63.598 37.648C63.598 39.504 63.63 41.648 63.694 44.08C63.758 46.448 63.79 48.688 63.79 50.8C63.79 52.528 63.758 54.032 63.694 55.312C63.63 56.592 63.47 57.392 63.214 57.712C62.638 58.48 61.902 59.024 61.006 59.344C60.11 59.664 59.246 59.664 58.414 59.344ZM66.958 10.96C67.278 12.624 67.31 14.064 67.054 15.28C66.862 16.432 66.478 17.424 65.902 18.256C65.326 19.024 64.654 19.6 63.886 19.984C63.118 20.368 62.35 20.56 61.582 20.56C60.494 20.56 59.502 20.208 58.606 19.504C57.774 18.736 57.358 17.648 57.358 16.24C57.358 15.024 57.838 13.488 58.798 11.632C59.31 10.736 59.918 10.064 60.622 9.616C61.39 9.104 62.222 8.848 63.118 8.848C63.822 8.848 64.494 9.04 65.134 9.424C65.838 9.744 66.446 10.256 66.958 10.96ZM94.2483 27.184C95.8483 28.848 97.0003 30.64 97.7043 32.56C98.4723 34.416 98.8563 36.304 98.8563 38.224C98.8563 40.656 98.3123 42.992 97.2243 45.232C96.2003 47.472 94.7923 49.424 93.0002 51.088C91.2723 52.752 89.2243 54.032 86.8563 54.928C84.4883 55.76 81.9603 56.016 79.2723 55.696C79.2723 56.336 79.1763 56.88 78.9843 57.328C78.7923 58.352 78.4083 59.088 77.8323 59.536C77.3203 59.984 76.7763 60.272 76.2003 60.4C75.6243 60.528 75.0483 60.528 74.4723 60.4C73.9603 60.336 73.6083 60.24 73.4163 60.112C72.2003 59.664 71.1763 58.832 70.3443 57.616C69.5123 56.336 68.8403 54.8 68.3283 53.008C67.8803 51.152 67.5602 49.104 67.3682 46.864C67.1762 44.56 67.0802 42.192 67.0802 39.76C67.0802 37.008 67.1762 34.256 67.3682 31.504C67.5602 28.688 67.7843 26.032 68.0403 23.536C68.2963 20.976 68.5523 18.704 68.8083 16.72C69.0643 14.672 69.2563 13.04 69.3843 11.824C69.5123 10.864 69.6083 10.128 69.6723 9.616C69.7363 9.04 69.7683 8.528 69.7683 8.08C69.8323 7.568 69.8643 7.088 69.8643 6.64C69.9283 6.128 70.0243 5.424 70.1523 4.528C70.2803 3.248 70.8883 2.256 71.9763 1.552C73.0643 0.847998 74.2163 0.463997 75.4323 0.399998C76.9043 0.335999 77.7043 0.783998 77.8323 1.744C78.0243 2.64 78.0883 3.664 78.0243 4.816C77.9603 5.52 77.9283 6.128 77.9283 6.64C77.9283 7.088 77.9283 7.504 77.9283 7.888C77.9283 8.784 77.9283 9.616 77.9283 10.384C77.9923 11.088 78.0563 12.176 78.1203 13.648C78.1203 14.672 78.1203 15.856 78.1203 17.2C78.1203 18.48 78.1203 19.824 78.1203 21.232C78.1843 22.576 78.2163 23.888 78.2163 25.168C78.2163 26.448 78.2163 27.6 78.2163 28.624C78.9203 27.088 80.0403 25.968 81.5763 25.264C83.1123 24.496 84.7123 24.112 86.3763 24.112C87.8483 24.112 89.2883 24.368 90.6963 24.88C92.1043 25.392 93.2883 26.16 94.2483 27.184ZM79.3683 44.848C80.8403 44.592 82.1203 44.144 83.2083 43.504C84.2963 42.864 85.1603 42.128 85.8003 41.296C86.5043 40.4 87.0163 39.472 87.3363 38.512C87.6563 37.552 87.8163 36.624 87.8163 35.728C87.8163 34.576 87.5603 33.584 87.0483 32.752C86.5363 31.92 85.8323 31.504 84.9363 31.504C84.1043 31.504 83.1443 31.92 82.0563 32.752C81.0323 33.584 79.8803 35.024 78.6003 37.072L78.9843 44.848H79.3683ZM128.302 34.48C128.366 36.976 128.43 39.632 128.494 42.448C128.558 45.264 128.846 48.016 129.358 50.704C129.486 51.472 129.678 52.176 129.934 52.816C130.19 53.456 130.414 54.096 130.606 54.736C130.798 55.376 130.926 56.016 130.99 56.656C131.054 57.296 130.958 58 130.702 58.768C130.51 59.344 130.158 59.856 129.646 60.304C129.198 60.752 128.654 61.072 128.014 61.264C127.374 61.456 126.702 61.52 125.998 61.456C125.294 61.456 124.686 61.264 124.174 60.88C123.342 60.304 122.702 59.44 122.254 58.288C121.806 57.136 121.486 55.856 121.294 54.448C121.102 53.04 120.974 51.6 120.91 50.128C120.91 48.592 120.91 47.184 120.91 45.904C120.014 49.936 118.67 52.848 116.878 54.64C115.086 56.368 113.262 57.232 111.406 57.232C109.166 57.232 107.118 56.112 105.262 53.872C103.662 51.888 102.606 49.68 102.094 47.248C101.582 44.752 101.326 42.256 101.326 39.76C101.454 37.328 101.774 34.928 102.286 32.56C102.862 30.192 103.406 27.824 103.918 25.456C104.11 24.56 104.622 23.92 105.454 23.536C106.286 23.088 107.086 22.992 107.854 23.248C108.814 23.44 109.454 23.92 109.774 24.688C110.158 25.456 110.286 26.288 110.158 27.184C109.966 28.592 109.838 29.904 109.774 31.12C109.71 32.336 109.678 33.488 109.678 34.576C109.678 38.224 110.062 40.912 110.83 42.64C111.598 44.304 112.526 45.136 113.614 45.136C115.022 45.136 116.366 43.76 117.646 41.008C118.926 38.256 119.566 34.32 119.566 29.2C119.566 28.688 119.566 28.176 119.566 27.664C119.566 27.088 119.534 26.512 119.47 25.936C119.406 24.72 119.79 23.728 120.622 22.96C121.518 22.192 122.574 21.776 123.79 21.712C124.942 21.648 125.902 22.064 126.67 22.96C127.502 23.856 127.95 24.848 128.014 25.936C128.014 27.408 128.046 28.848 128.11 30.256C128.174 31.664 128.238 33.072 128.302 34.48ZM156.879 25.36C157.967 25.936 158.735 26.672 159.183 27.568C159.631 28.464 159.855 29.36 159.855 30.256C159.855 31.408 159.503 32.432 158.799 33.328C158.095 34.224 157.103 34.672 155.823 34.672C154.863 34.672 153.871 34.416 152.847 33.904L151.983 33.616H151.407C149.743 34 148.431 34.96 147.471 36.496C146.511 38.032 145.775 39.824 145.263 41.872C144.751 43.856 144.399 45.904 144.207 48.016C144.079 50.064 144.015 51.824 144.015 53.296C144.015 54.768 143.535 55.984 142.575 56.944C141.615 57.84 140.431 58.352 139.023 58.48C137.615 58.544 136.399 58.032 135.375 56.944C134.415 55.856 133.935 54.64 133.935 53.296C133.871 52.976 133.839 52.656 133.839 52.336C133.839 52.016 133.839 51.664 133.839 51.28C133.839 49.296 133.839 47.312 133.839 45.328C133.839 43.28 133.871 41.232 133.935 39.184C133.935 36.816 134.031 34.416 134.223 31.984C134.287 30.704 134.383 29.456 134.511 28.24C134.703 27.024 134.927 25.776 135.183 24.496C135.311 23.664 135.727 23.024 136.431 22.576C137.199 22.128 137.935 21.872 138.639 21.808C139.023 21.808 139.471 21.872 139.983 22C140.495 22.064 141.007 22.224 141.519 22.48C142.031 22.672 142.447 22.928 142.767 23.248C143.151 23.568 143.375 23.92 143.439 24.304C143.503 24.624 143.503 25.232 143.439 26.128C143.439 27.024 143.375 27.984 143.247 29.008C143.183 29.968 143.087 30.864 142.959 31.696C142.831 32.528 142.735 33.072 142.671 33.328C144.143 30.128 145.775 27.856 147.567 26.512C149.423 25.168 151.279 24.496 153.135 24.496C154.351 24.496 155.599 24.784 156.879 25.36ZM192.765 29.392C192.125 32.784 191.805 35.952 191.805 38.896C191.805 41.392 192.029 43.824 192.477 46.192C192.989 48.496 193.725 50.96 194.685 53.584C195.197 55.056 194.973 56.304 194.013 57.328C193.117 58.288 191.581 58.832 189.405 58.96C188.125 59.024 187.133 58.64 186.429 57.808C185.725 56.976 185.213 55.952 184.893 54.736C184.573 53.456 184.349 52.144 184.221 50.8C184.093 49.392 183.997 48.176 183.933 47.152C183.613 48.112 183.005 49.232 182.109 50.512C181.213 51.728 180.125 52.912 178.845 54.064C177.629 55.152 176.285 56.08 174.813 56.848C173.341 57.616 171.901 57.968 170.493 57.904C168.893 57.84 167.325 57.52 165.789 56.944C164.317 56.304 163.037 55.28 161.949 53.872C160.861 52.464 160.093 50.896 159.645 49.168C159.261 47.376 159.133 45.584 159.261 43.792C159.517 40.4 160.445 37.232 162.045 34.288C163.645 31.28 165.661 28.944 168.093 27.28C169.885 26.128 171.805 25.552 173.853 25.552C175.517 25.552 177.085 25.968 178.557 26.8C180.029 27.632 181.309 28.88 182.397 30.544C182.525 30.032 182.621 29.552 182.685 29.104C182.813 28.656 182.973 28.24 183.165 27.856C183.677 26.192 184.445 24.944 185.469 24.112C186.493 23.28 187.741 23.088 189.213 23.536C190.301 23.856 191.165 24.592 191.805 25.744C192.445 26.896 192.765 28.112 192.765 29.392ZM182.109 37.264C182.173 36.496 181.917 35.952 181.341 35.632C180.829 35.248 180.125 35.056 179.229 35.056C178.269 35.056 177.213 35.248 176.061 35.632C174.973 36.016 173.917 36.56 172.893 37.264C171.933 37.968 171.101 38.8 170.397 39.76C169.757 40.656 169.437 41.68 169.437 42.832C169.437 43.28 169.469 43.76 169.533 44.272C169.661 44.72 169.885 45.2 170.205 45.712C170.461 46.16 170.845 46.544 171.357 46.864C171.933 47.184 172.605 47.344 173.373 47.344C174.013 47.344 174.717 47.184 175.485 46.864C176.253 46.544 177.021 46 177.789 45.232C178.557 44.464 179.293 43.44 179.997 42.16C180.765 40.88 181.469 39.248 182.109 37.264ZM227.064 52.816C227.448 53.904 227.64 54.896 227.64 55.792C227.64 57.776 227.032 59.44 225.816 60.784C224.6 62.128 223.32 62.8 221.976 62.8C221.016 62.8 220.152 62.384 219.384 61.552C218.616 60.656 218.136 59.888 217.944 59.248C217.816 58.608 217.656 57.712 217.464 56.56C217.08 53.936 216.856 51.184 216.792 48.304C216.792 45.36 216.76 42.576 216.696 39.952C216.568 37.712 216.376 36.24 216.12 35.536C215.864 34.832 215.48 34.64 214.968 34.96C214.072 35.6 213.304 36.848 212.664 38.704C212.088 40.496 211.576 42.512 211.128 44.752C210.744 46.928 210.424 49.104 210.168 51.28C209.912 53.392 209.656 55.056 209.4 56.272C209.208 56.912 208.856 57.488 208.344 58C207.896 58.448 207.384 58.8 206.808 59.056C206.104 59.376 205.464 59.504 204.888 59.44C204.312 59.376 203.672 59.184 202.968 58.864C202.2 58.48 201.56 57.968 201.048 57.328C200.536 56.624 200.088 55.856 199.704 55.024C199.384 54.192 199.128 53.328 198.936 52.432C198.744 51.536 198.584 50.704 198.456 49.936C198.136 48.464 197.88 46.96 197.688 45.424C197.559 43.888 197.495 42.384 197.495 40.912C197.431 37.84 197.527 34.928 197.784 32.176C198.104 29.36 198.68 26.48 199.512 23.536C199.704 22.96 200.12 22.512 200.76 22.192C201.464 21.808 202.2 21.616 202.968 21.616C203.672 21.616 204.312 21.776 204.888 22.096C205.464 22.416 205.816 22.96 205.944 23.728C206.264 25.392 206.392 27.216 206.328 29.2C206.328 31.184 206.392 33.04 206.52 34.768C207.032 32.464 207.64 30.608 208.344 29.2C209.048 27.728 209.816 26.608 210.648 25.84C211.544 25.008 212.536 24.464 213.624 24.208C214.776 23.888 216.024 23.696 217.368 23.632C219.224 23.632 220.728 24.144 221.88 25.168C223.096 26.192 224.024 27.472 224.664 29.008C225.368 30.48 225.88 32.112 226.2 33.904C226.52 35.632 226.776 37.232 226.968 38.704C227.096 39.408 227.16 40.08 227.16 40.72C227.16 41.36 227.16 42 227.16 42.64C227.16 43.92 227.128 45.136 227.064 46.288C227 47.376 226.968 48.56 226.968 49.84C226.968 50.352 226.968 50.864 226.968 51.376C226.968 51.824 227 52.304 227.064 52.816Z" fill="#2355A0"/>
</svg>
