<svg width="235" height="90" viewBox="0 0 235 90" fill="none" xmlns="http://www.w3.org/2000/svg">
  <path
    d="M52.4 26.456C54.896 26.328 56.624 26.744 57.584 27.704C58.608 28.6 59.12 29.528 59.12 30.488C59.12 31.256 58.896 31.928 58.448 32.504C58 33.08 57.424 33.336 56.72 33.272C55.44 33.208 54.256 33.88 53.168 35.288C52.144 36.632 51.28 38.488 50.576 40.856C49.872 43.224 49.328 45.944 48.944 49.016C48.56 52.024 48.368 55.096 48.368 58.232C48.368 61.048 48.528 63.832 48.848 66.584C49.168 69.272 49.648 71.736 50.288 73.976C50.992 76.152 51.856 78.008 52.88 79.544C53.904 81.016 55.12 81.944 56.528 82.328C57.04 82.712 57.456 83.128 57.776 83.576C58.096 84.088 58.256 84.696 58.256 85.4C58.256 86.872 57.616 87.928 56.336 88.568C55.12 89.272 53.776 89.624 52.304 89.624C51.152 89.624 50.032 89.4 48.944 88.952C47.664 88.44 46.576 87.704 45.68 86.744C44.784 85.784 43.984 84.728 43.28 83.576C41.296 80.312 39.952 76.696 39.248 72.728C38.608 68.696 38.288 64.76 38.288 60.92C37.776 60.728 37.104 60.6 36.272 60.536C35.44 60.472 34.512 60.44 33.488 60.44C32.4 60.44 31.312 60.472 30.224 60.536C29.136 60.536 28.08 60.536 27.056 60.536C26.992 62.2 26.928 64.024 26.864 66.008C26.864 67.928 26.736 69.88 26.48 71.864C26.288 73.848 25.936 75.8 25.424 77.72C24.912 79.576 24.144 81.24 23.12 82.712C22.224 83.928 21.168 84.984 19.952 85.88C18.736 86.776 17.392 87.384 15.92 87.704C12.4 88.28 9.2 87.352 6.32 84.92C5.232 84.024 4.272 82.904 3.44 81.56C2.672 80.216 2.224 78.808 2.096 77.336C1.968 75.352 2.512 73.72 3.728 72.44C4.688 71.48 5.68 71 6.704 71C7.92 71 8.944 71.64 9.776 72.92C10.672 74.136 11.28 75.48 11.6 76.952L11.696 77.048C12.848 77.816 13.776 77.88 14.48 77.24C15.248 76.6 15.824 75.576 16.208 74.168C16.656 72.696 16.944 71.032 17.072 69.176C17.264 67.32 17.36 65.624 17.36 64.088C17.36 63.384 17.36 62.744 17.36 62.168C17.36 61.528 17.328 60.984 17.264 60.536C16.048 60.536 14.832 60.568 13.616 60.632C12.464 60.632 11.28 60.728 10.064 60.92C9.168 60.984 8.432 60.696 7.856 60.056C7.28 59.352 6.928 58.648 6.8 57.944C6.608 56.856 6.896 55.992 7.664 55.352C8.432 54.712 9.392 54.2 10.544 53.816C11.696 53.432 12.88 53.176 14.096 53.048C15.312 52.856 16.272 52.664 16.976 52.472H17.168C17.168 49.976 17.072 47.416 16.88 44.792C16.88 43.704 16.848 42.648 16.784 41.624C16.784 40.6 16.784 39.544 16.784 38.456C16.784 37.112 16.816 35.768 16.88 34.424C16.944 33.08 17.104 31.768 17.36 30.488C17.488 29.784 17.84 29.24 18.416 28.856C18.992 28.472 19.6 28.28 20.24 28.28C20.944 28.28 21.52 28.504 21.968 28.952C22.416 29.336 22.8 29.848 23.12 30.488C24.4 33.816 25.2 37.208 25.52 40.664C25.84 44.12 26.256 47.608 26.768 51.128C27.984 51 29.232 50.904 30.512 50.84C31.792 50.712 33.072 50.648 34.352 50.648C35.888 50.648 37.488 50.744 39.152 50.936C39.28 49.144 39.44 47.384 39.632 45.656C39.888 43.864 40.24 42.104 40.688 40.376C41.072 38.968 41.552 37.464 42.128 35.864C42.704 34.264 43.44 32.792 44.336 31.448C45.296 30.104 46.416 28.984 47.696 28.088C49.04 27.128 50.608 26.584 52.4 26.456ZM59.414 84.344C57.622 83.832 56.31 82.296 55.478 79.736C54.71 77.112 54.326 74.072 54.326 70.616C54.326 68.056 54.518 65.464 54.902 62.84C55.35 60.216 55.926 57.848 56.63 55.736C57.398 53.624 58.294 51.928 59.318 50.648C60.342 49.368 61.494 48.824 62.774 49.016C63.862 49.144 64.598 49.592 64.982 50.36C65.366 51.128 65.558 52.024 65.558 53.048C65.558 54.136 65.462 55.192 65.27 56.216C65.078 57.24 64.918 58.104 64.79 58.808C64.726 59.256 64.662 59.8 64.598 60.44C64.598 61.08 64.598 61.816 64.598 62.648C64.598 64.504 64.63 66.648 64.694 69.08C64.758 71.448 64.79 73.688 64.79 75.8C64.79 77.528 64.758 79.032 64.694 80.312C64.63 81.592 64.47 82.392 64.214 82.712C63.638 83.48 62.902 84.024 62.006 84.344C61.11 84.664 60.246 84.664 59.414 84.344ZM67.958 35.96C68.278 37.624 68.31 39.064 68.054 40.28C67.862 41.432 67.478 42.424 66.902 43.256C66.326 44.024 65.654 44.6 64.886 44.984C64.118 45.368 63.35 45.56 62.582 45.56C61.494 45.56 60.502 45.208 59.606 44.504C58.774 43.736 58.358 42.648 58.358 41.24C58.358 40.024 58.838 38.488 59.798 36.632C60.31 35.736 60.918 35.064 61.622 34.616C62.39 34.104 63.222 33.848 64.118 33.848C64.822 33.848 65.494 34.04 66.134 34.424C66.838 34.744 67.446 35.256 67.958 35.96ZM95.2483 52.184C96.8483 53.848 98.0003 55.64 98.7043 57.56C99.4723 59.416 99.8563 61.304 99.8563 63.224C99.8563 65.656 99.3123 67.992 98.2243 70.232C97.2003 72.472 95.7923 74.424 94.0002 76.088C92.2723 77.752 90.2243 79.032 87.8563 79.928C85.4883 80.76 82.9603 81.016 80.2723 80.696C80.2723 81.336 80.1763 81.88 79.9843 82.328C79.7923 83.352 79.4083 84.088 78.8323 84.536C78.3203 84.984 77.7763 85.272 77.2003 85.4C76.6243 85.528 76.0483 85.528 75.4723 85.4C74.9603 85.336 74.6083 85.24 74.4163 85.112C73.2003 84.664 72.1763 83.832 71.3443 82.616C70.5123 81.336 69.8403 79.8 69.3283 78.008C68.8803 76.152 68.5602 74.104 68.3682 71.864C68.1762 69.56 68.0802 67.192 68.0802 64.76C68.0802 62.008 68.1762 59.256 68.3682 56.504C68.5602 53.688 68.7843 51.032 69.0403 48.536C69.2963 45.976 69.5523 43.704 69.8083 41.72C70.0643 39.672 70.2563 38.04 70.3843 36.824C70.5123 35.864 70.6083 35.128 70.6723 34.616C70.7363 34.04 70.7683 33.528 70.7683 33.08C70.8323 32.568 70.8643 32.088 70.8643 31.64C70.9283 31.128 71.0243 30.424 71.1523 29.528C71.2803 28.248 71.8883 27.256 72.9763 26.552C74.0643 25.848 75.2163 25.464 76.4323 25.4C77.9043 25.336 78.7043 25.784 78.8323 26.744C79.0243 27.64 79.0883 28.664 79.0243 29.816C78.9603 30.52 78.9283 31.128 78.9283 31.64C78.9283 32.088 78.9283 32.504 78.9283 32.888C78.9283 33.784 78.9283 34.616 78.9283 35.384C78.9923 36.088 79.0563 37.176 79.1203 38.648C79.1203 39.672 79.1203 40.856 79.1203 42.2C79.1203 43.48 79.1203 44.824 79.1203 46.232C79.1843 47.576 79.2163 48.888 79.2163 50.168C79.2163 51.448 79.2163 52.6 79.2163 53.624C79.9203 52.088 81.0403 50.968 82.5763 50.264C84.1123 49.496 85.7123 49.112 87.3763 49.112C88.8483 49.112 90.2883 49.368 91.6963 49.88C93.1043 50.392 94.2883 51.16 95.2483 52.184ZM80.3683 69.848C81.8403 69.592 83.1203 69.144 84.2083 68.504C85.2963 67.864 86.1603 67.128 86.8003 66.296C87.5043 65.4 88.0163 64.472 88.3363 63.512C88.6563 62.552 88.8163 61.624 88.8163 60.728C88.8163 59.576 88.5603 58.584 88.0483 57.752C87.5363 56.92 86.8323 56.504 85.9363 56.504C85.1043 56.504 84.1443 56.92 83.0563 57.752C82.0323 58.584 80.8803 60.024 79.6003 62.072L79.9843 69.848H80.3683ZM129.302 59.48C129.366 61.976 129.43 64.632 129.494 67.448C129.558 70.264 129.846 73.016 130.358 75.704C130.486 76.472 130.678 77.176 130.934 77.816C131.19 78.456 131.414 79.096 131.606 79.736C131.798 80.376 131.926 81.016 131.99 81.656C132.054 82.296 131.958 83 131.702 83.768C131.51 84.344 131.158 84.856 130.646 85.304C130.198 85.752 129.654 86.072 129.014 86.264C128.374 86.456 127.702 86.52 126.998 86.456C126.294 86.456 125.686 86.264 125.174 85.88C124.342 85.304 123.702 84.44 123.254 83.288C122.806 82.136 122.486 80.856 122.294 79.448C122.102 78.04 121.974 76.6 121.91 75.128C121.91 73.592 121.91 72.184 121.91 70.904C121.014 74.936 119.67 77.848 117.878 79.64C116.086 81.368 114.262 82.232 112.406 82.232C110.166 82.232 108.118 81.112 106.262 78.872C104.662 76.888 103.606 74.68 103.094 72.248C102.582 69.752 102.326 67.256 102.326 64.76C102.454 62.328 102.774 59.928 103.286 57.56C103.862 55.192 104.406 52.824 104.918 50.456C105.11 49.56 105.622 48.92 106.454 48.536C107.286 48.088 108.086 47.992 108.854 48.248C109.814 48.44 110.454 48.92 110.774 49.688C111.158 50.456 111.286 51.288 111.158 52.184C110.966 53.592 110.838 54.904 110.774 56.12C110.71 57.336 110.678 58.488 110.678 59.576C110.678 63.224 111.062 65.912 111.83 67.64C112.598 69.304 113.526 70.136 114.614 70.136C116.022 70.136 117.366 68.76 118.646 66.008C119.926 63.256 120.566 59.32 120.566 54.2C120.566 53.688 120.566 53.176 120.566 52.664C120.566 52.088 120.534 51.512 120.47 50.936C120.406 49.72 120.79 48.728 121.622 47.96C122.518 47.192 123.574 46.776 124.79 46.712C125.942 46.648 126.902 47.064 127.67 47.96C128.502 48.856 128.95 49.848 129.014 50.936C129.014 52.408 129.046 53.848 129.11 55.256C129.174 56.664 129.238 58.072 129.302 59.48ZM157.879 50.36C158.967 50.936 159.735 51.672 160.183 52.568C160.631 53.464 160.855 54.36 160.855 55.256C160.855 56.408 160.503 57.432 159.799 58.328C159.095 59.224 158.103 59.672 156.823 59.672C155.863 59.672 154.871 59.416 153.847 58.904L152.983 58.616H152.407C150.743 59 149.431 59.96 148.471 61.496C147.511 63.032 146.775 64.824 146.263 66.872C145.751 68.856 145.399 70.904 145.207 73.016C145.079 75.064 145.015 76.824 145.015 78.296C145.015 79.768 144.535 80.984 143.575 81.944C142.615 82.84 141.431 83.352 140.023 83.48C138.615 83.544 137.399 83.032 136.375 81.944C135.415 80.856 134.935 79.64 134.935 78.296C134.871 77.976 134.839 77.656 134.839 77.336C134.839 77.016 134.839 76.664 134.839 76.28C134.839 74.296 134.839 72.312 134.839 70.328C134.839 68.28 134.871 66.232 134.935 64.184C134.935 61.816 135.031 59.416 135.223 56.984C135.287 55.704 135.383 54.456 135.511 53.24C135.703 52.024 135.927 50.776 136.183 49.496C136.311 48.664 136.727 48.024 137.431 47.576C138.199 47.128 138.935 46.872 139.639 46.808C140.023 46.808 140.471 46.872 140.983 47C141.495 47.064 142.007 47.224 142.519 47.48C143.031 47.672 143.447 47.928 143.767 48.248C144.151 48.568 144.375 48.92 144.439 49.304C144.503 49.624 144.503 50.232 144.439 51.128C144.439 52.024 144.375 52.984 144.247 54.008C144.183 54.968 144.087 55.864 143.959 56.696C143.831 57.528 143.735 58.072 143.671 58.328C145.143 55.128 146.775 52.856 148.567 51.512C150.423 50.168 152.279 49.496 154.135 49.496C155.351 49.496 156.599 49.784 157.879 50.36ZM193.765 54.392C193.125 57.784 192.805 60.952 192.805 63.896C192.805 66.392 193.029 68.824 193.477 71.192C193.989 73.496 194.725 75.96 195.685 78.584C196.197 80.056 195.973 81.304 195.013 82.328C194.117 83.288 192.581 83.832 190.405 83.96C189.125 84.024 188.133 83.64 187.429 82.808C186.725 81.976 186.213 80.952 185.893 79.736C185.573 78.456 185.349 77.144 185.221 75.8C185.093 74.392 184.997 73.176 184.933 72.152C184.613 73.112 184.005 74.232 183.109 75.512C182.213 76.728 181.125 77.912 179.845 79.064C178.629 80.152 177.285 81.08 175.813 81.848C174.341 82.616 172.901 82.968 171.493 82.904C169.893 82.84 168.325 82.52 166.789 81.944C165.317 81.304 164.037 80.28 162.949 78.872C161.861 77.464 161.093 75.896 160.645 74.168C160.261 72.376 160.133 70.584 160.261 68.792C160.517 65.4 161.445 62.232 163.045 59.288C164.645 56.28 166.661 53.944 169.093 52.28C170.885 51.128 172.805 50.552 174.853 50.552C176.517 50.552 178.085 50.968 179.557 51.8C181.029 52.632 182.309 53.88 183.397 55.544C183.525 55.032 183.621 54.552 183.685 54.104C183.813 53.656 183.973 53.24 184.165 52.856C184.677 51.192 185.445 49.944 186.469 49.112C187.493 48.28 188.741 48.088 190.213 48.536C191.301 48.856 192.165 49.592 192.805 50.744C193.445 51.896 193.765 53.112 193.765 54.392ZM183.109 62.264C183.173 61.496 182.917 60.952 182.341 60.632C181.829 60.248 181.125 60.056 180.229 60.056C179.269 60.056 178.213 60.248 177.061 60.632C175.973 61.016 174.917 61.56 173.893 62.264C172.933 62.968 172.101 63.8 171.397 64.76C170.757 65.656 170.437 66.68 170.437 67.832C170.437 68.28 170.469 68.76 170.533 69.272C170.661 69.72 170.885 70.2 171.205 70.712C171.461 71.16 171.845 71.544 172.357 71.864C172.933 72.184 173.605 72.344 174.373 72.344C175.013 72.344 175.717 72.184 176.485 71.864C177.253 71.544 178.021 71 178.789 70.232C179.557 69.464 180.293 68.44 180.997 67.16C181.765 65.88 182.469 64.248 183.109 62.264ZM228.064 77.816C228.448 78.904 228.64 79.896 228.64 80.792C228.64 82.776 228.032 84.44 226.816 85.784C225.6 87.128 224.32 87.8 222.976 87.8C222.016 87.8 221.152 87.384 220.384 86.552C219.616 85.656 219.136 84.888 218.944 84.248C218.816 83.608 218.656 82.712 218.464 81.56C218.08 78.936 217.856 76.184 217.792 73.304C217.792 70.36 217.76 67.576 217.696 64.952C217.568 62.712 217.376 61.24 217.12 60.536C216.864 59.832 216.48 59.64 215.968 59.96C215.072 60.6 214.304 61.848 213.664 63.704C213.088 65.496 212.576 67.512 212.128 69.752C211.744 71.928 211.424 74.104 211.168 76.28C210.912 78.392 210.656 80.056 210.4 81.272C210.208 81.912 209.856 82.488 209.344 83C208.896 83.448 208.384 83.8 207.808 84.056C207.104 84.376 206.464 84.504 205.888 84.44C205.312 84.376 204.672 84.184 203.968 83.864C203.2 83.48 202.56 82.968 202.048 82.328C201.536 81.624 201.088 80.856 200.704 80.024C200.384 79.192 200.128 78.328 199.936 77.432C199.744 76.536 199.584 75.704 199.456 74.936C199.136 73.464 198.88 71.96 198.688 70.424C198.559 68.888 198.495 67.384 198.495 65.912C198.431 62.84 198.527 59.928 198.784 57.176C199.104 54.36 199.68 51.48 200.512 48.536C200.704 47.96 201.12 47.512 201.76 47.192C202.464 46.808 203.2 46.616 203.968 46.616C204.672 46.616 205.312 46.776 205.888 47.096C206.464 47.416 206.816 47.96 206.944 48.728C207.264 50.392 207.392 52.216 207.328 54.2C207.328 56.184 207.392 58.04 207.52 59.768C208.032 57.464 208.64 55.608 209.344 54.2C210.048 52.728 210.816 51.608 211.648 50.84C212.544 50.008 213.536 49.464 214.624 49.208C215.776 48.888 217.024 48.696 218.368 48.632C220.224 48.632 221.728 49.144 222.88 50.168C224.096 51.192 225.024 52.472 225.664 54.008C226.368 55.48 226.88 57.112 227.2 58.904C227.52 60.632 227.776 62.232 227.968 63.704C228.096 64.408 228.16 65.08 228.16 65.72C228.16 66.36 228.16 67 228.16 67.64C228.16 68.92 228.128 70.136 228.064 71.288C228 72.376 227.968 73.56 227.968 74.84C227.968 75.352 227.968 75.864 227.968 76.376C227.968 76.824 228 77.304 228.064 77.816Z"
    fill="#27B092" />
  <path
    d="M8.576 7.696H10.656V9.44H8.368L8.048 12H6.24L6.56 9.44H4.208L3.888 12H2.096L2.416 9.44H0.32V7.696H2.624L2.96 5.104H0.864V3.36H3.168L3.488 0.799999H5.28L4.96 3.36H7.312L7.632 0.799999H9.424L9.104 3.36H11.184L11.2 5.104H8.896L8.576 7.696ZM6.768 7.696L7.104 5.104H4.752L4.416 7.696H6.768ZM21.0676 6.176C21.7076 6.37867 22.209 6.72 22.5716 7.2C22.9343 7.66933 23.1156 8.25067 23.1156 8.944C23.1156 9.92533 22.7316 10.6827 21.9636 11.216C21.2063 11.7387 20.097 12 18.6356 12H12.8436V0.799999H18.3156C19.681 0.799999 20.7263 1.06133 21.4516 1.584C22.1876 2.10667 22.5556 2.816 22.5556 3.712C22.5556 4.256 22.4223 4.74133 22.1556 5.168C21.8996 5.59467 21.537 5.93067 21.0676 6.176ZM15.4196 2.752V5.392H17.9956C18.6356 5.392 19.121 5.28 19.4516 5.056C19.7823 4.832 19.9476 4.50133 19.9476 4.064C19.9476 3.62667 19.7823 3.30133 19.4516 3.088C19.121 2.864 18.6356 2.752 17.9956 2.752H15.4196ZM18.4436 10.048C19.1263 10.048 19.6383 9.936 19.9796 9.712C20.3316 9.488 20.5076 9.14133 20.5076 8.672C20.5076 7.744 19.8196 7.28 18.4436 7.28H15.4196V10.048H18.4436ZM33.334 7.728C33.334 7.76 33.318 7.984 33.286 8.4H26.774C26.8913 8.93333 27.1687 9.35467 27.606 9.664C28.0433 9.97333 28.5873 10.128 29.238 10.128C29.686 10.128 30.0807 10.064 30.422 9.936C30.774 9.79733 31.0993 9.584 31.398 9.296L32.726 10.736C31.9153 11.664 30.7313 12.128 29.174 12.128C28.2033 12.128 27.3447 11.9413 26.598 11.568C25.8513 11.184 25.2753 10.656 24.87 9.984C24.4647 9.312 24.262 8.54933 24.262 7.696C24.262 6.85333 24.4593 6.096 24.854 5.424C25.2593 4.74133 25.8087 4.21333 26.502 3.84C27.206 3.456 27.99 3.264 28.854 3.264C29.6967 3.264 30.4593 3.44533 31.142 3.808C31.8247 4.17067 32.358 4.69333 32.742 5.376C33.1367 6.048 33.334 6.832 33.334 7.728ZM28.87 5.152C28.3047 5.152 27.83 5.312 27.446 5.632C27.062 5.952 26.8273 6.38933 26.742 6.944H30.982C30.8967 6.4 30.662 5.968 30.278 5.648C29.894 5.31733 29.4247 5.152 28.87 5.152ZM37.3798 4.528C37.6784 4.112 38.0784 3.79733 38.5798 3.584C39.0918 3.37067 39.6784 3.264 40.3398 3.264V5.568C40.0624 5.54667 39.8758 5.536 39.7798 5.536C39.0651 5.536 38.5051 5.73867 38.0998 6.144C37.6944 6.53867 37.4918 7.136 37.4918 7.936V12H34.9958V3.392H37.3798V4.528ZM44.7511 12.128C44.0365 12.128 43.3378 12.0427 42.6551 11.872C41.9725 11.6907 41.4285 11.4667 41.0231 11.2L41.8551 9.408C42.2391 9.65333 42.7031 9.856 43.2471 10.016C43.7911 10.1653 44.3245 10.24 44.8471 10.24C45.9031 10.24 46.4311 9.97867 46.4311 9.456C46.4311 9.21067 46.2871 9.03467 45.9991 8.928C45.7111 8.82133 45.2685 8.73067 44.6711 8.656C43.9671 8.54933 43.3858 8.42667 42.9271 8.288C42.4685 8.14933 42.0685 7.904 41.7271 7.552C41.3965 7.2 41.2311 6.69867 41.2311 6.048C41.2311 5.504 41.3858 5.024 41.6951 4.608C42.0151 4.18133 42.4738 3.85067 43.0711 3.616C43.6791 3.38133 44.3938 3.264 45.2151 3.264C45.8231 3.264 46.4258 3.33333 47.0231 3.472C47.6311 3.6 48.1325 3.78133 48.5271 4.016L47.6951 5.792C46.9378 5.36533 46.1111 5.152 45.2151 5.152C44.6818 5.152 44.2818 5.22667 44.0151 5.376C43.7485 5.52533 43.6151 5.71733 43.6151 5.952C43.6151 6.21867 43.7591 6.40533 44.0471 6.512C44.3351 6.61867 44.7938 6.72 45.4231 6.816C46.1271 6.93333 46.7031 7.06133 47.1511 7.2C47.5991 7.328 47.9885 7.568 48.3191 7.92C48.6498 8.272 48.8151 8.76267 48.8151 9.392C48.8151 9.92533 48.6551 10.4 48.3351 10.816C48.0151 11.232 47.5458 11.5573 46.9271 11.792C46.3191 12.016 45.5938 12.128 44.7511 12.128ZM59.0271 3.392V12H56.6591V10.976C56.3285 11.3493 55.9338 11.6373 55.4751 11.84C55.0165 12.032 54.5205 12.128 53.9871 12.128C52.8565 12.128 51.9605 11.8027 51.2991 11.152C50.6378 10.5013 50.3071 9.536 50.3071 8.256V3.392H52.8031V7.888C52.8031 9.27467 53.3845 9.968 54.5471 9.968C55.1445 9.968 55.6245 9.776 55.9871 9.392C56.3498 8.99733 56.5311 8.416 56.5311 7.648V3.392H59.0271ZM64.8115 3.264C66.1448 3.264 67.1688 3.584 67.8835 4.224C68.5982 4.85333 68.9555 5.808 68.9555 7.088V12H66.6195V10.928C66.1502 11.728 65.2755 12.128 63.9955 12.128C63.3342 12.128 62.7582 12.016 62.2675 11.792C61.7875 11.568 61.4195 11.2587 61.1635 10.864C60.9075 10.4693 60.7795 10.0213 60.7795 9.52C60.7795 8.72 61.0782 8.09067 61.6755 7.632C62.2835 7.17333 63.2168 6.944 64.4755 6.944H66.4595C66.4595 6.4 66.2942 5.984 65.9635 5.696C65.6328 5.39733 65.1368 5.248 64.4755 5.248C64.0168 5.248 63.5635 5.32267 63.1155 5.472C62.6782 5.61067 62.3048 5.80267 61.9955 6.048L61.0995 4.304C61.5688 3.97333 62.1288 3.71733 62.7795 3.536C63.4408 3.35467 64.1182 3.264 64.8115 3.264ZM64.6195 10.448C65.0462 10.448 65.4248 10.352 65.7555 10.16C66.0862 9.95733 66.3208 9.664 66.4595 9.28V8.4H64.7475C63.7235 8.4 63.2115 8.736 63.2115 9.408C63.2115 9.728 63.3342 9.984 63.5795 10.176C63.8355 10.3573 64.1822 10.448 64.6195 10.448ZM78.5265 12L76.3665 8.88H76.2385H73.9825V12H71.3905V0.799999H76.2385C77.2305 0.799999 78.0892 0.965333 78.8145 1.296C79.5505 1.62667 80.1158 2.096 80.5105 2.704C80.9052 3.312 81.1025 4.032 81.1025 4.864C81.1025 5.696 80.8998 6.416 80.4945 7.024C80.0998 7.62133 79.5345 8.08 78.7985 8.4L81.3105 12H78.5265ZM78.4785 4.864C78.4785 4.23467 78.2758 3.75467 77.8705 3.424C77.4652 3.08267 76.8732 2.912 76.0945 2.912H73.9825V6.816H76.0945C76.8732 6.816 77.4652 6.64533 77.8705 6.304C78.2758 5.96267 78.4785 5.48267 78.4785 4.864ZM86.374 3.264C87.7073 3.264 88.7313 3.584 89.446 4.224C90.1607 4.85333 90.518 5.808 90.518 7.088V12H88.182V10.928C87.7127 11.728 86.838 12.128 85.558 12.128C84.8967 12.128 84.3207 12.016 83.83 11.792C83.35 11.568 82.982 11.2587 82.726 10.864C82.47 10.4693 82.342 10.0213 82.342 9.52C82.342 8.72 82.6407 8.09067 83.238 7.632C83.846 7.17333 84.7793 6.944 86.038 6.944H88.022C88.022 6.4 87.8567 5.984 87.526 5.696C87.1953 5.39733 86.6993 5.248 86.038 5.248C85.5793 5.248 85.126 5.32267 84.678 5.472C84.2407 5.61067 83.8673 5.80267 83.558 6.048L82.662 4.304C83.1313 3.97333 83.6913 3.71733 84.342 3.536C85.0033 3.35467 85.6807 3.264 86.374 3.264ZM86.182 10.448C86.6087 10.448 86.9873 10.352 87.318 10.16C87.6487 9.95733 87.8833 9.664 88.022 9.28V8.4H86.31C85.286 8.4 84.774 8.736 84.774 9.408C84.774 9.728 84.8967 9.984 85.142 10.176C85.398 10.3573 85.7447 10.448 86.182 10.448ZM103.801 3.264C104.878 3.264 105.732 3.584 106.361 4.224C107.001 4.85333 107.321 5.80267 107.321 7.072V12H104.825V7.456C104.825 6.77333 104.681 6.26667 104.393 5.936C104.116 5.59467 103.716 5.424 103.193 5.424C102.606 5.424 102.142 5.616 101.801 6C101.46 6.37333 101.289 6.93333 101.289 7.68V12H98.793V7.456C98.793 6.10133 98.249 5.424 97.161 5.424C96.585 5.424 96.1263 5.616 95.785 6C95.4437 6.37333 95.273 6.93333 95.273 7.68V12H92.777V3.392H95.161V4.384C95.481 4.02133 95.8703 3.744 96.329 3.552C96.7983 3.36 97.3103 3.264 97.865 3.264C98.473 3.264 99.0223 3.38667 99.513 3.632C100.004 3.86667 100.398 4.21333 100.697 4.672C101.049 4.224 101.492 3.87733 102.025 3.632C102.569 3.38667 103.161 3.264 103.801 3.264ZM113.03 3.264C114.364 3.264 115.388 3.584 116.102 4.224C116.817 4.85333 117.174 5.808 117.174 7.088V12H114.838V10.928C114.369 11.728 113.494 12.128 112.214 12.128C111.553 12.128 110.977 12.016 110.486 11.792C110.006 11.568 109.638 11.2587 109.382 10.864C109.126 10.4693 108.998 10.0213 108.998 9.52C108.998 8.72 109.297 8.09067 109.894 7.632C110.502 7.17333 111.436 6.944 112.694 6.944H114.678C114.678 6.4 114.513 5.984 114.182 5.696C113.852 5.39733 113.356 5.248 112.694 5.248C112.236 5.248 111.782 5.32267 111.334 5.472C110.897 5.61067 110.524 5.80267 110.214 6.048L109.318 4.304C109.788 3.97333 110.348 3.71733 110.998 3.536C111.66 3.35467 112.337 3.264 113.03 3.264ZM112.838 10.448C113.265 10.448 113.644 10.352 113.974 10.16C114.305 9.95733 114.54 9.664 114.678 9.28V8.4H112.966C111.942 8.4 111.43 8.736 111.43 9.408C111.43 9.728 111.553 9.984 111.798 10.176C112.054 10.3573 112.401 10.448 112.838 10.448ZM128.295 0.127999V12H125.911V11.008C125.292 11.7547 124.396 12.128 123.223 12.128C122.412 12.128 121.676 11.9467 121.015 11.584C120.364 11.2213 119.852 10.704 119.479 10.032C119.106 9.36 118.919 8.58133 118.919 7.696C118.919 6.81067 119.106 6.032 119.479 5.36C119.852 4.688 120.364 4.17067 121.015 3.808C121.676 3.44533 122.412 3.264 123.223 3.264C124.322 3.264 125.18 3.61067 125.799 4.304V0.127999H128.295ZM123.655 10.08C124.284 10.08 124.807 9.86667 125.223 9.44C125.639 9.00267 125.847 8.42133 125.847 7.696C125.847 6.97067 125.639 6.39467 125.223 5.968C124.807 5.53067 124.284 5.312 123.655 5.312C123.015 5.312 122.487 5.53067 122.071 5.968C121.655 6.39467 121.447 6.97067 121.447 7.696C121.447 8.42133 121.655 9.00267 122.071 9.44C122.487 9.86667 123.015 10.08 123.655 10.08ZM135.837 3.264C136.904 3.264 137.762 3.584 138.413 4.224C139.074 4.864 139.405 5.81333 139.405 7.072V12H136.909V7.456C136.909 6.77333 136.76 6.26667 136.461 5.936C136.162 5.59467 135.73 5.424 135.165 5.424C134.536 5.424 134.034 5.62133 133.661 6.016C133.288 6.4 133.101 6.976 133.101 7.744V12H130.605V0.127999H133.101V4.288C133.432 3.95733 133.832 3.70667 134.301 3.536C134.77 3.35467 135.282 3.264 135.837 3.264ZM145.14 3.264C146.473 3.264 147.497 3.584 148.212 4.224C148.926 4.85333 149.284 5.808 149.284 7.088V12H146.948V10.928C146.478 11.728 145.604 12.128 144.324 12.128C143.662 12.128 143.086 12.016 142.596 11.792C142.116 11.568 141.748 11.2587 141.492 10.864C141.236 10.4693 141.108 10.0213 141.108 9.52C141.108 8.72 141.406 8.09067 142.004 7.632C142.612 7.17333 143.545 6.944 144.804 6.944H146.788C146.788 6.4 146.622 5.984 146.292 5.696C145.961 5.39733 145.465 5.248 144.804 5.248C144.345 5.248 143.892 5.32267 143.444 5.472C143.006 5.61067 142.633 5.80267 142.324 6.048L141.428 4.304C141.897 3.97333 142.457 3.71733 143.108 3.536C143.769 3.35467 144.446 3.264 145.14 3.264ZM144.948 10.448C145.374 10.448 145.753 10.352 146.084 10.16C146.414 9.95733 146.649 9.664 146.788 9.28V8.4H145.076C144.052 8.4 143.54 8.736 143.54 9.408C143.54 9.728 143.662 9.984 143.908 10.176C144.164 10.3573 144.51 10.448 144.948 10.448ZM156.775 3.264C157.841 3.264 158.7 3.584 159.351 4.224C160.012 4.864 160.343 5.81333 160.343 7.072V12H157.847V7.456C157.847 6.77333 157.697 6.26667 157.399 5.936C157.1 5.59467 156.668 5.424 156.103 5.424C155.473 5.424 154.972 5.62133 154.599 6.016C154.225 6.4 154.039 6.976 154.039 7.744V12H151.543V3.392H153.927V4.4C154.257 4.03733 154.668 3.76 155.159 3.568C155.649 3.36533 156.188 3.264 156.775 3.264ZM171.005 6.176C171.645 6.37867 172.146 6.72 172.509 7.2C172.872 7.66933 173.053 8.25067 173.053 8.944C173.053 9.92533 172.669 10.6827 171.901 11.216C171.144 11.7387 170.034 12 168.573 12H162.781V0.799999H168.253C169.618 0.799999 170.664 1.06133 171.389 1.584C172.125 2.10667 172.493 2.816 172.493 3.712C172.493 4.256 172.36 4.74133 172.093 5.168C171.837 5.59467 171.474 5.93067 171.005 6.176ZM165.357 2.752V5.392H167.933C168.573 5.392 169.058 5.28 169.389 5.056C169.72 4.832 169.885 4.50133 169.885 4.064C169.885 3.62667 169.72 3.30133 169.389 3.088C169.058 2.864 168.573 2.752 167.933 2.752H165.357ZM168.381 10.048C169.064 10.048 169.576 9.936 169.917 9.712C170.269 9.488 170.445 9.14133 170.445 8.672C170.445 7.744 169.757 7.28 168.381 7.28H165.357V10.048H168.381ZM183.272 7.728C183.272 7.76 183.256 7.984 183.224 8.4H176.712C176.829 8.93333 177.106 9.35467 177.544 9.664C177.981 9.97333 178.525 10.128 179.176 10.128C179.624 10.128 180.018 10.064 180.36 9.936C180.712 9.79733 181.037 9.584 181.336 9.296L182.664 10.736C181.853 11.664 180.669 12.128 179.112 12.128C178.141 12.128 177.282 11.9413 176.536 11.568C175.789 11.184 175.213 10.656 174.808 9.984C174.402 9.312 174.2 8.54933 174.2 7.696C174.2 6.85333 174.397 6.096 174.792 5.424C175.197 4.74133 175.746 4.21333 176.44 3.84C177.144 3.456 177.928 3.264 178.792 3.264C179.634 3.264 180.397 3.44533 181.08 3.808C181.762 4.17067 182.296 4.69333 182.68 5.376C183.074 6.048 183.272 6.832 183.272 7.728ZM178.808 5.152C178.242 5.152 177.768 5.312 177.384 5.632C177 5.952 176.765 6.38933 176.68 6.944H180.92C180.834 6.4 180.6 5.968 180.216 5.648C179.832 5.31733 179.362 5.152 178.808 5.152ZM187.317 4.528C187.616 4.112 188.016 3.79733 188.517 3.584C189.029 3.37067 189.616 3.264 190.277 3.264V5.568C190 5.54667 189.813 5.536 189.717 5.536C189.003 5.536 188.443 5.73867 188.037 6.144C187.632 6.53867 187.429 7.136 187.429 7.936V12H184.933V3.392H187.317V4.528ZM194.689 12.128C193.974 12.128 193.275 12.0427 192.593 11.872C191.91 11.6907 191.366 11.4667 190.961 11.2L191.793 9.408C192.177 9.65333 192.641 9.856 193.185 10.016C193.729 10.1653 194.262 10.24 194.785 10.24C195.841 10.24 196.369 9.97867 196.369 9.456C196.369 9.21067 196.225 9.03467 195.937 8.928C195.649 8.82133 195.206 8.73067 194.609 8.656C193.905 8.54933 193.323 8.42667 192.865 8.288C192.406 8.14933 192.006 7.904 191.665 7.552C191.334 7.2 191.169 6.69867 191.169 6.048C191.169 5.504 191.323 5.024 191.633 4.608C191.953 4.18133 192.411 3.85067 193.009 3.616C193.617 3.38133 194.331 3.264 195.153 3.264C195.761 3.264 196.363 3.33333 196.961 3.472C197.569 3.6 198.07 3.78133 198.465 4.016L197.633 5.792C196.875 5.36533 196.049 5.152 195.153 5.152C194.619 5.152 194.219 5.22667 193.953 5.376C193.686 5.52533 193.553 5.71733 193.553 5.952C193.553 6.21867 193.697 6.40533 193.985 6.512C194.273 6.61867 194.731 6.72 195.361 6.816C196.065 6.93333 196.641 7.06133 197.089 7.2C197.537 7.328 197.926 7.568 198.257 7.92C198.587 8.272 198.753 8.76267 198.753 9.392C198.753 9.92533 198.593 10.4 198.273 10.816C197.953 11.232 197.483 11.5573 196.865 11.792C196.257 12.016 195.531 12.128 194.689 12.128ZM203.765 3.264C205.098 3.264 206.122 3.584 206.837 4.224C207.551 4.85333 207.909 5.808 207.909 7.088V12H205.573V10.928C205.103 11.728 204.229 12.128 202.949 12.128C202.287 12.128 201.711 12.016 201.221 11.792C200.741 11.568 200.373 11.2587 200.117 10.864C199.861 10.4693 199.733 10.0213 199.733 9.52C199.733 8.72 200.031 8.09067 200.629 7.632C201.237 7.17333 202.17 6.944 203.429 6.944H205.413C205.413 6.4 205.247 5.984 204.917 5.696C204.586 5.39733 204.09 5.248 203.429 5.248C202.97 5.248 202.517 5.32267 202.069 5.472C201.631 5.61067 201.258 5.80267 200.949 6.048L200.053 4.304C200.522 3.97333 201.082 3.71733 201.733 3.536C202.394 3.35467 203.071 3.264 203.765 3.264ZM203.573 10.448C203.999 10.448 204.378 10.352 204.709 10.16C205.039 9.95733 205.274 9.664 205.413 9.28V8.4H203.701C202.677 8.4 202.165 8.736 202.165 9.408C202.165 9.728 202.287 9.984 202.533 10.176C202.789 10.3573 203.135 10.448 203.573 10.448ZM221.192 3.264C222.269 3.264 223.122 3.584 223.752 4.224C224.392 4.85333 224.712 5.80267 224.712 7.072V12H222.216V7.456C222.216 6.77333 222.072 6.26667 221.784 5.936C221.506 5.59467 221.106 5.424 220.584 5.424C219.997 5.424 219.533 5.616 219.192 6C218.85 6.37333 218.68 6.93333 218.68 7.68V12H216.184V7.456C216.184 6.10133 215.64 5.424 214.552 5.424C213.976 5.424 213.517 5.616 213.176 6C212.834 6.37333 212.664 6.93333 212.664 7.68V12H210.168V3.392H212.552V4.384C212.872 4.02133 213.261 3.744 213.72 3.552C214.189 3.36 214.701 3.264 215.256 3.264C215.864 3.264 216.413 3.38667 216.904 3.632C217.394 3.86667 217.789 4.21333 218.088 4.672C218.44 4.224 218.882 3.87733 219.416 3.632C219.96 3.38667 220.552 3.264 221.192 3.264ZM230.421 3.264C231.754 3.264 232.778 3.584 233.493 4.224C234.208 4.85333 234.565 5.808 234.565 7.088V12H232.229V10.928C231.76 11.728 230.885 12.128 229.605 12.128C228.944 12.128 228.368 12.016 227.877 11.792C227.397 11.568 227.029 11.2587 226.773 10.864C226.517 10.4693 226.389 10.0213 226.389 9.52C226.389 8.72 226.688 8.09067 227.285 7.632C227.893 7.17333 228.826 6.944 230.085 6.944H232.069C232.069 6.4 231.904 5.984 231.573 5.696C231.242 5.39733 230.746 5.248 230.085 5.248C229.626 5.248 229.173 5.32267 228.725 5.472C228.288 5.61067 227.914 5.80267 227.605 6.048L226.709 4.304C227.178 3.97333 227.738 3.71733 228.389 3.536C229.05 3.35467 229.728 3.264 230.421 3.264ZM230.229 10.448C230.656 10.448 231.034 10.352 231.365 10.16C231.696 9.95733 231.93 9.664 232.069 9.28V8.4H230.357C229.333 8.4 228.821 8.736 228.821 9.408C228.821 9.728 228.944 9.984 229.189 10.176C229.445 10.3573 229.792 10.448 230.229 10.448Z"
    fill="#27B092" />
</svg>