<svg width="277" height="72" viewBox="0 0 277 72" fill="none" xmlns="http://www.w3.org/2000/svg">
  <path
    d="M59.536 59.192C60.688 59.96 61.424 60.92 61.744 62.072C62.064 62.968 62.064 63.832 61.744 64.664C61.424 65.496 60.976 66.232 60.4 66.872C59.76 67.768 58.896 68.408 57.808 68.792C56.784 69.176 55.728 69.368 54.64 69.368C53.36 69.368 52.208 69.176 51.184 68.792C49.968 68.28 48.816 67.672 47.728 66.968C46.704 66.264 45.808 65.368 45.04 64.28C43.504 62.488 42.288 60.536 41.392 58.424C40.56 56.248 39.888 54.04 39.376 51.8C38.928 49.816 38.544 47.832 38.224 45.848C37.904 43.864 37.488 41.912 36.976 39.992C36.784 39.416 36.528 38.776 36.208 38.072C35.952 37.304 35.6 36.664 35.152 36.152C34.768 35.576 34.288 35.192 33.712 35C33.2 34.808 32.592 34.936 31.888 35.384C31.568 37.624 31.12 39.864 30.544 42.104C30.032 44.28 29.296 46.36 28.336 48.344C27.376 50.328 26.16 52.152 24.688 53.816C23.28 55.48 21.552 56.856 19.504 57.944C18.352 58.584 17.104 59.064 15.76 59.384C14.416 59.768 13.04 59.96 11.632 59.96C9.968 59.96 8.368 59.672 6.832 59.096C5.296 58.584 3.92 57.688 2.704 56.408C1.808 55.512 1.136 54.488 0.688 53.336C0.24 52.184 0.0160002 51 0.0160002 49.784C0.0160002 48.376 0.304 46.936 0.88 45.464C1.264 44.632 1.744 43.8 2.32 42.968C2.96 42.136 3.664 41.4 4.432 40.76C5.2 40.056 6.032 39.544 6.928 39.224C7.824 38.904 8.752 38.872 9.712 39.128C10.352 39.256 10.928 39.576 11.44 40.088C11.952 40.6 12.272 41.176 12.4 41.816C12.464 42.328 12.4 42.872 12.208 43.448C12.016 43.96 11.76 44.504 11.44 45.08C11.12 45.592 10.832 46.136 10.576 46.712C10.32 47.224 10.192 47.736 10.192 48.248C10.192 48.568 10.704 48.824 11.728 49.016C12.816 49.144 14.064 48.792 15.472 47.96C16.944 47.064 18.416 45.464 19.888 43.16C21.36 40.856 22.512 37.432 23.344 32.888C23.664 31.48 23.92 29.816 24.112 27.896C24.304 25.912 24.4 23.8 24.4 21.56C24.4 19.448 24.304 17.368 24.112 15.32C23.984 14.104 23.696 13.24 23.248 12.728C22.864 12.216 22.384 11.96 21.808 11.96C21.232 11.96 20.592 12.184 19.888 12.632C19.248 13.016 18.64 13.56 18.064 14.264C17.488 14.968 16.976 15.768 16.528 16.664C16.08 17.56 15.76 18.488 15.568 19.448C15.44 20.088 15.184 20.568 14.8 20.888C14.48 21.144 14.064 21.272 13.552 21.272C12.528 21.272 11.472 20.792 10.384 19.832C9.36 18.808 8.848 17.528 8.848 15.992C8.848 15.544 8.88 15.096 8.944 14.648C9.072 14.136 9.296 13.624 9.616 13.112C10.704 11.256 11.856 9.72 13.072 8.504C14.352 7.224 15.92 6.136 17.776 5.24C19.44 4.408 21.04 3.992 22.576 3.992C24.432 3.992 26 4.6 27.28 5.816C28.624 6.968 29.68 8.44 30.448 10.232C31.28 12.024 31.856 14.008 32.176 16.184C32.56 18.296 32.752 20.344 32.752 22.328C32.752 23.864 32.656 25.208 32.464 26.36C33.296 24.12 34.416 21.88 35.824 19.64C37.232 17.4 38.832 15.352 40.624 13.496C42.48 11.576 44.496 9.944 46.672 8.6C48.848 7.256 51.088 6.328 53.392 5.816C55.248 5.368 56.624 5.624 57.52 6.584C58.416 7.544 58.864 8.568 58.864 9.656C58.864 10.424 58.672 11.096 58.288 11.672C57.904 12.248 57.328 12.6 56.56 12.728C54.704 13.048 53.04 13.816 51.568 15.032C50.16 16.184 48.816 17.56 47.536 19.16C46.32 20.76 45.072 22.424 43.792 24.152C42.576 25.88 41.2 27.416 39.664 28.76C41.584 29.784 43.088 31.192 44.176 32.984C45.328 34.712 46.256 36.632 46.96 38.744C47.664 40.792 48.272 42.904 48.784 45.08C49.296 47.256 49.904 49.304 50.608 51.224C51.312 53.08 52.24 54.68 53.392 56.024C54.544 57.368 56.112 58.264 58.096 58.712C58.352 58.776 58.576 58.84 58.768 58.904C59.024 58.968 59.28 59.064 59.536 59.192ZM84.5118 44.216C85.4078 44.088 86.2718 44.152 87.1038 44.408C87.9358 44.6 88.3838 45.176 88.4478 46.136C88.4478 47.48 88.1278 48.792 87.4878 50.072C86.8478 51.288 86.0478 52.44 85.0878 53.528C84.1278 54.552 83.0718 55.48 81.9198 56.312C80.7678 57.08 79.6478 57.656 78.5598 58.04C76.4478 58.872 74.3998 59.288 72.4158 59.288C70.2398 59.288 68.2558 58.84 66.4638 57.944C64.6718 56.984 63.1038 55.736 61.7598 54.2C60.4798 52.664 59.4878 50.904 58.7838 48.92C58.0798 46.936 57.7278 44.856 57.7278 42.68C57.7278 40.312 58.2078 37.912 59.1678 35.48C59.9358 33.624 60.9918 31.96 62.3358 30.488C63.7438 28.952 65.2798 27.64 66.9438 26.552C68.0318 25.848 69.2158 25.304 70.4958 24.92C71.8398 24.472 73.1838 24.248 74.5278 24.248C75.4238 24.248 76.2878 24.344 77.1198 24.536C78.0158 24.728 78.8478 25.08 79.6158 25.592C81.0238 26.488 82.0158 27.48 82.5918 28.568C83.2318 29.592 83.5518 30.68 83.5518 31.832C83.5518 32.92 83.2958 34.04 82.7838 35.192C82.3358 36.28 81.7598 37.336 81.0558 38.36C80.3518 39.384 79.5198 40.376 78.5598 41.336C77.6638 42.232 76.7998 43 75.9678 43.64C74.8798 44.472 73.7918 45.24 72.7038 45.944C71.6798 46.584 70.5278 47.16 69.2478 47.672C70.3358 48.76 71.3598 49.528 72.3198 49.976C73.2798 50.36 74.2078 50.552 75.1038 50.552C76.3198 50.552 77.4078 50.264 78.3678 49.688C79.3918 49.048 80.2878 48.344 81.0558 47.576C81.8238 46.808 82.4958 46.104 83.0718 45.464C83.6478 44.76 84.1278 44.344 84.5118 44.216ZM76.3518 33.08C75.2638 33.016 74.1758 33.272 73.0878 33.848C72.0638 34.36 71.1358 35.064 70.3038 35.96C69.4718 36.856 68.7678 37.912 68.1918 39.128C67.6798 40.28 67.4238 41.464 67.4238 42.68V42.776C67.4238 42.776 67.4558 42.744 67.5198 42.68C68.2878 42.104 69.1198 41.464 70.0157 40.76C70.9757 40.056 71.8718 39.32 72.7038 38.552C73.5358 37.72 74.2718 36.856 74.9118 35.96C75.6158 35.064 76.0958 34.104 76.3518 33.08ZM117.217 28.184C118.817 29.848 119.969 31.64 120.673 33.56C121.441 35.416 121.825 37.304 121.825 39.224C121.825 41.656 121.281 43.992 120.193 46.232C119.169 48.472 117.761 50.424 115.969 52.088C114.241 53.752 112.193 55.032 109.825 55.928C107.457 56.76 104.929 57.016 102.241 56.696C102.241 57.336 102.145 57.88 101.953 58.328C101.761 59.352 101.377 60.088 100.801 60.536C100.289 60.984 99.745 61.272 99.169 61.4C98.593 61.528 98.017 61.528 97.441 61.4C96.929 61.336 96.577 61.24 96.385 61.112C95.169 60.664 94.145 59.832 93.313 58.616C92.481 57.336 91.809 55.8 91.297 54.008C90.849 52.152 90.529 50.104 90.337 47.864C90.145 45.56 90.049 43.192 90.049 40.76C90.049 38.008 90.145 35.256 90.337 32.504C90.529 29.688 90.753 27.032 91.009 24.536C91.265 21.976 91.521 19.704 91.777 17.72C92.033 15.672 92.225 14.04 92.353 12.824C92.481 11.864 92.577 11.128 92.641 10.616C92.705 10.04 92.737 9.528 92.737 9.08C92.801 8.568 92.833 8.088 92.833 7.64C92.897 7.128 92.993 6.424 93.121 5.528C93.249 4.248 93.857 3.256 94.945 2.552C96.033 1.848 97.185 1.464 98.401 1.4C99.873 1.336 100.673 1.784 100.801 2.744C100.993 3.64 101.057 4.664 100.993 5.816C100.929 6.52 100.897 7.128 100.897 7.64C100.897 8.088 100.897 8.504 100.897 8.888C100.897 9.784 100.897 10.616 100.897 11.384C100.961 12.088 101.025 13.176 101.089 14.648C101.089 15.672 101.089 16.856 101.089 18.2C101.089 19.48 101.089 20.824 101.089 22.232C101.153 23.576 101.185 24.888 101.185 26.168C101.185 27.448 101.185 28.6 101.185 29.624C101.889 28.088 103.009 26.968 104.545 26.264C106.081 25.496 107.681 25.112 109.345 25.112C110.817 25.112 112.257 25.368 113.665 25.88C115.073 26.392 116.257 27.16 117.217 28.184ZM102.337 45.848C103.809 45.592 105.089 45.144 106.177 44.504C107.265 43.864 108.129 43.128 108.769 42.296C109.473 41.4 109.985 40.472 110.305 39.512C110.625 38.552 110.785 37.624 110.785 36.728C110.785 35.576 110.529 34.584 110.017 33.752C109.505 32.92 108.801 32.504 107.905 32.504C107.073 32.504 106.113 32.92 105.025 33.752C104.001 34.584 102.849 36.024 101.569 38.072L101.953 45.848H102.337ZM157.703 30.392C157.063 33.784 156.743 36.952 156.743 39.896C156.743 42.392 156.967 44.824 157.415 47.192C157.927 49.496 158.663 51.96 159.623 54.584C160.135 56.056 159.911 57.304 158.951 58.328C158.055 59.288 156.519 59.832 154.343 59.96C153.063 60.024 152.071 59.64 151.367 58.808C150.663 57.976 150.151 56.952 149.831 55.736C149.511 54.456 149.287 53.144 149.159 51.8C149.031 50.392 148.935 49.176 148.871 48.152C148.551 49.112 147.943 50.232 147.047 51.512C146.151 52.728 145.063 53.912 143.783 55.064C142.567 56.152 141.223 57.08 139.751 57.848C138.279 58.616 136.839 58.968 135.431 58.904C133.831 58.84 132.263 58.52 130.727 57.944C129.255 57.304 127.975 56.28 126.887 54.872C125.799 53.464 125.031 51.896 124.583 50.168C124.199 48.376 124.071 46.584 124.199 44.792C124.455 41.4 125.383 38.232 126.983 35.288C128.583 32.28 130.599 29.944 133.031 28.28C134.823 27.128 136.743 26.552 138.791 26.552C140.455 26.552 142.023 26.968 143.495 27.8C144.967 28.632 146.247 29.88 147.335 31.544C147.463 31.032 147.559 30.552 147.623 30.104C147.751 29.656 147.911 29.24 148.103 28.856C148.615 27.192 149.383 25.944 150.407 25.112C151.431 24.28 152.679 24.088 154.151 24.536C155.239 24.856 156.103 25.592 156.743 26.744C157.383 27.896 157.703 29.112 157.703 30.392ZM147.047 38.264C147.111 37.496 146.855 36.952 146.279 36.632C145.767 36.248 145.063 36.056 144.167 36.056C143.207 36.056 142.151 36.248 140.999 36.632C139.911 37.016 138.855 37.56 137.831 38.264C136.871 38.968 136.039 39.8 135.335 40.76C134.695 41.656 134.375 42.68 134.375 43.832C134.375 44.28 134.407 44.76 134.471 45.272C134.599 45.72 134.823 46.2 135.143 46.712C135.399 47.16 135.783 47.544 136.295 47.864C136.871 48.184 137.543 48.344 138.311 48.344C138.951 48.344 139.655 48.184 140.423 47.864C141.191 47.544 141.959 47 142.727 46.232C143.495 45.464 144.231 44.44 144.935 43.16C145.703 41.88 146.407 40.248 147.047 38.264ZM168.289 60.344C166.497 59.832 165.185 58.296 164.353 55.736C163.585 53.112 163.201 50.072 163.201 46.616C163.201 44.056 163.393 41.464 163.777 38.84C164.225 36.216 164.801 33.848 165.505 31.736C166.273 29.624 167.169 27.928 168.193 26.648C169.217 25.368 170.369 24.824 171.649 25.016C172.737 25.144 173.473 25.592 173.857 26.36C174.241 27.128 174.433 28.024 174.433 29.048C174.433 30.136 174.337 31.192 174.145 32.216C173.953 33.24 173.793 34.104 173.665 34.808C173.601 35.256 173.537 35.8 173.473 36.44C173.473 37.08 173.473 37.816 173.473 38.648C173.473 40.504 173.505 42.648 173.569 45.08C173.633 47.448 173.665 49.688 173.665 51.8C173.665 53.528 173.633 55.032 173.569 56.312C173.505 57.592 173.345 58.392 173.089 58.712C172.513 59.48 171.777 60.024 170.881 60.344C169.985 60.664 169.121 60.664 168.289 60.344ZM176.833 11.96C177.153 13.624 177.185 15.064 176.929 16.28C176.737 17.432 176.353 18.424 175.777 19.256C175.201 20.024 174.529 20.6 173.761 20.984C172.993 21.368 172.225 21.56 171.457 21.56C170.369 21.56 169.377 21.208 168.481 20.504C167.649 19.736 167.233 18.648 167.233 17.24C167.233 16.024 167.713 14.488 168.673 12.632C169.185 11.736 169.793 11.064 170.497 10.616C171.265 10.104 172.097 9.848 172.993 9.848C173.697 9.848 174.369 10.04 175.009 10.424C175.713 10.744 176.321 11.256 176.833 11.96ZM205.371 32.312C205.115 34.552 204.475 36.504 203.451 38.168C202.427 39.768 201.147 41.112 199.611 42.2L200.379 43.16C201.659 45.016 202.459 46.936 202.779 48.92C203.163 50.84 203.515 52.76 203.835 54.68C204.219 56.536 204.827 58.296 205.659 59.96C206.555 61.624 208.187 63.096 210.555 64.376C211.259 64.312 211.835 64.6 212.283 65.24C212.731 65.88 212.955 66.648 212.955 67.544C212.955 68.12 212.827 68.664 212.571 69.176C212.315 69.752 211.931 70.232 211.419 70.616C210.907 71 210.203 71.256 209.307 71.384C208.475 71.512 207.451 71.416 206.235 71.096C205.467 70.84 204.635 70.488 203.739 70.04C201.307 68.888 199.579 67.224 198.555 65.048C197.595 62.872 196.859 60.568 196.347 58.136C195.835 55.704 195.323 53.368 194.811 51.128C194.299 48.824 193.307 46.936 191.835 45.464C190.811 45.72 189.691 45.912 188.475 46.04C188.475 46.36 188.475 46.872 188.475 47.576C188.539 48.216 188.571 48.952 188.571 49.784C188.571 50.744 188.507 51.768 188.379 52.856C188.251 53.88 187.995 54.84 187.611 55.736C187.291 56.568 186.779 57.24 186.075 57.752C185.435 58.2 184.539 58.36 183.387 58.232C182.235 58.104 181.403 57.752 180.891 57.176C180.443 56.6 180.059 55.96 179.739 55.256C178.907 53.272 178.363 50.936 178.107 48.248C177.851 45.496 177.723 42.648 177.723 39.704C177.723 38.616 177.723 37.56 177.723 36.536C177.723 35.512 177.755 34.456 177.819 33.368C177.883 30.744 177.979 28.248 178.107 25.88C178.299 23.448 178.491 21.08 178.683 18.776C178.875 16.472 179.067 14.168 179.259 11.864C179.451 9.496 179.675 7 179.931 4.376C180.059 3.16 180.571 2.232 181.467 1.592C182.363 0.887997 183.355 0.535997 184.443 0.535997C185.275 0.535997 186.043 0.791998 186.747 1.304C187.451 1.752 187.867 2.488 187.995 3.512C188.123 4.792 188.219 6.104 188.283 7.448C188.347 8.728 188.379 10.04 188.379 11.384C188.379 13.752 188.315 16.184 188.187 18.68C188.123 21.176 188.091 23.832 188.091 26.648C188.475 26.2 188.891 25.784 189.339 25.4C190.619 24.12 191.963 23.16 193.371 22.52C194.843 21.88 196.283 21.56 197.691 21.56C198.843 21.56 199.931 21.784 200.955 22.232C201.979 22.68 202.843 23.352 203.547 24.248C204.315 25.144 204.859 26.264 205.179 27.608C205.499 28.952 205.563 30.52 205.371 32.312ZM191.163 35.48C192.891 35.672 194.299 35.416 195.387 34.712C196.475 34.008 197.211 33.24 197.595 32.408C198.043 31.512 198.203 30.68 198.075 29.912C197.947 29.144 197.563 28.76 196.923 28.76C196.283 28.76 195.451 29.24 194.427 30.2C193.403 31.16 192.155 32.888 190.683 35.384L190.587 35.48H191.163ZM241.234 30.392C240.594 33.784 240.274 36.952 240.274 39.896C240.274 42.392 240.498 44.824 240.946 47.192C241.458 49.496 242.194 51.96 243.154 54.584C243.666 56.056 243.442 57.304 242.482 58.328C241.586 59.288 240.05 59.832 237.874 59.96C236.594 60.024 235.602 59.64 234.898 58.808C234.194 57.976 233.682 56.952 233.362 55.736C233.042 54.456 232.818 53.144 232.69 51.8C232.562 50.392 232.466 49.176 232.402 48.152C232.082 49.112 231.474 50.232 230.578 51.512C229.682 52.728 228.594 53.912 227.314 55.064C226.098 56.152 224.754 57.08 223.282 57.848C221.81 58.616 220.37 58.968 218.962 58.904C217.362 58.84 215.794 58.52 214.258 57.944C212.786 57.304 211.506 56.28 210.418 54.872C209.33 53.464 208.562 51.896 208.114 50.168C207.73 48.376 207.602 46.584 207.73 44.792C207.986 41.4 208.914 38.232 210.514 35.288C212.114 32.28 214.13 29.944 216.562 28.28C218.354 27.128 220.274 26.552 222.322 26.552C223.986 26.552 225.554 26.968 227.026 27.8C228.498 28.632 229.778 29.88 230.866 31.544C230.994 31.032 231.09 30.552 231.154 30.104C231.282 29.656 231.442 29.24 231.634 28.856C232.146 27.192 232.914 25.944 233.938 25.112C234.962 24.28 236.21 24.088 237.682 24.536C238.77 24.856 239.634 25.592 240.274 26.744C240.914 27.896 241.234 29.112 241.234 30.392ZM230.578 38.264C230.642 37.496 230.386 36.952 229.81 36.632C229.298 36.248 228.594 36.056 227.698 36.056C226.738 36.056 225.682 36.248 224.53 36.632C223.442 37.016 222.386 37.56 221.362 38.264C220.402 38.968 219.57 39.8 218.866 40.76C218.226 41.656 217.906 42.68 217.906 43.832C217.906 44.28 217.938 44.76 218.002 45.272C218.13 45.72 218.354 46.2 218.674 46.712C218.93 47.16 219.314 47.544 219.826 47.864C220.402 48.184 221.074 48.344 221.842 48.344C222.482 48.344 223.186 48.184 223.954 47.864C224.722 47.544 225.49 47 226.258 46.232C227.026 45.464 227.762 44.44 228.466 43.16C229.234 41.88 229.938 40.248 230.578 38.264ZM275.532 53.816C275.916 54.904 276.108 55.896 276.108 56.792C276.108 58.776 275.5 60.44 274.284 61.784C273.068 63.128 271.788 63.8 270.444 63.8C269.484 63.8 268.62 63.384 267.852 62.552C267.084 61.656 266.604 60.888 266.412 60.248C266.284 59.608 266.124 58.712 265.932 57.56C265.548 54.936 265.324 52.184 265.26 49.304C265.26 46.36 265.228 43.576 265.164 40.952C265.036 38.712 264.844 37.24 264.588 36.536C264.332 35.832 263.948 35.64 263.436 35.96C262.54 36.6 261.772 37.848 261.132 39.704C260.556 41.496 260.044 43.512 259.596 45.752C259.212 47.928 258.892 50.104 258.636 52.28C258.38 54.392 258.124 56.056 257.868 57.272C257.676 57.912 257.324 58.488 256.812 59C256.364 59.448 255.852 59.8 255.276 60.056C254.572 60.376 253.932 60.504 253.356 60.44C252.78 60.376 252.14 60.184 251.436 59.864C250.668 59.48 250.028 58.968 249.516 58.328C249.004 57.624 248.556 56.856 248.172 56.024C247.852 55.192 247.596 54.328 247.404 53.432C247.212 52.536 247.052 51.704 246.924 50.936C246.604 49.464 246.348 47.96 246.156 46.424C246.028 44.888 245.964 43.384 245.964 41.912C245.9 38.84 245.996 35.928 246.252 33.176C246.572 30.36 247.148 27.48 247.98 24.536C248.172 23.96 248.588 23.512 249.228 23.192C249.932 22.808 250.668 22.616 251.436 22.616C252.14 22.616 252.78 22.776 253.356 23.096C253.932 23.416 254.284 23.96 254.412 24.728C254.732 26.392 254.86 28.216 254.796 30.2C254.796 32.184 254.86 34.04 254.988 35.768C255.5 33.464 256.108 31.608 256.812 30.2C257.516 28.728 258.284 27.608 259.116 26.84C260.012 26.008 261.004 25.464 262.092 25.208C263.244 24.888 264.492 24.696 265.836 24.632C267.692 24.632 269.196 25.144 270.348 26.168C271.564 27.192 272.492 28.472 273.132 30.008C273.836 31.48 274.348 33.112 274.668 34.904C274.988 36.632 275.244 38.232 275.436 39.704C275.564 40.408 275.628 41.08 275.628 41.72C275.628 42.36 275.628 43 275.628 43.64C275.628 44.92 275.596 46.136 275.532 47.288C275.468 48.376 275.436 49.56 275.436 50.84C275.436 51.352 275.436 51.864 275.436 52.376C275.436 52.824 275.468 53.304 275.532 53.816Z"
    fill="#1D55A0" />
</svg>