<svg width="406" height="63" viewBox="0 0 406 63" fill="none" xmlns="http://www.w3.org/2000/svg">
  <path
    d="M33.832 47.92C35.816 46 37.48 45.04 38.824 45.04C39.656 45.04 40.264 45.36 40.648 46C41.032 46.64 41.224 47.472 41.224 48.496C41.224 49.584 40.968 50.8 40.456 52.144C40.008 53.424 39.336 54.608 38.44 55.696C37.544 56.72 36.552 57.552 35.464 58.192C34.44 58.896 33.32 59.504 32.104 60.016C30.248 60.848 28.264 61.424 26.152 61.744C24.04 62.064 21.96 62.096 19.912 61.84C16.904 61.52 14.216 60.592 11.848 59.056C9.544 57.584 7.528 55.632 5.8 53.2C4.136 50.96 2.952 48.464 2.248 45.712C1.544 42.96 1.128 40.208 1 37.456C0.872 34.128 1.32 30.608 2.344 26.896C3.432 23.184 4.968 19.696 6.952 16.432C9 13.104 11.432 10.192 14.248 7.696C17.128 5.136 20.328 3.344 23.848 2.32C25.768 1.744 27.496 1.456 29.032 1.456C30.824 1.456 32.392 1.808 33.736 2.512C35.144 3.152 36.264 4.016 37.096 5.104C37.992 6.192 38.664 7.44 39.112 8.848C39.56 10.256 39.784 11.728 39.784 13.264C39.784 15.12 39.464 16.976 38.824 18.832C38.184 20.624 37.224 22.224 35.944 23.632C34.664 25.04 33.064 26.16 31.144 26.992C29.224 27.76 26.984 28.048 24.424 27.856C23.656 27.792 22.984 27.536 22.408 27.088C21.832 26.64 21.384 26.128 21.064 25.552C20.808 24.912 20.712 24.272 20.776 23.632C20.904 22.992 21.288 22.48 21.928 22.096C22.888 21.584 23.848 21.36 24.808 21.424C25.768 21.424 26.696 21.232 27.592 20.848C29.128 20.144 30.216 19.184 30.856 17.968C31.56 16.752 31.912 15.536 31.912 14.32C31.912 13.04 31.592 11.984 30.952 11.152C30.376 10.256 29.608 9.872 28.648 10C25.64 10.32 23.048 11.248 20.872 12.784C18.696 14.32 16.872 16.24 15.4 18.544C13.928 20.848 12.84 23.376 12.136 26.128C11.432 28.88 11.08 31.632 11.08 34.384C11.08 36.752 11.336 39.024 11.848 41.2C12.36 43.312 13.096 45.2 14.056 46.864C15.08 48.464 16.328 49.776 17.8 50.8C19.336 51.76 21.096 52.24 23.08 52.24C24.552 52.24 26.152 51.92 27.88 51.28C29.608 50.64 31.464 49.616 33.448 48.208L33.832 47.92ZM61.0255 22.288C62.6895 22.416 64.2255 22.896 65.6335 23.728C67.1055 24.56 68.4175 25.616 69.5695 26.896C70.7215 28.112 71.6495 29.52 72.3535 31.12C73.1215 32.72 73.6655 34.32 73.9855 35.92C74.2415 37.136 74.3695 38.448 74.3695 39.856C74.3695 42.544 73.8575 45.104 72.8335 47.536C71.8735 49.968 70.4015 52.112 68.4175 53.968C65.5375 56.592 62.4015 58.032 59.0095 58.288C57.2815 58.48 55.6175 58.256 54.0175 57.616C52.4175 56.976 50.9775 56.08 49.6975 54.928C47.4575 52.88 45.8575 50.256 44.8975 47.056C44.0015 43.792 43.7455 40.656 44.1295 37.648C44.3855 35.152 44.9615 32.912 45.8575 30.928C46.8175 28.944 48.0335 27.28 49.5055 25.936C50.9775 24.528 52.6735 23.504 54.5935 22.864C56.5775 22.224 58.7215 22.032 61.0255 22.288ZM58.5295 31.696C57.7615 31.696 56.9935 31.92 56.2255 32.368C55.5215 32.752 54.9135 33.36 54.4015 34.192C53.8895 35.024 53.5055 36.048 53.2495 37.264C53.0575 38.48 53.0895 39.856 53.3455 41.392C53.6655 43.184 54.0815 44.528 54.5935 45.424C55.1055 46.32 55.7135 46.928 56.4175 47.248C57.5695 47.76 58.7215 47.44 59.8735 46.288C61.0895 45.136 62.0495 43.632 62.7535 41.776C63.0735 40.88 63.2335 39.824 63.2335 38.608C63.2335 36.752 62.7535 35.152 61.7935 33.808C60.8975 32.464 59.8095 31.76 58.5295 31.696ZM120.12 35.92C120.184 37.456 120.216 38.928 120.216 40.336C120.28 41.68 120.344 43.024 120.408 44.368C120.536 45.648 120.696 46.992 120.888 48.4C121.144 49.744 121.528 51.184 122.04 52.72C122.488 54.192 122.36 55.632 121.656 57.04C121.016 58.384 120.088 59.376 118.872 60.016C117.592 60.592 116.312 60.624 115.032 60.112C113.752 59.664 112.76 58.768 112.056 57.424C111.16 55.632 110.52 53.744 110.136 51.76C109.752 49.712 109.56 47.664 109.56 45.616C109.56 44.912 109.56 44.24 109.56 43.6C109.624 42.96 109.688 42.32 109.752 41.68C110.008 38.224 110.168 35.824 110.232 34.48C110.36 33.072 110.104 32.304 109.464 32.176C108.568 31.984 107.8 32.528 107.16 33.808C106.584 35.088 106.04 36.688 105.528 38.608C105.016 40.464 104.504 42.448 103.992 44.56C103.544 46.608 103.032 48.336 102.456 49.744C102.008 50.896 101.24 51.696 100.152 52.144C99.0635 52.528 98.0075 52.592 96.9835 52.336C95.8955 52.016 95.0315 51.344 94.3915 50.32C93.7515 49.296 93.4315 48.208 93.4315 47.056C93.4955 44.816 93.6555 42.672 93.9115 40.624C94.2315 38.576 94.3915 36.848 94.3915 35.44C94.3915 34.864 94.3595 34.352 94.2955 33.904C94.2315 33.456 94.0715 33.072 93.8155 32.752C92.7275 31.344 91.8315 31.184 91.1275 32.272C90.4235 33.36 89.8155 35.12 89.3035 37.552C88.8555 39.984 88.5035 42.768 88.2475 45.904C87.9915 49.04 87.7995 51.952 87.6715 54.64C87.5435 55.92 86.9355 56.88 85.8475 57.52C84.7595 58.096 83.6715 58.32 82.5835 58.192C81.6235 58.128 80.8235 57.712 80.1835 56.944C79.5435 56.176 79.0315 55.152 78.6475 53.872C78.2635 52.592 77.9755 51.152 77.7835 49.552C77.6555 47.888 77.5915 46.16 77.5915 44.368C77.5915 42.448 77.6555 40.496 77.7835 38.512C77.9755 36.464 78.1675 34.544 78.3595 32.752C78.6155 30.96 78.8715 29.36 79.1275 27.952C79.4475 26.48 79.7355 25.328 79.9915 24.496C80.2475 23.664 80.6315 23.056 81.1435 22.672C81.6555 22.288 82.2315 22.096 82.8715 22.096C83.8955 22.096 84.8555 22.576 85.7515 23.536C86.6475 24.496 87.0955 26 87.0955 28.048C87.0955 28.496 87.0635 28.944 86.9995 29.392C86.9355 29.84 86.8395 30.32 86.7115 30.832C86.9675 30.064 87.3835 29.264 87.9595 28.432C88.5995 27.536 89.3355 26.736 90.1675 26.032C90.9995 25.264 91.8955 24.656 92.8555 24.208C93.8795 23.76 94.9035 23.536 95.9275 23.536C97.3355 23.536 98.6795 24.112 99.9595 25.264C101.24 26.416 102.232 28.464 102.936 31.408C103.768 29.04 105.08 26.992 106.872 25.264C108.664 23.536 110.904 22.832 113.592 23.152C115.064 23.408 116.248 24.112 117.144 25.264C118.104 26.416 118.808 27.728 119.256 29.2C119.576 30.288 119.768 31.408 119.832 32.56C119.96 33.648 120.056 34.768 120.12 35.92ZM168.682 35.92C168.746 37.456 168.778 38.928 168.778 40.336C168.842 41.68 168.906 43.024 168.97 44.368C169.098 45.648 169.258 46.992 169.45 48.4C169.706 49.744 170.09 51.184 170.602 52.72C171.05 54.192 170.922 55.632 170.218 57.04C169.578 58.384 168.65 59.376 167.434 60.016C166.154 60.592 164.874 60.624 163.594 60.112C162.314 59.664 161.322 58.768 160.618 57.424C159.722 55.632 159.082 53.744 158.698 51.76C158.314 49.712 158.122 47.664 158.122 45.616C158.122 44.912 158.122 44.24 158.122 43.6C158.186 42.96 158.25 42.32 158.314 41.68C158.57 38.224 158.73 35.824 158.794 34.48C158.922 33.072 158.666 32.304 158.026 32.176C157.13 31.984 156.362 32.528 155.722 33.808C155.146 35.088 154.602 36.688 154.09 38.608C153.578 40.464 153.066 42.448 152.554 44.56C152.106 46.608 151.594 48.336 151.018 49.744C150.57 50.896 149.802 51.696 148.714 52.144C147.626 52.528 146.57 52.592 145.546 52.336C144.458 52.016 143.594 51.344 142.954 50.32C142.314 49.296 141.994 48.208 141.994 47.056C142.058 44.816 142.218 42.672 142.474 40.624C142.794 38.576 142.954 36.848 142.954 35.44C142.954 34.864 142.922 34.352 142.858 33.904C142.794 33.456 142.634 33.072 142.378 32.752C141.29 31.344 140.394 31.184 139.69 32.272C138.986 33.36 138.378 35.12 137.866 37.552C137.418 39.984 137.066 42.768 136.81 45.904C136.554 49.04 136.362 51.952 136.234 54.64C136.106 55.92 135.498 56.88 134.41 57.52C133.322 58.096 132.234 58.32 131.146 58.192C130.186 58.128 129.386 57.712 128.746 56.944C128.106 56.176 127.594 55.152 127.21 53.872C126.826 52.592 126.538 51.152 126.346 49.552C126.218 47.888 126.154 46.16 126.154 44.368C126.154 42.448 126.218 40.496 126.346 38.512C126.538 36.464 126.73 34.544 126.922 32.752C127.178 30.96 127.434 29.36 127.69 27.952C128.01 26.48 128.298 25.328 128.554 24.496C128.81 23.664 129.194 23.056 129.706 22.672C130.218 22.288 130.794 22.096 131.434 22.096C132.458 22.096 133.418 22.576 134.314 23.536C135.21 24.496 135.658 26 135.658 28.048C135.658 28.496 135.626 28.944 135.562 29.392C135.498 29.84 135.402 30.32 135.274 30.832C135.53 30.064 135.946 29.264 136.522 28.432C137.162 27.536 137.898 26.736 138.73 26.032C139.562 25.264 140.458 24.656 141.418 24.208C142.442 23.76 143.466 23.536 144.49 23.536C145.898 23.536 147.242 24.112 148.522 25.264C149.802 26.416 150.794 28.464 151.498 31.408C152.33 29.04 153.642 26.992 155.434 25.264C157.226 23.536 159.466 22.832 162.154 23.152C163.626 23.408 164.81 24.112 165.706 25.264C166.666 26.416 167.37 27.728 167.818 29.2C168.138 30.288 168.33 31.408 168.394 32.56C168.522 33.648 168.618 34.768 168.682 35.92ZM202.365 34.48C202.429 36.976 202.493 39.632 202.557 42.448C202.621 45.264 202.909 48.016 203.421 50.704C203.549 51.472 203.741 52.176 203.997 52.816C204.253 53.456 204.477 54.096 204.669 54.736C204.861 55.376 204.989 56.016 205.053 56.656C205.117 57.296 205.021 58 204.765 58.768C204.573 59.344 204.221 59.856 203.709 60.304C203.261 60.752 202.717 61.072 202.077 61.264C201.437 61.456 200.765 61.52 200.061 61.456C199.357 61.456 198.749 61.264 198.237 60.88C197.405 60.304 196.765 59.44 196.317 58.288C195.869 57.136 195.549 55.856 195.357 54.448C195.165 53.04 195.037 51.6 194.973 50.128C194.973 48.592 194.973 47.184 194.973 45.904C194.077 49.936 192.733 52.848 190.941 54.64C189.149 56.368 187.325 57.232 185.469 57.232C183.229 57.232 181.181 56.112 179.325 53.872C177.725 51.888 176.669 49.68 176.157 47.248C175.645 44.752 175.389 42.256 175.389 39.76C175.517 37.328 175.837 34.928 176.349 32.56C176.925 30.192 177.469 27.824 177.98 25.456C178.173 24.56 178.685 23.92 179.517 23.536C180.349 23.088 181.149 22.992 181.917 23.248C182.877 23.44 183.517 23.92 183.837 24.688C184.221 25.456 184.349 26.288 184.221 27.184C184.029 28.592 183.901 29.904 183.837 31.12C183.773 32.336 183.741 33.488 183.741 34.576C183.741 38.224 184.125 40.912 184.893 42.64C185.661 44.304 186.589 45.136 187.677 45.136C189.085 45.136 190.429 43.76 191.709 41.008C192.989 38.256 193.629 34.32 193.629 29.2C193.629 28.688 193.629 28.176 193.629 27.664C193.629 27.088 193.597 26.512 193.533 25.936C193.469 24.72 193.853 23.728 194.685 22.96C195.581 22.192 196.637 21.776 197.853 21.712C199.005 21.648 199.965 22.064 200.733 22.96C201.565 23.856 202.013 24.848 202.077 25.936C202.077 27.408 202.109 28.848 202.173 30.256C202.237 31.664 202.301 33.072 202.365 34.48ZM237.47 52.816C237.854 53.904 238.046 54.896 238.046 55.792C238.046 57.776 237.438 59.44 236.222 60.784C235.006 62.128 233.726 62.8 232.382 62.8C231.422 62.8 230.558 62.384 229.79 61.552C229.022 60.656 228.542 59.888 228.35 59.248C228.222 58.608 228.062 57.712 227.87 56.56C227.486 53.936 227.262 51.184 227.198 48.304C227.198 45.36 227.166 42.576 227.102 39.952C226.974 37.712 226.782 36.24 226.526 35.536C226.27 34.832 225.886 34.64 225.374 34.96C224.478 35.6 223.71 36.848 223.07 38.704C222.494 40.496 221.982 42.512 221.534 44.752C221.15 46.928 220.83 49.104 220.574 51.28C220.318 53.392 220.062 55.056 219.806 56.272C219.614 56.912 219.262 57.488 218.75 58C218.302 58.448 217.79 58.8 217.214 59.056C216.51 59.376 215.87 59.504 215.294 59.44C214.718 59.376 214.078 59.184 213.374 58.864C212.606 58.48 211.966 57.968 211.454 57.328C210.942 56.624 210.494 55.856 210.11 55.024C209.79 54.192 209.534 53.328 209.342 52.432C209.15 51.536 208.99 50.704 208.862 49.936C208.542 48.464 208.286 46.96 208.094 45.424C207.966 43.888 207.902 42.384 207.902 40.912C207.838 37.84 207.934 34.928 208.19 32.176C208.51 29.36 209.086 26.48 209.918 23.536C210.11 22.96 210.526 22.512 211.166 22.192C211.87 21.808 212.606 21.616 213.374 21.616C214.078 21.616 214.718 21.776 215.294 22.096C215.87 22.416 216.222 22.96 216.35 23.728C216.67 25.392 216.798 27.216 216.734 29.2C216.734 31.184 216.798 33.04 216.926 34.768C217.438 32.464 218.046 30.608 218.75 29.2C219.454 27.728 220.222 26.608 221.054 25.84C221.95 25.008 222.942 24.464 224.03 24.208C225.182 23.888 226.43 23.696 227.774 23.632C229.63 23.632 231.134 24.144 232.286 25.168C233.502 26.192 234.43 27.472 235.07 29.008C235.774 30.48 236.286 32.112 236.606 33.904C236.926 35.632 237.182 37.232 237.374 38.704C237.502 39.408 237.566 40.08 237.566 40.72C237.566 41.36 237.566 42 237.566 42.64C237.566 43.92 237.534 45.136 237.47 46.288C237.406 47.376 237.374 48.56 237.374 49.84C237.374 50.352 237.374 50.864 237.374 51.376C237.374 51.824 237.406 52.304 237.47 52.816ZM248.352 59.344C246.56 58.832 245.248 57.296 244.416 54.736C243.648 52.112 243.264 49.072 243.264 45.616C243.264 43.056 243.456 40.464 243.84 37.84C244.288 35.216 244.864 32.848 245.568 30.736C246.336 28.624 247.232 26.928 248.256 25.648C249.28 24.368 250.432 23.824 251.712 24.016C252.8 24.144 253.536 24.592 253.92 25.36C254.304 26.128 254.496 27.024 254.496 28.048C254.496 29.136 254.4 30.192 254.208 31.216C254.016 32.24 253.856 33.104 253.728 33.808C253.664 34.256 253.6 34.8 253.536 35.44C253.536 36.08 253.536 36.816 253.536 37.648C253.536 39.504 253.568 41.648 253.632 44.08C253.696 46.448 253.728 48.688 253.728 50.8C253.728 52.528 253.696 54.032 253.632 55.312C253.568 56.592 253.408 57.392 253.152 57.712C252.576 58.48 251.84 59.024 250.944 59.344C250.048 59.664 249.184 59.664 248.352 59.344ZM256.896 10.96C257.216 12.624 257.248 14.064 256.992 15.28C256.8 16.432 256.416 17.424 255.84 18.256C255.264 19.024 254.592 19.6 253.824 19.984C253.056 20.368 252.288 20.56 251.52 20.56C250.432 20.56 249.44 20.208 248.544 19.504C247.712 18.736 247.296 17.648 247.296 16.24C247.296 15.024 247.776 13.488 248.736 11.632C249.248 10.736 249.856 10.064 250.56 9.616C251.328 9.104 252.16 8.848 253.056 8.848C253.76 8.848 254.432 9.04 255.072 9.424C255.776 9.744 256.384 10.256 256.896 10.96ZM278.714 52.624C279.354 53.392 279.578 54.288 279.386 55.312C279.258 56.4 278.746 57.328 277.85 58.096C276.954 58.928 275.898 59.408 274.682 59.536C273.722 59.664 272.73 59.536 271.706 59.152C270.746 58.832 269.914 58.384 269.21 57.808C267.93 56.848 266.97 55.728 266.33 54.448C265.754 53.168 265.21 51.824 264.698 50.416C263.098 44.912 262.362 39.312 262.49 33.616C261.914 33.616 261.37 33.616 260.858 33.616C260.346 33.616 259.834 33.552 259.322 33.424C258.874 33.296 258.49 33.072 258.17 32.752C257.85 32.368 257.594 31.792 257.402 31.024C257.21 30.256 257.242 29.552 257.498 28.912C257.69 28.272 258.202 27.856 259.034 27.664C259.61 27.536 260.058 27.44 260.378 27.376C260.698 27.248 260.986 27.152 261.242 27.088C261.498 26.96 261.754 26.864 262.01 26.8C262.33 26.736 262.746 26.64 263.258 26.512C263.258 26.256 263.354 26.064 263.546 25.936C263.93 23.76 264.346 21.712 264.794 19.792C265.242 17.872 265.754 15.984 266.33 14.128C266.906 12.272 267.514 10.416 268.154 8.56C268.794 6.704 269.498 4.752 270.266 2.704C270.65 1.616 271.386 0.911995 272.474 0.591995C273.626 0.207996 274.682 0.175997 275.642 0.495996C276.73 0.879995 277.466 1.584 277.85 2.608C278.298 3.632 278.362 4.592 278.042 5.488C277.466 7.344 276.954 9.072 276.506 10.672C276.122 12.208 275.738 13.744 275.354 15.28C275.034 16.816 274.714 18.384 274.394 19.984C274.074 21.584 273.786 23.312 273.53 25.168C274.042 25.168 274.522 25.168 274.97 25.168C275.482 25.104 275.994 25.072 276.506 25.072C277.402 25.072 278.202 25.168 278.906 25.36C279.674 25.488 280.314 25.808 280.826 26.32C281.21 26.704 281.466 27.152 281.594 27.664C281.722 28.112 281.754 28.592 281.69 29.104C281.69 29.552 281.626 29.968 281.498 30.352C281.37 30.672 281.21 30.864 281.018 30.928C279.994 31.888 278.746 32.496 277.274 32.752C275.802 33.008 274.33 33.168 272.858 33.232C272.858 33.552 272.858 33.872 272.858 34.192C272.858 34.448 272.826 34.736 272.762 35.056C272.762 35.248 272.762 35.472 272.762 35.728C272.826 35.92 272.826 36.144 272.762 36.4C272.762 36.464 272.762 36.592 272.762 36.784C272.762 36.976 272.794 37.136 272.858 37.264C272.922 38.544 273.018 39.92 273.146 41.392C273.338 42.864 273.626 44.304 274.01 45.712C274.458 47.056 275.034 48.336 275.738 49.552C276.506 50.768 277.498 51.792 278.714 52.624ZM287.914 59.344C286.122 58.832 284.81 57.296 283.978 54.736C283.21 52.112 282.826 49.072 282.826 45.616C282.826 43.056 283.018 40.464 283.402 37.84C283.85 35.216 284.426 32.848 285.13 30.736C285.898 28.624 286.794 26.928 287.818 25.648C288.842 24.368 289.994 23.824 291.274 24.016C292.362 24.144 293.098 24.592 293.482 25.36C293.866 26.128 294.058 27.024 294.058 28.048C294.058 29.136 293.962 30.192 293.77 31.216C293.578 32.24 293.418 33.104 293.29 33.808C293.226 34.256 293.162 34.8 293.098 35.44C293.098 36.08 293.098 36.816 293.098 37.648C293.098 39.504 293.13 41.648 293.194 44.08C293.258 46.448 293.29 48.688 293.29 50.8C293.29 52.528 293.258 54.032 293.194 55.312C293.13 56.592 292.97 57.392 292.714 57.712C292.138 58.48 291.402 59.024 290.506 59.344C289.61 59.664 288.746 59.664 287.914 59.344ZM296.458 10.96C296.778 12.624 296.81 14.064 296.554 15.28C296.362 16.432 295.978 17.424 295.402 18.256C294.826 19.024 294.154 19.6 293.386 19.984C292.618 20.368 291.85 20.56 291.082 20.56C289.994 20.56 289.002 20.208 288.106 19.504C287.274 18.736 286.858 17.648 286.858 16.24C286.858 15.024 287.338 13.488 288.298 11.632C288.81 10.736 289.418 10.064 290.122 9.616C290.89 9.104 291.722 8.848 292.618 8.848C293.322 8.848 293.994 9.04 294.634 9.424C295.338 9.744 295.946 10.256 296.458 10.96ZM339.588 35.92C339.652 37.456 339.684 38.928 339.684 40.336C339.748 41.68 339.812 43.024 339.876 44.368C340.004 45.648 340.164 46.992 340.356 48.4C340.612 49.744 340.996 51.184 341.508 52.72C341.956 54.192 341.828 55.632 341.124 57.04C340.484 58.384 339.556 59.376 338.34 60.016C337.06 60.592 335.78 60.624 334.5 60.112C333.22 59.664 332.228 58.768 331.524 57.424C330.628 55.632 329.988 53.744 329.604 51.76C329.22 49.712 329.028 47.664 329.028 45.616C329.028 44.912 329.028 44.24 329.028 43.6C329.092 42.96 329.156 42.32 329.22 41.68C329.476 38.224 329.636 35.824 329.7 34.48C329.828 33.072 329.572 32.304 328.932 32.176C328.036 31.984 327.268 32.528 326.628 33.808C326.052 35.088 325.508 36.688 324.996 38.608C324.484 40.464 323.972 42.448 323.46 44.56C323.012 46.608 322.5 48.336 321.924 49.744C321.476 50.896 320.708 51.696 319.62 52.144C318.532 52.528 317.476 52.592 316.452 52.336C315.364 52.016 314.5 51.344 313.86 50.32C313.22 49.296 312.9 48.208 312.9 47.056C312.964 44.816 313.124 42.672 313.38 40.624C313.7 38.576 313.86 36.848 313.86 35.44C313.86 34.864 313.828 34.352 313.764 33.904C313.7 33.456 313.54 33.072 313.284 32.752C312.196 31.344 311.3 31.184 310.596 32.272C309.892 33.36 309.284 35.12 308.772 37.552C308.324 39.984 307.972 42.768 307.716 45.904C307.46 49.04 307.268 51.952 307.14 54.64C307.012 55.92 306.404 56.88 305.316 57.52C304.228 58.096 303.14 58.32 302.052 58.192C301.092 58.128 300.292 57.712 299.652 56.944C299.012 56.176 298.5 55.152 298.116 53.872C297.732 52.592 297.444 51.152 297.252 49.552C297.124 47.888 297.06 46.16 297.06 44.368C297.06 42.448 297.124 40.496 297.252 38.512C297.444 36.464 297.636 34.544 297.828 32.752C298.084 30.96 298.34 29.36 298.596 27.952C298.916 26.48 299.204 25.328 299.46 24.496C299.716 23.664 300.1 23.056 300.612 22.672C301.124 22.288 301.7 22.096 302.34 22.096C303.364 22.096 304.324 22.576 305.22 23.536C306.116 24.496 306.564 26 306.564 28.048C306.564 28.496 306.532 28.944 306.468 29.392C306.404 29.84 306.308 30.32 306.18 30.832C306.436 30.064 306.852 29.264 307.428 28.432C308.068 27.536 308.804 26.736 309.636 26.032C310.468 25.264 311.364 24.656 312.324 24.208C313.348 23.76 314.372 23.536 315.396 23.536C316.804 23.536 318.148 24.112 319.428 25.264C320.708 26.416 321.7 28.464 322.404 31.408C323.236 29.04 324.548 26.992 326.34 25.264C328.132 23.536 330.372 22.832 333.06 23.152C334.532 23.408 335.716 24.112 336.612 25.264C337.572 26.416 338.276 27.728 338.724 29.2C339.044 30.288 339.236 31.408 339.3 32.56C339.428 33.648 339.524 34.768 339.588 35.92ZM372.887 43.216C373.783 43.088 374.647 43.152 375.479 43.408C376.311 43.6 376.759 44.176 376.823 45.136C376.823 46.48 376.503 47.792 375.863 49.072C375.223 50.288 374.423 51.44 373.463 52.528C372.503 53.552 371.447 54.48 370.295 55.312C369.143 56.08 368.023 56.656 366.935 57.04C364.823 57.872 362.775 58.288 360.791 58.288C358.615 58.288 356.631 57.84 354.839 56.944C353.047 55.984 351.479 54.736 350.135 53.2C348.855 51.664 347.863 49.904 347.159 47.92C346.455 45.936 346.103 43.856 346.103 41.68C346.103 39.312 346.583 36.912 347.543 34.48C348.311 32.624 349.367 30.96 350.711 29.488C352.119 27.952 353.655 26.64 355.319 25.552C356.407 24.848 357.591 24.304 358.871 23.92C360.215 23.472 361.559 23.248 362.903 23.248C363.799 23.248 364.663 23.344 365.495 23.536C366.391 23.728 367.223 24.08 367.991 24.592C369.399 25.488 370.391 26.48 370.967 27.568C371.607 28.592 371.927 29.68 371.927 30.832C371.927 31.92 371.671 33.04 371.159 34.192C370.711 35.28 370.135 36.336 369.431 37.36C368.727 38.384 367.895 39.376 366.935 40.336C366.039 41.232 365.175 42 364.343 42.64C363.255 43.472 362.167 44.24 361.079 44.944C360.055 45.584 358.903 46.16 357.623 46.672C358.711 47.76 359.735 48.528 360.695 48.976C361.655 49.36 362.583 49.552 363.479 49.552C364.695 49.552 365.783 49.264 366.743 48.688C367.767 48.048 368.663 47.344 369.431 46.576C370.199 45.808 370.871 45.104 371.447 44.464C372.023 43.76 372.503 43.344 372.887 43.216ZM364.727 32.08C363.639 32.016 362.551 32.272 361.463 32.848C360.439 33.36 359.511 34.064 358.679 34.96C357.847 35.856 357.143 36.912 356.567 38.128C356.055 39.28 355.799 40.464 355.799 41.68V41.776C355.799 41.776 355.831 41.744 355.895 41.68C356.663 41.104 357.495 40.464 358.391 39.76C359.351 39.056 360.247 38.32 361.079 37.552C361.911 36.72 362.647 35.856 363.287 34.96C363.991 34.064 364.471 33.104 364.727 32.08ZM400.216 27.856C399.256 28.24 398.584 28.72 398.2 29.296C397.816 29.872 397.624 30.512 397.624 31.216C397.624 32.304 397.976 33.488 398.68 34.768C399.384 36.048 400.152 37.36 400.984 38.704C401.88 40.048 402.68 41.424 403.384 42.832C404.152 44.24 404.6 45.552 404.728 46.768C404.92 48.944 404.568 50.928 403.672 52.72C402.84 54.512 401.688 56.08 400.216 57.424C398.808 58.704 397.176 59.696 395.32 60.4C393.528 61.104 391.704 61.456 389.848 61.456C387.928 61.456 386.104 61.04 384.376 60.208C382.712 59.376 381.368 58.064 380.344 56.272C379.64 54.992 379.192 53.648 379 52.24C378.872 50.768 378.936 49.296 379.192 47.824C379.512 46.352 380.216 45.04 381.304 43.888C382.456 42.672 383.576 42.064 384.664 42.064C385.368 42.064 385.976 42.384 386.488 43.024C387.064 43.664 387.416 44.816 387.544 46.48C387.864 47.952 388.472 49.232 389.368 50.32C390.264 51.344 391.224 51.856 392.248 51.856C392.952 51.856 393.592 51.6 394.168 51.088C394.808 50.512 395.32 49.584 395.704 48.304V48.208C395.704 46.736 395.256 45.264 394.36 43.792C393.464 42.32 392.472 40.816 391.384 39.28C390.296 37.744 389.304 36.208 388.408 34.672C387.512 33.072 387.064 31.408 387.064 29.68C387.064 28.464 387.352 27.216 387.928 25.936C388.568 24.656 389.624 23.344 391.096 22C392.376 20.912 393.848 20.112 395.512 19.6C397.176 19.088 398.808 19.12 400.408 19.696C402.072 20.336 403.256 21.296 403.96 22.576C404.664 23.792 404.824 25.328 404.44 27.184C404.312 27.76 404.056 28.176 403.672 28.432C403.352 28.688 402.968 28.848 402.52 28.912C402.136 28.976 401.72 28.912 401.272 28.72C400.824 28.528 400.472 28.24 400.216 27.856Z"
    fill="#1D55A0" />
</svg>