<svg width="92" height="34" viewBox="0 0 92 34" fill="none" xmlns="http://www.w3.org/2000/svg">
  <g clip-path="url(#clip0_559_851)">
    <path
      d="M29.4805 0H5.31033C2.37801 0 0 2.38253 0 5.31665V28.6867C0 31.5909 2.33011 33.9601 5.22821 34H29.4668C32.3991 34 34.784 31.6241 34.784 28.6867L34.7943 5.31665C34.7943 2.38253 32.4128 0 29.4839 0H29.4805ZM8.18447 31.2785L6.86373 31.2952C5.26927 31.2952 3.9759 30.0092 3.9759 28.4275L3.96906 28.2015V6.62256L3.9759 5.46286C4.04091 3.93432 5.22821 2.6982 6.78503 2.6982H9.46415C11.8969 2.6982 13.8609 4.76505 13.8609 7.1941C13.8609 8.40031 13.3785 9.49023 12.5983 10.2877L5.76198 17.0565L12.1741 23.4398C12.9952 24.2705 13.4914 25.3604 13.4914 26.5534C13.4914 29.1652 11.1236 31.2785 8.18447 31.2785ZM27.8929 31.2553H15.9378C15.9378 31.2553 17.3201 28.3378 17.3201 26.5301C17.3201 24.327 16.5708 22.3565 15.3869 21.0573L11.305 16.9934L15.4691 12.7899C16.7145 11.6401 17.5425 9.61982 17.5425 7.31704C17.5425 5.48945 17.0259 3.87451 16.191 2.6982H19.0891C21.5184 2.6982 23.4859 4.76505 23.4859 7.1941C23.4859 8.40031 23.0068 9.49023 22.2233 10.2877L15.5135 16.99L29.4429 30.8599C28.9981 31.129 28.4438 31.2553 27.8895 31.2553H27.8929ZM30.8081 26.9255L20.8273 16.99L25.5799 12.2682C26.5482 11.0852 27.1641 9.30414 27.1641 7.31704C27.1641 5.47615 26.6406 3.82467 25.7989 2.64836L27.9237 2.70485C29.5182 2.70485 30.8149 3.99081 30.8149 5.57252L30.8081 26.9255Z"
      fill="white" />
    <path
      d="M56.2169 15.405C56.4085 15.2123 56.6377 14.9664 56.9012 14.6706C57.1646 14.3716 57.4178 14.016 57.6574 13.6106C57.89 13.1986 58.0919 12.74 58.2596 12.2449C58.4272 11.7432 58.5093 11.2048 58.5093 10.63C58.5093 9.52013 58.3143 8.48006 57.9242 7.51641C57.5342 6.54945 56.9354 5.70543 56.1279 4.98436C55.3204 4.26661 54.3144 3.69839 53.0998 3.29632C51.8885 2.88428 50.4754 2.68158 48.8638 2.68158H38.2158V31.2187H49.9074C51.608 31.2187 53.0895 30.9961 54.3555 30.5475C55.6249 30.0989 56.6719 29.4808 57.5102 28.6966C58.3417 27.9091 58.9644 26.9887 59.3682 25.9386C59.7719 24.8985 59.9738 23.7787 59.9738 22.5758C59.9738 20.9775 59.5974 19.5453 58.8446 18.2993C58.0953 17.0465 57.2194 16.0829 56.2203 15.405H56.2169ZM51.0434 7.91184C51.4369 8.05805 51.7654 8.25077 52.022 8.49002C52.6892 9.11141 53.0211 9.85906 53.0211 10.723C53.0211 11.5072 52.8842 12.1519 52.6037 12.6736C52.3265 13.182 52.0493 13.5774 51.7722 13.8466H43.6493V7.5729H48.6996C49.6474 7.5729 50.4241 7.6892 51.0434 7.91184ZM50.2017 18.7877C51.673 18.7877 52.7645 19.1566 53.4762 19.9009C54.1434 20.6386 54.4787 21.4959 54.4787 22.4961C54.4787 23.4963 54.0955 24.4001 53.3324 25.1312C52.5729 25.8655 51.3171 26.2344 49.5721 26.2344H43.6493V18.7877H50.2017Z"
      fill="white" />
    <path
      d="M79.7954 18.9306C80.6747 18.3491 81.4001 17.6679 81.9886 16.8937C82.5737 16.1194 83.0048 15.2621 83.2786 14.3284C83.5591 13.388 83.6994 12.431 83.6994 11.4507C83.6994 10.1714 83.4839 8.99511 83.0493 7.92846C82.6182 6.85516 81.9749 5.93139 81.1093 5.15383C80.247 4.37959 79.1692 3.77482 77.8724 3.34285C76.5791 2.90422 75.0804 2.68823 73.3833 2.68823H61.8799V31.2187H67.4126V20.622H70.4989L78.1291 31.2187H84.6198L76.7262 20.2564C77.893 19.9574 78.9195 19.5154 79.7954 18.9306ZM73.4278 7.57623C73.7768 7.57623 74.1018 7.59949 74.4166 7.64269C75.4055 7.78557 76.2095 8.13116 76.8289 8.67944C77.674 9.42377 78.0983 10.3376 78.0983 11.4175C78.0983 11.9658 78.0059 12.4875 77.8245 13.0025C77.6432 13.5176 77.3626 13.9762 76.9726 14.3616C76.5893 14.7537 76.0864 15.076 75.4739 15.3153C74.8649 15.5579 74.1326 15.6808 73.2704 15.6808H67.4126V7.57291H73.4278V7.57623Z"
      fill="white" />
    <path
      d="M86.5696 2.68158V2.69155C86.5114 2.69155 86.4601 2.68158 86.4053 2.68158H86.3574V31.2187H91.9996V2.68158H86.573H86.5696Z"
      fill="white" />
  </g>
  <defs>
    <clipPath id="clip0_559_851">
      <rect width="92" height="34" fill="white" />
    </clipPath>
  </defs>
</svg>