<svg width="476" height="470" viewBox="0 0 476 470" fill="none" xmlns="http://www.w3.org/2000/svg">
  <path
    d="M429.717 383.379C419.215 417.402 408.185 442.2 408.185 442.2H92.2421C92.2421 442.2 59.3478 393.229 42.2982 341.915C25.2486 290.601 32.077 222.667 75.3331 188.054C93.1148 173.824 101.791 167.007 108.487 159.143C118.066 147.869 123.591 134.43 146.005 93.9014C159.508 69.5032 175.34 54.9289 190.176 46.2745C217.17 30.5095 240.797 34.3752 240.797 34.3752C295.223 35.2215 312.533 78.2894 344.814 113.749C368.99 140.308 404.83 161.185 427.784 201.263C435.481 214.697 441.726 230.292 445.596 248.987C453.97 289.423 442.22 342.923 429.717 383.379Z"
    fill="#212D55" />
  <path
    d="M429.717 383.379C419.215 417.402 408.185 442.2 408.185 442.2H92.2421C92.2421 442.2 59.3478 393.229 42.2982 341.915C25.2486 290.601 32.077 222.667 75.3331 188.054C93.1148 173.824 101.791 167.007 108.487 159.143C134.579 206.953 172.667 260.33 226.693 303.627C299.136 361.673 375.686 379.267 429.717 383.379Z"
    fill="#20396D" />
  <path
    d="M427.78 201.263C275.982 149.187 213.352 80.5987 190.172 46.2745C217.166 30.5095 240.793 34.3752 240.793 34.3752C295.219 35.2215 312.529 78.2894 344.81 113.749C368.99 140.308 404.83 161.185 427.78 201.263Z"
    fill="#20396D" />
  <path
    d="M362.532 120.719H284.989C284.989 120.719 289.157 105.239 300.17 101.433C311.183 97.6268 320.114 102.662 322.643 108.544C322.643 108.544 329.041 89.0404 346.755 89.0404C362.089 89.0404 369.228 99.7234 371.463 108.646C371.463 108.646 389.59 103.942 390.943 121.081L362.532 120.719Z"
    fill="url(#paint0_linear_829_397)" />
  <path
    d="M160.806 138.658H98.3125C98.3125 138.658 101.671 126.18 110.547 123.114C119.423 120.043 126.622 124.105 128.661 128.846C128.661 128.846 133.821 113.128 148.095 113.128C160.453 113.128 166.209 121.74 168.005 128.927C168.005 128.927 182.615 125.138 183.705 138.947L160.806 138.658Z"
    fill="url(#paint1_linear_829_397)" />
  <path
    d="M446.634 229.943H384.141C384.141 229.943 387.499 217.466 396.375 214.4C405.251 211.329 412.45 215.39 414.489 220.128C414.489 220.128 419.649 204.41 433.923 204.41C446.281 204.41 452.037 213.022 453.833 220.209C453.833 220.209 468.443 216.42 469.533 230.228L446.634 229.943Z"
    fill="url(#paint2_linear_829_397)" />
  <path
    d="M144.004 61.0018L149.943 58.8117L144.072 56.7193C142.935 56.3153 142.042 55.4222 141.637 54.2867L139.543 48.4221L137.538 54.2229C137.137 55.3754 136.239 56.2855 135.09 56.6938L129.143 58.8117L134.864 60.7849C136.005 61.1762 136.903 62.0608 137.32 63.192L139.538 69.2012L141.603 63.4174C142.007 62.2989 142.884 61.4144 144.004 61.0018Z"
    fill="#6586C4" />
  <path
    d="M360.416 74.0451L364.784 72.4376L360.467 70.898C359.633 70.6004 358.973 69.9454 358.679 69.1119L357.138 64.7996L355.665 69.0651C355.371 69.9114 354.711 70.5791 353.864 70.881L349.492 72.4376L353.698 73.8878C354.537 74.1769 355.201 74.8276 355.507 75.6569L357.138 80.0755L358.658 75.8228C358.947 74.9977 359.594 74.347 360.416 74.0451Z"
    fill="#6586C4" />
  <path
    d="M416.405 282.55L420.773 280.943L416.456 279.403C415.622 279.105 414.962 278.451 414.668 277.617L413.127 273.305L411.654 277.57C411.36 278.417 410.701 279.084 409.853 279.386L405.481 280.943L409.687 282.393C410.526 282.682 411.19 283.333 411.497 284.162L413.127 288.581L414.647 284.328C414.941 283.503 415.583 282.852 416.405 282.55Z"
    fill="#6586C4" />
  <path
    d="M351.83 155.039L357.134 153.083L351.889 151.216C350.876 150.855 350.076 150.059 349.714 149.043L347.845 143.803L346.053 148.983C345.695 150.013 344.895 150.825 343.865 151.191L338.552 153.083L343.665 154.848C344.682 155.201 345.487 155.988 345.861 156.996L347.841 162.363L349.684 157.2C350.05 156.2 350.833 155.409 351.83 155.039Z"
    fill="white" />
  <path
    d="M253.555 17.3896L258.859 15.4334L253.615 13.5664C252.602 13.2049 251.801 12.4054 251.439 11.3932L249.571 6.15381L247.778 11.3337C247.421 12.3629 246.616 13.1751 245.59 13.5409L240.277 15.4334L245.39 17.1983C246.408 17.5513 247.212 18.338 247.587 19.3459L249.566 24.7129L251.41 19.5501C251.776 18.5507 252.559 17.7596 253.555 17.3896Z"
    fill="#6586C4" />
  <path
    d="M71.3103 174.453L76.7466 172.45L71.3742 170.536C70.3355 170.166 69.5181 169.35 69.1435 168.308L67.2278 162.941L65.393 168.248C65.0269 169.303 64.2053 170.137 63.1538 170.511L57.709 172.45L62.9452 174.258C63.9882 174.619 64.814 175.427 65.1972 176.46L67.2278 181.959L69.1179 176.665C69.484 175.64 70.2886 174.832 71.3103 174.453Z"
    fill="#6586C4" />
  <path
    d="M324.129 55.8305C339.562 55.8305 352.072 43.3324 352.072 27.9152C352.072 12.4981 339.562 0 324.129 0C308.696 0 296.186 12.4981 296.186 27.9152C296.186 43.3324 308.696 55.8305 324.129 55.8305Z"
    fill="url(#paint3_linear_829_397)" />
  <path
    d="M336.773 205.175C319.74 145.879 263.262 148.235 241.248 93.9949C219.239 148.235 162.39 142.06 145.358 201.356C120.309 288.559 170.922 407.769 170.922 407.769H241.248H311.579C311.579 407.769 361.817 292.378 336.773 205.175Z"
    fill="url(#paint4_radial_829_397)" />
  <path
    d="M312 235.689C299.344 191.634 257.387 193.382 241.031 153.087C224.675 193.387 182.441 188.798 169.785 232.852C151.173 297.643 188.775 386.212 188.775 386.212H241.027H293.278C293.286 386.212 330.612 300.48 312 235.689Z"
    fill="url(#paint5_radial_829_397)" />
  <path
    d="M292.312 260.253C283.164 228.4 252.823 229.663 240.997 200.527C229.171 229.663 198.631 226.346 189.482 258.203C176.026 305.052 203.216 369.09 203.216 369.09H240.997H278.779C278.783 369.086 305.769 307.097 292.312 260.253Z"
    fill="url(#paint6_radial_829_397)" />
  <path
    d="M248.665 96.3892C241.913 96.3892 236.438 90.9201 236.438 84.1752C236.438 77.4303 241.913 71.9612 248.665 71.9612C252.385 71.9612 255.714 73.6283 257.958 76.2523C255.204 71.4594 250.031 68.2273 244.101 68.2273C235.28 68.2273 228.133 75.3677 228.133 84.1795C228.133 92.9912 235.28 100.132 244.101 100.132C250.031 100.132 255.204 96.8995 257.958 92.1066C255.719 94.7221 252.39 96.3892 248.665 96.3892Z"
    fill="#6586C4" />
  <path
    d="M246.706 76.8434L248.69 80.858L253.121 81.5002L249.911 84.626L250.669 89.0403L246.706 86.9565L242.738 89.0403L243.496 84.626L240.286 81.5002L244.722 80.858L246.706 76.8434Z"
    fill="#6586C4" />
  <path
    d="M185.745 420.255C185.745 420.255 116.482 172.786 75.6526 122.225C81.5358 121.43 87.4957 120.456 88.4153 119.665C90.3097 118.036 89.7222 112.682 89.7222 112.682C89.7222 112.682 91.1483 117.313 93.5663 118.419C95.9843 119.524 101.991 117.134 103.702 115.297C105.414 113.456 104.188 107.557 104.188 107.557C104.188 107.557 106.35 114.115 107.738 114.021C109.122 113.928 119.207 110.742 119.866 109.811C120.526 108.875 118.768 103.436 118.768 103.436C118.768 103.436 122.246 109.594 123.919 109.407C125.588 109.22 136.822 106.94 135.639 104.295C134.46 101.65 118.47 91.6091 98.3342 97.5885C92.3403 99.3661 86.8189 102.403 82.0084 105.788C82.2425 105.35 82.3872 105.005 82.4085 104.784C82.6512 102.301 78.5261 98.8303 78.5261 98.8303C78.5261 98.8303 82.7576 101.195 85.2735 100.323C87.7852 99.4512 90.4799 93.5824 90.4459 91.069C90.4118 88.5556 85.4438 85.1364 85.4438 85.1364C85.4438 85.1364 91.5442 88.3855 92.4808 87.3648C93.4173 86.3399 98.5045 77.0816 98.3385 75.9504C98.1725 74.8191 93.1321 72.0973 93.1321 72.0973C93.1321 72.0973 99.9051 74.1514 100.986 72.8628C102.063 71.5742 108.611 62.1756 105.929 61.0784C103.247 59.9812 84.7414 63.7534 74.3158 81.9723C68.3389 92.4171 66.8277 105.027 66.6233 113.894C58.5008 110.355 44.9633 105.784 31.7068 107.293C10.8259 109.675 0.0512586 125.168 0.000173739 128.064C-0.0509111 130.96 11.1792 128.659 12.7884 128.179C14.3976 127.698 15.1851 120.668 15.1851 120.668C15.1851 120.668 15.7002 126.363 16.6709 126.967C17.6457 127.566 28.1692 126.554 29.4804 126.099C30.7916 125.644 30.2126 118.763 30.2126 118.763C30.2126 118.763 31.3961 124.674 33.6906 125.695C35.9894 126.72 42.4474 126.567 44.2396 124.602C46.0319 122.637 45.5295 117.819 45.5295 117.819C45.5295 117.819 47.0919 122.973 49.4716 123.735C50.3656 124.02 54.0607 123.228 58.3305 122.136C51.6299 126.052 44.2992 131.526 39.0673 138.747C26.7473 155.745 30.932 174.143 33.0393 176.133C35.1465 178.123 41.017 168.291 41.7493 166.781C42.4815 165.271 37.8157 159.947 37.8157 159.947C37.8157 159.947 42.3708 163.409 43.4734 163.098C44.576 162.784 50.9232 154.338 51.4724 153.062C52.0216 151.786 46.5427 147.576 46.5427 147.576C46.5427 147.576 51.7065 150.689 54.0139 149.685C56.3169 148.681 60.5655 143.812 60.3229 141.167C60.0802 138.521 56.1807 135.642 56.1807 135.642C56.1807 135.642 61.0423 137.969 63.2091 136.723C64.2734 136.11 67.2108 130.726 69.9311 125.397C82.2893 161.801 147.261 356.362 146.005 420.264H185.745V420.255Z"
    fill="#212D55" />
  <path
    d="M193.39 333.362L151.573 401.645C151.573 401.645 150.819 400.25 149.402 397.979C145.966 392.506 138.619 381.908 128.491 373.492C125.486 370.995 122.237 368.695 118.781 366.768C107.436 360.457 97.3804 355.792 90.4116 348C87.9595 345.249 85.8863 342.115 84.2729 338.368C78.0874 324.028 51.6084 318.235 51.6084 318.235L94.1791 257.119C94.1791 257.119 104.924 259.84 114.473 265.267C118.989 267.84 123.246 271.012 125.967 274.802C134.459 286.595 137.989 297.703 150.228 300.488C152.084 300.905 153.94 301.326 155.792 301.773C161.053 303.036 166.256 304.541 171.151 307.127C175.855 309.606 180.3 313.072 184.246 318.261C193.731 330.692 193.394 333.341 193.39 333.362Z"
    fill="#9392C7" />
  <path
    d="M93.5705 255.43C92.8 255.043 91.906 255.124 91.1227 255.541C89.7519 254.588 87.8362 253.466 85.8652 252.955L84.7371 254.78C84.7371 254.78 87.253 255.817 89.4922 257.344C89.0069 258.463 89.0963 259.662 89.6582 260.508C89.0154 260.325 88.3173 260.423 87.6872 260.742C86.3037 259.738 84.1837 258.416 81.987 257.846L80.8589 259.67C80.8589 259.67 83.6941 260.844 86.027 262.528C85.5161 263.659 85.6013 264.884 86.1717 265.743C85.4948 265.552 84.7584 265.671 84.1028 266.037C82.7192 265.046 80.6588 263.783 78.5345 263.234L77.4064 265.059C77.4064 265.059 80.1863 266.207 82.5021 267.865C82.0423 268.971 82.136 270.149 82.6852 270.983C82.0083 270.791 81.2803 270.91 80.6247 271.268C79.2412 270.277 77.168 269.001 75.0267 268.444L73.8986 270.268C73.8986 270.268 76.6912 271.425 79.0156 273.088C78.5473 274.198 78.6409 275.38 79.1944 276.218C78.4707 276.014 77.6831 276.167 76.9977 276.588C75.6142 275.58 73.4729 274.228 71.2464 273.653L70.1183 275.478C70.1183 275.478 73.1025 276.711 75.4652 278.463C75.065 279.531 75.1757 280.649 75.7078 281.449C75.031 281.257 74.2987 281.377 73.6431 281.738C72.2596 280.734 70.1438 279.416 67.9557 278.85L66.8276 280.675C66.8276 280.675 69.7011 281.861 72.0382 283.562C71.5742 284.668 71.6679 285.85 72.2213 286.684C71.5061 286.484 70.7271 286.633 70.0417 287.041C68.7305 286.029 66.2827 284.349 63.7369 283.69L62.6088 285.514C62.6088 285.514 66.0783 286.948 68.4963 288.921C68.0919 289.988 68.2026 291.111 68.7347 291.915C68.2069 291.766 67.6407 291.813 67.1085 292.008C65.7803 290.992 63.3794 289.367 60.8847 288.721L59.7566 290.546C59.7566 290.546 62.8685 291.83 65.2567 293.646C65.2312 293.693 65.2014 293.731 65.1758 293.778C64.5798 294.956 64.6522 296.253 65.2482 297.154C64.6139 296.976 63.9285 297.069 63.307 297.375C61.966 296.359 59.6033 294.773 57.1427 294.135L56.0146 295.959C56.0146 295.959 59.2287 297.286 61.6297 299.149C61.1061 300.289 61.1912 301.522 61.7617 302.389C61.2721 302.253 60.7527 302.275 60.2547 302.432C58.9307 301.416 56.517 299.778 54.0053 299.128L52.8772 300.952C52.8772 300.952 55.9593 302.224 58.339 304.023C58.2922 304.099 58.2411 304.171 58.1985 304.252C57.6025 305.43 57.6749 306.727 58.2709 307.629C57.6706 307.459 57.0278 307.54 56.4318 307.808C55.0696 306.787 52.7792 305.281 50.4038 304.669L49.2757 306.493C49.2757 306.493 52.3195 307.748 54.6949 309.534C54.1245 310.699 54.2011 311.979 54.7886 312.868C54.1883 312.698 53.5455 312.779 52.9495 313.047C51.5915 312.026 49.2927 310.512 46.9045 309.896L45.7764 311.72C45.7764 311.72 48.8372 312.983 51.2126 314.774C50.4166 316.398 50.8636 318.261 52.2258 318.95C53.6009 319.643 55.3888 318.882 56.2147 317.244C56.8107 316.066 56.7383 314.769 56.1423 313.868C57.4407 314.233 58.9605 313.476 59.7012 312.009C60.2972 310.831 60.2249 309.534 59.6289 308.633C60.9273 308.998 62.4471 308.246 63.1878 306.774C63.7838 305.596 63.7114 304.299 63.1154 303.397C64.4138 303.763 65.9336 303.006 66.6743 301.539C67.2703 300.361 67.1979 299.064 66.602 298.162C67.9004 298.528 69.4201 297.775 70.1609 296.304C70.7569 295.126 70.6845 293.829 70.0885 292.927C71.3869 293.293 72.9067 292.54 73.6474 291.069C74.2434 289.891 74.171 288.593 73.575 287.692C74.8734 288.058 76.3932 287.305 77.1339 285.833C77.7299 284.655 77.6576 283.358 77.0616 282.457C78.36 282.822 79.8798 282.07 80.6205 280.598C81.2165 279.42 81.1441 278.123 80.5481 277.222C81.8465 277.587 83.3663 276.835 84.107 275.363C84.703 274.185 84.6306 272.888 84.0347 271.986C85.3331 272.352 86.8528 271.595 87.5936 270.128C88.1896 268.95 88.1172 267.653 87.5212 266.751C88.8196 267.117 90.3394 266.364 91.0801 264.893C91.6761 263.715 91.6037 262.418 91.0077 261.516C92.3061 261.882 93.8259 261.129 94.5666 259.658C95.3968 258.012 94.9498 256.124 93.5705 255.43Z"
    fill="#C7C5E4" />
  <path
    d="M104.166 269.422C107.529 270.732 110.365 272.331 112.795 274.13C109.875 288.423 104.503 310.427 95.3117 335.344C94.7753 334.234 94.2602 333.035 93.7408 331.742C89.1389 320.204 74.7969 316.398 74.7969 316.398L104.166 269.422Z"
    fill="#C7C5E4" />
  <path
    d="M168.912 319.184C165.975 334.443 161.654 355.09 156.396 374.653L151.547 382.414C146.298 373.411 140.373 366.827 134.489 361.984C141.318 347.75 148.699 328.782 153.327 311.831C155.945 312.626 158.763 313.557 161.879 314.939C164.404 316.058 166.762 317.542 168.912 319.184Z"
    fill="#C7C5E4" />
  <path
    d="M153.323 311.831C148.696 328.782 141.314 347.75 134.485 361.984C127.065 355.872 119.705 352.526 113.877 350.569C104.601 347.452 99.5391 344.126 95.3076 335.344C104.499 310.427 109.871 288.423 112.791 274.13C123.451 281.955 126.589 293.518 133.736 301.318C140.22 308.377 145.971 309.581 153.323 311.831Z"
    fill="#B0AFD8" />
  <path
    d="M113.881 350.569C119.705 352.525 127.069 355.872 134.489 361.984C132.412 366.317 130.381 370.217 128.496 373.487C125.49 370.991 122.242 368.69 118.785 366.764C107.44 360.453 97.3848 355.787 90.416 347.996C92.1657 343.718 93.7961 339.491 95.3116 335.344C99.5432 344.126 104.605 347.448 113.881 350.569Z"
    fill="#5E63AA" />
  <path
    d="M155.8 301.769C155.107 305.005 154.276 308.373 153.327 311.831C145.971 309.581 140.22 308.378 133.745 301.318C126.593 293.518 123.455 281.955 112.8 274.13C113.489 270.706 114.051 267.734 114.486 265.267C119.002 267.84 123.259 271.013 125.98 274.802C134.473 286.595 138.002 297.703 150.241 300.489C152.093 300.905 153.944 301.322 155.8 301.769Z"
    fill="#5E63AA" />
  <path
    d="M182.032 333.635L156.392 374.653C161.649 355.09 165.97 334.443 168.907 319.184C176.911 325.287 182.032 333.635 182.032 333.635Z"
    fill="#B0AFD8" />
  <path
    d="M193.391 333.362L151.573 401.645C151.573 401.645 150.82 400.25 149.402 397.979C151.871 390.698 154.213 382.767 156.397 374.657L182.037 333.639C182.037 333.639 176.912 325.291 168.912 319.192C169.785 314.637 170.547 310.555 171.16 307.131C175.864 309.611 180.309 313.077 184.255 318.265C193.731 330.692 193.395 333.341 193.391 333.362Z"
    fill="#5E63AA" />
  <path
    d="M194.582 338.368C196.868 339.895 198.81 341.906 198.81 341.906L200.053 339.988C198.81 338.27 197.026 336.888 195.608 335.961C195.689 335 195.413 334.085 194.753 333.503C193.574 332.457 191.654 332.856 190.466 334.396C189.397 335.778 189.295 337.607 190.142 338.725C189.078 338.538 187.848 339.044 186.996 340.15C185.928 341.532 185.826 343.361 186.673 344.479C185.609 344.292 184.378 344.798 183.527 345.904C182.458 347.286 182.356 349.115 183.203 350.233C182.139 350.046 180.913 350.552 180.057 351.658C178.989 353.04 178.887 354.869 179.734 355.987C178.67 355.8 177.443 356.306 176.588 357.412C175.519 358.794 175.417 360.623 176.264 361.741C175.2 361.554 173.97 362.06 173.118 363.166C172.05 364.548 171.948 366.377 172.795 367.495C171.73 367.308 170.5 367.814 169.649 368.92C168.58 370.302 168.478 372.131 169.325 373.249C168.261 373.062 167.031 373.568 166.179 374.674C165.111 376.056 165.009 377.885 165.856 379.003C164.791 378.816 163.561 379.322 162.71 380.428C161.641 381.81 161.539 383.639 162.386 384.757C161.322 384.57 160.096 385.076 159.24 386.182C158.172 387.564 158.07 389.393 158.917 390.511C157.852 390.324 156.622 390.83 155.771 391.936C154.702 393.318 154.6 395.147 155.447 396.265C154.383 396.078 153.157 396.584 152.301 397.69C151.113 399.229 151.109 401.326 152.288 402.372C153.459 403.41 155.349 403.023 156.537 401.517C159.117 403.061 161.479 405.511 161.479 405.511L162.723 403.593C161.22 401.517 158.921 399.927 157.448 399.042C157.465 398.336 157.286 397.669 156.895 397.15C157.946 397.333 159.155 396.839 160.007 395.763C162.582 397.307 164.932 399.748 164.932 399.748L166.175 397.83C164.677 395.763 162.39 394.177 160.918 393.288C160.935 392.582 160.756 391.915 160.364 391.4C161.428 391.587 162.659 391.081 163.51 389.975C163.57 389.899 163.617 389.818 163.668 389.737C166.26 391.281 168.636 393.748 168.636 393.748L169.879 391.83C168.295 389.648 165.839 388.002 164.383 387.147C164.336 386.586 164.149 386.067 163.834 385.646C164.855 385.825 166.03 385.357 166.877 384.336C169.534 385.871 172.02 388.444 172.02 388.444L173.263 386.526C171.713 384.387 169.325 382.767 167.861 381.899C167.903 381.151 167.72 380.436 167.307 379.892C168.372 380.079 169.602 379.573 170.453 378.467C170.487 378.425 170.513 378.374 170.543 378.331C173.152 379.871 175.553 382.367 175.553 382.367L176.796 380.449C175.221 378.28 172.786 376.639 171.326 375.784C171.296 375.171 171.117 374.597 170.773 374.142C171.722 374.308 172.803 373.921 173.629 373.049C176.4 374.555 179.078 377.332 179.078 377.332L180.321 375.414C178.716 373.202 176.209 371.535 174.762 370.693C174.876 369.839 174.706 369.005 174.242 368.393C175.23 368.567 176.354 368.133 177.197 367.189C179.683 368.737 181.901 371.034 181.901 371.034L183.144 369.116C181.764 367.21 179.717 365.718 178.252 364.799C178.329 363.995 178.15 363.221 177.712 362.639C178.657 362.804 179.734 362.417 180.564 361.55C183.11 363.098 185.413 365.488 185.413 365.488L186.656 363.57C185.255 361.639 183.169 360.125 181.701 359.215C181.82 358.352 181.654 357.51 181.185 356.889C182.173 357.063 183.305 356.629 184.144 355.677C186.588 357.225 188.75 359.462 188.75 359.462L189.993 357.544C188.644 355.685 186.656 354.21 185.2 353.291C185.272 352.491 185.098 351.717 184.659 351.139C185.647 351.313 186.771 350.884 187.609 349.94C190.044 351.484 192.194 353.708 192.194 353.708L193.437 351.79C192.096 349.94 190.125 348.477 188.674 347.554C188.75 346.746 188.576 345.972 188.133 345.385C189.146 345.564 190.313 345.104 191.155 344.101C193.625 345.649 195.817 347.92 195.817 347.92L197.06 346.002C195.677 344.092 193.625 342.595 192.156 341.681C192.207 340.92 192.02 340.188 191.602 339.635C192.599 339.784 193.74 339.342 194.582 338.368Z"
    fill="#C7C5E4" />
  <path
    d="M397.602 401.139C397.406 393.735 394.273 386.701 388.866 381.602L385.58 378.506L351.825 379.663L318.203 378.506L314.925 381.61C309.536 386.714 306.42 393.748 306.228 401.143H306.224V401.373C306.219 401.535 306.211 401.692 306.211 401.854V401.888H306.224V440.941H397.614V401.888V401.143H397.602V401.139Z"
    fill="#D69A31" />
  <path
    d="M367.346 247.142C369.185 245.317 371.625 242.153 371.633 238.211C371.672 227.881 357.5 221.23 353.864 218.363V216.245H354.954V213.876C356.734 213.128 357.985 211.38 357.985 209.335C357.985 206.617 355.78 204.41 353.055 204.41C350.322 204.41 348.117 206.613 348.117 209.335C348.117 211.384 349.369 213.132 351.148 213.876V216.245H352.089V218.44C348.3 221.344 334.38 227.966 334.418 238.207C334.427 241.898 336.555 244.896 338.335 246.772L318.194 272.561V375.461H385.988V272.561L367.346 247.142ZM350.105 209.335C350.105 207.701 351.429 206.383 353.06 206.383C354.682 206.383 356.006 207.706 356.006 209.335C356.006 210.955 354.686 212.277 353.06 212.277C351.429 212.277 350.105 210.955 350.105 209.335Z"
    fill="url(#paint7_linear_829_397)" />
  <path
    d="M361.101 295.058C361.421 288.492 356.253 289.444 356.253 289.444C356.253 289.444 356.329 285.153 356.253 281.181C356.18 277.604 352.83 274.81 352.161 274.287V274.189C352.161 274.189 352.136 274.206 352.098 274.236C352.059 274.206 352.034 274.189 352.034 274.189V274.287C351.365 274.81 348.015 277.604 347.943 281.181C347.866 285.153 347.943 289.444 347.943 289.444C347.943 289.444 342.775 288.492 343.094 295.058C339.931 295.058 337.368 297.618 337.368 300.778V310.504V325.244V334.97C337.368 338.13 339.931 340.69 343.094 340.69C342.775 347.256 347.943 346.304 347.943 346.304C347.943 346.304 347.866 350.595 347.943 354.567C348.015 358.144 351.365 360.938 352.034 361.461V361.559C352.034 361.559 352.059 361.542 352.098 361.512C352.136 361.542 352.161 361.559 352.161 361.559V361.461C352.83 360.938 356.18 358.144 356.253 354.567C356.329 350.595 356.253 346.304 356.253 346.304C356.253 346.304 361.421 347.256 361.101 340.69C364.264 340.69 366.827 338.13 366.827 334.97V325.244V310.504V300.778C366.827 297.618 364.264 295.058 361.101 295.058Z"
    fill="white" />
  <path
    d="M331.357 300.778V334.966C331.357 338.121 328.79 340.686 325.631 340.686C325.942 347.248 320.783 346.299 320.783 346.299C320.783 346.299 320.859 350.59 320.783 354.563C320.736 356.825 319.373 358.777 318.207 360.04V275.708C319.373 276.962 320.736 278.91 320.783 281.185C320.859 285.157 320.783 289.448 320.783 289.448C320.783 289.448 325.942 288.487 325.631 295.062C328.79 295.058 331.357 297.614 331.357 300.778Z"
    fill="white" />
  <path
    d="M386.002 274.24V361.499C385.963 361.529 385.933 361.546 385.933 361.546V361.448C385.274 360.925 381.919 358.126 381.851 354.554C381.762 350.582 381.851 346.291 381.851 346.291C381.851 346.291 376.679 347.244 377.002 340.677C373.835 340.677 371.276 338.113 371.276 334.957V300.769C371.276 297.605 373.831 295.049 377.002 295.049C376.683 288.474 381.851 289.436 381.851 289.436C381.851 289.436 381.762 285.145 381.851 281.172C381.919 277.592 385.274 274.802 385.933 274.279V274.181C385.933 274.194 385.959 274.215 386.002 274.24Z"
    fill="white" />
  <path
    d="M386.001 272.561C386.001 272.561 376.273 274.891 370.654 269.996C370.654 269.996 359.854 272.863 351.178 272.161V272.169C342.672 272.973 334.043 270.158 333.575 270.005C333.567 270.005 333.567 269.996 333.554 269.996C327.934 274.891 318.207 272.561 318.207 272.561L338.347 246.772L344.286 246.878L351.263 247.006V246.997L361.655 247.095L367.351 247.142L386.001 272.561Z"
    fill="#E7B140" />
  <path
    d="M370.654 270C370.654 270 359.854 272.867 351.178 272.165V272.174C342.672 272.977 334.043 270.162 333.575 270.009C333.566 270.009 333.566 270 333.554 270L344.286 246.882H361.565L361.655 247.095L370.654 270Z"
    fill="#D69A31" />
  <path d="M390.152 374.185H313.508V382.827H390.152V374.185Z" fill="#E7B140" />
  <path
    d="M243.803 470C348.549 470 433.464 462.081 433.464 452.313C433.464 442.544 348.549 434.625 243.803 434.625C139.056 434.625 54.1416 442.544 54.1416 452.313C54.1416 462.081 139.056 470 243.803 470Z"
    fill="url(#paint8_linear_829_397)" />
  <path
    d="M13.4315 327.273C13.4315 327.273 12.1501 335.591 16.6285 341C21.107 346.406 12.1969 352.853 14.9427 361.384C17.6928 369.911 23.8741 367.831 23.8741 374.695C23.8741 381.559 18.3314 387.173 25.5811 396.116C32.8309 405.06 40.2936 401.318 41.5707 408.803C42.8521 416.292 38.7993 425.439 47.9691 431.887C57.1388 438.334 69.7184 441.659 95.5163 442.076C95.5163 442.076 106.389 414.833 104.473 401.522C102.553 388.211 91.0421 388.211 90.8293 383.843C90.6164 379.475 91.0421 367.827 85.4994 362.213C79.9567 356.6 70.3613 359.092 68.867 354.52C67.3728 349.944 66.1553 341.417 58.9821 337.466C51.809 333.516 43.282 336.012 40.5107 332.265C37.7393 328.523 30.0851 319.626 20.0427 319.579C12.8738 319.541 13.4315 327.273 13.4315 327.273Z"
    fill="url(#paint9_linear_829_397)" />
  <path d="M23.9854 329.246C23.9854 329.246 83.1544 405.779 93.7076 440.201" stroke="white" stroke-width="0.5"
    stroke-miterlimit="10" stroke-linecap="round" stroke-linejoin="round" />
  <path d="M22.0693 359.194L46.5603 359.9" stroke="white" stroke-width="0.5" stroke-miterlimit="10"
    stroke-linecap="round" stroke-linejoin="round" />
  <path d="M69.4036 361.69L61.5322 381.623" stroke="white" stroke-width="0.5" stroke-miterlimit="10"
    stroke-linecap="round" stroke-linejoin="round" />
  <path d="M47.6543 407.705L77.6326 407.106" stroke="white" stroke-width="0.5" stroke-miterlimit="10"
    stroke-linecap="round" stroke-linejoin="round" />
  <path d="M94.6697 397.409L84.0312 418.435" stroke="white" stroke-width="0.5" stroke-miterlimit="10"
    stroke-linecap="round" stroke-linejoin="round" />
  <path
    d="M74.436 441.991C72.1117 420.238 51.1797 398.217 50.9668 397.996L52.6483 396.38C53.5338 397.303 74.3424 419.188 76.7519 441.74L74.436 441.991Z"
    fill="#007080" />
  <path
    d="M58.5569 393.356C62.4904 390.09 64.0911 386.441 60.6641 384.626C57.9013 383.163 54.4701 386.42 51.9584 389.61C51.0261 383.09 48.0292 378.438 44.3808 381.181C41.6521 383.231 43.6869 388.389 45.7176 392.144C39.8088 389.223 34.2788 389.061 34.4789 393.62C34.6024 396.457 38.3784 397.796 42.0905 398.426C38.1315 401.658 36.4968 405.294 39.9067 407.135C42.644 408.62 46.0879 405.417 48.6251 402.262C49.4042 408.301 52.0649 412.502 55.6536 410.074C58.3142 408.279 56.9051 403.521 55.1981 399.761C61.0473 402.53 66.4452 402.594 66.2111 398.09C66.0621 395.262 62.2733 393.956 58.5569 393.356Z"
    fill="url(#paint10_linear_829_397)" />
  <path
    d="M54.2147 395.763C54.121 397.894 52.316 399.54 50.1875 399.446C48.0547 399.353 46.4072 397.55 46.5009 395.423C46.5945 393.293 48.3995 391.647 50.5281 391.74C52.6566 391.834 54.3083 393.637 54.2147 395.763Z"
    fill="white" />
  <path
    d="M114.958 432.975C114.958 432.975 108.798 426.396 108.032 416.938C107.265 407.48 116.465 400.841 114.937 393.378C113.408 385.914 107.721 386.216 108.887 375.758C110.054 365.301 116.955 365.803 117.308 358.688C117.661 351.573 113.54 352.168 114.83 343.476C116.116 334.787 123.57 329.182 124.92 329.237C126.269 329.293 120.126 339.993 123.136 343.85C126.146 347.707 130.654 348.545 129.292 355.86C127.929 363.179 122.774 366.879 127.738 373.623C132.701 380.368 136.214 382.376 132.174 393.663C128.134 404.945 128.134 411.214 132.957 415.573C137.78 419.932 139.24 430.879 136.371 440.052C133.502 449.225 118.01 437.241 114.958 432.975Z"
    fill="url(#paint11_linear_829_397)" />
  <path
    d="M119.633 339.903C119.633 339.903 117.743 345.377 123.132 349.285C127.249 352.27 124.707 357.535 121.915 364.199C119.122 370.864 119.139 374.942 124.486 379.62C129.833 384.298 128.13 392.136 124.494 399.808C120.859 407.48 119.458 411.877 124.035 417.58C128.611 423.283 133.494 432.533 132.498 438.946"
    stroke="white" stroke-width="0.5" stroke-miterlimit="10" stroke-linecap="round" stroke-linejoin="round" />
  <path
    d="M121.82 404.822C116.461 402.538 112.14 406.919 109.943 409.912C109.611 406.498 109.185 403.214 108.687 400.067C110.267 399.965 116.946 399.378 119.334 396.648C122.05 393.544 120.773 390.932 120.773 390.932C113.732 388.908 109.611 397.133 108.594 399.476C107.81 394.649 106.852 390.167 105.797 386.012C107.938 385.574 113.587 384.196 115.46 381.457C117.789 378.055 116.214 375.61 116.214 375.61C109.73 374.551 106.554 381.398 105.435 384.587C104.588 381.368 103.685 378.365 102.761 375.588C104.877 375.159 110.577 373.777 112.463 371.025C114.792 367.623 113.217 365.178 113.217 365.178C106.563 364.093 103.391 371.323 102.357 374.398C101.076 370.651 99.7771 367.338 98.5426 364.48C100.646 363.732 105.958 361.597 107.419 358.658C109.253 354.967 107.355 352.764 107.355 352.764C100.82 352.615 98.6107 359.751 97.9338 363.094C97.2399 361.537 96.5758 360.146 95.9585 358.892C96.3417 355.664 96.7461 348.94 94.0641 345.47C90.4542 340.801 86.278 340.737 86.278 340.737C81.9443 349.149 90.0199 356.54 93.847 359.424C94.5878 360.903 95.4051 362.617 96.2608 364.569C94.0556 363.243 89.7432 360.976 86.8356 361.571C82.7957 362.405 82.2295 365.254 82.2295 365.254C86.4653 370.919 94.3153 367.321 96.8525 365.939C97.9934 368.622 99.1897 371.706 100.365 375.15C98.2999 373.509 94.5196 370.881 91.6717 371.063C87.5551 371.331 86.6015 374.074 86.6015 374.074C89.9816 380.22 98.1424 377.834 100.918 376.8C101.821 379.552 102.697 382.525 103.523 385.71C101.505 384.085 97.5975 381.3 94.6644 381.491C90.5478 381.759 89.5942 384.502 89.5942 384.502C92.9743 390.639 101.118 388.266 103.902 387.232C104.796 390.839 105.614 394.696 106.312 398.808C104.379 396.937 101.28 394.369 98.6745 394.228C94.5537 394.007 93.2851 396.623 93.2851 396.623C95.7797 402.781 103.438 401.841 106.686 401.13C107.138 404.061 107.521 407.114 107.827 410.278C106.133 408.318 103.753 406.047 101.514 405.647C97.4528 404.924 95.8691 407.365 95.8691 407.365C97.5081 413.472 104.571 413.77 108.104 413.519C108.725 421.599 108.819 430.368 108.112 439.805L110.241 439.963C110.982 430.062 110.854 420.876 110.16 412.447C112.765 412.477 117.508 412.247 119.679 410.304C122.77 407.569 121.82 404.822 121.82 404.822Z"
    fill="url(#paint12_linear_829_397)" />
  <path
    d="M75.4015 446.869H160.419C160.419 446.869 154.128 435.761 146.005 433.826C137.883 431.891 135.384 440.005 127.678 438.963C119.973 437.921 117.891 429.39 107.061 429.807C96.2314 430.224 97.0657 440.209 88.7347 439.376C80.4036 438.542 70.6166 433.966 64.3672 446.865H75.4015V446.869Z"
    fill="#007080" />
  <path
    d="M423.153 376.188C419.616 350.144 437.704 318.452 437.887 318.137L435.461 316.738C434.694 318.069 416.712 349.565 420.382 376.566L423.153 376.188Z"
    fill="#0098B8" />
  <path
    d="M427.7 314.901C422.175 312.218 419.259 308.424 422.732 305.324C425.534 302.823 430.476 305.639 434.324 308.641C433.537 300.765 435.695 294.484 440.744 296.636C444.516 298.243 443.626 304.848 442.336 309.806C448.39 304.707 454.792 302.93 455.869 308.305C456.542 311.652 452.519 314.293 448.373 316.096C453.924 318.733 456.87 322.501 453.426 325.631C450.659 328.144 445.721 325.401 441.855 322.446C442.685 329.714 440.787 335.378 435.899 333.579C432.281 332.248 432.558 326.294 433.464 321.416C427.436 326.324 421.162 327.944 420.14 322.628C419.493 319.273 423.537 316.666 427.7 314.901Z"
    fill="url(#paint13_linear_829_397)" />
  <path
    d="M433.459 316.466C434.183 318.924 436.759 320.328 439.219 319.609C441.68 318.886 443.085 316.313 442.365 313.855C441.641 311.397 439.066 309.994 436.605 310.712C434.145 311.431 432.736 314.008 433.459 316.466Z"
    fill="white" />
  <path
    d="M369.591 432.975C369.591 432.975 375.751 426.396 376.518 416.938C377.284 407.48 368.084 400.841 369.613 393.378C371.141 385.914 376.828 386.216 375.662 375.758C374.495 365.301 367.595 365.803 367.241 358.688C366.888 351.573 371.009 352.168 369.719 343.476C368.433 334.787 360.979 329.182 359.63 329.237C358.28 329.293 364.423 339.993 361.413 343.85C358.404 347.707 353.896 348.545 355.258 355.86C356.62 363.179 361.775 366.879 356.812 373.623C351.848 380.368 348.336 382.376 352.376 393.663C356.416 404.945 356.416 411.214 351.592 415.573C346.769 419.932 345.309 430.879 348.178 440.052C351.048 449.225 366.539 437.241 369.591 432.975Z"
    fill="url(#paint14_linear_829_397)" />
  <path
    d="M364.917 339.903C364.917 339.903 366.808 345.377 361.418 349.285C357.301 352.27 359.843 357.535 362.636 364.199C365.428 370.864 365.411 374.942 360.064 379.62C354.717 384.298 356.42 392.136 360.056 399.808C363.691 407.48 365.092 411.877 360.516 417.58C355.939 423.283 351.056 432.533 352.053 438.946"
    stroke="white" stroke-width="0.5" stroke-miterlimit="10" stroke-linecap="round" stroke-linejoin="round" />
  <path
    d="M370.183 397.277C376.858 394.437 382.247 399.812 384.993 403.499C385.402 399.285 385.921 395.228 386.538 391.349C384.572 391.23 376.245 390.537 373.265 387.181C369.876 383.367 371.46 380.139 371.46 380.139C380.229 377.604 385.38 387.73 386.649 390.618C387.62 384.659 388.803 379.122 390.106 373.989C387.437 373.462 380.395 371.786 378.054 368.418C375.142 364.233 377.105 361.21 377.105 361.21C385.18 359.87 389.152 368.299 390.549 372.233C391.6 368.256 392.72 364.548 393.861 361.116C391.221 360.597 384.116 358.922 381.766 355.536C378.854 351.352 380.817 348.328 380.817 348.328C389.101 346.954 393.069 355.86 394.367 359.649C395.955 355.022 397.568 350.926 399.101 347.392C396.479 346.478 389.859 343.875 388.028 340.252C385.734 335.706 388.097 332.98 388.097 332.98C396.236 332.763 399.003 341.558 399.85 345.674C400.714 343.748 401.536 342.03 402.307 340.482C401.821 336.501 401.306 328.208 404.639 323.913C409.126 318.133 414.329 318.035 414.329 318.035C419.744 328.391 409.697 337.551 404.937 341.124C404.014 342.952 403.005 345.07 401.936 347.486C404.682 345.836 410.05 343.016 413.673 343.739C418.709 344.747 419.416 348.26 419.416 348.26C414.15 355.273 404.363 350.871 401.2 349.178C399.782 352.496 398.301 356.302 396.841 360.563C399.408 358.526 404.112 355.264 407.662 355.477C412.792 355.783 413.984 359.168 413.984 359.168C409.782 366.764 399.612 363.863 396.151 362.605C395.036 366.007 393.941 369.673 392.92 373.611C395.431 371.595 400.297 368.142 403.946 368.359C409.075 368.665 410.267 372.05 410.267 372.05C406.07 379.637 395.917 376.753 392.447 375.49C391.34 379.943 390.327 384.706 389.467 389.788C391.868 387.47 395.725 384.285 398.973 384.102C404.107 383.809 405.695 387.028 405.695 387.028C402.6 394.636 393.056 393.518 389.007 392.659C388.45 396.278 387.977 400.042 387.603 403.954C389.71 401.526 392.673 398.711 395.457 398.209C400.519 397.299 402.494 400.297 402.494 400.297C400.463 407.837 391.664 408.241 387.262 407.948C386.504 417.916 386.402 428.739 387.3 440.379L384.648 440.588C383.703 428.378 383.844 417.044 384.695 406.642C381.447 406.693 375.542 406.429 372.835 404.048C369.008 400.671 370.183 397.277 370.183 397.277Z"
    fill="url(#paint15_linear_829_397)" />
  <path
    d="M475.843 333.639C475.843 333.639 477.044 341.647 472.838 346.848C468.632 352.054 477.006 358.258 474.422 366.462C471.837 374.67 466.027 372.667 466.027 379.271C466.027 385.876 471.237 391.281 464.422 399.885C457.61 408.492 450.599 404.89 449.394 412.094C448.194 419.299 452 428.106 443.383 434.311C434.767 440.516 422.949 443.718 398.705 444.118C398.705 444.118 388.488 417.899 390.289 405.09C392.094 392.281 402.911 392.281 403.111 388.079C403.311 383.877 402.911 372.667 408.122 367.266C413.333 361.86 422.345 364.263 423.75 359.862C425.15 355.46 426.3 347.252 433.039 343.45C439.777 339.648 447.789 342.051 450.395 338.445C453 334.843 460.194 326.282 469.628 326.235C476.371 326.205 475.843 333.639 475.843 333.639Z"
    fill="url(#paint16_linear_829_397)" />
  <path d="M465.929 335.544C465.929 335.544 410.332 409.198 400.417 442.323" stroke="white" stroke-width="0.5"
    stroke-miterlimit="10" stroke-linecap="round" stroke-linejoin="round" />
  <path d="M467.73 364.365L444.716 365.037" stroke="white" stroke-width="0.5" stroke-miterlimit="10"
    stroke-linecap="round" stroke-linejoin="round" />
  <path d="M423.251 366.764L430.646 385.948" stroke="white" stroke-width="0.5" stroke-miterlimit="10"
    stroke-linecap="round" stroke-linejoin="round" />
  <path d="M443.69 411.048L415.517 410.47" stroke="white" stroke-width="0.5" stroke-miterlimit="10"
    stroke-linecap="round" stroke-linejoin="round" />
  <path d="M399.51 401.139L409.505 421.374" stroke="white" stroke-width="0.5" stroke-miterlimit="10"
    stroke-linecap="round" stroke-linejoin="round" />
  <path
    d="M409.144 446.869H324.13C324.13 446.869 330.422 435.761 338.544 433.826C346.667 431.891 349.166 440.005 356.871 438.963C364.576 437.921 366.658 429.39 377.488 429.807C388.318 430.224 387.484 440.209 395.815 439.376C404.146 438.542 413.933 433.966 420.182 446.865H409.144V446.869Z"
    fill="#007080" />
  <path
    d="M417.416 445.07C421.366 419.086 447.658 393.769 447.926 393.518L445.993 391.49C444.882 392.548 418.744 417.708 414.648 444.649L417.416 445.07Z"
    fill="#007080" />
  <path
    d="M439.063 387.543C434.516 383.414 432.792 378.952 436.998 376.954C440.391 375.342 444.337 379.437 447.181 383.401C448.645 375.622 452.49 370.2 456.725 373.687C459.893 376.294 457.172 382.376 454.542 386.773C461.787 383.584 468.432 383.681 467.951 389.142C467.653 392.54 463.047 393.948 458.56 394.505C463.141 398.596 464.908 403.044 460.719 405.077C457.351 406.71 453.392 402.687 450.514 398.766C449.259 405.975 445.844 410.874 441.66 407.769C438.565 405.473 440.506 399.838 442.754 395.415C435.585 398.426 429.106 398.217 429.625 392.825C429.953 389.431 434.567 388.066 439.063 387.543Z"
    fill="url(#paint17_linear_829_397)" />
  <path
    d="M444.146 390.665C444.146 393.225 446.223 395.3 448.786 395.3C451.348 395.3 453.426 393.225 453.426 390.665C453.426 388.104 451.348 386.029 448.786 386.029C446.223 386.033 444.146 388.104 444.146 390.665Z"
    fill="white" />
  <path
    d="M410.416 387.849C410.48 389.89 409.667 391.779 408.245 393.276C406.47 395.172 403.737 396.423 400.642 396.516C395.108 396.686 390.51 393.076 390.366 388.462C390.263 385.059 392.613 382.057 396.061 380.641C397.3 380.139 398.671 379.837 400.127 379.794C405.665 379.624 410.276 383.235 410.416 387.849Z"
    fill="#85613D" />
  <path
    d="M410.416 387.849C410.48 389.89 409.667 391.779 408.245 393.276C407.006 393.786 405.627 394.088 404.158 394.135C398.624 394.305 394.026 390.703 393.881 386.08C393.818 384.03 394.639 382.133 396.061 380.645C397.3 380.143 398.671 379.841 400.127 379.799C405.665 379.624 410.275 383.235 410.416 387.849Z"
    fill="#A37E4D" />
  <path
    d="M409.339 387.624C409.377 388.81 408.496 389.801 407.372 389.835C406.249 389.869 405.312 388.934 405.274 387.747C405.235 386.56 406.117 385.57 407.24 385.536C408.364 385.502 409.301 386.437 409.339 387.624Z"
    fill="#724F2B" />
  <path
    d="M408.615 387.454C408.632 387.998 408.228 388.453 407.713 388.47C407.198 388.487 406.768 388.058 406.751 387.513C406.733 386.969 407.138 386.514 407.653 386.497C408.164 386.48 408.598 386.909 408.615 387.454Z"
    fill="#5F3E1B" />
  <path
    d="M399.607 380.568C399.607 380.568 402.664 380.13 405.223 381.636C407.785 383.141 404.426 382.661 401.962 382.078C399.497 381.504 398.343 380.985 399.607 380.568Z"
    fill="#BF986A" />
  <path
    d="M401.664 378.638C401.497 380.675 400.484 382.457 398.905 383.792C396.93 385.48 394.077 386.42 390.991 386.169C385.47 385.723 381.302 381.627 381.672 377.026C381.945 373.636 384.614 370.91 388.203 369.885C389.488 369.524 390.885 369.375 392.336 369.494C397.853 369.936 402.034 374.036 401.664 378.638Z"
    fill="#85613D" />
  <path
    d="M401.663 378.638C401.497 380.675 400.484 382.457 398.905 383.792C397.615 384.162 396.21 384.311 394.75 384.192C389.228 383.745 385.061 379.658 385.431 375.048C385.597 373.003 386.623 371.208 388.198 369.885C389.484 369.524 390.88 369.375 392.332 369.494C397.853 369.936 402.034 374.036 401.663 378.638Z"
    fill="#A37E4D" />
  <path
    d="M400.616 378.297C400.518 379.48 399.535 380.368 398.415 380.279C397.296 380.19 396.466 379.156 396.564 377.97C396.657 376.788 397.645 375.899 398.764 375.988C399.88 376.077 400.71 377.111 400.616 378.297Z"
    fill="#724F2B" />
  <path
    d="M399.913 378.047C399.871 378.591 399.42 378.995 398.904 378.957C398.389 378.914 398.01 378.442 398.053 377.898C398.096 377.353 398.547 376.949 399.062 376.988C399.577 377.03 399.956 377.502 399.913 378.047Z"
    fill="#5F3E1B" />
  <path
    d="M391.727 370.209C391.727 370.209 394.814 370.111 397.189 371.893C399.569 373.675 396.282 372.82 393.899 371.974C391.515 371.123 390.425 370.481 391.727 370.209Z"
    fill="#BF986A" />
  <path
    d="M417.718 403.299C417.492 405.328 416.424 407.084 414.802 408.365C412.775 409.989 409.893 410.844 406.815 410.499C401.311 409.887 397.271 405.664 397.782 401.075C398.161 397.694 400.911 395.053 404.525 394.135C405.823 393.816 407.224 393.709 408.671 393.871C414.176 394.488 418.229 398.711 417.718 403.299Z"
    fill="#85613D" />
  <path
    d="M417.718 403.299C417.492 405.328 416.424 407.084 414.802 408.364C413.504 408.696 412.095 408.798 410.634 408.637C405.13 408.024 401.086 403.81 401.601 399.212C401.831 397.171 402.908 395.411 404.525 394.139C405.824 393.82 407.224 393.714 408.672 393.875C414.176 394.488 418.229 398.711 417.718 403.299Z"
    fill="#A37E4D" />
  <path
    d="M416.679 402.925C416.547 404.107 415.534 404.962 414.419 404.839C413.303 404.716 412.507 403.657 412.639 402.474C412.771 401.292 413.784 400.437 414.9 400.561C416.015 400.688 416.811 401.743 416.679 402.925Z"
    fill="#724F2B" />
  <path
    d="M415.989 402.657C415.929 403.197 415.465 403.593 414.955 403.533C414.444 403.478 414.078 402.989 414.137 402.449C414.197 401.909 414.661 401.513 415.172 401.573C415.683 401.628 416.049 402.113 415.989 402.657Z"
    fill="#5F3E1B" />
  <path
    d="M408.046 394.569C408.046 394.569 411.132 394.564 413.456 396.419C415.781 398.273 412.524 397.32 410.166 396.397C407.807 395.479 406.735 394.803 408.046 394.569Z"
    fill="#BF986A" />
  <path
    d="M401.69 401.305C401.754 403.346 400.941 405.234 399.519 406.731C397.743 408.628 395.01 409.879 391.916 409.972C386.381 410.142 381.784 406.532 381.639 401.917C381.537 398.515 383.887 395.513 387.335 394.096C388.574 393.595 389.944 393.293 391.4 393.25C396.939 393.08 401.549 396.691 401.69 401.305Z"
    fill="#85613D" />
  <path
    d="M401.689 401.305C401.753 403.346 400.94 405.234 399.518 406.731C398.279 407.242 396.9 407.544 395.431 407.591C389.897 407.761 385.3 404.159 385.155 399.536C385.091 397.486 385.913 395.589 387.334 394.096C388.573 393.595 389.944 393.293 391.4 393.25C396.938 393.08 401.549 396.691 401.689 401.305Z"
    fill="#A37E4D" />
  <path
    d="M400.613 401.079C400.651 402.266 399.77 403.257 398.646 403.291C397.522 403.325 396.585 402.389 396.547 401.203C396.509 400.016 397.39 399.025 398.514 398.991C399.638 398.957 400.574 399.893 400.613 401.079Z"
    fill="#724F2B" />
  <path
    d="M399.889 400.91C399.906 401.454 399.501 401.909 398.986 401.926C398.471 401.943 398.041 401.513 398.024 400.969C398.007 400.425 398.411 399.97 398.926 399.953C399.442 399.936 399.872 400.365 399.889 400.91Z"
    fill="#5F3E1B" />
  <path
    d="M390.881 394.024C390.881 394.024 393.938 393.586 396.496 395.092C399.059 396.597 395.7 396.116 393.235 395.534C390.775 394.96 389.621 394.441 390.881 394.024Z"
    fill="#BF986A" />
  <path
    d="M392.733 389.878C392.797 391.919 391.983 393.807 390.562 395.304C388.786 397.201 386.053 398.451 382.958 398.545C377.424 398.715 372.827 395.104 372.682 390.49C372.58 387.088 374.93 384.085 378.378 382.669C379.617 382.167 380.987 381.865 382.443 381.823C387.982 381.653 392.592 385.263 392.733 389.878Z"
    fill="#85613D" />
  <path
    d="M392.732 389.878C392.796 391.919 391.983 393.807 390.561 395.304C389.322 395.815 387.943 396.116 386.474 396.163C380.94 396.333 376.343 392.731 376.198 388.109C376.134 386.059 376.956 384.162 378.377 382.669C379.616 382.167 380.987 381.865 382.443 381.823C387.981 381.653 392.592 385.263 392.732 389.878Z"
    fill="#A37E4D" />
  <path
    d="M391.652 389.652C391.69 390.839 390.809 391.83 389.685 391.864C388.561 391.898 387.624 390.962 387.586 389.776C387.548 388.589 388.429 387.598 389.553 387.564C390.677 387.53 391.618 388.466 391.652 389.652Z"
    fill="#724F2B" />
  <path
    d="M390.928 389.482C390.945 390.027 390.54 390.482 390.025 390.499C389.51 390.516 389.08 390.086 389.063 389.542C389.046 388.997 389.45 388.542 389.966 388.525C390.481 388.508 390.911 388.938 390.928 389.482Z"
    fill="#5F3E1B" />
  <path
    d="M381.924 382.597C381.924 382.597 384.98 382.159 387.539 383.664C390.102 385.17 386.743 384.689 384.278 384.107C381.813 383.528 380.66 383.014 381.924 382.597Z"
    fill="#BF986A" />
  <path
    d="M384.985 403.325C384.985 405.366 384.116 407.229 382.652 408.683C380.817 410.525 378.05 411.69 374.955 411.69C369.417 411.69 364.93 407.939 364.93 403.325C364.93 399.923 367.369 396.993 370.864 395.683C372.12 395.219 373.499 394.96 374.955 394.96C380.489 394.96 384.985 398.711 384.985 403.325Z"
    fill="#85613D" />
  <path
    d="M384.985 403.325C384.985 405.366 384.116 407.229 382.652 408.683C381.396 409.155 380.008 409.415 378.544 409.415C373.006 409.415 368.519 405.677 368.519 401.05C368.519 398.996 369.396 397.129 370.864 395.683C372.12 395.219 373.499 394.96 374.955 394.96C380.489 394.96 384.985 398.711 384.985 403.325Z"
    fill="#A37E4D" />
  <path
    d="M383.916 403.07C383.916 404.256 383.005 405.222 381.882 405.222C380.758 405.222 379.847 404.26 379.847 403.07C379.847 401.883 380.758 400.918 381.882 400.918C383.005 400.918 383.916 401.879 383.916 403.07Z"
    fill="#724F2B" />
  <path
    d="M383.197 402.878C383.197 403.423 382.779 403.865 382.264 403.865C381.749 403.865 381.332 403.423 381.332 402.878C381.332 402.334 381.749 401.892 382.264 401.892C382.779 401.892 383.197 402.33 383.197 402.878Z"
    fill="#5F3E1B" />
  <path
    d="M374.406 395.721C374.406 395.721 377.471 395.376 379.987 396.958C382.502 398.54 379.161 397.958 376.713 397.303C374.269 396.648 373.128 396.099 374.406 395.721Z"
    fill="#BF986A" />
  <path
    d="M421.842 405.222H395.619H387.718H361.494C361.494 405.222 364.01 427.642 373.708 437.36C376.049 439.703 378.535 441.323 380.962 442.429V446.873H402.669V442.289C405.001 441.187 407.385 439.614 409.633 437.36C419.326 427.638 421.842 405.222 421.842 405.222Z"
    fill="url(#paint18_linear_829_397)" />
  <path
    d="M298.047 234.077C281.602 237.93 267.69 266.56 261.764 276.426C255.838 286.288 262.947 297.822 262.947 297.822L290.465 283.486C290.465 283.482 299.724 233.686 298.047 234.077Z"
    fill="white" />
  <path
    d="M357.045 461.248L304.73 466.109C304.73 466.109 301.78 465.713 297.229 465.071C281.512 462.851 246.689 457.633 248.686 455.341C250.355 453.427 249.082 435.297 251.427 414.008C252.496 404.295 254.322 393.918 257.519 384.136C258.103 382.355 258.728 380.602 259.401 378.863L278.23 379.714L349.651 382.946L357.045 461.248Z"
    fill="#5D79A8" />
  <path opacity="0.45"
    d="M357.046 461.248L304.731 466.109C304.731 466.109 301.78 465.713 297.23 465.071C297.821 463.846 298.634 462.681 299.524 461.741C303.36 457.684 308.226 454.626 313.53 452.904C322.006 450.165 332.87 449.867 336.982 441.983C339.489 437.177 338.11 430.934 334.453 426.945C330.788 422.952 325.25 421.046 319.83 420.902C312.947 420.715 306.297 423.096 299.533 424.376C288.984 426.379 277.971 425.503 267.792 422.182C263.931 420.919 257.362 417.993 251.428 414.008C252.496 404.295 254.323 393.918 257.52 384.136C259.58 383.805 261.479 383.52 262.994 383.163C268.064 381.98 273.139 380.828 278.226 379.718L349.647 382.95L357.046 461.248Z"
    fill="#3C516E" />
  <path
    d="M359.625 384.29C359.302 391.307 358.91 396.312 358.459 398.247L350.813 401.722L348.727 392.008L344.559 403.806C344.559 403.806 272.308 417.682 249.026 402.419C249.026 402.419 252.764 373.836 257.621 344.097C259.422 333.086 261.376 321.914 263.356 311.975C266.063 298.324 268.813 287.007 271.261 281.645C280.295 261.861 293.151 236.48 303.223 234.073C313.295 231.674 334.138 236.178 334.138 236.178L358.207 277.392L358.459 277.821C360.915 305.643 360.8 358.535 359.625 384.29Z"
    fill="white" />
  <path opacity="0.46"
    d="M359.625 384.29C352.83 374.916 346.057 365.535 339.276 356.162C338.352 354.89 337.394 353.576 336.058 352.751C334.823 351.99 333.371 351.696 331.945 351.407C325.198 350.08 318.352 348.741 311.486 349.276C306.718 349.659 302.048 350.944 297.284 351.39C289.451 352.126 281.674 350.548 274.262 348.103C270.703 346.929 267.059 344.692 263.445 343.888C262.172 343.595 259.294 344.058 257.621 344.092C259.422 333.082 261.376 321.91 263.355 311.971C270.477 304.639 280.903 300.574 291.124 301.229C296.654 301.577 302.64 303.125 307.416 300.331C314.951 295.917 314.291 283.835 321.366 278.723C328.812 273.352 339.11 278.982 348.258 278.259C351.583 277.991 354.933 276.856 358.207 277.392L358.458 277.821C360.915 305.643 360.8 358.535 359.625 384.29Z"
    fill="#C6E3EB" />
  <path opacity="0.79"
    d="M308.23 305.575C308.353 305.919 307.595 305.826 307.659 305.468C307.723 305.107 308.157 304.967 308.515 304.894C314.168 303.704 319.404 300.608 323.168 296.231C323.755 295.547 324.338 294.811 325.151 294.411C327.382 293.318 329.826 295.219 332.188 295.998C335.058 296.937 338.165 296.159 341.179 296.019C344.193 295.878 347.744 296.776 348.885 299.566C349.553 301.203 349.204 303.053 349.298 304.818C349.587 310.338 354.193 314.901 354.568 320.413C355.023 327.098 349.259 332.571 347.761 339.104C347.548 340.031 347.395 341.034 346.76 341.749C346.122 342.463 345.13 342.731 344.193 342.944C335.964 344.807 327.361 345.211 319.064 343.675C316.058 343.123 313.091 342.315 310.052 341.97C306.408 341.558 302.704 341.817 299.081 341.26C293.194 340.358 287.859 337.381 282.679 334.438C281.746 333.907 280.788 333.354 280.146 332.499C279.55 331.704 279.281 330.717 279.043 329.756C278.038 325.678 277.37 321.374 278.366 317.291C279.601 312.226 283.16 308.973 288.23 308.284C294.896 307.369 301.567 306.476 308.23 305.575Z"
    fill="#C6E3EB" />
  <path
    d="M205.468 466.109H101.323C101.323 466.109 98.5814 422.934 101.323 401.232L101.727 398.745L104.916 378.863C104.916 378.863 153.54 373.037 176.103 385.119C179.891 387.143 182.939 389.673 184.911 392.816C189.202 399.663 192.816 409.406 195.762 419.545C202.233 441.842 205.468 466.109 205.468 466.109Z"
    fill="#475876" />
  <path
    d="M111.314 422.488C100.157 434.957 116.691 462.137 133.941 466.113H101.323C101.323 466.113 98.5814 422.939 101.323 401.237L101.727 398.749C115.78 394.041 134.256 387.998 140.169 386.752C144.711 385.795 160.19 385.166 176.103 385.123C179.891 387.147 182.939 389.678 184.911 392.821C189.202 399.668 192.816 409.411 195.762 419.549C171.13 425.01 122.481 410.015 111.314 422.488Z"
    fill="#34435B" />
  <path
    d="M178.316 186.51C195.557 192.183 210.794 163.524 184.37 172.548C197.12 153.9 168.9 135.476 162.731 159.798C168.474 137.165 140.599 157.2 135.103 159.985C129.637 162.903 124.69 166.964 121.382 172.195C112.17 186.765 116.082 207.935 127.283 211.937L178.316 186.51Z"
    fill="#653931" />
  <path
    d="M189.793 185.672C186.443 187.263 182.441 187.866 178.321 186.51L127.278 211.933C117.274 208.365 113.089 191.082 118.875 177.056C121.74 178.357 124.596 180.7 127.649 180.828C130.935 180.968 134.107 178.71 135.456 175.78C136.265 177.341 138.389 177.536 140.139 177.409C143.953 177.111 147.712 176.18 151.233 174.657C152.071 174.304 152.919 173.896 153.83 173.866C154.472 173.849 155.102 174.007 155.728 174.155C160.773 175.346 166.001 175.465 171.139 176.124C176.286 176.784 181.522 178.068 185.655 181.19C187.29 182.427 188.686 183.962 189.793 185.672Z"
    fill="#4C2A24" />
  <path
    d="M261.594 188.972C261.917 190.367 254.57 193.242 250.411 199.949C248.01 203.823 248.912 218.784 249.308 234.6C249.593 246.168 249.614 258.19 247.856 266.683C243.697 286.807 233.787 291.596 210.13 282.019C186.474 272.441 206.295 254.554 206.295 254.554C213.757 253.219 221.956 255.048 221.956 255.048C221.956 255.048 232.344 207.064 233.221 201.828C234.089 196.593 224.834 184.298 225.477 179.191C226.111 174.087 233.272 186.216 233.272 186.216C233.272 186.216 240.496 175.359 249.768 173.441C258.712 171.587 253.659 176.592 253.297 176.95C253.637 176.813 260.368 174.13 262.543 175.363C264.723 176.597 256.324 181.164 255.851 181.415C256.256 181.343 262.33 180.19 262.914 181.424C263.514 182.704 255.834 188.968 255.834 188.968C255.834 188.968 261.279 187.569 261.594 188.972Z"
    fill="#F2A282" />
  <path opacity="0.52"
    d="M247.856 266.687C243.697 286.812 233.787 291.6 210.13 282.023C186.474 272.446 206.295 254.559 206.295 254.559C213.757 253.223 221.956 255.052 221.956 255.052C227.95 266.19 226.724 274.279 235.306 270.689C243.893 267.1 247.307 252.534 249.125 235.927C249.18 235.434 249.24 234.996 249.304 234.6C249.593 246.168 249.61 258.19 247.856 266.687Z"
    fill="#EB835E" />
  <path
    d="M214.493 288.547L186.069 283.069L187.295 308.986L188.883 342.289L190.79 382.393L191.829 404.333C166.865 415.845 115.776 410.474 115.776 410.474L106.67 395.121V407.778L95.8018 405.094C95.8018 405.094 95.3165 396.759 94.546 381.21C93.7754 365.824 92.7197 343.361 91.5703 314.922C89.2672 257.748 102.153 243.905 122.038 235.697C122.038 235.697 133.447 231.275 153.86 233.193C174.281 235.106 216.417 252.76 216.417 252.76L214.493 288.547Z"
    fill="#F6CE3F" />
  <path
    d="M133.549 233.278C134.579 239.244 139.709 248.511 148.495 248.23C157.282 247.95 162.45 240.818 160.394 234.166C160.394 234.166 142.642 230.258 133.549 233.278Z"
    fill="#F2A282" />
  <path
    d="M191.828 404.333C166.865 415.845 115.776 410.474 115.776 410.474L106.67 395.121V407.778L95.8017 405.094C95.8017 405.094 95.3164 396.759 94.5459 381.21C95.0312 381.074 130.578 371.612 120.361 357.14C110.071 342.565 101.034 322.012 101.821 288.309C101.821 288.309 132.621 255.715 142.029 279.203C151.446 302.691 185.204 305.056 185.204 305.056C185.204 305.056 186.09 306.561 187.29 308.986L188.878 342.289C179.794 352.173 158.904 361.15 157.874 368.958C156.942 375.997 180.275 380.658 190.79 382.397L191.828 404.333Z"
    fill="#D8AE25" />
  <path
    d="M116.598 330.054C118.446 332.516 120.612 334.719 122.558 337.105C126.406 341.826 129.335 347.214 132.881 352.168C135.393 355.677 138.22 358.964 141.306 361.979C142.877 363.51 144.712 365.058 146.904 365.118C149.573 365.19 151.736 363.072 153.494 361.069C160.697 352.883 167.1 343.99 172.578 334.562C174.822 330.7 176.976 326.456 176.593 322.008C176.495 320.889 176.235 319.775 175.707 318.78C175.29 317.989 174.715 317.291 174.073 316.666C169.62 312.32 162.736 311.86 157.181 309.049C153.575 307.225 150.561 304.41 147.066 302.377C142.059 299.459 136.274 298.243 130.599 297.069C127.194 296.363 123.716 295.657 120.259 296.053C114.725 296.687 106.858 301.56 107.071 307.723C107.322 314.71 112.515 324.602 116.598 330.054Z"
    fill="#AF8715" />
  <path
    d="M277.021 275.567C275.889 276.979 274.399 278.127 273.564 279.735C272.496 281.781 272.99 284.035 272.279 286.076C271.581 288.087 269.495 290.227 267.881 291.553C266.787 292.447 265.523 293.174 264.182 293.625C262.994 294.016 261.747 294.207 260.504 294.105C258.707 293.969 257.009 293.25 255.353 292.54C255.059 292.412 254.748 292.268 254.574 291.996C254.216 291.43 254.642 290.631 254.361 290.018C254.165 289.61 253.697 289.406 253.416 289.049C253.011 288.542 253.05 287.824 253.097 287.182C253.45 282.963 253.973 278.638 255.702 274.81C256.366 273.33 257.205 271.918 258.277 270.63C259.244 269.469 260.329 268.389 261.061 267.066C261.785 265.76 262.13 264.259 262.918 262.983C264.003 261.231 265.744 259.458 267.528 258.458C268.784 257.752 270.031 257.046 271.283 256.34C271.785 256.06 272.296 255.766 272.862 255.698C273.731 255.588 274.565 255.987 275.344 256.374C276.736 257.076 278.213 257.846 278.988 259.198C280.039 261.001 279.546 263.328 280.218 265.305C280.908 267.355 280.393 267.687 279.673 269.473C279.503 269.886 279.358 270.302 279.222 270.711C278.647 272.42 278.269 274.023 277.021 275.567Z"
    fill="#653931" />
  <path
    d="M272.999 258.229C273.658 258.437 274.318 258.645 274.978 258.854C275.217 258.93 275.476 259.024 275.591 259.245C275.685 259.424 275.655 259.645 275.749 259.823C275.851 260.015 276.081 260.134 276.128 260.342C276.191 260.64 275.855 260.865 275.561 260.942C274.327 261.261 273.058 260.661 271.922 260.079C271.756 259.994 271.577 259.887 271.543 259.704C271.513 259.547 271.611 259.402 271.658 259.249C271.713 259.071 271.7 258.871 271.764 258.696C271.875 258.403 272.181 258.22 272.492 258.173C272.803 258.127 273.118 258.19 273.424 258.254"
    fill="#F2A282" />
  <path
    d="M257.022 283.443C256.728 280.483 257.609 277.421 259.44 275.074C260.023 274.325 260.696 273.641 261.151 272.811C261.709 271.791 261.922 270.57 262.701 269.707C263.339 269.001 264.314 268.584 264.736 267.729C265.11 266.968 265.131 265.807 265.966 265.637C265.072 267.551 264.182 269.469 263.288 271.382C262.032 274.074 260.777 276.775 259.189 279.284C258.005 281.16 256.575 283.175 256.898 285.366C256.771 284.188 256.83 282.984 257.077 281.823"
    fill="#542F29" />
  <path
    d="M263.045 280.445C262.828 279.348 263.262 278.225 263.79 277.239C264.48 275.942 265.34 274.738 266.34 273.666C267.336 272.599 268.486 271.651 269.269 270.417C269.767 269.639 270.099 268.767 270.529 267.951C271.198 266.666 272.092 265.518 272.977 264.374C271.219 269.49 268.767 274.372 265.706 278.833C265.267 279.471 264.812 280.114 264.565 280.845C264.301 281.623 264.284 282.457 264.139 283.265C263.799 285.196 262.752 286.918 261.726 288.585C262.104 285.094 262.598 281.619 263.207 278.162"
    fill="#542F29" />
  <path
    d="M269.619 277.796C269.58 275.707 271.232 274.045 272.505 272.386C273.569 271 274.425 269.456 275.042 267.823C275.174 267.47 275.459 267.028 275.813 267.164C274.565 269.371 274.097 271.944 272.879 274.168C272.224 275.367 271.364 276.439 270.67 277.613C269.848 279.008 269.274 280.53 268.699 282.044C268.235 283.273 267.771 284.502 267.303 285.731C267.98 282.95 268.656 280.169 269.333 277.387C269.487 276.766 269.661 276.103 270.138 275.678"
    fill="#542F29" />
  <path opacity="0.53"
    d="M277.021 275.567C275.889 276.979 274.399 278.127 273.564 279.735C272.496 281.78 272.99 284.034 272.279 286.076C271.581 288.087 269.495 290.226 267.881 291.553C266.787 292.446 265.523 293.174 264.182 293.624C262.994 294.016 261.747 294.207 260.504 294.105C258.707 293.969 257.009 293.25 255.353 292.54C255.059 292.412 254.748 292.268 254.574 291.996C254.216 291.43 254.642 290.63 254.361 290.018C254.165 289.61 253.697 289.406 253.416 289.048C253.011 288.542 253.05 287.824 253.097 287.181C253.45 282.963 253.973 278.638 255.702 274.81C256.153 274.538 256.626 274.266 257.145 274.215C258.443 274.087 259.482 275.329 259.895 276.562C260.295 277.8 260.334 279.165 260.938 280.317C261.636 281.657 263.092 282.55 264.608 282.576C266.11 282.605 267.596 281.746 268.341 280.441C268.711 279.79 268.899 279.046 269.295 278.404C270.304 276.741 272.36 276.145 274.097 275.278C275.987 274.351 277.536 272.339 279.222 270.71C278.647 272.42 278.269 274.023 277.021 275.567Z"
    fill="#3A1E1B" />
  <path opacity="0.41"
    d="M263.029 271.914C262.79 272.514 262.096 272.875 261.969 273.505C261.824 274.215 262.552 274.878 263.276 274.882C263.999 274.887 264.646 274.406 265.093 273.836C266.451 272.118 266.451 269.618 267.788 267.887C268.52 266.943 269.661 266.186 269.827 265.003C269.972 263.97 269.431 262.992 269.738 261.967C267.831 261.763 265.064 262.877 264.046 264.578C263.518 265.463 263.276 266.594 263.08 267.589C262.82 268.92 263.501 270.736 263.029 271.914Z"
    fill="white" />
  <path opacity="0.41"
    d="M273.568 269.775C273.547 270.26 273.33 270.711 273.096 271.132C273.041 271.229 272.985 271.34 273.019 271.446C273.053 271.553 273.168 271.612 273.275 271.646C273.688 271.77 274.139 271.65 274.535 271.476C275.816 270.915 276.821 269.762 277.195 268.414C277.344 267.878 277.4 267.313 277.621 266.802C278.085 265.726 279.205 264.523 277.992 263.464C277.276 262.839 276.493 263.013 275.897 263.621C275.25 264.285 274.926 265.369 274.458 266.156C273.632 267.547 273.637 268.227 273.568 269.775Z"
    fill="white" />
  <path
    d="M261.27 282.635C260.793 284.379 259.89 286.029 259.763 287.836C259.601 290.137 260.955 292.008 261.116 294.165C261.278 296.287 260.222 299.081 259.269 300.939C258.622 302.194 257.753 303.363 256.706 304.316C255.774 305.149 254.709 305.821 253.526 306.221C251.823 306.812 249.976 306.829 248.175 306.838C247.851 306.838 247.511 306.829 247.243 306.651C246.689 306.276 246.757 305.371 246.255 304.924C245.914 304.631 245.403 304.631 244.999 304.414C244.424 304.108 244.173 303.44 243.96 302.827C242.598 298.817 241.351 294.645 241.406 290.448C241.423 288.827 241.632 287.199 242.096 285.587C242.517 284.137 243.083 282.712 243.224 281.211C243.369 279.726 243.079 278.212 243.296 276.724C243.59 274.683 244.48 272.365 245.714 270.736C246.583 269.592 247.443 268.444 248.311 267.3C248.66 266.845 249.009 266.368 249.503 266.083C250.257 265.637 251.18 265.671 252.049 265.718C253.607 265.807 255.267 265.922 256.519 266.853C258.204 268.087 258.677 270.417 260.086 271.965C261.538 273.568 261.197 274.079 261.253 276.001C261.261 276.447 261.299 276.886 261.333 277.315C261.504 279.101 261.797 280.722 261.27 282.635Z"
    fill="#653931" />
  <path
    d="M250.653 268.337C251.342 268.265 252.032 268.193 252.717 268.125C252.964 268.099 253.245 268.082 253.437 268.24C253.594 268.367 253.658 268.58 253.816 268.707C253.986 268.843 254.246 268.856 254.373 269.035C254.552 269.281 254.335 269.622 254.092 269.809C253.088 270.596 251.683 270.549 250.41 270.468C250.227 270.455 250.014 270.43 249.912 270.277C249.823 270.145 249.852 269.97 249.835 269.813C249.814 269.626 249.725 269.452 249.712 269.264C249.695 268.95 249.908 268.661 250.172 268.495C250.44 268.329 250.755 268.261 251.061 268.197"
    fill="#F2A282" />
  <path
    d="M246.076 297.83C244.624 295.232 244.211 292.072 244.947 289.193C245.182 288.274 245.531 287.377 245.616 286.437C245.718 285.28 245.429 284.077 245.799 282.975C246.101 282.074 246.833 281.304 246.876 280.351C246.914 279.505 246.472 278.433 247.165 277.944C247.114 280.058 247.059 282.167 247.008 284.281C246.931 287.249 246.859 290.226 246.403 293.161C246.067 295.351 245.561 297.771 246.735 299.651C246.148 298.621 245.722 297.494 245.484 296.333"
    fill="#542F29" />
  <path
    d="M250.401 292.68C249.762 291.762 249.716 290.558 249.801 289.444C249.916 287.981 250.222 286.535 250.716 285.153C251.206 283.775 251.878 282.448 252.104 281.006C252.249 280.092 252.206 279.165 252.27 278.242C252.372 276.8 252.73 275.389 253.087 273.985C253.521 279.378 253.219 284.83 252.198 290.141C252.053 290.898 251.891 291.668 251.955 292.438C252.023 293.254 252.338 294.028 252.53 294.828C252.985 296.733 252.717 298.728 252.44 300.671C251.393 297.32 250.461 293.935 249.635 290.52"
    fill="#542F29" />
  <path
    d="M255.374 287.628C254.505 285.727 255.357 283.545 255.859 281.517C256.281 279.82 256.451 278.063 256.362 276.32C256.345 275.941 256.43 275.423 256.804 275.406C256.545 277.927 257.141 280.475 256.915 282.997C256.792 284.358 256.434 285.684 256.268 287.037C256.072 288.644 256.153 290.269 256.23 291.885C256.293 293.199 256.357 294.509 256.425 295.823C255.936 293.003 255.446 290.184 254.957 287.364C254.846 286.735 254.744 286.054 255.012 285.476"
    fill="#542F29" />
  <path opacity="0.53"
    d="M261.27 282.635C260.793 284.379 259.89 286.029 259.763 287.836C259.601 290.137 260.955 292.008 261.116 294.164C261.278 296.287 260.222 299.081 259.269 300.939C258.622 302.194 257.753 303.363 256.706 304.316C255.774 305.149 254.709 305.821 253.526 306.221C251.823 306.812 249.976 306.829 248.175 306.838C247.851 306.838 247.511 306.829 247.243 306.651C246.689 306.276 246.757 305.371 246.255 304.924C245.914 304.631 245.403 304.631 244.999 304.414C244.424 304.107 244.173 303.44 243.96 302.827C242.598 298.817 241.351 294.645 241.406 290.448C241.713 290.018 242.032 289.58 242.492 289.329C243.628 288.695 245.08 289.418 245.953 290.384C246.813 291.358 247.396 292.595 248.409 293.407C249.584 294.356 251.278 294.598 252.675 294.016C254.062 293.441 255.084 292.064 255.246 290.571C255.327 289.827 255.199 289.065 255.31 288.325C255.569 286.399 257.217 285.029 258.464 283.545C259.826 281.942 260.444 279.48 261.342 277.315C261.504 279.101 261.797 280.721 261.27 282.635Z"
    fill="#3A1E1B" />
  <path opacity="0.41"
    d="M246.979 284.864C246.996 285.506 246.506 286.114 246.642 286.743C246.791 287.449 247.724 287.772 248.392 287.483C249.056 287.198 249.456 286.501 249.639 285.799C250.197 283.681 249.201 281.393 249.733 279.271C250.027 278.11 250.772 276.966 250.452 275.814C250.176 274.81 249.286 274.13 249.158 273.066C247.332 273.641 245.233 275.763 244.982 277.732C244.85 278.752 245.08 279.888 245.301 280.879C245.595 282.201 246.945 283.592 246.979 284.864Z"
    fill="white" />
  <path opacity="0.41"
    d="M255.791 278.697C255.966 279.148 255.949 279.65 255.902 280.13C255.889 280.241 255.885 280.369 255.957 280.454C256.03 280.539 256.161 280.547 256.272 280.534C256.702 280.483 257.064 280.194 257.362 279.875C258.311 278.85 258.771 277.392 258.579 276.01C258.503 275.461 258.328 274.921 258.324 274.364C258.32 273.19 258.865 271.642 257.332 271.153C256.425 270.868 255.778 271.336 255.476 272.135C255.148 273.003 255.285 274.126 255.17 275.031C254.961 276.63 255.233 277.251 255.791 278.697Z"
    fill="white" />
  <path
    d="M281.321 291.498C279.792 292.468 278.013 293.072 276.697 294.322C275.024 295.913 274.76 298.205 273.424 299.906C272.113 301.582 269.443 302.93 267.485 303.665C266.161 304.154 264.731 304.435 263.313 304.431C262.062 304.418 260.823 304.193 259.678 303.695C258.022 302.985 256.647 301.752 255.31 300.548C255.071 300.331 254.825 300.093 254.748 299.783C254.59 299.132 255.255 298.511 255.186 297.843C255.135 297.397 254.756 297.052 254.603 296.623C254.386 296.01 254.654 295.347 254.905 294.752C256.608 290.873 258.503 286.952 261.38 283.89C262.487 282.708 263.739 281.64 265.174 280.764C266.463 279.977 267.843 279.306 268.962 278.293C270.073 277.294 270.882 275.984 272.044 275.031C273.641 273.722 275.863 272.612 277.872 272.242C279.286 271.982 280.695 271.714 282.112 271.455C282.679 271.353 283.258 271.238 283.815 271.357C284.675 271.536 285.331 272.182 285.944 272.799C287.034 273.917 288.179 275.117 288.477 276.652C288.885 278.697 287.668 280.739 287.659 282.827C287.651 284.987 287.055 285.136 285.795 286.591C285.501 286.927 285.229 287.275 284.965 287.615C283.879 289.044 283.006 290.439 281.321 291.498Z"
    fill="#653931" />
  <path
    d="M283.138 273.79C283.696 274.202 284.254 274.61 284.807 275.023C285.007 275.172 285.224 275.346 285.263 275.593C285.293 275.793 285.195 275.993 285.224 276.192C285.259 276.405 285.437 276.592 285.416 276.809C285.382 277.111 284.99 277.217 284.684 277.192C283.411 277.094 282.406 276.116 281.521 275.197C281.393 275.065 281.257 274.904 281.282 274.721C281.308 274.564 281.444 274.457 281.538 274.33C281.649 274.177 281.7 273.985 281.819 273.841C282.019 273.598 282.368 273.526 282.679 273.581C282.99 273.637 283.266 273.802 283.534 273.96"
    fill="#F2A282" />
  <path
    d="M259.848 292.481C260.529 289.584 262.355 286.973 264.845 285.34C265.637 284.821 266.501 284.392 267.199 283.754C268.055 282.971 268.655 281.883 269.673 281.321C270.507 280.858 271.563 280.781 272.24 280.109C272.84 279.51 273.236 278.421 274.079 278.527C272.614 280.05 271.15 281.577 269.681 283.099C267.621 285.242 265.556 287.39 263.24 289.249C261.512 290.639 259.507 292.081 259.103 294.263C259.362 293.106 259.809 291.987 260.418 290.971"
    fill="#542F29" />
  <path
    d="M266.519 291.592C266.668 290.482 267.443 289.563 268.26 288.798C269.333 287.794 270.538 286.935 271.832 286.246C273.122 285.561 274.514 285.034 275.655 284.12C276.378 283.541 276.974 282.827 277.647 282.193C278.694 281.198 279.912 280.394 281.125 279.603C277.804 283.877 273.901 287.701 269.558 290.933C268.937 291.396 268.298 291.856 267.826 292.464C267.323 293.114 267.034 293.897 266.638 294.616C265.689 296.329 264.139 297.622 262.628 298.868C264.118 295.687 265.714 292.557 267.409 289.487"
    fill="#542F29" />
  <path
    d="M273.598 291.209C274.237 289.219 276.344 288.181 278.081 287.024C279.537 286.059 280.848 284.877 281.959 283.529C282.202 283.235 282.615 282.912 282.904 283.154C281.01 284.839 279.733 287.122 277.86 288.832C276.851 289.755 275.688 290.49 274.654 291.379C273.424 292.434 272.385 293.684 271.355 294.935C270.516 295.947 269.678 296.959 268.839 297.971C270.38 295.56 271.925 293.148 273.466 290.737C273.811 290.197 274.19 289.627 274.782 289.38"
    fill="#542F29" />
  <path opacity="0.53"
    d="M281.321 291.498C279.792 292.468 278.013 293.072 276.697 294.322C275.024 295.913 274.76 298.205 273.424 299.906C272.113 301.582 269.443 302.93 267.485 303.665C266.161 304.154 264.731 304.435 263.313 304.431C262.062 304.418 260.823 304.193 259.678 303.695C258.022 302.985 256.647 301.752 255.31 300.548C255.071 300.331 254.825 300.093 254.748 299.783C254.59 299.132 255.255 298.511 255.186 297.843C255.135 297.397 254.756 297.052 254.603 296.623C254.386 296.01 254.654 295.347 254.905 294.752C256.608 290.873 258.503 286.952 261.38 283.89C261.896 283.779 262.432 283.673 262.939 283.796C264.207 284.094 264.79 285.608 264.778 286.905C264.752 288.207 264.352 289.508 264.548 290.792C264.773 292.285 265.863 293.603 267.285 294.114C268.698 294.628 270.384 294.297 271.512 293.301C272.074 292.808 272.496 292.162 273.075 291.685C274.565 290.439 276.706 290.537 278.63 290.282C280.716 290.018 282.836 288.615 284.96 287.62C283.879 289.044 283.006 290.439 281.321 291.498Z"
    fill="#3A1E1B" />
  <path opacity="0.41"
    d="M269.269 283.516C268.848 284.005 268.077 284.124 267.749 284.677C267.383 285.302 267.856 286.165 268.541 286.403C269.227 286.642 269.993 286.395 270.602 286.004C272.445 284.817 273.254 282.453 275.08 281.249C276.08 280.59 277.4 280.245 277.945 279.182C278.418 278.255 278.222 277.154 278.843 276.278C277.106 275.469 274.126 275.627 272.611 276.907C271.828 277.57 271.227 278.566 270.721 279.446C270.044 280.615 270.099 282.555 269.269 283.516Z"
    fill="white" />
  <path opacity="0.41"
    d="M279.937 284.902C279.763 285.353 279.41 285.71 279.048 286.034C278.963 286.11 278.873 286.195 278.873 286.306C278.869 286.416 278.958 286.51 279.052 286.578C279.405 286.829 279.869 286.863 280.299 286.825C281.691 286.71 283.02 285.94 283.807 284.792C284.122 284.332 284.356 283.818 284.731 283.405C285.518 282.533 286.97 281.759 286.166 280.365C285.689 279.544 284.893 279.454 284.135 279.837C283.309 280.254 282.649 281.177 281.951 281.768C280.721 282.814 280.504 283.461 279.937 284.902Z"
    fill="white" />
  <path
    d="M248.349 293.556C250.108 298.03 248.771 305.06 242.53 304.171C239.137 303.687 236.119 301.547 233.484 299.481C230.687 297.295 228.907 294.411 225.566 293.199C225.553 293.186 225.54 293.182 225.527 293.182C222.288 291.996 219.363 289.976 217.102 287.369C216.719 286.939 216.358 286.484 216.077 285.978C215.962 285.774 215.851 285.561 215.766 285.336C214.974 283.303 215.625 280.033 216.14 278C216.894 275.061 220.521 275.078 222.977 275.503C227.43 276.273 231.772 277.634 235.872 279.522C236.864 279.986 237.847 280.466 238.788 281.023C240.031 281.746 241.21 282.559 242.262 283.533C245.152 286.216 246.919 289.886 248.349 293.556Z"
    fill="#653931" />
  <path
    d="M218.946 280.641C218.563 280.526 218.631 279.926 218.92 279.646C219.205 279.365 219.623 279.199 219.806 278.846C219.882 278.697 219.921 278.519 220.048 278.412C220.278 278.229 220.649 278.425 220.738 278.706C220.827 278.986 220.729 279.288 220.619 279.56C220.248 280.488 219.776 281.368 219.205 282.184C219.159 282.252 219.103 282.325 219.027 282.355C218.882 282.41 218.729 282.299 218.631 282.184C217.992 281.423 218.328 280.211 219.022 279.497"
    fill="#F2A282" />
  <path
    d="M235.599 282.912C235.033 282.631 234.445 282.38 233.969 281.968C233.649 281.691 233.385 281.347 233.058 281.083C232.632 280.743 232.112 280.547 231.602 280.356C230.516 279.952 229.431 279.548 228.349 279.14C227.838 278.948 227.306 278.757 226.766 278.821C227.276 280.488 229.052 281.355 230.597 282.168C233.126 283.494 235.48 285.157 237.574 287.097C238.4 287.862 239.46 289.1 240.635 289.308C241.925 289.533 241.938 288.691 241.38 287.726C240.192 285.668 237.676 283.945 235.599 282.912Z"
    fill="#542F29" />
  <path
    d="M235.293 290.767C234.739 290.452 234.186 290.133 233.658 289.78C232.973 289.321 232.334 288.802 231.683 288.296C229.473 286.578 227.132 285.025 224.688 283.656C225.629 284.94 226.694 286.14 227.856 287.233C228.699 288.024 229.593 288.755 230.482 289.487C231.334 290.184 232.185 290.881 233.037 291.579C233.65 292.081 234.267 292.587 234.986 292.914C236.195 293.467 237.153 293.892 238.239 294.679C238.903 295.16 239.465 295.759 239.737 294.807C240.295 292.838 236.4 291.396 235.293 290.767Z"
    fill="#542F29" />
  <path
    d="M238.473 299.034C236.681 297.511 234.642 296.282 232.462 295.402C232.619 295.751 232.777 296.104 232.934 296.453C232.986 296.567 233.041 296.686 233.13 296.776C233.228 296.874 233.356 296.933 233.484 296.988C235.033 297.682 236.527 298.502 237.949 299.434C238.903 300.059 239.925 300.765 241.061 300.68C240.082 299.485 238.86 298.49 237.49 297.775"
    fill="#542F29" />
  <path opacity="0.53"
    d="M248.349 293.556C250.107 298.03 248.77 305.06 242.53 304.171C239.137 303.686 236.118 301.547 233.483 299.48C230.686 297.295 228.907 294.411 225.565 293.199C225.552 293.186 225.54 293.182 225.527 293.182C222.287 291.996 219.363 289.975 217.102 287.369C216.719 286.939 216.357 286.484 216.076 285.978C216.732 286.305 217.272 287.147 217.792 287.636C218.52 288.317 219.307 288.938 220.159 289.465C221.819 290.486 223.747 291.124 225.697 291.034C226.902 290.975 228.141 290.647 229.307 291.009C230.857 291.485 231.878 293.101 233.454 293.522C234.803 293.875 236.276 293.229 237.208 292.178C238.145 291.137 238.609 289.759 238.898 288.389C239.056 287.649 239.167 286.845 238.86 286.139C238.528 285.353 237.728 284.834 237.4 284.039C236.949 282.903 237.694 281.576 238.792 281.015C240.035 281.738 241.214 282.55 242.266 283.524C245.152 286.216 246.919 289.886 248.349 293.556Z"
    fill="#3A1E1B" />
  <path opacity="0.41"
    d="M232.756 286.884C233.727 287.062 234.817 286.863 235.502 286.157C234.582 285.353 233.667 284.545 232.752 283.737C232.467 283.482 232.152 283.158 232.215 282.78C232.301 282.295 232.939 282.125 233.169 281.691C233.378 281.3 233.178 280.794 232.841 280.505C232.505 280.216 232.058 280.092 231.632 279.969C229.312 279.284 227.086 278.293 225.025 277.03C224.421 276.66 223.591 276.277 223.063 276.754C222.59 277.183 222.773 277.957 223.046 278.536C224.557 281.721 229.142 286.216 232.756 286.884Z"
    fill="white" />
  <path opacity="0.41"
    d="M223.178 285.608C222.595 285.021 219.874 282.537 219.444 284.672C219.248 285.655 220.653 287.232 221.437 287.688C222.228 288.151 224.272 288.84 225.157 288.687C227.443 288.3 223.693 286.127 223.178 285.608Z"
    fill="white" />
  <path
    d="M288.413 304.848C286.736 313.744 282.219 324.848 274.147 329.492C269.273 332.287 225.123 331.84 221.96 327.919C221.539 327.4 220.874 326.567 220.078 325.495C214.817 318.512 203.446 301.496 212.943 296.525C224.297 290.58 276.825 286.284 287.868 292.272C289.362 293.076 289.639 298.383 288.413 304.848Z"
    fill="#475876" />
  <path
    d="M288.413 304.848C286.735 313.744 282.219 324.848 274.147 329.493C269.273 332.287 225.123 331.84 221.96 327.919C221.538 327.4 220.874 326.567 220.078 325.495C221.504 324.474 223.305 324.053 225.059 324.045C226.966 324.045 228.856 324.508 230.768 324.491C232.675 324.483 234.757 323.858 235.778 322.246C237.455 319.613 235.501 316.024 236.451 313.051C237.043 311.214 238.665 309.908 240.342 308.952C243.228 307.297 246.515 306.374 249.839 306.277C251.372 306.23 252.93 306.357 254.411 305.945C257.762 305.022 259.852 301.658 262.968 300.119C267.029 298.124 272.155 299.723 275.416 302.874C279.754 307.076 283.279 304.839 288.413 304.848Z"
    fill="#34435B" />
  <path
    d="M224.923 294.313C220.989 293.437 210.512 297.367 210.512 297.367C210.512 297.367 207.473 300.982 202.799 306.442C188.542 323.075 159.032 356.795 153.864 357.127C147.001 357.565 129.73 344.917 125.064 325.286C125.064 325.286 146.758 306.961 149.125 306.961C151.484 306.961 154.306 313.506 154.306 313.506C154.306 313.506 179.951 298.235 186.494 291.996C193.046 285.757 200.474 282.533 200.474 282.533C200.474 282.533 203.969 276.426 216.425 276.426C228.873 276.426 229.295 288.206 231.04 291.26C232.781 294.313 228.848 295.181 224.923 294.313Z"
    fill="#F2A282" />
  <path opacity="0.52"
    d="M202.799 306.442C188.542 323.075 159.032 356.795 153.864 357.127C147.001 357.565 129.73 344.917 125.064 325.286C125.064 325.286 146.758 306.961 149.125 306.961C151.484 306.961 154.306 313.506 154.306 313.506C134.341 328.706 143.489 348.4 154.583 347.971C165.677 347.541 175.634 322.42 190.006 313.506C195.719 309.959 199.878 307.774 202.799 306.442Z"
    fill="#EB835E" />
  <path
    d="M144.941 286.88C149.041 297.571 152.54 306.145 152.54 306.145L120.808 331.568C120.808 331.568 83.4225 282.606 103.529 253.104C110.795 242.438 130.233 244.943 136.202 262.834C138.705 270.332 141.983 279.157 144.941 286.88Z"
    fill="#F6CE3F" />
  <path
    d="M127.283 233.831C128.526 249.995 148.981 254.231 148.981 254.231V273.364H154.946V252.134C154.946 252.134 166.223 246.899 166.823 235.604L160.395 234.162C160.395 234.162 160.544 247.371 150.042 247.129C139.539 246.887 133.554 233.269 133.554 233.269L127.283 233.831Z"
    fill="#F39200" />
  <path
    d="M282.044 316.781C273.309 314.65 273.93 304.052 271.435 303.121C268.941 302.185 269.252 311.227 269.252 311.227C269.252 311.227 258.098 308.607 252.074 310.338C247.166 311.75 254.275 314.965 254.275 314.965C254.275 314.965 247.166 311.631 244.603 314.34C242.096 316.993 253.028 321.472 253.028 321.472C253.028 321.472 247.098 319.171 247.098 322.212C247.098 325.248 254.897 325.248 254.897 325.248C254.897 325.248 252.087 325.873 252.087 328.365C252.087 330.858 267.229 335.076 276.816 331.568C286.412 328.055 282.044 316.781 282.044 316.781Z"
    fill="#F2A282" />
  <path
    d="M328.932 234.098C345.607 233.405 365.062 249.021 362.627 277.825C360.196 306.63 342.827 336.82 334.488 338.904C326.148 340.988 276.821 336.82 276.821 335.434C276.821 334.047 281.338 313.919 281.338 313.919C281.338 313.919 314.339 310.449 317.119 307.671C319.899 304.894 329.971 268.457 332.057 260.474C334.143 252.492 328.932 234.098 328.932 234.098Z"
    fill="white" />
  <path
    d="M339.111 191.418C346.531 206.064 326.731 226.12 316.629 229.731C306.523 233.341 324.786 180.45 324.786 180.45L339.111 191.418Z"
    fill="#653931" />
  <path opacity="0.56"
    d="M332.087 217.708C333.658 213.664 334.897 208.645 334.824 202.964C334.769 198.847 334.377 194.356 333.445 189.903C335.642 190.367 337.557 190.882 339.111 191.426C343.334 199.783 338.719 209.887 332.087 217.708Z"
    fill="#1C2A3A" />
  <path
    d="M325.127 233.371L302.441 233.341C302.441 233.341 302.551 243.25 302.441 243.637C302.33 244.024 306.519 248.66 306.519 248.66C306.519 248.66 310.32 247.809 312.828 246.997C315.335 246.189 321.15 245.181 322.053 243.765C322.955 242.349 326.05 238.547 326.178 238.517C326.306 238.487 325.127 233.371 325.127 233.371Z"
    fill="#F2A282" />
  <path
    d="M298.047 234.077C294.301 250.757 302.658 251.909 302.658 251.909L299.869 278.676H304.731L310.435 253.597C310.435 253.597 329.464 251.19 333.202 234.281L325.126 233.371C325.126 233.371 319.367 249.681 308.992 246.767C298.622 243.854 304.731 229.905 304.731 229.905L298.047 234.077Z"
    fill="#5D79A8" />
  <path
    d="M276.251 192.021C274.403 211.61 279.686 228.902 292.398 232.027C300.563 234.035 306.523 233.341 306.523 233.341V238.517C306.523 241.987 309.337 244.798 312.811 244.798C316.284 244.798 319.098 241.987 319.098 238.517V231.866C327.54 222.45 328.345 216.343 328.345 216.343C328.345 216.343 336.484 188.628 328.345 184.192C320.205 179.756 285.433 180.496 285.433 180.496L276.251 192.021Z"
    fill="#F2A282" />
  <path
    d="M324.322 188.462C323.334 193.548 325.446 207.659 325.446 207.659C325.446 207.659 330.511 198.779 333.67 198.06C336.833 197.342 335.028 190.252 335.028 190.252L331.963 183.227L324.752 183.86L324.322 188.462Z"
    fill="#653931" />
  <path
    d="M328.234 204.707C330.014 198.86 334.454 196.789 337.647 199.37C342.142 203.002 337.621 218.827 328.349 216.343L328.234 204.707Z"
    fill="#F2A282" />
  <path
    d="M276.247 192.026C294.093 185.089 327.145 187.207 339.115 191.422C339.115 191.422 339.081 189.355 338.502 186.34C336.846 177.94 330.861 162.146 309.137 163.102C286.17 164.106 279.218 176.699 277.124 184.936C276.081 189.015 276.247 192.026 276.247 192.026Z"
    fill="#435472" />
  <path d="M306.523 233.341H314.71L306.523 238.517V233.341Z" fill="#EB835E" />
  <path
    d="M330.912 205.06C332.636 200.425 336.25 203.683 335.867 206.209C335.484 208.735 332.355 211.835 330.912 211.937V205.06Z"
    fill="#EB835E" />
  <path
    d="M276.247 192.026C294.093 185.089 327.145 187.207 339.115 191.422C339.115 191.422 339.081 189.355 338.502 186.34C323.237 180.739 288.784 179.642 277.124 184.932C276.081 189.015 276.247 192.026 276.247 192.026Z"
    fill="#5A6B82" />
  <path
    d="M121.992 191.418C114.572 206.064 134.371 226.12 144.473 229.731C154.58 233.341 136.317 180.45 136.317 180.45L121.992 191.418Z"
    fill="#653931" />
  <path
    d="M184.852 192.021C186.7 211.61 181.416 228.902 168.705 232.027C160.54 234.035 154.58 233.341 154.58 233.341V238.517C154.58 241.987 151.766 244.798 148.292 244.798C144.818 244.798 142.005 241.987 142.005 238.517V231.866C133.563 222.45 132.758 216.343 132.758 216.343C132.758 216.343 124.619 188.628 132.758 184.192C140.898 179.756 175.669 180.496 175.669 180.496L184.852 192.021Z"
    fill="#F2A282" />
  <path
    d="M136.781 188.462C137.769 193.548 135.657 207.659 135.657 207.659C135.657 207.659 130.591 198.779 127.428 198.06C124.265 197.342 126.07 190.252 126.07 190.252L129.135 183.227L136.347 183.86L136.781 188.462Z"
    fill="#653931" />
  <path
    d="M132.868 204.707C131.089 198.86 126.649 196.789 123.456 199.37C118.96 203.002 123.481 218.827 132.753 216.343L132.868 204.707Z"
    fill="#F2A282" />
  <path d="M154.58 233.341H146.394L154.58 238.517V233.341Z" fill="#EB835E" />
  <path
    d="M130.187 205.06C128.462 200.425 124.848 203.683 125.231 206.209C125.614 208.735 128.743 211.835 130.187 211.937V205.06Z"
    fill="#EB835E" />
  <path
    d="M143.485 195.441C149.062 200.731 167.487 198.775 162.736 188.67C166.627 194.939 175.209 197.822 182.101 195.177C187.261 193.45 189.726 187.662 185.447 183.805C179.083 176.29 170.22 170.74 160.497 169.137C137.704 166.496 116.581 179.497 143.485 195.441Z"
    fill="#653931" />
  <path opacity="0.26"
    d="M157.627 191.345C157.291 191.052 156.882 190.843 156.452 190.741C157.831 190.456 159.683 191.158 160.424 189.959C161.033 188.976 160.156 187.786 159.487 186.841C158.517 185.472 157.908 183.843 157.742 182.172C159.773 184.243 161.999 186.178 164.613 187.445C167.223 188.713 170.266 189.266 173.068 188.504C172.876 188.113 172.352 187.926 171.961 188.109C173.174 189.134 174.843 189.474 176.431 189.402C178.593 189.304 180.713 188.487 182.386 187.118C179.5 187.798 176.529 186.68 173.778 185.578C168.972 183.656 164.06 181.674 160.198 178.23C158.926 177.098 157.789 175.823 156.563 174.64C156.452 175.55 155.597 176.231 154.698 176.431C153.8 176.635 152.868 176.465 151.965 176.29C153.187 178.765 154.034 181.428 154.468 184.154C154.596 184.953 154.639 185.902 154.03 186.433C153.711 186.714 153.272 186.816 152.846 186.85C151.139 186.986 149.471 186.174 148.202 185.026C146.925 183.869 146.142 182.385 145.111 181.049C143.37 188.143 151.497 192.787 157.627 191.345Z"
    fill="#E4F3F8" />
  <path opacity="0.26"
    d="M166.482 158.624C168.065 154.746 172.122 152.011 176.315 152.007C176.354 152.313 176.396 152.619 176.435 152.93C177.542 152.824 178.729 152.734 179.696 153.279C180.253 153.593 180.679 154.091 181.045 154.614C183.544 158.191 183.374 163.081 181.824 167.16C181.147 168.942 180.109 170.749 178.359 171.51C179.721 168.465 180.487 165.157 180.602 161.822C180.632 160.946 180.585 159.985 180.002 159.335C179.117 158.344 177.269 158.373 176.779 157.14C176.66 156.834 176.648 156.49 176.49 156.205C176.201 155.677 175.536 155.507 174.949 155.388C173.851 155.167 172.608 154.971 171.701 155.626C171.25 155.949 170.952 156.443 170.598 156.868C169.24 158.514 167.039 159.237 165.528 160.747C163.859 162.418 163.008 165.055 160.794 165.88C161.382 164.621 161.978 163.175 161.441 161.895C161.062 160.985 160.177 160.381 159.262 160.015C157.282 159.216 154.953 159.33 153.063 160.321C152.97 160.083 152.876 159.845 152.782 159.607C152.05 159.233 151.182 159.671 150.484 160.104C148.721 161.189 146.959 162.273 145.196 163.358C146.482 161.487 148.019 159.785 149.751 158.318C152.071 156.349 155.264 154.742 158.087 155.886C160.552 156.885 161.807 159.62 162.454 162.197C164.311 160.27 166.171 158.339 168.027 156.413"
    fill="#E4F3F8" />
  <path d="M249.452 187.586C240.568 189.036 242.079 196.385 242.079 196.385L249.452 187.586Z" fill="#EB835E" />
  <defs>
    <linearGradient id="paint0_linear_829_397" x1="337.965" y1="79.0774" x2="337.965" y2="130.374"
      gradientUnits="userSpaceOnUse">
      <stop stop-color="#4F80C1" />
      <stop offset="1" stop-color="#4F80C1" stop-opacity="0" />
    </linearGradient>
    <linearGradient id="paint1_linear_829_397" x1="141.01" y1="105.096" x2="141.01" y2="146.438"
      gradientUnits="userSpaceOnUse">
      <stop stop-color="#4F80C1" />
      <stop offset="1" stop-color="#4F80C1" stop-opacity="0" />
    </linearGradient>
    <linearGradient id="paint2_linear_829_397" x1="426.837" y1="196.382" x2="426.837" y2="237.724"
      gradientUnits="userSpaceOnUse">
      <stop stop-color="#4F80C1" />
      <stop offset="1" stop-color="#4F80C1" stop-opacity="0" />
    </linearGradient>
    <linearGradient id="paint3_linear_829_397" x1="321.992" y1="-22.6701" x2="326.624" y2="87.2953"
      gradientUnits="userSpaceOnUse">
      <stop stop-color="#E7B140" />
      <stop offset="1" stop-color="#FFD62A" stop-opacity="0" />
    </linearGradient>
    <radialGradient id="paint4_radial_829_397" cx="0" cy="0" r="1" gradientUnits="userSpaceOnUse"
      gradientTransform="translate(241.084 250.882) scale(132.679 132.545)">
      <stop stop-color="#30327F" />
      <stop offset="0.1453" stop-color="#3A418A" />
      <stop offset="0.5622" stop-color="#5771B2" />
      <stop offset="0.7566" stop-color="#6586C4" />
    </radialGradient>
    <radialGradient id="paint5_radial_829_397" cx="0" cy="0" r="1" gradientUnits="userSpaceOnUse"
      gradientTransform="translate(240.909 269.649) scale(98.5772 98.4778)">
      <stop stop-color="#30327F" />
      <stop offset="0.1453" stop-color="#3A418A" />
      <stop offset="0.5622" stop-color="#5771B2" />
      <stop offset="0.7566" stop-color="#6586C4" />
    </radialGradient>
    <radialGradient id="paint6_radial_829_397" cx="0" cy="0" r="1" gradientUnits="userSpaceOnUse"
      gradientTransform="translate(240.91 284.806) scale(71.2771 71.2053)">
      <stop stop-color="#30327F" />
      <stop offset="0.1453" stop-color="#3A418A" />
      <stop offset="0.5622" stop-color="#5771B2" />
      <stop offset="0.7566" stop-color="#6586C4" />
    </radialGradient>
    <linearGradient id="paint7_linear_829_397" x1="336.382" y1="304.774" x2="398.404" y2="276.498"
      gradientUnits="userSpaceOnUse">
      <stop stop-color="#FBBB0E" />
      <stop offset="1" stop-color="#F6E940" />
    </linearGradient>
    <linearGradient id="paint8_linear_829_397" x1="245.542" y1="338.606" x2="241.863" y2="579.779"
      gradientUnits="userSpaceOnUse">
      <stop stop-color="#4F80C1" />
      <stop offset="1" stop-color="#4F80C1" stop-opacity="0" />
    </linearGradient>
    <linearGradient id="paint9_linear_829_397" x1="13.2635" y1="380.825" x2="104.703" y2="380.825"
      gradientUnits="userSpaceOnUse">
      <stop stop-color="#839ACF" />
      <stop offset="0.2654" stop-color="#6A90C1" />
      <stop offset="1" stop-color="#03799F" />
    </linearGradient>
    <linearGradient id="paint10_linear_829_397" x1="34.4695" y1="395.581" x2="66.2155" y2="395.581"
      gradientUnits="userSpaceOnUse">
      <stop stop-color="#FBBB0E" />
      <stop offset="1" stop-color="#F6E940" />
    </linearGradient>
    <linearGradient id="paint11_linear_829_397" x1="107.984" y1="386.331" x2="137.836" y2="386.331"
      gradientUnits="userSpaceOnUse">
      <stop stop-color="#839ACF" />
      <stop offset="0.2654" stop-color="#6A90C1" />
      <stop offset="1" stop-color="#03799F" />
    </linearGradient>
    <linearGradient id="paint12_linear_829_397" x1="82.2441" y1="390.36" x2="121.959" y2="390.36"
      gradientUnits="userSpaceOnUse">
      <stop stop-color="#ED6984" />
      <stop offset="1" stop-color="#F6B2A9" />
    </linearGradient>
    <linearGradient id="paint13_linear_829_397" x1="420.069" y1="315.061" x2="455.943" y2="315.061"
      gradientUnits="userSpaceOnUse">
      <stop stop-color="#ED6984" />
      <stop offset="1" stop-color="#F6B2A9" />
    </linearGradient>
    <linearGradient id="paint14_linear_829_397" x1="346.712" y1="386.331" x2="376.564" y2="386.331"
      gradientUnits="userSpaceOnUse">
      <stop stop-color="#839ACF" />
      <stop offset="0.2654" stop-color="#6A90C1" />
      <stop offset="1" stop-color="#03799F" />
    </linearGradient>
    <linearGradient id="paint15_linear_829_397" x1="370.011" y1="379.316" x2="419.414" y2="379.316"
      gradientUnits="userSpaceOnUse">
      <stop stop-color="#ED6984" />
      <stop offset="1" stop-color="#F6B2A9" />
    </linearGradient>
    <linearGradient id="paint16_linear_829_397" x1="458.006" y1="341.249" x2="424.887" y2="405.712"
      gradientUnits="userSpaceOnUse">
      <stop stop-color="#839ACF" />
      <stop offset="0.2654" stop-color="#6A90C1" />
      <stop offset="1" stop-color="#03799F" />
    </linearGradient>
    <linearGradient id="paint17_linear_829_397" x1="429.596" y1="390.666" x2="467.974" y2="390.666"
      gradientUnits="userSpaceOnUse">
      <stop stop-color="#FBBB0E" />
      <stop offset="1" stop-color="#F6E940" />
    </linearGradient>
    <linearGradient id="paint18_linear_829_397" x1="391.385" y1="378.299" x2="391.998" y2="437.211"
      gradientUnits="userSpaceOnUse">
      <stop stop-color="#85613D" />
      <stop offset="1" stop-color="#5F3E1B" />
    </linearGradient>
  </defs>
</svg>