<svg width="1440" height="603" viewBox="0 0 1440 603" fill="none" xmlns="http://www.w3.org/2000/svg">
  <path
    d="M1424.14 7.31685C1412.29 7.31685 1412.29 0 1400.55 0C1388.81 0 1388.71 7.31685 1376.97 7.31685C1365.12 7.31685 1365.12 0 1353.38 0C1341.53 0 1341.53 7.31685 1329.79 7.31685C1318.05 7.31685 1317.95 0 1306.21 0C1294.36 0 1294.36 7.31685 1282.62 7.31685C1270.78 7.31685 1270.78 0 1259.03 0C1247.19 0 1247.19 7.31685 1235.45 7.31685C1223.6 7.31685 1223.6 0 1211.86 0C1200.02 0 1200.02 7.31685 1188.28 7.31685C1176.43 7.31685 1176.43 0 1164.69 0C1152.84 0 1152.84 7.31685 1141.1 7.31685C1129.26 7.31685 1129.26 0 1117.52 0C1105.67 0 1105.67 7.31685 1093.93 7.31685C1082.09 7.31685 1082.09 0 1070.34 0C1058.5 0 1058.5 7.31685 1046.76 7.31685C1034.91 7.31685 1034.91 0 1023.17 0C1011.33 0 1011.33 7.31685 999.585 7.31685C987.74 7.31685 987.74 0 975.999 0C964.154 0 964.154 7.31685 952.413 7.31685C940.362 7.31685 940.362 0 928.62 0C916.776 0 916.776 7.31685 905.034 7.31685C893.189 7.31685 893.189 0 881.448 0C869.603 0 869.603 7.31685 857.861 7.31685C846.017 7.31685 846.017 0 834.275 0C822.43 0 822.43 7.31685 810.689 7.31685C798.844 7.31685 798.844 0 787.102 0C775.258 0 775.258 7.31685 763.516 7.31685C751.672 7.31685 751.672 0 739.93 0C728.188 0 728.085 7.31685 716.344 7.31685C704.499 7.31685 704.499 0 692.757 0C680.81 0 680.81 7.31685 669.068 7.31685C657.223 7.31685 657.223 0 645.482 0C633.637 0 633.637 7.31685 621.895 7.31685C610.051 7.31685 610.051 0 598.309 0C586.464 0 586.464 7.31685 574.723 7.31685C562.878 7.31685 562.878 0 551.136 0C539.292 0 539.292 7.31685 527.55 7.31685C515.706 7.31685 515.706 0 503.964 0C492.119 0 492.119 7.31685 480.378 7.31685C468.533 7.31685 468.533 0 456.791 0C444.947 0 444.947 7.31685 433.205 7.31685C421.257 7.31685 421.257 0 409.516 0C397.671 0 397.671 7.31685 385.929 7.31685C374.085 7.31685 374.085 0 362.343 0C350.499 0 350.499 7.31685 338.757 7.31685C326.912 7.31685 326.912 0 315.171 0C303.326 0 303.326 7.31685 291.584 7.31685C279.74 7.31685 279.74 0 267.998 0C256.153 0 256.153 7.31685 244.412 7.31685C232.567 7.31685 232.567 0 220.825 0C208.981 0 208.981 7.31685 197.239 7.31685C185.497 7.31685 185.394 0 173.55 0C161.705 0 161.705 7.31685 149.964 7.31685C138.119 7.31685 138.119 0 126.377 0C114.636 0 114.533 7.31685 102.791 7.31685C90.9463 7.31685 90.9463 0 79.2046 0C67.36 0 67.36 7.31685 55.6183 7.31685C43.7737 7.31685 43.7737 0 32.032 0C20.1874 0 20.1874 7.31685 8.44575 7.31685C4.94385 7.31685 2.26593 6.40224 0 5.1218V15.9142V587.177V602.726C4.73786 600.622 8.65174 595.683 16.3765 595.683C28.2212 595.683 28.2212 603 39.9628 603C51.8074 603 51.8075 595.683 63.5491 595.683C75.3937 595.683 75.3937 603 87.1354 603C98.98 603 98.98 595.683 110.722 595.683C122.463 595.683 122.566 603 134.308 603C146.153 603 146.153 595.683 157.894 595.683C169.739 595.683 169.739 603 181.481 603C193.325 603 193.325 595.683 205.067 595.683C216.912 595.683 216.912 603 228.653 603C240.498 603 240.498 595.683 252.239 595.683C264.084 595.683 264.084 603 275.826 603C287.67 603 287.67 595.683 299.412 595.683C311.257 595.683 311.257 603 322.998 603C334.843 603 334.843 595.683 346.585 595.683C358.429 595.683 358.429 603 370.171 603C382.016 603 382.016 595.683 393.757 595.683C405.602 595.683 405.602 603 417.344 603C429.188 603 429.188 595.683 440.93 595.683C452.671 595.683 452.774 603 464.516 603C476.361 603 476.361 595.683 488.102 595.683C499.947 595.683 499.947 603 511.689 603C523.533 603 523.533 595.683 535.275 595.683C547.12 595.683 547.12 603 558.861 603C570.706 603 570.706 595.683 582.448 595.683C594.292 595.683 594.292 603 606.034 603C617.879 603 617.879 595.683 629.62 595.683C641.465 595.683 641.465 603 653.206 603C665.051 603 665.051 595.683 676.793 595.683C688.637 595.683 688.637 603 700.379 603C712.224 603 712.224 595.683 723.965 595.683C735.81 595.683 735.81 603 747.552 603C759.396 603 759.396 595.683 771.138 595.683C782.88 595.683 782.983 603 794.724 603C806.569 603 806.569 595.683 818.311 595.683C830.155 595.683 830.155 603 841.897 603C853.742 603 853.741 595.683 865.483 595.683C877.328 595.683 877.328 603 889.069 603C900.914 603 900.914 595.683 912.656 595.683C924.5 595.683 924.5 603 936.242 603C947.984 603 948.087 595.683 959.828 595.683C971.673 595.683 971.673 603 983.415 603C995.259 603 995.259 595.683 1007 595.683C1018.85 595.683 1018.85 603 1030.59 603C1042.43 603 1042.43 595.683 1054.17 595.683C1066.02 595.683 1066.02 603 1077.76 603C1089.6 603 1089.6 595.683 1101.35 595.683C1113.19 595.683 1113.19 603 1124.93 603C1136.78 603 1136.78 595.683 1148.52 595.683C1160.36 595.683 1160.36 603 1172.1 603C1183.95 603 1183.95 595.683 1195.69 595.683C1207.54 595.683 1207.54 603 1219.28 603C1231.12 603 1231.12 595.683 1242.86 595.683C1254.71 595.683 1254.71 603 1266.45 603C1278.29 603 1278.29 595.683 1290.04 595.683C1301.88 595.683 1301.88 603 1313.62 603C1325.47 603 1325.47 595.683 1337.21 595.683C1349.05 595.683 1349.05 603 1360.8 603C1372.64 603 1372.64 595.683 1384.38 595.683C1396.23 595.683 1396.23 603 1407.97 603C1419.81 603 1419.81 595.683 1431.55 595.683C1434.95 595.683 1437.63 596.598 1440 597.878V587.177V15.9142V0.365843C1435.78 2.46944 1431.86 7.31685 1424.14 7.31685Z"
    fill="white" />
</svg>