<svg width="24" height="24" viewBox="0 0 24 24" fill="none" xmlns="http://www.w3.org/2000/svg">
<g clip-path="url(#clip0_131_2992)">
<path d="M8.70506 0C9.13564 0 9.58494 0 10.0155 0C10.053 0.0187062 10.1091 0.0374123 10.1466 0.0374123C11.326 0.130943 12.4492 0.448948 13.535 0.97272C15.0327 1.70226 16.2495 2.76851 17.1668 4.15277C18.3088 5.87373 18.833 7.76306 18.7394 9.82073C18.6832 11.1489 18.365 12.4022 17.7659 13.5807C17.56 13.9735 17.3353 14.3476 17.1107 14.7405C17.5787 14.834 17.9157 15.0959 18.2339 15.4139C19.8252 17.0039 21.4165 18.5939 23.0077 20.1839C23.4383 20.6142 23.8501 21.0631 23.9812 21.6804C23.9812 21.9049 23.9812 22.1107 23.9812 22.3352C23.9438 22.41 23.925 22.4661 23.8876 22.5409C23.6255 23.4014 22.858 23.9813 21.9594 23.9626C21.3603 23.9626 20.8736 23.7007 20.4617 23.2892C18.7768 21.6056 17.1107 19.9221 15.4258 18.2572C15.0888 17.9205 14.808 17.5651 14.7144 17.0787C14.6395 17.1161 14.5647 17.1535 14.5085 17.2097C12.599 18.4256 10.5397 18.9306 8.29321 18.6875C6.43985 18.4817 4.75499 17.7896 3.35093 16.5737C0.786186 14.3663 -0.318338 11.5417 0.0747979 8.13718C0.243285 6.6781 0.767466 5.33125 1.59118 4.11535C2.97651 2.09509 4.88603 0.804365 7.28229 0.24318C7.75031 0.130943 8.23704 0.0748246 8.70506 0ZM9.37901 16.3866C13.2542 16.3679 16.3806 13.2627 16.3806 9.39049C16.3806 5.4809 13.2542 2.39439 9.36029 2.39439C5.50381 2.39439 2.35873 5.53702 2.37745 9.39049C2.39617 13.2814 5.48509 16.3679 9.37901 16.3866Z" fill="#BBBBBB"/>
</g>
<defs>
<clipPath id="clip0_131_2992">
<rect width="24" height="24" fill="white"/>
</clipPath>
</defs>
</svg>
