<svg width="600" height="1200" viewBox="0 0 600 1200" fill="none" xmlns="http://www.w3.org/2000/svg"
  xmlns:xlink="http://www.w3.org/1999/xlink">
  <g clip-path="url(#clip0_725_724)">
    <rect width="600" height="1200" fill="white" />
    <path d="M600 0H0V1200H600V0Z" fill="#2C324B" />
    <g clip-path="url(#clip1_725_724)">
      <g opacity="0.25">
        <path
          d="M92.9837 861.98H93.2731C94.2586 861.98 95.0643 861.134 95.0643 860.082C95.0643 859.03 94.2586 858.2 93.2731 858.2H92.8742L91.1769 809.976H91.6384C92.6239 809.976 93.4452 809.13 93.4452 808.095C93.4452 807.059 92.6239 806.197 91.6384 806.197H90.0349V789.287H90.2227C91.0596 789.287 91.7166 788.572 91.7166 787.717V787.553C91.7166 786.674 91.0518 785.984 90.2227 785.984H89.8081C89.8081 785.984 94.024 780.487 90.645 775.934C86.8046 770.758 79.7339 768.819 76.9885 765.409L76.6834 756.929L76.3784 765.409C73.633 768.811 66.5623 770.758 62.7375 775.934C59.3429 780.495 63.5588 785.984 63.5588 785.984H63.1442C62.3229 785.984 61.6503 786.682 61.6503 787.553V787.717C61.6503 788.58 62.3308 789.287 63.1442 789.287H63.3476V806.197H61.7285C60.743 806.197 59.9373 807.059 59.9373 808.095C59.9373 809.13 60.743 809.976 61.7285 809.976H62.2056L60.5083 858.2H60.0938C59.1083 858.2 58.3026 859.047 58.3026 860.082C58.3026 861.117 59.1083 861.98 60.0938 861.98H60.3988L59.687 916.588L59.3351 943.128L59.3194 944.229L59.2099 952.89L59.1786 954.936L57.5596 1078.47H95.8542L93.015 861.98H92.9837ZM73.8129 795.983C73.8129 794.348 75.0956 792.984 76.6522 792.984C78.2087 792.984 79.507 794.348 79.507 795.983V802.483H73.8129V795.983ZM65.9756 795.983C65.9756 794.348 67.274 792.984 68.8618 792.984C70.4496 792.984 71.7011 794.348 71.7011 795.983V802.483H65.9756V795.983ZM81.7049 893.968H71.6541V880.295C71.6541 877.378 73.8911 874.995 76.6522 874.995C79.4132 874.995 81.6971 877.378 81.6971 880.295V893.968H81.7049ZM81.7049 841.964H71.6541V828.291C71.6541 825.391 73.8911 823.025 76.6522 823.025C79.4132 823.025 81.6971 825.391 81.6971 828.291V841.964H81.7049ZM87.3521 802.483H81.6267V795.983C81.6267 794.348 82.9095 792.984 84.4972 792.984C86.085 792.984 87.3521 794.348 87.3521 795.983V802.483Z"
          fill="url(#paint0_linear_725_724)" />
        <path
          d="M59.6478 944.238H58.5058C58.5058 944.238 58.8265 943.852 59.3115 943.137C61.7987 939.554 68.6192 927.911 60.8054 917.969C60.4378 917.5 60.0467 917.032 59.6634 916.588C48.8461 904.132 30.3949 899.095 23.0348 890.533L22.894 885.151C23.6683 884.872 24.208 884.165 24.208 883.302C24.208 882.44 23.6214 881.7 22.8001 881.454L22.7219 877.773C23.3398 877.559 23.7856 876.992 23.7856 876.294C23.7856 875.595 23.3085 874.995 22.6437 874.815L22.5498 871.38H22.5185C22.4716 871.364 22.4403 871.364 22.3934 871.364C22.2213 871.347 22.0414 871.347 21.8693 871.347L21.7755 874.815C21.1263 874.995 20.6335 875.579 20.6335 876.294C20.6335 877.008 21.0794 877.559 21.7129 877.773L21.619 881.454C20.8134 881.7 20.2112 882.423 20.2112 883.302C20.2112 884.182 20.7665 884.872 21.5252 885.151L21.3844 890.533C13.7583 899.399 -5.7801 904.493 -16.3706 917.969C-25.7409 929.867 -14.0867 944.238 -14.0867 944.238H-15.2286C-17.5282 944.238 -19.3819 946.086 -19.3819 948.354V948.773C-19.3819 951.041 -17.5282 952.89 -15.2286 952.89H-14.6889V994.417H-15.0096V1020.44C-8.14223 1040.87 0.750957 1060.32 11.4118 1078.47H59.3506V994.417H59.1316V952.89H59.6243C61.9239 952.89 63.7776 951.041 63.7776 948.773V948.354C63.7776 946.086 61.9239 944.238 59.6243 944.238H59.6478ZM8.0016 994.425H-8.37688V970.589C-8.37688 966.16 -4.77893 962.594 -0.320604 962.594H-0.0546703C4.40366 962.594 8.0016 966.16 8.0016 970.589V994.425ZM30.4106 994.425H14.0321V970.589C14.0321 966.16 17.63 962.594 22.0727 962.594H22.3934C26.7891 962.594 30.4027 966.16 30.4027 970.589V994.425H30.4106ZM52.8508 994.425H36.4723V970.589C36.4723 966.16 40.0703 962.594 44.4817 962.594H44.7867C49.245 962.594 52.843 966.16 52.843 970.589V994.425H52.8508Z"
          fill="url(#paint1_linear_725_724)" />
      </g>
      <g opacity="0.25">
        <path
          d="M544.644 961.164L544.629 960.301L544.519 951.641L544.504 950.556L544.152 924L543.44 869.391H543.729C544.715 869.391 545.52 868.545 545.52 867.493C545.52 866.442 544.715 865.612 543.729 865.612H543.33L541.633 817.388H542.094C543.096 817.388 543.901 816.542 543.901 815.506C543.901 814.471 543.096 813.608 542.094 813.608H540.475V796.698H540.679C541.516 796.698 542.173 795.983 542.173 795.129V794.964C542.173 794.085 541.508 793.395 540.679 793.395H540.264C540.264 793.395 544.48 787.898 541.101 783.346C537.261 778.169 530.19 776.23 527.445 772.82L527.155 764.341H527.139L526.834 772.82C524.089 776.222 517.018 778.169 513.194 783.346C509.799 787.906 514.015 793.395 514.015 793.395H513.6C512.779 793.395 512.106 794.093 512.106 794.964V795.129C512.106 795.991 512.787 796.698 513.6 796.698H513.804V813.608H512.185C511.199 813.608 510.393 814.471 510.393 815.506C510.393 816.542 511.199 817.388 512.185 817.388H512.646L510.949 865.612H510.55C509.564 865.612 508.759 866.458 508.759 867.493C508.759 868.529 509.564 869.391 510.55 869.391H510.839L508 1085.89H546.31L544.676 961.164H544.644ZM524.285 803.395C524.285 801.76 525.552 800.396 527.139 800.396C528.727 800.396 529.979 801.76 529.979 803.395V809.894H524.285V803.395ZM516.455 803.395C516.455 801.76 517.738 800.396 519.294 800.396C520.851 800.396 522.181 801.76 522.181 803.395V809.894H516.455V803.395ZM532.153 901.379H522.087V887.707C522.087 884.79 524.339 882.407 527.132 882.407C529.924 882.407 532.145 884.79 532.145 887.707V901.379H532.153ZM532.153 849.376H522.087V835.703C522.087 832.802 524.339 830.436 527.132 830.436C529.924 830.436 532.145 832.802 532.145 835.703V849.376H532.153ZM537.816 809.894H532.091V803.395C532.091 801.76 533.373 800.396 534.945 800.396C536.518 800.396 537.816 801.76 537.816 803.395V809.894Z"
          fill="url(#paint2_linear_725_724)" />
        <path
          d="M619.027 951.641H617.87C617.87 951.641 629.524 937.278 620.169 925.372C609.579 911.897 590.025 906.802 582.399 897.936L582.274 892.554C583.032 892.275 583.572 891.568 583.572 890.706C583.572 889.843 582.985 889.103 582.18 888.857L582.086 885.176C582.704 884.962 583.165 884.395 583.165 883.697C583.165 882.998 582.673 882.399 582.008 882.218L581.93 878.75C581.742 878.75 581.578 878.75 581.39 878.767C581.359 878.767 581.312 878.767 581.265 878.783H581.233L581.155 882.218C580.49 882.399 579.998 882.982 579.998 883.697C579.998 884.412 580.443 884.962 581.077 885.176L580.983 888.857C580.178 889.103 579.575 889.826 579.575 890.706C579.575 891.585 580.131 892.275 580.889 892.554L580.748 897.936C573.404 906.498 554.945 911.543 544.135 923.992C543.752 924.427 543.361 924.904 542.994 925.372C535.172 935.331 542.039 946.998 544.487 950.556C544.965 951.255 545.277 951.641 545.277 951.641H544.135C541.836 951.641 539.982 953.49 539.982 955.758V956.177C539.982 958.444 541.836 960.293 544.135 960.293H544.628V1001.82H544.425V1085.88H594.632C604.159 1069.67 612.277 1052.43 618.785 1034.37V1001.82H618.449V960.293H619.004C621.288 960.293 623.157 958.444 623.157 956.177V955.758C623.157 953.49 621.288 951.641 619.004 951.641H619.027ZM567.319 1001.83H550.94V977.992C550.94 973.563 554.554 969.997 558.997 969.997H559.302C563.713 969.997 567.311 973.563 567.311 977.992V1001.83H567.319ZM589.775 1001.83H573.396V977.992C573.396 973.563 576.994 969.997 581.405 969.997H581.711C586.169 969.997 589.767 973.563 589.767 977.992V1001.83H589.775ZM612.168 1001.83H595.789V977.992C595.789 973.563 599.387 969.997 603.846 969.997H604.112C608.57 969.997 612.168 973.563 612.168 977.992V1001.83Z"
          fill="url(#paint3_linear_725_724)" />
      </g>
      <path opacity="0.3"
        d="M421.737 861.035C420.54 841.405 407.439 824.142 391.358 813.238C372.069 800.157 348.714 797.528 329.981 784.225C317.568 775.409 306.947 764.16 302.84 750.035C308.519 749.731 312.985 746.749 312.985 743.059C312.985 739.641 309.137 736.798 304.045 736.165L303.122 711.088C304.35 711.285 305.593 711.433 306.868 711.474C314.182 711.696 320.963 709.165 326.305 704.778C323.239 705.985 319.899 706.61 316.419 706.503C302.042 706.068 290.717 693.471 291.123 678.369C291.538 663.258 303.528 651.369 317.905 651.796C319.774 651.854 321.596 652.117 323.341 652.568C319.023 649.824 313.994 648.181 308.589 648.016C291.913 647.515 277.999 661.311 277.522 678.837C277.107 694.137 287.072 707.218 300.713 710.62L299.766 736.165C294.674 736.798 290.826 739.641 290.826 743.059C290.826 746.74 295.3 749.731 300.979 750.035C296.872 764.168 286.251 775.409 273.838 784.225C255.097 797.528 231.742 800.157 212.461 813.238C196.388 824.142 183.279 841.405 182.082 861.035C181.018 878.504 190.373 896.063 204.976 905.159H184.296V917.706C184.296 917.706 206.118 924.427 205.617 945.035V1190H272.61V1099.57C272.61 1092.9 273.689 1086.49 275.66 1080.52C280.244 1066.59 289.7 1055.05 301.902 1048.16C314.103 1055.05 323.56 1066.59 328.143 1080.52C330.106 1086.49 331.194 1092.9 331.194 1099.57V1190H398.186V945.035C398.045 921.625 419.508 918.601 419.508 918.601V905.159H398.811C413.422 896.063 422.785 878.504 421.721 861.035H421.737Z"
        fill="url(#paint4_linear_725_724)" />
    </g>
    <path
      d="M563.789 860C562.566 860 561.571 859.093 561.571 857.966C561.571 762.913 500.294 676.714 405.468 638.361C382.389 629.023 358.001 622.828 332.97 619.95C313.483 617.685 293.101 617.46 273.551 619.274C246.195 621.788 219.614 628.208 194.539 638.361C99.7125 676.714 38.4354 762.913 38.4354 857.966C38.4354 859.087 37.4463 860 36.2177 860C34.9892 860 34 859.093 34 857.966C34.0063 761.301 96.3166 673.645 192.756 634.645C218.253 624.319 245.294 617.783 273.11 615.229C292.988 613.386 313.71 613.617 333.524 615.917C358.977 618.841 383.782 625.145 407.257 634.639C503.69 673.645 566 761.301 566 857.96C566 859.081 565.011 859.994 563.782 859.994L563.789 860Z"
      fill="url(#paint5_linear_725_724)" />
    <g clip-path="url(#clip2_725_724)">
      <path
        d="M162.848 162.99H175.158V136.544C175.158 122.166 166.742 117.085 158.428 117.085C154.322 117.085 151.121 118.027 148.361 119.766C145.982 121.05 143.959 122.895 142.198 125.379H141.995C139.836 120.412 134.705 117.085 128.135 117.085C119.711 117.085 115.181 121.247 112.718 124.748H112.404L111.896 118.103H101C101.313 121.969 101.415 126.298 101.415 131.463V162.99H113.734V136.437C113.734 135.154 113.945 133.855 114.462 132.754C115.579 129.632 118.771 126.298 123.487 126.298C129.363 126.298 132.123 130.741 132.123 136.992V162.99H144.433V136.073C144.433 134.789 144.755 133.399 145.051 132.306C146.397 129.062 149.589 126.298 153.898 126.298C159.944 126.298 162.839 130.741 162.839 138.199V162.99H162.848ZM210.861 147.222C210.861 147.974 210.751 148.878 210.454 149.721C209.32 152.934 205.603 155.896 200.591 155.896C196.569 155.896 193.395 153.861 193.395 149.448C193.395 142.627 201.912 140.865 210.861 141.063V147.222ZM212.495 162.99H223.908C223.391 160.225 223.188 156.261 223.188 152.197V135.982C223.188 126.222 218.565 117.085 202.521 117.085C194.622 117.085 188.179 119.029 184.462 121.057L186.918 128.424C190.304 126.503 195.443 125.113 200.371 125.113C209.21 125.113 210.548 130.012 210.548 132.944V133.68C192.04 133.589 180.864 139.301 180.864 150.625C180.864 157.461 186.511 164 196.569 164C203.046 164 208.279 161.516 211.377 158.015H211.682L212.486 162.99H212.495ZM264.589 162.99H277.213V136.354C277.213 122.158 268.187 117.077 259.441 117.077C250.696 117.077 245.692 121.338 243.533 124.847H243.228L242.61 118.103H231.511C231.824 121.969 231.917 126.298 231.917 131.463V162.99H244.659V136.62C244.659 135.336 244.777 133.961 245.175 132.944C246.513 129.533 250.01 126.305 255.039 126.305C261.905 126.305 264.597 131.204 264.597 137.653V162.997L264.589 162.99ZM319.384 143.531C319.384 144.724 319.248 145.848 318.952 146.843C317.733 151.741 313.203 154.863 308.064 154.863C300.064 154.863 295.534 148.871 295.534 140.683C295.534 132.495 300.063 125.842 308.166 125.842C313.932 125.842 317.936 129.442 319.054 133.847C319.248 134.782 319.384 135.89 319.384 136.809V143.531ZM321.12 162.982H332.422C332.211 159.937 331.999 154.962 331.999 150.352V100.079H319.392V123.002H319.164C316.903 119.66 311.967 117.077 305.101 117.077C293.079 117.077 282.597 126.032 282.699 141.048C282.699 154.863 292.156 163.992 304.085 163.992C311.358 163.992 317.445 160.863 320.4 155.888H320.595L321.128 162.982H321.12ZM340.948 162.982H353.682V118.095H340.948V162.982ZM386.972 127.688C388.513 127.688 389.63 127.855 390.655 128.06V118.095C389.63 117.92 388.911 118.095 387.691 118.095C382.332 118.095 376.482 120.313 374.01 126.662H373.603L373.188 118.095H362.19C362.512 122.151 362.597 126.495 362.597 132.571V162.982H375.237V139.756C375.237 138.465 375.449 137.265 375.635 136.247C376.778 131.189 380.884 127.688 386.955 127.688M409.247 118.095H396.505V162.982H409.247V118.095Z"
        fill="white" />
      <path
        d="M393.906 63.7596C386.235 67.7622 361.268 80.56 361.268 80.56C351.879 84.0234 344.682 79.8081 342.371 76.7245C342.261 76.5878 342.168 76.4586 342.091 76.3219L341.778 75.8586L340.186 73.5421C339.509 72.5851 338.764 71.5826 337.9 70.58C337.122 69.6838 336.275 68.818 335.344 67.9597C329.315 62.5064 319.681 58.6633 303.62 65.5217C293.909 70.4889 271.337 82.0866 271.337 82.0866H271.312C262.032 86.8412 254.785 90.5628 254.785 90.5628L263.353 99.9655C266.951 103.057 273.708 108.108 284.189 103.839C284.189 103.839 313.068 88.8311 313.187 88.7931C337.892 76.6333 350.058 88.2463 355.46 95.9933C355.638 96.2363 355.807 96.4946 355.959 96.73L355.976 96.7452C356.036 96.8364 356.078 96.9275 356.137 97.0262L356.747 97.9073C359.363 101.477 363.512 103.786 368.447 103.687C371.148 103.634 373.002 102.844 375.695 101.492L403.659 86.9475C403.659 86.9475 403.685 86.9323 403.71 86.9323C428.72 74.6206 441.09 87.0083 446.39 94.7477C446.796 95.4009 447.27 96.0541 447.761 96.6389C450.369 99.8364 453.984 101.917 458.564 101.819C461.604 101.773 465.007 100.133 465.515 99.8288L499.009 82.4664C499.009 82.4664 495.588 77.841 488.527 70.6104C482.237 64.1621 475.523 67.0863 470.206 69.4635C467.945 70.4433 451.791 78.6612 451.791 78.6612C442.918 81.9499 436.027 78.3802 433.301 75.3574C433.021 75.0384 432.776 74.7497 432.598 74.4459L431.98 73.4738C430.998 72.0155 429.838 70.3522 428.415 68.7116C427.653 67.823 426.798 66.9496 425.859 66.0989C422.133 62.7343 417.036 59.9772 409.908 59.9772C405.429 59.9772 400.154 61.0557 393.906 63.7368"
        fill="#F9B716" />
    </g>
    <path
      d="M159.75 1196.97H436.508C442.03 1185.28 444.239 1171.87 442.076 1158.16C436.354 1121.79 402.116 1096.85 365.731 1102.57C354.119 1104.4 343.335 1109.17 334.269 1116.47C312.073 1088.47 276.945 1074.64 241.418 1080.22C187.53 1088.69 150.593 1139.42 159.06 1193.3C159.259 1194.53 159.49 1195.74 159.735 1196.97H159.75Z"
      fill="url(#paint6_linear_725_724)" />
    <path
      d="M164.167 1196.97H431.705C437.519 1185.62 439.943 1172.4 437.81 1158.84C432.457 1124.77 400.504 1101.5 366.435 1106.85C353.673 1108.86 342.429 1114.6 333.639 1122.77C313.452 1094.72 278.601 1078.76 242.123 1084.5C190.52 1092.61 155.27 1141.03 163.385 1192.63C163.615 1194.09 163.891 1195.53 164.182 1196.97H164.167Z"
      fill="url(#paint7_linear_725_724)" />
    <path
      d="M-10 1035C22.16 1038.25 48.45 1064.16 51.03 1097.5C51.27 1100.6 51.29 1103.73 51.11 1106.86C71.13 1107.04 88.15 1120.97 92.33 1140.47C96.7 1138.63 101.32 1137.52 106.11 1137.15C123.88 1135.78 140.5 1145.02 148.78 1160.46C161.08 1150.78 175.76 1145.06 191.52 1143.84C229.37 1140.92 263.15 1165.26 273.51 1200.29H-10V1035Z"
      fill="url(#paint8_linear_725_724)" />
    <path
      d="M-10 1038.35C20.46 1041.57 45.25 1066.12 47.7 1097.75C48.03 1102.02 47.93 1106.22 47.45 1110.32C47.49 1110.32 47.53 1110.32 47.57 1110.31C68.87 1108.66 87.51 1124.3 89.75 1145.41C94.73 1142.68 100.35 1140.93 106.37 1140.46C124.6 1139.05 140.97 1149.73 147.61 1165.75C159.51 1155.29 174.77 1148.46 191.78 1147.14C227.76 1144.36 259.79 1167.18 270.02 1200.26H-10V1038.35Z"
      fill="url(#paint9_linear_725_724)" />
    <g filter="url(#filter0_d_725_724)">
      <path
        d="M96.6799 1160.89L95.1399 1165.62H90.1699L94.1899 1168.54L92.6599 1173.26L96.6799 1170.34L100.7 1173.26L99.1599 1168.54L103.18 1165.62H98.2099L96.6799 1160.89Z"
        fill="url(#paint10_linear_725_724)" />
      <path opacity="0.79"
        d="M90.1699 1165.62H95.1399L96.6799 1160.89L96.7499 1161.1V1170.39L96.6799 1170.34L92.6599 1173.26L94.1899 1168.54L90.1699 1165.62Z"
        fill="#B4782A" />
    </g>
    <g filter="url(#filter1_d_725_724)">
      <path
        d="M199.289 1162.66L197.749 1167.38H192.779L196.799 1170.3L195.269 1175.03L199.289 1172.11L203.309 1175.03L201.769 1170.3L205.789 1167.38H200.819L199.289 1162.66Z"
        fill="url(#paint11_linear_725_724)" />
      <path opacity="0.79"
        d="M192.779 1167.38H197.749L199.289 1162.66L199.359 1162.87V1172.16L199.289 1172.11L195.269 1175.03L196.799 1170.3L192.779 1167.38Z"
        fill="#B4782A" />
    </g>
    <g filter="url(#filter2_d_725_724)">
      <path
        d="M27.5098 1116.41L25.9698 1121.13H21.0098L25.0298 1124.05L23.4898 1128.78L27.5098 1125.86L31.5298 1128.78L29.9898 1124.05L34.0098 1121.13H29.0398L27.5098 1116.41Z"
        fill="url(#paint12_linear_725_724)" />
      <path opacity="0.79"
        d="M21.0098 1121.13H25.9698L27.5098 1116.41L27.5798 1116.62V1125.91L27.5098 1125.86L23.4898 1128.78L25.0298 1124.05L21.0098 1121.13Z"
        fill="#B4782A" />
    </g>
    <path
      d="M610.77 1035C578.61 1038.25 552.32 1064.16 549.74 1097.5C549.5 1100.6 549.48 1103.73 549.66 1106.86C529.64 1107.04 512.62 1120.97 508.44 1140.47C504.07 1138.63 499.45 1137.52 494.66 1137.15C476.89 1135.78 460.27 1145.02 451.99 1160.46C439.69 1150.78 425.01 1145.06 409.25 1143.84C371.4 1140.92 337.62 1165.26 327.26 1200.29H610.76V1035.01L610.77 1035Z"
      fill="url(#paint13_linear_725_724)" />
    <path
      d="M610.77 1038.35C580.31 1041.57 555.52 1066.12 553.07 1097.75C552.74 1102.02 552.84 1106.22 553.32 1110.32C553.28 1110.32 553.24 1110.32 553.2 1110.31C531.9 1108.66 513.26 1124.3 511.02 1145.41C506.04 1142.68 500.42 1140.93 494.4 1140.46C476.17 1139.05 459.8 1149.73 453.16 1165.75C441.26 1155.29 426 1148.46 408.99 1147.14C373.01 1144.36 340.98 1167.18 330.75 1200.26H610.76V1038.33L610.77 1038.35Z"
      fill="url(#paint14_linear_725_724)" />
    <g filter="url(#filter3_d_725_724)">
      <path
        d="M504.09 1160.89L505.63 1165.62H510.59L506.57 1168.54L508.11 1173.26L504.09 1170.34L500.07 1173.26L501.61 1168.54L497.59 1165.62H502.55L504.09 1160.89Z"
        fill="url(#paint15_linear_725_724)" />
      <path opacity="0.79"
        d="M510.59 1165.62H505.63L504.09 1160.89L504.02 1161.1V1170.39L504.09 1170.34L508.109 1173.26L506.57 1168.54L510.59 1165.62Z"
        fill="#B4782A" />
    </g>
    <g filter="url(#filter4_d_725_724)">
      <path
        d="M401.479 1162.66L403.009 1167.38H407.979L403.959 1170.3L405.499 1175.03L401.479 1172.11L397.459 1175.03L398.999 1170.3L394.979 1167.38H399.939L401.479 1162.66Z"
        fill="url(#paint16_linear_725_724)" />
      <path opacity="0.79"
        d="M407.979 1167.38H403.009L401.479 1162.66L401.409 1162.87V1172.16L401.479 1172.11L405.499 1175.03L403.959 1170.3L407.979 1167.38Z"
        fill="#B4782A" />
    </g>
    <g filter="url(#filter5_d_725_724)">
      <path
        d="M573.259 1116.41L574.789 1121.13H579.759L575.739 1124.05L577.279 1128.78L573.259 1125.86L569.239 1128.78L570.769 1124.05L566.749 1121.13H571.719L573.259 1116.41Z"
        fill="url(#paint17_linear_725_724)" />
      <path opacity="0.79"
        d="M579.759 1121.13H574.789L573.259 1116.41L573.189 1116.62V1125.91L573.259 1125.86L577.279 1128.78L575.739 1124.05L579.759 1121.13Z"
        fill="#B4782A" />
    </g>
  </g>
  <defs>
    <filter id="filter0_d_725_724" x="88.3999" y="1158.53" width="20.0898" height="19.45" filterUnits="userSpaceOnUse"
      color-interpolation-filters="sRGB">
      <feFlood flood-opacity="0" result="BackgroundImageFix" />
      <feColorMatrix in="SourceAlpha" type="matrix" values="0 0 0 0 0 0 0 0 0 0 0 0 0 0 0 0 0 0 127 0"
        result="hardAlpha" />
      <feOffset dx="1.77" dy="1.18" />
      <feGaussianBlur stdDeviation="1.77" />
      <feColorMatrix type="matrix" values="0 0 0 0 0.568627 0 0 0 0 0.513726 0 0 0 0 0.466667 0 0 0 0.3 0" />
      <feBlend mode="normal" in2="BackgroundImageFix" result="effect1_dropShadow_725_724" />
      <feBlend mode="normal" in="SourceGraphic" in2="effect1_dropShadow_725_724" result="shape" />
    </filter>
    <filter id="filter1_d_725_724" x="191.009" y="1160.3" width="20.0898" height="19.45" filterUnits="userSpaceOnUse"
      color-interpolation-filters="sRGB">
      <feFlood flood-opacity="0" result="BackgroundImageFix" />
      <feColorMatrix in="SourceAlpha" type="matrix" values="0 0 0 0 0 0 0 0 0 0 0 0 0 0 0 0 0 0 127 0"
        result="hardAlpha" />
      <feOffset dx="1.77" dy="1.18" />
      <feGaussianBlur stdDeviation="1.77" />
      <feColorMatrix type="matrix" values="0 0 0 0 0.568627 0 0 0 0 0.513726 0 0 0 0 0.466667 0 0 0 0.3 0" />
      <feBlend mode="normal" in2="BackgroundImageFix" result="effect1_dropShadow_725_724" />
      <feBlend mode="normal" in="SourceGraphic" in2="effect1_dropShadow_725_724" result="shape" />
    </filter>
    <filter id="filter2_d_725_724" x="19.2398" y="1114.05" width="20.08" height="19.45" filterUnits="userSpaceOnUse"
      color-interpolation-filters="sRGB">
      <feFlood flood-opacity="0" result="BackgroundImageFix" />
      <feColorMatrix in="SourceAlpha" type="matrix" values="0 0 0 0 0 0 0 0 0 0 0 0 0 0 0 0 0 0 127 0"
        result="hardAlpha" />
      <feOffset dx="1.77" dy="1.18" />
      <feGaussianBlur stdDeviation="1.77" />
      <feColorMatrix type="matrix" values="0 0 0 0 0.568627 0 0 0 0 0.513726 0 0 0 0 0.466667 0 0 0 0.3 0" />
      <feBlend mode="normal" in2="BackgroundImageFix" result="effect1_dropShadow_725_724" />
      <feBlend mode="normal" in="SourceGraphic" in2="effect1_dropShadow_725_724" result="shape" />
    </filter>
    <filter id="filter3_d_725_724" x="495.82" y="1158.53" width="20.08" height="19.45" filterUnits="userSpaceOnUse"
      color-interpolation-filters="sRGB">
      <feFlood flood-opacity="0" result="BackgroundImageFix" />
      <feColorMatrix in="SourceAlpha" type="matrix" values="0 0 0 0 0 0 0 0 0 0 0 0 0 0 0 0 0 0 127 0"
        result="hardAlpha" />
      <feOffset dx="1.77" dy="1.18" />
      <feGaussianBlur stdDeviation="1.77" />
      <feColorMatrix type="matrix" values="0 0 0 0 0.568627 0 0 0 0 0.513726 0 0 0 0 0.466667 0 0 0 0.3 0" />
      <feBlend mode="normal" in2="BackgroundImageFix" result="effect1_dropShadow_725_724" />
      <feBlend mode="normal" in="SourceGraphic" in2="effect1_dropShadow_725_724" result="shape" />
    </filter>
    <filter id="filter4_d_725_724" x="393.209" y="1160.3" width="20.08" height="19.45" filterUnits="userSpaceOnUse"
      color-interpolation-filters="sRGB">
      <feFlood flood-opacity="0" result="BackgroundImageFix" />
      <feColorMatrix in="SourceAlpha" type="matrix" values="0 0 0 0 0 0 0 0 0 0 0 0 0 0 0 0 0 0 127 0"
        result="hardAlpha" />
      <feOffset dx="1.77" dy="1.18" />
      <feGaussianBlur stdDeviation="1.77" />
      <feColorMatrix type="matrix" values="0 0 0 0 0.568627 0 0 0 0 0.513726 0 0 0 0 0.466667 0 0 0 0.3 0" />
      <feBlend mode="normal" in2="BackgroundImageFix" result="effect1_dropShadow_725_724" />
      <feBlend mode="normal" in="SourceGraphic" in2="effect1_dropShadow_725_724" result="shape" />
    </filter>
    <filter id="filter5_d_725_724" x="564.979" y="1114.05" width="20.0907" height="19.45" filterUnits="userSpaceOnUse"
      color-interpolation-filters="sRGB">
      <feFlood flood-opacity="0" result="BackgroundImageFix" />
      <feColorMatrix in="SourceAlpha" type="matrix" values="0 0 0 0 0 0 0 0 0 0 0 0 0 0 0 0 0 0 127 0"
        result="hardAlpha" />
      <feOffset dx="1.77" dy="1.18" />
      <feGaussianBlur stdDeviation="1.77" />
      <feColorMatrix type="matrix" values="0 0 0 0 0.568627 0 0 0 0 0.513726 0 0 0 0 0.466667 0 0 0 0.3 0" />
      <feBlend mode="normal" in2="BackgroundImageFix" result="effect1_dropShadow_725_724" />
      <feBlend mode="normal" in="SourceGraphic" in2="effect1_dropShadow_725_724" result="shape" />
    </filter>
    <pattern id="pattern0" patternContentUnits="objectBoundingBox" width="1" height="1">
      <use xlink:href="#image0_725_724" transform="matrix(0.00135135 0 0 0.00239885 0 -0.0913162)" />
    </pattern>
    <linearGradient id="paint0_linear_725_724" x1="76.6756" y1="724.917" x2="76.6756" y2="1091.55"
      gradientUnits="userSpaceOnUse">
      <stop offset="0.33" stop-color="#126BB5" />
      <stop offset="0.58" stop-color="#11558F" stop-opacity="0.59" />
      <stop offset="0.87" stop-color="#103E68" stop-opacity="0.17" />
      <stop offset="1" stop-color="#103559" stop-opacity="0" />
    </linearGradient>
    <linearGradient id="paint1_linear_725_724" x1="22.2213" y1="782.615" x2="22.2213" y2="1112.98"
      gradientUnits="userSpaceOnUse">
      <stop offset="0.33" stop-color="#126BB5" />
      <stop offset="0.58" stop-color="#11558F" stop-opacity="0.59" />
      <stop offset="0.87" stop-color="#103E68" stop-opacity="0.17" />
      <stop offset="1" stop-color="#103559" stop-opacity="0" />
    </linearGradient>
    <linearGradient id="paint2_linear_725_724" x1="527.124" y1="732.328" x2="527.124" y2="1098.96"
      gradientUnits="userSpaceOnUse">
      <stop offset="0.33" stop-color="#126BB5" />
      <stop offset="0.58" stop-color="#11558F" stop-opacity="0.59" />
      <stop offset="0.87" stop-color="#103E68" stop-opacity="0.17" />
      <stop offset="1" stop-color="#103559" stop-opacity="0" />
    </linearGradient>
    <linearGradient id="paint3_linear_725_724" x1="581.585" y1="790.026" x2="581.585" y2="1120.4"
      gradientUnits="userSpaceOnUse">
      <stop offset="0.33" stop-color="#126BB5" />
      <stop offset="0.58" stop-color="#11558F" stop-opacity="0.59" />
      <stop offset="0.87" stop-color="#103E68" stop-opacity="0.17" />
      <stop offset="1" stop-color="#103559" stop-opacity="0" />
    </linearGradient>
    <linearGradient id="paint4_linear_725_724" x1="301.917" y1="741.071" x2="301.917" y2="1136.11"
      gradientUnits="userSpaceOnUse">
      <stop offset="0.33" stop-color="#126BB5" />
      <stop offset="0.58" stop-color="#11558F" stop-opacity="0.59" />
      <stop offset="0.87" stop-color="#103E68" stop-opacity="0.17" />
      <stop offset="1" stop-color="#103559" stop-opacity="0" />
    </linearGradient>
    <linearGradient id="paint5_linear_725_724" x1="300.006" y1="852.239" x2="300.006" y2="646.757"
      gradientUnits="userSpaceOnUse">
      <stop offset="0.03" stop-color="#6F4D23" stop-opacity="0" />
      <stop offset="0.05" stop-color="#745024" stop-opacity="0.05" />
      <stop offset="0.14" stop-color="#91652C" stop-opacity="0.34" />
      <stop offset="0.23" stop-color="#A97533" stop-opacity="0.57" />
      <stop offset="0.31" stop-color="#BB8239" stop-opacity="0.76" />
      <stop offset="0.39" stop-color="#C98C3C" stop-opacity="0.89" />
      <stop offset="0.45" stop-color="#D1913F" stop-opacity="0.97" />
      <stop offset="0.5" stop-color="#D49440" />
      <stop offset="1" stop-color="#FFEE8F" />
    </linearGradient>
    <linearGradient id="paint6_linear_725_724" x1="312.371" y1="1218.67" x2="265.068" y2="1041.35"
      gradientUnits="userSpaceOnUse">
      <stop offset="0.03" stop-color="#6F4D23" />
      <stop offset="0.07" stop-color="#7A5526" />
      <stop offset="0.22" stop-color="#A17031" />
      <stop offset="0.36" stop-color="#BD8339" />
      <stop offset="0.49" stop-color="#CD8F3E" />
      <stop offset="0.58" stop-color="#D49440" />
      <stop offset="0.98" stop-color="#FDEBA9" />
      <stop offset="1" stop-color="#FFEFAE" />
    </linearGradient>
    <linearGradient id="paint7_linear_725_724" x1="283.895" y1="1067.99" x2="305.861" y2="1207.78"
      gradientUnits="userSpaceOnUse">
      <stop stop-color="#0B4B7F" />
      <stop offset="0.25" stop-color="#094474" />
      <stop offset="0.69" stop-color="#063357" />
      <stop offset="1" stop-color="#03253F" />
    </linearGradient>
    <linearGradient id="paint8_linear_725_724" x1="81.8541" y1="1208.04" x2="142.351" y2="1098.49"
      gradientUnits="userSpaceOnUse">
      <stop offset="0.03" stop-color="#6F4D23" />
      <stop offset="0.07" stop-color="#7A5526" />
      <stop offset="0.22" stop-color="#A17031" />
      <stop offset="0.36" stop-color="#BD8339" />
      <stop offset="0.49" stop-color="#CD8F3E" />
      <stop offset="0.58" stop-color="#D49440" />
      <stop offset="0.98" stop-color="#FDEBA9" />
      <stop offset="1" stop-color="#FFEFAE" />
    </linearGradient>
    <linearGradient id="paint9_linear_725_724" x1="162.484" y1="1048.6" x2="60.0196" y2="1271.79"
      gradientUnits="userSpaceOnUse">
      <stop offset="0.33" stop-color="#126BB5" />
      <stop offset="0.76" stop-color="#104677" />
      <stop offset="1" stop-color="#103559" />
    </linearGradient>
    <linearGradient id="paint10_linear_725_724" x1="96.6699" y1="1158.47" x2="96.6699" y2="1180.95"
      gradientUnits="userSpaceOnUse">
      <stop stop-color="#FFEFAE" />
      <stop offset="0.11" stop-color="#F7DF9B" />
      <stop offset="0.51" stop-color="#DEA959" />
      <stop offset="0.7" stop-color="#D49440" />
      <stop offset="0.75" stop-color="#CD8F3E" />
      <stop offset="0.81" stop-color="#BD8339" />
      <stop offset="0.88" stop-color="#A17031" />
      <stop offset="0.95" stop-color="#7A5526" />
      <stop offset="0.97" stop-color="#6F4D23" />
    </linearGradient>
    <linearGradient id="paint11_linear_725_724" x1="199.289" y1="1160.24" x2="199.289" y2="1182.71"
      gradientUnits="userSpaceOnUse">
      <stop stop-color="#FFEFAE" />
      <stop offset="0.11" stop-color="#F7DF9B" />
      <stop offset="0.51" stop-color="#DEA959" />
      <stop offset="0.7" stop-color="#D49440" />
      <stop offset="0.75" stop-color="#CD8F3E" />
      <stop offset="0.81" stop-color="#BD8339" />
      <stop offset="0.88" stop-color="#A17031" />
      <stop offset="0.95" stop-color="#7A5526" />
      <stop offset="0.97" stop-color="#6F4D23" />
    </linearGradient>
    <linearGradient id="paint12_linear_725_724" x1="27.5098" y1="1113.99" x2="27.5098" y2="1136.46"
      gradientUnits="userSpaceOnUse">
      <stop stop-color="#FFEFAE" />
      <stop offset="0.11" stop-color="#F7DF9B" />
      <stop offset="0.51" stop-color="#DEA959" />
      <stop offset="0.7" stop-color="#D49440" />
      <stop offset="0.75" stop-color="#CD8F3E" />
      <stop offset="0.81" stop-color="#BD8339" />
      <stop offset="0.88" stop-color="#A17031" />
      <stop offset="0.95" stop-color="#7A5526" />
      <stop offset="0.97" stop-color="#6F4D23" />
    </linearGradient>
    <linearGradient id="paint13_linear_725_724" x1="518.898" y1="1208.01" x2="458.401" y2="1098.46"
      gradientUnits="userSpaceOnUse">
      <stop offset="0.03" stop-color="#6F4D23" />
      <stop offset="0.07" stop-color="#7A5526" />
      <stop offset="0.22" stop-color="#A17031" />
      <stop offset="0.36" stop-color="#BD8339" />
      <stop offset="0.49" stop-color="#CD8F3E" />
      <stop offset="0.58" stop-color="#D49440" />
      <stop offset="0.98" stop-color="#FDEBA9" />
      <stop offset="1" stop-color="#FFEFAE" />
    </linearGradient>
    <linearGradient id="paint14_linear_725_724" x1="438.269" y1="1048.56" x2="540.733" y2="1271.74"
      gradientUnits="userSpaceOnUse">
      <stop offset="0.33" stop-color="#126BB5" />
      <stop offset="0.76" stop-color="#104677" />
      <stop offset="1" stop-color="#103559" />
    </linearGradient>
    <linearGradient id="paint15_linear_725_724" x1="504.1" y1="1158.47" x2="504.1" y2="1180.95"
      gradientUnits="userSpaceOnUse">
      <stop stop-color="#FFEFAE" />
      <stop offset="0.11" stop-color="#F7DF9B" />
      <stop offset="0.51" stop-color="#DEA959" />
      <stop offset="0.7" stop-color="#D49440" />
      <stop offset="0.75" stop-color="#CD8F3E" />
      <stop offset="0.81" stop-color="#BD8339" />
      <stop offset="0.88" stop-color="#A17031" />
      <stop offset="0.95" stop-color="#7A5526" />
      <stop offset="0.97" stop-color="#6F4D23" />
    </linearGradient>
    <linearGradient id="paint16_linear_725_724" x1="401.479" y1="1160.24" x2="401.479" y2="1182.71"
      gradientUnits="userSpaceOnUse">
      <stop stop-color="#FFEFAE" />
      <stop offset="0.11" stop-color="#F7DF9B" />
      <stop offset="0.51" stop-color="#DEA959" />
      <stop offset="0.7" stop-color="#D49440" />
      <stop offset="0.75" stop-color="#CD8F3E" />
      <stop offset="0.81" stop-color="#BD8339" />
      <stop offset="0.88" stop-color="#A17031" />
      <stop offset="0.95" stop-color="#7A5526" />
      <stop offset="0.97" stop-color="#6F4D23" />
    </linearGradient>
    <linearGradient id="paint17_linear_725_724" x1="573.259" y1="1113.99" x2="573.259" y2="1136.46"
      gradientUnits="userSpaceOnUse">
      <stop stop-color="#FFEFAE" />
      <stop offset="0.11" stop-color="#F7DF9B" />
      <stop offset="0.51" stop-color="#DEA959" />
      <stop offset="0.7" stop-color="#D49440" />
      <stop offset="0.75" stop-color="#CD8F3E" />
      <stop offset="0.81" stop-color="#BD8339" />
      <stop offset="0.88" stop-color="#A17031" />
      <stop offset="0.95" stop-color="#7A5526" />
      <stop offset="0.97" stop-color="#6F4D23" />
    </linearGradient>
    <clipPath id="clip0_725_724">
      <rect width="600" height="1200" fill="white" />
    </clipPath>
    <clipPath id="clip1_725_724">
      <rect width="643" height="542" fill="white" transform="translate(-20 655)" />
    </clipPath>
    <clipPath id="clip2_725_724">
      <rect width="398" height="104" fill="white" transform="translate(101 60)" />
    </clipPath>
  </defs>
</svg>