<svg width="600" height="500" viewBox="0 0 600 500" fill="none" xmlns="http://www.w3.org/2000/svg"
  xmlns:xlink="http://www.w3.org/1999/xlink">
  <g clip-path="url(#clip0_725_992)">
    <rect width="600" height="500" fill="white" />
    <path d="M600 0H0V500H600V0Z" fill="#2C324B" />
    <g clip-path="url(#clip1_725_992)">
      <g opacity="0.25">
        <path
          d="M105.426 234.292H105.696C106.616 234.292 107.368 233.54 107.368 232.604C107.368 231.669 106.616 230.931 105.696 230.931H105.324L103.74 188.045H104.171C105.091 188.045 105.857 187.293 105.857 186.372C105.857 185.451 105.091 184.684 104.171 184.684H102.675V169.646H102.85C103.631 169.646 104.244 169.01 104.244 168.25V168.104C104.244 167.322 103.624 166.709 102.85 166.709H102.463C102.463 166.709 106.397 161.82 103.244 157.772C99.6604 153.168 93.0625 151.444 90.5007 148.412L90.2161 140.871L89.9314 148.412C87.3696 151.437 80.7717 153.168 77.2027 157.772C74.0352 161.827 77.9691 166.709 77.9691 166.709H77.5823C76.8159 166.709 76.1882 167.33 76.1882 168.104V168.25C76.1882 169.018 76.8232 169.646 77.5823 169.646H77.772V184.684H76.2612C75.3416 184.684 74.5899 185.451 74.5899 186.372C74.5899 187.293 75.3416 188.045 76.2612 188.045H76.7064L75.1226 230.931H74.7358C73.8162 230.931 73.0645 231.684 73.0645 232.604C73.0645 233.525 73.8162 234.292 74.7358 234.292H75.0205L74.3563 282.855L74.0279 306.457L74.0133 307.437L73.9111 315.138L73.8819 316.958L72.3711 426.82H108.105L105.455 234.292H105.426ZM87.5375 175.601C87.5375 174.147 88.7345 172.934 90.1869 172.934C91.6393 172.934 92.8508 174.147 92.8508 175.601V181.381H87.5375V175.601ZM80.2243 175.601C80.2243 174.147 81.4359 172.934 82.9175 172.934C84.3991 172.934 85.5669 174.147 85.5669 175.601V181.381H80.2243V175.601ZM94.9017 262.739H85.5231V250.58C85.5231 247.986 87.6105 245.867 90.1869 245.867C92.7633 245.867 94.8944 247.986 94.8944 250.58V262.739H94.9017ZM94.9017 216.492H85.5231V204.333C85.5231 201.754 87.6105 199.649 90.1869 199.649C92.7633 199.649 94.8944 201.754 94.8944 204.333V216.492H94.9017ZM100.171 181.381H94.8288V175.601C94.8288 174.147 96.0257 172.934 97.5073 172.934C98.9889 172.934 100.171 174.147 100.171 175.601V181.381Z"
          fill="url(#paint0_linear_725_992)" />
        <path
          d="M74.3194 307.444H73.2538C73.2538 307.444 73.553 307.1 74.0056 306.465C76.3265 303.279 82.6908 292.925 75.3996 284.083C75.0565 283.666 74.6916 283.25 74.334 282.855C64.2401 271.778 47.0228 267.298 40.1548 259.684L40.0235 254.898C40.746 254.65 41.2496 254.021 41.2496 253.254C41.2496 252.487 40.7022 251.829 39.9359 251.61L39.8629 248.336C40.4395 248.147 40.8555 247.642 40.8555 247.021C40.8555 246.4 40.4103 245.867 39.7899 245.706L39.7023 242.652H39.6731C39.6293 242.637 39.6001 242.637 39.5564 242.637C39.3958 242.622 39.2279 242.622 39.0673 242.622L38.9798 245.706C38.374 245.867 37.9142 246.385 37.9142 247.021C37.9142 247.657 38.3302 248.147 38.9214 248.336L38.8338 251.61C38.082 251.829 37.5201 252.472 37.5201 253.254C37.5201 254.036 38.0383 254.65 38.7462 254.898L38.6148 259.684C31.4987 267.569 13.2669 272.099 3.38469 284.083C-5.35899 294.664 5.51587 307.444 5.51587 307.444H4.45028C2.3045 307.444 0.574744 309.088 0.574744 311.105V311.477C0.574744 313.494 2.3045 315.138 4.45028 315.138H4.95388V352.068H4.65464V375.21C11.0628 393.376 19.3612 410.672 29.3092 426.82H74.0421V352.068H73.8377V315.138H74.2975C76.4433 315.138 78.173 313.494 78.173 311.477V311.105C78.173 309.088 76.4433 307.444 74.2975 307.444H74.3194ZM26.127 352.076H10.8438V330.878C10.8438 326.939 14.2012 323.768 18.3613 323.768H18.6095C22.7697 323.768 26.127 326.939 26.127 330.878V352.076ZM47.0374 352.076H31.7542V330.878C31.7542 326.939 35.1115 323.768 39.2571 323.768H39.5564C43.6581 323.768 47.0301 326.939 47.0301 330.878V352.076H47.0374ZM67.977 352.076H52.6938V330.878C52.6938 326.939 56.0511 323.768 60.1675 323.768H60.4521C64.6123 323.768 67.9697 326.939 67.9697 330.878V352.076H67.977Z"
          fill="url(#paint1_linear_725_992)" />
      </g>
      <g opacity="0.25">
        <path
          d="M526.138 322.497L526.123 321.729L526.021 314.028L526.007 313.063L525.678 289.446L525.014 240.883H525.284C526.204 240.883 526.956 240.131 526.956 239.195C526.956 238.26 526.204 237.522 525.284 237.522H524.912L523.328 194.636H523.759C524.693 194.636 525.445 193.884 525.445 192.963C525.445 192.042 524.693 191.275 523.759 191.275H522.248V176.237H522.438C523.219 176.237 523.832 175.601 523.832 174.841V174.695C523.832 173.913 523.211 173.3 522.438 173.3H522.051C522.051 173.3 525.985 168.411 522.832 164.363C519.248 159.76 512.65 158.035 510.089 155.003L509.819 147.462H509.804L509.519 155.003C506.957 158.028 500.36 159.76 496.791 164.363C493.623 168.419 497.557 173.3 497.557 173.3H497.17C496.404 173.3 495.776 173.921 495.776 174.695V174.841C495.776 175.609 496.411 176.237 497.17 176.237H497.36V191.275H495.849C494.929 191.275 494.178 192.042 494.178 192.963C494.178 193.884 494.929 194.636 495.849 194.636H496.28L494.696 237.522H494.324C493.404 237.522 492.652 238.275 492.652 239.195C492.652 240.116 493.404 240.883 494.324 240.883H494.594L491.944 433.411H527.693L526.167 322.497H526.138ZM507.14 182.192C507.14 180.738 508.322 179.525 509.804 179.525C511.285 179.525 512.453 180.738 512.453 182.192V187.972H507.14V182.192ZM499.834 182.192C499.834 180.738 501.031 179.525 502.483 179.525C503.936 179.525 505.177 180.738 505.177 182.192V187.972H499.834V182.192ZM514.482 269.33H505.089V257.171C505.089 254.577 507.191 252.458 509.797 252.458C512.402 252.458 514.475 254.577 514.475 257.171V269.33H514.482ZM514.482 223.083H505.089V210.924C505.089 208.345 507.191 206.24 509.797 206.24C512.402 206.24 514.475 208.345 514.475 210.924V223.083H514.482ZM519.766 187.972H514.424V182.192C514.424 180.738 515.621 179.525 517.088 179.525C518.555 179.525 519.766 180.738 519.766 182.192V187.972Z"
          fill="url(#paint2_linear_725_992)" />
        <path
          d="M595.548 314.028H594.468C594.468 314.028 605.343 301.255 596.614 290.667C586.732 278.683 568.485 274.153 561.369 266.268L561.252 261.482C561.96 261.234 562.464 260.605 562.464 259.838C562.464 259.071 561.917 258.413 561.165 258.194L561.077 254.92C561.654 254.73 562.084 254.226 562.084 253.605C562.084 252.984 561.625 252.451 561.004 252.29L560.931 249.206C560.756 249.206 560.603 249.206 560.428 249.221C560.398 249.221 560.355 249.221 560.311 249.235H560.282L560.209 252.29C559.588 252.451 559.129 252.969 559.129 253.605C559.129 254.241 559.545 254.73 560.136 254.92L560.048 258.194C559.296 258.413 558.734 259.056 558.734 259.838C558.734 260.62 559.253 261.234 559.961 261.482L559.829 266.268C552.976 273.882 535.751 278.369 525.665 289.439C525.307 289.827 524.942 290.25 524.599 290.667C517.3 299.523 523.709 309.899 525.993 313.063C526.438 313.684 526.73 314.028 526.73 314.028H525.665C523.519 314.028 521.789 315.672 521.789 317.689V318.061C521.789 320.078 523.519 321.722 525.665 321.722H526.124V358.652H525.935V433.404H572.784C581.674 418.987 589.25 403.657 595.322 387.596V358.652H595.008V321.722H595.526C597.658 321.722 599.402 320.078 599.402 318.061V317.689C599.402 315.672 597.658 314.028 595.526 314.028H595.548ZM547.298 358.66H532.014V337.462C532.014 333.523 535.386 330.352 539.532 330.352H539.817C543.933 330.352 547.29 333.523 547.29 337.462V358.66H547.298ZM568.252 358.66H552.969V337.462C552.969 333.523 556.326 330.352 560.442 330.352H560.727C564.887 330.352 568.244 333.523 568.244 337.462V358.66H568.252ZM589.148 358.66H573.864V337.462C573.864 333.523 577.222 330.352 581.382 330.352H581.63C585.79 330.352 589.148 333.523 589.148 337.462V358.66Z"
          fill="url(#paint3_linear_725_992)" />
      </g>
      <path opacity="0.3"
        d="M420.07 233.452C418.953 215.995 406.728 200.643 391.722 190.946C373.724 179.313 351.93 176.975 334.45 165.145C322.868 157.304 312.956 147.301 309.124 134.74C314.423 134.469 318.591 131.817 318.591 128.536C318.591 125.496 315 122.968 310.248 122.405L309.387 100.104C310.533 100.279 311.693 100.411 312.883 100.447C319.707 100.645 326.035 98.3942 331.02 94.4921C328.159 95.5663 325.043 96.1216 321.795 96.0266C308.38 95.6394 297.812 84.4375 298.191 71.007C298.578 57.5692 309.767 46.9958 323.181 47.3758C324.926 47.4269 326.626 47.6608 328.254 48.0627C324.225 45.6221 319.532 44.1607 314.489 44.0145C298.928 43.5688 285.944 55.8374 285.499 71.4235C285.112 85.0294 294.41 96.6624 307.139 99.6875L306.256 122.405C301.505 122.968 297.914 125.496 297.914 128.536C297.914 131.81 302.089 134.469 307.387 134.74C303.556 147.308 293.644 157.304 282.061 165.145C264.574 176.975 242.78 179.313 224.79 190.946C209.791 200.643 197.559 215.995 196.442 233.452C195.449 248.987 204.178 264.602 217.805 272.691H198.507V283.849C198.507 283.849 218.87 289.826 218.403 308.153V526H280.915V445.585C280.915 439.652 281.923 433.952 283.762 428.64C288.039 416.254 296.863 405.988 308.249 399.864C319.634 405.988 328.458 416.254 332.735 428.64C334.567 433.952 335.582 439.652 335.582 445.585V526H398.094V308.153C397.962 287.335 417.99 284.645 417.99 284.645V272.691H398.678C412.311 264.602 421.048 248.987 420.055 233.452H420.07Z"
        fill="url(#paint4_linear_725_992)" />
    </g>
    <g clip-path="url(#clip2_725_992)">
      <path
        d="M215.917 92.915H223.464V76.7594C223.464 67.9763 218.304 64.8723 213.207 64.8723C210.69 64.8723 208.728 65.4477 207.036 66.5102C205.577 67.2943 204.337 68.4218 203.257 69.939H203.132C201.809 66.9046 198.663 64.8723 194.636 64.8723C189.471 64.8723 186.694 67.4149 185.184 69.5539H184.992L184.68 65.4941H178C178.192 67.8557 178.254 70.5004 178.254 73.6554V92.915H185.807V76.6944C185.807 75.9103 185.936 75.1169 186.253 74.4441C186.938 72.5372 188.895 70.5004 191.786 70.5004C195.388 70.5004 197.08 73.2146 197.08 77.0331V92.915H204.627V76.4717C204.627 75.6876 204.824 74.8385 205.006 74.1704C205.831 72.1892 207.788 70.5004 210.43 70.5004C214.136 70.5004 215.911 73.2146 215.911 77.7708V92.915H215.917ZM245.352 83.2829C245.352 83.7422 245.284 84.2943 245.103 84.8093C244.407 86.772 242.129 88.5815 239.056 88.5815C236.59 88.5815 234.644 87.338 234.644 84.6423C234.644 80.4758 239.866 79.3994 245.352 79.52V83.2829ZM246.354 92.915H253.35C253.034 91.2261 252.909 88.8042 252.909 86.3219V76.416C252.909 70.454 250.075 64.8723 240.239 64.8723C235.397 64.8723 231.447 66.0601 229.168 67.2989L230.673 71.7995C232.749 70.6256 235.9 69.7766 238.921 69.7766C244.34 69.7766 245.16 72.7692 245.16 74.5601V75.0102C233.813 74.9545 226.962 78.4436 226.962 85.3615C226.962 89.5373 230.424 93.5321 236.59 93.5321C240.561 93.5321 243.769 92.0149 245.668 89.8759H245.855L246.348 92.915H246.354ZM278.291 92.915H286.03V76.6434C286.03 67.9717 280.497 64.8677 275.135 64.8677C269.773 64.8677 266.706 67.4706 265.382 69.6142H265.195L264.816 65.4941H258.011C258.204 67.8557 258.261 70.5004 258.261 73.6554V92.915H266.072V76.8058C266.072 76.0217 266.145 75.1819 266.389 74.5601C267.209 72.4769 269.353 70.505 272.436 70.505C276.645 70.505 278.296 73.4976 278.296 77.4368V92.9196L278.291 92.915ZM311.884 81.028C311.884 81.7564 311.801 82.4431 311.619 83.0509C310.872 86.0435 308.095 87.9505 304.944 87.9505C300.039 87.9505 297.262 84.2897 297.262 79.288C297.262 74.2864 300.039 70.222 305.006 70.222C308.541 70.222 310.996 72.4212 311.681 75.1123C311.801 75.683 311.884 76.3604 311.884 76.9218V81.028ZM312.948 92.9103H319.877C319.747 91.0498 319.617 88.0108 319.617 85.1944V54.4839H311.889V68.4867H311.749C310.363 66.4452 307.337 64.8677 303.127 64.8677C295.757 64.8677 289.331 70.338 289.393 79.5108C289.393 87.9505 295.191 93.5274 302.504 93.5274C306.963 93.5274 310.695 91.6159 312.507 88.5768H312.626L312.953 92.9103H312.948ZM325.104 92.9103H332.91V65.4894H325.104V92.9103ZM353.319 71.3494C354.264 71.3494 354.949 71.4515 355.577 71.5768V65.4894C354.949 65.3827 354.508 65.4894 353.761 65.4894C350.475 65.4894 346.888 66.8442 345.373 70.7231H345.124L344.869 65.4894H338.127C338.324 67.9671 338.376 70.621 338.376 74.3328V92.9103H346.125V78.722C346.125 77.9332 346.255 77.2002 346.369 76.5784C347.07 73.4884 349.587 71.3494 353.309 71.3494M366.976 65.4894H359.164V92.9103H366.976V65.4894Z"
        fill="white" />
      <path
        d="M357.57 32.2967C352.868 34.7418 337.561 42.5598 337.561 42.5598C331.805 44.6755 327.393 42.1005 325.976 40.2167C325.908 40.1332 325.851 40.0543 325.805 39.9708L325.613 39.6878L324.637 38.2727C324.222 37.6881 323.765 37.0756 323.235 36.4632C322.758 35.9157 322.239 35.3868 321.668 34.8625C317.972 31.5311 312.065 29.1834 302.219 33.3731C296.266 36.4075 282.428 43.4924 282.428 43.4924H282.412C276.723 46.3969 272.28 48.6704 272.28 48.6704L277.533 54.4144C279.739 56.3027 283.881 59.3882 290.307 56.7806C290.307 56.7806 308.012 47.6125 308.084 47.5893C323.23 40.1611 330.689 47.2552 334 51.9878C334.109 52.1362 334.213 52.294 334.307 52.4378L334.317 52.4471C334.353 52.5028 334.379 52.5585 334.416 52.6188L334.789 53.157C336.393 55.3377 338.937 56.7482 341.963 56.6878C343.618 56.6554 344.755 56.1728 346.406 55.347L363.55 46.4618C363.55 46.4618 363.566 46.4526 363.581 46.4526C378.914 38.9315 386.497 46.4989 389.746 51.2269C389.996 51.6259 390.286 52.0249 390.587 52.3822C392.186 54.3355 394.402 55.6068 397.21 55.5465C399.074 55.5186 401.16 54.5164 401.472 54.3308L422.005 43.7244C422.005 43.7244 419.908 40.8988 415.579 36.4817C411.723 32.5426 407.607 34.3289 404.347 35.7811C402.961 36.3797 393.058 41.3999 393.058 41.3999C387.618 43.4089 383.393 41.2282 381.722 39.3816C381.551 39.1867 381.4 39.0104 381.291 38.8248L380.912 38.2309C380.31 37.3401 379.599 36.324 378.727 35.3218C378.26 34.7789 377.736 34.2454 377.159 33.7257C374.876 31.6703 371.751 29.9861 367.381 29.9861C364.635 29.9861 361.401 30.6449 357.57 32.2828"
        fill="#F9B716" />
    </g>
    <path
      d="M0 402.344C19.0571 404.27 34.6358 419.623 36.1646 439.379C36.3069 441.216 36.3187 443.071 36.2121 444.926C48.0753 445.033 58.1609 453.287 60.6379 464.842C63.2274 463.752 65.9651 463.094 68.8035 462.875C79.3335 462.063 89.182 467.538 94.0885 476.688C101.377 470.952 110.076 467.562 119.415 466.839C141.844 465.109 161.861 479.532 168 500.29H0V402.344Z"
      fill="url(#paint5_linear_725_992)" />
    <path
      d="M0 404.329C18.0497 406.237 32.7396 420.785 34.1914 439.528C34.3869 442.058 34.3277 444.547 34.0432 446.976C34.0669 446.976 34.0906 446.976 34.1143 446.97C46.7361 445.993 57.7817 455.26 59.109 467.77C62.06 466.152 65.3903 465.115 68.9576 464.836C79.7601 464.001 89.4605 470.329 93.3952 479.822C100.447 473.624 109.489 469.577 119.569 468.795C140.89 467.147 159.87 480.67 165.932 500.272H0V404.329Z"
      fill="url(#paint6_linear_725_992)" />
    <g filter="url(#filter0_d_725_992)">
      <path
        d="M63.216 476.943L62.3035 479.746H59.3584L61.7405 481.476L60.8339 484.273L63.216 482.543L65.5982 484.273L64.6856 481.476L67.0678 479.746H64.1227L63.216 476.943Z"
        fill="url(#paint7_linear_725_992)" />
      <path opacity="0.79"
        d="M59.3584 479.746H62.3035L63.216 476.943L63.2575 477.067V482.572L63.216 482.543L60.8339 484.273L61.7405 481.476L59.3584 479.746Z"
        fill="#B4782A" />
    </g>
    <g filter="url(#filter1_d_725_992)">
      <path
        d="M124.019 477.991L123.106 480.788H120.161L122.543 482.519L121.637 485.322L124.019 483.591L126.401 485.322L125.488 482.519L127.87 480.788H124.925L124.019 477.991Z"
        fill="url(#paint8_linear_725_992)" />
      <path opacity="0.79"
        d="M120.161 480.788H123.106L124.019 477.991L124.06 478.116V483.621L124.019 483.591L121.637 485.322L122.543 482.519L120.161 480.788Z"
        fill="#B4782A" />
    </g>
    <g filter="url(#filter2_d_725_992)">
      <path
        d="M22.2267 450.585L21.3142 453.382H18.375L20.7571 455.112L19.8446 457.915L22.2267 456.185L24.6089 457.915L23.6963 455.112L26.0784 453.382H23.1334L22.2267 450.585Z"
        fill="url(#paint9_linear_725_992)" />
      <path opacity="0.79"
        d="M18.375 453.382H21.3142L22.2267 450.585L22.2682 450.71V456.215L22.2267 456.185L19.8446 457.915L20.7571 455.112L18.375 453.382Z"
        fill="#B4782A" />
    </g>
    <path
      d="M600 402.344C580.943 404.27 565.364 419.623 563.835 439.379C563.693 441.216 563.681 443.071 563.788 444.926C551.925 445.033 541.839 453.287 539.362 464.842C536.773 463.752 534.035 463.094 531.197 462.875C520.667 462.063 510.818 467.538 505.911 476.688C498.623 470.952 489.924 467.562 480.585 466.839C458.156 465.109 438.139 479.532 432 500.29H600V402.344Z"
      fill="url(#paint10_linear_725_992)" />
    <path
      d="M600 404.329C581.95 406.237 567.26 420.785 565.809 439.528C565.613 442.058 565.672 444.547 565.957 446.976C565.933 446.976 565.909 446.976 565.886 446.97C553.264 445.993 542.218 455.26 540.891 467.77C537.94 466.152 534.61 465.115 531.042 464.836C520.24 464.001 510.539 470.329 506.605 479.822C499.553 473.624 490.511 469.577 480.431 468.795C459.11 467.147 440.13 480.67 434.068 500.272H600V404.329Z"
      fill="url(#paint11_linear_725_992)" />
    <g filter="url(#filter3_d_725_992)">
      <path
        d="M536.785 476.943L537.697 479.746H540.643L538.26 481.476L539.167 484.273L536.785 482.543L534.403 484.273L535.315 481.476L532.933 479.746H535.878L536.785 476.943Z"
        fill="url(#paint12_linear_725_992)" />
      <path opacity="0.79"
        d="M540.643 479.746H537.697L536.785 476.943L536.743 477.067V482.572L536.785 482.543L539.167 484.273L538.26 481.476L540.643 479.746Z"
        fill="#B4782A" />
    </g>
    <g filter="url(#filter4_d_725_992)">
      <path
        d="M475.981 477.991L476.894 480.788H479.839L477.457 482.519L478.363 485.322L475.981 483.591L473.599 485.322L474.512 482.519L472.13 480.788H475.075L475.981 477.991Z"
        fill="url(#paint13_linear_725_992)" />
      <path opacity="0.79"
        d="M479.839 480.788H476.894L475.981 477.991L475.94 478.116V483.621L475.981 483.591L478.363 485.322L477.457 482.519L479.839 480.788Z"
        fill="#B4782A" />
    </g>
    <g filter="url(#filter5_d_725_992)">
      <path
        d="M577.773 450.585L578.686 453.382H581.625L579.243 455.112L580.155 457.915L577.773 456.185L575.391 457.915L576.304 455.112L573.922 453.382H576.867L577.773 450.585Z"
        fill="url(#paint14_linear_725_992)" />
      <path opacity="0.79"
        d="M581.625 453.382H578.686L577.773 450.585L577.732 450.71V456.215L577.773 456.185L580.155 457.915L579.243 455.112L581.625 453.382Z"
        fill="#B4782A" />
    </g>
    <path
      d="M563.789 454C562.566 454 561.571 453.093 561.571 451.966C561.571 356.913 500.294 270.714 405.468 232.361C382.389 223.023 358.001 216.828 332.97 213.95C313.483 211.685 293.101 211.46 273.551 213.274C246.195 215.788 219.614 222.208 194.539 232.361C99.7125 270.714 38.4354 356.913 38.4354 451.966C38.4354 453.087 37.4463 454 36.2177 454C34.9892 454 34 453.093 34 451.966C34.0063 355.301 96.3166 267.645 192.756 228.645C218.253 218.319 245.294 211.783 273.11 209.229C292.988 207.386 313.71 207.617 333.524 209.917C358.977 212.841 383.782 219.145 407.257 228.639C503.69 267.645 566 355.301 566 451.96C566 453.081 565.011 453.994 563.782 453.994L563.789 454Z"
      fill="url(#paint15_linear_725_992)" />
  </g>
  <defs>
    <filter id="filter0_d_725_992" x="57.5884" y="474.583" width="14.789" height="14.4101" filterUnits="userSpaceOnUse"
      color-interpolation-filters="sRGB">
      <feFlood flood-opacity="0" result="BackgroundImageFix" />
      <feColorMatrix in="SourceAlpha" type="matrix" values="0 0 0 0 0 0 0 0 0 0 0 0 0 0 0 0 0 0 127 0"
        result="hardAlpha" />
      <feOffset dx="1.77" dy="1.18" />
      <feGaussianBlur stdDeviation="1.77" />
      <feColorMatrix type="matrix" values="0 0 0 0 0.568627 0 0 0 0 0.513726 0 0 0 0 0.466667 0 0 0 0.3 0" />
      <feBlend mode="normal" in2="BackgroundImageFix" result="effect1_dropShadow_725_992" />
      <feBlend mode="normal" in="SourceGraphic" in2="effect1_dropShadow_725_992" result="shape" />
    </filter>
    <filter id="filter1_d_725_992" x="118.391" y="475.631" width="14.789" height="14.4101" filterUnits="userSpaceOnUse"
      color-interpolation-filters="sRGB">
      <feFlood flood-opacity="0" result="BackgroundImageFix" />
      <feColorMatrix in="SourceAlpha" type="matrix" values="0 0 0 0 0 0 0 0 0 0 0 0 0 0 0 0 0 0 127 0"
        result="hardAlpha" />
      <feOffset dx="1.77" dy="1.18" />
      <feGaussianBlur stdDeviation="1.77" />
      <feColorMatrix type="matrix" values="0 0 0 0 0.568627 0 0 0 0 0.513726 0 0 0 0 0.466667 0 0 0 0.3 0" />
      <feBlend mode="normal" in2="BackgroundImageFix" result="effect1_dropShadow_725_992" />
      <feBlend mode="normal" in="SourceGraphic" in2="effect1_dropShadow_725_992" result="shape" />
    </filter>
    <filter id="filter2_d_725_992" x="16.605" y="448.225" width="14.7831" height="14.4101" filterUnits="userSpaceOnUse"
      color-interpolation-filters="sRGB">
      <feFlood flood-opacity="0" result="BackgroundImageFix" />
      <feColorMatrix in="SourceAlpha" type="matrix" values="0 0 0 0 0 0 0 0 0 0 0 0 0 0 0 0 0 0 127 0"
        result="hardAlpha" />
      <feOffset dx="1.77" dy="1.18" />
      <feGaussianBlur stdDeviation="1.77" />
      <feColorMatrix type="matrix" values="0 0 0 0 0.568627 0 0 0 0 0.513726 0 0 0 0 0.466667 0 0 0 0.3 0" />
      <feBlend mode="normal" in2="BackgroundImageFix" result="effect1_dropShadow_725_992" />
      <feBlend mode="normal" in="SourceGraphic" in2="effect1_dropShadow_725_992" result="shape" />
    </filter>
    <filter id="filter3_d_725_992" x="531.164" y="474.583" width="14.789" height="14.4101" filterUnits="userSpaceOnUse"
      color-interpolation-filters="sRGB">
      <feFlood flood-opacity="0" result="BackgroundImageFix" />
      <feColorMatrix in="SourceAlpha" type="matrix" values="0 0 0 0 0 0 0 0 0 0 0 0 0 0 0 0 0 0 127 0"
        result="hardAlpha" />
      <feOffset dx="1.77" dy="1.18" />
      <feGaussianBlur stdDeviation="1.77" />
      <feColorMatrix type="matrix" values="0 0 0 0 0.568627 0 0 0 0 0.513726 0 0 0 0 0.466667 0 0 0 0.3 0" />
      <feBlend mode="normal" in2="BackgroundImageFix" result="effect1_dropShadow_725_992" />
      <feBlend mode="normal" in="SourceGraphic" in2="effect1_dropShadow_725_992" result="shape" />
    </filter>
    <filter id="filter4_d_725_992" x="470.36" y="475.631" width="14.789" height="14.4101" filterUnits="userSpaceOnUse"
      color-interpolation-filters="sRGB">
      <feFlood flood-opacity="0" result="BackgroundImageFix" />
      <feColorMatrix in="SourceAlpha" type="matrix" values="0 0 0 0 0 0 0 0 0 0 0 0 0 0 0 0 0 0 127 0"
        result="hardAlpha" />
      <feOffset dx="1.77" dy="1.18" />
      <feGaussianBlur stdDeviation="1.77" />
      <feColorMatrix type="matrix" values="0 0 0 0 0.568627 0 0 0 0 0.513726 0 0 0 0 0.466667 0 0 0 0.3 0" />
      <feBlend mode="normal" in2="BackgroundImageFix" result="effect1_dropShadow_725_992" />
      <feBlend mode="normal" in="SourceGraphic" in2="effect1_dropShadow_725_992" result="shape" />
    </filter>
    <filter id="filter5_d_725_992" x="572.152" y="448.225" width="14.7831" height="14.4101" filterUnits="userSpaceOnUse"
      color-interpolation-filters="sRGB">
      <feFlood flood-opacity="0" result="BackgroundImageFix" />
      <feColorMatrix in="SourceAlpha" type="matrix" values="0 0 0 0 0 0 0 0 0 0 0 0 0 0 0 0 0 0 127 0"
        result="hardAlpha" />
      <feOffset dx="1.77" dy="1.18" />
      <feGaussianBlur stdDeviation="1.77" />
      <feColorMatrix type="matrix" values="0 0 0 0 0.568627 0 0 0 0 0.513726 0 0 0 0 0.466667 0 0 0 0.3 0" />
      <feBlend mode="normal" in2="BackgroundImageFix" result="effect1_dropShadow_725_992" />
      <feBlend mode="normal" in="SourceGraphic" in2="effect1_dropShadow_725_992" result="shape" />
    </filter>
    <pattern id="pattern0" patternContentUnits="objectBoundingBox" width="1" height="1">
      <use xlink:href="#image0_725_992" transform="matrix(0.00135135 0 0 0.00239885 0 -0.0913162)" />
    </pattern>
    <linearGradient id="paint0_linear_725_992" x1="90.2088" y1="112.402" x2="90.2088" y2="438.446"
      gradientUnits="userSpaceOnUse">
      <stop offset="0.33" stop-color="#126BB5" />
      <stop offset="0.58" stop-color="#11558F" stop-opacity="0.59" />
      <stop offset="0.87" stop-color="#103E68" stop-opacity="0.17" />
      <stop offset="1" stop-color="#103559" stop-opacity="0" />
    </linearGradient>
    <linearGradient id="paint1_linear_725_992" x1="39.3958" y1="163.713" x2="39.3958" y2="457.51"
      gradientUnits="userSpaceOnUse">
      <stop offset="0.33" stop-color="#126BB5" />
      <stop offset="0.58" stop-color="#11558F" stop-opacity="0.59" />
      <stop offset="0.87" stop-color="#103E68" stop-opacity="0.17" />
      <stop offset="1" stop-color="#103559" stop-opacity="0" />
    </linearGradient>
    <linearGradient id="paint2_linear_725_992" x1="509.789" y1="118.993" x2="509.789" y2="445.037"
      gradientUnits="userSpaceOnUse">
      <stop offset="0.33" stop-color="#126BB5" />
      <stop offset="0.58" stop-color="#11558F" stop-opacity="0.59" />
      <stop offset="0.87" stop-color="#103E68" stop-opacity="0.17" />
      <stop offset="1" stop-color="#103559" stop-opacity="0" />
    </linearGradient>
    <linearGradient id="paint3_linear_725_992" x1="560.61" y1="170.304" x2="560.61" y2="464.101"
      gradientUnits="userSpaceOnUse">
      <stop offset="0.33" stop-color="#126BB5" />
      <stop offset="0.58" stop-color="#11558F" stop-opacity="0.59" />
      <stop offset="0.87" stop-color="#103E68" stop-opacity="0.17" />
      <stop offset="1" stop-color="#103559" stop-opacity="0" />
    </linearGradient>
    <linearGradient id="paint4_linear_725_992" x1="308.263" y1="126.768" x2="308.263" y2="478.08"
      gradientUnits="userSpaceOnUse">
      <stop offset="0.33" stop-color="#126BB5" />
      <stop offset="0.58" stop-color="#11558F" stop-opacity="0.59" />
      <stop offset="0.87" stop-color="#103E68" stop-opacity="0.17" />
      <stop offset="1" stop-color="#103559" stop-opacity="0" />
    </linearGradient>
    <linearGradient id="paint5_linear_725_992" x1="54.4301" y1="504.884" x2="90.2791" y2="439.968"
      gradientUnits="userSpaceOnUse">
      <stop offset="0.03" stop-color="#6F4D23" />
      <stop offset="0.07" stop-color="#7A5526" />
      <stop offset="0.22" stop-color="#A17031" />
      <stop offset="0.36" stop-color="#BD8339" />
      <stop offset="0.49" stop-color="#CD8F3E" />
      <stop offset="0.58" stop-color="#D49440" />
      <stop offset="0.98" stop-color="#FDEBA9" />
      <stop offset="1" stop-color="#FFEFAE" />
    </linearGradient>
    <linearGradient id="paint6_linear_725_992" x1="102.209" y1="410.4" x2="41.4917" y2="542.656"
      gradientUnits="userSpaceOnUse">
      <stop offset="0.33" stop-color="#126BB5" />
      <stop offset="0.76" stop-color="#104677" />
      <stop offset="1" stop-color="#103559" />
    </linearGradient>
    <linearGradient id="paint7_linear_725_992" x1="63.2101" y1="475.509" x2="63.2101" y2="488.83"
      gradientUnits="userSpaceOnUse">
      <stop stop-color="#FFEFAE" />
      <stop offset="0.11" stop-color="#F7DF9B" />
      <stop offset="0.51" stop-color="#DEA959" />
      <stop offset="0.7" stop-color="#D49440" />
      <stop offset="0.75" stop-color="#CD8F3E" />
      <stop offset="0.81" stop-color="#BD8339" />
      <stop offset="0.88" stop-color="#A17031" />
      <stop offset="0.95" stop-color="#7A5526" />
      <stop offset="0.97" stop-color="#6F4D23" />
    </linearGradient>
    <linearGradient id="paint8_linear_725_992" x1="124.019" y1="476.557" x2="124.019" y2="489.873"
      gradientUnits="userSpaceOnUse">
      <stop stop-color="#FFEFAE" />
      <stop offset="0.11" stop-color="#F7DF9B" />
      <stop offset="0.51" stop-color="#DEA959" />
      <stop offset="0.7" stop-color="#D49440" />
      <stop offset="0.75" stop-color="#CD8F3E" />
      <stop offset="0.81" stop-color="#BD8339" />
      <stop offset="0.88" stop-color="#A17031" />
      <stop offset="0.95" stop-color="#7A5526" />
      <stop offset="0.97" stop-color="#6F4D23" />
    </linearGradient>
    <linearGradient id="paint9_linear_725_992" x1="22.2267" y1="449.151" x2="22.2267" y2="462.466"
      gradientUnits="userSpaceOnUse">
      <stop stop-color="#FFEFAE" />
      <stop offset="0.11" stop-color="#F7DF9B" />
      <stop offset="0.51" stop-color="#DEA959" />
      <stop offset="0.7" stop-color="#D49440" />
      <stop offset="0.75" stop-color="#CD8F3E" />
      <stop offset="0.81" stop-color="#BD8339" />
      <stop offset="0.88" stop-color="#A17031" />
      <stop offset="0.95" stop-color="#7A5526" />
      <stop offset="0.97" stop-color="#6F4D23" />
    </linearGradient>
    <linearGradient id="paint10_linear_725_992" x1="545.57" y1="504.884" x2="509.721" y2="439.968"
      gradientUnits="userSpaceOnUse">
      <stop offset="0.03" stop-color="#6F4D23" />
      <stop offset="0.07" stop-color="#7A5526" />
      <stop offset="0.22" stop-color="#A17031" />
      <stop offset="0.36" stop-color="#BD8339" />
      <stop offset="0.49" stop-color="#CD8F3E" />
      <stop offset="0.58" stop-color="#D49440" />
      <stop offset="0.98" stop-color="#FDEBA9" />
      <stop offset="1" stop-color="#FFEFAE" />
    </linearGradient>
    <linearGradient id="paint11_linear_725_992" x1="497.791" y1="410.4" x2="558.508" y2="542.656"
      gradientUnits="userSpaceOnUse">
      <stop offset="0.33" stop-color="#126BB5" />
      <stop offset="0.76" stop-color="#104677" />
      <stop offset="1" stop-color="#103559" />
    </linearGradient>
    <linearGradient id="paint12_linear_725_992" x1="536.791" y1="475.509" x2="536.791" y2="488.83"
      gradientUnits="userSpaceOnUse">
      <stop stop-color="#FFEFAE" />
      <stop offset="0.11" stop-color="#F7DF9B" />
      <stop offset="0.51" stop-color="#DEA959" />
      <stop offset="0.7" stop-color="#D49440" />
      <stop offset="0.75" stop-color="#CD8F3E" />
      <stop offset="0.81" stop-color="#BD8339" />
      <stop offset="0.88" stop-color="#A17031" />
      <stop offset="0.95" stop-color="#7A5526" />
      <stop offset="0.97" stop-color="#6F4D23" />
    </linearGradient>
    <linearGradient id="paint13_linear_725_992" x1="475.981" y1="476.557" x2="475.981" y2="489.873"
      gradientUnits="userSpaceOnUse">
      <stop stop-color="#FFEFAE" />
      <stop offset="0.11" stop-color="#F7DF9B" />
      <stop offset="0.51" stop-color="#DEA959" />
      <stop offset="0.7" stop-color="#D49440" />
      <stop offset="0.75" stop-color="#CD8F3E" />
      <stop offset="0.81" stop-color="#BD8339" />
      <stop offset="0.88" stop-color="#A17031" />
      <stop offset="0.95" stop-color="#7A5526" />
      <stop offset="0.97" stop-color="#6F4D23" />
    </linearGradient>
    <linearGradient id="paint14_linear_725_992" x1="577.773" y1="449.151" x2="577.773" y2="462.466"
      gradientUnits="userSpaceOnUse">
      <stop stop-color="#FFEFAE" />
      <stop offset="0.11" stop-color="#F7DF9B" />
      <stop offset="0.51" stop-color="#DEA959" />
      <stop offset="0.7" stop-color="#D49440" />
      <stop offset="0.75" stop-color="#CD8F3E" />
      <stop offset="0.81" stop-color="#BD8339" />
      <stop offset="0.88" stop-color="#A17031" />
      <stop offset="0.95" stop-color="#7A5526" />
      <stop offset="0.97" stop-color="#6F4D23" />
    </linearGradient>
    <linearGradient id="paint15_linear_725_992" x1="300.006" y1="446.239" x2="300.006" y2="240.757"
      gradientUnits="userSpaceOnUse">
      <stop offset="0.03" stop-color="#6F4D23" stop-opacity="0" />
      <stop offset="0.05" stop-color="#745024" stop-opacity="0.05" />
      <stop offset="0.14" stop-color="#91652C" stop-opacity="0.34" />
      <stop offset="0.23" stop-color="#A97533" stop-opacity="0.57" />
      <stop offset="0.31" stop-color="#BB8239" stop-opacity="0.76" />
      <stop offset="0.39" stop-color="#C98C3C" stop-opacity="0.89" />
      <stop offset="0.45" stop-color="#D1913F" stop-opacity="0.97" />
      <stop offset="0.5" stop-color="#D49440" />
      <stop offset="1" stop-color="#FFEE8F" />
    </linearGradient>
    <clipPath id="clip0_725_992">
      <rect width="600" height="500" fill="white" />
    </clipPath>
    <clipPath id="clip1_725_992">
      <rect width="600" height="482" fill="white" transform="translate(0 44)" />
    </clipPath>
    <clipPath id="clip2_725_992">
      <rect width="244" height="63.5321" fill="white" transform="translate(178 30)" />
    </clipPath>
  </defs>
</svg>