<svg width="640" height="200" viewBox="0 0 640 200" fill="none" xmlns="http://www.w3.org/2000/svg">
  <g clip-path="url(#clip0_525_88)">
    <rect width="640" height="200" fill="white" />
    <g clip-path="url(#clip1_525_88)">
      <path d="M646 0H-2V200H646V0Z" fill="#2C324B" />
      <g clip-path="url(#clip2_525_88)">
        <path d="M264.395 49.4421V0" stroke="url(#paint0_linear_525_88)" stroke-width="1.22" stroke-miterlimit="10" />
        <path d="M272.794 65.8247H255.701V92.3109H272.794V65.8247Z" fill="url(#paint1_linear_525_88)" />
        <path
          d="M273.953 94.3007H273.878L273.825 65.2999H273.95C274.526 65.2999 274.995 64.7902 274.995 64.1634V64.0502C274.995 63.4234 274.526 62.9137 273.95 62.9137H273.661C273.661 62.9137 276.588 58.953 274.238 55.672C271.594 51.9832 266.727 50.5749 264.787 48.1547H264.299C262.359 50.5749 257.493 51.9832 254.848 55.672C252.495 58.953 255.425 62.9137 255.425 62.9137H255.137C254.56 62.9137 254.091 63.4234 254.091 64.0502V64.1634C254.091 64.7902 254.56 65.2999 255.137 65.2999H255.274L255.196 94.3007H255.137C254.514 94.3007 254.006 94.8821 254.006 95.6033C254.006 96.3244 254.511 96.9059 255.137 96.9059H256.159C256.071 97.0795 256.015 97.2797 256.015 97.4986V97.7592C256.015 98.4048 256.47 98.9296 257.031 98.9296H272.056C272.616 98.9296 273.072 98.4048 273.072 97.7592V97.4986C273.072 97.2797 273.016 97.0795 272.927 96.9059H273.95C274.572 96.9059 275.08 96.3244 275.08 95.6033C275.08 94.8821 274.576 94.3007 273.95 94.3007H273.953ZM260.97 89.5207C260.97 89.9964 260.635 90.3853 260.219 90.3853H257.601C257.188 90.3853 256.85 90.0002 256.85 89.5207V70.178C256.85 68.9585 257.755 67.9731 258.876 67.9731H258.944C260.065 67.9731 260.97 68.9585 260.97 70.178V89.5207ZM266.599 89.5207C266.599 89.9964 266.265 90.3853 265.849 90.3853H263.231C262.818 90.3853 262.48 90.0002 262.48 89.5207V70.178C262.48 68.9585 263.385 67.9731 264.505 67.9731H264.584C265.692 67.9731 266.596 68.9585 266.596 70.178V89.5207H266.599ZM272.242 89.5207C272.242 89.9964 271.908 90.3853 271.492 90.3853H268.874C268.461 90.3853 268.123 90.0002 268.123 89.5207V70.178C268.123 68.9585 269.028 67.9731 270.135 67.9731H270.214C271.335 67.9731 272.239 68.9585 272.239 70.178V89.5207H272.242Z"
          fill="url(#paint2_linear_525_88)" />
        <path style="mix-blend-mode:multiply" opacity="0.68"
          d="M273.952 94.3006H273.877L273.825 65.2998H273.949C274.526 65.2998 274.994 64.7901 274.994 64.1634V64.0501C274.994 63.4233 274.526 62.9136 273.949 62.9136H273.661C273.661 62.9136 276.587 58.953 274.237 55.6719C271.622 52.0246 266.841 50.605 264.859 48.2339V67.9994C265.839 68.1467 266.599 69.0566 266.599 70.1742V89.5168C266.599 89.9926 266.265 90.3815 265.848 90.3815H264.855V98.9258H272.055C272.615 98.9258 273.071 98.401 273.071 97.7553V97.4948C273.071 97.2758 273.015 97.0757 272.927 96.902H273.949C274.572 96.902 275.08 96.3206 275.08 95.5994C275.08 94.8783 274.575 94.2968 273.949 94.2968L273.952 94.3006ZM272.242 89.5206C272.242 89.9964 271.908 90.3852 271.491 90.3852H268.873C268.46 90.3852 268.123 90.0001 268.123 89.5206V70.178C268.123 68.9584 269.027 67.973 270.135 67.973H270.213C271.334 67.973 272.239 68.9584 272.239 70.178V89.5206H272.242Z"
          fill="url(#paint3_linear_525_88)" />
        <path
          d="M264.394 82.3356C263.611 83.4154 263.143 84.8086 263.143 86.3264C263.143 87.8442 263.614 89.2337 264.394 90.3173C265.178 89.2375 265.646 87.8442 265.646 86.3264C265.646 84.8086 265.174 83.4192 264.394 82.3356Z"
          fill="white" />
      </g>
      <g clip-path="url(#clip3_525_88)">
        <path d="M562.6 49.4421V0" stroke="url(#paint4_linear_525_88)" stroke-width="1.22" stroke-miterlimit="10" />
        <path d="M570.999 65.8247H553.906V92.3109H570.999V65.8247Z" fill="url(#paint5_linear_525_88)" />
        <path
          d="M572.158 94.3007H572.083L572.03 65.2999H572.155C572.732 65.2999 573.2 64.7902 573.2 64.1634V64.0502C573.2 63.4234 572.732 62.9137 572.155 62.9137H571.866C571.866 62.9137 574.793 58.953 572.443 55.672C569.799 51.9832 564.932 50.5749 562.992 48.1547H562.504C560.564 50.5749 555.698 51.9832 553.053 55.672C550.7 58.953 553.63 62.9137 553.63 62.9137H553.342C552.765 62.9137 552.296 63.4234 552.296 64.0502V64.1634C552.296 64.7902 552.765 65.2999 553.342 65.2999H553.479L553.401 94.3007H553.342C552.719 94.3007 552.211 94.8821 552.211 95.6033C552.211 96.3244 552.716 96.9059 553.342 96.9059H554.364C554.276 97.0795 554.22 97.2797 554.22 97.4986V97.7592C554.22 98.4048 554.675 98.9296 555.236 98.9296H570.261C570.821 98.9296 571.277 98.4048 571.277 97.7592V97.4986C571.277 97.2797 571.221 97.0795 571.132 96.9059H572.155C572.777 96.9059 573.285 96.3244 573.285 95.6033C573.285 94.8821 572.781 94.3007 572.155 94.3007H572.158ZM559.175 89.5207C559.175 89.9964 558.84 90.3853 558.424 90.3853H555.806C555.393 90.3853 555.056 90.0002 555.056 89.5207V70.178C555.056 68.9585 555.96 67.9731 557.081 67.9731H557.15C558.27 67.9731 559.175 68.9585 559.175 70.178V89.5207ZM564.805 89.5207C564.805 89.9964 564.47 90.3853 564.054 90.3853H561.436C561.023 90.3853 560.685 90.0002 560.685 89.5207V70.178C560.685 68.9585 561.59 67.9731 562.711 67.9731H562.789C563.897 67.9731 564.801 68.9585 564.801 70.178V89.5207H564.805ZM570.448 89.5207C570.448 89.9964 570.113 90.3853 569.697 90.3853H567.079C566.666 90.3853 566.328 90.0002 566.328 89.5207V70.178C566.328 68.9585 567.233 67.9731 568.34 67.9731H568.419C569.54 67.9731 570.444 68.9585 570.444 70.178V89.5207H570.448Z"
          fill="url(#paint6_linear_525_88)" />
        <path style="mix-blend-mode:multiply" opacity="0.68"
          d="M572.157 94.3006H572.082L572.03 65.2998H572.154C572.731 65.2998 573.2 64.7901 573.2 64.1634V64.0501C573.2 63.4233 572.731 62.9136 572.154 62.9136H571.866C571.866 62.9136 574.792 58.953 572.443 55.6719C569.828 52.0246 565.046 50.605 563.064 48.2339V67.9994C564.044 68.1467 564.804 69.0566 564.804 70.1742V89.5168C564.804 89.9926 564.47 90.3815 564.053 90.3815H563.061V98.9258H570.26C570.82 98.9258 571.276 98.401 571.276 97.7553V97.4948C571.276 97.2758 571.22 97.0757 571.132 96.902H572.154C572.777 96.902 573.285 96.3206 573.285 95.5994C573.285 94.8783 572.78 94.2968 572.154 94.2968L572.157 94.3006ZM570.447 89.5206C570.447 89.9964 570.113 90.3852 569.696 90.3852H567.078C566.665 90.3852 566.328 90.0001 566.328 89.5206V70.178C566.328 68.9584 567.232 67.973 568.34 67.973H568.418C569.539 67.973 570.444 68.9584 570.444 70.178V89.5206H570.447Z"
          fill="url(#paint7_linear_525_88)" />
        <path
          d="M562.599 82.3356C561.816 83.4154 561.348 84.8086 561.348 86.3264C561.348 87.8442 561.82 89.2337 562.599 90.3173C563.383 89.2375 563.851 87.8442 563.851 86.3264C563.851 84.8086 563.379 83.4192 562.599 82.3356Z"
          fill="white" />
      </g>
    </g>
    <g clip-path="url(#clip4_525_88)">
      <mask id="mask0_525_88" style="mask-type:luminance" maskUnits="userSpaceOnUse" x="1" y="68" width="129"
        height="135">
        <path d="M1.71657 202.692L130 202.692L130 68L1.71657 68L1.71657 202.692Z" fill="white" />
      </mask>
      <g mask="url(#mask0_525_88)">
        <path
          d="M31.3349 204.208H104.773C106.24 200.952 106.822 197.215 106.253 193.399C104.737 183.263 95.6493 176.315 85.9959 177.911C82.914 178.418 80.0525 179.751 77.6482 181.782C71.7608 173.984 62.4363 170.127 53.0098 171.684C38.7123 174.043 28.9075 188.178 31.1573 203.189C31.2099 203.531 31.2724 203.87 31.3349 204.208Z"
          fill="url(#paint8_linear_525_88)" />
        <path
          d="M32.5059 204.208H103.494C105.036 201.048 105.678 197.364 105.112 193.586C103.691 184.096 95.212 177.61 86.1736 179.102C82.7892 179.662 79.8027 181.26 77.4707 183.54C72.1161 175.721 62.8673 171.28 53.1876 172.876C39.4952 175.138 30.1411 188.623 32.2921 202.999C32.3546 203.407 32.4237 203.808 32.5026 204.208H32.5059Z"
          fill="url(#paint9_linear_525_88)" />
        <path
          d="M-6.32847 108.55C9.27814 114.883 18.846 132.254 15.5603 150.094C15.2544 151.751 14.8367 153.399 14.3137 155.008C24.2829 157.988 30.8676 167.737 30.2788 178.556C32.7127 178.221 35.173 178.304 37.6134 178.798C46.6715 180.639 53.7003 187.874 55.7165 197.16C63.1826 193.858 71.3 192.974 79.3287 194.604C98.6256 198.524 112.144 216.146 112.509 235.997L-29 195.167L-6.32847 108.55Z"
          fill="url(#paint10_linear_525_88)" />
        <path
          d="M-6.78565 110.304C7.97897 116.378 16.9844 132.813 13.8664 149.748C13.4454 152.034 12.8172 154.22 12.0146 156.299C12.0344 156.303 12.0541 156.306 12.0739 156.31C22.9343 158.516 30.0946 169.395 28.312 180.78C31.1702 180.066 34.2158 179.958 37.2878 180.584C46.5827 182.473 53.2858 190.426 54.4041 199.781C61.7782 196.013 70.3331 194.632 79.003 196.39C97.3429 200.116 110.2 216.689 110.769 235.499L-29 195.167L-6.78565 110.304Z"
          fill="url(#paint11_linear_525_88)" />
        <g filter="url(#filter0_d_525_88)">
          <path
            d="M29.6501 189.89L28.2358 192.145L25.7559 191.431L27.3609 193.541L25.9466 195.796L28.3542 194.843L29.9593 196.953L29.8409 194.255L32.2485 193.306L29.7685 192.587L29.6501 189.89Z"
            fill="url(#paint12_linear_525_88)" />
          <path opacity="0.79"
            d="M25.7559 191.431L28.2358 192.145L29.6501 189.89L29.6567 190.011L28.3805 194.881L28.3542 194.843L25.9466 195.796L27.3609 193.541L25.7559 191.431Z"
            fill="#B4782A" />
        </g>
        <g filter="url(#filter1_d_525_88)">
          <path
            d="M1.22629 156.614L-0.188013 158.869L-2.66797 158.154L-1.05962 160.264L-2.47391 162.519L-0.0696065 161.566L1.53875 163.676L1.42034 160.979L3.82465 160.029L1.34469 159.311L1.22629 156.614Z"
            fill="url(#paint13_linear_525_88)" />
        </g>
      </g>
    </g>
    <g clip-path="url(#clip5_525_88)">
      <mask id="mask1_525_88" style="mask-type:luminance" maskUnits="userSpaceOnUse" x="510" y="68" width="129"
        height="135">
        <path d="M638.283 202.692L510 202.692V68L638.283 68V202.692Z" fill="white" />
      </mask>
      <g mask="url(#mask1_525_88)">
        <path
          d="M608.665 204.208H535.227C533.76 200.952 533.178 197.215 533.747 193.399C535.263 183.263 544.351 176.315 554.004 177.911C557.086 178.418 559.947 179.751 562.352 181.782C568.239 173.984 577.564 170.127 586.99 171.684C601.288 174.043 611.092 188.178 608.843 203.189C608.79 203.531 608.728 203.87 608.665 204.208Z"
          fill="url(#paint14_linear_525_88)" />
        <path
          d="M607.494 204.208H536.506C534.964 201.048 534.322 197.364 534.888 193.586C536.309 184.096 544.788 177.61 553.826 179.102C557.211 179.662 560.197 181.26 562.529 183.54C567.884 175.721 577.133 171.28 586.812 172.876C600.505 175.138 609.859 188.623 607.708 202.999C607.645 203.407 607.576 203.808 607.497 204.208H607.494Z"
          fill="url(#paint15_linear_525_88)" />
        <path
          d="M646.328 108.55C630.722 114.883 621.154 132.254 624.44 150.094C624.746 151.751 625.163 153.399 625.686 155.008C615.717 157.988 609.132 167.737 609.721 178.556C607.287 178.221 604.827 178.304 602.387 178.798C593.328 180.639 586.3 187.874 584.284 197.16C576.817 193.858 568.7 192.974 560.671 194.604C541.374 198.524 527.856 216.146 527.491 235.997L669 195.167L646.328 108.55Z"
          fill="url(#paint16_linear_525_88)" />
        <path
          d="M646.786 110.304C632.021 116.378 623.016 132.813 626.134 149.748C626.555 152.034 627.183 154.22 627.985 156.299C627.966 156.303 627.946 156.306 627.926 156.31C617.066 158.516 609.905 169.395 611.688 180.78C608.83 180.066 605.784 179.958 602.712 180.584C593.417 182.473 586.714 190.426 585.596 199.781C578.222 196.013 569.667 194.632 560.997 196.39C542.657 200.116 529.8 216.689 529.231 235.499L669 195.167L646.786 110.304Z"
          fill="url(#paint17_linear_525_88)" />
        <g filter="url(#filter2_d_525_88)">
          <path
            d="M610.35 189.89L611.764 192.145L614.244 191.431L612.639 193.541L614.053 195.796L611.646 194.843L610.041 196.953L610.159 194.255L607.752 193.306L610.231 192.587L610.35 189.89Z"
            fill="url(#paint18_linear_525_88)" />
          <path opacity="0.79"
            d="M614.244 191.431L611.764 192.145L610.35 189.89L610.343 190.011L611.619 194.881L611.646 194.843L614.053 195.796L612.639 193.541L614.244 191.431Z"
            fill="#B4782A" />
        </g>
        <g filter="url(#filter3_d_525_88)">
          <path
            d="M638.774 156.614L640.188 158.869L642.668 158.154L641.06 160.264L642.474 162.519L640.07 161.566L638.461 163.676L638.58 160.979L636.175 160.029L638.655 159.311L638.774 156.614Z"
            fill="url(#paint19_linear_525_88)" />
        </g>
      </g>
    </g>
    <g clip-path="url(#clip6_525_88)">
      <path
        d="M67.0863 113.543H71.8805V101.592C71.8805 95.0942 68.6031 92.798 65.3652 92.798C63.766 92.798 62.5197 93.2236 61.4448 94.0096C60.5182 94.5897 59.7302 95.4238 59.0444 96.5462H58.9652C58.1244 94.3014 56.1263 92.798 53.5677 92.798C50.2869 92.798 48.5229 94.6789 47.5634 96.2613H47.4414L47.2435 93.2579H43C43.122 95.005 43.1616 96.9615 43.1616 99.2955V113.543H47.9591V101.544C47.9591 100.964 48.0415 100.377 48.2426 99.879C48.6778 98.4683 49.9209 96.9615 51.7575 96.9615C54.0458 96.9615 55.1207 98.9694 55.1207 101.794V113.543H59.9148V101.379C59.9148 100.799 60.0401 100.171 60.1555 99.6765C60.6798 98.2109 61.9229 96.9615 63.6012 96.9615C65.9554 96.9615 67.083 98.9694 67.083 102.34V113.543H67.0863ZM85.785 106.418C85.785 106.758 85.7421 107.166 85.6267 107.547C85.1849 108.999 83.7374 110.338 81.7854 110.338C80.2193 110.338 78.9828 109.418 78.9828 107.423C78.9828 104.341 82.2998 103.545 85.785 103.634V106.418ZM86.4214 113.543H90.866C90.6649 112.294 90.5858 110.502 90.5858 108.666V101.338C90.5858 96.9272 88.7855 92.798 82.5372 92.798C79.4609 92.798 76.9517 93.6767 75.5042 94.5931L76.4604 97.9225C77.7793 97.0541 79.7807 96.426 81.6997 96.426C85.142 96.426 85.663 98.6399 85.663 99.9648V100.298C78.4552 100.257 74.1029 102.838 74.1029 107.955C74.1029 111.045 76.3021 114 80.2193 114C82.7416 114 84.7793 112.878 85.9861 111.295H86.1048L86.4181 113.543H86.4214ZM106.709 113.543H111.625V101.506C111.625 95.0908 108.111 92.7945 104.705 92.7945C101.299 92.7945 99.3498 94.7201 98.5091 96.3059H98.3904L98.1497 93.2579H93.827C93.949 95.005 93.9852 96.9615 93.9852 99.2955V113.543H98.9476V101.626C98.9476 101.046 98.9937 100.425 99.1487 99.9648C99.6697 98.4237 101.031 96.9649 102.99 96.9649C105.664 96.9649 106.713 99.1788 106.713 102.093V113.547L106.709 113.543ZM128.049 104.75C128.049 105.289 127.996 105.796 127.881 106.246C127.406 108.46 125.642 109.871 123.641 109.871C120.525 109.871 118.761 107.163 118.761 103.462C118.761 99.7623 120.525 96.7555 123.68 96.7555C125.926 96.7555 127.485 98.3825 127.92 100.373C127.996 100.795 128.049 101.297 128.049 101.712V104.75ZM128.725 113.54H133.127C133.044 112.164 132.962 109.915 132.962 107.832V85.1128H128.052V95.4718H127.963C127.083 93.9615 125.161 92.7945 122.487 92.7945C117.805 92.7945 113.723 96.8413 113.762 103.627C113.762 109.871 117.445 113.997 122.091 113.997C124.923 113.997 127.294 112.582 128.445 110.334H128.521L128.728 113.54H128.725ZM136.447 113.54H141.406V93.2545H136.447V113.54ZM154.371 97.5896C154.971 97.5896 155.406 97.6651 155.805 97.7578V93.2545C155.406 93.1755 155.126 93.2545 154.651 93.2545C152.564 93.2545 150.286 94.2567 149.323 97.1262H149.165L149.003 93.2545H144.72C144.845 95.0874 144.878 97.0507 144.878 99.7966V113.54H149.801V103.044C149.801 102.46 149.883 101.918 149.956 101.458C150.401 99.1719 152 97.5896 154.364 97.5896M163.046 93.2545H158.084V113.54H163.046V93.2545Z"
        fill="white" />
      <path
        d="M157.071 68.6991C154.084 70.508 144.36 76.2916 144.36 76.2916C140.703 77.8568 137.901 75.9518 137.001 74.5582C136.958 74.4964 136.921 74.4381 136.892 74.3763L136.77 74.1669L136.15 73.12C135.886 72.6875 135.596 72.2345 135.26 71.7814C134.956 71.3764 134.627 70.9851 134.264 70.5972C131.916 68.1327 128.164 66.3959 121.909 69.4954C118.127 71.7402 109.337 76.9815 109.337 76.9815H109.327C105.713 79.1302 102.891 80.8121 102.891 80.8121L106.227 85.0614C107.629 86.4584 110.26 88.7409 114.342 86.8119C114.342 86.8119 125.589 80.0295 125.635 80.0123C135.256 74.517 139.994 79.7652 142.098 83.2662C142.167 83.3761 142.233 83.4928 142.293 83.5992L142.299 83.606C142.322 83.6472 142.339 83.6884 142.362 83.733L142.599 84.1312C143.618 85.7444 145.234 86.7879 147.156 86.7433C148.208 86.7192 148.93 86.3623 149.979 85.7513L160.869 79.1782C160.869 79.1782 160.879 79.1714 160.889 79.1714C170.629 73.6074 175.446 79.2057 177.51 82.7033C177.669 82.9985 177.853 83.2937 178.045 83.558C179.06 85.003 180.468 85.9435 182.252 85.8989C183.436 85.8783 184.761 85.1369 184.959 84.9996L198.003 77.1531C198.003 77.1531 196.671 75.0628 193.921 71.7951C191.471 68.881 188.856 70.2025 186.786 71.2768C185.905 71.7196 179.614 75.4335 179.614 75.4335C176.159 76.9197 173.475 75.3065 172.413 73.9404C172.304 73.7962 172.209 73.6658 172.139 73.5285L171.899 73.0891C171.516 72.4301 171.064 71.6784 170.51 70.937C170.214 70.5354 169.881 70.1407 169.515 69.7563C168.064 68.2357 166.079 66.9897 163.303 66.9897C161.558 66.9897 159.504 67.4771 157.071 68.6888"
        fill="#F9B716" />
    </g>
    <g clip-path="url(#clip7_525_88)">
      <path d="M227.5 34V34.3432" stroke="white" stroke-miterlimit="10" />
      <path d="M227.5 35.0295V165.314" stroke="white" stroke-miterlimit="10" />
      <path d="M227.5 165.657V166" stroke="white" stroke-miterlimit="10" />
    </g>
    <g clip-path="url(#clip8_525_88)">
      <g opacity="0.25">
        <path
          d="M324.443 120.014H324.565C324.979 120.014 325.317 119.658 325.317 119.215C325.317 118.773 324.979 118.424 324.565 118.424H324.397L323.685 98.1377H323.878C324.292 98.1377 324.637 97.7817 324.637 97.3461C324.637 96.9106 324.292 96.5477 323.878 96.5477H323.205V89.4343H323.284C323.635 89.4343 323.911 89.1335 323.911 88.7741V88.7049C323.911 88.3351 323.632 88.0448 323.284 88.0448H323.11C323.11 88.0448 324.88 85.7324 323.461 83.8175C321.849 81.6399 318.879 80.8242 317.727 79.3897L317.599 75.8226L317.471 79.3897C316.318 80.8207 313.349 81.6399 311.743 83.8175C310.317 85.7358 312.087 88.0448 312.087 88.0448H311.913C311.569 88.0448 311.286 88.3386 311.286 88.7049V88.7741C311.286 89.137 311.572 89.4343 311.913 89.4343H311.999V96.5477H311.319C310.905 96.5477 310.567 96.9106 310.567 97.3461C310.567 97.7817 310.905 98.1377 311.319 98.1377H311.519L310.807 118.424H310.632C310.219 118.424 309.88 118.78 309.88 119.215C309.88 119.651 310.219 120.014 310.632 120.014H310.761L310.462 142.986L310.314 154.15L310.307 154.613L310.261 158.256L310.248 159.117L309.568 211.085H325.649L324.456 120.014H324.443ZM316.393 92.2513C316.393 91.5635 316.932 90.9897 317.585 90.9897C318.239 90.9897 318.784 91.5635 318.784 92.2513V94.9854H316.393V92.2513ZM313.102 92.2513C313.102 91.5635 313.648 90.9897 314.314 90.9897C314.981 90.9897 315.506 91.5635 315.506 92.2513V94.9854H313.102V92.2513ZM319.707 133.47H315.487V127.718C315.487 126.491 316.426 125.489 317.585 125.489C318.745 125.489 319.704 126.491 319.704 127.718V133.47H319.707ZM319.707 111.594H315.487V105.842C315.487 104.622 316.426 103.627 317.585 103.627C318.745 103.627 319.704 104.622 319.704 105.842V111.594H319.707ZM322.078 94.9854H319.674V92.2513C319.674 91.5635 320.213 90.9897 320.88 90.9897C321.546 90.9897 322.078 91.5635 322.078 92.2513V94.9854Z"
          fill="url(#paint20_linear_525_88)" />
        <path
          d="M310.445 154.617H309.966C309.966 154.617 310.1 154.454 310.304 154.153C311.349 152.646 314.212 147.749 310.931 143.566C310.777 143.369 310.613 143.172 310.452 142.985C305.91 137.745 298.162 135.627 295.071 132.025L295.012 129.761C295.337 129.643 295.564 129.346 295.564 128.983C295.564 128.62 295.318 128.309 294.973 128.206L294.94 126.657C295.199 126.567 295.387 126.329 295.387 126.035C295.387 125.741 295.186 125.489 294.907 125.413L294.868 123.968H294.855C294.835 123.961 294.822 123.961 294.802 123.961C294.73 123.954 294.654 123.954 294.582 123.954L294.543 125.413C294.27 125.489 294.063 125.734 294.063 126.035C294.063 126.336 294.25 126.567 294.516 126.657L294.477 128.206C294.139 128.309 293.886 128.613 293.886 128.983C293.886 129.353 294.119 129.643 294.437 129.761L294.378 132.025C291.176 135.755 282.972 137.898 278.525 143.566C274.59 148.571 279.484 154.617 279.484 154.617H279.004C278.039 154.617 277.26 155.394 277.26 156.348V156.525C277.26 157.479 278.039 158.256 279.004 158.256H279.231V175.725H279.096V186.672C281.98 195.265 285.714 203.446 290.191 211.085H310.321V175.725H310.229V158.256H310.435C311.401 158.256 312.179 157.479 312.179 156.525V156.348C312.179 155.394 311.401 154.617 310.435 154.617H310.445ZM288.759 175.729H281.881V165.702C281.881 163.838 283.392 162.338 285.264 162.338H285.376C287.248 162.338 288.759 163.838 288.759 165.702V175.729ZM298.168 175.729H291.291V165.702C291.291 163.838 292.802 162.338 294.667 162.338H294.802C296.648 162.338 298.165 163.838 298.165 165.702V175.729H298.168ZM307.591 175.729H300.714V165.702C300.714 163.838 302.225 162.338 304.077 162.338H304.205C306.077 162.338 307.588 163.838 307.588 165.702V175.729H307.591Z"
          fill="url(#paint21_linear_525_88)" />
      </g>
      <g opacity="0.25">
        <path
          d="M513.762 161.737L513.756 161.374L513.71 157.731L513.703 157.275L513.555 146.103L513.256 123.131H513.378C513.792 123.131 514.13 122.775 514.13 122.333C514.13 121.891 513.792 121.541 513.378 121.541H513.21L512.498 101.255H512.691C513.112 101.255 513.45 100.899 513.45 100.464C513.45 100.028 513.112 99.6654 512.691 99.6654H512.012V92.5519H512.097C512.448 92.5519 512.724 92.2512 512.724 91.8917V91.8226C512.724 91.4528 512.445 91.1624 512.097 91.1624H511.923C511.923 91.1624 513.693 88.85 512.274 86.9352C510.662 84.7576 507.693 83.9418 506.54 82.5074L506.418 78.9403H506.412L506.284 82.5074C505.131 83.9384 502.162 84.7576 500.556 86.9352C499.13 88.8535 500.901 91.1624 500.901 91.1624H500.727C500.382 91.1624 500.099 91.4562 500.099 91.8226V91.8917C500.099 92.2547 500.385 92.5519 500.727 92.5519H500.812V99.6654H500.132C499.718 99.6654 499.38 100.028 499.38 100.464C499.38 100.899 499.718 101.255 500.132 101.255H500.326L499.613 121.541H499.446C499.032 121.541 498.694 121.897 498.694 122.333C498.694 122.769 499.032 123.131 499.446 123.131H499.567L498.375 214.203H514.462L513.775 161.737H513.762ZM505.213 95.369C505.213 94.6811 505.745 94.1074 506.412 94.1074C507.079 94.1074 507.604 94.6811 507.604 95.369V98.1031H505.213V95.369ZM501.925 95.369C501.925 94.6811 502.464 94.1074 503.118 94.1074C503.771 94.1074 504.33 94.6811 504.33 95.369V98.1031H501.925V95.369ZM508.517 136.588H504.29V130.836C504.29 129.609 505.236 128.607 506.409 128.607C507.581 128.607 508.514 129.609 508.514 130.836V136.588H508.517ZM508.517 114.711H504.29V108.96C504.29 107.74 505.236 106.744 506.409 106.744C507.581 106.744 508.514 107.74 508.514 108.96V114.711H508.517ZM510.895 98.1031H508.491V95.369C508.491 94.6811 509.029 94.1074 509.69 94.1074C510.35 94.1074 510.895 94.6811 510.895 95.369V98.1031Z"
          fill="url(#paint22_linear_525_88)" />
        <path
          d="M544.997 157.731H544.51C544.51 157.731 549.404 151.689 545.476 146.68C541.029 141.012 532.818 138.869 529.616 135.139L529.563 132.875C529.882 132.758 530.109 132.46 530.109 132.098C530.109 131.735 529.862 131.424 529.524 131.32L529.485 129.771C529.744 129.681 529.938 129.443 529.938 129.149C529.938 128.855 529.731 128.603 529.452 128.527L529.419 127.068C529.34 127.068 529.271 127.068 529.192 127.075C529.179 127.075 529.159 127.075 529.14 127.082H529.127L529.094 128.527C528.815 128.603 528.608 128.848 528.608 129.149C528.608 129.45 528.795 129.681 529.061 129.771L529.021 131.32C528.683 131.424 528.43 131.728 528.43 132.098C528.43 132.467 528.663 132.758 528.982 132.875L528.923 135.139C525.839 138.741 518.088 140.863 513.549 146.1C513.388 146.283 513.224 146.483 513.069 146.68C509.785 150.87 512.669 155.778 513.697 157.275C513.897 157.568 514.028 157.731 514.028 157.731H513.549C512.583 157.731 511.805 158.509 511.805 159.463V159.639C511.805 160.593 512.583 161.371 513.549 161.371H513.756V178.84H513.67V214.199H534.753C538.753 207.38 542.162 200.128 544.895 192.531V178.84H544.754V161.371H544.987C545.946 161.371 546.731 160.593 546.731 159.639V159.463C546.731 158.509 545.946 157.731 544.987 157.731H544.997ZM523.284 178.843H516.406V168.816C516.406 166.953 517.924 165.453 519.789 165.453H519.917C521.77 165.453 523.28 166.953 523.28 168.816V178.843H523.284ZM532.713 178.843H525.836V168.816C525.836 166.953 527.346 165.453 529.199 165.453H529.327C531.199 165.453 532.71 166.953 532.71 168.816V178.843H532.713ZM542.116 178.843H535.239V168.816C535.239 166.953 536.75 165.453 538.622 165.453H538.733C540.605 165.453 542.116 166.953 542.116 168.816V178.843Z"
          fill="url(#paint23_linear_525_88)" />
      </g>
      <path opacity="0.3"
        d="M466.03 119.616C465.528 111.359 460.027 104.097 453.274 99.5099C445.175 94.0071 435.368 92.9011 427.502 87.305C422.289 83.5962 417.829 78.8643 416.105 72.9226C418.489 72.7947 420.365 71.54 420.365 69.988C420.365 68.5502 418.749 67.3542 416.611 67.0881L416.223 56.5389C416.739 56.6218 417.261 56.684 417.796 56.7013C420.867 56.7947 423.715 55.7301 425.958 53.8843C424.67 54.3924 423.268 54.6551 421.807 54.6102C415.77 54.427 411.014 49.1282 411.185 42.7752C411.359 36.4187 416.394 31.4172 422.431 31.5969C423.216 31.6211 423.981 31.7317 424.713 31.9218C422.9 30.7673 420.788 30.076 418.519 30.0069C411.517 29.7961 405.674 35.5995 405.473 42.9722C405.299 49.4081 409.484 54.9109 415.212 56.3419L414.814 67.0881C412.676 67.3542 411.06 68.5502 411.06 69.988C411.06 71.5366 412.939 72.7947 415.323 72.9226C413.599 78.8678 409.139 83.5962 403.927 87.305C396.057 92.9011 386.25 94.0071 378.154 99.5099C371.405 104.097 365.9 111.359 365.398 119.616C364.951 126.965 368.879 134.351 375.011 138.178H366.327V143.456C366.327 143.456 375.491 146.283 375.28 154.952V258H403.411V219.961C403.411 217.155 403.864 214.459 404.692 211.946C406.616 206.087 410.587 201.231 415.711 198.334C420.834 201.231 424.805 206.087 426.73 211.946C427.554 214.459 428.011 217.155 428.011 219.961V258H456.141V154.952C456.082 145.104 465.094 143.832 465.094 143.832V138.178H456.404C462.539 134.351 466.47 126.965 466.024 119.616H466.03Z"
        fill="url(#paint24_linear_525_88)" />
    </g>
    <g clip-path="url(#clip9_525_88)">
      <path
        d="M552.845 163C552.208 163 551.69 162.458 551.69 161.784C551.69 104.984 519.784 53.4732 470.411 30.5548C458.394 24.9745 445.696 21.2727 432.663 19.5531C422.516 18.1994 411.904 18.0648 401.725 19.149C387.481 20.6512 373.641 24.4876 360.585 30.5548C311.211 53.4732 279.306 104.984 279.306 161.784C279.306 162.454 278.79 163 278.151 163C277.511 163 276.996 162.458 276.996 161.784C276.999 104.02 309.443 51.6396 359.657 28.3344C372.932 22.1636 387.012 18.2581 401.495 16.7319C411.845 15.6303 422.634 15.7684 432.951 17.1428C446.204 18.8901 459.119 22.6574 471.342 28.3309C521.553 51.6396 553.996 104.02 553.996 161.781C553.996 162.451 553.481 162.996 552.841 162.996L552.845 163Z"
        fill="url(#paint25_linear_525_88)" />
    </g>
  </g>
  <defs>
    <filter id="filter0_d_525_88" x="23.9859" y="187.53" width="13.5722" height="14.1421" filterUnits="userSpaceOnUse"
      color-interpolation-filters="sRGB">
      <feFlood flood-opacity="0" result="BackgroundImageFix" />
      <feColorMatrix in="SourceAlpha" type="matrix" values="0 0 0 0 0 0 0 0 0 0 0 0 0 0 0 0 0 0 127 0"
        result="hardAlpha" />
      <feOffset dx="1.77" dy="1.18" />
      <feGaussianBlur stdDeviation="1.77" />
      <feColorMatrix type="matrix" values="0 0 0 0 0.568627 0 0 0 0 0.513726 0 0 0 0 0.466667 0 0 0 0.3 0" />
      <feBlend mode="normal" in2="BackgroundImageFix" result="effect1_dropShadow_525_88" />
      <feBlend mode="normal" in="SourceGraphic" in2="effect1_dropShadow_525_88" result="shape" />
    </filter>
    <filter id="filter1_d_525_88" x="-4.43797" y="154.254" width="13.5722" height="14.1421" filterUnits="userSpaceOnUse"
      color-interpolation-filters="sRGB">
      <feFlood flood-opacity="0" result="BackgroundImageFix" />
      <feColorMatrix in="SourceAlpha" type="matrix" values="0 0 0 0 0 0 0 0 0 0 0 0 0 0 0 0 0 0 127 0"
        result="hardAlpha" />
      <feOffset dx="1.77" dy="1.18" />
      <feGaussianBlur stdDeviation="1.77" />
      <feColorMatrix type="matrix" values="0 0 0 0 0.568627 0 0 0 0 0.513726 0 0 0 0 0.466667 0 0 0 0.3 0" />
      <feBlend mode="normal" in2="BackgroundImageFix" result="effect1_dropShadow_525_88" />
      <feBlend mode="normal" in="SourceGraphic" in2="effect1_dropShadow_525_88" result="shape" />
    </filter>
    <filter id="filter2_d_525_88" x="605.982" y="187.53" width="13.5722" height="14.1421" filterUnits="userSpaceOnUse"
      color-interpolation-filters="sRGB">
      <feFlood flood-opacity="0" result="BackgroundImageFix" />
      <feColorMatrix in="SourceAlpha" type="matrix" values="0 0 0 0 0 0 0 0 0 0 0 0 0 0 0 0 0 0 127 0"
        result="hardAlpha" />
      <feOffset dx="1.77" dy="1.18" />
      <feGaussianBlur stdDeviation="1.77" />
      <feColorMatrix type="matrix" values="0 0 0 0 0.568627 0 0 0 0 0.513726 0 0 0 0 0.466667 0 0 0 0.3 0" />
      <feBlend mode="normal" in2="BackgroundImageFix" result="effect1_dropShadow_525_88" />
      <feBlend mode="normal" in="SourceGraphic" in2="effect1_dropShadow_525_88" result="shape" />
    </filter>
    <filter id="filter3_d_525_88" x="634.406" y="154.254" width="13.5722" height="14.1421" filterUnits="userSpaceOnUse"
      color-interpolation-filters="sRGB">
      <feFlood flood-opacity="0" result="BackgroundImageFix" />
      <feColorMatrix in="SourceAlpha" type="matrix" values="0 0 0 0 0 0 0 0 0 0 0 0 0 0 0 0 0 0 127 0"
        result="hardAlpha" />
      <feOffset dx="1.77" dy="1.18" />
      <feGaussianBlur stdDeviation="1.77" />
      <feColorMatrix type="matrix" values="0 0 0 0 0.568627 0 0 0 0 0.513726 0 0 0 0 0.466667 0 0 0 0.3 0" />
      <feBlend mode="normal" in2="BackgroundImageFix" result="effect1_dropShadow_525_88" />
      <feBlend mode="normal" in="SourceGraphic" in2="effect1_dropShadow_525_88" result="shape" />
    </filter>
    <linearGradient id="paint0_linear_525_88" x1="-nan" y1="-nan" x2="-nan" y2="-nan" gradientUnits="userSpaceOnUse">
      <stop stop-color="#6F4D23" />
      <stop offset="0.17" stop-color="#835B28" />
      <stop offset="0.52" stop-color="#B88038" />
      <stop offset="0.69" stop-color="#D49440" />
      <stop offset="0.99" stop-color="#FDEBA9" />
      <stop offset="1" stop-color="#FFEFAE" />
    </linearGradient>
    <linearGradient id="paint1_linear_525_88" x1="264.248" y1="58.6774" x2="264.248" y2="89.9171"
      gradientUnits="userSpaceOnUse">
      <stop stop-color="#103559" />
      <stop offset="0.34" stop-color="#104677" />
      <stop offset="0.93" stop-color="#126BB5" />
    </linearGradient>
    <linearGradient id="paint2_linear_525_88" x1="264.542" y1="41.5284" x2="264.542" y2="105.518"
      gradientUnits="userSpaceOnUse">
      <stop offset="0.3" stop-color="#FFEFAE" />
      <stop offset="0.32" stop-color="#FDEBA9" />
      <stop offset="0.7" stop-color="#D49440" />
      <stop offset="0.75" stop-color="#CD8F3E" />
      <stop offset="0.81" stop-color="#BD8339" />
      <stop offset="0.88" stop-color="#A17031" />
      <stop offset="0.95" stop-color="#7A5526" />
      <stop offset="0.97" stop-color="#6F4D23" />
    </linearGradient>
    <linearGradient id="paint3_linear_525_88" x1="270.004" y1="48.2339" x2="270.004" y2="98.9295"
      gradientUnits="userSpaceOnUse">
      <stop stop-color="#FFF284" />
      <stop offset="0.08" stop-color="#F8E77D" />
      <stop offset="0.21" stop-color="#E6C96C" />
      <stop offset="0.39" stop-color="#CA9A4F" />
      <stop offset="0.59" stop-color="#A35928" />
      <stop offset="0.62" stop-color="#9D4F23" />
      <stop offset="0.76" stop-color="#8F481F" />
      <stop offset="1" stop-color="#6E3917" />
    </linearGradient>
    <linearGradient id="paint4_linear_525_88" x1="-nan" y1="-nan" x2="-nan" y2="-nan" gradientUnits="userSpaceOnUse">
      <stop stop-color="#6F4D23" />
      <stop offset="0.17" stop-color="#835B28" />
      <stop offset="0.52" stop-color="#B88038" />
      <stop offset="0.69" stop-color="#D49440" />
      <stop offset="0.99" stop-color="#FDEBA9" />
      <stop offset="1" stop-color="#FFEFAE" />
    </linearGradient>
    <linearGradient id="paint5_linear_525_88" x1="562.453" y1="58.6774" x2="562.453" y2="89.9171"
      gradientUnits="userSpaceOnUse">
      <stop stop-color="#103559" />
      <stop offset="0.34" stop-color="#104677" />
      <stop offset="0.93" stop-color="#126BB5" />
    </linearGradient>
    <linearGradient id="paint6_linear_525_88" x1="562.747" y1="41.5284" x2="562.747" y2="105.518"
      gradientUnits="userSpaceOnUse">
      <stop offset="0.3" stop-color="#FFEFAE" />
      <stop offset="0.32" stop-color="#FDEBA9" />
      <stop offset="0.7" stop-color="#D49440" />
      <stop offset="0.75" stop-color="#CD8F3E" />
      <stop offset="0.81" stop-color="#BD8339" />
      <stop offset="0.88" stop-color="#A17031" />
      <stop offset="0.95" stop-color="#7A5526" />
      <stop offset="0.97" stop-color="#6F4D23" />
    </linearGradient>
    <linearGradient id="paint7_linear_525_88" x1="568.209" y1="48.2339" x2="568.209" y2="98.9295"
      gradientUnits="userSpaceOnUse">
      <stop stop-color="#FFF284" />
      <stop offset="0.08" stop-color="#F8E77D" />
      <stop offset="0.21" stop-color="#E6C96C" />
      <stop offset="0.39" stop-color="#CA9A4F" />
      <stop offset="0.59" stop-color="#A35928" />
      <stop offset="0.62" stop-color="#9D4F23" />
      <stop offset="0.76" stop-color="#8F481F" />
      <stop offset="1" stop-color="#6E3917" />
    </linearGradient>
    <linearGradient id="paint8_linear_525_88" x1="71.8162" y1="210.275" x2="58.0745" y2="161.211"
      gradientUnits="userSpaceOnUse">
      <stop offset="0.03" stop-color="#6F4D23" />
      <stop offset="0.07" stop-color="#7A5526" />
      <stop offset="0.22" stop-color="#A17031" />
      <stop offset="0.36" stop-color="#BD8339" />
      <stop offset="0.49" stop-color="#CD8F3E" />
      <stop offset="0.58" stop-color="#D49440" />
      <stop offset="0.98" stop-color="#FDEBA9" />
      <stop offset="1" stop-color="#FFEFAE" />
    </linearGradient>
    <linearGradient id="paint9_linear_525_88" x1="64.2626" y1="168.299" x2="70.6722" y2="207.149"
      gradientUnits="userSpaceOnUse">
      <stop stop-color="#0B4B7F" />
      <stop offset="0.25" stop-color="#094474" />
      <stop offset="0.69" stop-color="#063357" />
      <stop offset="1" stop-color="#03253F" />
    </linearGradient>
    <linearGradient id="paint10_linear_525_88" x1="15.7553" y1="212.487" x2="63.2446" y2="166.103"
      gradientUnits="userSpaceOnUse">
      <stop offset="0.03" stop-color="#6F4D23" />
      <stop offset="0.07" stop-color="#7A5526" />
      <stop offset="0.22" stop-color="#A17031" />
      <stop offset="0.36" stop-color="#BD8339" />
      <stop offset="0.49" stop-color="#CD8F3E" />
      <stop offset="0.58" stop-color="#D49440" />
      <stop offset="0.98" stop-color="#FDEBA9" />
      <stop offset="1" stop-color="#FFEFAE" />
    </linearGradient>
    <linearGradient id="paint11_linear_525_88" x1="77.8339" y1="140.671" x2="-8.64349" y2="238.722"
      gradientUnits="userSpaceOnUse">
      <stop offset="0.33" stop-color="#126BB5" />
      <stop offset="0.76" stop-color="#104677" />
      <stop offset="1" stop-color="#103559" />
    </linearGradient>
    <linearGradient id="paint12_linear_525_88" x1="29.9638" y1="188.621" x2="26.5879" y2="200.318"
      gradientUnits="userSpaceOnUse">
      <stop stop-color="#FFEFAE" />
      <stop offset="0.11" stop-color="#F7DF9B" />
      <stop offset="0.51" stop-color="#DEA959" />
      <stop offset="0.7" stop-color="#D49440" />
      <stop offset="0.75" stop-color="#CD8F3E" />
      <stop offset="0.81" stop-color="#BD8339" />
      <stop offset="0.88" stop-color="#A17031" />
      <stop offset="0.95" stop-color="#7A5526" />
      <stop offset="0.97" stop-color="#6F4D23" />
    </linearGradient>
    <linearGradient id="paint13_linear_525_88" x1="1.54405" y1="155.341" x2="-1.83185" y2="167.038"
      gradientUnits="userSpaceOnUse">
      <stop stop-color="#FFEFAE" />
      <stop offset="0.11" stop-color="#F7DF9B" />
      <stop offset="0.51" stop-color="#DEA959" />
      <stop offset="0.7" stop-color="#D49440" />
      <stop offset="0.75" stop-color="#CD8F3E" />
      <stop offset="0.81" stop-color="#BD8339" />
      <stop offset="0.88" stop-color="#A17031" />
      <stop offset="0.95" stop-color="#7A5526" />
      <stop offset="0.97" stop-color="#6F4D23" />
    </linearGradient>
    <linearGradient id="paint14_linear_525_88" x1="568.184" y1="210.275" x2="581.926" y2="161.211"
      gradientUnits="userSpaceOnUse">
      <stop offset="0.03" stop-color="#6F4D23" />
      <stop offset="0.07" stop-color="#7A5526" />
      <stop offset="0.22" stop-color="#A17031" />
      <stop offset="0.36" stop-color="#BD8339" />
      <stop offset="0.49" stop-color="#CD8F3E" />
      <stop offset="0.58" stop-color="#D49440" />
      <stop offset="0.98" stop-color="#FDEBA9" />
      <stop offset="1" stop-color="#FFEFAE" />
    </linearGradient>
    <linearGradient id="paint15_linear_525_88" x1="575.737" y1="168.299" x2="569.328" y2="207.149"
      gradientUnits="userSpaceOnUse">
      <stop stop-color="#0B4B7F" />
      <stop offset="0.25" stop-color="#094474" />
      <stop offset="0.69" stop-color="#063357" />
      <stop offset="1" stop-color="#03253F" />
    </linearGradient>
    <linearGradient id="paint16_linear_525_88" x1="624.245" y1="212.487" x2="576.755" y2="166.103"
      gradientUnits="userSpaceOnUse">
      <stop offset="0.03" stop-color="#6F4D23" />
      <stop offset="0.07" stop-color="#7A5526" />
      <stop offset="0.22" stop-color="#A17031" />
      <stop offset="0.36" stop-color="#BD8339" />
      <stop offset="0.49" stop-color="#CD8F3E" />
      <stop offset="0.58" stop-color="#D49440" />
      <stop offset="0.98" stop-color="#FDEBA9" />
      <stop offset="1" stop-color="#FFEFAE" />
    </linearGradient>
    <linearGradient id="paint17_linear_525_88" x1="562.166" y1="140.671" x2="648.643" y2="238.722"
      gradientUnits="userSpaceOnUse">
      <stop offset="0.33" stop-color="#126BB5" />
      <stop offset="0.76" stop-color="#104677" />
      <stop offset="1" stop-color="#103559" />
    </linearGradient>
    <linearGradient id="paint18_linear_525_88" x1="610.036" y1="188.621" x2="613.412" y2="200.318"
      gradientUnits="userSpaceOnUse">
      <stop stop-color="#FFEFAE" />
      <stop offset="0.11" stop-color="#F7DF9B" />
      <stop offset="0.51" stop-color="#DEA959" />
      <stop offset="0.7" stop-color="#D49440" />
      <stop offset="0.75" stop-color="#CD8F3E" />
      <stop offset="0.81" stop-color="#BD8339" />
      <stop offset="0.88" stop-color="#A17031" />
      <stop offset="0.95" stop-color="#7A5526" />
      <stop offset="0.97" stop-color="#6F4D23" />
    </linearGradient>
    <linearGradient id="paint19_linear_525_88" x1="638.456" y1="155.341" x2="641.832" y2="167.038"
      gradientUnits="userSpaceOnUse">
      <stop stop-color="#FFEFAE" />
      <stop offset="0.11" stop-color="#F7DF9B" />
      <stop offset="0.51" stop-color="#DEA959" />
      <stop offset="0.7" stop-color="#D49440" />
      <stop offset="0.75" stop-color="#CD8F3E" />
      <stop offset="0.81" stop-color="#BD8339" />
      <stop offset="0.88" stop-color="#A17031" />
      <stop offset="0.95" stop-color="#7A5526" />
      <stop offset="0.97" stop-color="#6F4D23" />
    </linearGradient>
    <linearGradient id="paint20_linear_525_88" x1="317.595" y1="62.3562" x2="317.595" y2="216.584"
      gradientUnits="userSpaceOnUse">
      <stop offset="0.33" stop-color="#126BB5" />
      <stop offset="0.58" stop-color="#11558F" stop-opacity="0.59" />
      <stop offset="0.87" stop-color="#103E68" stop-opacity="0.17" />
      <stop offset="1" stop-color="#103559" stop-opacity="0" />
    </linearGradient>
    <linearGradient id="paint21_linear_525_88" x1="294.73" y1="86.6275" x2="294.73" y2="225.602"
      gradientUnits="userSpaceOnUse">
      <stop offset="0.33" stop-color="#126BB5" />
      <stop offset="0.58" stop-color="#11558F" stop-opacity="0.59" />
      <stop offset="0.87" stop-color="#103E68" stop-opacity="0.17" />
      <stop offset="1" stop-color="#103559" stop-opacity="0" />
    </linearGradient>
    <linearGradient id="paint22_linear_525_88" x1="506.405" y1="65.4739" x2="506.405" y2="219.702"
      gradientUnits="userSpaceOnUse">
      <stop offset="0.33" stop-color="#126BB5" />
      <stop offset="0.58" stop-color="#11558F" stop-opacity="0.59" />
      <stop offset="0.87" stop-color="#103E68" stop-opacity="0.17" />
      <stop offset="1" stop-color="#103559" stop-opacity="0" />
    </linearGradient>
    <linearGradient id="paint23_linear_525_88" x1="529.274" y1="89.7453" x2="529.274" y2="228.72"
      gradientUnits="userSpaceOnUse">
      <stop offset="0.33" stop-color="#126BB5" />
      <stop offset="0.58" stop-color="#11558F" stop-opacity="0.59" />
      <stop offset="0.87" stop-color="#103E68" stop-opacity="0.17" />
      <stop offset="1" stop-color="#103559" stop-opacity="0" />
    </linearGradient>
    <linearGradient id="paint24_linear_525_88" x1="415.717" y1="69.1516" x2="415.717" y2="235.332"
      gradientUnits="userSpaceOnUse">
      <stop offset="0.33" stop-color="#126BB5" />
      <stop offset="0.58" stop-color="#11558F" stop-opacity="0.59" />
      <stop offset="0.87" stop-color="#103E68" stop-opacity="0.17" />
      <stop offset="1" stop-color="#103559" stop-opacity="0" />
    </linearGradient>
    <linearGradient id="paint25_linear_525_88" x1="415.499" y1="158.362" x2="415.499" y2="35.5722"
      gradientUnits="userSpaceOnUse">
      <stop offset="0.03" stop-color="#6F4D23" stop-opacity="0" />
      <stop offset="0.05" stop-color="#745024" stop-opacity="0.05" />
      <stop offset="0.14" stop-color="#91652C" stop-opacity="0.34" />
      <stop offset="0.23" stop-color="#A97533" stop-opacity="0.57" />
      <stop offset="0.31" stop-color="#BB8239" stop-opacity="0.76" />
      <stop offset="0.39" stop-color="#C98C3C" stop-opacity="0.89" />
      <stop offset="0.45" stop-color="#D1913F" stop-opacity="0.97" />
      <stop offset="0.5" stop-color="#D49440" />
      <stop offset="1" stop-color="#FFEE8F" />
    </linearGradient>
    <clipPath id="clip0_525_88">
      <rect width="640" height="200" fill="white" />
    </clipPath>
    <clipPath id="clip1_525_88">
      <rect width="648" height="200" fill="white" transform="translate(-2)" />
    </clipPath>
    <clipPath id="clip2_525_88">
      <rect width="21.2217" height="98.9296" fill="white" transform="translate(253.932)" />
    </clipPath>
    <clipPath id="clip3_525_88">
      <rect width="21.2217" height="98.9296" fill="white" transform="translate(552.137)" />
    </clipPath>
    <clipPath id="clip4_525_88">
      <rect width="159" height="168" fill="white" transform="translate(-29 68)" />
    </clipPath>
    <clipPath id="clip5_525_88">
      <rect width="159" height="168" fill="white" transform="matrix(-1 0 0 1 669 68)" />
    </clipPath>
    <clipPath id="clip6_525_88">
      <rect width="155" height="47" fill="white" transform="translate(43 67)" />
    </clipPath>
    <clipPath id="clip7_525_88">
      <rect width="1" height="132" fill="white" transform="translate(227 34)" />
    </clipPath>
    <clipPath id="clip8_525_88">
      <rect width="270" height="228" fill="white" transform="translate(277 30)" />
    </clipPath>
    <clipPath id="clip9_525_88">
      <rect width="277" height="147" fill="white" transform="translate(277 16)" />
    </clipPath>
  </defs>
</svg>