<svg width="1940" height="180" viewBox="0 0 1940 180" fill="none" xmlns="http://www.w3.org/2000/svg"
  xmlns:xlink="http://www.w3.org/1999/xlink">
  <g clip-path="url(#clip0_725_435)">
    <rect width="1940" height="180" fill="white" />
    <path d="M1958 -15H-19V194H1958V-15Z" fill="#2C324B" />
    <g clip-path="url(#clip1_725_435)">
      <path d="M1150.69 38.9588V-51" stroke="url(#paint0_linear_725_435)" stroke-width="1.22" stroke-miterlimit="10" />
      <path d="M1168.11 68.7665H1132.67V116.957H1168.11V68.7665Z" fill="url(#paint1_linear_725_435)" />
      <path
        d="M1170.51 120.578H1170.36L1170.25 67.8115H1170.51C1171.7 67.8115 1172.67 66.8841 1172.67 65.7438V65.5377C1172.67 64.3973 1171.7 63.4699 1170.51 63.4699H1169.91C1169.91 63.4699 1175.98 56.2636 1171.1 50.2938C1165.62 43.5821 1155.53 41.0197 1151.51 36.6162H1150.5C1146.47 41.0197 1136.39 43.5821 1130.9 50.2938C1126.02 56.2636 1132.1 63.4699 1132.1 63.4699H1131.5C1130.3 63.4699 1129.33 64.3973 1129.33 65.5377V65.7438C1129.33 66.8841 1130.3 67.8115 1131.5 67.8115H1131.79L1131.62 120.578H1131.5C1130.21 120.578 1129.16 121.636 1129.16 122.948C1129.16 124.26 1130.2 125.318 1131.5 125.318H1133.62C1133.44 125.634 1133.32 125.998 1133.32 126.396V126.87C1133.32 128.045 1134.27 129 1135.43 129H1166.58C1167.74 129 1168.69 128.045 1168.69 126.87V126.396C1168.69 125.998 1168.57 125.634 1168.39 125.318H1170.51C1171.8 125.318 1172.85 124.26 1172.85 122.948C1172.85 121.636 1171.8 120.578 1170.51 120.578H1170.51ZM1143.59 111.881C1143.59 112.746 1142.9 113.454 1142.04 113.454H1136.61C1135.75 113.454 1135.05 112.753 1135.05 111.881V76.6872C1135.05 74.4683 1136.93 72.6753 1139.25 72.6753H1139.4C1141.72 72.6753 1143.59 74.4683 1143.59 76.6872V111.881ZM1155.27 111.881C1155.27 112.746 1154.57 113.454 1153.71 113.454H1148.28C1147.43 113.454 1146.73 112.753 1146.73 111.881V76.6872C1146.73 74.4683 1148.6 72.6753 1150.93 72.6753H1151.09C1153.38 72.6753 1155.26 74.4683 1155.26 76.6872V111.881H1155.27ZM1166.97 111.881C1166.97 112.746 1166.27 113.454 1165.41 113.454H1159.98C1159.13 113.454 1158.43 112.753 1158.43 111.881V76.6872C1158.43 74.4683 1160.3 72.6753 1162.6 72.6753H1162.76C1165.08 72.6753 1166.96 74.4683 1166.96 76.6872V111.881H1166.97Z"
        fill="url(#paint2_linear_725_435)" />
      <path style="mix-blend-mode:multiply" opacity="0.68"
        d="M1170.51 120.578H1170.36L1170.25 67.8116H1170.51C1171.7 67.8116 1172.67 66.8842 1172.67 65.7438V65.5377C1172.67 64.3973 1171.7 63.4699 1170.51 63.4699H1169.91C1169.91 63.4699 1175.98 56.2636 1171.1 50.2938C1165.68 43.6577 1155.77 41.0747 1151.66 36.7605V72.7234C1153.69 72.9913 1155.27 74.6469 1155.27 76.6804V111.874C1155.27 112.739 1154.57 113.447 1153.71 113.447H1151.65V128.993H1166.58C1167.74 128.993 1168.69 128.038 1168.69 126.864V126.39C1168.69 125.991 1168.57 125.627 1168.39 125.311H1170.51C1171.8 125.311 1172.85 124.253 1172.85 122.941C1172.85 121.629 1171.8 120.571 1170.51 120.571L1170.51 120.578ZM1166.97 111.881C1166.97 112.746 1166.27 113.454 1165.41 113.454H1159.98C1159.13 113.454 1158.43 112.753 1158.43 111.881V76.6872C1158.43 74.4683 1160.3 72.6753 1162.6 72.6753H1162.76C1165.08 72.6753 1166.96 74.4683 1166.96 76.6872V111.881H1166.97Z"
        fill="url(#paint3_linear_725_435)" />
      <path
        d="M1150.69 98.8076C1149.07 100.772 1148.1 103.307 1148.1 106.069C1148.1 108.831 1149.08 111.359 1150.69 113.33C1152.32 111.365 1153.29 108.831 1153.29 106.069C1153.29 103.307 1152.31 100.779 1150.69 98.8076Z"
        fill="white" />
    </g>
    <g clip-path="url(#clip2_725_435)">
      <g opacity="0.25">
        <path
          d="M1345.19 121.122H1345.35C1345.89 121.122 1346.34 120.679 1346.34 120.128C1346.34 119.577 1345.89 119.142 1345.35 119.142H1345.13L1344.2 93.8732H1344.45C1344.99 93.8732 1345.44 93.4298 1345.44 92.8873C1345.44 92.3448 1344.99 91.8927 1344.45 91.8927H1343.57V83.0321H1343.67C1344.13 83.0321 1344.49 82.6575 1344.49 82.2098V82.1237C1344.49 81.663 1344.13 81.3013 1343.67 81.3013H1343.44C1343.44 81.3013 1345.76 78.421 1343.9 76.0358C1341.79 73.3233 1337.9 72.3072 1336.39 70.5205L1336.22 66.0773L1336.05 70.5205C1334.54 72.3029 1330.65 73.3233 1328.54 76.0358C1326.67 78.4253 1328.99 81.3013 1328.99 81.3013H1328.77C1328.31 81.3013 1327.94 81.6673 1327.94 82.1237V82.2098C1327.94 82.6618 1328.32 83.0321 1328.77 83.0321H1328.88V91.8927H1327.99C1327.44 91.8927 1327 92.3448 1327 92.8873C1327 93.4298 1327.44 93.8732 1327.99 93.8732H1328.25L1327.31 119.142H1327.09C1326.54 119.142 1326.1 119.585 1326.1 120.128C1326.1 120.67 1326.54 121.122 1327.09 121.122H1327.25L1326.86 149.736L1326.67 163.643L1326.66 164.22L1326.6 168.758L1326.58 169.83L1325.69 234.562H1346.77L1345.21 121.122H1345.19ZM1334.64 86.541C1334.64 85.6843 1335.34 84.9696 1336.2 84.9696C1337.06 84.9696 1337.77 85.6843 1337.77 86.541V89.9466H1334.64V86.541ZM1330.32 86.541C1330.32 85.6843 1331.04 84.9696 1331.91 84.9696C1332.79 84.9696 1333.48 85.6843 1333.48 86.541V89.9466H1330.32V86.541ZM1338.98 137.883H1333.45V130.719C1333.45 129.191 1334.68 127.942 1336.2 127.942C1337.72 127.942 1338.98 129.191 1338.98 130.719V137.883H1338.98ZM1338.98 110.634H1333.45V103.47C1333.45 101.95 1334.68 100.71 1336.2 100.71C1337.72 100.71 1338.98 101.95 1338.98 103.47V110.634H1338.98ZM1342.09 89.9466H1338.94V86.541C1338.94 85.6843 1339.65 84.9696 1340.52 84.9696C1341.39 84.9696 1342.09 85.6843 1342.09 86.541V89.9466Z"
          fill="url(#paint4_linear_725_435)" />
        <path
          d="M1326.84 164.224H1326.21C1326.21 164.224 1326.39 164.022 1326.66 163.647C1328.03 161.77 1331.78 155.669 1327.48 150.46C1327.28 150.214 1327.06 149.969 1326.85 149.736C1320.9 143.209 1310.74 140.57 1306.69 136.084L1306.61 133.264C1307.04 133.117 1307.33 132.747 1307.33 132.295C1307.33 131.843 1307.01 131.455 1306.56 131.326L1306.52 129.398C1306.86 129.286 1307.1 128.988 1307.1 128.623C1307.1 128.257 1306.84 127.942 1306.47 127.848L1306.42 126.048H1306.4C1306.38 126.039 1306.36 126.039 1306.33 126.039C1306.24 126.031 1306.14 126.031 1306.05 126.031L1305.99 127.848C1305.64 127.942 1305.37 128.248 1305.37 128.623C1305.37 128.997 1305.61 129.286 1305.96 129.398L1305.91 131.326C1305.46 131.455 1305.13 131.834 1305.13 132.295C1305.13 132.756 1305.44 133.117 1305.86 133.264L1305.78 136.084C1301.58 140.729 1290.83 143.399 1285 150.46C1279.84 156.694 1286.25 164.224 1286.25 164.224H1285.63C1284.36 164.224 1283.34 165.193 1283.34 166.381V166.601C1283.34 167.789 1284.36 168.758 1285.63 168.758H1285.92V190.518H1285.75V204.153C1289.53 214.856 1294.42 225.047 1300.29 234.562H1326.68V190.518H1326.56V168.758H1326.83C1328.09 168.758 1329.11 167.789 1329.11 166.601V166.381C1329.11 165.193 1328.09 164.224 1326.83 164.224H1326.84ZM1298.41 190.522H1289.4V178.032C1289.4 175.711 1291.38 173.843 1293.83 173.843H1293.98C1296.43 173.843 1298.41 175.711 1298.41 178.032V190.522ZM1310.75 190.522H1301.73V178.032C1301.73 175.711 1303.71 173.843 1306.16 173.843H1306.33C1308.75 173.843 1310.74 175.711 1310.74 178.032V190.522H1310.75ZM1323.1 190.522H1314.08V178.032C1314.08 175.711 1316.06 173.843 1318.49 173.843H1318.66C1321.12 173.843 1323.1 175.711 1323.1 178.032V190.522H1323.1Z"
          fill="url(#paint5_linear_725_435)" />
      </g>
      <g opacity="0.25">
        <path
          d="M1593.37 173.093L1593.36 172.641L1593.3 168.103L1593.29 167.535L1593.1 153.62L1592.71 125.006H1592.87C1593.41 125.006 1593.85 124.562 1593.85 124.011C1593.85 123.46 1593.41 123.025 1592.87 123.025H1592.65L1591.71 97.7568H1591.97C1592.52 97.7568 1592.96 97.3133 1592.96 96.7708C1592.96 96.2283 1592.52 95.7763 1591.97 95.7763H1591.08V86.9157H1591.19C1591.65 86.9157 1592.01 86.5411 1592.01 86.0933V86.0072C1592.01 85.5465 1591.64 85.1849 1591.19 85.1849H1590.96C1590.96 85.1849 1593.28 82.3045 1591.42 79.9193C1589.31 77.2069 1585.41 76.1908 1583.9 74.404L1583.74 69.9608H1583.73L1583.57 74.404C1582.06 76.1865 1578.16 77.2069 1576.06 79.9193C1574.19 82.3088 1576.51 85.1849 1576.51 85.1849H1576.28C1575.83 85.1849 1575.46 85.5508 1575.46 86.0072V86.0933C1575.46 86.5454 1575.83 86.9157 1576.28 86.9157H1576.39V95.7763H1575.5C1574.96 95.7763 1574.52 96.2283 1574.52 96.7708C1574.52 97.3133 1574.96 97.7568 1575.5 97.7568H1575.76L1574.82 123.025H1574.6C1574.06 123.025 1573.62 123.469 1573.62 124.011C1573.62 124.554 1574.06 125.006 1574.6 125.006H1574.76L1573.2 238.446H1594.29L1593.39 173.093H1593.37ZM1582.16 90.4246C1582.16 89.5678 1582.86 88.8531 1583.73 88.8531C1584.61 88.8531 1585.3 89.5678 1585.3 90.4246V93.8302H1582.16V90.4246ZM1577.85 90.4246C1577.85 89.5678 1578.56 88.8531 1579.42 88.8531C1580.27 88.8531 1581 89.5678 1581 90.4246V93.8302H1577.85V90.4246ZM1586.49 141.767H1580.95V134.603C1580.95 133.074 1582.19 131.826 1583.73 131.826C1585.27 131.826 1586.49 133.074 1586.49 134.603V141.767H1586.49ZM1586.49 114.518H1580.95V107.354C1580.95 105.834 1582.19 104.594 1583.73 104.594C1585.27 104.594 1586.49 105.834 1586.49 107.354V114.518H1586.49ZM1589.61 93.8302H1586.46V90.4246C1586.46 89.5678 1587.17 88.8531 1588.03 88.8531C1588.9 88.8531 1589.61 89.5678 1589.61 90.4246V93.8302Z"
          fill="url(#paint6_linear_725_435)" />
        <path
          d="M1634.32 168.103H1633.68C1633.68 168.103 1640.09 160.577 1634.94 154.339C1629.11 147.278 1618.35 144.609 1614.15 139.963L1614.08 137.143C1614.5 136.997 1614.8 136.626 1614.8 136.174C1614.8 135.722 1614.48 135.335 1614.03 135.205L1613.98 133.277C1614.32 133.165 1614.57 132.868 1614.57 132.502C1614.57 132.136 1614.3 131.821 1613.94 131.727L1613.89 129.91C1613.79 129.91 1613.7 129.91 1613.6 129.918C1613.58 129.918 1613.55 129.918 1613.53 129.927H1613.51L1613.47 131.727C1613.1 131.821 1612.83 132.127 1612.83 132.502C1612.83 132.876 1613.08 133.165 1613.43 133.277L1613.37 135.205C1612.93 135.335 1612.6 135.714 1612.6 136.174C1612.6 136.635 1612.9 136.997 1613.32 137.143L1613.24 139.963C1609.2 144.449 1599.04 147.093 1593.09 153.616C1592.88 153.844 1592.66 154.093 1592.46 154.339C1588.16 159.557 1591.94 165.671 1593.28 167.535C1593.55 167.901 1593.72 168.103 1593.72 168.103H1593.09C1591.82 168.103 1590.8 169.072 1590.8 170.26V170.48C1590.8 171.668 1591.82 172.637 1593.09 172.637H1593.36V194.397H1593.25V238.441H1620.89C1626.13 229.947 1630.6 220.914 1634.18 211.451V194.397H1634V172.637H1634.3C1635.56 172.637 1636.59 171.668 1636.59 170.48V170.26C1636.59 169.072 1635.56 168.103 1634.3 168.103H1634.32ZM1605.85 194.401H1596.84V181.911C1596.84 179.59 1598.83 177.722 1601.27 177.722H1601.44C1603.87 177.722 1605.85 179.59 1605.85 181.911V194.401H1605.85ZM1618.21 194.401H1609.2V181.911C1609.2 179.59 1611.18 177.722 1613.61 177.722H1613.77C1616.23 177.722 1618.21 179.59 1618.21 181.911V194.401H1618.21ZM1630.54 194.401H1621.52V181.911C1621.52 179.59 1623.5 177.722 1625.96 177.722H1626.1C1628.56 177.722 1630.54 179.59 1630.54 181.911V194.401Z"
          fill="url(#paint7_linear_725_435)" />
      </g>
      <path opacity="0.3"
        d="M1530.8 120.627C1530.14 110.341 1522.93 101.296 1514.08 95.5824C1503.46 88.7281 1490.6 87.3504 1480.29 80.3799C1473.46 75.7601 1467.61 69.866 1465.35 62.4649C1468.48 62.3056 1470.94 60.7427 1470.94 58.8096C1470.94 57.0185 1468.82 55.5288 1466.02 55.1973L1465.51 42.0571C1466.18 42.1604 1466.87 42.2379 1467.57 42.2595C1471.6 42.3757 1475.33 41.0496 1478.27 38.7505C1476.58 39.3834 1474.74 39.7106 1472.83 39.6547C1464.91 39.4265 1458.68 32.8262 1458.9 24.9128C1459.13 16.9951 1465.73 10.7651 1473.65 10.989C1474.67 11.0192 1475.68 11.1569 1476.64 11.3937C1474.26 9.95572 1471.49 9.09463 1468.52 9.00852C1459.34 8.74589 1451.68 15.9747 1451.42 25.1582C1451.19 33.175 1456.67 40.0292 1464.18 41.8117L1463.66 55.1973C1460.86 55.5288 1458.74 57.0185 1458.74 58.8096C1458.74 60.7384 1461.2 62.3056 1464.33 62.4649C1462.07 69.8703 1456.22 75.7601 1449.39 80.3799C1439.07 87.3504 1426.22 88.7281 1415.6 95.5824C1406.76 101.296 1399.54 110.341 1398.88 120.627C1398.3 129.781 1403.44 138.981 1411.48 143.747H1400.1V150.322C1400.1 150.322 1412.11 153.844 1411.84 164.642V293H1448.71V245.618C1448.71 242.122 1449.31 238.764 1450.39 235.634C1452.91 228.336 1458.12 222.287 1464.84 218.679C1471.55 222.287 1476.76 228.336 1479.28 235.634C1480.36 238.764 1480.96 242.122 1480.96 245.618V293H1517.84V164.642C1517.76 152.376 1529.57 150.791 1529.57 150.791V143.747H1518.18C1526.22 138.981 1531.38 129.781 1530.79 120.627H1530.8Z"
        fill="url(#paint8_linear_725_435)" />
    </g>
    <g clip-path="url(#clip3_725_435)">
      <mask id="mask0_725_435" style="mask-type:luminance" maskUnits="userSpaceOnUse" x="1739" y="-27" width="206"
        height="206">
        <path d="M1944.74 178.245L1739 178.245V-27.0001L1944.74 -27.0001V178.245Z" fill="white" />
      </mask>
      <g mask="url(#mask0_725_435)">
        <path
          d="M1897.24 180.555H1779.46C1777.11 175.593 1776.17 169.899 1777.08 164.084C1779.52 148.64 1794.09 138.052 1809.57 140.483C1814.52 141.257 1819.1 143.288 1822.96 146.382C1832.4 134.5 1847.36 128.622 1862.48 130.995C1885.41 134.589 1901.13 156.128 1897.52 179.003C1897.44 179.524 1897.34 180.04 1897.24 180.555Z"
          fill="url(#paint9_linear_725_435)" />
        <path
          d="M1895.36 180.555H1781.51C1779.04 175.74 1778.01 170.125 1778.92 164.369C1781.19 149.908 1794.79 140.025 1809.29 142.298C1814.72 143.151 1819.51 145.587 1823.25 149.061C1831.83 137.147 1846.67 130.379 1862.19 132.811C1884.15 136.257 1899.15 156.807 1895.7 178.714C1895.6 179.334 1895.49 179.945 1895.36 180.555H1895.36Z"
          fill="url(#paint10_linear_725_435)" />
        <path
          d="M1957.64 34.7898C1932.61 44.4408 1917.27 70.9102 1922.54 98.0952C1923.03 100.621 1923.7 103.131 1924.53 105.583C1908.55 110.125 1897.99 124.98 1898.93 141.467C1895.03 140.957 1891.08 141.083 1887.17 141.835C1872.64 144.64 1861.37 155.665 1858.13 169.815C1846.16 164.784 1833.14 163.437 1820.27 165.921C1789.32 171.894 1767.64 198.747 1767.05 228.995L1994 166.779L1957.64 34.7898Z"
          fill="url(#paint11_linear_725_435)" />
        <path
          d="M1958.37 37.463C1934.69 46.7194 1920.25 71.7626 1925.25 97.5689C1925.93 101.053 1926.93 104.384 1928.22 107.551C1928.19 107.557 1928.16 107.562 1928.13 107.567C1910.71 110.93 1899.23 127.506 1902.08 144.856C1897.5 143.767 1892.62 143.603 1887.69 144.556C1872.78 147.434 1862.03 159.553 1860.24 173.809C1848.41 168.068 1834.69 165.963 1820.79 168.641C1791.37 174.319 1770.75 199.573 1769.84 228.237L1994 166.779L1958.37 37.463Z"
          fill="url(#paint12_linear_725_435)" />
        <g filter="url(#filter0_d_725_435)">
          <path
            d="M1899.94 158.738L1902.21 162.174L1906.18 161.085L1903.61 164.3L1905.88 167.736L1902.02 166.284L1899.44 169.499L1899.63 165.389L1895.77 163.942L1899.75 162.848L1899.94 158.738Z"
            fill="url(#paint13_linear_725_435)" />
          <path opacity="0.79"
            d="M1906.18 161.085L1902.21 162.174L1899.94 158.738L1899.93 158.922L1901.97 166.342L1902.02 166.284L1905.88 167.736L1903.61 164.3L1906.18 161.085Z"
            fill="#B4782A" />
        </g>
        <g filter="url(#filter1_d_725_435)">
        </g>
      </g>
      <g clip-path="url(#clip4_725_435)">
        <path d="M1760.69 38.9588V-51" stroke="url(#paint14_linear_725_435)" stroke-width="1.22"
          stroke-miterlimit="10" />
        <path d="M1778.11 68.7665H1742.67V116.957H1778.11V68.7665Z" fill="url(#paint15_linear_725_435)" />
        <path
          d="M1780.51 120.578H1780.36L1780.25 67.8115H1780.51C1781.7 67.8115 1782.67 66.8841 1782.67 65.7438V65.5377C1782.67 64.3973 1781.7 63.4699 1780.51 63.4699H1779.91C1779.91 63.4699 1785.98 56.2636 1781.1 50.2938C1775.62 43.5821 1765.53 41.0197 1761.51 36.6162H1760.5C1756.47 41.0197 1746.39 43.5821 1740.9 50.2938C1736.02 56.2636 1742.1 63.4699 1742.1 63.4699H1741.5C1740.3 63.4699 1739.33 64.3973 1739.33 65.5377V65.7438C1739.33 66.8841 1740.3 67.8115 1741.5 67.8115H1741.79L1741.62 120.578H1741.5C1740.21 120.578 1739.16 121.636 1739.16 122.948C1739.16 124.26 1740.2 125.318 1741.5 125.318H1743.62C1743.44 125.634 1743.32 125.998 1743.32 126.396V126.87C1743.32 128.045 1744.27 129 1745.43 129H1776.58C1777.74 129 1778.69 128.045 1778.69 126.87V126.396C1778.69 125.998 1778.57 125.634 1778.39 125.318H1780.51C1781.8 125.318 1782.85 124.26 1782.85 122.948C1782.85 121.636 1781.8 120.578 1780.51 120.578H1780.51ZM1753.59 111.881C1753.59 112.746 1752.9 113.454 1752.04 113.454H1746.61C1745.75 113.454 1745.05 112.753 1745.05 111.881V76.6872C1745.05 74.4683 1746.93 72.6753 1749.25 72.6753H1749.4C1751.72 72.6753 1753.59 74.4683 1753.59 76.6872V111.881ZM1765.27 111.881C1765.27 112.746 1764.57 113.454 1763.71 113.454H1758.28C1757.43 113.454 1756.73 112.753 1756.73 111.881V76.6872C1756.73 74.4683 1758.6 72.6753 1760.93 72.6753H1761.09C1763.38 72.6753 1765.26 74.4683 1765.26 76.6872V111.881H1765.27ZM1776.97 111.881C1776.97 112.746 1776.27 113.454 1775.41 113.454H1769.98C1769.13 113.454 1768.43 112.753 1768.43 111.881V76.6872C1768.43 74.4683 1770.3 72.6753 1772.6 72.6753H1772.76C1775.08 72.6753 1776.96 74.4683 1776.96 76.6872V111.881H1776.97Z"
          fill="url(#paint16_linear_725_435)" />
        <path style="mix-blend-mode:multiply" opacity="0.68"
          d="M1780.51 120.578H1780.36L1780.25 67.8116H1780.51C1781.7 67.8116 1782.67 66.8842 1782.67 65.7438V65.5377C1782.67 64.3973 1781.7 63.4699 1780.51 63.4699H1779.91C1779.91 63.4699 1785.98 56.2636 1781.1 50.2938C1775.68 43.6577 1765.77 41.0747 1761.66 36.7605V72.7234C1763.69 72.9913 1765.27 74.6469 1765.27 76.6804V111.874C1765.27 112.739 1764.57 113.447 1763.71 113.447H1761.65V128.993H1776.58C1777.74 128.993 1778.69 128.038 1778.69 126.864V126.39C1778.69 125.991 1778.57 125.627 1778.39 125.311H1780.51C1781.8 125.311 1782.85 124.253 1782.85 122.941C1782.85 121.629 1781.8 120.571 1780.51 120.571L1780.51 120.578ZM1776.97 111.881C1776.97 112.746 1776.27 113.454 1775.41 113.454H1769.98C1769.13 113.454 1768.43 112.753 1768.43 111.881V76.6872C1768.43 74.4683 1770.3 72.6753 1772.6 72.6753H1772.76C1775.08 72.6753 1776.96 74.4683 1776.96 76.6872V111.881H1776.97Z"
          fill="url(#paint17_linear_725_435)" />
        <path
          d="M1760.69 98.8076C1759.07 100.772 1758.1 103.307 1758.1 106.069C1758.1 108.831 1759.08 111.359 1760.69 113.33C1762.32 111.365 1763.29 108.831 1763.29 106.069C1763.29 103.307 1762.31 100.779 1760.69 98.8076Z"
          fill="white" />
      </g>
    </g>
    <rect width="600" height="182" fill="url(#pattern0)" />
    <path
      d="M1683.85 172.194C1682.83 172.194 1681.99 171.367 1681.99 170.34C1681.99 83.7117 1630.77 5.15171 1551.51 -29.8019C1532.22 -38.3125 1511.83 -43.9582 1490.91 -46.5809C1474.62 -48.6453 1457.58 -48.8507 1441.24 -47.1971C1418.37 -44.9061 1396.15 -39.0551 1375.19 -29.8019C1295.92 5.15171 1244.7 83.7117 1244.7 170.34C1244.7 171.362 1243.88 172.194 1242.85 172.194C1241.82 172.194 1241 171.367 1241 170.34C1241 82.2424 1293.09 2.35521 1373.7 -33.1882C1395.01 -42.5994 1417.62 -48.5558 1440.87 -50.8836C1457.48 -52.5636 1474.81 -52.3529 1491.37 -50.2569C1512.65 -47.592 1533.38 -41.8463 1553 -33.1935C1633.61 2.35521 1685.7 82.2424 1685.7 170.335C1685.7 171.356 1684.87 172.189 1683.84 172.189L1683.85 172.194Z"
      fill="url(#paint18_linear_725_435)" />
    <g clip-path="url(#clip5_725_435)">
      <path
        d="M732.065 127.184H741.035V105.824C741.035 94.211 734.903 90.107 728.845 90.107C725.853 90.107 723.521 90.8677 721.51 92.2725C719.776 93.3092 718.302 94.7999 717.019 96.8059H716.87C715.297 92.7939 711.559 90.107 706.772 90.107C700.634 90.107 697.333 93.4687 695.538 96.2968H695.31L694.94 90.929H687C687.228 94.0515 687.302 97.5482 687.302 101.72V127.184H696.278V105.738C696.278 104.701 696.432 103.652 696.809 102.763C697.623 100.241 699.949 97.5482 703.385 97.5482C707.666 97.5482 709.677 101.137 709.677 106.186V127.184H718.647V105.443C718.647 104.407 718.882 103.284 719.097 102.401C720.078 99.7812 722.404 97.5482 725.544 97.5482C729.949 97.5482 732.059 101.137 732.059 107.161V127.184H732.065ZM767.049 114.449C767.049 115.056 766.969 115.786 766.753 116.467C765.927 119.062 763.218 121.454 759.566 121.454C756.636 121.454 754.323 119.81 754.323 116.246C754.323 110.737 760.529 109.314 767.049 109.474V114.449ZM768.24 127.184H776.556C776.18 124.951 776.031 121.749 776.031 118.467V105.37C776.031 97.4868 772.663 90.107 760.973 90.107C755.217 90.107 750.523 91.6775 747.814 93.3154L749.603 99.2659C752.071 97.7138 755.816 96.5912 759.406 96.5912C765.846 96.5912 766.821 100.548 766.821 102.916V103.511C753.336 103.437 745.192 108.05 745.192 117.197C745.192 122.718 749.307 128 756.636 128C761.355 128 765.168 125.994 767.426 123.166H767.648L768.234 127.184H768.24ZM806.198 127.184H815.396V105.67C815.396 94.2049 808.82 90.1009 802.447 90.1009C796.075 90.1009 792.429 93.5423 790.856 96.3765H790.634L790.183 90.929H782.096C782.324 94.0515 782.392 97.5482 782.392 101.72V127.184H791.676V105.885C791.676 104.848 791.762 103.738 792.052 102.916C793.027 100.162 795.575 97.5543 799.239 97.5543C804.242 97.5543 806.204 101.511 806.204 106.719V127.19L806.198 127.184ZM846.124 111.467C846.124 112.431 846.025 113.338 845.809 114.142C844.921 118.099 841.621 120.62 837.876 120.62C832.046 120.62 828.746 115.78 828.746 109.167C828.746 102.554 832.046 97.1801 837.95 97.1801C842.151 97.1801 845.069 100.088 845.883 103.646C846.025 104.4 846.124 105.296 846.124 106.038V111.467ZM847.389 127.178H855.624C855.47 124.718 855.316 120.7 855.316 116.976V76.3718H846.13V94.8858H845.964C844.316 92.1866 840.72 90.1009 835.717 90.1009C826.957 90.1009 819.32 97.3335 819.394 109.461C819.394 120.62 826.284 127.994 834.977 127.994C840.276 127.994 844.711 125.466 846.864 121.448H847.006L847.395 127.178H847.389ZM861.837 127.178H871.115V90.9229H861.837V127.178ZM895.371 98.6708C896.494 98.6708 897.308 98.8058 898.055 98.9714V90.9229C897.308 90.7818 896.784 90.9229 895.896 90.9229C891.991 90.9229 887.728 92.7142 885.927 97.8426H885.63L885.328 90.9229H877.315C877.549 94.1987 877.611 97.7077 877.611 102.615V127.178H886.821V108.419C886.821 107.376 886.975 106.406 887.111 105.584C887.944 101.499 890.936 98.6708 895.359 98.6708M911.602 90.9229H902.318V127.178H911.602V90.9229Z"
        fill="white" />
      <path
        d="M900.424 47.0366C894.835 50.2695 876.643 60.6061 876.643 60.6061C869.801 63.4035 864.557 59.9988 862.873 57.5082C862.793 57.3978 862.725 57.2935 862.67 57.1831L862.441 56.8089L861.282 54.9378C860.788 54.1649 860.245 53.3551 859.616 52.5454C859.049 51.8215 858.432 51.1221 857.753 50.4289C853.361 46.0244 846.34 42.9203 834.638 48.4598C827.562 52.4717 811.115 61.8392 811.115 61.8392H811.097C804.335 65.6794 799.055 68.6853 799.055 68.6853L805.298 76.2798C807.92 78.7766 812.842 82.856 820.48 79.4084C820.48 79.4084 841.522 67.2866 841.609 67.2559C859.61 57.4346 868.475 66.8143 872.411 73.0715C872.54 73.2678 872.664 73.4763 872.775 73.6665L872.787 73.6788C872.83 73.7524 872.861 73.826 872.904 73.9058L873.348 74.6174C875.255 77.5006 878.277 79.3655 881.874 79.2857C883.842 79.2428 885.193 78.6048 887.155 77.5129L907.531 65.7653C907.531 65.7653 907.549 65.753 907.568 65.753C925.791 55.8089 934.804 65.8143 938.666 72.0654C938.962 72.593 939.308 73.1205 939.665 73.5929C941.565 76.1755 944.2 77.8564 947.537 77.7766C949.752 77.7398 952.232 76.4148 952.602 76.1694L977.007 62.1459C977.007 62.1459 974.514 58.41 969.369 52.5699C964.786 47.3617 959.894 49.7235 956.02 51.6436C954.372 52.4349 942.602 59.0725 942.602 59.0725C936.137 61.7287 931.115 58.8455 929.129 56.404C928.925 56.1463 928.746 55.9132 928.617 55.6678L928.166 54.8826C927.451 53.7048 926.606 52.3613 925.569 51.0363C925.014 50.3185 924.391 49.6131 923.706 48.926C920.992 46.2084 917.278 43.9816 912.084 43.9816C908.82 43.9816 904.977 44.8527 900.424 47.0182"
        fill="#F9B716" />
    </g>
    <g clip-path="url(#clip6_725_435)">
      <path d="M1048.5 31V31.3276" stroke="white" stroke-miterlimit="10" />
      <path d="M1048.5 31.9828V156.345" stroke="white" stroke-miterlimit="10" />
      <path d="M1048.5 156.672V157" stroke="white" stroke-miterlimit="10" />
    </g>
  </g>
  <defs>
    <filter id="filter0_d_725_435" x="1894" y="156.378" width="17.4921" height="17.8414" filterUnits="userSpaceOnUse"
      color-interpolation-filters="sRGB">
      <feFlood flood-opacity="0" result="BackgroundImageFix" />
      <feColorMatrix in="SourceAlpha" type="matrix" values="0 0 0 0 0 0 0 0 0 0 0 0 0 0 0 0 0 0 127 0"
        result="hardAlpha" />
      <feOffset dx="1.77" dy="1.18" />
      <feGaussianBlur stdDeviation="1.77" />
      <feColorMatrix type="matrix" values="0 0 0 0 0.568627 0 0 0 0 0.513726 0 0 0 0 0.466667 0 0 0 0.3 0" />
      <feBlend mode="normal" in2="BackgroundImageFix" result="effect1_dropShadow_725_435" />
      <feBlend mode="normal" in="SourceGraphic" in2="effect1_dropShadow_725_435" result="shape" />
    </filter>
    <filter id="filter1_d_725_435" x="1939.59" y="105.67" width="17.4921" height="17.8414" filterUnits="userSpaceOnUse"
      color-interpolation-filters="sRGB">
      <feFlood flood-opacity="0" result="BackgroundImageFix" />
      <feColorMatrix in="SourceAlpha" type="matrix" values="0 0 0 0 0 0 0 0 0 0 0 0 0 0 0 0 0 0 127 0"
        result="hardAlpha" />
      <feOffset dx="1.77" dy="1.18" />
      <feGaussianBlur stdDeviation="1.77" />
      <feColorMatrix type="matrix" values="0 0 0 0 0.568627 0 0 0 0 0.513726 0 0 0 0 0.466667 0 0 0 0.3 0" />
      <feBlend mode="normal" in2="BackgroundImageFix" result="effect1_dropShadow_725_435" />
      <feBlend mode="normal" in="SourceGraphic" in2="effect1_dropShadow_725_435" result="shape" />
    </filter>
    <pattern id="pattern0" patternContentUnits="objectBoundingBox" width="1" height="1">
      <use xlink:href="#image0_725_435" transform="matrix(0.00135135 0 0 0.004455 0 -0.598159)" />
    </pattern>
    <linearGradient id="paint0_linear_725_435" x1="-nan" y1="-nan" x2="-nan" y2="-nan" gradientUnits="userSpaceOnUse">
      <stop stop-color="#6F4D23" />
      <stop offset="0.17" stop-color="#835B28" />
      <stop offset="0.52" stop-color="#B88038" />
      <stop offset="0.69" stop-color="#D49440" />
      <stop offset="0.99" stop-color="#FDEBA9" />
      <stop offset="1" stop-color="#FFEFAE" />
    </linearGradient>
    <linearGradient id="paint1_linear_725_435" x1="1150.39" y1="55.7621" x2="1150.39" y2="112.602"
      gradientUnits="userSpaceOnUse">
      <stop stop-color="#103559" />
      <stop offset="0.34" stop-color="#104677" />
      <stop offset="0.93" stop-color="#126BB5" />
    </linearGradient>
    <linearGradient id="paint2_linear_725_435" x1="1151" y1="24.5599" x2="1151" y2="140.988"
      gradientUnits="userSpaceOnUse">
      <stop offset="0.3" stop-color="#FFEFAE" />
      <stop offset="0.32" stop-color="#FDEBA9" />
      <stop offset="0.7" stop-color="#D49440" />
      <stop offset="0.75" stop-color="#CD8F3E" />
      <stop offset="0.81" stop-color="#BD8339" />
      <stop offset="0.88" stop-color="#A17031" />
      <stop offset="0.95" stop-color="#7A5526" />
      <stop offset="0.97" stop-color="#6F4D23" />
    </linearGradient>
    <linearGradient id="paint3_linear_725_435" x1="1162.33" y1="36.7605" x2="1162.33" y2="129"
      gradientUnits="userSpaceOnUse">
      <stop stop-color="#FFF284" />
      <stop offset="0.08" stop-color="#F8E77D" />
      <stop offset="0.21" stop-color="#E6C96C" />
      <stop offset="0.39" stop-color="#CA9A4F" />
      <stop offset="0.59" stop-color="#A35928" />
      <stop offset="0.62" stop-color="#9D4F23" />
      <stop offset="0.76" stop-color="#8F481F" />
      <stop offset="1" stop-color="#6E3917" />
    </linearGradient>
    <linearGradient id="paint4_linear_725_435" x1="1336.21" y1="49.3033" x2="1336.21" y2="241.412"
      gradientUnits="userSpaceOnUse">
      <stop offset="0.33" stop-color="#126BB5" />
      <stop offset="0.58" stop-color="#11558F" stop-opacity="0.59" />
      <stop offset="0.87" stop-color="#103E68" stop-opacity="0.17" />
      <stop offset="1" stop-color="#103559" stop-opacity="0" />
    </linearGradient>
    <linearGradient id="paint5_linear_725_435" x1="1306.24" y1="79.5361" x2="1306.24" y2="252.645"
      gradientUnits="userSpaceOnUse">
      <stop offset="0.33" stop-color="#126BB5" />
      <stop offset="0.58" stop-color="#11558F" stop-opacity="0.59" />
      <stop offset="0.87" stop-color="#103E68" stop-opacity="0.17" />
      <stop offset="1" stop-color="#103559" stop-opacity="0" />
    </linearGradient>
    <linearGradient id="paint6_linear_725_435" x1="1583.73" y1="53.1868" x2="1583.73" y2="245.296"
      gradientUnits="userSpaceOnUse">
      <stop offset="0.33" stop-color="#126BB5" />
      <stop offset="0.58" stop-color="#11558F" stop-opacity="0.59" />
      <stop offset="0.87" stop-color="#103E68" stop-opacity="0.17" />
      <stop offset="1" stop-color="#103559" stop-opacity="0" />
    </linearGradient>
    <linearGradient id="paint7_linear_725_435" x1="1613.7" y1="83.4196" x2="1613.7" y2="256.529"
      gradientUnits="userSpaceOnUse">
      <stop offset="0.33" stop-color="#126BB5" />
      <stop offset="0.58" stop-color="#11558F" stop-opacity="0.59" />
      <stop offset="0.87" stop-color="#103E68" stop-opacity="0.17" />
      <stop offset="1" stop-color="#103559" stop-opacity="0" />
    </linearGradient>
    <linearGradient id="paint8_linear_725_435" x1="1464.84" y1="57.7677" x2="1464.84" y2="264.765"
      gradientUnits="userSpaceOnUse">
      <stop offset="0.33" stop-color="#126BB5" />
      <stop offset="0.58" stop-color="#11558F" stop-opacity="0.59" />
      <stop offset="0.87" stop-color="#103E68" stop-opacity="0.17" />
      <stop offset="1" stop-color="#103559" stop-opacity="0" />
    </linearGradient>
    <linearGradient id="paint9_linear_725_435" x1="1832.31" y1="189.799" x2="1852.35" y2="114.503"
      gradientUnits="userSpaceOnUse">
      <stop offset="0.03" stop-color="#6F4D23" />
      <stop offset="0.07" stop-color="#7A5526" />
      <stop offset="0.22" stop-color="#A17031" />
      <stop offset="0.36" stop-color="#BD8339" />
      <stop offset="0.49" stop-color="#CD8F3E" />
      <stop offset="0.58" stop-color="#D49440" />
      <stop offset="0.98" stop-color="#FDEBA9" />
      <stop offset="1" stop-color="#FFEFAE" />
    </linearGradient>
    <linearGradient id="paint10_linear_725_435" x1="1844.43" y1="125.837" x2="1835.12" y2="185.19"
      gradientUnits="userSpaceOnUse">
      <stop stop-color="#0B4B7F" />
      <stop offset="0.25" stop-color="#094474" />
      <stop offset="0.69" stop-color="#063357" />
      <stop offset="1" stop-color="#03253F" />
    </linearGradient>
    <linearGradient id="paint11_linear_725_435" x1="1922.22" y1="193.17" x2="1849.87" y2="118.789"
      gradientUnits="userSpaceOnUse">
      <stop offset="0.03" stop-color="#6F4D23" />
      <stop offset="0.07" stop-color="#7A5526" />
      <stop offset="0.22" stop-color="#A17031" />
      <stop offset="0.36" stop-color="#BD8339" />
      <stop offset="0.49" stop-color="#CD8F3E" />
      <stop offset="0.58" stop-color="#D49440" />
      <stop offset="0.98" stop-color="#FDEBA9" />
      <stop offset="1" stop-color="#FFEFAE" />
    </linearGradient>
    <linearGradient id="paint12_linear_725_435" x1="1822.66" y1="83.737" x2="1953.43" y2="239.786"
      gradientUnits="userSpaceOnUse">
      <stop offset="0.33" stop-color="#126BB5" />
      <stop offset="0.76" stop-color="#104677" />
      <stop offset="1" stop-color="#103559" />
    </linearGradient>
    <linearGradient id="paint13_linear_725_435" x1="1899.43" y1="156.804" x2="1904.36" y2="174.762"
      gradientUnits="userSpaceOnUse">
      <stop stop-color="#FFEFAE" />
      <stop offset="0.11" stop-color="#F7DF9B" />
      <stop offset="0.51" stop-color="#DEA959" />
      <stop offset="0.7" stop-color="#D49440" />
      <stop offset="0.75" stop-color="#CD8F3E" />
      <stop offset="0.81" stop-color="#BD8339" />
      <stop offset="0.88" stop-color="#A17031" />
      <stop offset="0.95" stop-color="#7A5526" />
      <stop offset="0.97" stop-color="#6F4D23" />
    </linearGradient>
    <linearGradient id="paint14_linear_725_435" x1="-nan" y1="-nan" x2="-nan" y2="-nan" gradientUnits="userSpaceOnUse">
      <stop stop-color="#6F4D23" />
      <stop offset="0.17" stop-color="#835B28" />
      <stop offset="0.52" stop-color="#B88038" />
      <stop offset="0.69" stop-color="#D49440" />
      <stop offset="0.99" stop-color="#FDEBA9" />
      <stop offset="1" stop-color="#FFEFAE" />
    </linearGradient>
    <linearGradient id="paint15_linear_725_435" x1="1760.39" y1="55.7621" x2="1760.39" y2="112.602"
      gradientUnits="userSpaceOnUse">
      <stop stop-color="#103559" />
      <stop offset="0.34" stop-color="#104677" />
      <stop offset="0.93" stop-color="#126BB5" />
    </linearGradient>
    <linearGradient id="paint16_linear_725_435" x1="1761" y1="24.5599" x2="1761" y2="140.988"
      gradientUnits="userSpaceOnUse">
      <stop offset="0.3" stop-color="#FFEFAE" />
      <stop offset="0.32" stop-color="#FDEBA9" />
      <stop offset="0.7" stop-color="#D49440" />
      <stop offset="0.75" stop-color="#CD8F3E" />
      <stop offset="0.81" stop-color="#BD8339" />
      <stop offset="0.88" stop-color="#A17031" />
      <stop offset="0.95" stop-color="#7A5526" />
      <stop offset="0.97" stop-color="#6F4D23" />
    </linearGradient>
    <linearGradient id="paint17_linear_725_435" x1="1772.33" y1="36.7605" x2="1772.33" y2="129"
      gradientUnits="userSpaceOnUse">
      <stop stop-color="#FFF284" />
      <stop offset="0.08" stop-color="#F8E77D" />
      <stop offset="0.21" stop-color="#E6C96C" />
      <stop offset="0.39" stop-color="#CA9A4F" />
      <stop offset="0.59" stop-color="#A35928" />
      <stop offset="0.62" stop-color="#9D4F23" />
      <stop offset="0.76" stop-color="#8F481F" />
      <stop offset="1" stop-color="#6E3917" />
    </linearGradient>
    <linearGradient id="paint18_linear_725_435" x1="1463.35" y1="165.121" x2="1463.35" y2="-22.1497"
      gradientUnits="userSpaceOnUse">
      <stop offset="0.03" stop-color="#6F4D23" stop-opacity="0" />
      <stop offset="0.05" stop-color="#745024" stop-opacity="0.05" />
      <stop offset="0.14" stop-color="#91652C" stop-opacity="0.34" />
      <stop offset="0.23" stop-color="#A97533" stop-opacity="0.57" />
      <stop offset="0.31" stop-color="#BB8239" stop-opacity="0.76" />
      <stop offset="0.39" stop-color="#C98C3C" stop-opacity="0.89" />
      <stop offset="0.45" stop-color="#D1913F" stop-opacity="0.97" />
      <stop offset="0.5" stop-color="#D49440" />
      <stop offset="1" stop-color="#FFEE8F" />
    </linearGradient>
    <clipPath id="clip0_725_435">
      <rect width="1940" height="180" fill="white" />
    </clipPath>
    <clipPath id="clip1_725_435">
      <rect width="44" height="180" fill="white" transform="translate(1129 -52)" />
    </clipPath>
    <clipPath id="clip2_725_435">
      <rect width="353.942" height="284" fill="white" transform="translate(1283 9)" />
    </clipPath>
    <clipPath id="clip3_725_435">
      <rect width="255" height="256" fill="white" transform="matrix(-1 0 0 1 1994 -27)" />
    </clipPath>
    <clipPath id="clip4_725_435">
      <rect width="44" height="180" fill="white" transform="translate(1739 -52)" />
    </clipPath>
    <clipPath id="clip5_725_435">
      <rect width="290" height="84" fill="white" transform="translate(687 44)" />
    </clipPath>
    <clipPath id="clip6_725_435">
      <rect width="1" height="126" fill="white" transform="matrix(-1 0 0 1 1049 31)" />
    </clipPath>
  </defs>
</svg>