<svg width="376" height="375" viewBox="0 0 376 375" fill="none" xmlns="http://www.w3.org/2000/svg">
  <path
    d="M375.84 187.5C375.84 196.7 375.18 205.75 373.89 214.59C371.91 228.27 368.46 241.47 363.69 254.02C359.47 265.16 354.21 275.79 348.04 285.79C315.02 339.32 255.85 375 188.34 375C120.83 375 61.6598 339.32 28.6398 285.79C21.7298 274.59 15.9698 262.6 11.5198 250C7.50984 238.68 4.56984 226.85 2.79984 214.65C1.50984 205.79 0.839844 196.72 0.839844 187.5C0.839844 110.84 46.8298 44.93 112.74 15.87C130.36 8.09 149.41 2.95 169.38 0.95C175.61 0.32 181.94 0 188.34 0C196.34 0 204.23 0.5 211.97 1.48C230.24 3.77 247.69 8.7 263.94 15.87C329.84 44.93 375.84 110.84 375.84 187.5Z"
    fill="#2C324B" />
  <g opacity="0.25">
    <path
      d="M81.4798 152.27H81.6698C82.3098 152.27 82.8298 151.75 82.8298 151.1C82.8298 150.45 82.3098 149.94 81.6698 149.94H81.4098L80.3098 120.2H80.6098C81.2498 120.2 81.7798 119.68 81.7798 119.04C81.7798 118.4 81.2498 117.87 80.6098 117.87H79.5698V107.44H79.6898C80.2298 107.44 80.6598 107 80.6598 106.47V106.37C80.6598 105.83 80.2298 105.4 79.6898 105.4H79.4198C79.4198 105.4 82.1498 102.01 79.9598 99.2C77.4698 96.01 72.8898 94.81 71.1098 92.71L70.9098 87.48L70.7098 92.71C68.9298 94.81 64.3498 96.01 61.8698 99.2C59.6698 102.01 62.3998 105.4 62.3998 105.4H62.1298C61.5998 105.4 61.1598 105.83 61.1598 106.37V106.47C61.1598 107 61.5998 107.44 62.1298 107.44H62.2598V117.87H61.2098C60.5698 117.87 60.0498 118.4 60.0498 119.04C60.0498 119.68 60.5698 120.2 61.2098 120.2H61.5198L60.4198 149.94H60.1498C59.5098 149.94 58.9898 150.46 58.9898 151.1C58.9898 151.74 59.5098 152.27 60.1498 152.27H60.3498L59.8898 185.95L59.6598 202.32V203L59.5798 208.34L59.5598 209.6L58.5098 285.79H83.3198L81.4798 152.27ZM69.0598 111.57C69.0598 110.56 69.8898 109.72 70.8998 109.72C71.9098 109.72 72.7498 110.56 72.7498 111.57V115.58H69.0598V111.57ZM63.9798 111.57C63.9798 110.56 64.8198 109.72 65.8498 109.72C66.8798 109.72 67.6898 110.56 67.6898 111.57V115.58H63.9798V111.57ZM74.1698 172H67.6598V163.57C67.6598 161.77 69.1098 160.3 70.8998 160.3C72.6898 160.3 74.1698 161.77 74.1698 163.57V172ZM74.1698 139.93H67.6598V131.5C67.6598 129.71 69.1098 128.25 70.8998 128.25C72.6898 128.25 74.1698 129.71 74.1698 131.5V139.93ZM77.8298 115.58H74.1198V111.57C74.1198 110.56 74.9498 109.72 75.9798 109.72C77.0098 109.72 77.8298 110.56 77.8298 111.57V115.58Z"
      fill="url(#paint0_linear_527_424)" />
    <path
      d="M59.8804 203H59.1404C59.1404 203 59.3504 202.76 59.6604 202.32C61.2704 200.11 65.6904 192.93 60.6304 186.8C60.3904 186.51 60.1404 186.22 59.8904 185.95C52.8804 178.27 40.9304 175.16 36.1604 169.88L36.0704 166.56C36.5704 166.39 36.9204 165.95 36.9204 165.42C36.9204 164.89 36.5404 164.43 36.0104 164.28L35.9604 162.01C36.3604 161.88 36.6504 161.53 36.6504 161.1C36.6504 160.67 36.3404 160.3 35.9104 160.19L35.8504 158.07H35.8304C35.8304 158.07 35.7804 158.06 35.7504 158.06C35.6404 158.05 35.5204 158.05 35.4104 158.05L35.3504 160.19C34.9304 160.3 34.6104 160.66 34.6104 161.1C34.6104 161.54 34.9004 161.88 35.3104 162.01L35.2504 164.28C34.7304 164.43 34.3404 164.88 34.3404 165.42C34.3404 165.96 34.7004 166.39 35.1904 166.56L35.1004 169.88C30.1604 175.35 17.5004 178.49 10.6404 186.8C4.57043 194.14 12.1204 203 12.1204 203H11.3804C9.89043 203 8.69043 204.14 8.69043 205.54V205.8C8.69043 207.2 9.89043 208.34 11.3804 208.34H11.7304V233.95H11.5204V250C15.9704 262.6 21.7304 274.59 28.6404 285.79H59.7004V233.95H59.5604V208.34H59.8804C61.3704 208.34 62.5704 207.2 62.5704 205.8V205.54C62.5704 204.14 61.3704 203 59.8804 203ZM26.4204 233.95H15.8104V219.25C15.8104 216.52 18.1404 214.32 21.0304 214.32H21.2004C24.0904 214.32 26.4204 216.52 26.4204 219.25V233.95ZM40.9404 233.95H30.3304V219.25C30.3304 216.52 32.6604 214.32 35.5404 214.32H35.7504C38.6004 214.32 40.9404 216.52 40.9404 219.25V233.95ZM55.4804 233.95H44.8704V219.25C44.8704 216.52 47.2004 214.32 50.0604 214.32H50.2604C53.1504 214.32 55.4804 216.52 55.4804 219.25V233.95Z"
      fill="url(#paint1_linear_527_424)" />
  </g>
  <g opacity="0.25">
    <path
      d="M315.639 208.87V208.34L315.559 203V202.33L315.319 185.95L314.859 152.27H315.049C315.689 152.27 316.209 151.75 316.209 151.1C316.209 150.45 315.689 149.94 315.049 149.94H314.789L313.689 120.2H313.989C314.639 120.2 315.159 119.68 315.159 119.04C315.159 118.4 314.639 117.87 313.989 117.87H312.939V107.44H313.069C313.609 107.44 314.039 107 314.039 106.47V106.37C314.039 105.83 313.609 105.4 313.069 105.4H312.799C312.799 105.4 315.529 102.01 313.339 99.2C310.849 96.01 306.269 94.81 304.489 92.71L304.299 87.48H304.289L304.089 92.71C302.309 94.81 297.729 96.01 295.249 99.2C293.049 102.01 295.779 105.4 295.779 105.4H295.509C294.979 105.4 294.539 105.83 294.539 106.37V106.47C294.539 107 294.979 107.44 295.509 107.44H295.639V117.87H294.589C293.949 117.87 293.429 118.4 293.429 119.04C293.429 119.68 293.949 120.2 294.589 120.2H294.889L293.789 149.94H293.529C292.889 149.94 292.369 150.46 292.369 151.1C292.369 151.74 292.889 152.27 293.529 152.27H293.719L291.879 285.79H316.699L315.639 208.87ZM302.449 111.57C302.449 110.56 303.269 109.72 304.299 109.72C305.329 109.72 306.139 110.56 306.139 111.57V115.58H302.449V111.57ZM297.379 111.57C297.379 110.56 298.209 109.72 299.219 109.72C300.229 109.72 301.089 110.56 301.089 111.57V115.58H297.379V111.57ZM307.549 172H301.029V163.57C301.029 161.77 302.489 160.3 304.299 160.3C306.109 160.3 307.549 161.77 307.549 163.57V172ZM307.549 139.93H301.029V131.5C301.029 129.71 302.489 128.25 304.299 128.25C306.109 128.25 307.549 129.71 307.549 131.5V139.93ZM311.219 115.58H307.509V111.57C307.509 110.56 308.339 109.72 309.359 109.72C310.379 109.72 311.219 110.56 311.219 111.57V115.58Z"
      fill="url(#paint2_linear_527_424)" />
    <path
      d="M363.829 203H363.079C363.079 203 370.629 194.14 364.569 186.8C357.709 178.49 345.039 175.35 340.099 169.88L340.019 166.56C340.509 166.39 340.859 165.95 340.859 165.42C340.859 164.89 340.479 164.43 339.959 164.28L339.899 162.01C340.299 161.88 340.599 161.53 340.599 161.1C340.599 160.67 340.279 160.3 339.849 160.19L339.799 158.05C339.679 158.05 339.569 158.05 339.449 158.06C339.429 158.06 339.399 158.06 339.369 158.07H339.349L339.299 160.19C338.869 160.3 338.549 160.66 338.549 161.1C338.549 161.54 338.839 161.88 339.249 162.01L339.189 164.28C338.669 164.43 338.279 164.88 338.279 165.42C338.279 165.96 338.639 166.39 339.129 166.56L339.039 169.88C334.279 175.16 322.319 178.27 315.319 185.95C315.069 186.22 314.819 186.51 314.579 186.8C309.509 192.94 313.959 200.14 315.549 202.33C315.859 202.76 316.059 203 316.059 203H315.319C313.829 203 312.629 204.14 312.629 205.54V205.8C312.629 207.2 313.829 208.34 315.319 208.34H315.639V233.95H315.509V285.79H348.039C354.209 275.79 359.469 265.16 363.689 254.02V233.95H363.469V208.34H363.829C365.309 208.34 366.519 207.2 366.519 205.8V205.54C366.519 204.14 365.309 203 363.829 203ZM330.329 233.95H319.719V219.25C319.719 216.52 322.059 214.32 324.939 214.32H325.139C327.999 214.32 330.329 216.52 330.329 219.25V233.95ZM344.879 233.95H334.269V219.25C334.269 216.52 336.599 214.32 339.459 214.32H339.659C342.549 214.32 344.879 216.52 344.879 219.25V233.95ZM359.389 233.95H348.779V219.25C348.779 216.52 351.109 214.32 353.999 214.32H354.169C357.059 214.32 359.389 216.52 359.389 219.25V233.95Z"
      fill="url(#paint3_linear_527_424)" />
  </g>
  <path
    d="M366.969 188.87C366.139 188.87 365.469 188.2 365.469 187.37C365.469 117.19 323.979 53.55 259.759 25.23C244.129 18.33 227.609 13.76 210.669 11.64C197.469 9.96996 183.669 9.79996 170.429 11.14C151.909 13 133.899 17.74 116.919 25.23C52.709 53.55 11.209 117.19 11.209 187.37C11.209 188.2 10.539 188.87 9.70898 188.87C8.87898 188.87 8.20898 188.2 8.20898 187.37C8.20898 116 50.409 51.28 115.709 22.49C132.979 14.87 151.289 10.04 170.129 8.15996C183.589 6.79996 197.629 6.96996 211.039 8.66996C228.279 10.83 245.069 15.48 260.969 22.5C326.269 51.3 368.469 116.02 368.469 187.38C368.469 188.21 367.799 188.88 366.969 188.88V188.87Z"
    fill="url(#paint4_linear_527_424)" />
  <path opacity="0.3"
    d="M265.97 151.69C265.2 139.58 256.71 128.94 246.29 122.21C233.8 114.14 218.66 112.52 206.52 104.32C198.48 98.88 191.59 91.95 188.93 83.23C192.61 83.04 195.51 81.2 195.51 78.93C195.51 76.82 193.02 75.07 189.72 74.68L189.12 59.22C189.92 59.34 190.72 59.43 191.55 59.46C196.29 59.6 200.68 58.04 204.15 55.33C202.16 56.08 200 56.46 197.74 56.4C188.42 56.13 181.09 48.36 181.35 39.05C181.62 29.73 189.39 22.4 198.7 22.66C199.91 22.69 201.09 22.86 202.22 23.14C199.42 21.45 196.16 20.43 192.66 20.33C181.85 20.02 172.84 28.53 172.53 39.34C172.26 48.78 178.72 56.84 187.56 58.94L186.95 74.69C183.65 75.08 181.16 76.83 181.16 78.94C181.16 81.21 184.06 83.05 187.74 83.24C185.08 91.95 178.2 98.89 170.15 104.33C158.01 112.54 142.88 114.15 130.39 122.22C119.97 128.95 111.48 139.59 110.71 151.7C110.02 162.47 116.08 173.3 125.54 178.91H112.14V186.65C112.14 186.65 126.28 190.79 125.96 203.51V354.59H169.36V298.82C169.36 294.7 170.06 290.75 171.33 287.07C174.3 278.48 180.43 271.36 188.33 267.11C196.23 271.36 202.36 278.47 205.33 287.07C206.6 290.75 207.3 294.71 207.3 298.82V354.59H250.7V203.5C250.61 189.06 264.52 187.2 264.52 187.2V178.91H251.11C260.58 173.3 266.64 162.47 265.95 151.7L265.97 151.69Z"
    fill="url(#paint5_linear_527_424)" />
  <path
    d="M107.68 158.59H115V141.06C115 131.53 110 128.16 105.05 128.16C102.61 128.16 100.71 128.78 99.0602 129.94C97.6502 130.79 96.4402 132.01 95.3902 133.66H95.2702C93.9902 130.37 90.9402 128.16 87.0302 128.16C82.0202 128.16 79.3302 130.92 77.8702 133.24H77.6802L77.3801 128.84H70.9102C71.1002 131.4 71.1602 134.27 71.1602 137.7V158.59H78.4902V140.99C78.4902 140.14 78.6102 139.28 78.9302 138.55C79.5902 136.48 81.4902 134.27 84.3002 134.27C87.7902 134.27 89.4302 137.22 89.4302 141.36V158.59H96.7502V140.75C96.7502 139.9 96.9401 138.98 97.1201 138.25C97.9201 136.1 99.8202 134.27 102.38 134.27C105.97 134.27 107.7 137.22 107.7 142.16V158.59H107.68ZM136.23 148.14C136.23 148.64 136.17 149.24 135.99 149.79C135.31 151.92 133.11 153.88 130.13 153.88C127.74 153.88 125.85 152.53 125.85 149.61C125.85 145.09 130.92 143.92 136.23 144.05V148.13V148.14ZM137.2 158.59H143.99C143.68 156.76 143.56 154.13 143.56 151.44V140.69C143.56 134.22 140.81 128.16 131.27 128.16C126.57 128.16 122.74 129.45 120.53 130.79L121.99 135.67C124 134.4 127.06 133.48 129.99 133.48C135.25 133.48 136.04 136.73 136.04 138.67V139.16C125.04 139.1 118.39 142.88 118.39 150.39C118.39 154.92 121.75 159.25 127.73 159.25C131.58 159.25 134.69 157.6 136.53 155.28H136.71L137.19 158.58L137.2 158.59ZM168.18 158.59H175.68V140.94C175.68 131.53 170.32 128.16 165.11 128.16C159.9 128.16 156.94 130.98 155.65 133.31H155.47L155.1 128.84H148.5C148.69 131.4 148.74 134.27 148.74 137.7V158.59H156.32V141.11C156.32 140.26 156.39 139.35 156.63 138.67C157.42 136.41 159.5 134.27 162.49 134.27C166.57 134.27 168.17 137.52 168.17 141.79V158.59H168.18ZM200.76 145.69C200.76 146.48 200.68 147.22 200.5 147.89C199.77 151.13 197.08 153.21 194.03 153.21C189.27 153.21 186.58 149.24 186.58 143.81C186.58 138.38 189.27 133.97 194.09 133.97C197.52 133.97 199.9 136.36 200.57 139.28C200.69 139.9 200.77 140.63 200.77 141.24V145.7L200.76 145.69ZM201.79 158.58H208.51C208.39 156.56 208.26 153.27 208.26 150.21V116.89H200.76V132.08H200.62C199.28 129.86 196.34 128.16 192.26 128.16C185.11 128.16 178.88 134.1 178.94 144.05C178.94 153.21 184.57 159.26 191.66 159.26C195.99 159.26 199.6 157.19 201.36 153.89H201.48L201.8 158.59L201.79 158.58ZM213.58 158.58H221.15V128.83H213.58V158.58ZM240.94 135.19C241.86 135.19 242.52 135.3 243.13 135.44V128.83C242.52 128.71 242.1 128.83 241.37 128.83C238.18 128.83 234.7 130.3 233.24 134.51H233L232.75 128.83H226.21C226.4 131.52 226.45 134.4 226.45 138.43V158.59H233.97V143.2C233.97 142.34 234.09 141.55 234.21 140.87C234.89 137.52 237.33 135.2 240.94 135.2M254.19 128.84H246.62V158.59H254.19V128.84Z"
    fill="white" />
  <path
    d="M245.06 92.8199C240.5 95.4699 225.65 103.96 225.65 103.96C220.07 106.26 215.79 103.46 214.41 101.42C214.34 101.33 214.29 101.24 214.24 101.15L214.05 100.84L213.11 99.3099C212.71 98.6799 212.27 98.0099 211.75 97.3499C211.29 96.7599 210.78 96.1799 210.23 95.6099C206.64 91.9999 200.92 89.4499 191.37 93.9899C185.59 97.2799 172.17 104.97 172.17 104.97H172.15C166.63 108.12 162.32 110.59 162.32 110.59L167.41 116.82C169.55 118.87 173.57 122.21 179.8 119.39C179.8 119.39 196.97 109.44 197.04 109.42C211.73 101.36 218.96 109.06 222.17 114.19C222.27 114.35 222.37 114.52 222.47 114.68H222.48C222.52 114.75 222.54 114.81 222.58 114.88L222.94 115.46C224.49 117.83 226.96 119.36 229.9 119.29C231.51 119.25 232.61 118.73 234.21 117.84L250.84 108.2C250.84 108.2 250.86 108.2 250.87 108.2C265.74 100.04 273.1 108.25 276.25 113.38C276.49 113.82 276.78 114.24 277.06 114.63C278.61 116.75 280.76 118.13 283.48 118.06C285.29 118.03 287.31 116.94 287.62 116.74L307.53 105.23C307.53 105.23 305.49 102.17 301.3 97.3699C297.56 93.0999 293.57 95.0299 290.41 96.6099C289.07 97.2599 279.46 102.71 279.46 102.71C274.19 104.89 270.09 102.52 268.47 100.52C268.31 100.31 268.16 100.12 268.05 99.9199L267.68 99.2699C267.1 98.3099 266.41 97.1999 265.56 96.1099C265.11 95.5199 264.6 94.9399 264.04 94.3799C261.82 92.1499 258.79 90.3199 254.56 90.3199C251.9 90.3199 248.76 91.0399 245.04 92.8099"
    fill="#F9B716" />
  <path d="M33.0508 180.64H34.0508" stroke="white" stroke-miterlimit="10" />
  <path d="M36.0508 180.64H347.341" stroke="white" stroke-miterlimit="10" />
  <path d="M348.34 180.64H349.34" stroke="white" stroke-miterlimit="10" />
  <mask id="mask0_527_424" style="mask-type:luminance" maskUnits="userSpaceOnUse" x="0" y="0" width="376" height="375">
    <path
      d="M188.34 375C291.893 375 375.84 291.053 375.84 187.5C375.84 83.9466 291.893 0 188.34 0C84.7865 0 0.839844 83.9466 0.839844 187.5C0.839844 291.053 84.7865 375 188.34 375Z"
      fill="white" />
  </mask>
  <g mask="url(#mask0_527_424)">
    <path
      d="M242.549 379.21H121.809C119.399 374.11 118.439 368.26 119.379 362.28C121.869 346.41 136.809 335.53 152.679 338.03C157.749 338.83 162.449 340.91 166.399 344.09C176.079 331.88 191.409 325.84 206.909 328.28C230.419 331.98 246.529 354.11 242.839 377.61C242.759 378.15 242.649 378.68 242.549 379.21Z"
      fill="url(#paint6_linear_527_424)" />
    <path
      d="M240.62 379.21H123.91C121.37 374.26 120.32 368.49 121.25 362.58C123.59 347.72 137.53 337.57 152.39 339.9C157.96 340.77 162.86 343.28 166.7 346.85C175.5 334.61 190.71 327.65 206.62 330.15C229.13 333.69 244.51 354.81 240.97 377.32C240.87 377.96 240.75 378.59 240.62 379.21Z"
      fill="url(#paint7_linear_527_424)" />
    <path
      d="M-3.43 213.57C16.93 221.44 29.41 243.02 25.12 265.18C24.72 267.24 24.18 269.29 23.5 271.29C36.51 274.99 45.09 287.1 44.33 300.55C47.51 300.14 50.71 300.24 53.9 300.85C65.71 303.13 74.88 312.12 77.51 323.66C87.25 319.56 97.84 318.46 108.31 320.49C133.48 325.36 151.11 347.25 151.59 371.91L-33 321.18L-3.43 213.57Z"
      fill="url(#paint8_linear_527_424)" />
    <path
      d="M-4.03 215.75C15.23 223.3 26.98 243.72 22.91 264.75C22.36 267.59 21.54 270.31 20.5 272.89C20.53 272.89 20.55 272.89 20.58 272.9C34.75 275.64 44.08 289.15 41.76 303.3C45.49 302.41 49.46 302.28 53.47 303.05C65.59 305.4 74.34 315.28 75.8 326.9C85.42 322.22 96.58 320.5 107.89 322.69C131.81 327.32 148.58 347.91 149.33 371.28L-33 321.18L-4.03 215.75Z"
      fill="url(#paint9_linear_527_424)" />
    <g filter="url(#filter0_d_527_424)">
      <path
        d="M43.4999 314.63L41.6599 317.43L38.4199 316.54L40.5199 319.16L38.6699 321.96L41.8099 320.78L43.9099 323.4L43.7499 320.05L46.8899 318.87L43.6599 317.98L43.4999 314.63Z"
        fill="url(#paint10_linear_527_424)" />
      <path opacity="0.79"
        d="M38.4199 316.54L41.6599 317.43L43.4999 314.63L43.5099 314.78L41.8499 320.83L41.8099 320.78L38.6699 321.96L40.5199 319.16L38.4199 316.54Z"
        fill="#B4782A" />
    </g>
    <g filter="url(#filter1_d_527_424)">
      <path
        d="M110 334.14L108.15 336.94L104.92 336.05L107.01 338.67L105.17 341.47L108.31 340.29L110.4 342.91L110.25 339.56L113.39 338.38L110.15 337.49L110 334.14Z"
        fill="url(#paint11_linear_527_424)" />
      <path opacity="0.79"
        d="M104.92 336.05L108.15 336.94L110 334.14L110.01 334.29L108.34 340.33L108.31 340.29L105.17 341.47L107.01 338.67L104.92 336.05Z"
        fill="#B4782A" />
    </g>
    <g filter="url(#filter2_d_527_424)">
      <path
        d="M6.42961 273.29L4.57961 276.09L1.34961 275.2L3.43961 277.82L1.59961 280.62L4.73961 279.44L6.82961 282.06L6.67961 278.71L9.81961 277.53L6.57961 276.64L6.42961 273.29Z"
        fill="url(#paint12_linear_527_424)" />
      <path opacity="0.79"
        d="M1.34961 275.2L4.57961 276.09L6.42961 273.29L6.43961 273.44L4.76961 279.48L4.73961 279.44L1.59961 280.62L3.43961 277.82L1.34961 275.2Z"
        fill="#B4782A" />
    </g>
    <path
      d="M380.01 213.57C359.65 221.44 347.17 243.02 351.46 265.18C351.86 267.24 352.4 269.29 353.08 271.29C340.07 274.99 331.49 287.1 332.25 300.55C329.07 300.14 325.87 300.24 322.68 300.85C310.87 303.13 301.7 312.12 299.07 323.66C289.33 319.56 278.74 318.46 268.27 320.49C243.1 325.36 225.47 347.25 224.99 371.91L409.58 321.18L380.01 213.57Z"
      fill="url(#paint13_linear_527_424)" />
    <path
      d="M380.61 215.75C361.35 223.3 349.6 243.72 353.67 264.75C354.22 267.59 355.04 270.31 356.08 272.89C356.05 272.89 356.03 272.89 356 272.9C341.83 275.64 332.5 289.15 334.82 303.3C331.09 302.41 327.12 302.28 323.11 303.05C310.99 305.4 302.24 315.28 300.78 326.9C291.16 322.22 280 320.5 268.69 322.69C244.77 327.32 228 347.91 227.25 371.28L409.57 321.18L380.6 215.75H380.61Z"
      fill="url(#paint14_linear_527_424)" />
    <g filter="url(#filter3_d_527_424)">
      <path
        d="M333.081 314.63L334.921 317.43L338.161 316.54L336.061 319.16L337.911 321.96L334.771 320.78L332.681 323.4L332.831 320.05L329.691 318.87L332.931 317.98L333.081 314.63Z"
        fill="url(#paint15_linear_527_424)" />
      <path opacity="0.79"
        d="M338.162 316.54L334.922 317.43L333.082 314.63L333.072 314.78L334.732 320.83L334.772 320.78L337.912 321.96L336.062 319.16L338.162 316.54Z"
        fill="#B4782A" />
    </g>
    <g filter="url(#filter4_d_527_424)">
      <path
        d="M266.591 334.14L268.431 336.94L271.671 336.05L269.571 338.67L271.421 341.47L268.281 340.29L266.181 342.91L266.341 339.56L263.201 338.38L266.431 337.49L266.591 334.14Z"
        fill="url(#paint16_linear_527_424)" />
      <path opacity="0.79"
        d="M271.672 336.05L268.432 336.94L266.592 334.14L266.582 334.29L268.242 340.33L268.282 340.29L271.422 341.47L269.572 338.67L271.672 336.05Z"
        fill="#B4782A" />
    </g>
    <g filter="url(#filter5_d_527_424)">
      <path
        d="M370.151 273.29L372.001 276.09L375.232 275.2L373.142 277.82L374.982 280.62L371.841 279.44L369.751 282.06L369.901 278.71L366.771 277.53L370.001 276.64L370.151 273.29Z"
        fill="url(#paint17_linear_527_424)" />
      <path opacity="0.79"
        d="M375.232 275.2L372.002 276.09L370.152 273.29V273.44L371.812 279.48L371.852 279.44L374.982 280.62L373.142 277.82L375.232 275.2Z"
        fill="#B4782A" />
    </g>
  </g>
  <path d="M46.2598 221.31V180.64" stroke="url(#paint18_linear_527_424)" stroke-width="1.22" stroke-miterlimit="10" />
  <path d="M54.2195 234.79H38.0195V256.58H54.2195V234.79Z" fill="url(#paint19_linear_527_424)" />
  <path
    d="M55.3197 258.21H55.2497L55.1997 234.35H55.3197C55.8697 234.35 56.3097 233.93 56.3097 233.41V233.32C56.3097 232.8 55.8697 232.38 55.3197 232.38H55.0497C55.0497 232.38 57.8197 229.12 55.5997 226.42C53.0897 223.38 48.4797 222.23 46.6397 220.24H46.1797C44.3397 222.23 39.7297 223.39 37.2197 226.42C34.9897 229.12 37.7697 232.38 37.7697 232.38H37.4997C36.9497 232.38 36.5097 232.8 36.5097 233.32V233.41C36.5097 233.93 36.9497 234.35 37.4997 234.35H37.6297L37.5497 258.21H37.4897C36.8997 258.21 36.4197 258.69 36.4197 259.28C36.4197 259.87 36.8997 260.35 37.4897 260.35H38.4597C38.3797 260.49 38.3197 260.66 38.3197 260.84V261.05C38.3197 261.58 38.7497 262.01 39.2797 262.01H53.5297C54.0597 262.01 54.4897 261.58 54.4897 261.05V260.84C54.4897 260.66 54.4397 260.5 54.3497 260.35H55.3197C55.9097 260.35 56.3897 259.87 56.3897 259.28C56.3897 258.69 55.9097 258.21 55.3197 258.21ZM43.0097 254.28C43.0097 254.67 42.6897 254.99 42.2997 254.99H39.8197C39.4297 254.99 39.1097 254.67 39.1097 254.28V238.37C39.1097 237.37 39.9697 236.56 41.0297 236.56H41.0897C42.1497 236.56 43.0097 237.37 43.0097 238.37V254.28ZM48.3497 254.28C48.3497 254.67 48.0297 254.99 47.6397 254.99H45.1597C44.7697 254.99 44.4497 254.67 44.4497 254.28V238.37C44.4497 237.37 45.3097 236.56 46.3697 236.56H46.4397C47.4897 236.56 48.3497 237.37 48.3497 238.37V254.28ZM53.6997 254.28C53.6997 254.67 53.3797 254.99 52.9897 254.99H50.5097C50.1197 254.99 49.7997 254.67 49.7997 254.28V238.37C49.7997 237.37 50.6597 236.56 51.7097 236.56H51.7797C52.8397 236.56 53.6997 237.37 53.6997 238.37V254.28Z"
    fill="url(#paint20_linear_527_424)" />
  <path style="mix-blend-mode:multiply" opacity="0.68"
    d="M55.319 258.21H55.249L55.199 234.35H55.319C55.869 234.35 56.309 233.93 56.309 233.41V233.32C56.309 232.8 55.869 232.38 55.319 232.38H55.049C55.049 232.38 57.819 229.12 55.599 226.42C53.119 223.42 48.589 222.25 46.709 220.3V236.56C47.639 236.68 48.359 237.43 48.359 238.35V254.26C48.359 254.65 48.039 254.97 47.649 254.97H46.709V262H53.529C54.059 262 54.489 261.57 54.489 261.04V260.83C54.489 260.65 54.439 260.49 54.349 260.34H55.319C55.909 260.34 56.389 259.86 56.389 259.27C56.389 258.68 55.909 258.2 55.319 258.2V258.21ZM53.699 254.28C53.699 254.67 53.379 254.99 52.989 254.99H50.509C50.119 254.99 49.799 254.67 49.799 254.28V238.37C49.799 237.37 50.659 236.56 51.709 236.56H51.779C52.839 236.56 53.699 237.37 53.699 238.37V254.28Z"
    fill="url(#paint21_linear_527_424)" />
  <path
    d="M46.2603 248.37C45.5203 249.26 45.0703 250.4 45.0703 251.65C45.0703 252.9 45.5203 254.04 46.2603 254.93C47.0003 254.04 47.4503 252.9 47.4503 251.65C47.4503 250.4 47.0003 249.26 46.2603 248.37Z"
    fill="white" />
  <path d="M330.6 221.31V180.64" stroke="url(#paint22_linear_527_424)" stroke-width="1.22" stroke-miterlimit="10" />
  <path d="M338.559 234.79H322.359V256.58H338.559V234.79Z" fill="url(#paint23_linear_527_424)" />
  <path
    d="M339.66 258.21H339.59L339.54 234.35H339.66C340.21 234.35 340.65 233.93 340.65 233.41V233.32C340.65 232.8 340.21 232.38 339.66 232.38H339.39C339.39 232.38 342.16 229.12 339.94 226.42C337.43 223.38 332.82 222.23 330.98 220.24H330.52C328.68 222.23 324.07 223.39 321.56 226.42C319.33 229.12 322.11 232.38 322.11 232.38H321.84C321.29 232.38 320.85 232.8 320.85 233.32V233.41C320.85 233.93 321.29 234.35 321.84 234.35H321.97L321.89 258.21H321.83C321.24 258.21 320.76 258.69 320.76 259.28C320.76 259.87 321.24 260.35 321.83 260.35H322.8C322.72 260.49 322.66 260.66 322.66 260.84V261.05C322.66 261.58 323.09 262.01 323.62 262.01H337.87C338.4 262.01 338.83 261.58 338.83 261.05V260.84C338.83 260.66 338.78 260.5 338.69 260.35H339.66C340.25 260.35 340.73 259.87 340.73 259.28C340.73 258.69 340.25 258.21 339.66 258.21ZM327.35 254.28C327.35 254.67 327.03 254.99 326.64 254.99H324.16C323.77 254.99 323.45 254.67 323.45 254.28V238.37C323.45 237.37 324.31 236.56 325.37 236.56H325.43C326.49 236.56 327.35 237.37 327.35 238.37V254.28ZM332.69 254.28C332.69 254.67 332.37 254.99 331.98 254.99H329.5C329.11 254.99 328.79 254.67 328.79 254.28V238.37C328.79 237.37 329.65 236.56 330.71 236.56H330.78C331.83 236.56 332.69 237.37 332.69 238.37V254.28ZM338.04 254.28C338.04 254.67 337.72 254.99 337.33 254.99H334.85C334.46 254.99 334.14 254.67 334.14 254.28V238.37C334.14 237.37 335 236.56 336.05 236.56H336.12C337.18 236.56 338.04 237.37 338.04 238.37V254.28Z"
    fill="url(#paint24_linear_527_424)" />
  <path style="mix-blend-mode:multiply" opacity="0.68"
    d="M339.659 258.21H339.589L339.539 234.35H339.659C340.209 234.35 340.649 233.93 340.649 233.41V233.32C340.649 232.8 340.209 232.38 339.659 232.38H339.389C339.389 232.38 342.159 229.12 339.939 226.42C337.459 223.42 332.929 222.25 331.049 220.3V236.56C331.979 236.68 332.699 237.43 332.699 238.35V254.26C332.699 254.65 332.379 254.97 331.989 254.97H331.049V262H337.869C338.399 262 338.829 261.57 338.829 261.04V260.83C338.829 260.65 338.779 260.49 338.689 260.34H339.659C340.249 260.34 340.729 259.86 340.729 259.27C340.729 258.68 340.249 258.2 339.659 258.2V258.21ZM338.039 254.28C338.039 254.67 337.719 254.99 337.329 254.99H334.849C334.459 254.99 334.139 254.67 334.139 254.28V238.37C334.139 237.37 334.999 236.56 336.049 236.56H336.119C337.179 236.56 338.039 237.37 338.039 238.37V254.28Z"
    fill="url(#paint25_linear_527_424)" />
  <path
    d="M330.6 248.37C329.86 249.26 329.41 250.4 329.41 251.65C329.41 252.9 329.86 254.04 330.6 254.93C331.34 254.04 331.79 252.9 331.79 251.65C331.79 250.4 331.34 249.26 330.6 248.37Z"
    fill="white" />
  <defs>
    <filter id="filter0_d_527_424" x="36.6499" y="312.27" width="15.5507" height="15.85" filterUnits="userSpaceOnUse"
      color-interpolation-filters="sRGB">
      <feFlood flood-opacity="0" result="BackgroundImageFix" />
      <feColorMatrix in="SourceAlpha" type="matrix" values="0 0 0 0 0 0 0 0 0 0 0 0 0 0 0 0 0 0 127 0"
        result="hardAlpha" />
      <feOffset dx="1.77" dy="1.18" />
      <feGaussianBlur stdDeviation="1.77" />
      <feColorMatrix type="matrix" values="0 0 0 0 0.568627 0 0 0 0 0.513726 0 0 0 0 0.466667 0 0 0 0.3 0" />
      <feBlend mode="normal" in2="BackgroundImageFix" result="effect1_dropShadow_527_424" />
      <feBlend mode="normal" in="SourceGraphic" in2="effect1_dropShadow_527_424" result="shape" />
    </filter>
    <filter id="filter1_d_527_424" x="103.15" y="331.78" width="15.5507" height="15.85" filterUnits="userSpaceOnUse"
      color-interpolation-filters="sRGB">
      <feFlood flood-opacity="0" result="BackgroundImageFix" />
      <feColorMatrix in="SourceAlpha" type="matrix" values="0 0 0 0 0 0 0 0 0 0 0 0 0 0 0 0 0 0 127 0"
        result="hardAlpha" />
      <feOffset dx="1.77" dy="1.18" />
      <feGaussianBlur stdDeviation="1.77" />
      <feColorMatrix type="matrix" values="0 0 0 0 0.568627 0 0 0 0 0.513726 0 0 0 0 0.466667 0 0 0 0.3 0" />
      <feBlend mode="normal" in2="BackgroundImageFix" result="effect1_dropShadow_527_424" />
      <feBlend mode="normal" in="SourceGraphic" in2="effect1_dropShadow_527_424" result="shape" />
    </filter>
    <filter id="filter2_d_527_424" x="-0.420391" y="270.93" width="15.5507" height="15.85" filterUnits="userSpaceOnUse"
      color-interpolation-filters="sRGB">
      <feFlood flood-opacity="0" result="BackgroundImageFix" />
      <feColorMatrix in="SourceAlpha" type="matrix" values="0 0 0 0 0 0 0 0 0 0 0 0 0 0 0 0 0 0 127 0"
        result="hardAlpha" />
      <feOffset dx="1.77" dy="1.18" />
      <feGaussianBlur stdDeviation="1.77" />
      <feColorMatrix type="matrix" values="0 0 0 0 0.568627 0 0 0 0 0.513726 0 0 0 0 0.466667 0 0 0 0.3 0" />
      <feBlend mode="normal" in2="BackgroundImageFix" result="effect1_dropShadow_527_424" />
      <feBlend mode="normal" in="SourceGraphic" in2="effect1_dropShadow_527_424" result="shape" />
    </filter>
    <filter id="filter3_d_527_424" x="327.921" y="312.27" width="15.5507" height="15.85" filterUnits="userSpaceOnUse"
      color-interpolation-filters="sRGB">
      <feFlood flood-opacity="0" result="BackgroundImageFix" />
      <feColorMatrix in="SourceAlpha" type="matrix" values="0 0 0 0 0 0 0 0 0 0 0 0 0 0 0 0 0 0 127 0"
        result="hardAlpha" />
      <feOffset dx="1.77" dy="1.18" />
      <feGaussianBlur stdDeviation="1.77" />
      <feColorMatrix type="matrix" values="0 0 0 0 0.568627 0 0 0 0 0.513726 0 0 0 0 0.466667 0 0 0 0.3 0" />
      <feBlend mode="normal" in2="BackgroundImageFix" result="effect1_dropShadow_527_424" />
      <feBlend mode="normal" in="SourceGraphic" in2="effect1_dropShadow_527_424" result="shape" />
    </filter>
    <filter id="filter4_d_527_424" x="261.431" y="331.78" width="15.5507" height="15.85" filterUnits="userSpaceOnUse"
      color-interpolation-filters="sRGB">
      <feFlood flood-opacity="0" result="BackgroundImageFix" />
      <feColorMatrix in="SourceAlpha" type="matrix" values="0 0 0 0 0 0 0 0 0 0 0 0 0 0 0 0 0 0 127 0"
        result="hardAlpha" />
      <feOffset dx="1.77" dy="1.18" />
      <feGaussianBlur stdDeviation="1.77" />
      <feColorMatrix type="matrix" values="0 0 0 0 0.568627 0 0 0 0 0.513726 0 0 0 0 0.466667 0 0 0 0.3 0" />
      <feBlend mode="normal" in2="BackgroundImageFix" result="effect1_dropShadow_527_424" />
      <feBlend mode="normal" in="SourceGraphic" in2="effect1_dropShadow_527_424" result="shape" />
    </filter>
    <filter id="filter5_d_527_424" x="365.001" y="270.93" width="15.5409" height="15.85" filterUnits="userSpaceOnUse"
      color-interpolation-filters="sRGB">
      <feFlood flood-opacity="0" result="BackgroundImageFix" />
      <feColorMatrix in="SourceAlpha" type="matrix" values="0 0 0 0 0 0 0 0 0 0 0 0 0 0 0 0 0 0 127 0"
        result="hardAlpha" />
      <feOffset dx="1.77" dy="1.18" />
      <feGaussianBlur stdDeviation="1.77" />
      <feColorMatrix type="matrix" values="0 0 0 0 0.568627 0 0 0 0 0.513726 0 0 0 0 0.466667 0 0 0 0.3 0" />
      <feBlend mode="normal" in2="BackgroundImageFix" result="effect1_dropShadow_527_424" />
      <feBlend mode="normal" in="SourceGraphic" in2="effect1_dropShadow_527_424" result="shape" />
    </filter>
    <linearGradient id="paint0_linear_527_424" x1="70.9098" y1="67.75" x2="70.9098" y2="293.86"
      gradientUnits="userSpaceOnUse">
      <stop offset="0.33" stop-color="#126BB5" />
      <stop offset="0.58" stop-color="#11558F" stop-opacity="0.59" />
      <stop offset="0.87" stop-color="#103E68" stop-opacity="0.17" />
      <stop offset="1" stop-color="#103559" stop-opacity="0" />
    </linearGradient>
    <linearGradient id="paint1_linear_527_424" x1="35.6304" y1="103.33" x2="35.6304" y2="307.08"
      gradientUnits="userSpaceOnUse">
      <stop offset="0.33" stop-color="#126BB5" />
      <stop offset="0.58" stop-color="#11558F" stop-opacity="0.59" />
      <stop offset="0.87" stop-color="#103E68" stop-opacity="0.17" />
      <stop offset="1" stop-color="#103559" stop-opacity="0" />
    </linearGradient>
    <linearGradient id="paint2_linear_527_424" x1="304.289" y1="67.75" x2="304.289" y2="293.86"
      gradientUnits="userSpaceOnUse">
      <stop offset="0.33" stop-color="#126BB5" />
      <stop offset="0.58" stop-color="#11558F" stop-opacity="0.59" />
      <stop offset="0.87" stop-color="#103E68" stop-opacity="0.17" />
      <stop offset="1" stop-color="#103559" stop-opacity="0" />
    </linearGradient>
    <linearGradient id="paint3_linear_527_424" x1="339.579" y1="103.33" x2="339.579" y2="307.08"
      gradientUnits="userSpaceOnUse">
      <stop offset="0.33" stop-color="#126BB5" />
      <stop offset="0.58" stop-color="#11558F" stop-opacity="0.59" />
      <stop offset="0.87" stop-color="#103E68" stop-opacity="0.17" />
      <stop offset="1" stop-color="#103559" stop-opacity="0" />
    </linearGradient>
    <linearGradient id="paint4_linear_527_424" x1="188.339" y1="183.14" x2="188.339" y2="31.43"
      gradientUnits="userSpaceOnUse">
      <stop offset="0.03" stop-color="#6F4D23" stop-opacity="0" />
      <stop offset="0.05" stop-color="#745024" stop-opacity="0.05" />
      <stop offset="0.14" stop-color="#91652C" stop-opacity="0.34" />
      <stop offset="0.23" stop-color="#A97533" stop-opacity="0.57" />
      <stop offset="0.31" stop-color="#BB8239" stop-opacity="0.76" />
      <stop offset="0.39" stop-color="#C98C3C" stop-opacity="0.89" />
      <stop offset="0.45" stop-color="#D1913F" stop-opacity="0.97" />
      <stop offset="0.5" stop-color="#D49440" />
      <stop offset="1" stop-color="#FFEE8F" />
    </linearGradient>
    <linearGradient id="paint5_linear_527_424" x1="188.34" y1="77.71" x2="188.34" y2="321.34"
      gradientUnits="userSpaceOnUse">
      <stop offset="0.33" stop-color="#126BB5" />
      <stop offset="0.58" stop-color="#11558F" stop-opacity="0.59" />
      <stop offset="0.87" stop-color="#103E68" stop-opacity="0.17" />
      <stop offset="1" stop-color="#103559" stop-opacity="0" />
    </linearGradient>
    <linearGradient id="paint6_linear_527_424" x1="175.997" y1="388.697" x2="196.634" y2="311.343"
      gradientUnits="userSpaceOnUse">
      <stop offset="0.03" stop-color="#6F4D23" />
      <stop offset="0.07" stop-color="#7A5526" />
      <stop offset="0.22" stop-color="#A17031" />
      <stop offset="0.36" stop-color="#BD8339" />
      <stop offset="0.49" stop-color="#CD8F3E" />
      <stop offset="0.58" stop-color="#D49440" />
      <stop offset="0.98" stop-color="#FDEBA9" />
      <stop offset="1" stop-color="#FFEFAE" />
    </linearGradient>
    <linearGradient id="paint7_linear_527_424" x1="188.411" y1="322.967" x2="178.829" y2="383.949"
      gradientUnits="userSpaceOnUse">
      <stop stop-color="#0B4B7F" />
      <stop offset="0.25" stop-color="#094474" />
      <stop offset="0.69" stop-color="#063357" />
      <stop offset="1" stop-color="#03253F" />
    </linearGradient>
    <linearGradient id="paint8_linear_527_424" x1="25.4386" y1="342.702" x2="84.4358" y2="282.197"
      gradientUnits="userSpaceOnUse">
      <stop offset="0.03" stop-color="#6F4D23" />
      <stop offset="0.07" stop-color="#7A5526" />
      <stop offset="0.22" stop-color="#A17031" />
      <stop offset="0.36" stop-color="#BD8339" />
      <stop offset="0.49" stop-color="#CD8F3E" />
      <stop offset="0.58" stop-color="#D49440" />
      <stop offset="0.98" stop-color="#FDEBA9" />
      <stop offset="1" stop-color="#FFEFAE" />
    </linearGradient>
    <linearGradient id="paint9_linear_527_424" x1="106.525" y1="253.468" x2="-0.136884" y2="380.449"
      gradientUnits="userSpaceOnUse">
      <stop offset="0.33" stop-color="#126BB5" />
      <stop offset="0.76" stop-color="#104677" />
      <stop offset="1" stop-color="#103559" />
    </linearGradient>
    <linearGradient id="paint10_linear_527_424" x1="43.898" y1="313.146" x2="39.8746" y2="327.783"
      gradientUnits="userSpaceOnUse">
      <stop stop-color="#FFEFAE" />
      <stop offset="0.11" stop-color="#F7DF9B" />
      <stop offset="0.51" stop-color="#DEA959" />
      <stop offset="0.7" stop-color="#D49440" />
      <stop offset="0.75" stop-color="#CD8F3E" />
      <stop offset="0.81" stop-color="#BD8339" />
      <stop offset="0.88" stop-color="#A17031" />
      <stop offset="0.95" stop-color="#7A5526" />
      <stop offset="0.97" stop-color="#6F4D23" />
    </linearGradient>
    <linearGradient id="paint11_linear_527_424" x1="110.394" y1="332.659" x2="106.371" y2="347.296"
      gradientUnits="userSpaceOnUse">
      <stop stop-color="#FFEFAE" />
      <stop offset="0.11" stop-color="#F7DF9B" />
      <stop offset="0.51" stop-color="#DEA959" />
      <stop offset="0.7" stop-color="#D49440" />
      <stop offset="0.75" stop-color="#CD8F3E" />
      <stop offset="0.81" stop-color="#BD8339" />
      <stop offset="0.88" stop-color="#A17031" />
      <stop offset="0.95" stop-color="#7A5526" />
      <stop offset="0.97" stop-color="#6F4D23" />
    </linearGradient>
    <linearGradient id="paint12_linear_527_424" x1="6.83011" y1="271.803" x2="2.80664" y2="286.44"
      gradientUnits="userSpaceOnUse">
      <stop stop-color="#FFEFAE" />
      <stop offset="0.11" stop-color="#F7DF9B" />
      <stop offset="0.51" stop-color="#DEA959" />
      <stop offset="0.7" stop-color="#D49440" />
      <stop offset="0.75" stop-color="#CD8F3E" />
      <stop offset="0.81" stop-color="#BD8339" />
      <stop offset="0.88" stop-color="#A17031" />
      <stop offset="0.95" stop-color="#7A5526" />
      <stop offset="0.97" stop-color="#6F4D23" />
    </linearGradient>
    <linearGradient id="paint13_linear_527_424" x1="351.185" y1="342.705" x2="292.189" y2="282.21"
      gradientUnits="userSpaceOnUse">
      <stop offset="0.03" stop-color="#6F4D23" />
      <stop offset="0.07" stop-color="#7A5526" />
      <stop offset="0.22" stop-color="#A17031" />
      <stop offset="0.36" stop-color="#BD8339" />
      <stop offset="0.49" stop-color="#CD8F3E" />
      <stop offset="0.58" stop-color="#D49440" />
      <stop offset="0.98" stop-color="#FDEBA9" />
      <stop offset="1" stop-color="#FFEFAE" />
    </linearGradient>
    <linearGradient id="paint14_linear_527_424" x1="270.09" y1="253.48" x2="376.74" y2="380.453"
      gradientUnits="userSpaceOnUse">
      <stop offset="0.33" stop-color="#126BB5" />
      <stop offset="0.76" stop-color="#104677" />
      <stop offset="1" stop-color="#103559" />
    </linearGradient>
    <linearGradient id="paint15_linear_527_424" x1="332.688" y1="313.084" x2="336.709" y2="327.712"
      gradientUnits="userSpaceOnUse">
      <stop stop-color="#FFEFAE" />
      <stop offset="0.11" stop-color="#F7DF9B" />
      <stop offset="0.51" stop-color="#DEA959" />
      <stop offset="0.7" stop-color="#D49440" />
      <stop offset="0.75" stop-color="#CD8F3E" />
      <stop offset="0.81" stop-color="#BD8339" />
      <stop offset="0.88" stop-color="#A17031" />
      <stop offset="0.95" stop-color="#7A5526" />
      <stop offset="0.97" stop-color="#6F4D23" />
    </linearGradient>
    <linearGradient id="paint16_linear_527_424" x1="266.191" y1="332.597" x2="270.212" y2="347.225"
      gradientUnits="userSpaceOnUse">
      <stop stop-color="#FFEFAE" />
      <stop offset="0.11" stop-color="#F7DF9B" />
      <stop offset="0.51" stop-color="#DEA959" />
      <stop offset="0.7" stop-color="#D49440" />
      <stop offset="0.75" stop-color="#CD8F3E" />
      <stop offset="0.81" stop-color="#BD8339" />
      <stop offset="0.88" stop-color="#A17031" />
      <stop offset="0.95" stop-color="#7A5526" />
      <stop offset="0.97" stop-color="#6F4D23" />
    </linearGradient>
    <linearGradient id="paint17_linear_527_424" x1="369.756" y1="271.741" x2="373.776" y2="286.368"
      gradientUnits="userSpaceOnUse">
      <stop stop-color="#FFEFAE" />
      <stop offset="0.11" stop-color="#F7DF9B" />
      <stop offset="0.51" stop-color="#DEA959" />
      <stop offset="0.7" stop-color="#D49440" />
      <stop offset="0.75" stop-color="#CD8F3E" />
      <stop offset="0.81" stop-color="#BD8339" />
      <stop offset="0.88" stop-color="#A17031" />
      <stop offset="0.95" stop-color="#7A5526" />
      <stop offset="0.97" stop-color="#6F4D23" />
    </linearGradient>
    <linearGradient id="paint18_linear_527_424" x1="-nan" y1="-nan" x2="-nan" y2="-nan" gradientUnits="userSpaceOnUse">
      <stop stop-color="#6F4D23" />
      <stop offset="0.17" stop-color="#835B28" />
      <stop offset="0.52" stop-color="#B88038" />
      <stop offset="0.69" stop-color="#D49440" />
      <stop offset="0.99" stop-color="#FDEBA9" />
      <stop offset="1" stop-color="#FFEFAE" />
    </linearGradient>
    <linearGradient id="paint19_linear_527_424" x1="46.1195" y1="228.91" x2="46.1195" y2="254.61"
      gradientUnits="userSpaceOnUse">
      <stop stop-color="#103559" />
      <stop offset="0.34" stop-color="#104677" />
      <stop offset="0.93" stop-color="#126BB5" />
    </linearGradient>
    <linearGradient id="paint20_linear_527_424" x1="46.3997" y1="214.8" x2="46.3997" y2="267.44"
      gradientUnits="userSpaceOnUse">
      <stop offset="0.3" stop-color="#FFEFAE" />
      <stop offset="0.32" stop-color="#FDEBA9" />
      <stop offset="0.7" stop-color="#D49440" />
      <stop offset="0.75" stop-color="#CD8F3E" />
      <stop offset="0.81" stop-color="#BD8339" />
      <stop offset="0.88" stop-color="#A17031" />
      <stop offset="0.95" stop-color="#7A5526" />
      <stop offset="0.97" stop-color="#6F4D23" />
    </linearGradient>
    <linearGradient id="paint21_linear_527_424" x1="51.579" y1="220.32" x2="51.579" y2="262.02"
      gradientUnits="userSpaceOnUse">
      <stop stop-color="#FFF284" />
      <stop offset="0.08" stop-color="#F8E77D" />
      <stop offset="0.21" stop-color="#E6C96C" />
      <stop offset="0.39" stop-color="#CA9A4F" />
      <stop offset="0.59" stop-color="#A35928" />
      <stop offset="0.62" stop-color="#9D4F23" />
      <stop offset="0.76" stop-color="#8F481F" />
      <stop offset="1" stop-color="#6E3917" />
    </linearGradient>
    <linearGradient id="paint22_linear_527_424" x1="-nan" y1="-nan" x2="-nan" y2="-nan" gradientUnits="userSpaceOnUse">
      <stop stop-color="#6F4D23" />
      <stop offset="0.17" stop-color="#835B28" />
      <stop offset="0.52" stop-color="#B88038" />
      <stop offset="0.69" stop-color="#D49440" />
      <stop offset="0.99" stop-color="#FDEBA9" />
      <stop offset="1" stop-color="#FFEFAE" />
    </linearGradient>
    <linearGradient id="paint23_linear_527_424" x1="330.459" y1="0.000105903" x2="330.459" y2="0.000105903"
      gradientUnits="userSpaceOnUse">
      <stop stop-color="#103559" />
      <stop offset="0.34" stop-color="#104677" />
      <stop offset="0.93" stop-color="#126BB5" />
    </linearGradient>
    <linearGradient id="paint24_linear_527_424" x1="330.74" y1="-2.71193e-05" x2="330.74" y2="-2.71193e-05"
      gradientUnits="userSpaceOnUse">
      <stop offset="0.3" stop-color="#FFEFAE" />
      <stop offset="0.32" stop-color="#FDEBA9" />
      <stop offset="0.7" stop-color="#D49440" />
      <stop offset="0.75" stop-color="#CD8F3E" />
      <stop offset="0.81" stop-color="#BD8339" />
      <stop offset="0.88" stop-color="#A17031" />
      <stop offset="0.95" stop-color="#7A5526" />
      <stop offset="0.97" stop-color="#6F4D23" />
    </linearGradient>
    <linearGradient id="paint25_linear_527_424" x1="335.919" y1="5.88946e-05" x2="335.919" y2="5.88946e-05"
      gradientUnits="userSpaceOnUse">
      <stop stop-color="#FFF284" />
      <stop offset="0.08" stop-color="#F8E77D" />
      <stop offset="0.21" stop-color="#E6C96C" />
      <stop offset="0.39" stop-color="#CA9A4F" />
      <stop offset="0.59" stop-color="#A35928" />
      <stop offset="0.62" stop-color="#9D4F23" />
      <stop offset="0.76" stop-color="#8F481F" />
      <stop offset="1" stop-color="#6E3917" />
    </linearGradient>
  </defs>
</svg>