<svg width="290" height="110" viewBox="0 0 290 110" fill="none" xmlns="http://www.w3.org/2000/svg">
  <g clip-path="url(#clip0_527_611)">
    <path
      d="M92.9277 0H16.7391C7.49591 0 0 7.70817 0 17.2009V92.8098C0 102.206 7.34491 109.871 16.4802 110H92.8846C102.128 110 109.645 102.313 109.645 92.8098L109.678 17.2009C109.678 7.70817 102.171 0 92.9385 0H92.9277ZM25.7989 101.195L21.6357 101.249C16.6096 101.249 12.5327 97.0886 12.5327 91.9713L12.5112 91.2402V21.4259L12.5327 17.674C12.7377 12.7287 16.4802 8.72948 21.3876 8.72948H29.8326C37.5011 8.72948 43.692 15.4163 43.692 23.275C43.692 27.1775 42.1712 30.7037 39.7121 33.2838L18.1628 55.1828L38.3747 75.8346C40.9633 78.5223 42.5271 82.0485 42.5271 85.9079C42.5271 94.3579 35.0636 101.195 25.7989 101.195ZM87.9232 101.12H50.2388C50.2388 101.12 54.5961 91.681 54.5961 85.8327C54.5961 78.705 52.2341 72.3299 48.5023 68.1265L35.6352 54.9785L48.7612 41.379C52.6871 37.6593 55.2972 31.1229 55.2972 23.6728C55.2972 17.76 53.6686 12.5352 51.0369 8.72948H60.1722C67.8299 8.72948 74.0315 15.4163 74.0315 23.275C74.0315 27.1775 72.5216 30.7037 70.0517 33.2838L48.9014 54.9678L92.8091 99.8407C91.407 100.712 89.6597 101.12 87.9125 101.12H87.9232ZM97.1125 87.112L65.6512 54.9678L80.6323 39.6912C83.6845 35.864 85.6259 30.1016 85.6259 23.6728C85.6259 17.717 83.9758 12.3739 81.3225 8.56822L88.0203 8.75098C93.0463 8.75098 97.134 12.9115 97.134 18.0287L97.1125 87.112Z"
      fill="#02549A" />
    <path
      d="M177.205 49.8398C177.809 49.2162 178.532 48.4207 179.362 47.4639C180.193 46.4963 180.991 45.346 181.746 44.0345C182.479 42.7014 183.116 41.2178 183.644 39.616C184.173 37.9926 184.432 36.251 184.432 34.3912C184.432 30.8005 183.817 27.4356 182.587 24.3179C181.358 21.1895 179.47 18.4588 176.925 16.1259C174.379 13.8038 171.209 11.9655 167.38 10.6646C163.562 9.33157 159.107 8.67578 154.027 8.67578H120.463V101.002H157.317C162.677 101.002 167.347 100.282 171.338 98.8302C175.339 97.3789 178.64 95.3793 181.282 92.8421C183.903 90.2942 185.866 87.3163 187.139 83.9191C188.411 80.5542 189.048 76.9313 189.048 73.0396C189.048 67.8685 187.861 63.235 185.489 59.2035C183.127 55.1506 180.365 52.0329 177.216 49.8398H177.205ZM160.898 25.5972C162.138 26.0702 163.173 26.6938 163.982 27.4678C166.085 29.4782 167.132 31.8971 167.132 34.6922C167.132 37.2293 166.7 39.315 165.816 41.0028C164.942 42.6476 164.069 43.927 163.195 44.7978H137.59V24.5006H153.51C156.497 24.5006 158.945 24.8769 160.898 25.5972ZM158.244 60.7839C162.882 60.7839 166.323 61.9772 168.566 64.3853C170.669 66.772 171.726 69.5456 171.726 72.7815C171.726 76.0175 170.518 78.9416 168.113 81.3067C165.719 83.6826 161.76 84.8759 156.26 84.8759H137.59V60.7839H158.244Z"
      fill="#02549A" />
    <path
      d="M251.528 61.2461C254.3 59.3648 256.587 57.1609 258.442 54.656C260.286 52.1511 261.645 49.3775 262.508 46.3566C263.392 43.3142 263.835 40.218 263.835 37.0466C263.835 32.9076 263.155 29.1019 261.785 25.6509C260.426 22.1785 258.399 19.1898 255.67 16.6742C252.952 14.1693 249.555 12.2127 245.467 10.8151C241.39 9.39605 236.666 8.69727 231.316 8.69727H195.056V101.002H212.496V66.7182H222.224L246.276 101.002H266.736L241.854 65.5356C245.532 64.5681 248.767 63.1382 251.528 61.2461ZM231.457 24.5114C232.557 24.5114 233.581 24.5866 234.574 24.7264C237.691 25.1887 240.225 26.3067 242.177 28.0806C244.841 30.4887 246.179 33.4451 246.179 36.9391C246.179 38.7129 245.888 40.4007 245.316 42.0671C244.744 43.7334 243.86 45.217 242.63 46.4641C241.422 47.7326 239.837 48.7754 237.906 49.5495C235.987 50.3343 233.678 50.7321 230.961 50.7321H212.496V24.5006H231.457V24.5114Z"
      fill="#02549A" />
    <path
      d="M272.884 8.67578V8.70803C272.7 8.70803 272.538 8.67578 272.366 8.67578H272.215V101.002H290V8.67578H272.894H272.884Z"
      fill="#02549A" />
  </g>
  <defs>
    <clipPath id="clip0_527_611">
      <rect width="290" height="110" fill="white" />
    </clipPath>
  </defs>
</svg>